<svg width="24" height="24" viewBox="0 0 24 24" fill="none" xmlns="http://www.w3.org/2000/svg">
<path d="M8.78444 12.7031C7.39984 12.7031 6.27344 13.8295 6.27344 15.2141V21.489C6.27344 22.8736 7.39984 24 8.78444 24C10.169 24 11.2954 22.8736 11.2954 21.489V15.2141C11.2954 13.8295 10.169 12.7031 8.78444 12.7031Z" fill="#999999"/>
<path d="M4.86969 12.7031H2.43875C1.09831 12.7031 0.0078125 13.7937 0.0078125 15.1341C0.0078125 16.4745 1.09836 17.565 2.43875 17.565C3.77914 17.565 4.86969 16.4745 4.86969 15.1341V12.7031Z" fill="#999999"/>
<path d="M0 8.78444C0 10.169 1.12641 11.2954 2.511 11.2954H8.78583C10.1705 11.2954 11.2969 10.169 11.2969 8.78444C11.2969 7.39985 10.1705 6.27344 8.78588 6.27344H2.511C1.12641 6.27339 0 7.39985 0 8.78444H0Z" fill="#999999"/>
<path d="M8.86844 4.8697H11.2994V2.43875C11.2994 1.09831 10.2088 0.0078125 8.86844 0.0078125C7.528 0.0078125 6.4375 1.09836 6.4375 2.43875C6.4375 3.77915 7.528 4.8697 8.86844 4.8697Z" fill="#999999"/>
<path d="M15.2141 11.2969C16.5987 11.2969 17.7251 10.1705 17.7251 8.78589V2.511C17.7252 1.12641 16.5987 0 15.2141 0C13.8295 0 12.7031 1.12641 12.7031 2.511V8.78584C12.7031 10.1705 13.8295 11.2969 15.2141 11.2969Z" fill="#999999"/>
<path d="M19.1328 11.2955H21.5638C22.9042 11.2955 23.9947 10.2049 23.9947 8.86454C23.9947 7.5241 22.9041 6.43359 21.5638 6.43359C20.2234 6.43359 19.1328 7.52414 19.1328 8.86454V11.2955Z" fill="#999999"/>
<path d="M24 15.2141C24 13.8295 22.8736 12.7031 21.489 12.7031H15.2141C13.8295 12.7031 12.7031 13.8295 12.7031 15.2141C12.7031 16.5987 13.8295 17.7251 15.2141 17.7251H21.489C22.8736 17.7252 24 16.5987 24 15.2141Z" fill="#999999"/>
<path d="M15.1341 19.1328H12.7031V21.5638C12.7031 22.9042 13.7937 23.9947 15.1341 23.9947C16.4745 23.9947 17.565 22.9041 17.565 21.5638C17.565 20.2234 16.4745 19.1328 15.1341 19.1328Z" fill="#999999"/>
</svg>
