<svg width="24" height="24" viewBox="0 0 24 24" fill="none" xmlns="http://www.w3.org/2000/svg">
<g clip-path="url(#clip0_1287_1495)">
<path d="M8.84131 12.6523C7.44931 12.6523 6.32031 13.7813 6.32031 15.1733V21.4793C6.32031 22.8713 7.44931 24.0003 8.84131 24.0003C10.2333 24.0003 11.3623 22.8713 11.3623 21.4793V15.1733C11.3613 13.7813 10.2323 12.6523 8.84131 12.6523Z" fill="#E91E63"/>
<path d="M0.0195312 15.1714C0.0195312 16.5644 1.14953 17.6944 2.54253 17.6944C3.93553 17.6944 5.06553 16.5644 5.06553 15.1714V12.6484H2.54453C2.54353 12.6484 2.54353 12.6484 2.54253 12.6484C1.14953 12.6484 0.0195312 13.7784 0.0195312 15.1714Z" fill="#E91E63"/>
<path d="M8.84631 0C8.84531 0 8.84431 0 8.84331 0C7.45031 0 6.32031 1.13 6.32031 2.523C6.32031 3.916 7.45031 5.046 8.84331 5.046H11.3643V2.523C11.3643 2.522 11.3643 2.52 11.3643 2.518C11.3633 1.127 10.2363 0 8.84631 0Z" fill="#00BCD4"/>
<path d="M2.523 11.3702H8.841C10.234 11.3702 11.364 10.2402 11.364 8.84722C11.364 7.45422 10.234 6.32422 8.841 6.32422H2.523C1.13 6.32422 0 7.45422 0 8.84722C0 10.2402 1.13 11.3702 2.523 11.3702Z" fill="#00BCD4"/>
<path d="M21.4594 6.32422C20.0684 6.32422 18.9414 7.45122 18.9414 8.84222V8.84722V11.3702H21.4624C22.8554 11.3702 23.9854 10.2402 23.9854 8.84722C23.9854 7.45422 22.8554 6.32422 21.4624 6.32422C21.4614 6.32422 21.4604 6.32422 21.4594 6.32422Z" fill="#4CAF50"/>
<path d="M12.6406 2.521V8.846C12.6406 10.238 13.7696 11.367 15.1616 11.367C16.5536 11.367 17.6826 10.238 17.6826 8.846V2.521C17.6826 1.129 16.5536 0 15.1616 0C13.7696 0 12.6406 1.129 12.6406 2.521Z" fill="#4CAF50"/>
<path d="M17.6787 21.4741C17.6787 20.0821 16.5497 18.9531 15.1577 18.9531H12.6367V21.4761C12.6377 22.8671 13.7657 23.9951 15.1577 23.9951C16.5497 23.9951 17.6787 22.8661 17.6787 21.4741Z" fill="#FF9800"/>
<path d="M21.4777 12.6484H15.1597C13.7667 12.6484 12.6367 13.7784 12.6367 15.1714C12.6367 16.5644 13.7667 17.6944 15.1597 17.6944H21.4777C22.8707 17.6944 24.0007 16.5644 24.0007 15.1714C24.0007 13.7784 22.8707 12.6484 21.4777 12.6484Z" fill="#FF9800"/>
</g>
<defs>
<clipPath id="clip0_1287_1495">
<rect width="24" height="24" fill="white"/>
</clipPath>
</defs>
</svg>
