<svg width="25" height="19" viewBox="0 0 25 19" fill="none" xmlns="http://www.w3.org/2000/svg">
<path d="M3.66899 0C3.66834 0 3.66761 0 3.66697 0C3.43998 0 3.22648 0.0884851 3.06527 0.249294C2.90228 0.41188 2.8125 0.628366 2.8125 0.858831V13.7369C2.8125 14.2091 3.1982 14.5942 3.67238 14.5954C5.67142 14.6002 9.0206 15.0169 11.3311 17.4347V3.95751C11.3311 3.79743 11.2902 3.64704 11.213 3.5226C9.31668 0.468688 5.67255 0.00468688 3.66899 0Z" fill="#999999"/>
<path d="M21.1826 13.7369V0.85883C21.1826 0.628365 21.0928 0.41188 20.9298 0.249293C20.7686 0.088485 20.5549 0 20.3282 0C20.3274 0 20.3267 0 20.3261 0C18.3226 0.00476769 14.6785 0.468769 12.782 3.52268C12.7049 3.64712 12.6641 3.7975 12.6641 3.95759V17.4347C14.9745 15.0168 18.3237 14.6002 20.3228 14.5954C20.7969 14.5942 21.1826 14.2091 21.1826 13.7369Z" fill="#999999"/>
<path d="M23.1435 2.96875H22.5208V13.7357C22.5208 14.9415 21.5384 15.9247 20.3308 15.9277C18.6352 15.9317 15.8394 16.2633 13.8594 18.1373C17.2839 17.2988 20.8939 17.8439 22.9513 18.3127C23.2082 18.3712 23.4736 18.3108 23.6795 18.1467C23.8846 17.9831 24.0022 17.7385 24.0022 17.476V3.82742C24.0023 3.35396 23.617 2.96875 23.1435 2.96875Z" fill="#999999"/>
<path d="M1.48138 13.7357V2.96875H0.85867C0.385294 2.96875 0 3.35396 0 3.82742V17.4757C0 17.7383 0.117657 17.9829 0.322749 18.1465C0.528406 18.3105 0.793619 18.3711 1.05091 18.3125C3.10829 17.8435 6.71841 17.2986 10.1427 18.137C8.16278 16.2631 5.36697 15.9316 3.67137 15.9276C2.46385 15.9247 1.48138 14.9415 1.48138 13.7357Z" fill="#999999"/>
</svg>
