<svg width="24" height="24" viewBox="0 0 24 24" fill="none" xmlns="http://www.w3.org/2000/svg">
<path d="M9.0001 8.71875L3 11.9982V17.1207C3 17.9316 3.45715 18.681 4.19935 19.0866L9.0001 21.7106V15.2777V8.71875Z" stroke="#999999" stroke-width="2"/>
<path d="M19.8008 19.0884C20.5431 18.6827 21.0002 17.9334 21.0002 17.1225V12L15.0001 15.2795L12.6004 16.5911C12.229 16.7942 11.7711 16.7942 11.3997 16.5911L9 15.2795V21.7124L10.7994 22.6959C11.5423 23.1019 12.4578 23.1019 13.2007 22.6959L17.8848 20.1357L19.8008 19.0884Z" stroke="#999999" stroke-width="2"/>
<path d="M21.0001 11.9975V6.87501C21.0001 6.06413 20.543 5.31479 19.8007 4.90912L15 2.28516V8.71803V15.2771L21.0001 11.9975Z" stroke="#999999" stroke-width="2"/>
<path d="M4.19935 4.912C3.45715 5.31766 3 6.06699 3 6.87787V12.0004L9.0001 8.72089L11.3998 7.40927C11.7712 7.20623 12.2291 7.20623 12.6005 7.40927L15.0002 8.72089V2.28803L13.2008 1.30454C12.4579 0.898485 11.5424 0.898485 10.7995 1.30454L6.11544 3.86472L4.19935 4.912Z" stroke="#999999" stroke-width="2"/>
</svg>
