<svg width="164" height="29" viewBox="0 0 164 29" fill="none" xmlns="http://www.w3.org/2000/svg">
<path d="M55.7881 22.0391C55.6006 22.0508 55.3662 22.0449 55.085 22.0215C54.8154 21.998 54.5635 22.0391 54.3291 22.1445C53.708 22.1211 53.0752 22.0449 52.4307 21.916C51.7861 21.7871 51.1943 21.6289 50.6553 21.4414C50.5381 21.3125 50.4209 21.1953 50.3037 21.0898C50.1865 20.9727 50.0283 20.8906 49.8291 20.8438C49.5479 20.6211 49.3193 20.3516 49.1436 20.0352C48.9678 19.707 48.8271 19.3613 48.7217 18.998C48.6162 18.6348 48.5459 18.2656 48.5107 17.8906C48.4756 17.5039 48.4639 17.1348 48.4756 16.7832C48.6514 16.2559 48.8975 15.8047 49.2139 15.4297C49.542 15.043 49.876 14.6621 50.2158 14.2871C50.3682 14.2168 50.4795 14.1465 50.5498 14.0762C50.6318 13.9941 50.7139 13.9238 50.7959 13.8652C50.8896 13.7949 50.9775 13.7305 51.0596 13.6719C51.1533 13.6016 51.2354 13.5195 51.3057 13.4258C51.5518 13.3672 51.7627 13.2852 51.9385 13.1797C52.126 13.0625 52.3076 12.9453 52.4834 12.8281C52.6592 12.6992 52.8408 12.582 53.0283 12.4766C53.2158 12.3711 53.4326 12.2891 53.6787 12.2305C53.7725 12.125 53.8838 12.043 54.0127 11.9844C54.1416 11.9141 54.2705 11.8496 54.3994 11.791C54.54 11.7207 54.6689 11.6504 54.7861 11.5801C54.915 11.5098 55.0146 11.416 55.085 11.2988C55.1436 11.3926 55.2256 11.4277 55.3311 11.4043C55.4365 11.3691 55.5361 11.334 55.6299 11.2988C55.6885 11.2871 55.7354 11.2988 55.7705 11.334C55.8174 11.3691 55.8584 11.4043 55.8936 11.4395C55.9287 11.4746 55.958 11.498 55.9814 11.5098C56.0166 11.5098 56.0459 11.4805 56.0693 11.4219C56.1279 11.4219 56.1455 11.4512 56.1221 11.5098C56.0986 11.5684 56.0811 11.6094 56.0693 11.6328C56.1631 11.6211 56.2393 11.6445 56.2979 11.7031C56.3682 11.75 56.4736 11.7793 56.6143 11.791C56.6611 11.8496 56.6729 11.8965 56.6494 11.9316C56.626 11.9551 56.6143 12.002 56.6143 12.0723C56.9658 12.1777 57.1885 12.3477 57.2822 12.582C57.376 12.8047 57.3818 13.0391 57.2998 13.2852C57.2178 13.5312 57.0713 13.7598 56.8604 13.9707C56.6494 14.1816 56.4209 14.3223 56.1748 14.3926C55.6123 14.5449 55.0791 14.7148 54.5752 14.9023C54.083 15.0781 53.6787 15.3418 53.3623 15.6934C53.0811 15.7754 52.8291 15.8867 52.6064 16.0273C52.3955 16.1562 52.1904 16.3086 51.9912 16.4844C51.8037 16.6484 51.6221 16.8242 51.4463 17.0117C51.2822 17.1875 51.1064 17.3633 50.9189 17.5391C50.9307 17.7031 50.9014 17.832 50.8311 17.9258C50.7725 18.0078 50.7139 18.0957 50.6553 18.1895C50.6787 18.3652 50.7197 18.5234 50.7783 18.6641C50.8369 18.793 50.9014 18.9219 50.9717 19.0508C51.7451 19.2852 52.5654 19.4316 53.4326 19.4902C54.3115 19.5488 55.1904 19.584 56.0693 19.5957C56.1514 19.7129 56.2451 19.8242 56.3506 19.9297C56.4678 20.0234 56.5732 20.1289 56.667 20.2461C56.7607 20.3516 56.8369 20.4746 56.8955 20.6152C56.9541 20.7441 56.9658 20.9082 56.9307 21.1074C56.7666 21.2832 56.585 21.4473 56.3857 21.5996C56.1865 21.7402 55.9873 21.8867 55.7881 22.0391ZM67.9697 16.7305C67.958 16.8711 67.9697 17.0059 68.0049 17.1348C68.04 17.2637 68.0811 17.3926 68.1279 17.5215C68.1865 17.6387 68.2393 17.7617 68.2861 17.8906C68.333 18.0195 68.3682 18.1484 68.3916 18.2773C68.415 18.4414 68.415 18.623 68.3916 18.8223C68.3682 19.0098 68.3271 19.1973 68.2686 19.3848C68.21 19.5605 68.1338 19.7246 68.04 19.877C67.9463 20.0176 67.835 20.123 67.7061 20.1934C67.542 20.4043 67.3428 20.5684 67.1084 20.6855C66.874 20.8027 66.6572 20.9434 66.458 21.1074C66.3291 21.1895 66.1826 21.248 66.0186 21.2832C65.8662 21.3184 65.708 21.3535 65.5439 21.3887C65.415 21.459 65.2627 21.5352 65.0869 21.6172C64.9111 21.6875 64.7295 21.7578 64.542 21.8281C64.3545 21.8867 64.167 21.9336 63.9795 21.9688C63.792 21.9922 63.6279 21.998 63.4873 21.9863C63.1357 22.1152 62.79 22.1973 62.4502 22.2324C62.1221 22.2793 61.7354 22.2559 61.29 22.1621C60.8682 22.2207 60.4756 22.2031 60.1123 22.1094C59.7607 22.0156 59.4443 21.8691 59.1631 21.6699C58.8936 21.459 58.6533 21.2129 58.4424 20.9316C58.2432 20.6387 58.0791 20.334 57.9502 20.0176C57.8564 19.3496 57.8799 18.7461 58.0205 18.207C58.1611 17.6562 58.3604 17.1523 58.6182 16.6953C58.8877 16.2266 59.1924 15.7988 59.5322 15.4121C59.8721 15.0137 60.2002 14.627 60.5166 14.252C60.5869 14.2754 60.6396 14.2754 60.6748 14.252C60.7217 14.2168 60.7627 14.1758 60.7979 14.1289C60.833 14.0703 60.8682 14.0176 60.9033 13.9707C60.9502 13.9238 61.0029 13.8945 61.0615 13.8828C61.1436 13.707 61.2607 13.5781 61.4131 13.4961C61.5771 13.4023 61.7061 13.2734 61.7998 13.1094C61.9053 13.0859 61.9932 13.0508 62.0635 13.0039C62.1338 12.957 62.1982 12.9043 62.2568 12.8457C62.3271 12.7871 62.3975 12.7344 62.4678 12.6875C62.5381 12.6289 62.6201 12.5879 62.7139 12.5645V12.3711C62.9248 12.2773 63.0771 12.1719 63.1709 12.0547C63.2764 11.9258 63.3994 11.7734 63.54 11.5977C63.6455 11.5859 63.7275 11.5801 63.7861 11.5801C63.8564 11.5801 63.9561 11.5684 64.085 11.5449C64.1787 11.3809 64.2607 11.2578 64.3311 11.1758C64.4131 11.0938 64.5303 11.0059 64.6826 10.9121C64.8232 10.9824 64.9756 11.0293 65.1396 11.0527C65.3154 11.0762 65.4678 11.1523 65.5967 11.2812C65.6084 11.3984 65.6436 11.4922 65.7021 11.5625C65.7607 11.6211 65.8252 11.6797 65.8955 11.7383C65.9658 11.7852 66.0303 11.8379 66.0889 11.8965C66.1592 11.9551 66.2061 12.0371 66.2295 12.1426C66.2764 12.1543 66.3057 12.1484 66.3174 12.125C66.3408 12.1016 66.376 12.0957 66.4229 12.1074C66.458 12.2715 66.499 12.3828 66.5459 12.4414C66.5928 12.4883 66.6396 12.5879 66.6865 12.7402C66.6279 12.8574 66.5811 12.9805 66.5459 13.1094C66.5225 13.2266 66.4521 13.3145 66.335 13.373C66.3232 13.4551 66.3467 13.502 66.4053 13.5137C66.4639 13.5137 66.499 13.543 66.5107 13.6016C66.5225 13.707 66.5049 13.7832 66.458 13.8301C66.7393 14.2871 66.9912 14.7734 67.2139 15.2891C67.4365 15.793 67.6885 16.2734 67.9697 16.7305ZM65.7725 18.4004C65.8193 18.2715 65.8779 18.166 65.9482 18.084C66.0303 18.002 66.0771 17.8789 66.0889 17.7148C66.0303 17.6211 65.9951 17.5508 65.9834 17.5039C65.9717 17.4453 65.9658 17.3574 65.9658 17.2402C65.708 16.877 65.4854 16.4902 65.2979 16.0801C65.1104 15.6582 64.8994 15.2656 64.665 14.9023C64.6416 14.9492 64.6006 14.9961 64.542 15.043C64.4834 15.0898 64.4189 15.0781 64.3486 15.0078C64.3252 15.1016 64.2842 15.1719 64.2256 15.2188C64.167 15.2539 64.1025 15.2715 64.0322 15.2715C63.9619 15.2598 63.8857 15.2422 63.8037 15.2188C63.7334 15.1836 63.6689 15.1426 63.6104 15.0957C63.2705 15.3652 62.9307 15.6289 62.5908 15.8867C62.251 16.1445 61.9463 16.4434 61.6768 16.7832C61.6299 16.8066 61.6006 16.8184 61.5889 16.8184C61.5771 16.8066 61.542 16.8125 61.4834 16.8359C61.3896 17.0586 61.2725 17.2637 61.1318 17.4512C61.0029 17.627 60.874 17.8086 60.7451 17.9961C60.6162 18.1836 60.5049 18.3828 60.4111 18.5938C60.3174 18.8047 60.2646 19.0508 60.2529 19.332C60.4521 19.4961 60.6865 19.5957 60.9561 19.6309C61.2256 19.666 61.501 19.6719 61.7822 19.6484C62.0752 19.625 62.3564 19.5898 62.626 19.543C62.9072 19.4844 63.165 19.4551 63.3994 19.4551C63.8916 19.3379 64.3135 19.1855 64.665 18.998C65.0166 18.7988 65.3857 18.5996 65.7725 18.4004ZM81.2061 21.6875C81.0889 21.7461 80.9775 21.7988 80.8721 21.8457C80.7783 21.8926 80.667 21.916 80.5381 21.916C80.0811 21.5762 79.8408 20.9844 79.8174 20.1406C79.8057 19.2969 79.9873 18.2246 80.3623 16.9238C80.4209 16.8887 80.4502 16.8184 80.4502 16.7129L80.292 16.5371C80.2451 16.5371 80.1982 16.543 80.1514 16.5547C80.1162 16.5664 80.0869 16.6074 80.0635 16.6777C79.7588 16.9004 79.4248 17.1348 79.0615 17.3809C78.6982 17.6152 78.3174 17.8379 77.9189 18.0488C77.5322 18.248 77.1338 18.4121 76.7236 18.541C76.3252 18.6699 75.9326 18.7344 75.5459 18.7344C74.5615 18.7344 73.8232 18.2363 73.3311 17.2402L73.1904 16.9766L73.0498 17.2051C73.0146 17.252 72.9619 17.3516 72.8916 17.5039C72.8213 17.6445 72.751 17.8086 72.6807 17.9961C72.6104 18.1836 72.5459 18.377 72.4873 18.5762C72.4404 18.7637 72.4229 18.9277 72.4346 19.0684C72.3291 19.1738 72.2178 19.2969 72.1006 19.4375C71.9834 19.5781 71.8955 19.7363 71.8369 19.9121C71.8135 20.0059 71.8252 20.0938 71.8721 20.1758C71.8486 20.2812 71.7959 20.3633 71.7139 20.4219C71.667 20.4805 71.6143 20.5391 71.5557 20.5977C71.5088 20.6445 71.4678 20.6973 71.4326 20.7559C71.4092 20.8145 71.3916 20.873 71.3799 20.9316C71.3799 20.9902 71.374 21.0488 71.3623 21.1074C71.3623 21.1895 71.3506 21.2656 71.3271 21.3359C71.1279 21.7461 70.9697 22.0098 70.8525 22.127C70.7354 22.2559 70.5771 22.3203 70.3779 22.3203C70.2842 22.3203 70.1318 22.3027 69.9209 22.2676C69.7686 22.1035 69.6279 21.8809 69.499 21.5996C69.3818 21.3066 69.2881 20.9961 69.2178 20.668C69.1592 20.3398 69.1299 20.0117 69.1299 19.6836C69.1416 19.3438 69.2002 19.0508 69.3057 18.8047C69.3057 18.793 69.3525 18.6758 69.4463 18.4531C69.54 18.2305 69.6572 17.9434 69.7979 17.5918C69.9502 17.2402 70.1201 16.8535 70.3076 16.4316C70.4951 15.998 70.6826 15.582 70.8701 15.1836C71.0576 14.7734 71.2334 14.3984 71.3975 14.0586C71.5732 13.7188 71.7197 13.4609 71.8369 13.2852C71.9307 13.1445 72.0127 13.0156 72.083 12.8984C72.165 12.7695 72.2412 12.6465 72.3115 12.5293C72.5225 12.166 72.7217 11.8672 72.9092 11.6328C73.1084 11.3867 73.3955 11.1934 73.7705 11.0527C74.0283 11.1582 74.2158 11.2812 74.333 11.4219L74.3682 11.6152C74.415 11.7324 74.4854 11.791 74.5791 11.791C74.708 11.8262 74.8135 11.8613 74.8955 11.8965C74.9893 11.9199 75.0889 11.9434 75.1943 11.9668C75.2764 12.0605 75.3525 12.1719 75.4229 12.3008C75.5166 12.4414 75.6045 12.582 75.6865 12.7227C75.7803 12.8516 75.8506 12.9863 75.8975 13.127C75.9561 13.2559 75.9854 13.3906 75.9854 13.5312C75.9971 13.6719 75.9736 13.8184 75.915 13.9707L75.9326 14.1465C75.9912 14.252 76.0029 14.3984 75.9678 14.5859C75.9561 14.668 75.9502 14.7559 75.9502 14.8496C75.9502 14.9316 75.9619 15.0254 75.9854 15.1309C76.1963 15.2949 76.3838 15.377 76.5479 15.377C76.7354 15.377 76.9053 15.3359 77.0576 15.2539C77.2217 15.1602 77.374 15.0664 77.5146 14.9727C77.6084 14.9023 77.7021 14.8438 77.7959 14.7969C77.8896 14.7383 77.9834 14.7031 78.0771 14.6914C78.2881 14.4922 78.4756 14.3164 78.6396 14.1641C78.8154 14.0117 78.9971 13.8594 79.1846 13.707C79.5361 13.4258 79.876 13.1211 80.2041 12.793C80.5322 12.4648 80.7959 12.0547 80.9951 11.5625C81.1123 11.4922 81.2354 11.457 81.3643 11.457C81.4932 11.457 81.6279 11.4863 81.7686 11.5449C81.9092 11.6035 82.0439 11.6621 82.1729 11.7207C82.208 11.7441 82.2373 11.7617 82.2607 11.7734C82.2959 11.7852 82.3252 11.7969 82.3486 11.8086C82.3486 11.9258 82.3955 12.0254 82.4893 12.1074C82.5361 12.1426 82.5654 12.166 82.5771 12.1777C82.5889 12.1895 82.6064 12.2012 82.6299 12.2129C82.8057 12.3066 82.917 12.4004 82.9639 12.4941C83.0459 12.7637 83.1924 12.9688 83.4033 13.1094C83.3799 13.2266 83.3799 13.3379 83.4033 13.4434C83.4385 13.5371 83.4795 13.6367 83.5264 13.7422C83.5381 13.7773 83.5498 13.8125 83.5615 13.8477C83.5732 13.8828 83.5908 13.9238 83.6143 13.9707L83.2803 13.9355L83.333 14.2695C83.3564 14.4336 83.3389 14.6152 83.2803 14.8145C83.2334 15.0137 83.1748 15.1719 83.1045 15.2891C83.1162 15.5938 83.1221 15.834 83.1221 16.0098C83.1338 16.1738 83.1279 16.332 83.1045 16.4844C83.0811 16.625 83.0459 16.7598 82.999 16.8887C82.9639 17.0176 82.9111 17.1582 82.8408 17.3105C82.8877 18.0605 82.7998 18.7461 82.5771 19.3672C82.3662 19.9766 82.1436 20.5508 81.9092 21.0898C81.8857 21.1484 81.8564 21.207 81.8213 21.2656C81.7979 21.3242 81.7744 21.3828 81.751 21.4414C81.6455 21.4766 81.5518 21.5176 81.4697 21.5645C81.3877 21.5996 81.2998 21.6406 81.2061 21.6875ZM87.4287 20.7734C87.4873 21.125 87.4639 21.4004 87.3584 21.5996C87.2646 21.7988 87.124 21.9453 86.9365 22.0391C86.7607 22.1445 86.5557 22.2031 86.3213 22.2148C86.0869 22.2266 85.8643 22.2148 85.6533 22.1797C85.5361 22.0156 85.4307 21.8105 85.3369 21.5645C85.2432 21.3184 85.1553 21.0664 85.0732 20.8086C84.9912 20.5391 84.915 20.2754 84.8447 20.0176C84.7861 19.7598 84.7334 19.5312 84.6865 19.332C84.7451 19.1914 84.7803 19.0332 84.792 18.8574C84.8154 18.6699 84.8271 18.4824 84.8271 18.2949C84.8389 18.1074 84.8447 17.9199 84.8447 17.7324C84.8564 17.5332 84.874 17.3457 84.8975 17.1699C84.9795 16.6777 85.0967 16.209 85.249 15.7637C85.4131 15.3184 85.542 14.8555 85.6357 14.375C85.6592 14.2695 85.6475 14.1699 85.6006 14.0762C85.5654 13.9824 85.5596 13.8945 85.583 13.8125C85.5947 13.7656 85.6299 13.7363 85.6885 13.7246C85.7471 13.7012 85.7822 13.6602 85.7939 13.6016C85.8291 13.4727 85.835 13.3672 85.8115 13.2852C85.7998 13.2031 85.8232 13.1035 85.8818 12.9863C85.9404 12.8926 86.0107 12.7578 86.0928 12.582C86.1865 12.3945 86.2217 12.2012 86.1982 12.002C86.3037 11.9316 86.4033 11.8496 86.4971 11.7559C86.5908 11.6621 86.6846 11.5801 86.7783 11.5098C86.8838 11.4277 86.9951 11.3574 87.1123 11.2988C87.2412 11.2402 87.3936 11.2109 87.5693 11.2109C87.6631 11.3281 87.7217 11.457 87.7451 11.5977C87.7803 11.7383 87.8096 11.8789 87.833 12.0195C87.8682 12.1602 87.915 12.2949 87.9736 12.4238C88.0322 12.541 88.1318 12.6348 88.2725 12.7051C88.2725 12.7988 88.2725 12.916 88.2725 13.0566C88.2725 13.1973 88.2783 13.3379 88.29 13.4785C88.3018 13.6074 88.3252 13.7305 88.3604 13.8477C88.4072 13.9531 88.4775 14.0234 88.5713 14.0586C88.3604 14.6211 88.1611 15.1777 87.9736 15.7285C87.7979 16.2793 87.6514 16.8359 87.5342 17.3984C87.417 17.9492 87.3408 18.5059 87.3057 19.0684C87.2822 19.6309 87.3232 20.1992 87.4287 20.7734ZM93.0713 18.8047C92.9658 18.8281 92.8896 18.8926 92.8428 18.998C92.7959 19.0918 92.749 19.1914 92.7021 19.2969C92.667 19.4023 92.626 19.502 92.5791 19.5957C92.5439 19.6777 92.4854 19.7188 92.4033 19.7188C92.3916 19.8125 92.3564 19.8945 92.2979 19.9648C92.251 20.0352 92.2041 20.1113 92.1572 20.1934C92.1104 20.2637 92.0752 20.3457 92.0518 20.4395C92.0283 20.5215 92.04 20.6211 92.0869 20.7383C91.9932 20.8086 91.9346 20.9082 91.9111 21.0371C91.8877 21.166 91.8584 21.2891 91.8232 21.4062C91.7998 21.5234 91.7529 21.623 91.6826 21.7051C91.6123 21.7871 91.4834 21.8223 91.2959 21.8105C91.2607 21.8574 91.2549 21.8867 91.2783 21.8984C91.3018 21.9102 91.3193 21.9512 91.3311 22.0215C91.2021 21.998 91.1025 22.0039 91.0322 22.0391C90.9736 22.0859 90.8975 22.1152 90.8037 22.127C90.5811 22.0566 90.3936 21.9336 90.2412 21.7578C90.1006 21.582 89.9717 21.3887 89.8545 21.1777C89.749 20.9551 89.6494 20.7324 89.5557 20.5098C89.4736 20.2871 89.3916 20.0938 89.3096 19.9297C89.3447 19.8008 89.3506 19.6777 89.3271 19.5605C89.3037 19.4316 89.2627 19.3262 89.2041 19.2441C89.7783 18.0254 90.4053 16.7246 91.085 15.3418C91.7646 13.959 92.4092 12.5938 93.0186 11.2461C93.2881 11.3516 93.5518 11.4746 93.8096 11.6152C94.0791 11.7441 94.3193 11.8965 94.5303 12.0723C94.7529 12.248 94.9404 12.4531 95.0928 12.6875C95.2451 12.9102 95.3447 13.1621 95.3916 13.4434C95.3682 13.5137 95.3389 13.543 95.3037 13.5312C95.2803 13.5078 95.2568 13.5137 95.2334 13.5488C95.2803 13.6074 95.3037 13.6484 95.3037 13.6719C95.3154 13.6953 95.3154 13.7188 95.3037 13.7422C95.3037 13.7656 95.3037 13.8008 95.3037 13.8477C95.3037 13.8828 95.3213 13.9355 95.3564 14.0059C95.3096 13.9941 95.2744 14 95.251 14.0234C95.2393 14.0469 95.2041 14.0469 95.1455 14.0234C95.1924 14.1523 95.2041 14.2578 95.1807 14.3398C95.1689 14.4219 95.1455 14.498 95.1104 14.5684C95.0752 14.627 95.0459 14.6973 95.0225 14.7793C94.999 14.8496 95.0049 14.9434 95.04 15.0605C95.0049 15.0605 94.9756 15.0723 94.9521 15.0957C94.9404 15.1074 94.9287 15.125 94.917 15.1484C94.9053 15.1602 94.8877 15.1777 94.8643 15.2012C94.8525 15.2129 94.8291 15.2129 94.7939 15.2012C94.8291 15.459 94.8408 15.7168 94.8291 15.9746C94.8174 16.2324 94.8057 16.4961 94.7939 16.7656C94.7939 17.0234 94.7998 17.2988 94.8115 17.5918C94.8232 17.873 94.8643 18.166 94.9346 18.4707C95.3564 18.2246 95.6904 17.9082 95.9365 17.5215C96.1943 17.1348 96.3994 16.7012 96.5518 16.2207C96.7158 15.7402 96.8389 15.2246 96.9209 14.6738C97.0029 14.123 97.0908 13.5605 97.1846 12.9863C97.29 12.8809 97.3721 12.752 97.4307 12.5996C97.4893 12.4473 97.542 12.2891 97.5889 12.125C97.6357 11.9492 97.6826 11.7793 97.7295 11.6152C97.7764 11.4395 97.835 11.2812 97.9053 11.1406C98.0811 11.1641 98.2275 11.2227 98.3447 11.3164C98.4736 11.3984 98.5908 11.4922 98.6963 11.5977C98.8018 11.6914 98.9131 11.7852 99.0303 11.8789C99.1475 11.9609 99.2939 12.0137 99.4697 12.0371C99.6104 12.2363 99.7393 12.4297 99.8564 12.6172C99.9736 12.8047 100.05 13.0039 100.085 13.2148C100.026 13.3086 99.9795 13.4141 99.9443 13.5312C99.9209 13.6484 99.8916 13.7656 99.8564 13.8828C99.8213 14 99.7744 14.1113 99.7158 14.2168C99.6572 14.3105 99.5752 14.3926 99.4697 14.4629C99.4346 14.7676 99.3877 15.0488 99.3291 15.3066C99.2822 15.5527 99.2295 15.7988 99.1709 16.0449C99.124 16.291 99.083 16.5488 99.0479 16.8184C99.0127 17.0762 99.001 17.3633 99.0127 17.6797C98.9189 17.9492 98.8193 18.2363 98.7139 18.541C98.6084 18.8457 98.5264 19.1211 98.4678 19.3672C98.2803 19.5195 98.1338 19.7012 98.0283 19.9121C97.9229 20.123 97.8115 20.334 97.6943 20.5449C97.6475 20.5918 97.6182 20.6035 97.6064 20.5801C97.5947 20.5566 97.5537 20.5391 97.4834 20.5273C97.4951 20.5742 97.4951 20.6094 97.4834 20.6328C97.4717 20.6562 97.4541 20.6797 97.4307 20.7031C97.4189 20.7148 97.4072 20.7383 97.3955 20.7734C97.3955 20.8086 97.4072 20.8555 97.4307 20.9141C97.2666 20.9844 97.1201 21.084 96.9912 21.2129C96.8623 21.3418 96.7217 21.459 96.5693 21.5645C96.4287 21.6699 96.2529 21.7402 96.042 21.7754C95.8428 21.8105 95.5791 21.7695 95.251 21.6523C94.7705 21.3008 94.3428 20.8965 93.9678 20.4395C93.6045 19.9824 93.3057 19.4375 93.0713 18.8047ZM112.091 18.8398C111.81 19.3438 111.44 19.7363 110.983 20.0176C110.526 20.2871 110.022 20.5156 109.472 20.7031C108.921 20.8789 108.341 21.0371 107.731 21.1777C107.134 21.3184 106.554 21.5 105.991 21.7227C105.827 21.7227 105.681 21.7285 105.552 21.7402C105.435 21.752 105.317 21.7695 105.2 21.793C105.095 21.8047 104.989 21.8223 104.884 21.8457C104.778 21.8574 104.661 21.8691 104.532 21.8809C104.485 21.8691 104.456 21.8809 104.444 21.916C104.433 21.9395 104.415 21.9629 104.392 21.9863C104.192 22.0215 104.011 22.0391 103.847 22.0391C103.694 22.0391 103.565 22.0391 103.46 22.0391C103.319 22.0391 103.173 22.0566 103.021 22.0918C102.88 22.1387 102.751 22.1562 102.634 22.1445C101.755 22.0977 101.063 21.7871 100.56 21.2129C100.067 20.627 99.792 19.8184 99.7334 18.7871C99.7451 18.7285 99.7334 18.6934 99.6982 18.6816C99.6748 18.6699 99.6514 18.6523 99.6279 18.6289C99.6279 18.5117 99.6396 18.4121 99.6631 18.3301C99.6982 18.248 99.7041 18.1426 99.6807 18.0137C99.9854 17.3691 100.331 16.7715 100.718 16.2207C101.104 15.6582 101.567 15.166 102.106 14.7441C102.188 14.6738 102.259 14.6035 102.317 14.5332C102.376 14.4629 102.429 14.3926 102.476 14.3223C102.534 14.252 102.599 14.1934 102.669 14.1465C102.739 14.0879 102.827 14.0469 102.933 14.0234C103.179 13.7422 103.472 13.4844 103.812 13.25C104.151 13.0156 104.509 12.793 104.884 12.582C105.259 12.3594 105.628 12.1426 105.991 11.9316C106.366 11.709 106.706 11.4629 107.011 11.1934C107.14 11.252 107.233 11.2695 107.292 11.2461C107.351 11.2227 107.415 11.2227 107.485 11.2461C107.567 11.4219 107.679 11.5449 107.819 11.6152C107.972 11.6855 108.118 11.7617 108.259 11.8438C108.411 11.9141 108.552 12.002 108.681 12.1074C108.81 12.2129 108.909 12.3535 108.979 12.5293C108.909 12.5293 108.874 12.5586 108.874 12.6172C108.886 12.6641 108.903 12.7168 108.927 12.7754C108.95 12.8223 108.956 12.875 108.944 12.9336C108.944 12.9805 108.903 13.0039 108.821 13.0039C108.833 13.0625 108.868 13.0977 108.927 13.1094C108.997 13.1094 109.032 13.1387 109.032 13.1973C109.032 13.2559 109.015 13.3027 108.979 13.3379C108.956 13.373 108.956 13.4316 108.979 13.5137C108.745 13.666 108.481 13.8125 108.188 13.9531C107.907 14.0938 107.608 14.2461 107.292 14.4102C106.987 14.5625 106.665 14.7324 106.325 14.9199C105.997 15.0957 105.675 15.3008 105.358 15.5352C105.042 15.7695 104.72 16.0332 104.392 16.3262C104.063 16.6074 103.747 16.9062 103.442 17.2227C103.138 17.5391 102.851 17.8672 102.581 18.207C102.312 18.5352 102.083 18.8633 101.896 19.1914C101.919 19.25 101.942 19.2969 101.966 19.332C102.001 19.3555 102.03 19.3965 102.054 19.4551C102.429 19.4785 102.774 19.4785 103.091 19.4551C103.419 19.4199 103.747 19.4375 104.075 19.5078C104.11 19.4844 104.134 19.4492 104.146 19.4023C104.157 19.3555 104.187 19.3203 104.233 19.2969C104.901 19.2266 105.522 19.1211 106.097 18.9805C106.671 18.8281 107.257 18.6699 107.854 18.5059C107.761 18.4707 107.673 18.4414 107.591 18.418C107.521 18.3828 107.45 18.3535 107.38 18.3301C107.321 18.2715 107.321 18.2246 107.38 18.1895C107.45 18.1426 107.509 18.0957 107.556 18.0488C107.392 17.9551 107.257 17.8379 107.151 17.6973C107.058 17.5566 106.999 17.3691 106.976 17.1348C107.046 17.0762 107.081 17.0059 107.081 16.9238C107.081 16.8418 107.046 16.7773 106.976 16.7305C106.929 16.7188 106.899 16.7188 106.888 16.7305C106.876 16.7422 106.864 16.7598 106.853 16.7832C106.853 16.8066 106.847 16.8301 106.835 16.8535C106.823 16.8652 106.794 16.8594 106.747 16.8359C106.759 16.7305 106.782 16.6426 106.817 16.5723C106.864 16.502 106.899 16.4199 106.923 16.3262L108.136 15.5176C108.265 15.6113 108.423 15.7168 108.61 15.834C108.798 15.9395 108.991 16.0508 109.19 16.168C109.401 16.2734 109.612 16.3848 109.823 16.502C110.046 16.6074 110.251 16.7129 110.438 16.8184C110.603 16.8887 110.749 16.9824 110.878 17.0996C111.007 17.2168 111.13 17.3398 111.247 17.4688C111.364 17.5859 111.481 17.7031 111.599 17.8203C111.728 17.9375 111.874 18.0371 112.038 18.1191C112.015 18.2715 112.021 18.3945 112.056 18.4883C112.091 18.582 112.103 18.6992 112.091 18.8398ZM118.313 14.0938C118.396 13.8477 118.524 13.6367 118.7 13.4609C118.888 13.2852 119.087 13.1387 119.298 13.0215C119.521 12.8926 119.749 12.7871 119.983 12.7051C120.218 12.623 120.44 12.5527 120.651 12.4941C121.12 12.2949 121.618 12.1074 122.146 11.9316C122.685 11.7441 123.229 11.5801 123.78 11.4395C124.343 11.2988 124.917 11.2109 125.503 11.1758C126.089 11.1289 126.704 11.1992 127.349 11.3867C127.384 11.5039 127.437 11.6152 127.507 11.7207C127.577 11.8262 127.647 11.9316 127.718 12.0371C127.8 12.1426 127.87 12.248 127.929 12.3535C127.987 12.4473 128.022 12.5469 128.034 12.6523C128.151 12.7578 128.245 12.875 128.315 13.0039C128.386 13.1211 128.397 13.2793 128.351 13.4785C128.233 13.5723 128.116 13.6602 127.999 13.7422C127.894 13.8125 127.776 13.877 127.647 13.9355C127.214 13.8301 126.774 13.7949 126.329 13.8301C125.884 13.8652 125.485 13.8945 125.134 13.918C125.028 13.8125 124.899 13.7598 124.747 13.7598C124.606 13.7598 124.454 13.7832 124.29 13.8301C124.138 13.877 123.979 13.9238 123.815 13.9707C123.663 14.0176 123.517 14.0293 123.376 14.0059C123.259 14.0996 123.112 14.1641 122.937 14.1992C122.772 14.2227 122.591 14.2461 122.392 14.2695C122.38 14.3281 122.392 14.3691 122.427 14.3926C122.462 14.4043 122.468 14.4395 122.444 14.498C122.515 14.5801 122.603 14.6387 122.708 14.6738C122.825 14.709 122.942 14.7441 123.06 14.7793C123.188 14.8145 123.3 14.8613 123.394 14.9199C123.487 14.9668 123.552 15.0488 123.587 15.166C123.763 15.166 123.915 15.207 124.044 15.2891C124.173 15.3711 124.278 15.4707 124.36 15.5879C124.442 15.7051 124.501 15.834 124.536 15.9746C124.583 16.1035 124.606 16.2207 124.606 16.3262C124.642 16.4199 124.683 16.4609 124.729 16.4492C124.776 16.4375 124.829 16.4609 124.888 16.5195C124.923 16.6719 125.011 16.8301 125.151 16.9941C125.292 17.1465 125.403 17.3164 125.485 17.5039C125.509 17.7969 125.526 18.0605 125.538 18.2949C125.55 18.5176 125.509 18.7461 125.415 18.9805C125.239 19.4141 124.993 19.8008 124.677 20.1406C124.372 20.4805 124.021 20.7852 123.622 21.0547C123.235 21.3125 122.819 21.5352 122.374 21.7227C121.929 21.9102 121.495 22.0684 121.073 22.1973C121.026 22.1855 120.979 22.1855 120.933 22.1973C120.886 22.209 120.874 22.1797 120.897 22.1094C120.804 22.1914 120.698 22.2441 120.581 22.2676C120.476 22.291 120.358 22.2969 120.229 22.2852C120.101 22.2852 119.966 22.2793 119.825 22.2676C119.696 22.2559 119.573 22.2617 119.456 22.2852C119.374 22.2031 119.298 22.1211 119.228 22.0391C119.169 21.9688 119.122 21.875 119.087 21.7578C119.028 21.7578 118.999 21.7285 118.999 21.6699C119.011 21.6113 118.993 21.582 118.946 21.582C119.017 21.4648 119.046 21.4004 119.034 21.3887C119.034 21.3652 119.017 21.3477 118.981 21.3359C118.958 21.3242 118.935 21.3125 118.911 21.3008C118.888 21.2773 118.882 21.248 118.894 21.2129C118.94 21.1191 118.958 21.0137 118.946 20.8965C118.935 20.7676 118.923 20.6387 118.911 20.5098C118.899 20.3809 118.905 20.2578 118.929 20.1406C118.964 20.0234 119.052 19.9297 119.192 19.8594C119.591 19.9062 119.966 19.8945 120.317 19.8242C120.681 19.7422 121.021 19.6309 121.337 19.4902C121.653 19.3496 121.952 19.1973 122.233 19.0332C122.526 18.8691 122.813 18.7227 123.095 18.5938C123.13 18.4883 123.177 18.4004 123.235 18.3301C123.306 18.2598 123.376 18.1953 123.446 18.1367C123.517 18.0781 123.581 18.0137 123.64 17.9434C123.698 17.873 123.739 17.7852 123.763 17.6797C123.774 17.5977 123.751 17.5508 123.692 17.5391C123.646 17.5156 123.622 17.4688 123.622 17.3984L123.429 17.3457C123.206 17.2168 122.954 17.1113 122.673 17.0293C122.392 16.9355 122.151 16.8359 121.952 16.7305C121.823 16.8008 121.7 16.8184 121.583 16.7832C121.478 16.748 121.337 16.7129 121.161 16.6777C120.763 16.6543 120.376 16.6133 120.001 16.5547C119.638 16.4961 119.286 16.3906 118.946 16.2383C118.923 16.1797 118.894 16.127 118.858 16.0801C118.823 16.0332 118.759 16.0215 118.665 16.0449C118.595 15.9512 118.524 15.8633 118.454 15.7812C118.384 15.6875 118.319 15.5879 118.261 15.4824C118.284 15.3418 118.302 15.2246 118.313 15.1309C118.325 15.0254 118.29 14.9258 118.208 14.832C118.255 14.6797 118.29 14.5566 118.313 14.4629C118.337 14.3691 118.337 14.2461 118.313 14.0938ZM136.278 16.7305C136.267 16.8711 136.278 17.0059 136.313 17.1348C136.349 17.2637 136.39 17.3926 136.437 17.5215C136.495 17.6387 136.548 17.7617 136.595 17.8906C136.642 18.0195 136.677 18.1484 136.7 18.2773C136.724 18.4414 136.724 18.623 136.7 18.8223C136.677 19.0098 136.636 19.1973 136.577 19.3848C136.519 19.5605 136.442 19.7246 136.349 19.877C136.255 20.0176 136.144 20.123 136.015 20.1934C135.851 20.4043 135.651 20.5684 135.417 20.6855C135.183 20.8027 134.966 20.9434 134.767 21.1074C134.638 21.1895 134.491 21.248 134.327 21.2832C134.175 21.3184 134.017 21.3535 133.853 21.3887C133.724 21.459 133.571 21.5352 133.396 21.6172C133.22 21.6875 133.038 21.7578 132.851 21.8281C132.663 21.8867 132.476 21.9336 132.288 21.9688C132.101 21.9922 131.937 21.998 131.796 21.9863C131.444 22.1152 131.099 22.1973 130.759 22.2324C130.431 22.2793 130.044 22.2559 129.599 22.1621C129.177 22.2207 128.784 22.2031 128.421 22.1094C128.069 22.0156 127.753 21.8691 127.472 21.6699C127.202 21.459 126.962 21.2129 126.751 20.9316C126.552 20.6387 126.388 20.334 126.259 20.0176C126.165 19.3496 126.188 18.7461 126.329 18.207C126.47 17.6562 126.669 17.1523 126.927 16.6953C127.196 16.2266 127.501 15.7988 127.841 15.4121C128.181 15.0137 128.509 14.627 128.825 14.252C128.896 14.2754 128.948 14.2754 128.983 14.252C129.03 14.2168 129.071 14.1758 129.106 14.1289C129.142 14.0703 129.177 14.0176 129.212 13.9707C129.259 13.9238 129.312 13.8945 129.37 13.8828C129.452 13.707 129.569 13.5781 129.722 13.4961C129.886 13.4023 130.015 13.2734 130.108 13.1094C130.214 13.0859 130.302 13.0508 130.372 13.0039C130.442 12.957 130.507 12.9043 130.565 12.8457C130.636 12.7871 130.706 12.7344 130.776 12.6875C130.847 12.6289 130.929 12.5879 131.022 12.5645V12.3711C131.233 12.2773 131.386 12.1719 131.479 12.0547C131.585 11.9258 131.708 11.7734 131.849 11.5977C131.954 11.5859 132.036 11.5801 132.095 11.5801C132.165 11.5801 132.265 11.5684 132.394 11.5449C132.487 11.3809 132.569 11.2578 132.64 11.1758C132.722 11.0938 132.839 11.0059 132.991 10.9121C133.132 10.9824 133.284 11.0293 133.448 11.0527C133.624 11.0762 133.776 11.1523 133.905 11.2812C133.917 11.3984 133.952 11.4922 134.011 11.5625C134.069 11.6211 134.134 11.6797 134.204 11.7383C134.274 11.7852 134.339 11.8379 134.397 11.8965C134.468 11.9551 134.515 12.0371 134.538 12.1426C134.585 12.1543 134.614 12.1484 134.626 12.125C134.649 12.1016 134.685 12.0957 134.731 12.1074C134.767 12.2715 134.808 12.3828 134.854 12.4414C134.901 12.4883 134.948 12.5879 134.995 12.7402C134.937 12.8574 134.89 12.9805 134.854 13.1094C134.831 13.2266 134.761 13.3145 134.644 13.373C134.632 13.4551 134.655 13.502 134.714 13.5137C134.772 13.5137 134.808 13.543 134.819 13.6016C134.831 13.707 134.813 13.7832 134.767 13.8301C135.048 14.2871 135.3 14.7734 135.522 15.2891C135.745 15.793 135.997 16.2734 136.278 16.7305ZM134.081 18.4004C134.128 18.2715 134.187 18.166 134.257 18.084C134.339 18.002 134.386 17.8789 134.397 17.7148C134.339 17.6211 134.304 17.5508 134.292 17.5039C134.28 17.4453 134.274 17.3574 134.274 17.2402C134.017 16.877 133.794 16.4902 133.606 16.0801C133.419 15.6582 133.208 15.2656 132.974 14.9023C132.95 14.9492 132.909 14.9961 132.851 15.043C132.792 15.0898 132.728 15.0781 132.657 15.0078C132.634 15.1016 132.593 15.1719 132.534 15.2188C132.476 15.2539 132.411 15.2715 132.341 15.2715C132.271 15.2598 132.194 15.2422 132.112 15.2188C132.042 15.1836 131.978 15.1426 131.919 15.0957C131.579 15.3652 131.239 15.6289 130.899 15.8867C130.56 16.1445 130.255 16.4434 129.985 16.7832C129.938 16.8066 129.909 16.8184 129.897 16.8184C129.886 16.8066 129.851 16.8125 129.792 16.8359C129.698 17.0586 129.581 17.2637 129.44 17.4512C129.312 17.627 129.183 17.8086 129.054 17.9961C128.925 18.1836 128.813 18.3828 128.72 18.5938C128.626 18.8047 128.573 19.0508 128.562 19.332C128.761 19.4961 128.995 19.5957 129.265 19.6309C129.534 19.666 129.81 19.6719 130.091 19.6484C130.384 19.625 130.665 19.5898 130.935 19.543C131.216 19.4844 131.474 19.4551 131.708 19.4551C132.2 19.3379 132.622 19.1855 132.974 18.998C133.325 18.7988 133.694 18.5996 134.081 18.4004ZM147.599 16.7305C147.587 16.8711 147.599 17.0059 147.634 17.1348C147.669 17.2637 147.71 17.3926 147.757 17.5215C147.815 17.6387 147.868 17.7617 147.915 17.8906C147.962 18.0195 147.997 18.1484 148.021 18.2773C148.044 18.4414 148.044 18.623 148.021 18.8223C147.997 19.0098 147.956 19.1973 147.897 19.3848C147.839 19.5605 147.763 19.7246 147.669 19.877C147.575 20.0176 147.464 20.123 147.335 20.1934C147.171 20.4043 146.972 20.5684 146.737 20.6855C146.503 20.8027 146.286 20.9434 146.087 21.1074C145.958 21.1895 145.812 21.248 145.647 21.2832C145.495 21.3184 145.337 21.3535 145.173 21.3887C145.044 21.459 144.892 21.5352 144.716 21.6172C144.54 21.6875 144.358 21.7578 144.171 21.8281C143.983 21.8867 143.796 21.9336 143.608 21.9688C143.421 21.9922 143.257 21.998 143.116 21.9863C142.765 22.1152 142.419 22.1973 142.079 22.2324C141.751 22.2793 141.364 22.2559 140.919 22.1621C140.497 22.2207 140.104 22.2031 139.741 22.1094C139.39 22.0156 139.073 21.8691 138.792 21.6699C138.522 21.459 138.282 21.2129 138.071 20.9316C137.872 20.6387 137.708 20.334 137.579 20.0176C137.485 19.3496 137.509 18.7461 137.649 18.207C137.79 17.6562 137.989 17.1523 138.247 16.6953C138.517 16.2266 138.821 15.7988 139.161 15.4121C139.501 15.0137 139.829 14.627 140.146 14.252C140.216 14.2754 140.269 14.2754 140.304 14.252C140.351 14.2168 140.392 14.1758 140.427 14.1289C140.462 14.0703 140.497 14.0176 140.532 13.9707C140.579 13.9238 140.632 13.8945 140.69 13.8828C140.772 13.707 140.89 13.5781 141.042 13.4961C141.206 13.4023 141.335 13.2734 141.429 13.1094C141.534 13.0859 141.622 13.0508 141.692 13.0039C141.763 12.957 141.827 12.9043 141.886 12.8457C141.956 12.7871 142.026 12.7344 142.097 12.6875C142.167 12.6289 142.249 12.5879 142.343 12.5645V12.3711C142.554 12.2773 142.706 12.1719 142.8 12.0547C142.905 11.9258 143.028 11.7734 143.169 11.5977C143.274 11.5859 143.356 11.5801 143.415 11.5801C143.485 11.5801 143.585 11.5684 143.714 11.5449C143.808 11.3809 143.89 11.2578 143.96 11.1758C144.042 11.0938 144.159 11.0059 144.312 10.9121C144.452 10.9824 144.604 11.0293 144.769 11.0527C144.944 11.0762 145.097 11.1523 145.226 11.2812C145.237 11.3984 145.272 11.4922 145.331 11.5625C145.39 11.6211 145.454 11.6797 145.524 11.7383C145.595 11.7852 145.659 11.8379 145.718 11.8965C145.788 11.9551 145.835 12.0371 145.858 12.1426C145.905 12.1543 145.935 12.1484 145.946 12.125C145.97 12.1016 146.005 12.0957 146.052 12.1074C146.087 12.2715 146.128 12.3828 146.175 12.4414C146.222 12.4883 146.269 12.5879 146.315 12.7402C146.257 12.8574 146.21 12.9805 146.175 13.1094C146.151 13.2266 146.081 13.3145 145.964 13.373C145.952 13.4551 145.976 13.502 146.034 13.5137C146.093 13.5137 146.128 13.543 146.14 13.6016C146.151 13.707 146.134 13.7832 146.087 13.8301C146.368 14.2871 146.62 14.7734 146.843 15.2891C147.065 15.793 147.317 16.2734 147.599 16.7305ZM145.401 18.4004C145.448 18.2715 145.507 18.166 145.577 18.084C145.659 18.002 145.706 17.8789 145.718 17.7148C145.659 17.6211 145.624 17.5508 145.612 17.5039C145.601 17.4453 145.595 17.3574 145.595 17.2402C145.337 16.877 145.114 16.4902 144.927 16.0801C144.739 15.6582 144.528 15.2656 144.294 14.9023C144.271 14.9492 144.229 14.9961 144.171 15.043C144.112 15.0898 144.048 15.0781 143.978 15.0078C143.954 15.1016 143.913 15.1719 143.854 15.2188C143.796 15.2539 143.731 15.2715 143.661 15.2715C143.591 15.2598 143.515 15.2422 143.433 15.2188C143.362 15.1836 143.298 15.1426 143.239 15.0957C142.899 15.3652 142.56 15.6289 142.22 15.8867C141.88 16.1445 141.575 16.4434 141.306 16.7832C141.259 16.8066 141.229 16.8184 141.218 16.8184C141.206 16.8066 141.171 16.8125 141.112 16.8359C141.019 17.0586 140.901 17.2637 140.761 17.4512C140.632 17.627 140.503 17.8086 140.374 17.9961C140.245 18.1836 140.134 18.3828 140.04 18.5938C139.946 18.8047 139.894 19.0508 139.882 19.332C140.081 19.4961 140.315 19.5957 140.585 19.6309C140.854 19.666 141.13 19.6719 141.411 19.6484C141.704 19.625 141.985 19.5898 142.255 19.543C142.536 19.4844 142.794 19.4551 143.028 19.4551C143.521 19.3379 143.942 19.1855 144.294 18.998C144.646 18.7988 145.015 18.5996 145.401 18.4004ZM152.274 18.8047C152.169 18.8281 152.093 18.8926 152.046 18.998C151.999 19.0918 151.952 19.1914 151.905 19.2969C151.87 19.4023 151.829 19.502 151.782 19.5957C151.747 19.6777 151.688 19.7188 151.606 19.7188C151.595 19.8125 151.56 19.8945 151.501 19.9648C151.454 20.0352 151.407 20.1113 151.36 20.1934C151.313 20.2637 151.278 20.3457 151.255 20.4395C151.231 20.5215 151.243 20.6211 151.29 20.7383C151.196 20.8086 151.138 20.9082 151.114 21.0371C151.091 21.166 151.062 21.2891 151.026 21.4062C151.003 21.5234 150.956 21.623 150.886 21.7051C150.815 21.7871 150.687 21.8223 150.499 21.8105C150.464 21.8574 150.458 21.8867 150.481 21.8984C150.505 21.9102 150.522 21.9512 150.534 22.0215C150.405 21.998 150.306 22.0039 150.235 22.0391C150.177 22.0859 150.101 22.1152 150.007 22.127C149.784 22.0566 149.597 21.9336 149.444 21.7578C149.304 21.582 149.175 21.3887 149.058 21.1777C148.952 20.9551 148.853 20.7324 148.759 20.5098C148.677 20.2871 148.595 20.0938 148.513 19.9297C148.548 19.8008 148.554 19.6777 148.53 19.5605C148.507 19.4316 148.466 19.3262 148.407 19.2441C148.981 18.0254 149.608 16.7246 150.288 15.3418C150.968 13.959 151.612 12.5938 152.222 11.2461C152.491 11.3516 152.755 11.4746 153.013 11.6152C153.282 11.7441 153.522 11.8965 153.733 12.0723C153.956 12.248 154.144 12.4531 154.296 12.6875C154.448 12.9102 154.548 13.1621 154.595 13.4434C154.571 13.5137 154.542 13.543 154.507 13.5312C154.483 13.5078 154.46 13.5137 154.437 13.5488C154.483 13.6074 154.507 13.6484 154.507 13.6719C154.519 13.6953 154.519 13.7188 154.507 13.7422C154.507 13.7656 154.507 13.8008 154.507 13.8477C154.507 13.8828 154.524 13.9355 154.56 14.0059C154.513 13.9941 154.478 14 154.454 14.0234C154.442 14.0469 154.407 14.0469 154.349 14.0234C154.396 14.1523 154.407 14.2578 154.384 14.3398C154.372 14.4219 154.349 14.498 154.313 14.5684C154.278 14.627 154.249 14.6973 154.226 14.7793C154.202 14.8496 154.208 14.9434 154.243 15.0605C154.208 15.0605 154.179 15.0723 154.155 15.0957C154.144 15.1074 154.132 15.125 154.12 15.1484C154.108 15.1602 154.091 15.1777 154.067 15.2012C154.056 15.2129 154.032 15.2129 153.997 15.2012C154.032 15.459 154.044 15.7168 154.032 15.9746C154.021 16.2324 154.009 16.4961 153.997 16.7656C153.997 17.0234 154.003 17.2988 154.015 17.5918C154.026 17.873 154.067 18.166 154.138 18.4707C154.56 18.2246 154.894 17.9082 155.14 17.5215C155.397 17.1348 155.603 16.7012 155.755 16.2207C155.919 15.7402 156.042 15.2246 156.124 14.6738C156.206 14.123 156.294 13.5605 156.388 12.9863C156.493 12.8809 156.575 12.752 156.634 12.5996C156.692 12.4473 156.745 12.2891 156.792 12.125C156.839 11.9492 156.886 11.7793 156.933 11.6152C156.979 11.4395 157.038 11.2812 157.108 11.1406C157.284 11.1641 157.431 11.2227 157.548 11.3164C157.677 11.3984 157.794 11.4922 157.899 11.5977C158.005 11.6914 158.116 11.7852 158.233 11.8789C158.351 11.9609 158.497 12.0137 158.673 12.0371C158.813 12.2363 158.942 12.4297 159.06 12.6172C159.177 12.8047 159.253 13.0039 159.288 13.2148C159.229 13.3086 159.183 13.4141 159.147 13.5312C159.124 13.6484 159.095 13.7656 159.06 13.8828C159.024 14 158.978 14.1113 158.919 14.2168C158.86 14.3105 158.778 14.3926 158.673 14.4629C158.638 14.7676 158.591 15.0488 158.532 15.3066C158.485 15.5527 158.433 15.7988 158.374 16.0449C158.327 16.291 158.286 16.5488 158.251 16.8184C158.216 17.0762 158.204 17.3633 158.216 17.6797C158.122 17.9492 158.022 18.2363 157.917 18.541C157.812 18.8457 157.729 19.1211 157.671 19.3672C157.483 19.5195 157.337 19.7012 157.231 19.9121C157.126 20.123 157.015 20.334 156.897 20.5449C156.851 20.5918 156.821 20.6035 156.81 20.5801C156.798 20.5566 156.757 20.5391 156.687 20.5273C156.698 20.5742 156.698 20.6094 156.687 20.6328C156.675 20.6562 156.657 20.6797 156.634 20.7031C156.622 20.7148 156.61 20.7383 156.599 20.7734C156.599 20.8086 156.61 20.8555 156.634 20.9141C156.47 20.9844 156.323 21.084 156.194 21.2129C156.065 21.3418 155.925 21.459 155.772 21.5645C155.632 21.6699 155.456 21.7402 155.245 21.7754C155.046 21.8105 154.782 21.7695 154.454 21.6523C153.974 21.3008 153.546 20.8965 153.171 20.4395C152.808 19.9824 152.509 19.4375 152.274 18.8047ZM163.683 9.91016C163.683 10.0156 163.665 10.1445 163.63 10.2969C163.606 10.4492 163.583 10.6016 163.56 10.7539C163.536 10.9062 163.53 11.0469 163.542 11.1758C163.554 11.293 163.606 11.3691 163.7 11.4043C163.489 12.0254 163.343 12.5469 163.261 12.9688C163.19 13.3906 163.126 13.7949 163.067 14.1816C163.021 14.5566 162.956 14.9551 162.874 15.377C162.792 15.7988 162.646 16.3145 162.435 16.9238C162.306 17.2988 162.147 17.5625 161.96 17.7148C161.772 17.8555 161.573 17.9258 161.362 17.9258C161.151 17.9258 160.935 17.8672 160.712 17.75C160.489 17.6328 160.284 17.5039 160.097 17.3633C160.062 17.1406 160.056 16.8711 160.079 16.5547C160.114 16.2266 160.155 15.8867 160.202 15.5352C160.249 15.1836 160.296 14.8496 160.343 14.5332C160.39 14.2051 160.425 13.9297 160.448 13.707C160.565 13.5781 160.647 13.4727 160.694 13.3906C160.741 13.3086 160.771 13.2207 160.782 13.127C160.806 13.0332 160.823 12.916 160.835 12.7754C160.847 12.6348 160.876 12.4355 160.923 12.1777C160.946 12.0488 160.935 11.9375 160.888 11.8438C160.853 11.7383 160.847 11.6387 160.87 11.5449C160.894 11.498 160.929 11.4629 160.976 11.4395C161.034 11.416 161.069 11.375 161.081 11.3164C161.128 11.1641 161.14 11.0469 161.116 10.9648C161.093 10.8711 161.11 10.7598 161.169 10.6309C161.228 10.5371 161.298 10.3906 161.38 10.1914C161.474 9.98047 161.509 9.76367 161.485 9.54102C161.591 9.45898 161.69 9.36523 161.784 9.25977C161.878 9.1543 161.972 9.06055 162.065 8.97852C162.171 8.88477 162.282 8.80859 162.399 8.75C162.528 8.69141 162.681 8.66211 162.856 8.66211C162.95 8.79102 163.021 8.91406 163.067 9.03125C163.114 9.14844 163.155 9.25977 163.19 9.36523C163.237 9.4707 163.296 9.57031 163.366 9.66406C163.437 9.75781 163.542 9.83984 163.683 9.91016ZM161.942 19.9121C161.966 20.0059 161.983 20.0938 161.995 20.1758C162.007 20.2578 162.019 20.3457 162.03 20.4395C161.96 20.6855 161.884 20.9082 161.802 21.1074C161.767 21.1895 161.743 21.2422 161.731 21.2656C161.72 21.2891 161.714 21.3066 161.714 21.3184C161.714 21.3301 161.72 21.3477 161.731 21.3711C161.743 21.3828 161.749 21.4297 161.749 21.5117L161.661 21.7227C161.603 21.8047 161.532 21.8691 161.45 21.916C161.38 21.9629 161.304 22.0039 161.222 22.0391C161.187 22.0625 161.146 22.0801 161.099 22.0918C161.063 22.1152 161.034 22.1387 161.011 22.1621L160.958 22.373L160.712 22.4082C160.524 22.4551 160.354 22.4785 160.202 22.4785H160.009C159.868 22.3496 159.757 22.25 159.675 22.1797C159.593 22.1094 159.499 22.0449 159.394 21.9863C159.265 21.7637 159.188 21.5703 159.165 21.4062C159.142 21.2539 159.112 21.1543 159.077 21.1074L158.831 20.8613L159.042 20.7031L158.831 20.3691C158.972 20.2637 159.077 20.1875 159.147 20.1406C159.218 20.0938 159.276 20.0469 159.323 20C159.382 19.9414 159.44 19.8711 159.499 19.7891C159.558 19.707 159.651 19.5723 159.78 19.3848L159.938 19.1562L160.149 19.2793C160.208 19.3145 160.313 19.3496 160.466 19.3848C160.63 19.4082 160.771 19.4316 160.888 19.4551C161.075 19.5137 161.257 19.5605 161.433 19.5957C161.62 19.6191 161.767 19.6777 161.872 19.7715L161.942 19.9121Z" fill="white"/>
<path d="M2.77478 0.270881L6.84909 17.1054L19.391 5.15966L2.77478 0.270881ZM27.9086 17.5135C28.3145 16.0694 28.3147 16.0695 28.3149 16.0695C28.3149 16.0695 28.315 16.0696 28.3151 16.0696C28.3151 16.0696 28.315 16.0696 28.3149 16.0695C28.3145 16.0694 28.3136 16.0692 28.3122 16.0688C28.3094 16.068 28.3046 16.0666 28.2979 16.0647C28.2844 16.0608 28.2631 16.0547 28.2342 16.0462C28.1764 16.0293 28.0883 16.0032 27.9722 15.9677C27.74 15.8968 27.396 15.7888 26.9582 15.6428C26.0822 15.3507 24.833 14.9076 23.3544 14.3075C20.3897 13.1041 16.5394 11.2842 12.9332 8.80839L11.2353 11.2816C15.0793 13.9207 19.1412 15.8351 22.2261 17.0872C23.7724 17.7148 25.0824 18.1797 26.0093 18.4888C26.473 18.6434 26.8414 18.7592 27.0963 18.837C27.2237 18.8759 27.3229 18.9053 27.3914 18.9254C27.4256 18.9354 27.4522 18.9431 27.4709 18.9485C27.4802 18.9511 27.4876 18.9532 27.4929 18.9547C27.4955 18.9555 27.4977 18.9561 27.4994 18.9566C27.5002 18.9568 27.5009 18.957 27.5015 18.9572C27.5017 18.9572 27.5021 18.9573 27.5022 18.9574C27.5025 18.9575 27.5028 18.9575 27.9086 17.5135Z" fill="white"/>
</svg>
