<svg width="232" height="34" viewBox="0 0 232 34" fill="none" xmlns="http://www.w3.org/2000/svg">
<path d="M213.715 1.10326e-06L226.926 11.2017L210.619 17.0416L213.715 1.10326e-06ZM214.431 33.186C215.771 28.4 217.272 20.1362 216.77 12.8123L219.763 12.6074C220.296 20.3868 218.716 29.0112 217.32 33.9949L214.431 33.186Z" fill="#333333"/>
<path d="M10.5549 17.1259C10.5441 17.2666 10.5567 17.4013 10.5927 17.53C10.6287 17.6586 10.6706 17.7873 10.7183 17.9159C10.7777 18.0327 10.8312 18.1553 10.8789 18.2839C10.9267 18.4125 10.9627 18.5412 10.987 18.67C11.0115 18.8339 11.0127 19.0155 10.9906 19.2149C10.9684 19.4025 10.9286 19.5903 10.8712 19.7782C10.8138 19.9543 10.7387 20.1189 10.646 20.2719C10.5532 20.4131 10.4425 20.5193 10.3141 20.5905C10.1514 20.8025 9.9533 20.9679 9.7197 21.0866C9.48611 21.2053 9.27024 21.3474 9.07211 21.5127C8.94375 21.5956 8.79766 21.6552 8.63383 21.6914C8.48172 21.7276 8.32376 21.7638 8.15993 21.8C8.03149 21.8712 7.87965 21.9484 7.70442 22.0316C7.52911 22.103 7.34793 22.1745 7.1609 22.2461C6.97379 22.3059 6.78661 22.354 6.59934 22.3904C6.412 22.4151 6.24798 22.4221 6.10728 22.4113C5.75658 22.5425 5.41143 22.6268 5.07182 22.6642C4.74402 22.7133 4.35715 22.6924 3.91123 22.6016C3.48975 22.6629 3.09706 22.648 2.73317 22.5566C2.381 22.4652 2.06363 22.3208 1.78107 22.1234C1.51015 21.9143 1.26829 21.6698 1.0555 21.3899C0.854352 21.0983 0.688279 20.7947 0.557285 20.4792C0.459122 19.8118 0.478571 19.2082 0.615631 18.6682C0.752613 18.1165 0.948497 17.6113 1.20328 17.1525C1.46971 16.682 1.77157 16.2523 2.10885 15.8633C2.44605 15.4627 2.77161 15.0738 3.08553 14.6967C3.156 14.7197 3.20873 14.7193 3.24373 14.6956C3.29037 14.6602 3.33112 14.6189 3.36596 14.5718C3.40073 14.513 3.43554 14.46 3.47038 14.4129C3.51695 14.3657 3.56949 14.3361 3.628 14.324C3.70887 14.1476 3.8252 14.018 3.977 13.9349C4.14044 13.8401 4.26849 13.7103 4.36116 13.5457C4.46647 13.5215 4.55412 13.4858 4.62413 13.4385C4.69413 13.3911 4.75823 13.338 4.81644 13.279C4.88636 13.2199 4.95632 13.1667 5.02632 13.1194C5.09625 13.0603 5.17801 13.0188 5.2716 12.9947L5.27032 12.8014C5.48063 12.7062 5.63228 12.5997 5.72525 12.4819C5.82987 12.3523 5.9519 12.1992 6.09136 12.0225C6.19675 12.0101 6.27874 12.0037 6.33733 12.0033C6.40765 12.0028 6.50718 11.9904 6.63592 11.9661C6.72859 11.8015 6.8098 11.6779 6.87957 11.5954C6.96106 11.5128 7.07766 11.4241 7.22939 11.3294C7.37047 11.3988 7.52312 11.4446 7.68734 11.467C7.86327 11.4893 8.01611 11.5644 8.14587 11.6925C8.15836 11.8096 8.19414 11.9031 8.25319 11.973C8.31217 12.0312 8.37701 12.0894 8.44771 12.1475C8.51833 12.1939 8.58313 12.2462 8.64211 12.3045C8.71281 12.3626 8.76022 12.4443 8.78436 12.5496C8.83131 12.561 8.86057 12.555 8.87213 12.5315C8.89541 12.5079 8.93053 12.5018 8.97748 12.5132C9.01372 12.677 9.05547 12.7881 9.10273 12.8463C9.14992 12.8929 9.19745 12.9922 9.24533 13.1442C9.18751 13.2618 9.14145 13.3852 9.10715 13.5143C9.08448 13.6316 9.01475 13.72 8.89796 13.7794C8.88678 13.8615 8.91053 13.9082 8.9692 13.9195C9.02779 13.9191 9.06314 13.9482 9.07524 14.0067C9.08766 14.1121 9.07059 14.1884 9.02402 14.2356C9.30829 14.6907 9.56345 15.1754 9.78951 15.6895C10.0155 16.1919 10.2706 16.6707 10.5549 17.1259ZM8.36869 18.8103C8.41471 18.6811 8.47261 18.5752 8.54238 18.4927C8.62387 18.4102 8.66993 18.2868 8.68056 18.1227C8.62135 18.0293 8.58573 17.9592 8.5737 17.9124C8.5616 17.8539 8.55516 17.7661 8.55438 17.6489C8.29417 17.2873 8.06897 16.9021 7.87876 16.4932C7.68848 16.0726 7.47495 15.6814 7.23818 15.3197C7.21505 15.3667 7.17435 15.4138 7.11606 15.4611C7.05778 15.5084 6.99325 15.4971 6.92248 15.4272C6.89966 15.5211 6.85911 15.5917 6.80082 15.639C6.74246 15.6745 6.67813 15.6925 6.60782 15.693C6.53743 15.6817 6.46114 15.6646 6.37896 15.6417C6.30842 15.6071 6.24369 15.5665 6.18479 15.52C5.84674 15.7918 5.50864 16.0577 5.17051 16.3177C4.83238 16.5778 4.52967 16.8786 4.26239 17.2202C4.21567 17.244 4.18645 17.2559 4.17473 17.256C4.16294 17.2443 4.12782 17.2504 4.06938 17.2742C3.97711 17.4975 3.86128 17.7034 3.7219 17.8918C3.59415 18.0684 3.46645 18.2509 3.33879 18.4392C3.21112 18.6276 3.10111 18.8275 3.00876 19.0391C2.91641 19.2506 2.8653 19.4971 2.85544 19.7784C3.05574 19.9411 3.29077 20.0392 3.56052 20.0726C3.83028 20.106 4.1057 20.11 4.38679 20.0847C4.6796 20.0593 4.96061 20.0223 5.22983 19.9737C5.51068 19.9132 5.7683 19.8822 6.00267 19.8807C6.49407 19.7602 6.91493 19.6051 7.26524 19.4153C7.61548 19.2137 7.9833 19.0121 8.36869 18.8103ZM20.9417 19.4655C21.0122 19.5002 21.0536 19.5585 21.0659 19.6405C21.0781 19.7224 21.0785 19.7869 21.0671 19.8338C20.858 20.1048 20.7127 20.2932 20.6314 20.3992C20.5501 20.5052 20.492 20.5877 20.4573 20.6465C20.4224 20.6936 20.3817 20.7349 20.335 20.7703C20.3001 20.8057 20.2127 20.8825 20.0729 21.0006C19.5476 21.3205 19.0046 21.6053 18.4437 21.8551C17.8946 22.1048 17.3156 22.2786 16.7069 22.3764C16.614 22.5059 16.4329 22.595 16.1637 22.6436C15.9063 22.7039 15.6664 22.7583 15.4441 22.8066C15.3971 22.7835 15.3675 22.7485 15.3555 22.7017C15.3553 22.6666 15.3316 22.6374 15.2846 22.6143C15.2737 22.7316 15.2213 22.7905 15.1276 22.7911C15.0339 22.8035 14.9166 22.7808 14.7756 22.7231C14.6463 22.6771 14.5053 22.6077 14.3523 22.515C14.2111 22.4339 14.0876 22.3585 13.9816 22.2889C13.9237 22.3831 13.8598 22.4772 13.7902 22.5714C13.7322 22.6656 13.6564 22.7305 13.5629 22.7663C13.4339 22.7437 13.3341 22.7268 13.2637 22.7155C13.2051 22.7042 13.1466 22.728 13.0884 22.787C13.0179 22.7523 12.959 22.7117 12.9118 22.6651C12.8764 22.6185 12.8351 22.5719 12.7879 22.5253C12.7525 22.4904 12.7054 22.4556 12.6466 22.4208C12.5994 22.3859 12.5289 22.3571 12.435 22.3343C12.4582 22.2873 12.446 22.217 12.3985 22.1236C12.3509 22.0184 12.2802 21.9544 12.1863 21.9316C12.2326 21.8493 12.2085 21.7498 12.114 21.6333C12.0311 21.5049 11.9657 21.3647 11.9178 21.2127C11.9404 21.0836 11.9571 20.9429 11.9678 20.7905C11.9785 20.6381 12.0482 20.5497 12.177 20.5254C12.1647 20.4435 12.1467 20.3733 12.1229 20.3148C12.099 20.2564 12.0752 20.198 12.0514 20.1395C12.133 20.0687 12.191 19.9862 12.2255 19.8923C12.26 19.7866 12.2886 19.6809 12.3113 19.5753C12.3341 19.4697 12.3627 19.364 12.3971 19.2583C12.4316 19.1526 12.4955 19.0643 12.5887 18.9934C12.6919 18.6411 12.7722 18.3828 12.8297 18.2183C12.8872 18.0421 12.927 17.872 12.9494 17.7077C12.9835 17.5435 13.0175 17.3674 13.0514 17.1797C13.097 16.9919 13.1716 16.757 13.2752 16.4751C13.2624 16.2994 13.2789 16.1469 13.325 16.0177C13.3709 15.8768 13.4169 15.7417 13.4629 15.6125C13.5206 15.4715 13.5665 15.3306 13.6007 15.1897C13.6349 15.0371 13.6279 14.8614 13.5797 14.6625C13.4157 14.6753 13.2989 14.7347 13.2293 14.8406C13.1596 14.9348 13.1136 15.064 13.0912 15.2282C12.9981 15.3226 12.8812 15.3703 12.7406 15.3712C12.6116 15.3603 12.4945 15.3728 12.3893 15.4087C11.978 15.2473 11.6367 15.0152 11.3651 14.7123C11.0936 14.4094 10.8744 14.0534 10.7077 13.6443C10.8113 13.3741 10.9681 13.1504 11.1778 12.9733C11.3875 12.7844 11.6268 12.6304 11.8955 12.5115C12.1642 12.3808 12.4506 12.2793 12.7548 12.207C13.059 12.1229 13.3514 12.0448 13.6322 11.9726C14.0887 11.8876 14.5451 11.7908 15.0014 11.6823C15.4577 11.5738 15.9497 11.5354 16.4773 11.5671C16.5473 11.5315 16.6292 11.5134 16.723 11.5128C16.8284 11.5003 16.9338 11.4938 17.0393 11.4931C17.1447 11.4924 17.2443 11.4917 17.3381 11.4911C17.4435 11.4787 17.5312 11.4547 17.6013 11.4191C17.6604 11.489 17.7427 11.5353 17.8483 11.558C17.9656 11.569 18.089 11.6209 18.2185 11.7138C18.3584 11.6074 18.4754 11.5832 18.5696 11.6412C18.6754 11.6991 18.7696 11.7629 18.8521 11.8327C18.9346 11.9024 19.0112 11.9664 19.0819 12.0245C19.1643 12.0826 19.2465 12.1113 19.3286 12.1108C19.4113 12.2157 19.5116 12.3147 19.6294 12.4076C19.7589 12.5005 19.8767 12.5994 19.9829 12.7041C20.1007 12.7971 20.1951 12.9019 20.2662 13.0187C20.349 13.1353 20.3909 13.2698 20.3919 13.4221C20.3806 13.4808 20.3984 13.5158 20.4454 13.5273C20.4923 13.5387 20.5276 13.5619 20.5513 13.5969C20.5654 13.9601 20.5089 14.2769 20.3818 14.5472C20.2663 14.8058 20.1156 15.047 19.9295 15.2709C19.7552 15.4948 19.5574 15.707 19.3361 15.9077C19.1265 16.1083 18.9345 16.3205 18.7602 16.5443C18.8784 16.6959 19.014 16.8298 19.1672 16.9459C19.3203 17.0621 19.4734 17.1783 19.6265 17.2945C19.7913 17.4106 19.9445 17.5326 20.086 17.6606C20.2274 17.7886 20.3456 17.9401 20.4405 18.1153C20.4641 18.1386 20.4936 18.1618 20.5289 18.185C20.5641 18.1965 20.5994 18.2138 20.6347 18.237C20.6706 18.354 20.7183 18.4767 20.7778 18.6053C20.8371 18.722 20.8848 18.8389 20.9207 18.9559C20.9683 19.061 20.9982 19.1604 21.0106 19.2541C21.0228 19.3361 20.9999 19.4065 20.9417 19.4655ZM17.8092 13.615C17.2114 13.5955 16.6141 13.6522 16.0173 13.785C15.4322 13.9178 14.9412 14.1027 14.5444 14.3397C14.7447 14.5025 14.9448 14.6476 15.1449 14.7752C15.3567 14.9027 15.5219 15.0774 15.6406 15.2993C16.0964 15.1088 16.4991 14.8717 16.8488 14.5882C17.1984 14.2929 17.5185 13.9685 17.8092 13.615ZM18.0747 19.2208C18.1091 19.1034 18.173 19.0092 18.2662 18.9383C18.3595 18.8673 18.4528 18.8023 18.5462 18.743C18.6395 18.6721 18.7211 18.6013 18.7909 18.5305C18.8607 18.448 18.8892 18.3365 18.8766 18.1959C18.5003 17.9992 18.1538 17.8843 17.8372 17.8512C17.5322 17.8064 17.2392 17.8083 16.9583 17.857C16.689 17.894 16.4257 17.9543 16.1684 18.038C15.9229 18.1217 15.6713 18.182 15.4138 18.2188C15.2871 18.5595 15.1548 18.9295 15.0168 19.3289C14.8788 19.7282 14.7466 20.1158 14.6202 20.4917C14.9714 20.4425 15.2932 20.37 15.5856 20.2744C15.8778 20.167 16.1583 20.0538 16.4271 19.9348C16.7076 19.8158 16.9763 19.6968 17.2333 19.5779C17.502 19.4472 17.7825 19.3282 18.0747 19.2208ZM30.0823 14.114C30.0608 14.4188 30.0275 14.6886 29.9821 14.9232C29.9368 15.1579 29.874 15.4044 29.7937 15.6628C29.6007 16.6133 29.3723 17.5172 29.1085 18.3744C28.8563 19.2316 28.5626 20.0011 28.2272 20.683C27.9248 21.0249 27.6279 21.3257 27.3367 21.5854C27.0571 21.8451 26.7419 22.0288 26.3911 22.1366C26.2154 22.1612 26.0574 22.1915 25.9171 22.2276C25.7883 22.2519 25.6596 22.2821 25.5309 22.3181C25.4724 22.3302 25.408 22.3423 25.3378 22.3545C25.2793 22.3666 25.2208 22.3846 25.1624 22.4084C24.9864 22.3744 24.8162 22.3462 24.652 22.3239C24.4996 22.3132 24.359 22.3082 24.2301 22.3091L24.0011 22.2403C23.8837 22.2059 23.7897 22.1772 23.7193 22.1542C23.6605 22.1312 23.6018 22.114 23.5431 22.1027C23.4961 22.0795 23.4374 22.0624 23.367 22.0511C23.3083 22.0398 23.2086 22.0287 23.0679 22.0179C22.8926 22.0894 22.7288 22.1256 22.5765 22.1266C22.3655 22.128 22.1364 22.0417 21.8892 21.8675C21.6419 21.6934 21.4344 21.3197 21.2665 20.7466C21.2885 20.5238 21.3224 20.3302 21.3682 20.1658C21.4022 19.9898 21.4423 19.8548 21.4885 19.7607C21.7687 19.5948 22.0025 19.5112 22.19 19.51C22.4127 19.5085 22.6238 19.5423 22.8235 19.6113C23.0349 19.6802 23.2405 19.755 23.4403 19.8357C23.5342 19.8703 23.5989 19.8991 23.6342 19.9223C23.6695 19.9455 23.6989 19.9629 23.7224 19.9745C23.7459 19.9861 23.7694 19.9918 23.7929 19.9916C23.828 19.9914 23.8925 19.9909 23.9862 19.9903C24.0448 19.9899 24.0917 19.9896 24.1268 19.9894C24.1736 19.9774 24.2204 19.9653 24.2672 19.9533L24.4431 19.9697C24.5137 20.0044 24.5958 20.0215 24.6895 20.0208C24.8067 20.0201 24.953 19.9898 25.1284 19.93C25.2102 19.8943 25.2745 19.8705 25.3213 19.8585C25.3798 19.8463 25.4383 19.8342 25.4968 19.8221L25.6365 19.6806C25.7418 19.6447 25.8177 19.6032 25.8642 19.556C25.9225 19.5088 25.969 19.4557 26.0038 19.3969C26.0503 19.338 26.0909 19.2733 26.1256 19.2027C26.1603 19.1322 26.2066 19.0557 26.2647 18.9733C26.3112 18.9144 26.3518 18.8555 26.3866 18.7967C26.4331 18.7378 26.4795 18.6789 26.526 18.62L26.5249 18.4442C26.675 18.1034 26.8074 17.7509 26.9222 17.3869C27.0369 17.0111 27.1399 16.6354 27.2312 16.2598C27.3224 15.8842 27.3962 15.5204 27.4525 15.1685C27.5205 14.8165 27.577 14.4997 27.622 14.2181L27.4462 14.2193C27.1532 14.2212 26.913 14.2287 26.7256 14.2416C26.5381 14.2429 26.3683 14.2557 26.2161 14.2802C26.0638 14.2929 25.8999 14.3174 25.7244 14.3537C25.5606 14.39 25.3499 14.4324 25.0924 14.4809L24.8291 14.5354C24.6539 14.6303 24.4787 14.7135 24.3034 14.785C24.1281 14.8565 23.9525 14.8928 23.7767 14.8939C23.4721 14.896 23.2135 14.7805 23.001 14.5475C22.7773 14.3966 22.6471 14.1983 22.6103 13.9524C22.5513 13.8825 22.5332 13.8006 22.556 13.7067C22.5082 13.5664 22.4839 13.4435 22.4832 13.338C22.4825 13.2208 22.4818 13.1154 22.4811 13.0216L22.4795 12.7755L22.708 12.774C22.7662 12.715 22.807 12.6737 22.8303 12.6501C22.8535 12.6148 22.8708 12.5737 22.8822 12.5268L23.0745 12.3673C23.2735 12.3425 23.4784 12.3119 23.6891 12.2753C23.9115 12.227 24.1397 12.1786 24.3737 12.1302C24.5961 12.0818 24.7833 12.0454 24.9355 12.021C25.0994 11.9965 25.2516 11.9779 25.3922 11.9652C25.5445 11.9525 25.6968 11.9456 25.8491 11.9446C26.0131 11.9318 26.2005 11.9247 26.4115 11.9233L26.8158 11.9207C26.8506 11.8736 26.8856 11.8499 26.9208 11.8497C26.9676 11.8376 27.0027 11.8315 27.0261 11.8314C27.0847 11.831 27.1316 11.8365 27.1668 11.848C27.2021 11.8595 27.2314 11.871 27.255 11.8826C27.5827 11.8218 27.8871 11.7847 28.1683 11.7711C28.4494 11.7458 28.7013 11.7324 28.9239 11.731C29.0411 11.7302 29.1466 11.7295 29.2403 11.7289C29.3458 11.7282 29.4454 11.7334 29.5393 11.7445L30.1193 11.7406L30.506 11.7381C30.5645 11.726 30.6583 11.7195 30.7872 11.7186C30.9747 11.7174 31.0919 11.7225 31.1388 11.7339C31.1974 11.7335 31.2971 11.7446 31.4379 11.7671C31.6021 11.7894 31.7487 11.8119 31.8778 11.8345C32.0185 11.8453 32.1592 11.8502 32.2998 11.8493L32.5634 11.8475L32.6173 12.023L32.7591 12.1978C32.7829 12.2562 32.8184 12.3087 32.8656 12.3553C32.9245 12.4018 32.9835 12.4541 33.0425 12.5123C33.1604 12.6288 33.2726 12.7628 33.3791 12.9144C33.4973 13.066 33.5398 13.2942 33.5067 13.5991L33.3849 13.7933C33.3265 13.8171 33.2565 13.8703 33.175 13.9529L33.0178 14.0946C32.8889 14.1071 32.7777 14.1196 32.684 14.1319C32.5903 14.1326 32.4965 14.1332 32.4028 14.1338C32.227 14.135 32.0453 14.1303 31.8577 14.1198C31.6819 14.1093 31.4943 14.0988 31.295 14.0884C31.1896 14.0891 31.1075 14.0896 31.0489 14.09C30.9903 14.0904 30.9317 14.0908 30.8732 14.0912C30.8263 14.0915 30.7735 14.0918 30.715 14.0922C30.6564 14.0926 30.5802 14.0931 30.4864 14.0937C30.3927 14.0943 30.3224 14.0948 30.2755 14.0951C30.2286 14.0954 30.1642 14.1017 30.0823 14.114ZM40.9865 12.3016C40.9988 12.3836 40.9992 12.448 40.9878 12.495C40.9881 12.5301 40.9824 12.5653 40.9709 12.6006C40.9712 12.6357 40.9714 12.6767 40.9718 12.7236C40.972 12.7588 40.9841 12.8173 41.0081 12.8992C40.7646 13.2992 40.4793 13.5765 40.1522 13.731C39.8368 13.8737 39.4918 13.9815 39.1172 14.0543C38.7426 14.1153 38.3563 14.1823 37.9584 14.2553C37.5721 14.3282 37.1864 14.4831 36.8013 14.72C36.6485 14.6624 36.5079 14.6633 36.3794 14.7228C36.2626 14.7821 36.0869 14.8009 35.8524 14.779C35.7826 14.8498 35.695 14.9031 35.5898 14.9389C35.4845 14.9631 35.3792 14.9931 35.274 15.0289C35.3215 15.1341 35.3399 15.2453 35.3289 15.3625C35.3296 15.468 35.3478 15.5558 35.3834 15.6259C35.7938 15.6583 36.2449 15.6495 36.7368 15.5993C37.2403 15.5491 37.7323 15.5166 38.2127 15.5017C38.2248 15.5602 38.2192 15.6012 38.1959 15.6248C38.1726 15.6367 38.1669 15.666 38.179 15.7128C38.2614 15.7709 38.3439 15.8465 38.4266 15.9397C38.5091 16.0212 38.5917 16.1027 38.6743 16.1842C38.7568 16.2657 38.8393 16.3354 38.9217 16.3935C39.0158 16.4398 39.1214 16.4566 39.2385 16.4441C39.286 16.5376 39.316 16.6429 39.3285 16.76C39.3526 16.8653 39.3416 16.9767 39.2955 17.0942C39.1089 17.2243 38.9223 17.3603 38.7357 17.5022C38.5491 17.6323 38.3506 17.7508 38.1404 17.8577C37.9419 17.9645 37.7257 18.0538 37.4918 18.1256C37.2695 18.1857 37.0177 18.2108 36.7364 18.2009C36.6778 18.2013 36.6309 18.2016 36.5958 18.2019C36.5723 18.202 36.537 18.1847 36.4899 18.1498C36.3966 18.2091 36.2619 18.2275 36.086 18.2052C35.9218 18.1829 35.793 18.2013 35.6996 18.2605C35.5704 18.2028 35.412 18.1804 35.2246 18.1934C35.0488 18.1945 34.8904 18.1721 34.7495 18.1262C34.5636 18.3735 34.3955 18.6383 34.245 18.9206C34.0945 19.2028 33.9617 19.5025 33.8466 19.8197C34.2454 19.8757 34.5737 19.8969 34.8314 19.8835C35.1009 19.87 35.3527 19.8508 35.5869 19.8258C35.8211 19.7891 36.0611 19.7582 36.307 19.7331C36.5529 19.6963 36.8634 19.6826 37.2384 19.6918C37.4719 19.5614 37.7468 19.4775 38.063 19.4403C38.3908 19.3912 38.6891 19.3189 38.958 19.2234C39.052 19.2579 39.1345 19.3218 39.2054 19.4151C39.2762 19.4967 39.3412 19.5783 39.4004 19.6599C39.4712 19.7298 39.5419 19.7938 39.6126 19.8519C39.6833 19.91 39.7713 19.9329 39.8767 19.9205C39.9239 19.967 39.9536 20.0254 39.9658 20.0957C39.9896 20.1541 40.0076 20.2126 40.0197 20.2711C40.0318 20.3296 40.0497 20.3822 40.0734 20.4289C40.1088 20.4639 40.1616 20.4752 40.2319 20.4631C40.0587 20.8509 39.8556 21.1511 39.6226 21.3636C39.4012 21.5643 39.1444 21.7183 38.8522 21.8257C38.5599 21.9331 38.2323 22.0173 37.8694 22.0783C37.5183 22.1392 37.1262 22.2121 36.6931 22.297C36.5878 22.3212 36.4999 22.3159 36.4294 22.2812C36.3589 22.2582 36.2768 22.247 36.183 22.2477C35.9139 22.308 35.592 22.3629 35.2173 22.4123C34.8426 22.4616 34.4619 22.4817 34.0751 22.4725C33.6883 22.4634 33.3188 22.4131 32.9667 22.3217C32.6146 22.2419 32.3264 22.0915 32.1023 21.8703C32.008 21.7889 31.943 21.6956 31.9071 21.5904C31.8829 21.4733 31.8061 21.3859 31.6769 21.3282C31.6641 21.1759 31.6396 21.0062 31.6032 20.8189C31.5668 20.6317 31.5303 20.4385 31.4939 20.2395C31.4573 20.0288 31.4267 19.824 31.4019 19.6249C31.3889 19.4258 31.3994 19.2441 31.4335 19.0798C31.4675 18.9038 31.5367 18.7451 31.6413 18.6038C31.7575 18.4624 31.7975 18.3098 31.7613 18.1459C31.8198 18.1338 31.8548 18.1043 31.8662 18.0574C31.8775 17.9987 31.9242 17.9749 32.0063 17.9861C32.0753 17.7747 32.1501 17.575 32.2309 17.387C32.3117 17.1989 32.3925 17.0167 32.4734 16.8404C32.566 16.664 32.6527 16.4877 32.7336 16.3113C32.8261 16.1232 32.9126 15.9176 32.9932 15.6944C32.8281 15.5431 32.704 15.3799 32.6208 15.2046C32.5492 15.0176 32.4953 14.8363 32.459 14.6608C32.4226 14.4735 32.3921 14.2862 32.3674 14.0989C32.3426 13.8998 32.3003 13.7009 32.2404 13.502C32.3564 13.3255 32.4961 13.1839 32.6595 13.0774C32.8345 12.959 33.0213 12.8641 33.2201 12.7924C33.4188 12.7208 33.6352 12.6608 33.8693 12.6124C34.1034 12.5639 34.3491 12.5096 34.6065 12.4493C35.0743 12.2938 35.4895 12.1739 35.8522 12.0895C36.2267 12.005 36.5895 11.9381 36.9408 11.8889C37.3036 11.8279 37.6783 11.7727 38.0647 11.7233C38.4511 11.6738 38.8901 11.6006 39.3816 11.5036C39.4878 11.6084 39.5877 11.6605 39.6815 11.6599C39.7277 11.5541 39.7802 11.5244 39.8391 11.5709C39.9097 11.6056 39.9387 11.5703 39.9263 11.4649C40.0448 11.6633 40.1924 11.8323 40.3691 11.9717C40.5575 12.0994 40.7633 12.2094 40.9865 12.3016ZM47.7669 22.1887C47.5795 22.2016 47.3451 22.1973 47.0637 22.1758C46.794 22.1541 46.5423 22.1968 46.3086 22.3038C45.6874 22.2845 45.0541 22.2125 44.4087 22.0878C43.7633 21.9632 43.1705 21.8089 42.6302 21.625C42.5122 21.4968 42.3942 21.3804 42.2764 21.2757C42.1584 21.1593 41.9997 21.0783 41.8001 21.0328C41.5174 20.812 41.2871 20.544 41.1093 20.2287C40.9313 19.9018 40.7884 19.557 40.6805 19.1944C40.5727 18.8319 40.4999 18.4632 40.4623 18.0884C40.4246 17.702 40.4104 17.3329 40.4198 16.9813C40.5921 16.4528 40.8352 16 41.1491 15.6229C41.4747 15.234 41.8061 14.851 42.1435 14.4737C42.2954 14.4024 42.4062 14.3314 42.4761 14.2606C42.5576 14.178 42.6391 14.1072 42.7208 14.048C42.8141 13.9771 42.9015 13.9121 42.9832 13.8529C43.0765 13.782 43.1579 13.6994 43.2276 13.6052C43.4733 13.545 43.6837 13.4616 43.8588 13.3549C44.0455 13.2365 44.2264 13.1181 44.4014 12.9998C44.5763 12.8697 44.7572 12.7513 44.944 12.6446C45.1308 12.5379 45.347 12.4545 45.5927 12.3942C45.6858 12.2882 45.7966 12.2054 45.9251 12.146C46.0535 12.0748 46.182 12.0095 46.3105 11.95C46.4507 11.8788 46.5791 11.8076 46.6958 11.7366C46.8243 11.6654 46.9233 11.571 46.9928 11.4533C47.052 11.5467 47.1343 11.5813 47.2396 11.5572C47.3448 11.5213 47.4442 11.4855 47.5377 11.4497C47.5962 11.4376 47.6432 11.449 47.6786 11.484C47.7257 11.5188 47.7669 11.5537 47.8023 11.5886C47.8377 11.6235 47.8671 11.6468 47.8907 11.6583C47.9258 11.6581 47.9549 11.6286 47.978 11.5699C48.0366 11.5695 48.0543 11.5987 48.0313 11.6574C48.0082 11.7162 47.9909 11.7573 47.9794 11.7808C48.073 11.7685 48.1493 11.7914 48.2083 11.8496C48.2789 11.896 48.3846 11.9246 48.5253 11.9354C48.5726 11.9937 48.5846 12.0405 48.5614 12.0758C48.5381 12.0994 48.5267 12.1463 48.5272 12.2166C48.8794 12.3198 49.1032 12.4882 49.1985 12.722C49.2937 12.944 49.3011 13.1784 49.2207 13.425C49.1403 13.6716 48.9953 13.9011 48.7858 14.1134C48.5763 14.3257 48.3487 14.4679 48.1031 14.5398C47.5416 14.6959 47.0095 14.8693 46.5069 15.0601C46.0158 15.2392 45.6133 15.5055 45.2992 15.8592C45.0185 15.943 44.7673 16.056 44.5456 16.1981C44.3355 16.3284 44.1314 16.4821 43.9334 16.6592C43.747 16.8245 43.5665 17.0015 43.392 17.1901C43.2291 17.367 43.0544 17.5439 42.8681 17.721C42.8809 17.8849 42.8525 18.014 42.7828 18.1083C42.7247 18.1907 42.6667 18.2789 42.6087 18.3731C42.6333 18.5487 42.6754 18.7066 42.7349 18.8469C42.7944 18.9754 42.8597 19.1039 42.9308 19.2323C43.7058 19.4616 44.5271 19.6026 45.3946 19.6555C46.2739 19.7083 47.153 19.7376 48.032 19.7435C48.1148 19.8602 48.2093 19.9709 48.3154 20.0756C48.4332 20.1686 48.5394 20.2734 48.6339 20.3899C48.7284 20.4948 48.8053 20.6173 48.8649 20.7576C48.9243 20.8861 48.9371 21.0501 48.9033 21.2495C48.7404 21.4264 48.5598 21.5916 48.3616 21.7453C48.1633 21.8872 47.9651 22.035 47.7669 22.1887ZM59.6461 13.6198C59.3531 13.6217 59.0369 13.6472 58.6973 13.6963C58.3577 13.7337 58.024 13.777 57.6962 13.826C57.4621 13.8627 57.2338 13.8935 57.0113 13.9184C56.8005 13.9433 56.6072 13.9621 56.4315 13.975C56.3512 14.2333 56.2707 14.4624 56.19 14.6622C56.1093 14.8619 56.0227 15.0558 55.9301 15.244C55.8377 15.4438 55.7512 15.6495 55.6705 15.8609C55.6016 16.0606 55.5327 16.2779 55.4639 16.5127C55.348 16.701 55.2495 16.8774 55.1686 17.042C55.0993 17.1948 55.0418 17.371 54.9963 17.5705C54.8568 17.7472 54.7526 17.9354 54.6836 18.1351C54.6145 18.323 54.5629 18.4874 54.5287 18.6283L54.4597 18.8397C54.3899 18.9105 54.3493 18.9693 54.3379 19.0163C54.3264 19.0515 54.2973 19.0869 54.2507 19.1223C54.2398 19.2513 54.1996 19.3805 54.1302 19.5099C54.1071 19.5686 54.0899 19.6273 54.0786 19.686C54.0672 19.7329 54.0616 19.7681 54.0617 19.7916C54.0625 19.9088 54.0337 19.9851 53.9753 20.0207C53.9874 20.0792 53.9879 20.1436 53.9766 20.214C53.9653 20.2727 53.954 20.3314 53.9426 20.39C53.9084 20.5309 53.8974 20.6423 53.9097 20.7242C53.9451 20.7709 53.9747 20.8117 53.9984 20.8467C54.0338 20.8816 54.0575 20.9283 54.0696 20.9869C54.1402 21.0333 54.1932 21.0622 54.2284 21.0737C54.2755 21.1085 54.3461 21.1491 54.4401 21.1953L54.5995 21.3701C54.6603 21.7095 54.6094 21.9794 54.4467 22.1797C54.2723 22.4035 53.9743 22.5168 53.5524 22.5196L53.3415 22.521C53.2825 22.4628 53.247 22.4161 53.2351 22.3811C53.1411 22.3465 53.0647 22.3177 53.006 22.2947C52.9472 22.2716 52.8942 22.2251 52.8468 22.1551C52.694 22.0858 52.5706 22.028 52.4766 21.9818L52.3178 21.8949C52.3169 21.766 52.3165 21.6957 52.3164 21.684C52.2337 21.5791 52.1684 21.4623 52.1207 21.3337C52.0847 21.2051 52.0545 21.0763 52.0303 20.9476C52.0061 20.8423 51.9762 20.7429 51.9404 20.6494C51.9163 20.5558 51.8806 20.474 51.8333 20.404C51.8054 19.7244 51.866 19.1498 52.0153 18.6801C52.1645 18.2103 52.3197 17.7581 52.4809 17.3234C52.5731 17.0885 52.6653 16.8535 52.7575 16.6185C52.8496 16.3718 52.93 16.1193 52.9986 15.861L53.1557 15.6842C53.2364 15.4961 53.2999 15.3434 53.346 15.2259C53.4037 15.0966 53.4615 14.9673 53.5192 14.838C53.5538 14.7558 53.5826 14.6794 53.6056 14.6089C53.6402 14.5267 53.669 14.4562 53.6921 14.3974C53.6218 14.3979 53.5574 14.4042 53.4988 14.4163C53.4403 14.4166 53.3817 14.4229 53.3232 14.435C53.2529 14.4472 53.1886 14.4593 53.1301 14.4714C53.0715 14.4718 53.0129 14.4722 52.9543 14.4726C52.8723 14.4731 52.8136 14.4677 52.7784 14.4562C52.6499 14.5156 52.5094 14.5459 52.3571 14.5469L52.1813 14.548C52.1462 14.5483 52.111 14.5485 52.0759 14.5487C52.0523 14.5372 52.0289 14.5314 52.0054 14.5316C51.8882 14.5324 51.7946 14.5506 51.7245 14.5862C51.5839 14.5871 51.4492 14.588 51.3202 14.5889L51.1445 14.59C51.121 14.5902 51.0918 14.5962 51.0567 14.6082C51.0215 14.6084 50.9922 14.6086 50.9688 14.6088C50.8868 14.6093 50.7989 14.604 50.705 14.5929C50.6111 14.5701 50.5112 14.5298 50.4054 14.4719C50.2635 14.2853 50.1691 14.1863 50.1222 14.1749L49.9626 13.965C49.9504 13.8948 49.9324 13.8304 49.9086 13.772C49.8847 13.7019 49.8607 13.6258 49.8367 13.544C49.7891 13.4271 49.7414 13.3044 49.6937 13.1758C49.6576 13.0354 49.6389 12.8714 49.6377 12.6839C49.6488 12.5901 49.6718 12.5196 49.7066 12.4725C49.7415 12.4254 49.7705 12.3842 49.7937 12.3489L49.8447 12.0849L50.0733 12.101L50.5655 12.0977C50.9405 12.0952 51.3213 12.081 51.7078 12.055C52.0943 12.0173 52.4925 11.9795 52.9024 11.9416C53.1366 11.9166 53.3708 11.8917 53.605 11.8667C53.851 11.8416 54.1028 11.8165 54.3604 11.7914C54.4066 11.6856 54.4528 11.5857 54.4991 11.4916L54.6743 11.4026C54.8851 11.3895 55.0318 11.4178 55.1143 11.4876C55.2084 11.5455 55.285 11.6036 55.344 11.6618C55.6016 11.6367 55.8593 11.6115 56.1169 11.5864C56.3862 11.5495 56.6555 11.5067 56.9247 11.458C57.3227 11.3968 57.7208 11.3414 58.1189 11.2919C58.5288 11.2423 58.9212 11.2163 59.2962 11.2138C59.4602 11.2127 59.6185 11.2175 59.7709 11.2283C59.9233 11.239 60.064 11.2556 60.1931 11.2782L60.3697 11.4001C60.4053 11.4702 60.4526 11.5343 60.5116 11.5925C60.5823 11.6506 60.653 11.7088 60.7237 11.7669C60.8652 11.8949 61.0068 12.0463 61.1486 12.2211C61.2904 12.396 61.3448 12.6534 61.3119 12.9935C61.2191 13.1347 61.1493 13.2172 61.1026 13.241L60.9458 13.453L60.7699 13.4365C60.6996 13.437 60.6352 13.4492 60.5767 13.473C60.5182 13.4851 60.4598 13.5031 60.4013 13.5269C60.3546 13.5506 60.3079 13.5744 60.2612 13.5981C60.2144 13.6101 60.1617 13.6222 60.1032 13.6343C59.9977 13.635 59.9098 13.6356 59.8395 13.6361C59.7809 13.6247 59.7164 13.6193 59.6461 13.6198ZM62.0492 20.8286C62.1101 21.1798 62.0885 21.4554 61.9844 21.6553C61.8919 21.8551 61.7523 22.0025 61.5654 22.0975C61.3903 22.2041 61.1856 22.2641 60.9513 22.2773C60.7171 22.2906 60.4943 22.2804 60.2832 22.2466C60.1649 22.0833 60.0581 21.8789 59.9627 21.6335C59.8673 21.388 59.7778 21.1366 59.694 20.8794C59.6102 20.6104 59.5323 20.3472 59.4603 20.0899C59.4 19.8325 59.3458 19.6043 59.2976 19.4054C59.3552 19.2644 59.3893 19.106 59.3999 18.9301C59.4221 18.7424 59.4326 18.5549 59.4313 18.3674C59.4418 18.1798 59.4464 17.9923 59.4452 17.8048C59.4556 17.6055 59.4719 17.4179 59.4942 17.2419C59.573 16.7492 59.6871 16.2797 59.8365 15.8334C59.9976 15.387 60.1234 14.9233 60.214 14.4422C60.2367 14.3366 60.2244 14.237 60.1769 14.1436C60.1411 14.0501 60.1347 13.9622 60.1576 13.8801C60.169 13.8331 60.2039 13.8036 60.2624 13.7915C60.3209 13.7676 60.3558 13.7264 60.3671 13.6677C60.4014 13.5386 60.4066 13.4331 60.3826 13.3512C60.3703 13.2693 60.3931 13.1695 60.4509 13.0519C60.5089 12.9578 60.5783 12.8226 60.6592 12.6462C60.7517 12.4581 60.7856 12.2645 60.7608 12.0655C60.8658 11.9945 60.9649 11.9118 61.058 11.8174C61.1511 11.7231 61.2443 11.6404 61.3376 11.5695C61.4425 11.4867 61.5534 11.4157 61.6702 11.3563C61.7987 11.2969 61.9509 11.2666 62.1266 11.2654C62.2212 11.382 62.2806 11.5105 62.305 11.651C62.3411 11.7914 62.3713 11.9318 62.3957 12.0723C62.4317 12.2126 62.4795 12.3471 62.539 12.4756C62.5983 12.5924 62.6985 12.6855 62.8396 12.7549C62.8403 12.8486 62.841 12.9658 62.842 13.1064C62.8429 13.2471 62.8497 13.3876 62.8623 13.5282C62.8749 13.657 62.8991 13.7799 62.9351 13.8969C62.9826 14.002 63.0534 14.0719 63.1474 14.1064C62.9402 14.6703 62.7446 15.2282 62.5608 15.7802C62.3887 16.3322 62.2458 16.8898 62.1324 17.453C62.0188 18.0046 61.9463 18.5617 61.9149 19.1244C61.8952 19.6871 61.94 20.2551 62.0492 20.8286ZM69.9293 18.9132C69.9187 19.0774 69.8787 19.2359 69.8094 19.3887C69.7517 19.5297 69.6765 19.6708 69.5837 19.812C69.4908 19.9416 69.3862 20.0712 69.2698 20.2008C69.1651 20.3187 69.0604 20.4249 68.9555 20.5193C68.9917 20.6714 68.9925 20.7886 68.9579 20.8709C68.9349 20.9413 68.9298 21.0527 68.9425 21.205C68.7698 21.6749 68.5023 21.9872 68.1401 22.1419C67.7896 22.3083 67.4554 22.2812 67.1376 22.0607C67.008 21.9678 66.8959 21.8513 66.8013 21.7113C66.7182 21.5595 66.6004 21.4666 66.4478 21.4324C66.4817 21.233 66.4628 21.0339 66.3912 20.8351C66.3195 20.6364 66.2427 20.5314 66.1606 20.5202C66.1238 20.2744 66.0693 20.011 65.9971 19.7303C65.925 19.4495 65.8586 19.1687 65.7982 18.8878C65.7377 18.5952 65.6831 18.3143 65.6344 18.0451C65.5974 17.7641 65.584 17.5064 65.5942 17.2719C65.6051 17.1547 65.581 17.0494 65.5217 16.956C65.4743 16.8626 65.4384 16.7515 65.4141 16.6227C65.3654 16.3535 65.346 16.0724 65.3558 15.7793C65.3772 15.4745 65.387 15.1873 65.3852 14.9178C65.3835 14.66 65.3641 14.3847 65.327 14.092C65.3016 13.7875 65.2763 13.5005 65.251 13.2311C65.2257 12.9501 65.2124 12.6982 65.2109 12.4755C65.2093 12.2412 65.2374 12.0593 65.2952 11.93C65.3646 11.789 65.4576 11.677 65.5742 11.5942C65.7025 11.4996 65.819 11.3992 65.9238 11.2931C66.1817 11.3148 66.3875 11.4189 66.5411 11.6054C66.6947 11.7919 66.7544 11.9673 66.7204 12.1316C66.9675 12.2823 67.1621 12.4802 67.3044 12.7254C67.4583 12.9587 67.5772 13.2275 67.6613 13.5316C67.757 13.824 67.8235 14.1399 67.8609 14.4796C67.8982 14.8074 67.9297 15.1354 67.9553 15.4633C67.9808 15.7796 68.0063 16.0841 68.0316 16.3769C68.057 16.6697 68.1056 16.9213 68.1773 17.1318C68.6067 16.5079 68.9664 15.9547 69.2562 15.4723C69.5459 14.9782 69.8416 14.5075 70.1433 14.0602C70.4451 13.6128 70.7819 13.1594 71.1539 12.6999C71.5259 12.2404 72.0088 11.7216 72.6026 11.1435C72.7199 11.1544 72.8138 11.1772 72.8843 11.2119C72.9666 11.2465 73.0371 11.2754 73.0959 11.2984C73.1546 11.3215 73.2251 11.3444 73.3073 11.3673C73.3894 11.3785 73.5006 11.3719 73.6411 11.3475C73.6888 11.4644 73.7245 11.5521 73.7483 11.6105C73.7721 11.6572 73.79 11.7098 73.8021 11.7684C73.8258 11.8151 73.8497 11.8794 73.8737 11.9612C73.9094 12.043 73.9629 12.1599 74.0342 12.3118C74.0696 12.3467 74.0816 12.3935 74.0703 12.4521C74.059 12.5108 74.0476 12.5695 74.0363 12.6282C74.0366 12.675 74.0368 12.7102 74.037 12.7336C74.0372 12.7571 74.0665 12.7569 74.1249 12.733C74.0908 12.8973 74.0274 13.0501 73.9346 13.1913C73.8534 13.3208 73.8193 13.4792 73.8322 13.6666C73.565 14.02 73.2686 14.3852 72.943 14.7624C72.629 15.1395 72.3093 15.5283 71.9839 15.9289C71.6701 16.3294 71.3682 16.7533 71.0782 17.2005C70.7881 17.6361 70.5392 18.0947 70.3314 18.5766C70.2728 18.577 70.226 18.5949 70.1911 18.6303C70.1679 18.6656 70.1447 18.7067 70.1216 18.7538C70.0984 18.7891 70.0694 18.8244 70.0344 18.8598C70.0112 18.8951 69.9762 18.9129 69.9293 18.9132ZM83.2128 20.6888C83.2737 21.0399 83.2521 21.3155 83.148 21.5154C83.0555 21.7152 82.9159 21.8626 82.729 21.9576C82.5539 22.0643 82.3492 22.1242 82.1149 22.1375C81.8807 22.1507 81.6579 22.1405 81.4468 22.1067C81.3285 21.9434 81.2217 21.7391 81.1263 21.4936C81.0309 21.2481 80.9414 20.9968 80.8576 20.7395C80.7738 20.4705 80.6959 20.2074 80.6239 19.95C80.5636 19.6926 80.5094 19.4644 80.4612 19.2655C80.5188 19.1245 80.5529 18.9661 80.5635 18.7902C80.5857 18.6026 80.5962 18.415 80.5949 18.2275C80.6054 18.0399 80.61 17.8524 80.6088 17.6649C80.6192 17.4656 80.6355 17.278 80.6578 17.1021C80.7366 16.6094 80.8507 16.1398 81.0001 15.6935C81.1612 15.2471 81.287 14.7834 81.3776 14.3023C81.4003 14.1967 81.388 14.0972 81.3405 14.0037C81.3047 13.9102 81.2983 13.8224 81.3212 13.7402C81.3326 13.6932 81.3675 13.6637 81.426 13.6516C81.4845 13.6278 81.5194 13.5865 81.5307 13.5279C81.565 13.3987 81.5702 13.2932 81.5462 13.2114C81.5339 13.1294 81.5567 13.0296 81.6145 12.9121C81.6725 12.8179 81.7419 12.6827 81.8228 12.5064C81.9153 12.3183 81.9492 12.1247 81.9244 11.9256C82.0294 11.8546 82.1285 11.7719 82.2216 11.6776C82.3147 11.5832 82.4079 11.5005 82.5012 11.4296C82.6061 11.3469 82.717 11.2758 82.8338 11.2165C82.9623 11.157 83.1145 11.1267 83.2902 11.1256C83.3848 11.2421 83.4442 11.3706 83.4686 11.5111C83.5047 11.6515 83.5349 11.7919 83.5593 11.9324C83.5953 12.0728 83.6431 12.2072 83.7026 12.3358C83.7619 12.4526 83.8621 12.5456 84.0032 12.615C84.0039 12.7088 84.0046 12.826 84.0056 12.9666C84.0065 13.1072 84.0133 13.2478 84.0259 13.3883C84.0385 13.5172 84.0627 13.64 84.0987 13.757C84.1462 13.8622 84.217 13.932 84.311 13.9665C84.1038 14.5304 83.9082 15.0884 83.7244 15.6404C83.5523 16.1923 83.4095 16.7499 83.296 17.3132C83.1824 17.8647 83.1099 18.4218 83.0785 18.9846C83.0588 19.5472 83.1036 20.1153 83.2128 20.6888ZM88.8423 18.6828C88.737 18.7069 88.6612 18.7719 88.615 18.8777C88.5688 18.9717 88.5226 19.0716 88.4764 19.1774C88.4419 19.2831 88.4016 19.383 88.3553 19.477C88.3207 19.5593 88.2624 19.6007 88.1804 19.6012C88.1693 19.6951 88.1346 19.7773 88.0765 19.848C88.0301 19.9186 87.9837 19.9951 87.9374 20.0775C87.891 20.1481 87.8564 20.2304 87.8336 20.3243C87.8107 20.4064 87.823 20.506 87.8707 20.6228C87.7774 20.6938 87.7195 20.7938 87.6969 20.9228C87.6743 21.0519 87.6458 21.1751 87.6114 21.2925C87.5888 21.4099 87.5426 21.5098 87.4728 21.5923C87.403 21.6748 87.2744 21.7108 87.0868 21.7003C87.0519 21.7474 87.0463 21.7768 87.0698 21.7883C87.0933 21.7999 87.1111 21.8408 87.1233 21.911C86.9943 21.8884 86.8947 21.8949 86.8246 21.9306C86.7663 21.9778 86.6904 22.0076 86.5967 22.02C86.3736 21.9511 86.1853 21.8293 86.0318 21.6545C85.89 21.4797 85.7598 21.2872 85.6412 21.077C85.5343 20.8551 85.4332 20.6331 85.338 20.4111C85.2545 20.189 85.1712 19.9961 85.0881 19.8326C85.1224 19.7035 85.1274 19.5804 85.1032 19.4634C85.0789 19.3346 85.0372 19.2294 84.9781 19.1478C85.5442 17.9253 86.1626 16.6204 86.8331 15.2331C87.5036 13.8458 88.1391 12.4764 88.7396 11.1247C89.0098 11.2284 89.2743 11.3497 89.533 11.4886C89.8034 11.6157 90.0446 11.7665 90.2567 11.9409C90.4805 12.1152 90.6694 12.319 90.8233 12.5524C90.9771 12.774 91.0784 13.0253 91.1271 13.3062C91.1041 13.3767 91.075 13.4062 91.0398 13.3947C91.0162 13.3714 90.9928 13.3774 90.9696 13.4128C91.0169 13.471 91.0406 13.5119 91.0407 13.5353C91.0526 13.5587 91.0527 13.5821 91.0412 13.6056C91.0413 13.6291 91.0416 13.6642 91.0419 13.7111C91.0421 13.7463 91.06 13.7989 91.0957 13.869C91.0487 13.8576 91.0136 13.8636 90.9903 13.8872C90.9787 13.9107 90.9436 13.911 90.8848 13.8879C90.9326 14.0165 90.945 14.1219 90.9221 14.2041C90.9109 14.2862 90.888 14.3625 90.8533 14.4331C90.8185 14.4919 90.7897 14.5624 90.7668 14.6446C90.7438 14.7151 90.7503 14.8088 90.7862 14.9257C90.7511 14.9259 90.7219 14.9379 90.6986 14.9615C90.6869 14.9732 90.6753 14.9909 90.6638 15.0144C90.6521 15.0262 90.6347 15.0439 90.6114 15.0675C90.5997 15.0793 90.5763 15.0795 90.5411 15.068C90.5779 15.3255 90.5914 15.5833 90.5813 15.8412C90.5713 16.099 90.5613 16.3628 90.5514 16.6324C90.5531 16.8902 90.5608 17.1655 90.5744 17.4584C90.588 17.7396 90.631 18.0323 90.7033 18.3365C91.1235 18.0876 91.4554 17.769 91.699 17.3807C91.9542 16.9923 92.1564 16.5573 92.3056 16.0759C92.4665 15.5943 92.5861 15.0779 92.6645 14.5266C92.7429 13.9753 92.8271 13.4122 92.917 12.8374C93.0218 12.7312 93.103 12.6018 93.1605 12.449C93.2181 12.2963 93.2698 12.1378 93.3156 11.9734C93.3613 11.7973 93.4071 11.6271 93.4529 11.4627C93.4986 11.2866 93.5561 11.128 93.6255 10.9869C93.8014 11.0092 93.9483 11.0668 94.0661 11.1598C94.1955 11.241 94.3134 11.334 94.4195 11.4387C94.5256 11.5318 94.6375 11.6248 94.7553 11.7178C94.8731 11.799 95.0199 11.8508 95.1958 11.8731C95.3378 12.0714 95.468 12.2639 95.5864 12.4506C95.7048 12.6373 95.7823 12.836 95.8188 13.0467C95.7609 13.1408 95.7147 13.2466 95.6803 13.364C95.6576 13.4814 95.6291 13.5988 95.5947 13.7162C95.5604 13.8336 95.5142 13.9452 95.4563 14.0511C95.3984 14.1452 95.3169 14.2278 95.2119 14.2988C95.1787 14.6037 95.1337 14.8853 95.0768 15.1435C95.0316 15.3899 94.9805 15.6363 94.9235 15.8828C94.8783 16.1292 94.8389 16.3872 94.8056 16.657C94.7721 16.915 94.7623 17.2022 94.7761 17.5185C94.6841 17.7887 94.5864 18.0765 94.483 18.3818C94.3795 18.6872 94.2993 18.9631 94.2423 19.2096C94.0559 19.3632 93.9106 19.5458 93.8065 19.7574C93.7024 19.9691 93.5925 20.1807 93.4767 20.3924C93.4301 20.4396 93.4009 20.4515 93.3891 20.4282C93.3772 20.4048 93.3361 20.3875 93.2657 20.3762C93.2777 20.423 93.2779 20.4582 93.2664 20.4817C93.2548 20.5052 93.2374 20.5288 93.2141 20.5524C93.2024 20.5642 93.1909 20.5877 93.1794 20.6229C93.1796 20.6581 93.1917 20.7049 93.2155 20.7633C93.0519 20.8347 92.9061 20.9353 92.778 21.065C92.65 21.1948 92.5101 21.3129 92.3585 21.4194C92.2185 21.5258 92.0432 21.5972 91.8325 21.6338C91.6336 21.6703 91.3696 21.631 91.0407 21.516C90.5579 21.1676 90.1275 20.7661 89.7495 20.3116C89.3832 19.857 89.0808 19.314 88.8423 18.6828ZM114.419 18.6544C114.701 18.7931 114.843 18.968 114.844 19.1789C114.857 19.3898 114.794 19.5894 114.655 19.7779C114.527 19.9545 114.352 20.0904 114.13 20.1856C113.92 20.2808 113.726 20.2762 113.55 20.1719C113.527 20.2658 113.475 20.3306 113.393 20.3663C113.323 20.3902 113.276 20.4432 113.253 20.5254C112.118 20.7087 110.959 20.9332 109.777 21.1988C108.595 21.4644 107.413 21.6656 106.23 21.8023C105.316 21.7732 104.554 21.6435 103.943 21.4131C103.695 21.2038 103.506 20.9414 103.375 20.6258C103.256 20.3102 103.183 19.9767 103.157 19.6253C103.132 19.2739 103.141 18.934 103.186 18.6056C103.23 18.2654 103.299 17.972 103.391 17.7253C103.995 16.9478 104.623 16.2054 105.275 15.4979C105.938 14.7787 106.69 14.1409 107.53 13.5846C107.774 13.2783 108.059 13.0186 108.386 12.8055C108.713 12.5806 109.01 12.3326 109.277 12.0613C108.925 11.9347 108.556 11.8727 108.169 11.8752C107.782 11.8778 107.401 11.9155 107.027 11.9882C106.652 12.0493 106.301 12.1278 105.974 12.2237C105.646 12.3196 105.36 12.3919 105.114 12.4404C104.926 12.3478 104.703 12.2966 104.445 12.2866C104.199 12.2765 103.952 12.2312 103.706 12.1508C103.564 12.0346 103.464 11.8829 103.404 11.6958C103.356 11.5086 103.325 11.3154 103.312 11.1163C103.299 10.9172 103.292 10.7297 103.291 10.5539C103.29 10.3664 103.265 10.2142 103.217 10.0974C103.31 9.9444 103.391 9.79152 103.461 9.63872C103.542 9.48583 103.634 9.34459 103.739 9.21499C104.289 9.05901 104.897 8.93194 105.565 8.83378C106.232 8.7239 106.905 8.67257 107.585 8.6798C108.265 8.68702 108.922 8.77058 109.556 8.93045C110.189 9.07861 110.754 9.3327 111.248 9.69272C111.309 10.0205 111.434 10.2833 111.623 10.4813C111.811 10.6675 112.041 10.8125 112.311 10.9162C112.441 11.1497 112.554 11.3892 112.65 11.6347C112.745 11.8684 112.811 12.1199 112.848 12.3892C112.618 13.0119 112.287 13.5414 111.857 13.9779C111.438 14.4025 111.012 14.792 110.581 15.1465C110.348 15.3472 110.097 15.5188 109.829 15.6612C109.56 15.8036 109.327 15.9692 109.129 16.158C109.082 16.2052 109.053 16.2699 109.042 16.352C109.031 16.4224 109.002 16.4753 108.955 16.5108C108.746 16.6996 108.512 16.8711 108.256 17.0252C107.999 17.1675 107.765 17.3331 107.556 17.522C107.404 17.6519 107.276 17.7934 107.172 17.9464C107.079 18.0994 106.951 18.235 106.788 18.3532C106.999 18.4222 107.204 18.4501 107.404 18.4371C107.614 18.424 107.825 18.3991 108.036 18.3626C108.258 18.3259 108.481 18.2893 108.703 18.2527C108.937 18.216 109.177 18.2027 109.424 18.2128C109.763 18.0933 110.137 17.9913 110.547 17.9065C110.956 17.8101 111.366 17.7722 111.776 17.7929C112.127 17.65 112.46 17.5482 112.776 17.4875C113.104 17.415 113.414 17.3954 113.708 17.4286C113.86 17.4862 113.972 17.5909 114.044 17.7428C114.127 17.8946 114.25 17.9992 114.415 18.0567C114.381 18.1859 114.369 18.2797 114.382 18.3382C114.405 18.3967 114.418 18.502 114.419 18.6544ZM132.612 21.2764C132.496 21.3358 132.385 21.3892 132.279 21.4368C132.186 21.4843 132.075 21.5085 131.946 21.5093C131.487 21.1725 131.242 20.5823 131.213 19.7387C131.196 18.8951 131.371 17.8216 131.737 16.5184C131.795 16.4829 131.824 16.4124 131.824 16.3069L131.664 16.1322C131.617 16.1325 131.571 16.1386 131.524 16.1507C131.489 16.1626 131.46 16.2038 131.437 16.2743C131.133 16.499 130.801 16.7355 130.439 16.984C130.078 17.2208 129.698 17.446 129.301 17.6595C128.916 17.8613 128.518 18.028 128.109 18.1596C127.712 18.2911 127.319 18.3582 126.933 18.3607C125.948 18.3672 125.207 17.8741 124.708 16.8813L124.566 16.6185L124.427 16.848C124.392 16.8951 124.34 16.995 124.27 17.1478C124.201 17.2889 124.132 17.4535 124.063 17.6414C123.994 17.8294 123.93 18.0232 123.873 18.2228C123.828 18.4106 123.811 18.5747 123.824 18.7153C123.719 18.8214 123.608 18.9452 123.492 19.0866C123.376 19.228 123.289 19.3868 123.232 19.563C123.209 19.6569 123.221 19.7447 123.269 19.8264C123.246 19.932 123.194 20.0144 123.112 20.0735C123.065 20.1324 123.013 20.1914 122.955 20.2504C122.908 20.2975 122.868 20.3505 122.833 20.4094C122.81 20.4681 122.793 20.5268 122.781 20.5855C122.782 20.6441 122.776 20.7027 122.765 20.7614C122.765 20.8434 122.754 20.9197 122.731 20.9901C122.535 21.4016 122.378 21.6663 122.262 21.7843C122.146 21.9139 121.988 21.9794 121.789 21.9808C121.695 21.9814 121.542 21.9648 121.331 21.931C121.178 21.768 121.036 21.5463 120.905 21.2659C120.786 20.9737 120.69 20.6638 120.618 20.3361C120.557 20.0084 120.525 19.6805 120.523 19.3523C120.533 19.0124 120.589 18.7191 120.693 18.4723C120.693 18.4606 120.739 18.3431 120.831 18.1198C120.924 17.8965 121.039 17.6087 121.177 17.2562C121.327 16.9036 121.495 16.5158 121.679 16.0927C121.864 15.6579 122.049 15.2406 122.234 14.8409C122.418 14.4296 122.592 14.0534 122.754 13.7125C122.927 13.3715 123.072 13.1127 123.188 12.9362C123.281 12.7949 123.362 12.6655 123.431 12.5478C123.513 12.4184 123.588 12.2948 123.657 12.1772C123.866 11.8125 124.063 11.5124 124.249 11.2768C124.447 11.0294 124.733 10.8341 125.107 10.691C125.365 10.7948 125.553 10.9166 125.672 11.0564L125.708 11.2495C125.756 11.3664 125.826 11.4245 125.92 11.4239C126.049 11.4582 126.155 11.4927 126.237 11.5273C126.331 11.5501 126.431 11.5729 126.536 11.5956C126.619 11.6888 126.696 11.7997 126.767 11.9281C126.862 12.0681 126.951 12.2081 127.034 12.3482C127.128 12.4765 127.199 12.6108 127.247 12.7511C127.307 12.8796 127.337 13.0142 127.338 13.1548C127.35 13.2954 127.328 13.442 127.27 13.5947L127.289 13.7704C127.348 13.8755 127.361 14.0219 127.327 14.2096C127.316 14.2917 127.311 14.3796 127.311 14.4734C127.312 14.5554 127.324 14.6491 127.348 14.7544C127.56 14.9171 127.748 14.9979 127.913 14.9968C128.1 14.9955 128.27 14.9534 128.421 14.8704C128.585 14.7755 128.737 14.6808 128.877 14.5861C128.97 14.5152 129.063 14.456 129.157 14.4085C129.25 14.3492 129.344 14.3135 129.437 14.3011C129.647 14.1005 129.833 13.9235 129.996 13.7701C130.171 13.6166 130.352 13.463 130.538 13.3095C130.888 13.0259 131.226 12.719 131.552 12.3887C131.878 12.0584 132.139 11.6465 132.334 11.153C132.451 11.0819 132.574 11.046 132.703 11.0451C132.832 11.0443 132.967 11.0727 133.108 11.1303C133.249 11.188 133.384 11.2457 133.513 11.3034C133.549 11.3266 133.578 11.344 133.601 11.3556C133.637 11.3671 133.666 11.3786 133.69 11.3902C133.69 11.5073 133.738 11.6066 133.832 11.688C133.879 11.7229 133.909 11.7461 133.921 11.7578C133.932 11.7694 133.95 11.781 133.973 11.7926C134.15 11.8852 134.262 11.9782 134.309 12.0716C134.393 12.3406 134.541 12.5447 134.753 12.6839C134.73 12.8013 134.731 12.9126 134.755 13.0179C134.791 13.1114 134.832 13.2108 134.88 13.3159C134.892 13.351 134.904 13.3861 134.916 13.4212C134.928 13.4562 134.946 13.4971 134.969 13.5439L134.635 13.5109L134.69 13.8445C134.715 14.0084 134.698 14.1902 134.641 14.3898C134.596 14.5893 134.538 14.7479 134.468 14.8656C134.482 15.1702 134.49 15.4103 134.491 15.5861C134.504 15.7501 134.499 15.9083 134.476 16.0608C134.454 16.2016 134.42 16.3366 134.374 16.4658C134.339 16.595 134.287 16.7359 134.218 16.8887C134.27 17.6384 134.187 18.3245 133.968 18.9471C133.761 19.5578 133.542 20.1335 133.311 20.6741C133.288 20.7329 133.26 20.7916 133.225 20.8505C133.202 20.9092 133.179 20.968 133.156 21.0267C133.05 21.0626 132.957 21.1042 132.875 21.1516C132.793 21.1873 132.706 21.2289 132.612 21.2764ZM138.829 20.3212C138.89 20.6724 138.868 20.9479 138.764 21.1478C138.672 21.3477 138.532 21.4951 138.345 21.5901C138.17 21.6967 137.965 21.7567 137.731 21.7699C137.497 21.7832 137.274 21.7729 137.063 21.7392C136.944 21.5759 136.838 21.3715 136.742 21.1261C136.647 20.8806 136.557 20.6292 136.474 20.372C136.39 20.103 136.312 19.8398 136.24 19.5825C136.18 19.325 136.125 19.0969 136.077 18.898C136.135 18.757 136.169 18.5985 136.179 18.4227C136.202 18.235 136.212 18.0475 136.211 17.86C136.221 17.6724 136.226 17.4849 136.225 17.2974C136.235 17.0981 136.252 16.9105 136.274 16.7345C136.353 16.2418 136.467 15.7723 136.616 15.326C136.777 14.8796 136.903 14.4159 136.994 13.9348C137.016 13.8292 137.004 13.7296 136.956 13.6362C136.921 13.5427 136.914 13.4548 136.937 13.3726C136.949 13.3257 136.984 13.2962 137.042 13.2841C137.1 13.2602 137.135 13.219 137.147 13.1603C137.181 13.0312 137.186 12.9257 137.162 12.8438C137.15 12.7618 137.173 12.6621 137.23 12.5445C137.288 12.4504 137.358 12.3152 137.439 12.1388C137.531 11.9507 137.565 11.7571 137.54 11.5581C137.645 11.4871 137.744 11.4044 137.838 11.31C137.931 11.2156 138.024 11.133 138.117 11.0621C138.222 10.9793 138.333 10.9083 138.45 10.8489C138.578 10.7895 138.73 10.7592 138.906 10.758C139.001 10.8746 139.06 11.0031 139.085 11.1436C139.121 11.2839 139.151 11.4244 139.175 11.5648C139.211 11.7052 139.259 11.8397 139.319 11.9682C139.378 12.085 139.478 12.1781 139.619 12.2475C139.62 12.3412 139.621 12.4584 139.622 12.599C139.622 12.7396 139.629 12.8802 139.642 13.0208C139.654 13.1496 139.679 13.2725 139.715 13.3894C139.762 13.4946 139.833 13.5644 139.927 13.599C139.72 14.1629 139.524 14.7208 139.34 15.2728C139.168 15.8247 139.025 16.3823 138.912 16.9456C138.798 17.4972 138.726 18.0543 138.694 18.617C138.675 19.1796 138.72 19.7477 138.829 20.3212ZM144.458 18.3152C144.353 18.3394 144.277 18.4043 144.231 18.5101C144.185 18.6042 144.139 18.7041 144.092 18.8099C144.058 18.9155 144.018 19.0154 143.971 19.1095C143.937 19.1917 143.878 19.2331 143.796 19.2337C143.785 19.3275 143.751 19.4098 143.692 19.4805C143.646 19.5511 143.6 19.6276 143.553 19.7099C143.507 19.7805 143.472 19.8628 143.45 19.9567C143.427 20.0389 143.439 20.1384 143.487 20.2553C143.393 20.3262 143.335 20.4262 143.313 20.5553C143.29 20.6843 143.262 20.8076 143.227 20.925C143.205 21.0423 143.159 21.1422 143.089 21.2247C143.019 21.3072 142.89 21.3432 142.703 21.3328C142.668 21.3799 142.662 21.4092 142.686 21.4208C142.709 21.4323 142.727 21.4732 142.739 21.5435C142.61 21.5209 142.511 21.5274 142.441 21.563C142.382 21.6103 142.306 21.6401 142.213 21.6524C141.99 21.5836 141.801 21.4618 141.648 21.287C141.506 21.1121 141.376 20.9196 141.257 20.7095C141.15 20.4875 141.049 20.2655 140.954 20.0435C140.87 19.8214 140.787 19.6286 140.704 19.4651C140.738 19.3359 140.743 19.2129 140.719 19.0958C140.695 18.9671 140.653 18.8619 140.594 18.7802C141.16 17.5577 141.779 16.2528 142.449 14.8655C143.12 13.4783 143.755 12.1088 144.356 10.7572C144.626 10.8608 144.89 10.9821 145.149 11.1211C145.419 11.2482 145.661 11.3989 145.873 11.5733C146.097 11.7476 146.285 11.9515 146.439 12.1848C146.593 12.4065 146.694 12.6578 146.743 12.9387C146.72 13.0092 146.691 13.0386 146.656 13.0272C146.632 13.0039 146.609 13.0099 146.586 13.0452C146.633 13.1035 146.657 13.1443 146.657 13.1678C146.669 13.1911 146.669 13.2146 146.657 13.2381C146.657 13.2615 146.658 13.2967 146.658 13.3436C146.658 13.3787 146.676 13.4313 146.712 13.5014C146.665 13.49 146.63 13.4961 146.606 13.5197C146.595 13.5432 146.56 13.5434 146.501 13.5204C146.549 13.649 146.561 13.7544 146.538 13.8365C146.527 13.9187 146.504 13.995 146.469 14.0655C146.434 14.1243 146.406 14.1949 146.383 14.277C146.36 14.3475 146.366 14.4412 146.402 14.5582C146.367 14.5584 146.338 14.5703 146.315 14.5939C146.303 14.6057 146.291 14.6234 146.28 14.6469C146.268 14.6587 146.251 14.6764 146.227 14.6999C146.216 14.7117 146.192 14.7119 146.157 14.7004C146.194 14.958 146.207 15.2157 146.197 15.4736C146.187 15.7315 146.177 15.9952 146.167 16.2648C146.169 16.5226 146.177 16.798 146.19 17.0909C146.204 17.372 146.247 17.6647 146.319 17.9689C146.74 17.7201 147.071 17.4015 147.315 17.0131C147.57 16.6247 147.772 16.1898 147.922 15.7083C148.082 15.2268 148.202 14.7103 148.28 14.159C148.359 13.6077 148.443 13.0446 148.533 12.4698C148.638 12.3637 148.719 12.2342 148.777 12.0815C148.834 11.9288 148.886 11.7702 148.932 11.6058C148.977 11.4298 149.023 11.2595 149.069 11.0952C149.115 10.9191 149.172 10.7605 149.241 10.6194C149.417 10.6417 149.564 10.6993 149.682 10.7923C149.812 10.8734 149.929 10.9664 150.035 11.0712C150.142 11.1642 150.254 11.2573 150.371 11.3502C150.489 11.4315 150.636 11.4832 150.812 11.5055C150.954 11.7038 151.084 11.8963 151.202 12.083C151.321 12.2698 151.398 12.4685 151.435 12.6792C151.377 12.7733 151.331 12.8791 151.296 12.9965C151.274 13.1138 151.245 13.2312 151.211 13.3486C151.176 13.466 151.13 13.5777 151.072 13.6835C151.014 13.7777 150.933 13.8602 150.828 13.9312C150.795 14.2362 150.75 14.5177 150.693 14.7759C150.648 15.0223 150.596 15.2687 150.539 15.5152C150.494 15.7616 150.455 16.0197 150.422 16.2895C150.388 16.5475 150.378 16.8347 150.392 17.151C150.3 17.4211 150.202 17.7089 150.099 18.0143C149.995 18.3197 149.915 18.5956 149.858 18.8421C149.672 18.9956 149.527 19.1782 149.422 19.3899C149.318 19.6015 149.208 19.8132 149.093 20.0249C149.046 20.0721 149.017 20.084 149.005 20.0606C148.993 20.0373 148.952 20.0199 148.882 20.0087C148.894 20.0555 148.894 20.0906 148.882 20.1142C148.871 20.1377 148.853 20.1612 148.83 20.1848C148.818 20.1966 148.807 20.2201 148.795 20.2554C148.796 20.2905 148.808 20.3373 148.831 20.3958C148.668 20.4671 148.522 20.5677 148.394 20.6975C148.266 20.8272 148.126 20.9453 147.974 21.0518C147.835 21.1582 147.659 21.2297 147.449 21.2662C147.25 21.3027 146.986 21.2634 146.657 21.1484C146.174 20.8 145.744 20.3986 145.366 19.944C144.999 19.4894 144.697 18.9465 144.458 18.3152ZM161.341 11.4008C161.366 11.6584 161.408 11.8808 161.468 12.0679C161.528 12.255 161.594 12.4362 161.665 12.6116C161.725 12.7752 161.779 12.9389 161.827 13.1027C161.886 13.2546 161.928 13.4419 161.953 13.6644C161.862 13.9697 161.793 14.2514 161.748 14.5095C161.714 14.7675 161.675 15.0373 161.63 15.3189C161.445 15.7303 161.266 16.0947 161.093 16.4123C160.919 16.7299 160.78 17.0062 160.676 17.2412C160.618 17.3002 160.566 17.3709 160.519 17.4532C160.485 17.5238 160.444 17.6002 160.398 17.6825C160.375 17.7178 160.346 17.7708 160.311 17.8413C160.276 17.9119 160.247 17.9589 160.224 17.9825L159.872 17.8618L159.804 18.3017L159.559 18.3736L159.384 18.5857C159.164 18.9739 158.932 19.3036 158.688 19.5747C158.443 19.8342 158.163 20.0704 157.848 20.2834C157.545 20.4847 157.195 20.6745 156.798 20.8529C156.412 21.0312 155.974 21.2275 155.483 21.4417C155.284 21.4195 155.108 21.409 154.955 21.41C154.815 21.3992 154.68 21.3884 154.551 21.3775C154.328 21.379 154.053 21.3632 153.724 21.3302C153.689 21.2367 153.636 21.1726 153.565 21.1379C153.494 21.1032 153.43 21.0861 153.371 21.0865C153.171 20.994 153.018 20.8603 152.912 20.6852C152.817 20.4983 152.722 20.2997 152.626 20.0894C152.567 19.9609 152.508 19.8441 152.448 19.739C152.389 19.6222 152.324 19.5055 152.253 19.3887L152.551 19.2989L152.161 18.8796C152.138 18.8446 152.108 18.8155 152.073 18.7923C152.037 18.7573 152.008 18.7224 151.984 18.6874L151.965 18.4063C151.924 17.5979 151.902 16.8598 151.897 16.1918C151.905 15.5121 151.994 14.9079 152.167 14.3794L152.165 14.1861C152.199 13.928 152.233 13.7169 152.267 13.5526C152.301 13.3766 152.329 13.2123 152.351 13.0598C152.385 12.8018 152.436 12.5612 152.505 12.3381C152.669 12.3019 152.791 12.2366 152.873 12.1423C152.954 12.0363 153.024 11.9421 153.082 11.8597C153.246 11.8469 153.357 11.8696 153.416 11.9278C153.475 11.986 153.534 12.0793 153.594 12.2079C153.653 12.3129 153.724 12.4297 153.807 12.558C153.902 12.6863 154.037 12.785 154.213 12.8542C154.237 12.9478 154.267 13.0472 154.303 13.1524C154.351 13.2458 154.398 13.351 154.446 13.4679C154.541 13.6665 154.624 13.8769 154.696 14.099C154.78 14.3094 154.828 14.5142 154.841 14.7133C154.725 14.9368 154.633 15.1952 154.565 15.4886C154.508 15.782 154.469 16.0811 154.448 16.3859C154.438 16.6789 154.446 16.966 154.471 17.2471C154.508 17.5164 154.562 17.7445 154.634 17.9316L154.741 18.1594L155.039 18.1223C155.39 18.0262 155.706 17.9245 155.986 17.8172C156.279 17.698 156.547 17.5615 156.792 17.4075C157.037 17.2536 157.271 17.0762 157.492 16.8756C157.713 16.6631 157.946 16.4214 158.19 16.1502C158.435 15.8791 158.644 15.573 158.817 15.232C159.002 14.8792 159.152 14.5149 159.267 14.1392C159.393 13.7633 159.485 13.3936 159.541 13.0299C159.609 12.6544 159.653 12.3026 159.674 11.9743C159.873 11.9027 159.972 11.7614 159.971 11.5505L159.934 11.3573C159.887 11.2873 159.886 11.2053 159.932 11.1113C160.001 10.8881 160.164 10.7171 160.421 10.5982C160.61 10.7142 160.774 10.842 160.916 10.9817C161.069 11.1213 161.211 11.261 161.341 11.4008ZM171.511 12.8805C171.218 12.8824 170.902 12.9079 170.562 12.9571C170.222 12.9945 169.889 13.0377 169.561 13.0867C169.327 13.1234 169.098 13.1542 168.876 13.1791C168.665 13.204 168.472 13.2228 168.296 13.2357C168.216 13.4941 168.135 13.7231 168.055 13.9229C167.974 14.1226 167.887 14.3166 167.795 14.5047C167.702 14.7045 167.616 14.9102 167.535 15.1216C167.466 15.3213 167.397 15.5386 167.329 15.7734C167.213 15.9617 167.114 16.1381 167.033 16.3027C166.964 16.4555 166.907 16.6317 166.861 16.8312C166.722 17.0079 166.617 17.1961 166.548 17.3958C166.479 17.5838 166.428 17.7482 166.393 17.889L166.324 18.1004C166.255 18.1712 166.214 18.2301 166.203 18.277C166.191 18.3122 166.162 18.3476 166.115 18.3831C166.105 18.512 166.064 18.6412 165.995 18.7706C165.972 18.8293 165.955 18.888 165.943 18.9467C165.932 18.9937 165.926 19.0288 165.926 19.0523C165.927 19.1695 165.898 19.2458 165.84 19.2814C165.852 19.3399 165.853 19.4043 165.841 19.4747C165.83 19.5334 165.819 19.5921 165.807 19.6507C165.773 19.7916 165.762 19.903 165.774 19.9849C165.81 20.0316 165.839 20.0724 165.863 20.1074C165.899 20.1423 165.922 20.1891 165.934 20.2476C166.005 20.294 166.058 20.3229 166.093 20.3344C166.14 20.3693 166.211 20.4098 166.305 20.4561L166.464 20.6308C166.525 20.9702 166.474 21.2401 166.311 21.4404C166.137 21.6642 165.839 21.7775 165.417 21.7803L165.206 21.7817C165.147 21.7235 165.112 21.6769 165.1 21.6418C165.006 21.6073 164.929 21.5785 164.871 21.5554C164.812 21.5324 164.759 21.4858 164.712 21.4158C164.559 21.3465 164.435 21.2887 164.341 21.2425L164.183 21.1556C164.182 21.0267 164.181 20.9564 164.181 20.9447C164.098 20.8398 164.033 20.723 163.985 20.5944C163.949 20.4658 163.919 20.3371 163.895 20.2083C163.871 20.103 163.841 20.0036 163.805 19.9101C163.781 19.8165 163.745 19.7347 163.698 19.6647C163.67 18.9852 163.731 18.4105 163.88 17.9408C164.029 17.471 164.184 17.0188 164.346 16.5842C164.438 16.3492 164.53 16.1142 164.622 15.8792C164.714 15.6325 164.795 15.38 164.863 15.1217L165.02 14.9449C165.101 14.7569 165.165 14.6041 165.211 14.4866C165.268 14.3573 165.326 14.228 165.384 14.0987C165.419 14.0165 165.447 13.9401 165.47 13.8696C165.505 13.7874 165.534 13.7169 165.557 13.6581C165.487 13.6586 165.422 13.6649 165.364 13.677C165.305 13.6774 165.246 13.6836 165.188 13.6957C165.118 13.7079 165.053 13.72 164.995 13.7322C164.936 13.7325 164.878 13.7329 164.819 13.7333C164.737 13.7339 164.678 13.7284 164.643 13.7169C164.515 13.7763 164.374 13.8066 164.222 13.8076L164.046 13.8087C164.011 13.809 163.976 13.8092 163.941 13.8094C163.917 13.7979 163.894 13.7922 163.87 13.7923C163.753 13.7931 163.659 13.8113 163.589 13.8469C163.449 13.8478 163.314 13.8487 163.185 13.8496L163.009 13.8507C162.986 13.8509 162.957 13.857 162.921 13.8689C162.886 13.8691 162.857 13.8693 162.834 13.8695C162.752 13.87 162.664 13.8647 162.57 13.8536C162.476 13.8308 162.376 13.7905 162.27 13.7326C162.128 13.546 162.034 13.447 161.987 13.4356L161.827 13.2257C161.815 13.1555 161.797 13.0912 161.773 13.0327C161.749 12.9626 161.725 12.8866 161.701 12.8047C161.654 12.6878 161.606 12.5651 161.558 12.4365C161.522 12.2961 161.504 12.1321 161.502 11.9446C161.514 11.8508 161.537 11.7804 161.571 11.7332C161.606 11.6861 161.635 11.6449 161.658 11.6096L161.709 11.3456L161.938 11.3617L162.43 11.3584C162.805 11.3559 163.186 11.3417 163.573 11.3157C163.959 11.278 164.357 11.2402 164.767 11.2024C165.001 11.1774 165.236 11.1524 165.47 11.1274C165.716 11.1023 165.968 11.0772 166.225 11.0521C166.271 10.9463 166.318 10.8464 166.364 10.7523L166.539 10.6633C166.75 10.6502 166.897 10.6785 166.979 10.7483C167.073 10.8062 167.15 10.8643 167.209 10.9225C167.466 10.8974 167.724 10.8723 167.982 10.8471C168.251 10.8102 168.52 10.7674 168.789 10.7187C169.187 10.6575 169.586 10.6021 169.984 10.5526C170.394 10.503 170.786 10.477 171.161 10.4745C171.325 10.4734 171.483 10.4783 171.636 10.489C171.788 10.4997 171.929 10.5163 172.058 10.5389L172.234 10.6608C172.27 10.7309 172.317 10.795 172.376 10.8532C172.447 10.9114 172.518 10.9695 172.588 11.0276C172.73 11.1556 172.872 11.307 173.013 11.4818C173.155 11.6567 173.21 11.9142 173.177 12.2542C173.084 12.3955 173.014 12.478 172.967 12.5017L172.811 12.7137L172.635 12.6973C172.564 12.6977 172.5 12.7099 172.441 12.7337C172.383 12.7458 172.325 12.7638 172.266 12.7876C172.219 12.8113 172.173 12.8351 172.126 12.8588C172.079 12.8709 172.026 12.8829 171.968 12.895C171.862 12.8957 171.775 12.8963 171.704 12.8968C171.646 12.8854 171.581 12.88 171.511 12.8805ZM179.939 11.3833C179.951 11.4653 179.951 11.5297 179.94 11.5767C179.94 11.6119 179.934 11.647 179.923 11.6823C179.923 11.7174 179.923 11.7585 179.924 11.8053C179.924 11.8405 179.936 11.899 179.96 11.9809C179.717 12.3809 179.431 12.6582 179.104 12.8127C178.789 12.9554 178.444 13.0632 178.069 13.136C177.695 13.197 177.308 13.264 176.91 13.337C176.524 13.4099 176.138 13.5648 175.753 13.8017C175.601 13.7441 175.46 13.745 175.331 13.8045C175.215 13.8638 175.039 13.8826 174.804 13.8607C174.735 13.9315 174.647 13.9848 174.542 14.0206C174.437 14.0448 174.331 14.0748 174.226 14.1106C174.274 14.2158 174.292 14.327 174.281 14.4442C174.282 14.5497 174.3 14.6375 174.335 14.7076C174.746 14.74 175.197 14.7312 175.689 14.681C176.192 14.6308 176.684 14.5983 177.165 14.5834C177.177 14.6419 177.171 14.683 177.148 14.7065C177.125 14.7184 177.119 14.7478 177.131 14.7945C177.213 14.8526 177.296 14.9282 177.379 15.0214C177.461 15.1029 177.544 15.1844 177.626 15.2659C177.709 15.3474 177.791 15.4172 177.874 15.4752C177.968 15.5215 178.073 15.5383 178.191 15.5258C178.238 15.6193 178.268 15.7246 178.281 15.8417C178.305 15.947 178.294 16.0584 178.248 16.1759C178.061 16.306 177.874 16.442 177.688 16.5839C177.501 16.714 177.303 16.8325 177.092 16.9394C176.894 17.0462 176.678 17.1355 176.444 17.2073C176.222 17.2674 175.97 17.2925 175.688 17.2827C175.63 17.283 175.583 17.2833 175.548 17.2836C175.524 17.2837 175.489 17.2664 175.442 17.2315C175.349 17.2908 175.214 17.3092 175.038 17.287C174.874 17.2646 174.745 17.283 174.652 17.3422C174.522 17.2845 174.364 17.2621 174.177 17.2751C174.001 17.2762 173.842 17.2538 173.702 17.2079C173.516 17.4552 173.348 17.72 173.197 18.0023C173.047 18.2845 172.914 18.5842 172.799 18.9014C173.197 18.9574 173.526 18.9786 173.783 18.9652C174.053 18.9517 174.305 18.9325 174.539 18.9075C174.773 18.8708 175.013 18.8399 175.259 18.8148C175.505 18.778 175.815 18.7643 176.19 18.7735C176.424 18.6431 176.699 18.5592 177.015 18.522C177.343 18.4729 177.641 18.4006 177.91 18.3051C178.004 18.3396 178.087 18.4035 178.157 18.4968C178.228 18.5784 178.293 18.66 178.352 18.7416C178.423 18.8115 178.494 18.8755 178.565 18.9336C178.635 18.9917 178.723 19.0146 178.829 19.0022C178.876 19.0487 178.906 19.1071 178.918 19.1774C178.942 19.2358 178.96 19.2943 178.972 19.3528C178.984 19.4113 179.002 19.4639 179.025 19.5106C179.061 19.5456 179.114 19.5569 179.184 19.5448C179.011 19.9326 178.808 20.2328 178.575 20.4453C178.353 20.646 178.096 20.8 177.804 20.9074C177.512 21.0148 177.184 21.099 176.821 21.16C176.47 21.2209 176.078 21.2938 175.645 21.3787C175.54 21.4029 175.452 21.3976 175.381 21.3629C175.311 21.3399 175.229 21.3287 175.135 21.3294C174.866 21.3897 174.544 21.4446 174.169 21.494C173.795 21.5433 173.414 21.5634 173.027 21.5542C172.64 21.5451 172.271 21.4948 171.919 21.4034C171.567 21.3237 171.278 21.1732 171.054 20.952C170.96 20.8706 170.895 20.7773 170.859 20.6721C170.835 20.555 170.758 20.4676 170.629 20.4099C170.616 20.2576 170.592 20.0879 170.555 19.9006C170.519 19.7134 170.482 19.5202 170.446 19.3212C170.409 19.1105 170.379 18.9057 170.354 18.7066C170.341 18.5075 170.351 18.3258 170.386 18.1615C170.42 17.9855 170.489 17.8268 170.593 17.6855C170.71 17.5441 170.75 17.3915 170.713 17.2276C170.772 17.2155 170.807 17.186 170.818 17.1391C170.83 17.0804 170.876 17.0566 170.958 17.0678C171.027 16.8564 171.102 16.6567 171.183 16.4687C171.264 16.2806 171.345 16.0984 171.425 15.9221C171.518 15.7457 171.605 15.5694 171.686 15.393C171.778 15.2049 171.865 14.9993 171.945 14.7761C171.78 14.6248 171.656 14.4616 171.573 14.2863C171.501 14.0993 171.447 13.918 171.411 13.7425C171.375 13.5552 171.344 13.3679 171.319 13.1806C171.295 12.9815 171.252 12.7826 171.192 12.5837C171.308 12.4072 171.448 12.2656 171.612 12.1591C171.787 12.0407 171.973 11.9458 172.172 11.8741C172.371 11.8025 172.587 11.7425 172.821 11.6941C173.055 11.6456 173.301 11.5913 173.559 11.531C174.026 11.3755 174.442 11.2556 174.804 11.1712C175.179 11.0867 175.542 11.0198 175.893 10.9706C176.256 10.9096 176.63 10.8544 177.017 10.805C177.403 10.7556 177.842 10.6823 178.334 10.5853C178.44 10.6901 178.54 10.7422 178.634 10.7416C178.68 10.6358 178.732 10.6061 178.791 10.6526C178.862 10.6873 178.891 10.652 178.878 10.5466C178.997 10.745 179.144 10.914 179.321 11.0534C179.51 11.1811 179.715 11.2911 179.939 11.3833ZM179.811 13.3706C179.892 13.1239 180.019 12.9121 180.194 12.7352C180.38 12.5582 180.578 12.4104 180.788 12.2918C181.01 12.1614 181.238 12.0545 181.472 11.9709C181.706 11.8873 181.928 11.8155 182.138 11.7555C182.606 11.5532 183.103 11.3624 183.629 11.1832C184.167 10.9921 184.71 10.8245 185.26 10.6802C185.822 10.5359 186.395 10.4442 186.981 10.4051C187.567 10.3544 188.182 10.4206 188.828 10.6039C188.864 10.7208 188.918 10.8318 188.989 10.9368C189.06 11.0418 189.131 11.1468 189.202 11.2518C189.284 11.3567 189.355 11.4617 189.415 11.5668C189.474 11.6602 189.51 11.7596 189.522 11.8649C189.64 11.9696 189.734 12.0862 189.806 12.2146C189.877 12.3314 189.889 12.4895 189.844 12.689C189.727 12.7835 189.611 12.8722 189.494 12.955C189.389 13.026 189.272 13.0912 189.144 13.1507C188.71 13.0481 188.27 13.0158 187.825 13.0539C187.38 13.092 186.982 13.1239 186.63 13.1497C186.524 13.0449 186.395 12.9931 186.242 12.9941C186.102 12.995 185.95 13.0194 185.786 13.0674C185.634 13.1153 185.476 13.1632 185.312 13.2112C185.16 13.259 185.014 13.2717 184.873 13.2492C184.756 13.3437 184.61 13.4092 184.435 13.4455C184.271 13.47 184.089 13.4946 183.89 13.5194C183.879 13.5781 183.891 13.619 183.926 13.6422C183.961 13.6537 183.968 13.6888 183.945 13.7475C184.015 13.8291 184.104 13.8871 184.209 13.9216C184.327 13.956 184.444 13.9903 184.562 14.0247C184.691 14.059 184.802 14.1052 184.897 14.1631C184.991 14.2094 185.056 14.291 185.092 14.4079C185.267 14.4068 185.42 14.4468 185.549 14.528C185.679 14.6091 185.785 14.7081 185.868 14.8247C185.951 14.9413 186.01 15.0699 186.046 15.2103C186.094 15.3388 186.118 15.4559 186.119 15.5613C186.154 15.6549 186.196 15.6956 186.243 15.6836C186.289 15.6715 186.342 15.6946 186.401 15.7528C186.437 15.9049 186.526 16.0626 186.668 16.2257C186.81 16.3771 186.922 16.5463 187.005 16.7332C187.031 17.026 187.05 17.2896 187.063 17.5239C187.077 17.7465 187.037 17.9752 186.945 18.2102C186.772 18.645 186.528 19.0333 186.214 19.3752C185.912 19.7171 185.562 20.0241 185.166 20.2963C184.781 20.5566 184.366 20.782 183.922 20.9725C183.478 21.1629 183.045 21.324 182.624 21.4557C182.577 21.4442 182.531 21.4446 182.484 21.4566C182.437 21.4686 182.425 21.4394 182.448 21.3689C182.355 21.4516 182.25 21.505 182.133 21.5292C182.027 21.5534 181.91 21.56 181.781 21.5491C181.652 21.55 181.518 21.545 181.377 21.5342C181.248 21.5233 181.125 21.53 181.008 21.5542C180.925 21.4727 180.849 21.3912 180.778 21.3097C180.719 21.2397 180.671 21.1463 180.635 21.0293C180.577 21.0297 180.547 21.0006 180.547 20.942C180.558 20.8834 180.54 20.8542 180.493 20.8545C180.563 20.7368 180.592 20.6722 180.58 20.6606C180.58 20.6371 180.562 20.6197 180.527 20.6082C180.503 20.5966 180.48 20.585 180.456 20.5735C180.433 20.5502 180.427 20.5209 180.438 20.4857C180.484 20.3917 180.501 20.2861 180.489 20.169C180.476 20.0401 180.464 19.9113 180.451 19.7825C180.439 19.6537 180.444 19.5306 180.466 19.4132C180.501 19.2958 180.588 19.2015 180.728 19.1302C181.127 19.1745 181.502 19.1603 181.853 19.0877C182.216 19.0032 182.555 18.8897 182.87 18.7469C183.186 18.6042 183.483 18.4499 183.764 18.284C184.055 18.118 184.342 17.9696 184.622 17.8389C184.656 17.7332 184.703 17.645 184.761 17.5743C184.831 17.5035 184.901 17.4386 184.971 17.3795C185.04 17.3205 185.104 17.2556 185.163 17.1849C185.221 17.1142 185.261 17.026 185.284 16.9204C185.295 16.8383 185.271 16.7916 185.213 16.7802C185.166 16.7571 185.142 16.7104 185.141 16.6401L184.948 16.5886C184.724 16.4612 184.472 16.3574 184.19 16.2772C183.908 16.1853 183.667 16.0873 183.467 15.9832C183.339 16.0543 183.216 16.0727 183.098 16.0383C182.993 16.0039 182.852 15.9697 182.676 15.9357C182.277 15.9149 181.89 15.8764 181.515 15.8203C181.151 15.7641 180.799 15.661 180.458 15.5109C180.434 15.4524 180.405 15.3999 180.369 15.3532C180.334 15.3066 180.269 15.2953 180.176 15.3194C180.105 15.2261 180.034 15.1387 179.963 15.0571C179.892 14.9638 179.827 14.8646 179.768 14.7595C179.79 14.6188 179.807 14.5015 179.818 14.4076C179.829 14.3021 179.793 14.2027 179.711 14.1095C179.756 13.9569 179.791 13.8336 179.814 13.7397C179.836 13.6458 179.836 13.5227 179.811 13.3706Z" fill="#333333"/>
</svg>
