<svg width="247" height="44" viewBox="0 0 247 44" fill="none" xmlns="http://www.w3.org/2000/svg">
<path d="M83.0859 25.8066C82.7578 25.9121 82.4004 26.0176 82.0137 26.123C81.627 26.2285 81.2402 26.2812 80.8535 26.2812C80.2676 26.2812 79.8047 26.1348 79.4648 25.8418C79.4062 25.7129 79.3535 25.625 79.3066 25.5781C79.2715 25.5312 79.2363 25.4844 79.2012 25.4375C79.1777 25.3789 79.1602 25.3027 79.1484 25.209C79.0078 25.0449 78.8965 24.8574 78.8145 24.6465C78.7324 24.4238 78.6738 24.2012 78.6387 23.9785C78.6152 23.7441 78.6094 23.5098 78.6211 23.2754C78.6445 23.041 78.6855 22.8184 78.7441 22.6074C78.7676 22.5605 78.7793 22.5137 78.7793 22.4668C78.791 22.4199 78.8027 22.3672 78.8145 22.3086C78.8613 22.1211 78.9082 21.9395 78.9551 21.7637C79.0137 21.5879 79.0898 21.4355 79.1836 21.3066C79.1367 21.2012 79.1367 21.084 79.1836 20.9551C79.2305 20.8262 79.2832 20.709 79.3418 20.6035C79.5059 20.1582 79.6406 19.7832 79.7461 19.4785C79.8633 19.1621 79.9805 18.8516 80.0977 18.5469C80.2969 18.0195 80.4844 17.498 80.6602 16.9824C80.8359 16.4668 80.9941 15.9102 81.1348 15.3125C81.2285 15.2539 81.2988 15.2129 81.3457 15.1895C81.416 15.166 81.4746 15.1484 81.5215 15.1367C81.7324 15.2422 81.9785 15.3477 82.2598 15.4531C82.541 15.5469 82.7754 15.5938 82.9629 15.5938C83.0566 15.6523 83.1152 15.6992 83.1387 15.7344C83.1621 15.7578 83.1855 15.7812 83.209 15.8047C83.3379 15.957 83.4492 16.1152 83.543 16.2793C83.6367 16.4316 83.666 16.6367 83.6309 16.8945C83.5605 17 83.5078 17.0527 83.4727 17.0527C83.4141 17.2871 83.3496 17.4863 83.2793 17.6504C83.2207 17.8145 83.1562 17.9785 83.0859 18.1426C83.0039 18.3184 82.9277 18.4941 82.8574 18.6699C82.7871 18.8457 82.7285 19.0625 82.6816 19.3203C82.6348 19.3789 82.5996 19.4316 82.5762 19.4785C82.5645 19.5254 82.5469 19.5781 82.5234 19.6367C82.5 19.6953 82.4707 19.7598 82.4355 19.8301C82.4121 19.8887 82.3711 19.9414 82.3125 19.9883C82.2773 20.293 82.2188 20.5391 82.1367 20.7266C82.0664 20.9141 81.9902 21.1016 81.9082 21.2891C81.7676 21.6289 81.6387 21.9688 81.5215 22.3086C81.416 22.6484 81.3516 23.0352 81.3281 23.4688C81.3867 23.4453 81.4395 23.4336 81.4863 23.4336C81.5449 23.4336 81.5977 23.4336 81.6445 23.4336C81.75 23.4336 81.873 23.4512 82.0137 23.4863C82.3652 23.2988 82.7461 23.1875 83.1562 23.1523C83.5781 23.1172 83.9941 23.0938 84.4043 23.082C84.5684 23.082 84.7324 23.082 84.8965 23.082C85.0605 23.082 85.2129 23.0703 85.3535 23.0469C85.459 23.1055 85.5234 23.1406 85.5469 23.1523C85.582 23.1523 85.6289 23.1523 85.6875 23.1523C85.7695 23.1523 85.8398 23.1582 85.8984 23.1699C86.0391 23.2988 86.1738 23.3926 86.3027 23.4512C86.4316 23.5098 86.5664 23.5625 86.707 23.6094C86.8359 23.6562 86.959 23.709 87.0762 23.7676C87.2051 23.8145 87.3281 23.8848 87.4453 23.9785L87.5684 24.7344C87.6504 24.8398 87.6855 24.9102 87.6738 24.9453C87.6738 25.0391 87.6504 25.1094 87.6035 25.1562L87.6387 25.3496C87.4629 25.3848 87.3398 25.4258 87.2695 25.4727C87.2109 25.5195 87.1523 25.5723 87.0938 25.6309C87 25.6426 86.9297 25.6484 86.8828 25.6484C86.8477 25.6484 86.8125 25.6484 86.7773 25.6484C86.6133 25.6484 86.4141 25.6777 86.1797 25.7363C85.8633 25.6309 85.5352 25.5781 85.1953 25.5781C85.0664 25.5781 84.9316 25.584 84.791 25.5957C84.6504 25.6074 84.5098 25.6191 84.3691 25.6309C84.2285 25.6543 84.082 25.6719 83.9297 25.6836C83.7891 25.6953 83.6426 25.7012 83.4902 25.7012L83.0859 25.8066ZM97.8516 16.1035C97.8633 16.1855 97.8633 16.25 97.8516 16.2969C97.8516 16.332 97.8457 16.3672 97.834 16.4023C97.834 16.4375 97.834 16.4785 97.834 16.5254C97.834 16.5605 97.8457 16.6191 97.8691 16.7012C97.623 17.0996 97.3359 17.375 97.0078 17.5273C96.6914 17.668 96.3457 17.7734 95.9707 17.8438C95.5957 17.9023 95.209 17.9668 94.8105 18.0371C94.4238 18.1074 94.0371 18.2598 93.6504 18.4941C93.498 18.4355 93.3574 18.4355 93.2285 18.4941C93.1113 18.5527 92.9355 18.5703 92.7012 18.5469C92.6309 18.6172 92.543 18.6699 92.4375 18.7051C92.332 18.7285 92.2266 18.7578 92.1211 18.793C92.168 18.8984 92.1855 19.0098 92.1738 19.127C92.1738 19.2324 92.1914 19.3203 92.2266 19.3906C92.6367 19.4258 93.0879 19.4199 93.5801 19.373C94.084 19.3262 94.5762 19.2969 95.0566 19.2852C95.0684 19.3438 95.0625 19.3848 95.0391 19.4082C95.0156 19.4199 95.0098 19.4492 95.0215 19.4961C95.1035 19.5547 95.1855 19.6309 95.2676 19.7246C95.3496 19.8066 95.4316 19.8887 95.5137 19.9707C95.5957 20.0527 95.6777 20.123 95.7598 20.1816C95.8535 20.2285 95.959 20.2461 96.0762 20.2344C96.123 20.3281 96.1523 20.4336 96.1641 20.5508C96.1875 20.6562 96.1758 20.7676 96.1289 20.8848C95.9414 21.0137 95.7539 21.1484 95.5664 21.2891C95.3789 21.418 95.1797 21.5352 94.9688 21.6406C94.7695 21.7461 94.5527 21.834 94.3184 21.9043C94.0957 21.9629 93.8438 21.9863 93.5625 21.9746C93.5039 21.9746 93.457 21.9746 93.4219 21.9746C93.3984 21.9746 93.3633 21.957 93.3164 21.9219C93.2227 21.9805 93.0879 21.998 92.9121 21.9746C92.748 21.9512 92.6191 21.9688 92.5254 22.0273C92.3965 21.9688 92.2383 21.9453 92.0508 21.957C91.875 21.957 91.7168 21.9336 91.5762 21.8867C91.3887 22.1328 91.2188 22.3965 91.0664 22.6777C90.9141 22.959 90.7793 23.2578 90.6621 23.5742C91.0605 23.6328 91.3887 23.6562 91.6465 23.6445C91.916 23.6328 92.168 23.6152 92.4023 23.5918C92.6367 23.5566 92.877 23.5273 93.123 23.5039C93.3691 23.4688 93.6797 23.457 94.0547 23.4688C94.2891 23.3398 94.5645 23.2578 94.8809 23.2227C95.209 23.1758 95.5078 23.1055 95.7773 23.0117C95.8711 23.0469 95.9531 23.1113 96.0234 23.2051C96.0938 23.2871 96.1582 23.3691 96.2168 23.4512C96.2871 23.5215 96.3574 23.5859 96.4277 23.6445C96.498 23.7031 96.5859 23.7266 96.6914 23.7148C96.7383 23.7617 96.7676 23.8203 96.7793 23.8906C96.8027 23.9492 96.8203 24.0078 96.832 24.0664C96.8438 24.125 96.8613 24.1777 96.8848 24.2246C96.9199 24.2598 96.9727 24.2715 97.043 24.2598C96.8672 24.6465 96.6621 24.9453 96.4277 25.1562C96.2051 25.3555 95.9473 25.5078 95.6543 25.6133C95.3613 25.7188 95.0332 25.8008 94.6699 25.8594C94.3184 25.918 93.9258 25.9883 93.4922 26.0703C93.3867 26.0938 93.2988 26.0879 93.2285 26.0527C93.1582 26.0293 93.0762 26.0176 92.9824 26.0176C92.7129 26.0762 92.3906 26.1289 92.0156 26.1758C91.6406 26.2227 91.2598 26.2402 90.873 26.2285C90.4863 26.2168 90.1172 26.1641 89.7656 26.0703C89.4141 25.9883 89.127 25.8359 88.9043 25.6133C88.8105 25.5312 88.7461 25.4375 88.7109 25.332C88.6875 25.2148 88.6113 25.127 88.4824 25.0684C88.4707 24.916 88.4473 24.7461 88.4121 24.5586C88.377 24.3711 88.3418 24.1777 88.3066 23.9785C88.2715 23.7676 88.2422 23.5625 88.2188 23.3633C88.207 23.1641 88.2188 22.9824 88.2539 22.8184C88.2891 22.6426 88.3594 22.4844 88.4648 22.3438C88.582 22.2031 88.623 22.0508 88.5879 21.8867C88.6465 21.875 88.6816 21.8457 88.6934 21.7988C88.7051 21.7402 88.752 21.7168 88.834 21.7285C88.9043 21.5176 88.9805 21.3184 89.0625 21.1309C89.1445 20.9434 89.2266 20.7617 89.3086 20.5859C89.4023 20.4102 89.4902 20.2344 89.5723 20.0586C89.666 19.8711 89.7539 19.666 89.8359 19.4434C89.6719 19.291 89.5488 19.127 89.4668 18.9512C89.3965 18.7637 89.3438 18.582 89.3086 18.4062C89.2734 18.2188 89.2441 18.0312 89.2207 17.8438C89.1973 17.6445 89.1562 17.4453 89.0977 17.2461C89.2148 17.0703 89.3555 16.9297 89.5195 16.8242C89.6953 16.707 89.8828 16.6133 90.082 16.543C90.2812 16.4727 90.498 16.4141 90.7324 16.3672C90.9668 16.3203 91.2129 16.2676 91.4707 16.209C91.9395 16.0566 92.3555 15.9395 92.7188 15.8574C93.0938 15.7754 93.457 15.7109 93.8086 15.6641C94.1719 15.6055 94.5469 15.5527 94.9336 15.5059C95.3203 15.459 95.7598 15.3887 96.252 15.2949C96.3574 15.4004 96.457 15.4531 96.5508 15.4531C96.5977 15.3477 96.6504 15.3184 96.709 15.3652C96.7793 15.4004 96.8086 15.3652 96.7969 15.2598C96.9141 15.459 97.0605 15.6289 97.2363 15.7695C97.4238 15.8984 97.6289 16.0098 97.8516 16.1035ZM106.729 24.5234C106.658 24.7227 106.553 24.9277 106.412 25.1387C106.283 25.3379 106.125 25.5195 105.938 25.6836C105.762 25.8359 105.562 25.9648 105.34 26.0703C105.117 26.1758 104.883 26.2344 104.637 26.2461C104.484 26.2109 104.379 26.1699 104.32 26.123C104.273 26.0879 104.221 26.0527 104.162 26.0176C104.127 25.9941 104.092 25.9766 104.057 25.9648C104.033 25.9414 104.01 25.9238 103.986 25.9121L103.775 25.8242L103.846 25.5957C103.869 25.502 103.863 25.4316 103.828 25.3848C103.793 25.3262 103.723 25.25 103.617 25.1562C103.582 25.1211 103.547 25.0859 103.512 25.0508C103.477 25.0156 103.447 24.9805 103.424 24.9453L103.125 24.6113L103.6 24.4883C103.893 24.4062 104.086 24.3008 104.18 24.1719C104.285 24.043 104.326 23.8262 104.303 23.5215C104.068 23.4746 103.869 23.4688 103.705 23.5039C103.553 23.5391 103.395 23.5801 103.23 23.627C103.02 23.6855 102.803 23.7383 102.58 23.7852C102.369 23.8203 102.135 23.8379 101.877 23.8379C101.783 23.8379 101.695 23.8379 101.613 23.8379C101.531 23.8262 101.443 23.8145 101.35 23.8027L101.174 23.7676C101.15 23.6387 101.127 23.5684 101.104 23.5566C101.08 23.5332 101.057 23.5098 101.033 23.4863C100.975 23.4277 100.91 23.3516 100.84 23.2578C100.781 23.1523 100.77 23.0234 100.805 22.8711C100.746 22.7656 100.711 22.6602 100.699 22.5547C100.629 22.6953 100.576 22.8418 100.541 22.9941L100.471 23.1699L100.295 23.2051C100.271 23.2168 100.254 23.2461 100.242 23.293C100.23 23.3281 100.225 23.3574 100.225 23.3809L100.137 23.6797C100.113 23.7031 100.09 23.7266 100.066 23.75C100.043 23.7617 100.02 23.7793 99.9961 23.8027C99.9727 23.9082 99.9434 24.0137 99.9082 24.1191C99.873 24.2246 99.8379 24.3242 99.8027 24.418C99.7441 24.5703 99.6914 24.7227 99.6445 24.875C99.6094 25.0156 99.5977 25.1562 99.6094 25.2969L99.5391 25.4902C99.4805 25.5605 99.416 25.6191 99.3457 25.666C99.2754 25.7012 99.2051 25.7363 99.1348 25.7715C99.1113 25.7949 99.0762 25.8184 99.0293 25.8418C98.9941 25.8535 98.9648 25.8652 98.9414 25.877L98.8887 26.0703L98.6777 26.1055C98.5488 26.1289 98.4551 26.1465 98.3965 26.1582C98.3496 26.1699 98.291 26.1758 98.2207 26.1758L98.0449 26.1582C97.916 26.0527 97.8164 25.9707 97.7461 25.9121C97.6758 25.8418 97.5938 25.7773 97.5 25.7188C97.3945 25.5781 97.3359 25.4727 97.3242 25.4023C97.3125 25.332 97.3008 25.2676 97.2891 25.209C97.2656 25.1387 97.2539 25.0801 97.2539 25.0332C97.2422 24.9863 97.2246 24.9512 97.2012 24.9277L96.9727 24.7168L97.166 24.5586L97.1836 24.2598C97.418 23.6621 97.6641 23.0879 97.9219 22.5371C98.1914 21.9863 98.4668 21.4238 98.748 20.8496C98.8418 20.6621 98.9297 20.4746 99.0117 20.2871C99.1055 20.0996 99.1992 19.9121 99.293 19.7246C99.2812 19.6895 99.2754 19.6484 99.2754 19.6016C99.2754 19.5547 99.2871 19.502 99.3105 19.4434C99.4395 19.2441 99.5449 19.0684 99.627 18.916C99.709 18.752 99.791 18.5879 99.873 18.4238C99.9668 18.2246 100.061 18.0312 100.154 17.8438C100.26 17.6562 100.389 17.4629 100.541 17.2637L100.822 17.1406C100.857 17.1289 100.898 17.1172 100.945 17.1055C100.992 17.082 101.045 17.0703 101.104 17.0703L101.367 17.1055C101.695 16.9531 101.982 16.7422 102.229 16.4727C102.475 16.1914 102.727 15.8574 102.984 15.4707L103.16 15.2246L103.389 15.3652C103.447 15.4004 103.529 15.4355 103.635 15.4707C103.74 15.4941 103.852 15.5234 103.969 15.5586C104.18 15.6055 104.379 15.6582 104.566 15.7168C104.754 15.7754 104.906 15.8633 105.023 15.9805C105.094 16.168 105.135 16.3086 105.146 16.4023C105.158 16.4961 105.176 16.5898 105.199 16.6836C105.234 16.8828 105.264 17.082 105.287 17.2812C105.322 17.4805 105.346 17.7031 105.357 17.9492C105.416 18.1484 105.463 18.3477 105.498 18.5469C105.545 18.7344 105.586 18.9277 105.621 19.127C105.68 19.4082 105.738 19.6836 105.797 19.9531C105.855 20.2109 105.932 20.457 106.025 20.6914C106.119 20.6914 106.178 20.6973 106.201 20.709C106.26 20.6855 106.318 20.668 106.377 20.6562C106.447 20.6445 106.523 20.6328 106.605 20.6211L106.799 20.6035L106.869 20.7793C106.881 20.8379 106.939 20.8965 107.045 20.9551C107.197 20.9668 107.309 21.002 107.379 21.0605C107.449 21.1074 107.514 21.1602 107.572 21.2188C107.619 21.2656 107.666 21.3008 107.713 21.3242L107.977 21.4297L107.836 21.6934C107.719 21.9043 107.549 22.1094 107.326 22.3086C107.115 22.4961 106.875 22.6543 106.605 22.7832C106.617 22.8535 106.623 22.9238 106.623 22.9941C106.635 23.0527 106.652 23.1172 106.676 23.1875C106.711 23.3867 106.74 23.5918 106.764 23.8027C106.787 24.0137 106.787 24.2305 106.764 24.4531L106.729 24.5234ZM101.648 21.4824C102 21.459 102.316 21.4355 102.598 21.4121C102.891 21.377 103.213 21.3242 103.564 21.2539C103.482 20.9023 103.395 20.5391 103.301 20.1641C103.207 19.7773 103.107 19.3965 103.002 19.0215L102.896 19.1973C102.662 19.4434 102.434 19.7188 102.211 20.0234C102 20.3281 101.818 20.6152 101.666 20.8848C101.596 20.9902 101.525 21.0957 101.455 21.2012C101.385 21.3066 101.32 21.4121 101.262 21.5176C101.332 21.5059 101.396 21.5 101.455 21.5C101.525 21.5 101.59 21.4941 101.648 21.4824ZM110.719 24.1719C110.59 24.6406 110.473 24.998 110.367 25.2441C110.273 25.4785 110.127 25.7246 109.928 25.9824C109.775 25.959 109.67 25.9766 109.611 26.0352C109.553 26.0938 109.488 26.1465 109.418 26.1934C109.312 26.2168 109.236 26.2168 109.189 26.1934C109.143 26.1699 109.102 26.1406 109.066 26.1055C109.031 26.082 108.984 26.0527 108.926 26.0176C108.879 25.9941 108.803 25.9824 108.697 25.9824C108.674 25.8887 108.645 25.8008 108.609 25.7188C108.586 25.6367 108.51 25.6074 108.381 25.6309C108.404 25.5371 108.41 25.4609 108.398 25.4023C108.387 25.332 108.369 25.2734 108.346 25.2266C108.334 25.168 108.322 25.1152 108.311 25.0684C108.299 25.0098 108.305 24.9395 108.328 24.8574C108.27 24.8574 108.223 24.8164 108.188 24.7344C108.152 24.6523 108.111 24.5703 108.064 24.4883C108.1 24.2773 108.135 24.0781 108.17 23.8906C108.205 23.7031 108.246 23.5273 108.293 23.3633C108.352 23.1992 108.398 23.0352 108.434 22.8711C108.469 22.707 108.451 22.5371 108.381 22.3613C108.428 22.3965 108.463 22.3906 108.486 22.3438C108.51 22.2852 108.527 22.2148 108.539 22.1328C108.551 22.0391 108.557 21.9512 108.557 21.8691C108.557 21.7754 108.551 21.6992 108.539 21.6406C108.656 21.3359 108.75 21.0254 108.82 20.709C108.902 20.3809 108.973 20.0586 109.031 19.7422C109.102 19.4258 109.172 19.1152 109.242 18.8105C109.312 18.5059 109.406 18.2246 109.523 17.9668C109.652 17.9434 109.793 17.9609 109.945 18.0195C110.109 18.0664 110.209 18.1309 110.244 18.2129C110.549 17.9785 110.818 17.6973 111.053 17.3691C111.287 17.0293 111.527 16.7012 111.773 16.3848C112.02 16.0684 112.289 15.7871 112.582 15.541C112.887 15.2949 113.268 15.1484 113.725 15.1016C113.959 15.2773 114.217 15.459 114.498 15.6465C114.791 15.8223 115.031 16.0566 115.219 16.3496C115.312 16.3965 115.389 16.4492 115.447 16.5078C115.518 16.5547 115.6 16.6074 115.693 16.666V16.877C115.834 17.0059 115.945 17.1582 116.027 17.334C116.121 17.498 116.203 17.6797 116.273 17.8789C116.344 18.0664 116.414 18.2598 116.484 18.459C116.555 18.6465 116.637 18.8281 116.73 19.0039C116.707 19.0625 116.695 19.1152 116.695 19.1621C116.695 19.1973 116.701 19.2383 116.713 19.2852C116.736 19.332 116.754 19.3789 116.766 19.4258C116.777 19.4727 116.777 19.5371 116.766 19.6191C116.73 20.1348 116.561 20.5508 116.256 20.8672C115.963 21.1836 115.605 21.4473 115.184 21.6582C114.762 21.8574 114.311 22.0273 113.83 22.168C113.35 22.3086 112.916 22.4609 112.529 22.625C112.529 22.6719 112.547 22.6953 112.582 22.6953C112.629 22.6953 112.646 22.7246 112.635 22.7832C112.916 22.959 113.139 23.0996 113.303 23.2051C113.467 23.3105 113.619 23.3984 113.76 23.4688C113.912 23.5391 114.07 23.6035 114.234 23.6621C114.41 23.709 114.65 23.7676 114.955 23.8379C115.26 23.9082 115.494 23.9668 115.658 24.0137C115.834 24.0488 115.992 24.084 116.133 24.1191C116.273 24.1426 116.414 24.166 116.555 24.1895C116.707 24.2012 116.918 24.2188 117.188 24.2422C117.293 24.3477 117.381 24.4766 117.451 24.6289C117.533 24.7695 117.586 24.916 117.609 25.0684C117.633 25.209 117.639 25.3496 117.627 25.4902C117.615 25.6191 117.574 25.7246 117.504 25.8066C117.516 25.8418 117.539 25.8594 117.574 25.8594C117.621 25.8477 117.668 25.8477 117.715 25.8594C117.645 25.9062 117.586 25.9648 117.539 26.0352C117.492 26.1055 117.445 26.1758 117.398 26.2461C117.352 26.3164 117.299 26.375 117.24 26.4219C117.182 26.4805 117.1 26.5156 116.994 26.5273C116.631 26.668 116.174 26.6738 115.623 26.5449C115.072 26.4277 114.375 26.2051 113.531 25.877C113.109 25.7129 112.764 25.5723 112.494 25.4551C112.236 25.3262 112.008 25.2031 111.809 25.0859C111.621 24.957 111.445 24.8223 111.281 24.6816C111.129 24.541 110.941 24.3711 110.719 24.1719ZM113.232 18.1426C113.104 18.3301 112.957 18.5 112.793 18.6523C112.641 18.8047 112.488 18.9629 112.336 19.127C112.195 19.2793 112.066 19.4551 111.949 19.6543C111.832 19.8418 111.75 20.0645 111.703 20.3223C112.113 20.2754 112.541 20.1641 112.986 19.9883C113.432 19.8008 113.854 19.625 114.252 19.4609C114.205 19.0977 114.076 18.8047 113.865 18.582C113.666 18.3594 113.455 18.2129 113.232 18.1426ZM121.23 22.8008C121.125 22.8242 121.049 22.8887 121.002 22.9941C120.955 23.0879 120.908 23.1875 120.861 23.293C120.826 23.3984 120.785 23.498 120.738 23.5918C120.703 23.6738 120.645 23.7148 120.562 23.7148C120.551 23.8086 120.516 23.8906 120.457 23.9609C120.41 24.0312 120.363 24.1074 120.316 24.1895C120.27 24.2598 120.234 24.3418 120.211 24.4355C120.188 24.5176 120.199 24.6172 120.246 24.7344C120.152 24.8047 120.094 24.9043 120.07 25.0332C120.047 25.1621 120.018 25.2852 119.982 25.4023C119.959 25.5195 119.912 25.6191 119.842 25.7012C119.771 25.7832 119.643 25.8184 119.455 25.8066C119.42 25.8535 119.414 25.8828 119.438 25.8945C119.461 25.9062 119.479 25.9473 119.49 26.0176C119.361 25.9941 119.262 26 119.191 26.0352C119.133 26.082 119.057 26.1113 118.963 26.123C118.74 26.0527 118.553 25.9297 118.4 25.7539C118.26 25.5781 118.131 25.3848 118.014 25.1738C117.908 24.9512 117.809 24.7285 117.715 24.5059C117.633 24.2832 117.551 24.0898 117.469 23.9258C117.504 23.7969 117.51 23.6738 117.486 23.5566C117.463 23.4277 117.422 23.3223 117.363 23.2402C117.938 22.0215 118.564 20.7207 119.244 19.3379C119.924 17.9551 120.568 16.5898 121.178 15.2422C121.447 15.3477 121.711 15.4707 121.969 15.6113C122.238 15.7402 122.479 15.8926 122.689 16.0684C122.912 16.2441 123.1 16.4492 123.252 16.6836C123.404 16.9062 123.504 17.1582 123.551 17.4395C123.527 17.5098 123.498 17.5391 123.463 17.5273C123.439 17.5039 123.416 17.5098 123.393 17.5449C123.439 17.6035 123.463 17.6445 123.463 17.668C123.475 17.6914 123.475 17.7148 123.463 17.7383C123.463 17.7617 123.463 17.7969 123.463 17.8438C123.463 17.8789 123.48 17.9316 123.516 18.002C123.469 17.9902 123.434 17.9961 123.41 18.0195C123.398 18.043 123.363 18.043 123.305 18.0195C123.352 18.1484 123.363 18.2539 123.34 18.3359C123.328 18.418 123.305 18.4941 123.27 18.5645C123.234 18.623 123.205 18.6934 123.182 18.7754C123.158 18.8457 123.164 18.9395 123.199 19.0566C123.164 19.0566 123.135 19.0684 123.111 19.0918C123.1 19.1035 123.088 19.1211 123.076 19.1445C123.064 19.1562 123.047 19.1738 123.023 19.1973C123.012 19.209 122.988 19.209 122.953 19.1973C122.988 19.4551 123 19.7129 122.988 19.9707C122.977 20.2285 122.965 20.4922 122.953 20.7617C122.953 21.0195 122.959 21.2949 122.971 21.5879C122.982 21.8691 123.023 22.1621 123.094 22.4668C123.516 22.2207 123.85 21.9043 124.096 21.5176C124.354 21.1309 124.559 20.6973 124.711 20.2168C124.875 19.7363 124.998 19.2207 125.08 18.6699C125.162 18.1191 125.25 17.5566 125.344 16.9824C125.449 16.877 125.531 16.748 125.59 16.5957C125.648 16.4434 125.701 16.2852 125.748 16.1211C125.795 15.9453 125.842 15.7754 125.889 15.6113C125.936 15.4355 125.994 15.2773 126.064 15.1367C126.24 15.1602 126.387 15.2188 126.504 15.3125C126.633 15.3945 126.75 15.4883 126.855 15.5938C126.961 15.6875 127.072 15.7812 127.189 15.875C127.307 15.957 127.453 16.0098 127.629 16.0332C127.77 16.2324 127.898 16.4258 128.016 16.6133C128.133 16.8008 128.209 17 128.244 17.2109C128.186 17.3047 128.139 17.4102 128.104 17.5273C128.08 17.6445 128.051 17.7617 128.016 17.8789C127.98 17.9961 127.934 18.1074 127.875 18.2129C127.816 18.3066 127.734 18.3887 127.629 18.459C127.594 18.7637 127.547 19.0449 127.488 19.3027C127.441 19.5488 127.389 19.7949 127.33 20.041C127.283 20.2871 127.242 20.5449 127.207 20.8145C127.172 21.0723 127.16 21.3594 127.172 21.6758C127.078 21.9453 126.979 22.2324 126.873 22.5371C126.768 22.8418 126.686 23.1172 126.627 23.3633C126.439 23.5156 126.293 23.6973 126.188 23.9082C126.082 24.1191 125.971 24.3301 125.854 24.541C125.807 24.5879 125.777 24.5996 125.766 24.5762C125.754 24.5527 125.713 24.5352 125.643 24.5234C125.654 24.5703 125.654 24.6055 125.643 24.6289C125.631 24.6523 125.613 24.6758 125.59 24.6992C125.578 24.7109 125.566 24.7344 125.555 24.7695C125.555 24.8047 125.566 24.8516 125.59 24.9102C125.426 24.9805 125.279 25.0801 125.15 25.209C125.021 25.3379 124.881 25.4551 124.729 25.5605C124.588 25.666 124.412 25.7363 124.201 25.7715C124.002 25.8066 123.738 25.7656 123.41 25.6484C122.93 25.2969 122.502 24.8926 122.127 24.4355C121.764 23.9785 121.465 23.4336 121.23 22.8008ZM146.613 25.6836C146.496 25.7422 146.385 25.7949 146.279 25.8418C146.186 25.8887 146.074 25.9121 145.945 25.9121C145.488 25.5723 145.248 24.9805 145.225 24.1367C145.213 23.293 145.395 22.2207 145.77 20.9199C145.828 20.8848 145.857 20.8145 145.857 20.709L145.699 20.5332C145.652 20.5332 145.605 20.5391 145.559 20.5508C145.523 20.5625 145.494 20.6035 145.471 20.6738C145.166 20.8965 144.832 21.1309 144.469 21.377C144.105 21.6113 143.725 21.834 143.326 22.0449C142.939 22.2441 142.541 22.4082 142.131 22.5371C141.732 22.666 141.34 22.7305 140.953 22.7305C139.969 22.7305 139.23 22.2324 138.738 21.2363L138.598 20.9727L138.457 21.2012C138.422 21.248 138.369 21.3477 138.299 21.5C138.229 21.6406 138.158 21.8047 138.088 21.9922C138.018 22.1797 137.953 22.373 137.895 22.5723C137.848 22.7598 137.83 22.9238 137.842 23.0645C137.736 23.1699 137.625 23.293 137.508 23.4336C137.391 23.5742 137.303 23.7324 137.244 23.9082C137.221 24.002 137.232 24.0898 137.279 24.1719C137.256 24.2773 137.203 24.3594 137.121 24.418C137.074 24.4766 137.021 24.5352 136.963 24.5938C136.916 24.6406 136.875 24.6934 136.84 24.752C136.816 24.8105 136.799 24.8691 136.787 24.9277C136.787 24.9863 136.781 25.0449 136.77 25.1035C136.77 25.1855 136.758 25.2617 136.734 25.332C136.535 25.7422 136.377 26.0059 136.26 26.123C136.143 26.252 135.984 26.3164 135.785 26.3164C135.691 26.3164 135.539 26.2988 135.328 26.2637C135.176 26.0996 135.035 25.877 134.906 25.5957C134.789 25.3027 134.695 24.9922 134.625 24.6641C134.566 24.3359 134.537 24.0078 134.537 23.6797C134.549 23.3398 134.607 23.0469 134.713 22.8008C134.713 22.7891 134.76 22.6719 134.854 22.4492C134.947 22.2266 135.064 21.9395 135.205 21.5879C135.357 21.2363 135.527 20.8496 135.715 20.4277C135.902 19.9941 136.09 19.5781 136.277 19.1797C136.465 18.7695 136.641 18.3945 136.805 18.0547C136.98 17.7148 137.127 17.457 137.244 17.2812C137.338 17.1406 137.42 17.0117 137.49 16.8945C137.572 16.7656 137.648 16.6426 137.719 16.5254C137.93 16.1621 138.129 15.8633 138.316 15.6289C138.516 15.3828 138.803 15.1895 139.178 15.0488C139.436 15.1543 139.623 15.2773 139.74 15.418L139.775 15.6113C139.822 15.7285 139.893 15.7871 139.986 15.7871C140.115 15.8223 140.221 15.8574 140.303 15.8926C140.396 15.916 140.496 15.9395 140.602 15.9629C140.684 16.0566 140.76 16.168 140.83 16.2969C140.924 16.4375 141.012 16.5781 141.094 16.7188C141.188 16.8477 141.258 16.9824 141.305 17.123C141.363 17.252 141.393 17.3867 141.393 17.5273C141.404 17.668 141.381 17.8145 141.322 17.9668L141.34 18.1426C141.398 18.248 141.41 18.3945 141.375 18.582C141.363 18.6641 141.357 18.752 141.357 18.8457C141.357 18.9277 141.369 19.0215 141.393 19.127C141.604 19.291 141.791 19.373 141.955 19.373C142.143 19.373 142.312 19.332 142.465 19.25C142.629 19.1562 142.781 19.0625 142.922 18.9688C143.016 18.8984 143.109 18.8398 143.203 18.793C143.297 18.7344 143.391 18.6992 143.484 18.6875C143.695 18.4883 143.883 18.3125 144.047 18.1602C144.223 18.0078 144.404 17.8555 144.592 17.7031C144.943 17.4219 145.283 17.1172 145.611 16.7891C145.939 16.4609 146.203 16.0508 146.402 15.5586C146.52 15.4883 146.643 15.4531 146.771 15.4531C146.9 15.4531 147.035 15.4824 147.176 15.541C147.316 15.5996 147.451 15.6582 147.58 15.7168C147.615 15.7402 147.645 15.7578 147.668 15.7695C147.703 15.7812 147.732 15.793 147.756 15.8047C147.756 15.9219 147.803 16.0215 147.896 16.1035C147.943 16.1387 147.973 16.1621 147.984 16.1738C147.996 16.1855 148.014 16.1973 148.037 16.209C148.213 16.3027 148.324 16.3965 148.371 16.4902C148.453 16.7598 148.6 16.9648 148.811 17.1055C148.787 17.2227 148.787 17.334 148.811 17.4395C148.846 17.5332 148.887 17.6328 148.934 17.7383C148.945 17.7734 148.957 17.8086 148.969 17.8438C148.98 17.8789 148.998 17.9199 149.021 17.9668L148.688 17.9316L148.74 18.2656C148.764 18.4297 148.746 18.6113 148.688 18.8105C148.641 19.0098 148.582 19.168 148.512 19.2852C148.523 19.5898 148.529 19.8301 148.529 20.0059C148.541 20.1699 148.535 20.3281 148.512 20.4805C148.488 20.6211 148.453 20.7559 148.406 20.8848C148.371 21.0137 148.318 21.1543 148.248 21.3066C148.295 22.0566 148.207 22.7422 147.984 23.3633C147.773 23.9727 147.551 24.5469 147.316 25.0859C147.293 25.1445 147.264 25.2031 147.229 25.2617C147.205 25.3203 147.182 25.3789 147.158 25.4375C147.053 25.4727 146.959 25.5137 146.877 25.5605C146.795 25.5957 146.707 25.6367 146.613 25.6836ZM159.357 20.7266C159.346 20.8672 159.357 21.002 159.393 21.1309C159.428 21.2598 159.469 21.3887 159.516 21.5176C159.574 21.6348 159.627 21.7578 159.674 21.8867C159.721 22.0156 159.756 22.1445 159.779 22.2734C159.803 22.4375 159.803 22.6191 159.779 22.8184C159.756 23.0059 159.715 23.1934 159.656 23.3809C159.598 23.5566 159.521 23.7207 159.428 23.873C159.334 24.0137 159.223 24.1191 159.094 24.1895C158.93 24.4004 158.73 24.5645 158.496 24.6816C158.262 24.7988 158.045 24.9395 157.846 25.1035C157.717 25.1855 157.57 25.2441 157.406 25.2793C157.254 25.3145 157.096 25.3496 156.932 25.3848C156.803 25.4551 156.65 25.5312 156.475 25.6133C156.299 25.6836 156.117 25.7539 155.93 25.8242C155.742 25.8828 155.555 25.9297 155.367 25.9648C155.18 25.9883 155.016 25.9941 154.875 25.9824C154.523 26.1113 154.178 26.1934 153.838 26.2285C153.51 26.2754 153.123 26.252 152.678 26.1582C152.256 26.2168 151.863 26.1992 151.5 26.1055C151.148 26.0117 150.832 25.8652 150.551 25.666C150.281 25.4551 150.041 25.209 149.83 24.9277C149.631 24.6348 149.467 24.3301 149.338 24.0137C149.244 23.3457 149.268 22.7422 149.408 22.2031C149.549 21.6523 149.748 21.1484 150.006 20.6914C150.275 20.2227 150.58 19.7949 150.92 19.4082C151.26 19.0098 151.588 18.623 151.904 18.248C151.975 18.2715 152.027 18.2715 152.062 18.248C152.109 18.2129 152.15 18.1719 152.186 18.125C152.221 18.0664 152.256 18.0137 152.291 17.9668C152.338 17.9199 152.391 17.8906 152.449 17.8789C152.531 17.7031 152.648 17.5742 152.801 17.4922C152.965 17.3984 153.094 17.2695 153.188 17.1055C153.293 17.082 153.381 17.0469 153.451 17C153.521 16.9531 153.586 16.9004 153.645 16.8418C153.715 16.7832 153.785 16.7305 153.855 16.6836C153.926 16.625 154.008 16.584 154.102 16.5605V16.3672C154.312 16.2734 154.465 16.168 154.559 16.0508C154.664 15.9219 154.787 15.7695 154.928 15.5938C155.033 15.582 155.115 15.5762 155.174 15.5762C155.244 15.5762 155.344 15.5645 155.473 15.541C155.566 15.377 155.648 15.2539 155.719 15.1719C155.801 15.0898 155.918 15.002 156.07 14.9082C156.211 14.9785 156.363 15.0254 156.527 15.0488C156.703 15.0723 156.855 15.1484 156.984 15.2773C156.996 15.3945 157.031 15.4883 157.09 15.5586C157.148 15.6172 157.213 15.6758 157.283 15.7344C157.354 15.7812 157.418 15.834 157.477 15.8926C157.547 15.9512 157.594 16.0332 157.617 16.1387C157.664 16.1504 157.693 16.1445 157.705 16.1211C157.729 16.0977 157.764 16.0918 157.811 16.1035C157.846 16.2676 157.887 16.3789 157.934 16.4375C157.98 16.4844 158.027 16.584 158.074 16.7363C158.016 16.8535 157.969 16.9766 157.934 17.1055C157.91 17.2227 157.84 17.3105 157.723 17.3691C157.711 17.4512 157.734 17.498 157.793 17.5098C157.852 17.5098 157.887 17.5391 157.898 17.5977C157.91 17.7031 157.893 17.7793 157.846 17.8262C158.127 18.2832 158.379 18.7695 158.602 19.2852C158.824 19.7891 159.076 20.2695 159.357 20.7266ZM157.16 22.3965C157.207 22.2676 157.266 22.1621 157.336 22.0801C157.418 21.998 157.465 21.875 157.477 21.7109C157.418 21.6172 157.383 21.5469 157.371 21.5C157.359 21.4414 157.354 21.3535 157.354 21.2363C157.096 20.873 156.873 20.4863 156.686 20.0762C156.498 19.6543 156.287 19.2617 156.053 18.8984C156.029 18.9453 155.988 18.9922 155.93 19.0391C155.871 19.0859 155.807 19.0742 155.736 19.0039C155.713 19.0977 155.672 19.168 155.613 19.2148C155.555 19.25 155.49 19.2676 155.42 19.2676C155.35 19.2559 155.273 19.2383 155.191 19.2148C155.121 19.1797 155.057 19.1387 154.998 19.0918C154.658 19.3613 154.318 19.625 153.979 19.8828C153.639 20.1406 153.334 20.4395 153.064 20.7793C153.018 20.8027 152.988 20.8145 152.977 20.8145C152.965 20.8027 152.93 20.8086 152.871 20.832C152.777 21.0547 152.66 21.2598 152.52 21.4473C152.391 21.623 152.262 21.8047 152.133 21.9922C152.004 22.1797 151.893 22.3789 151.799 22.5898C151.705 22.8008 151.652 23.0469 151.641 23.3281C151.84 23.4922 152.074 23.5918 152.344 23.627C152.613 23.6621 152.889 23.668 153.17 23.6445C153.463 23.6211 153.744 23.5859 154.014 23.5391C154.295 23.4805 154.553 23.4512 154.787 23.4512C155.279 23.334 155.701 23.1816 156.053 22.9941C156.404 22.7949 156.773 22.5957 157.16 22.3965ZM163.26 24.1719C163.131 24.6406 163.014 24.998 162.908 25.2441C162.814 25.4785 162.668 25.7246 162.469 25.9824C162.316 25.959 162.211 25.9766 162.152 26.0352C162.094 26.0938 162.029 26.1465 161.959 26.1934C161.854 26.2168 161.777 26.2168 161.73 26.1934C161.684 26.1699 161.643 26.1406 161.607 26.1055C161.572 26.082 161.525 26.0527 161.467 26.0176C161.42 25.9941 161.344 25.9824 161.238 25.9824C161.215 25.8887 161.186 25.8008 161.15 25.7188C161.127 25.6367 161.051 25.6074 160.922 25.6309C160.945 25.5371 160.951 25.4609 160.939 25.4023C160.928 25.332 160.91 25.2734 160.887 25.2266C160.875 25.168 160.863 25.1152 160.852 25.0684C160.84 25.0098 160.846 24.9395 160.869 24.8574C160.811 24.8574 160.764 24.8164 160.729 24.7344C160.693 24.6523 160.652 24.5703 160.605 24.4883C160.641 24.2773 160.676 24.0781 160.711 23.8906C160.746 23.7031 160.787 23.5273 160.834 23.3633C160.893 23.1992 160.939 23.0352 160.975 22.8711C161.01 22.707 160.992 22.5371 160.922 22.3613C160.969 22.3965 161.004 22.3906 161.027 22.3438C161.051 22.2852 161.068 22.2148 161.08 22.1328C161.092 22.0391 161.098 21.9512 161.098 21.8691C161.098 21.7754 161.092 21.6992 161.08 21.6406C161.197 21.3359 161.291 21.0254 161.361 20.709C161.443 20.3809 161.514 20.0586 161.572 19.7422C161.643 19.4258 161.713 19.1152 161.783 18.8105C161.854 18.5059 161.947 18.2246 162.064 17.9668C162.193 17.9434 162.334 17.9609 162.486 18.0195C162.65 18.0664 162.75 18.1309 162.785 18.2129C163.09 17.9785 163.359 17.6973 163.594 17.3691C163.828 17.0293 164.068 16.7012 164.314 16.3848C164.561 16.0684 164.83 15.7871 165.123 15.541C165.428 15.2949 165.809 15.1484 166.266 15.1016C166.5 15.2773 166.758 15.459 167.039 15.6465C167.332 15.8223 167.572 16.0566 167.76 16.3496C167.854 16.3965 167.93 16.4492 167.988 16.5078C168.059 16.5547 168.141 16.6074 168.234 16.666V16.877C168.375 17.0059 168.486 17.1582 168.568 17.334C168.662 17.498 168.744 17.6797 168.814 17.8789C168.885 18.0664 168.955 18.2598 169.025 18.459C169.096 18.6465 169.178 18.8281 169.271 19.0039C169.248 19.0625 169.236 19.1152 169.236 19.1621C169.236 19.1973 169.242 19.2383 169.254 19.2852C169.277 19.332 169.295 19.3789 169.307 19.4258C169.318 19.4727 169.318 19.5371 169.307 19.6191C169.271 20.1348 169.102 20.5508 168.797 20.8672C168.504 21.1836 168.146 21.4473 167.725 21.6582C167.303 21.8574 166.852 22.0273 166.371 22.168C165.891 22.3086 165.457 22.4609 165.07 22.625C165.07 22.6719 165.088 22.6953 165.123 22.6953C165.17 22.6953 165.188 22.7246 165.176 22.7832C165.457 22.959 165.68 23.0996 165.844 23.2051C166.008 23.3105 166.16 23.3984 166.301 23.4688C166.453 23.5391 166.611 23.6035 166.775 23.6621C166.951 23.709 167.191 23.7676 167.496 23.8379C167.801 23.9082 168.035 23.9668 168.199 24.0137C168.375 24.0488 168.533 24.084 168.674 24.1191C168.814 24.1426 168.955 24.166 169.096 24.1895C169.248 24.2012 169.459 24.2188 169.729 24.2422C169.834 24.3477 169.922 24.4766 169.992 24.6289C170.074 24.7695 170.127 24.916 170.15 25.0684C170.174 25.209 170.18 25.3496 170.168 25.4902C170.156 25.6191 170.115 25.7246 170.045 25.8066C170.057 25.8418 170.08 25.8594 170.115 25.8594C170.162 25.8477 170.209 25.8477 170.256 25.8594C170.186 25.9062 170.127 25.9648 170.08 26.0352C170.033 26.1055 169.986 26.1758 169.939 26.2461C169.893 26.3164 169.84 26.375 169.781 26.4219C169.723 26.4805 169.641 26.5156 169.535 26.5273C169.172 26.668 168.715 26.6738 168.164 26.5449C167.613 26.4277 166.916 26.2051 166.072 25.877C165.65 25.7129 165.305 25.5723 165.035 25.4551C164.777 25.3262 164.549 25.2031 164.35 25.0859C164.162 24.957 163.986 24.8223 163.822 24.6816C163.67 24.541 163.482 24.3711 163.26 24.1719ZM165.773 18.1426C165.645 18.3301 165.498 18.5 165.334 18.6523C165.182 18.8047 165.029 18.9629 164.877 19.127C164.736 19.2793 164.607 19.4551 164.49 19.6543C164.373 19.8418 164.291 20.0645 164.244 20.3223C164.654 20.2754 165.082 20.1641 165.527 19.9883C165.973 19.8008 166.395 19.625 166.793 19.4609C166.746 19.0977 166.617 18.8047 166.406 18.582C166.207 18.3594 165.996 18.2129 165.773 18.1426ZM179.977 16.1035C179.988 16.1855 179.988 16.25 179.977 16.2969C179.977 16.332 179.971 16.3672 179.959 16.4023C179.959 16.4375 179.959 16.4785 179.959 16.5254C179.959 16.5605 179.971 16.6191 179.994 16.7012C179.748 17.0996 179.461 17.375 179.133 17.5273C178.816 17.668 178.471 17.7734 178.096 17.8438C177.721 17.9023 177.334 17.9668 176.936 18.0371C176.549 18.1074 176.162 18.2598 175.775 18.4941C175.623 18.4355 175.482 18.4355 175.354 18.4941C175.236 18.5527 175.061 18.5703 174.826 18.5469C174.756 18.6172 174.668 18.6699 174.562 18.7051C174.457 18.7285 174.352 18.7578 174.246 18.793C174.293 18.8984 174.311 19.0098 174.299 19.127C174.299 19.2324 174.316 19.3203 174.352 19.3906C174.762 19.4258 175.213 19.4199 175.705 19.373C176.209 19.3262 176.701 19.2969 177.182 19.2852C177.193 19.3438 177.188 19.3848 177.164 19.4082C177.141 19.4199 177.135 19.4492 177.146 19.4961C177.229 19.5547 177.311 19.6309 177.393 19.7246C177.475 19.8066 177.557 19.8887 177.639 19.9707C177.721 20.0527 177.803 20.123 177.885 20.1816C177.979 20.2285 178.084 20.2461 178.201 20.2344C178.248 20.3281 178.277 20.4336 178.289 20.5508C178.312 20.6562 178.301 20.7676 178.254 20.8848C178.066 21.0137 177.879 21.1484 177.691 21.2891C177.504 21.418 177.305 21.5352 177.094 21.6406C176.895 21.7461 176.678 21.834 176.443 21.9043C176.221 21.9629 175.969 21.9863 175.688 21.9746C175.629 21.9746 175.582 21.9746 175.547 21.9746C175.523 21.9746 175.488 21.957 175.441 21.9219C175.348 21.9805 175.213 21.998 175.037 21.9746C174.873 21.9512 174.744 21.9688 174.65 22.0273C174.521 21.9688 174.363 21.9453 174.176 21.957C174 21.957 173.842 21.9336 173.701 21.8867C173.514 22.1328 173.344 22.3965 173.191 22.6777C173.039 22.959 172.904 23.2578 172.787 23.5742C173.186 23.6328 173.514 23.6562 173.771 23.6445C174.041 23.6328 174.293 23.6152 174.527 23.5918C174.762 23.5566 175.002 23.5273 175.248 23.5039C175.494 23.4688 175.805 23.457 176.18 23.4688C176.414 23.3398 176.689 23.2578 177.006 23.2227C177.334 23.1758 177.633 23.1055 177.902 23.0117C177.996 23.0469 178.078 23.1113 178.148 23.2051C178.219 23.2871 178.283 23.3691 178.342 23.4512C178.412 23.5215 178.482 23.5859 178.553 23.6445C178.623 23.7031 178.711 23.7266 178.816 23.7148C178.863 23.7617 178.893 23.8203 178.904 23.8906C178.928 23.9492 178.945 24.0078 178.957 24.0664C178.969 24.125 178.986 24.1777 179.01 24.2246C179.045 24.2598 179.098 24.2715 179.168 24.2598C178.992 24.6465 178.787 24.9453 178.553 25.1562C178.33 25.3555 178.072 25.5078 177.779 25.6133C177.486 25.7188 177.158 25.8008 176.795 25.8594C176.443 25.918 176.051 25.9883 175.617 26.0703C175.512 26.0938 175.424 26.0879 175.354 26.0527C175.283 26.0293 175.201 26.0176 175.107 26.0176C174.838 26.0762 174.516 26.1289 174.141 26.1758C173.766 26.2227 173.385 26.2402 172.998 26.2285C172.611 26.2168 172.242 26.1641 171.891 26.0703C171.539 25.9883 171.252 25.8359 171.029 25.6133C170.936 25.5312 170.871 25.4375 170.836 25.332C170.812 25.2148 170.736 25.127 170.607 25.0684C170.596 24.916 170.572 24.7461 170.537 24.5586C170.502 24.3711 170.467 24.1777 170.432 23.9785C170.396 23.7676 170.367 23.5625 170.344 23.3633C170.332 23.1641 170.344 22.9824 170.379 22.8184C170.414 22.6426 170.484 22.4844 170.59 22.3438C170.707 22.2031 170.748 22.0508 170.713 21.8867C170.771 21.875 170.807 21.8457 170.818 21.7988C170.83 21.7402 170.877 21.7168 170.959 21.7285C171.029 21.5176 171.105 21.3184 171.188 21.1309C171.27 20.9434 171.352 20.7617 171.434 20.5859C171.527 20.4102 171.615 20.2344 171.697 20.0586C171.791 19.8711 171.879 19.666 171.961 19.4434C171.797 19.291 171.674 19.127 171.592 18.9512C171.521 18.7637 171.469 18.582 171.434 18.4062C171.398 18.2188 171.369 18.0312 171.346 17.8438C171.322 17.6445 171.281 17.4453 171.223 17.2461C171.34 17.0703 171.48 16.9297 171.645 16.8242C171.82 16.707 172.008 16.6133 172.207 16.543C172.406 16.4727 172.623 16.4141 172.857 16.3672C173.092 16.3203 173.338 16.2676 173.596 16.209C174.064 16.0566 174.48 15.9395 174.844 15.8574C175.219 15.7754 175.582 15.7109 175.934 15.6641C176.297 15.6055 176.672 15.5527 177.059 15.5059C177.445 15.459 177.885 15.3887 178.377 15.2949C178.482 15.4004 178.582 15.4531 178.676 15.4531C178.723 15.3477 178.775 15.3184 178.834 15.3652C178.904 15.4004 178.934 15.3652 178.922 15.2598C179.039 15.459 179.186 15.6289 179.361 15.7695C179.549 15.8984 179.754 16.0098 179.977 16.1035Z" fill="white"/>
<path d="M18.0563 43.5667L0.650208 28.3891L22.4975 20.9037L18.0563 43.5667ZM9.66731 0.254193C10.0335 5.3167 11.3702 15.3942 14.157 26.0321L10.2875 27.0457C7.43444 16.1545 6.06036 5.83322 5.67773 0.54274L9.66731 0.254193Z" fill="white"/>
<path d="M228.944 43.5667L246.35 28.3891L224.503 20.9037L228.944 43.5667ZM237.333 0.254193C236.967 5.3167 235.63 15.3942 232.843 26.0321L236.712 27.0457C239.566 16.1545 240.94 5.83322 241.322 0.54274L237.333 0.254193Z" fill="white"/>
</svg>
