<svg width="48" height="48" viewBox="0 0 48 48" fill="none" xmlns="http://www.w3.org/2000/svg">
<path d="M18.7177 17.3594L7.22363 24.0004V34.3736C7.22363 36.0156 8.09938 37.533 9.52117 38.3545L18.7177 43.668V30.6414V17.3594Z" fill="#ABE9FE"/>
<path fill-rule="evenodd" clip-rule="evenodd" d="M20.4423 14.373V46.6564L8.65912 39.8484C6.70415 38.7188 5.5 36.6324 5.5 34.3746V23.0064L20.4423 14.373ZM8.94822 24.9965V34.3746C8.94822 35.4009 9.49557 36.3492 10.3842 36.8627L16.9941 40.6817V20.3478L8.94822 24.9965Z" fill="black"/>
<path d="M39.4084 38.3541C40.8302 37.5326 41.7059 36.0152 41.7059 34.3732V24L30.2119 30.641L25.6149 33.2971C24.9033 33.7082 24.0263 33.7082 23.3148 33.2971L18.7178 30.641V43.6676L22.1647 45.6592C23.5879 46.4815 25.3417 46.4815 26.7649 45.6592L35.7379 40.4748L39.4084 38.3541Z" fill="#FBA99D"/>
<path fill-rule="evenodd" clip-rule="evenodd" d="M43.4305 21.0117V34.3722C43.4305 36.6301 42.2264 38.7165 40.2714 39.846L27.6279 47.1511C25.6711 48.2818 23.2595 48.2818 21.3027 47.1511L16.9941 44.6618V27.6527L24.1778 31.8033C24.3557 31.9061 24.5749 31.9061 24.7528 31.8033L43.4305 21.0117ZM39.9823 26.9864L26.4779 34.789C25.2326 35.5085 23.698 35.5085 22.4527 34.789L20.4424 33.6275V42.6717L23.0277 44.1654C23.9172 44.6794 25.0134 44.6794 25.9028 44.1654L38.5463 36.8603C39.435 36.3469 39.9823 35.3985 39.9823 34.3722V26.9864Z" fill="black"/>
<path d="M41.706 23.9997V13.6265C41.706 11.9845 40.8302 10.4671 39.4085 9.64559L30.2119 4.33203V17.3587V30.6407L41.706 23.9997Z" fill="#FEF284"/>
<path fill-rule="evenodd" clip-rule="evenodd" d="M28.4883 1.34375L40.2715 8.15181C42.2264 9.28135 43.4306 11.3678 43.4306 13.6256V24.9938L28.4883 33.6271V1.34375ZM31.9365 7.31846V27.6524L39.9824 23.0037V13.6256C39.9824 12.5993 39.435 11.6509 38.5464 11.1375L31.9365 7.31846Z" fill="black"/>
<path d="M9.52117 9.64644C8.09938 10.4679 7.22363 11.9853 7.22363 13.6274V24.0005L18.7177 17.3595L23.3147 14.7035C24.0263 14.2923 24.9032 14.2923 25.6148 14.7035L30.2118 17.3595V4.33288L26.7648 2.34131C25.3417 1.51904 23.5878 1.51904 22.1647 2.34131L13.1917 7.52568L9.52117 9.64644Z" fill="#C3E29E"/>
<path fill-rule="evenodd" clip-rule="evenodd" d="M25.9028 3.83366C25.0133 3.31974 23.9172 3.31974 23.0277 3.83366L10.3842 11.1388C9.49556 11.6522 8.94822 12.6006 8.94822 13.6269V21.0127L22.4526 13.2101C23.6979 12.4906 25.2325 12.4906 26.4778 13.2101L28.4882 14.3717V5.32743L25.9028 3.83366ZM21.3026 0.847966C23.2595 -0.282657 25.671 -0.282654 27.6279 0.847967L31.9364 3.33734V20.3464L24.7527 16.1958C24.5748 16.093 24.3556 16.093 24.1777 16.1958L5.5 26.9874V13.6269C5.5 11.369 6.70415 9.28263 8.65912 8.15309L21.3026 0.847966Z" fill="black"/>
</svg>
