<svg width="120" height="120" viewBox="0 0 120 120" fill="none" xmlns="http://www.w3.org/2000/svg">
<rect width="120" height="120" fill="white"/>
<path d="M45.5403 43.2148L16.6172 60.0016V86.2222C16.6172 90.3729 18.8209 94.2085 22.3986 96.285L45.5403 109.716V43.2148Z" fill="#ABE9FE" stroke="black" stroke-width="7.38462"/>
<path d="M97.6038 96.2834C101.182 94.2069 103.385 90.3713 103.385 86.2206V60L62.8945 83.5005C61.1039 84.5398 58.8973 84.5398 57.1067 83.5005L45.5391 76.7868V109.715L54.2128 114.749C57.7939 116.827 62.2073 116.827 65.7884 114.749L97.6038 96.2834Z" fill="#FBA99D" stroke="black" stroke-width="7.38462"/>
<path d="M103.384 59.9998V33.7792C103.384 29.6285 101.18 25.7929 97.6026 23.7164L74.4609 10.2852V76.7865L103.384 59.9998Z" fill="#FEF284" stroke="black" stroke-width="7.38462"/>
<path d="M22.3986 23.7157C18.8209 25.7922 16.6172 29.6278 16.6172 33.7784V59.9991L57.1079 36.4985C58.8985 35.4593 61.1051 35.4593 62.8957 36.4985L74.4633 43.2123V10.2844L65.7896 5.25027C62.2085 3.17179 57.7951 3.17178 54.214 5.25027L22.3986 23.7157Z" fill="#C3E29E" stroke="black" stroke-width="7.38462"/>
</svg>
