<svg width="264" height="40" viewBox="0 0 264 40" fill="none" xmlns="http://www.w3.org/2000/svg">
<path d="M72.5881 29.3089C72.4324 29.3881 72.2844 29.4594 72.1442 29.5228C72.0197 29.5861 71.8714 29.6184 71.6996 29.6195C71.0872 29.1704 70.7617 28.3835 70.723 27.2587C70.6999 26.1339 70.9327 24.7026 71.4212 22.965C71.499 22.9176 71.5374 22.8236 71.5365 22.6829L71.324 22.45C71.2615 22.4504 71.1991 22.4586 71.1367 22.4746C71.0899 22.4906 71.0512 22.5455 71.0206 22.6395C70.6163 22.939 70.1731 23.2545 69.6909 23.5858C69.2086 23.9015 68.7027 24.2017 68.1734 24.4865C67.6595 24.7555 67.1297 24.9777 66.584 25.1532C66.0539 25.3286 65.531 25.418 65.0154 25.4214C63.7029 25.4301 62.7142 24.7725 62.0492 23.4488L61.8594 23.0985L61.6739 23.4044C61.6274 23.4672 61.558 23.6005 61.4656 23.8042C61.3731 23.9923 61.2808 24.2117 61.1887 24.4623C61.0966 24.7129 61.0124 24.9713 60.936 25.2374C60.8751 25.4878 60.8531 25.7067 60.87 25.8941C60.7303 26.0357 60.583 26.2007 60.428 26.3892C60.273 26.5778 60.1572 26.7895 60.0806 27.0244C60.0502 27.1496 60.0666 27.2667 60.1298 27.3756C60.0995 27.5164 60.0299 27.6263 59.921 27.7051C59.859 27.7837 59.7892 27.8622 59.7116 27.9409C59.6495 28.0038 59.5953 28.0745 59.549 28.1529C59.5182 28.2312 59.4953 28.3095 59.4802 28.3877C59.4807 28.4659 59.4734 28.544 59.4583 28.6223C59.459 28.7316 59.4441 28.8333 59.4135 28.9273C59.1515 29.4759 58.9428 29.8288 58.7876 29.9861C58.6325 30.159 58.4222 30.2463 58.1565 30.2481C58.0315 30.2489 57.8283 30.2268 57.5467 30.1818C57.3421 29.9644 57.1527 29.6688 56.9783 29.2949C56.8195 28.9053 56.6918 28.4921 56.5951 28.0552C56.5141 27.6183 56.4722 27.181 56.4693 26.7435C56.4819 26.2903 56.5574 25.8992 56.6959 25.5701C56.6958 25.5545 56.7573 25.3979 56.8803 25.1002C57.0033 24.8025 57.1571 24.4186 57.3414 23.9486C57.5415 23.4786 57.7646 22.9615 58.0109 22.3973C58.2571 21.8176 58.5034 21.2612 58.7499 20.7283C58.9963 20.1798 59.2273 19.6783 59.4431 19.2237C59.6745 18.7691 59.8675 18.424 60.0222 18.1886C60.146 18.0003 60.2542 17.8277 60.3469 17.6708C60.4551 17.4982 60.5556 17.3335 60.6483 17.1766C60.9264 16.6904 61.1894 16.2902 61.4373 15.9761C61.7007 15.6462 62.0818 15.3859 62.5806 15.1951C62.9253 15.3334 63.1763 15.4958 63.3338 15.6823L63.3824 15.9398C63.4459 16.0956 63.5402 16.1731 63.6652 16.1723C63.8374 16.2181 63.9783 16.264 64.088 16.3101C64.2132 16.3406 64.3462 16.3709 64.487 16.4013C64.5972 16.5255 64.6998 16.6733 64.7947 16.8446C64.9209 17.0312 65.0393 17.2179 65.1499 17.4047C65.2761 17.5758 65.371 17.7548 65.4347 17.9419C65.514 18.1133 65.5543 18.2927 65.5555 18.4802C65.5724 18.6676 65.5424 18.8631 65.4656 19.0667L65.4906 19.3009C65.5697 19.441 65.5866 19.6363 65.5413 19.8866C65.5264 19.996 65.5194 20.1133 65.5202 20.2383C65.521 20.3476 65.5374 20.4725 65.5696 20.613C65.8523 20.8298 66.103 20.9376 66.3217 20.9361C66.5717 20.9345 66.7979 20.8783 67.0003 20.7676C67.2182 20.6411 67.4205 20.5148 67.6072 20.3885C67.7316 20.294 67.8561 20.215 67.9807 20.1517C68.1051 20.0727 68.2298 20.025 68.3547 20.0086C68.6342 19.7411 68.8826 19.5051 69.1001 19.3005C69.3331 19.0959 69.5739 18.8911 69.8226 18.6864C70.2888 18.3083 70.7393 17.899 71.1739 17.4587C71.6085 17.0183 71.9564 16.4691 72.2177 15.8111C72.3733 15.7163 72.5371 15.6684 72.7089 15.6672C72.8808 15.6661 73.0607 15.704 73.2488 15.7808C73.4368 15.8577 73.617 15.9347 73.7894 16.0117C73.8364 16.0426 73.8757 16.0658 73.907 16.0812C73.954 16.0965 73.9931 16.1119 74.0245 16.1273C74.0255 16.2835 74.0889 16.4159 74.2146 16.5245C74.2774 16.5709 74.3167 16.6019 74.3324 16.6175C74.3482 16.633 74.3717 16.6484 74.4031 16.6639C74.6383 16.7873 74.7875 16.9113 74.8508 17.0359C74.9626 17.3946 75.1597 17.6667 75.4422 17.8523C75.412 18.0088 75.4129 18.1572 75.4451 18.2976C75.4928 18.4223 75.5484 18.5548 75.6118 18.695C75.6278 18.7418 75.6437 18.7885 75.6596 18.8353C75.6756 18.8821 75.6994 18.9366 75.731 18.9989L75.2854 18.955L75.3587 19.3998C75.3914 19.6183 75.3695 19.8607 75.2931 20.1268C75.2324 20.3928 75.1557 20.6043 75.063 20.7612C75.0813 21.1673 75.0912 21.4875 75.0927 21.7219C75.1098 21.9406 75.1034 22.1515 75.0735 22.3549C75.0435 22.5426 74.9978 22.7226 74.9364 22.8948C74.8907 23.067 74.8216 23.255 74.7292 23.4587C74.7983 24.4583 74.6872 25.3731 74.3958 26.2032C74.1199 27.0175 73.8281 27.7851 73.5204 28.5059C73.4896 28.5842 73.4511 28.6626 73.4047 28.741C73.374 28.8194 73.3433 28.8977 73.3125 28.976C73.1722 29.0238 73.0476 29.0793 72.9386 29.1426C72.8296 29.1902 72.7127 29.2456 72.5881 29.3089ZM88.9096 16.4274C88.926 16.5366 88.9265 16.6226 88.9113 16.6852C88.9116 16.732 88.9041 16.779 88.8888 16.8259C88.8891 16.8728 88.8895 16.9275 88.8899 16.99C88.8902 17.0369 88.9064 17.1149 88.9383 17.2241C88.6137 17.7575 88.2333 18.1272 87.7972 18.3332C87.3766 18.5235 86.9166 18.6671 86.4172 18.7642C85.9177 18.8456 85.4027 18.935 84.8721 19.0322C84.3571 19.1294 83.8428 19.3359 83.3292 19.6518C83.1256 19.575 82.9381 19.5763 82.7668 19.6555C82.611 19.7347 82.3768 19.7597 82.0641 19.7305C81.971 19.8249 81.8543 19.8959 81.714 19.9437C81.5735 19.9759 81.4332 20.0159 81.2929 20.0637C81.3563 20.2039 81.3807 20.3522 81.3661 20.5086C81.367 20.6492 81.3913 20.7662 81.4388 20.8596C81.9859 20.9029 82.5874 20.8911 83.2432 20.8243C83.9147 20.7573 84.5707 20.7139 85.2112 20.6941C85.2273 20.7721 85.2199 20.8268 85.1888 20.8583C85.1577 20.8741 85.1501 20.9132 85.1662 20.9756C85.276 21.053 85.3861 21.1539 85.4963 21.2782C85.6064 21.3868 85.7165 21.4955 85.8266 21.6041C85.9367 21.7128 86.0467 21.8058 86.1566 21.8832C86.282 21.9448 86.4227 21.9674 86.5789 21.9507C86.6422 22.0753 86.6822 22.2156 86.6989 22.3718C86.731 22.5122 86.7164 22.6607 86.6549 22.8174C86.4061 22.9909 86.1573 23.1723 85.9085 23.3614C85.6596 23.5349 85.3951 23.6929 85.1147 23.8354C84.8501 23.9778 84.5618 24.0969 84.2499 24.1927C83.9535 24.2728 83.6178 24.3063 83.2427 24.2931C83.1646 24.2936 83.1021 24.294 83.0552 24.2944C83.024 24.2946 82.977 24.2714 82.9141 24.225C82.7897 24.3039 82.6101 24.3285 82.3756 24.2988C82.1566 24.269 81.9849 24.2936 81.8604 24.3726C81.688 24.2956 81.4769 24.2657 81.227 24.283C80.9926 24.2845 80.7815 24.2547 80.5936 24.1934C80.3457 24.5232 80.1215 24.8763 79.9209 25.2526C79.7202 25.6289 79.5432 26.0285 79.3897 26.4514C79.9215 26.526 80.3592 26.5544 80.7028 26.5365C81.0621 26.5185 81.3979 26.4929 81.7101 26.4595C82.0223 26.4106 82.3424 26.3694 82.6703 26.336C82.9981 26.287 83.412 26.2686 83.9121 26.2809C84.2235 26.107 84.5899 25.9952 85.0115 25.9455C85.4486 25.8801 85.8464 25.7837 86.2049 25.6564C86.3302 25.7024 86.4402 25.7876 86.5348 25.912C86.6292 26.0208 86.7159 26.1296 86.7947 26.2384C86.8891 26.3316 86.9834 26.4169 87.0777 26.4944C87.1719 26.5719 87.2893 26.6024 87.4298 26.5858C87.4928 26.6479 87.5323 26.7258 87.5486 26.8194C87.5803 26.8973 87.6043 26.9753 87.6204 27.0533C87.6366 27.1313 87.6605 27.2015 87.6921 27.2638C87.7393 27.3103 87.8097 27.3255 87.9034 27.3093C87.6724 27.8264 87.4016 28.2267 87.091 28.51C86.7959 28.7775 86.4535 28.9829 86.0638 29.1261C85.6741 29.2693 85.2373 29.3816 84.7535 29.4629C84.2853 29.5441 83.7625 29.6414 83.1851 29.7545C83.0447 29.7867 82.9274 29.7797 82.8334 29.7334C82.7394 29.7028 82.6299 29.6879 82.5049 29.6887C82.1461 29.7692 81.7169 29.8424 81.2173 29.9082C80.7177 29.974 80.2101 30.0008 79.6944 29.9886C79.1786 29.9763 78.686 29.9093 78.2164 29.7874C77.747 29.6811 77.3628 29.4805 77.064 29.1856C76.9383 29.0771 76.8515 28.9526 76.8037 28.8123C76.7714 28.6563 76.6691 28.5398 76.4967 28.4628C76.4797 28.2598 76.447 28.0334 76.3985 27.7837C76.3499 27.534 76.3014 27.2765 76.2527 27.0112C76.204 26.7303 76.1631 26.4571 76.1301 26.1917C76.1127 25.9262 76.1268 25.6839 76.1722 25.4649C76.2175 25.2302 76.3099 25.0186 76.4493 24.8302C76.6043 24.6417 76.6576 24.4382 76.6093 24.2198C76.6873 24.2036 76.7339 24.1642 76.7491 24.1016C76.7642 24.0234 76.8265 23.9918 76.936 24.0067C77.0279 23.7248 77.1277 23.4585 77.2354 23.2078C77.3431 22.9571 77.4509 22.7142 77.5587 22.4791C77.6822 22.2439 77.7978 22.0087 77.9057 21.7736C78.029 21.5228 78.1444 21.2486 78.2518 20.951C78.0317 20.7493 77.8662 20.5317 77.7553 20.298C77.6599 20.0487 77.588 19.8069 77.5395 19.5729C77.491 19.3232 77.4503 19.0735 77.4174 18.8237C77.3844 18.5583 77.3279 18.293 77.2481 18.0279C77.4028 17.7925 77.589 17.6038 77.8068 17.4617C78.0402 17.3039 78.2893 17.1773 78.5543 17.0817C78.8193 16.9862 79.1079 16.9062 79.42 16.8416C79.732 16.7771 80.0597 16.7046 80.4029 16.6242C81.0266 16.417 81.5802 16.257 82.0639 16.1445C82.5631 16.0318 83.0469 15.9427 83.5152 15.8771C83.9991 15.7957 84.4986 15.7221 85.0138 15.6562C85.529 15.5903 86.1143 15.4927 86.7697 15.3634C86.9113 15.503 87.0446 15.5725 87.1696 15.5717C87.2311 15.4306 87.3012 15.3911 87.3797 15.4531C87.4738 15.4993 87.5125 15.4522 87.496 15.3117C87.654 15.5763 87.8508 15.8015 88.0864 15.9875C88.3375 16.1577 88.6119 16.3043 88.9096 16.4274ZM101.425 16.3447C101.441 16.4539 101.442 16.5399 101.427 16.6025C101.427 16.6493 101.419 16.6963 101.404 16.7432C101.404 16.7901 101.405 16.8448 101.405 16.9073C101.406 16.9542 101.422 17.0322 101.454 17.1414C101.129 17.6748 100.749 18.0445 100.313 18.2505C99.8919 18.4408 99.4319 18.5844 98.9326 18.6815C98.4331 18.7629 97.918 18.8523 97.3874 18.9495C96.8724 19.0467 96.3581 19.2532 95.8446 19.5691C95.641 19.4923 95.4535 19.4936 95.2821 19.5728C95.1264 19.652 94.8922 19.677 94.5795 19.6478C94.4863 19.7421 94.3696 19.8132 94.2293 19.861C94.0889 19.8932 93.9485 19.9332 93.8082 19.981C93.8716 20.1212 93.8961 20.2695 93.8815 20.4258C93.8824 20.5665 93.9066 20.6835 93.9541 20.7769C94.5013 20.8202 95.1028 20.8084 95.7586 20.7416C96.43 20.6746 97.086 20.6312 97.7265 20.6114C97.7427 20.6894 97.7352 20.7441 97.7042 20.7756C97.673 20.7914 97.6655 20.8305 97.6815 20.8929C97.7914 20.9703 97.9014 21.0712 98.0116 21.1954C98.1217 21.3041 98.2318 21.4127 98.3419 21.5214C98.452 21.63 98.562 21.7231 98.6719 21.8005C98.7973 21.8621 98.9381 21.8846 99.0942 21.868C99.1576 21.9926 99.1976 22.1329 99.2142 22.2891C99.2464 22.4295 99.2317 22.578 99.1703 22.7347C98.9214 22.9082 98.6726 23.0896 98.4239 23.2787C98.175 23.4522 97.9104 23.6102 97.6301 23.7527C97.3654 23.8951 97.0771 24.0142 96.7653 24.11C96.4689 24.1901 96.1332 24.2235 95.7581 24.2104C95.68 24.2109 95.6175 24.2113 95.5706 24.2116C95.5393 24.2118 95.4923 24.1887 95.4295 24.1423C95.305 24.2212 95.1255 24.2458 94.8909 24.2161C94.672 24.1863 94.5002 24.2109 94.3758 24.2898C94.2034 24.2129 93.9922 24.183 93.7423 24.2003C93.508 24.2018 93.2968 24.172 93.1089 24.1107C92.8611 24.4405 92.6369 24.7935 92.4362 25.1699C92.2356 25.5462 92.0585 25.9458 91.9051 26.3687C92.4368 26.4433 92.8745 26.4717 93.2182 26.4538C93.5774 26.4358 93.9132 26.4101 94.2255 26.3768C94.5377 26.3279 94.8577 26.2867 95.1856 26.2533C95.5134 26.2042 95.9274 26.1859 96.4275 26.1982C96.7388 26.0243 97.1053 25.9125 97.5269 25.8628C97.9639 25.7974 98.3617 25.701 98.7203 25.5737C98.8456 25.6197 98.9555 25.7049 99.0501 25.8293C99.1446 25.9381 99.2312 26.0469 99.3101 26.1557C99.4044 26.2488 99.4988 26.3342 99.593 26.4117C99.6873 26.4892 99.8047 26.5196 99.9452 26.5031C100.008 26.5652 100.048 26.643 100.064 26.7367C100.096 26.8146 100.12 26.8926 100.136 26.9706C100.152 27.0486 100.176 27.1188 100.207 27.1811C100.255 27.2276 100.325 27.2428 100.419 27.2265C100.188 27.7437 99.917 28.1439 99.6063 28.4272C99.3112 28.6948 98.9688 28.9002 98.5791 29.0434C98.1895 29.1866 97.7527 29.2989 97.2688 29.3802C96.8006 29.4614 96.2778 29.5586 95.7004 29.6718C95.56 29.704 95.4428 29.697 95.3487 29.6507C95.2548 29.6201 95.1453 29.6052 95.0203 29.606C94.6614 29.6865 94.2322 29.7597 93.7326 29.8255C93.2331 29.8913 92.7254 29.9181 92.2097 29.9058C91.694 29.8936 91.2013 29.8266 90.7318 29.7047C90.2623 29.5984 89.8782 29.3978 89.5793 29.1029C89.4536 28.9944 89.3669 28.8699 89.3191 28.7296C89.2868 28.5736 89.1844 28.4571 89.0121 28.3801C88.9951 28.1771 88.9623 27.9507 88.9138 27.701C88.8653 27.4513 88.8167 27.1938 88.7681 26.9285C88.7193 26.6476 88.6785 26.3744 88.6455 26.109C88.6281 25.8435 88.6421 25.6012 88.6875 25.3822C88.7329 25.1475 88.8252 24.9359 88.9646 24.7475C89.1196 24.559 89.173 24.3555 89.1246 24.137C89.2027 24.1209 89.2493 24.0815 89.2645 24.0189C89.2796 23.9407 89.3419 23.909 89.4514 23.9239C89.5433 23.6421 89.6431 23.3758 89.7508 23.1251C89.8585 22.8744 89.9663 22.6315 90.0741 22.3964C90.1975 22.1612 90.3132 21.926 90.421 21.6909C90.5443 21.4401 90.6597 21.1659 90.7671 20.8683C90.547 20.6666 90.3815 20.449 90.2706 20.2153C90.1752 19.966 90.1033 19.7242 90.0549 19.4902C90.0064 19.2405 89.9656 18.9908 89.9327 18.741C89.8997 18.4756 89.8433 18.2103 89.7634 17.9452C89.9181 17.7098 90.1044 17.5211 90.3222 17.379C90.5555 17.2212 90.8047 17.0945 91.0697 16.999C91.3347 16.9035 91.6232 16.8235 91.9353 16.7589C92.2474 16.6944 92.5751 16.6219 92.9183 16.5415C93.5419 16.3342 94.0956 16.1743 94.5792 16.0618C95.0785 15.9491 95.5623 15.8599 96.0306 15.7944C96.5144 15.713 97.014 15.6394 97.5292 15.5735C98.0444 15.5076 98.6297 15.41 99.2851 15.2806C99.4266 15.4203 99.5599 15.4898 99.6849 15.4889C99.7465 15.3479 99.8165 15.3084 99.8951 15.3704C99.9891 15.4166 100.028 15.3695 100.011 15.229C100.169 15.4936 100.366 15.7188 100.602 15.9048C100.853 16.075 101.127 16.2216 101.425 16.3447ZM114.211 18.1821C113.82 18.1847 113.399 18.2187 112.946 18.2842C112.493 18.3341 112.048 18.3917 111.611 18.4571C111.299 18.506 110.994 18.5471 110.698 18.5803C110.417 18.6134 110.159 18.6385 109.925 18.6557C109.818 19.0002 109.71 19.3056 109.603 19.5719C109.495 19.8383 109.38 20.0969 109.256 20.3477C109.133 20.6141 109.018 20.8883 108.91 21.1703C108.818 21.4365 108.726 21.7262 108.635 22.0393C108.48 22.2903 108.349 22.5256 108.241 22.7451C108.148 22.9488 108.072 23.1837 108.011 23.4497C107.825 23.6853 107.686 23.9363 107.594 24.2025C107.502 24.4531 107.433 24.6723 107.388 24.8601L107.296 25.142C107.203 25.2364 107.148 25.3148 107.133 25.3774C107.118 25.4244 107.079 25.4715 107.017 25.5188C107.002 25.6908 106.949 25.863 106.856 26.0355C106.826 26.1139 106.803 26.1921 106.788 26.2704C106.772 26.333 106.765 26.3799 106.765 26.4111C106.766 26.5674 106.728 26.6692 106.65 26.7166C106.666 26.7946 106.667 26.8806 106.652 26.9744C106.636 27.0526 106.621 27.1309 106.606 27.2091C106.561 27.3969 106.546 27.5454 106.562 27.6547C106.61 27.7169 106.649 27.7713 106.681 27.818C106.728 27.8645 106.759 27.9268 106.776 28.0049C106.87 28.0667 106.94 28.1053 106.987 28.1207C107.05 28.1671 107.144 28.2212 107.27 28.2829L107.482 28.5158C107.563 28.9684 107.495 29.3283 107.278 29.5953C107.046 29.8937 106.648 30.0448 106.086 30.0485L105.805 30.0504C105.726 29.9728 105.679 29.9106 105.663 29.8638C105.538 29.8178 105.436 29.7794 105.357 29.7486C105.279 29.7179 105.208 29.6559 105.145 29.5625C104.941 29.4701 104.777 29.3931 104.651 29.3314L104.44 29.2156C104.439 29.0438 104.438 28.95 104.438 28.9344C104.328 28.7945 104.241 28.6388 104.177 28.4674C104.129 28.2958 104.089 28.1242 104.056 27.9525C104.024 27.8121 103.984 27.6795 103.937 27.5549C103.905 27.4301 103.857 27.321 103.794 27.2277C103.757 26.3217 103.837 25.5555 104.036 24.9291C104.235 24.3028 104.442 23.6999 104.657 23.1203C104.78 22.807 104.903 22.4937 105.026 22.1804C105.149 21.8514 105.256 21.5148 105.348 21.1704L105.557 20.9346C105.665 20.6839 105.749 20.4802 105.811 20.3236C105.888 20.1512 105.965 19.9788 106.042 19.8064C106.088 19.6967 106.126 19.5949 106.157 19.501C106.203 19.3913 106.241 19.2973 106.272 19.2189C106.178 19.2196 106.093 19.2279 106.015 19.2441C105.936 19.2446 105.858 19.2529 105.78 19.2691C105.687 19.2853 105.601 19.3015 105.523 19.3176C105.445 19.3182 105.367 19.3187 105.288 19.3192C105.179 19.3199 105.101 19.3126 105.054 19.2973C104.883 19.3766 104.695 19.4169 104.492 19.4182L104.258 19.4197C104.211 19.4201 104.164 19.4204 104.117 19.4207C104.086 19.4053 104.055 19.3977 104.023 19.3979C103.867 19.3989 103.742 19.4232 103.649 19.4707C103.461 19.4719 103.282 19.4731 103.11 19.4742L102.875 19.4758C102.844 19.476 102.805 19.484 102.758 19.5C102.711 19.5003 102.672 19.5005 102.641 19.5007C102.532 19.5015 102.415 19.4944 102.289 19.4796C102.164 19.4492 102.031 19.3954 101.89 19.3182C101.701 19.0695 101.575 18.9375 101.512 18.9223L101.3 18.6424C101.283 18.5488 101.259 18.463 101.228 18.3851C101.196 18.2915 101.164 18.1902 101.132 18.081C101.068 17.9252 101.005 17.7615 100.941 17.5901C100.893 17.4029 100.868 17.1843 100.866 16.9343C100.881 16.8092 100.912 16.7152 100.958 16.6524C101.005 16.5896 101.043 16.5347 101.074 16.4876L101.142 16.1356L101.447 16.157L102.103 16.1527C102.603 16.1494 103.111 16.1304 103.627 16.0957C104.142 16.0454 104.673 15.9951 105.219 15.9446C105.532 15.9113 105.844 15.8779 106.156 15.8446C106.484 15.8112 106.82 15.7777 107.163 15.7442C107.225 15.6032 107.287 15.47 107.348 15.3445L107.582 15.2258C107.863 15.2083 108.058 15.2461 108.168 15.3391C108.294 15.4164 108.396 15.4939 108.475 15.5715C108.818 15.538 109.162 15.5044 109.505 15.4709C109.864 15.4217 110.223 15.3646 110.582 15.2997C111.113 15.2181 111.644 15.1443 112.175 15.0783C112.721 15.0122 113.244 14.9775 113.744 14.9741C113.963 14.9727 114.174 14.9791 114.377 14.9934C114.58 15.0077 114.768 15.0299 114.94 15.06L115.176 15.2225C115.223 15.3159 115.286 15.4015 115.365 15.4791C115.459 15.5566 115.553 15.6341 115.648 15.7116C115.836 15.8822 116.025 16.0841 116.214 16.3172C116.403 16.5504 116.476 16.8936 116.432 17.3471C116.308 17.5354 116.215 17.6454 116.153 17.677L115.944 17.9597L115.709 17.9378C115.616 17.9384 115.53 17.9546 115.452 17.9864C115.374 18.0025 115.296 18.0265 115.218 18.0582C115.156 18.0899 115.093 18.1216 115.031 18.1532C114.969 18.1693 114.898 18.1853 114.82 18.2015C114.68 18.2024 114.563 18.2032 114.469 18.2038C114.391 18.1887 114.305 18.1815 114.211 18.1821ZM134.957 22.2872C134.943 22.4748 134.96 22.6544 135.008 22.826C135.056 22.9975 135.111 23.1691 135.175 23.3405C135.254 23.4962 135.326 23.6598 135.389 23.8313C135.453 24.0028 135.501 24.1743 135.533 24.346C135.566 24.5645 135.568 24.8067 135.538 25.0725C135.508 25.3227 135.455 25.5731 135.379 25.8236C135.302 26.0585 135.202 26.2779 135.079 26.4818C134.955 26.6702 134.807 26.8118 134.636 26.9067C134.419 27.1893 134.155 27.4098 133.844 27.5682C133.532 27.7265 133.244 27.9159 132.98 28.1364C132.809 28.2469 132.614 28.3263 132.396 28.3746C132.193 28.4228 131.982 28.4711 131.764 28.5194C131.593 28.6143 131.39 28.7172 131.157 28.8281C130.923 28.9234 130.681 29.0188 130.432 29.1142C130.182 29.194 129.933 29.2581 129.683 29.3066C129.433 29.3395 129.215 29.3488 129.027 29.3344C128.559 29.5094 128.099 29.6218 127.646 29.6717C127.209 29.737 126.694 29.7092 126.099 29.5881C125.537 29.67 125.013 29.65 124.528 29.5282C124.059 29.4063 123.636 29.2138 123.259 28.9506C122.898 28.6718 122.575 28.3458 122.291 27.9726C122.023 27.5838 121.802 27.179 121.627 26.7582C121.496 25.8685 121.522 25.0636 121.705 24.3436C121.887 23.608 122.149 22.9344 122.488 22.3228C122.844 21.6954 123.246 21.1224 123.696 20.6038C124.145 20.0696 124.579 19.5511 124.998 19.0483C125.092 19.0789 125.162 19.0785 125.209 19.0469C125.271 18.9996 125.325 18.9446 125.372 18.8818C125.418 18.8033 125.465 18.7327 125.511 18.6699C125.573 18.607 125.643 18.5675 125.721 18.5513C125.829 18.3162 125.984 18.1433 126.187 18.0326C126.405 17.9062 126.575 17.7332 126.699 17.5136C126.839 17.4814 126.956 17.4338 127.05 17.3706C127.143 17.3075 127.228 17.2366 127.306 17.158C127.399 17.0793 127.492 17.0083 127.586 16.9452C127.679 16.8665 127.788 16.8111 127.913 16.779L127.911 16.5212C128.192 16.3943 128.394 16.2524 128.518 16.0953C128.657 15.9225 128.82 15.7183 129.006 15.4827C129.146 15.4661 129.256 15.4576 129.334 15.4571C129.428 15.4565 129.56 15.4399 129.732 15.4076C129.855 15.188 129.964 15.0232 130.057 14.9132C130.165 14.8031 130.321 14.6849 130.523 14.5586C130.711 14.6511 130.915 14.7122 131.134 14.742C131.368 14.7717 131.572 14.872 131.745 15.0427C131.762 15.1988 131.81 15.3235 131.888 15.4168C131.967 15.4944 132.053 15.5719 132.148 15.6494C132.242 15.7113 132.328 15.781 132.407 15.8586C132.501 15.9362 132.564 16.0451 132.596 16.1855C132.659 16.2007 132.698 16.1927 132.714 16.1613C132.745 16.1299 132.791 16.1217 132.854 16.1369C132.902 16.3554 132.958 16.5035 133.021 16.5812C133.084 16.6433 133.147 16.7756 133.211 16.9784C133.134 17.1351 133.073 17.2996 133.027 17.4718C132.997 17.6282 132.904 17.746 132.748 17.8252C132.733 17.9347 132.765 17.997 132.843 18.0121C132.921 18.0115 132.968 18.0503 132.984 18.1283C133.001 18.2688 132.978 18.3706 132.916 18.4335C133.295 19.0403 133.635 19.6865 133.937 20.3721C134.238 21.042 134.578 21.6804 134.957 22.2872ZM132.042 24.5331C132.104 24.3608 132.181 24.2197 132.274 24.1097C132.382 23.9996 132.444 23.8351 132.458 23.6163C132.379 23.4918 132.332 23.3984 132.316 23.336C132.299 23.258 132.291 23.1408 132.29 22.9846C131.943 22.5025 131.643 21.9888 131.389 21.4436C131.135 20.8828 130.851 20.3612 130.535 19.8789C130.504 19.9416 130.45 20.0045 130.372 20.0675C130.294 20.1305 130.208 20.1155 130.114 20.0223C130.084 20.1475 130.029 20.2416 129.952 20.3047C129.874 20.352 129.788 20.3761 129.694 20.3767C129.601 20.3617 129.499 20.3389 129.389 20.3084C129.295 20.2621 129.209 20.208 129.13 20.146C128.68 20.5084 128.229 20.8629 127.778 21.2097C127.327 21.5564 126.924 21.9575 126.567 22.413C126.505 22.4447 126.466 22.4606 126.45 22.4607C126.435 22.4451 126.388 22.4533 126.31 22.485C126.187 22.7827 126.032 23.0572 125.847 23.3084C125.676 23.5439 125.506 23.7872 125.336 24.0384C125.165 24.2895 125.019 24.5561 124.896 24.8382C124.773 25.1202 124.704 25.4488 124.691 25.8239C124.958 26.0409 125.272 26.1717 125.631 26.2161C125.991 26.2606 126.358 26.266 126.733 26.2323C127.123 26.1985 127.498 26.1491 127.857 26.0842C128.232 26.0036 128.575 25.9623 128.888 25.9602C129.543 25.7997 130.104 25.5928 130.571 25.3397C131.038 25.071 131.528 24.8021 132.042 24.5331ZM148.806 25.4067C148.9 25.453 148.955 25.5307 148.972 25.64C148.988 25.7493 148.989 25.8352 148.974 25.8978C148.695 26.259 148.501 26.5103 148.393 26.6517C148.284 26.793 148.207 26.9029 148.16 26.9813C148.114 27.0442 148.06 27.0992 147.997 27.1465C147.951 27.1937 147.834 27.296 147.648 27.4535C146.948 27.88 146.223 28.2598 145.476 28.5929C144.743 28.9258 143.972 29.1575 143.16 29.2879C143.036 29.4606 142.795 29.5794 142.436 29.6442C142.092 29.7246 141.773 29.7971 141.476 29.8615C141.413 29.8307 141.374 29.7841 141.358 29.7217C141.358 29.6748 141.326 29.6359 141.263 29.6051C141.249 29.7615 141.179 29.84 141.054 29.8409C140.929 29.8573 140.773 29.8271 140.585 29.7502C140.412 29.6889 140.224 29.5963 140.02 29.4727C139.832 29.3646 139.667 29.2641 139.526 29.1713C139.449 29.2968 139.364 29.4223 139.271 29.548C139.194 29.6735 139.093 29.7601 138.968 29.8078C138.796 29.7777 138.663 29.7551 138.569 29.7401C138.491 29.725 138.413 29.7568 138.335 29.8354C138.241 29.7891 138.163 29.735 138.1 29.6729C138.053 29.6107 137.997 29.5486 137.934 29.4865C137.887 29.4399 137.825 29.3935 137.746 29.3471C137.683 29.3006 137.589 29.2622 137.464 29.2318C137.495 29.1691 137.479 29.0754 137.415 28.9508C137.352 28.8106 137.258 28.7253 137.132 28.6949C137.194 28.5851 137.162 28.4525 137.036 28.2971C136.925 28.1259 136.838 27.939 136.774 27.7363C136.805 27.5642 136.827 27.3766 136.841 27.1733C136.855 26.9701 136.948 26.8523 137.12 26.8199C137.104 26.7107 137.08 26.6171 137.048 26.5391C137.016 26.4612 136.984 26.3833 136.953 26.3054C137.061 26.2109 137.139 26.101 137.185 25.9757C137.231 25.8348 137.269 25.6939 137.299 25.5531C137.329 25.4123 137.368 25.2714 137.414 25.1304C137.459 24.9895 137.545 24.8718 137.669 24.7772C137.807 24.3075 137.914 23.9631 137.99 23.7438C138.067 23.5089 138.12 23.282 138.15 23.063C138.195 22.844 138.241 22.6093 138.286 22.359C138.347 22.1086 138.446 21.7954 138.584 21.4195C138.567 21.1852 138.589 20.982 138.651 20.8097C138.712 20.6218 138.773 20.4417 138.835 20.2694C138.911 20.0814 138.973 19.8935 139.018 19.7057C139.064 19.5022 139.054 19.2679 138.99 19.0027C138.772 19.0198 138.616 19.0989 138.523 19.2402C138.43 19.3658 138.369 19.5381 138.339 19.757C138.215 19.8829 138.059 19.9464 137.871 19.9476C137.699 19.9331 137.543 19.9498 137.403 19.9976C136.855 19.7825 136.4 19.473 136.037 19.0691C135.675 18.6652 135.383 18.1906 135.161 17.6452C135.299 17.2849 135.508 16.9866 135.788 16.7504C136.067 16.4985 136.386 16.2933 136.745 16.1347C137.103 15.9604 137.485 15.8251 137.89 15.7287C138.296 15.6166 138.686 15.5125 139.06 15.4162C139.669 15.3028 140.277 15.1738 140.886 15.0292C141.494 14.8845 142.15 14.8333 142.854 14.8755C142.947 14.828 143.056 14.8039 143.181 14.803C143.322 14.7865 143.462 14.7777 143.603 14.7768C143.744 14.7759 143.876 14.775 144.001 14.7742C144.142 14.7576 144.259 14.7256 144.352 14.6781C144.431 14.7713 144.541 14.8331 144.682 14.8634C144.838 14.878 145.003 14.9473 145.175 15.0711C145.362 14.9293 145.518 14.897 145.643 14.9743C145.785 15.0515 145.91 15.1366 146.02 15.2296C146.13 15.3226 146.232 15.4079 146.327 15.4854C146.436 15.5628 146.546 15.6011 146.655 15.6004C146.766 15.7403 146.899 15.8722 147.056 15.9962C147.229 16.1201 147.386 16.2518 147.528 16.3915C147.685 16.5155 147.811 16.6553 147.906 16.8109C148.016 16.9665 148.072 17.1458 148.073 17.3489C148.058 17.4271 148.082 17.4738 148.144 17.4891C148.207 17.5043 148.254 17.5352 148.286 17.5819C148.305 18.0661 148.229 18.4885 148.06 18.849C147.906 19.1938 147.705 19.5154 147.457 19.814C147.224 20.1124 146.961 20.3954 146.665 20.663C146.386 20.9304 146.13 21.2134 145.898 21.5118C146.055 21.7139 146.236 21.8924 146.44 22.0473C146.644 22.2022 146.849 22.3571 147.053 22.512C147.272 22.6668 147.477 22.8295 147.665 23.0002C147.854 23.1708 148.012 23.3729 148.138 23.6064C148.17 23.6375 148.209 23.6685 148.256 23.6994C148.303 23.7147 148.35 23.7378 148.397 23.7688C148.445 23.9247 148.508 24.0884 148.588 24.2597C148.667 24.4154 148.73 24.5713 148.778 24.7272C148.842 24.8674 148.882 25 148.898 25.1249C148.914 25.2341 148.884 25.3281 148.806 25.4067ZM144.63 17.606C143.833 17.5801 143.036 17.6556 142.24 17.8328C141.46 18.0098 140.806 18.2563 140.276 18.5723C140.544 18.7893 140.81 18.9829 141.077 19.153C141.36 19.323 141.58 19.5559 141.738 19.8518C142.346 19.5977 142.883 19.2817 143.349 18.9036C143.815 18.5099 144.242 18.0774 144.63 17.606ZM144.984 25.0804C145.029 24.9239 145.115 24.7983 145.239 24.7037C145.363 24.6092 145.488 24.5224 145.612 24.4434C145.737 24.3489 145.845 24.2544 145.939 24.16C146.032 24.05 146.07 23.9013 146.053 23.714C145.551 23.4516 145.089 23.2984 144.667 23.2543C144.26 23.1945 143.87 23.1971 143.495 23.2621C143.136 23.3113 142.785 23.3918 142.442 23.5034C142.115 23.615 141.779 23.6953 141.436 23.7445C141.267 24.1987 141.09 24.6921 140.906 25.2246C140.722 25.757 140.546 26.2738 140.378 26.775C140.846 26.7094 141.275 26.6128 141.665 26.4852C142.054 26.342 142.428 26.1911 142.787 26.0325C143.161 25.8737 143.519 25.7151 143.862 25.5566C144.22 25.3823 144.594 25.2236 144.984 25.0804ZM160.994 18.2713C160.965 18.6778 160.921 19.0375 160.86 19.3504C160.8 19.6633 160.716 19.992 160.609 20.3364C160.352 21.6038 160.047 22.8089 159.695 23.9519C159.359 25.0948 158.967 26.1208 158.52 27.0301C158.117 27.4859 157.721 27.8869 157.333 28.2333C156.96 28.5795 156.54 28.8244 156.072 28.9682C155.838 29.001 155.627 29.0414 155.44 29.0895C155.268 29.1219 155.097 29.1621 154.925 29.2101C154.847 29.2263 154.761 29.2425 154.668 29.2587C154.59 29.2748 154.512 29.2988 154.434 29.3306C154.199 29.2852 153.972 29.2477 153.753 29.2179C153.55 29.2036 153.363 29.197 153.191 29.1981L152.885 29.1064C152.729 29.0606 152.604 29.0223 152.51 28.9917C152.431 28.961 152.353 28.9381 152.275 28.9229C152.212 28.8921 152.134 28.8692 152.04 28.8542C151.962 28.8391 151.829 28.8243 151.641 28.8099C151.408 28.9052 151.189 28.9536 150.986 28.9549C150.705 28.9568 150.399 28.8416 150.07 28.6094C149.74 28.3772 149.463 27.879 149.239 27.1148C149.269 26.8178 149.314 26.5596 149.375 26.3405C149.42 26.1058 149.474 25.9258 149.535 25.8004C149.909 25.5791 150.221 25.4677 150.471 25.466C150.768 25.4641 151.049 25.5091 151.315 25.6011C151.597 25.693 151.871 25.7927 152.138 25.9003C152.263 25.9464 152.349 25.9849 152.396 26.0158C152.443 26.0468 152.483 26.0699 152.514 26.0854C152.545 26.1008 152.577 26.1084 152.608 26.1082C152.655 26.1079 152.741 26.1073 152.866 26.1065C152.944 26.106 153.006 26.1055 153.053 26.1052C153.116 26.0892 153.178 26.0732 153.24 26.0571L153.475 26.079C153.569 26.1253 153.678 26.148 153.803 26.1472C153.96 26.1461 154.155 26.1058 154.389 26.0261C154.498 25.9785 154.583 25.9467 154.646 25.9306C154.724 25.9145 154.802 25.8984 154.88 25.8822L155.066 25.6935C155.206 25.6457 155.308 25.5903 155.37 25.5274C155.447 25.4644 155.509 25.3937 155.556 25.3152C155.618 25.2367 155.672 25.1504 155.718 25.0564C155.764 24.9623 155.826 24.8603 155.904 24.7504C155.966 24.6719 156.02 24.5934 156.066 24.515C156.128 24.4364 156.19 24.3579 156.252 24.2794L156.25 24.045C156.451 23.5905 156.627 23.1206 156.78 22.6352C156.933 22.1342 157.071 21.6333 157.192 21.1325C157.314 20.6317 157.412 20.1466 157.487 19.6774C157.578 19.208 157.653 18.7856 157.713 18.4102L157.479 18.4118C157.088 18.4143 156.768 18.4243 156.518 18.4415C156.268 18.4432 156.042 18.4603 155.839 18.4929C155.636 18.5099 155.417 18.5426 155.183 18.591C154.965 18.6393 154.684 18.6959 154.341 18.7606L153.989 18.8333C153.756 18.9598 153.522 19.0707 153.289 19.166C153.055 19.2613 152.821 19.3098 152.586 19.3113C152.18 19.314 151.835 19.16 151.552 18.8494C151.254 18.6482 151.08 18.3837 151.031 18.0559C150.952 17.9627 150.928 17.8535 150.959 17.7283C150.895 17.5412 150.863 17.3773 150.862 17.2367C150.861 17.0805 150.86 16.9398 150.859 16.8149L150.857 16.4867L151.161 16.4847C151.239 16.4061 151.293 16.351 151.324 16.3196C151.355 16.2725 151.378 16.2177 151.394 16.1551L151.65 15.9424C151.915 15.9094 152.189 15.8685 152.469 15.8198C152.766 15.7553 153.07 15.6908 153.382 15.6263C153.679 15.5618 153.928 15.5133 154.131 15.4807C154.35 15.448 154.553 15.4232 154.74 15.4064C154.943 15.3894 155.146 15.3802 155.349 15.3789C155.568 15.3618 155.818 15.3524 156.099 15.3505L156.638 15.3469C156.685 15.2841 156.731 15.2526 156.778 15.2523C156.841 15.2362 156.888 15.2281 156.919 15.2279C156.997 15.2274 157.059 15.2348 157.106 15.2501C157.153 15.2654 157.193 15.2808 157.224 15.2962C157.661 15.2152 158.067 15.1656 158.442 15.1475C158.817 15.1138 159.152 15.0959 159.449 15.094C159.605 15.0929 159.746 15.092 159.871 15.0912C160.012 15.0903 160.145 15.0972 160.27 15.112L161.043 15.1069L161.559 15.1035C161.637 15.0873 161.762 15.0787 161.934 15.0776C162.184 15.0759 162.34 15.0827 162.402 15.0979C162.481 15.0974 162.613 15.1121 162.801 15.1421C163.02 15.1719 163.216 15.2019 163.388 15.232C163.575 15.2464 163.763 15.253 163.95 15.2517L164.302 15.2494L164.374 15.4833L164.563 15.7164C164.595 15.7944 164.642 15.8644 164.705 15.9265C164.783 15.9884 164.862 16.0582 164.941 16.1358C165.098 16.2911 165.248 16.4698 165.389 16.6719C165.547 16.874 165.604 17.1784 165.56 17.5849L165.397 17.8438C165.319 17.8756 165.226 17.9465 165.117 18.0566L164.908 18.2455C164.736 18.2622 164.588 18.2788 164.463 18.2953C164.338 18.2961 164.213 18.2969 164.088 18.2978C163.853 18.2993 163.611 18.2931 163.361 18.2791C163.127 18.2651 162.876 18.2511 162.611 18.2372C162.47 18.2381 162.361 18.2389 162.283 18.2394C162.204 18.2399 162.126 18.2404 162.048 18.2409C161.986 18.2413 161.915 18.2418 161.837 18.2423C161.759 18.2428 161.658 18.2435 161.533 18.2443C161.408 18.2452 161.314 18.2458 161.251 18.2462C161.189 18.2466 161.103 18.255 160.994 18.2713ZM175.533 15.8549C175.549 15.9642 175.55 16.0501 175.534 16.1127C175.535 16.1596 175.527 16.2065 175.512 16.2535C175.512 16.3004 175.513 16.355 175.513 16.4175C175.513 16.4644 175.529 16.5424 175.561 16.6516C175.237 17.185 174.856 17.5547 174.42 17.7607C174 17.951 173.54 18.0947 173.04 18.1917C172.541 18.2732 172.026 18.3625 171.495 18.4598C170.98 18.5569 170.466 18.7634 169.952 19.0793C169.749 19.0026 169.561 19.0038 169.39 19.0831C169.234 19.1622 169 19.1872 168.687 19.158C168.594 19.2524 168.477 19.3235 168.337 19.3713C168.197 19.4035 168.056 19.4434 167.916 19.4912C167.979 19.6315 168.004 19.7797 167.989 19.9361C167.99 20.0767 168.014 20.1937 168.062 20.2872C168.609 20.3304 169.211 20.3186 169.866 20.2518C170.538 20.1849 171.194 20.1415 171.834 20.1216C171.85 20.1996 171.843 20.2544 171.812 20.2858C171.781 20.3017 171.773 20.3408 171.789 20.4032C171.899 20.4806 172.009 20.5814 172.119 20.7057C172.229 20.8143 172.34 20.923 172.45 21.0316C172.56 21.1403 172.67 21.2333 172.78 21.3107C172.905 21.3724 173.046 21.3949 173.202 21.3782C173.265 21.5028 173.305 21.6432 173.322 21.7993C173.354 21.9397 173.34 22.0883 173.278 22.2449C173.029 22.4185 172.78 22.5998 172.532 22.7889C172.283 22.9625 172.018 23.1205 171.738 23.2629C171.473 23.4053 171.185 23.5244 170.873 23.6202C170.577 23.7003 170.241 23.7338 169.866 23.7206C169.788 23.7212 169.725 23.7216 169.678 23.7219C169.647 23.7221 169.6 23.699 169.537 23.6525C169.413 23.7314 169.233 23.7561 168.999 23.7264C168.78 23.6966 168.608 23.7211 168.484 23.8001C168.311 23.7231 168.1 23.6932 167.85 23.7105C167.616 23.7121 167.405 23.6822 167.217 23.621C166.969 23.9507 166.745 24.3038 166.544 24.6801C166.343 25.0564 166.166 25.4561 166.013 25.879C166.545 25.9536 166.982 25.9819 167.326 25.964C167.685 25.946 168.021 25.9204 168.333 25.8871C168.645 25.8381 168.965 25.797 169.293 25.7635C169.621 25.7145 170.035 25.6961 170.535 25.7084C170.847 25.5345 171.213 25.4227 171.635 25.3731C172.072 25.3077 172.469 25.2113 172.828 25.0839C172.953 25.13 173.063 25.2152 173.158 25.3395C173.252 25.4483 173.339 25.5571 173.418 25.666C173.512 25.7591 173.607 25.8444 173.701 25.9219C173.795 25.9994 173.912 26.0299 174.053 26.0133C174.116 26.0754 174.155 26.1533 174.172 26.2469C174.203 26.3248 174.227 26.4028 174.244 26.4808C174.26 26.5589 174.284 26.629 174.315 26.6913C174.362 26.7379 174.433 26.753 174.526 26.7368C174.296 27.2539 174.025 27.6542 173.714 27.9375C173.419 28.2051 173.077 28.4105 172.687 28.5537C172.297 28.6969 171.86 28.8091 171.377 28.8905C170.908 28.9717 170.386 29.0689 169.808 29.1821C169.668 29.2143 169.551 29.2072 169.456 29.161C169.363 29.1303 169.253 29.1154 169.128 29.1163C168.769 29.1968 168.34 29.2699 167.84 29.3357C167.341 29.4015 166.833 29.4283 166.317 29.4161C165.802 29.4039 165.309 29.3368 164.84 29.2149C164.37 29.1086 163.986 28.9081 163.687 28.6131C163.561 28.5046 163.475 28.3802 163.427 28.2399C163.395 28.0838 163.292 27.9673 163.12 27.8903C163.103 27.6873 163.07 27.4609 163.022 27.2113C162.973 26.9616 162.924 26.7041 162.876 26.4388C162.827 26.1578 162.786 25.8847 162.753 25.6193C162.736 25.3537 162.75 25.1114 162.795 24.8924C162.841 24.6577 162.933 24.4462 163.072 24.2577C163.227 24.0692 163.281 23.8657 163.232 23.6473C163.31 23.6311 163.357 23.5918 163.372 23.5292C163.387 23.4509 163.45 23.4193 163.559 23.4342C163.651 23.1523 163.751 22.886 163.859 22.6353C163.966 22.3846 164.074 22.1417 164.182 21.9066C164.305 21.6714 164.421 21.4363 164.529 21.2012C164.652 20.9503 164.767 20.6761 164.875 20.3786C164.655 20.1769 164.489 19.9592 164.378 19.7256C164.283 19.4762 164.211 19.2345 164.163 19.0004C164.114 18.7507 164.073 18.501 164.041 18.2512C164.008 17.9858 163.951 17.7205 163.871 17.4554C164.026 17.22 164.212 17.0313 164.43 16.8892C164.663 16.7314 164.912 16.6048 165.177 16.5093C165.442 16.4138 165.731 16.3337 166.043 16.2692C166.355 16.2046 166.683 16.1321 167.026 16.0517C167.65 15.8445 168.203 15.6846 168.687 15.572C169.186 15.4593 169.67 15.3702 170.138 15.3046C170.622 15.2233 171.122 15.1497 171.637 15.0837C172.152 15.0178 172.737 14.9202 173.393 14.7909C173.534 14.9306 173.668 15 173.793 14.9992C173.854 14.8582 173.924 14.8186 174.003 14.8806C174.097 14.9269 174.136 14.8797 174.119 14.7392C174.277 15.0038 174.474 15.2291 174.709 15.415C174.961 15.5852 175.235 15.7319 175.533 15.8549ZM184.573 29.0376C184.323 29.0549 184.011 29.0492 183.636 29.0204C183.276 28.9915 182.94 29.0484 182.629 29.1911C181.801 29.1653 180.956 29.0693 180.096 28.9032C179.235 28.737 178.445 28.5312 177.724 28.286C177.567 28.1152 177.41 27.9599 177.252 27.8204C177.095 27.6651 176.884 27.5572 176.618 27.4964C176.241 27.202 175.933 26.8447 175.696 26.4244C175.459 25.9884 175.269 25.5287 175.125 25.0453C174.981 24.5619 174.884 24.0703 174.834 23.5706C174.783 23.0553 174.765 22.5632 174.777 22.0944C175.007 21.3897 175.331 20.786 175.75 20.2832C176.184 19.7647 176.626 19.254 177.075 18.751C177.278 18.6559 177.426 18.5612 177.519 18.4668C177.627 18.3567 177.736 18.2623 177.845 18.1834C177.969 18.0888 178.086 18.0021 178.195 17.9233C178.319 17.8287 178.428 17.7186 178.521 17.593C178.848 17.5127 179.129 17.4015 179.362 17.2593C179.611 17.1014 179.853 16.9436 180.086 16.7858C180.319 16.6123 180.56 16.4545 180.809 16.3122C181.058 16.1699 181.347 16.0587 181.674 15.9784C181.798 15.8369 181.946 15.7266 182.117 15.6473C182.289 15.5524 182.46 15.4654 182.631 15.3861C182.818 15.2911 182.989 15.1962 183.145 15.1014C183.316 15.0066 183.448 14.8807 183.541 14.7238C183.62 14.8483 183.73 14.8945 183.87 14.8623C184.01 14.8145 184.143 14.7667 184.268 14.719C184.346 14.7029 184.408 14.7181 184.455 14.7647C184.518 14.8111 184.573 14.8576 184.62 14.9042C184.668 14.9508 184.707 14.9817 184.738 14.9972C184.785 14.9969 184.824 14.9575 184.855 14.8792C184.933 14.8787 184.956 14.9176 184.926 14.9959C184.895 15.0743 184.872 15.1291 184.856 15.1605C184.981 15.144 185.083 15.1746 185.162 15.2522C185.256 15.3141 185.397 15.3522 185.584 15.3666C185.647 15.4443 185.663 15.5067 185.633 15.5538C185.601 15.5852 185.586 15.6478 185.587 15.7416C186.057 15.8791 186.355 16.1037 186.482 16.4154C186.609 16.7114 186.619 17.0238 186.512 17.3527C186.404 17.6815 186.211 17.9875 185.932 18.2706C185.652 18.5537 185.349 18.7432 185.021 18.8391C184.273 19.0472 183.563 19.2785 182.893 19.5329C182.238 19.7716 181.702 20.1267 181.283 20.5982C180.909 20.7101 180.574 20.8608 180.278 21.0502C179.998 21.2239 179.726 21.4289 179.462 21.665C179.213 21.8854 178.973 22.1214 178.74 22.3729C178.523 22.6087 178.29 22.8446 178.041 23.0807C178.059 23.2993 178.021 23.4714 177.928 23.597C177.85 23.7069 177.773 23.8246 177.696 23.9502C177.728 24.1843 177.785 24.3949 177.864 24.5819C177.943 24.7532 178.03 24.9245 178.125 25.0958C179.158 25.4015 180.253 25.5895 181.41 25.66C182.583 25.7304 183.755 25.7695 184.927 25.7774C185.037 25.9329 185.163 26.0805 185.305 26.2202C185.462 26.3442 185.603 26.4839 185.729 26.6393C185.855 26.7791 185.958 26.9425 186.037 27.1295C186.116 27.3008 186.133 27.5195 186.088 27.7854C185.871 28.0212 185.63 28.2416 185.366 28.4464C185.102 28.6357 184.837 28.8328 184.573 29.0376ZM200.412 17.6124C200.021 17.615 199.6 17.649 199.147 17.7145C198.694 17.7644 198.249 17.822 197.812 17.8874C197.5 17.9363 197.196 17.9774 196.899 18.0106C196.618 18.0437 196.36 18.0689 196.126 18.086C196.019 18.4305 195.912 18.7359 195.804 19.0022C195.696 19.2686 195.581 19.5272 195.458 19.778C195.334 20.0444 195.219 20.3186 195.111 20.6006C195.019 20.8669 194.928 21.1565 194.836 21.4696C194.681 21.7207 194.55 21.9559 194.442 22.1754C194.35 22.3791 194.273 22.614 194.212 22.88C194.026 23.1156 193.887 23.3666 193.795 23.6328C193.703 23.8834 193.635 24.1026 193.589 24.2904L193.497 24.5723C193.404 24.6667 193.35 24.7452 193.334 24.8078C193.319 24.8547 193.28 24.9019 193.218 24.9492C193.204 25.1211 193.15 25.2934 193.058 25.4659C193.027 25.5442 193.004 25.6225 192.989 25.7007C192.974 25.7633 192.966 25.8102 192.966 25.8415C192.967 25.9977 192.929 26.0995 192.851 26.1469C192.867 26.2249 192.868 26.3109 192.853 26.4047C192.838 26.483 192.823 26.5612 192.808 26.6394C192.762 26.8272 192.747 26.9757 192.764 27.085C192.811 27.1472 192.85 27.2016 192.882 27.2483C192.929 27.2949 192.961 27.3572 192.977 27.4352C193.071 27.4971 193.142 27.5357 193.189 27.551C193.251 27.5974 193.345 27.6515 193.471 27.7132L193.683 27.9461C193.764 28.3987 193.697 28.7586 193.48 29.0256C193.247 29.3241 192.85 29.4751 192.287 29.4788L192.006 29.4807C191.927 29.4031 191.88 29.3409 191.864 29.2941C191.739 29.2481 191.637 29.2097 191.559 29.179C191.48 29.1482 191.41 29.0862 191.346 28.9929C191.143 28.9005 190.978 28.8234 190.853 28.7617L190.641 28.646C190.64 28.4741 190.639 28.3803 190.639 28.3647C190.529 28.2248 190.442 28.0691 190.378 27.8977C190.33 27.7261 190.29 27.5545 190.258 27.3828C190.225 27.2424 190.186 27.1099 190.138 26.9852C190.106 26.8604 190.058 26.7513 189.995 26.658C189.958 25.752 190.039 24.9858 190.238 24.3595C190.437 23.7331 190.644 23.1302 190.859 22.5506C190.981 22.2373 191.104 21.924 191.227 21.6107C191.35 21.2817 191.457 20.9451 191.549 20.6007L191.758 20.365C191.866 20.1142 191.951 19.9105 192.012 19.7539C192.089 19.5815 192.166 19.4091 192.243 19.2367C192.289 19.127 192.327 19.0252 192.358 18.9313C192.404 18.8216 192.443 18.7276 192.473 18.6493C192.38 18.6499 192.294 18.6583 192.216 18.6744C192.138 18.6749 192.06 18.6832 191.982 18.6994C191.888 18.7156 191.802 18.7318 191.724 18.748C191.646 18.7485 191.568 18.749 191.49 18.7495C191.38 18.7502 191.302 18.7429 191.255 18.7276C191.084 18.8069 190.897 18.8472 190.693 18.8485L190.459 18.8501C190.412 18.8504 190.365 18.8507 190.318 18.851C190.287 18.8356 190.256 18.828 190.225 18.8282C190.068 18.8292 189.943 18.8535 189.85 18.901C189.663 18.9022 189.483 18.9034 189.311 18.9045L189.077 18.9061C189.045 18.9063 189.006 18.9144 188.96 18.9303C188.913 18.9306 188.874 18.9309 188.842 18.9311C188.733 18.9318 188.616 18.9248 188.491 18.91C188.366 18.8795 188.232 18.8257 188.091 18.7485C187.902 18.4998 187.776 18.3678 187.714 18.3526L187.501 18.0727C187.485 17.9791 187.461 17.8933 187.429 17.8154C187.397 17.7218 187.365 17.6205 187.333 17.5113C187.269 17.3555 187.206 17.1918 187.142 17.0204C187.094 16.8332 187.069 16.6146 187.068 16.3646C187.082 16.2395 187.113 16.1456 187.159 16.0828C187.206 16.0199 187.245 15.965 187.276 15.9179L187.344 15.5659L187.648 15.5873L188.305 15.583C188.805 15.5797 189.312 15.5607 189.828 15.526C190.343 15.4758 190.874 15.4254 191.421 15.3749C191.733 15.3416 192.045 15.3083 192.357 15.2749C192.685 15.2415 193.021 15.2081 193.365 15.1745C193.426 15.0335 193.488 14.9003 193.549 14.7749L193.783 14.6561C194.064 14.6387 194.26 14.6764 194.37 14.7694C194.495 14.8467 194.597 14.9242 194.676 15.0018C195.019 14.9683 195.363 14.9348 195.707 14.9012C196.066 14.852 196.425 14.7949 196.784 14.7301C197.314 14.6484 197.845 14.5746 198.376 14.5086C198.922 14.4425 199.446 14.4078 199.946 14.4045C200.164 14.403 200.375 14.4094 200.579 14.4237C200.782 14.438 200.969 14.4602 201.141 14.4903L201.377 14.6528C201.424 14.7463 201.487 14.8318 201.566 14.9094C201.66 14.9869 201.755 15.0644 201.849 15.1419C202.038 15.3125 202.226 15.5144 202.415 15.7475C202.604 15.9807 202.677 16.324 202.633 16.7774C202.509 16.9657 202.416 17.0757 202.354 17.1074L202.145 17.39L201.91 17.3681C201.817 17.3687 201.731 17.3849 201.653 17.4167C201.575 17.4328 201.497 17.4568 201.419 17.4885C201.357 17.5202 201.295 17.5519 201.232 17.5835C201.17 17.5996 201.1 17.6157 201.022 17.6318C200.881 17.6327 200.764 17.6335 200.67 17.6341C200.592 17.619 200.506 17.6118 200.412 17.6124ZM203.616 27.2242C203.698 27.6925 203.669 28.0598 203.53 28.3264C203.407 28.5928 203.22 28.7894 202.971 28.916C202.738 29.0582 202.465 29.1381 202.152 29.1558C201.84 29.1735 201.543 29.1599 201.262 29.1148C201.104 28.8971 200.961 28.6246 200.834 28.2973C200.707 27.97 200.588 27.6349 200.476 27.2919C200.364 26.9332 200.26 26.5823 200.164 26.2392C200.084 25.896 200.012 25.5918 199.947 25.3266C200.024 25.1386 200.07 24.9273 200.084 24.6928C200.113 24.4426 200.127 24.1925 200.126 23.9425C200.14 23.6924 200.146 23.4424 200.144 23.1924C200.158 22.9267 200.18 22.6765 200.21 22.442C200.315 21.785 200.467 21.159 200.666 20.5639C200.881 19.9687 201.049 19.3504 201.169 18.709C201.2 18.5681 201.183 18.4354 201.12 18.3109C201.072 18.1862 201.064 18.069 201.094 17.9595C201.109 17.8969 201.156 17.8575 201.234 17.8413C201.312 17.8096 201.358 17.7546 201.373 17.6764C201.419 17.5042 201.426 17.3635 201.394 17.2543C201.378 17.1451 201.408 17.012 201.485 16.8553C201.563 16.7298 201.655 16.5495 201.763 16.3144C201.886 16.0636 201.931 15.8054 201.898 15.54C202.038 15.4453 202.171 15.3351 202.295 15.2093C202.419 15.0834 202.543 14.9733 202.667 14.8787C202.807 14.7684 202.955 14.6736 203.111 14.5945C203.282 14.5152 203.485 14.4748 203.72 14.4733C203.846 14.6287 203.925 14.8001 203.957 14.9873C204.005 15.1745 204.046 15.3618 204.078 15.5491C204.126 15.7362 204.19 15.9155 204.269 16.0869C204.348 16.2426 204.482 16.3667 204.67 16.4592C204.671 16.5842 204.672 16.7405 204.673 16.928C204.675 17.1155 204.684 17.3029 204.7 17.4903C204.717 17.6621 204.75 17.8259 204.797 17.9819C204.861 18.1221 204.955 18.2152 205.081 18.2612C204.804 19.0131 204.544 19.757 204.298 20.493C204.069 21.2289 203.878 21.9724 203.727 22.7234C203.576 23.4588 203.479 24.2016 203.437 24.9519C203.411 25.7021 203.471 26.4596 203.616 27.2242ZM214.123 24.6704C214.109 24.8892 214.056 25.1005 213.963 25.3043C213.886 25.4923 213.786 25.6804 213.662 25.8688C213.538 26.0415 213.399 26.2143 213.244 26.3872C213.104 26.5443 212.965 26.6859 212.825 26.8118C212.873 27.0146 212.874 27.1709 212.828 27.2806C212.797 27.3745 212.79 27.523 212.807 27.726C212.577 28.3525 212.22 28.769 211.737 28.9753C211.27 29.1971 210.825 29.161 210.401 28.8669C210.228 28.7431 210.079 28.5878 209.952 28.4011C209.842 28.1987 209.685 28.0748 209.481 28.0292C209.526 27.7633 209.501 27.4979 209.406 27.2329C209.31 26.9679 209.208 26.8279 209.098 26.813C209.049 26.4852 208.976 26.1341 208.88 25.7597C208.784 25.3854 208.696 25.0109 208.615 24.6365C208.534 24.2464 208.461 23.8718 208.397 23.5129C208.347 23.1382 208.329 22.7946 208.343 22.482C208.357 22.3256 208.325 22.1852 208.246 22.0607C208.183 21.9361 208.135 21.788 208.103 21.6163C208.038 21.2574 208.012 20.8826 208.025 20.4918C208.054 20.0854 208.067 19.7025 208.064 19.3431C208.062 18.9994 208.036 18.6323 207.987 18.242C207.953 17.836 207.919 17.4534 207.885 17.0942C207.852 16.7195 207.834 16.3836 207.832 16.0868C207.83 15.7743 207.867 15.5318 207.944 15.3594C208.037 15.1713 208.161 15.0221 208.316 14.9117C208.487 14.7855 208.643 14.6517 208.782 14.5101C209.126 14.5391 209.401 14.6779 209.605 14.9266C209.81 15.1752 209.89 15.4091 209.844 15.6281C210.174 15.8291 210.434 16.093 210.623 16.4199C210.828 16.731 210.987 17.0894 211.099 17.4949C211.227 17.8847 211.315 18.306 211.365 18.7588C211.415 19.196 211.457 19.6332 211.491 20.0705C211.525 20.4921 211.559 20.8982 211.593 21.2886C211.627 21.679 211.691 22.0145 211.787 22.2951C212.36 21.4632 212.839 20.7256 213.226 20.0825C213.612 19.4236 214.006 18.796 214.408 18.1996C214.811 17.6032 215.26 16.9986 215.756 16.386C216.252 15.7733 216.896 15.0815 217.688 14.3107C217.844 14.3252 217.969 14.3557 218.063 14.4019C218.173 14.4481 218.267 14.4865 218.345 14.5172C218.423 14.548 218.517 14.5786 218.627 14.6091C218.736 14.624 218.885 14.6152 219.072 14.5828C219.136 14.7386 219.183 14.8555 219.215 14.9334C219.247 14.9957 219.271 15.0658 219.287 15.1439C219.318 15.2061 219.35 15.2919 219.382 15.401C219.43 15.5101 219.501 15.6659 219.596 15.8684C219.643 15.9149 219.66 15.9773 219.644 16.0556C219.629 16.1338 219.614 16.212 219.599 16.2903C219.599 16.3527 219.6 16.3996 219.6 16.4309C219.6 16.4621 219.639 16.4619 219.717 16.4301C219.672 16.6492 219.587 16.8528 219.463 17.0412C219.355 17.2138 219.31 17.425 219.327 17.6749C218.971 18.146 218.575 18.633 218.141 19.1359C217.723 19.6387 217.296 20.1571 216.862 20.6912C216.444 21.2253 216.042 21.7904 215.655 22.3868C215.268 22.9675 214.936 23.579 214.659 24.2215C214.581 24.222 214.519 24.2459 214.472 24.2931C214.441 24.3401 214.41 24.395 214.379 24.4577C214.349 24.5048 214.31 24.5519 214.263 24.5991C214.232 24.6462 214.186 24.67 214.123 24.6704Z" fill="#333333"/>
<path d="M245.715 39.5898L258.926 28.3881L242.619 22.5482L245.715 39.5898ZM246.431 6.40381C247.771 11.1899 249.272 19.4536 248.77 26.7775L251.763 26.9824C252.296 19.2031 250.716 10.5787 249.32 5.59492L246.431 6.40381Z" fill="#333333"/>
<path d="M17.875 39.5898L4.66433 28.3881L20.9706 22.5482L17.875 39.5898ZM17.1587 6.40381C15.8186 11.1899 14.3182 19.4536 14.8196 26.7775L11.8266 26.9824C11.294 19.2031 12.8743 10.5787 14.2698 5.59492L17.1587 6.40381Z" fill="#333333"/>
</svg>
