<svg width="232" height="35" viewBox="0 0 232 35" fill="none" xmlns="http://www.w3.org/2000/svg">
<path d="M213.715 34.5898L226.926 23.3881L210.619 17.5482L213.715 34.5898ZM214.431 1.40381C215.771 6.18986 217.272 14.4536 216.77 21.7775L219.763 21.9824C220.296 14.2031 218.716 5.57869 217.32 0.594918L214.431 1.40381Z" fill="white"/>
<path d="M10.5549 18.1259C10.5441 18.2666 10.5567 18.4013 10.5927 18.53C10.6287 18.6586 10.6706 18.7873 10.7183 18.9159C10.7777 19.0327 10.8312 19.1553 10.8789 19.2839C10.9267 19.4125 10.9627 19.5412 10.987 19.67C11.0115 19.8339 11.0127 20.0155 10.9906 20.2149C10.9684 20.4025 10.9286 20.5903 10.8712 20.7782C10.8138 20.9543 10.7387 21.1189 10.646 21.2719C10.5532 21.4131 10.4425 21.5193 10.3141 21.5905C10.1514 21.8025 9.9533 21.9679 9.7197 22.0866C9.48611 22.2053 9.27024 22.3474 9.07211 22.5127C8.94375 22.5956 8.79766 22.6552 8.63383 22.6914C8.48172 22.7276 8.32376 22.7638 8.15993 22.8C8.03149 22.8712 7.87965 22.9484 7.70442 23.0316C7.52911 23.103 7.34793 23.1745 7.1609 23.2461C6.97379 23.3059 6.78661 23.354 6.59934 23.3904C6.412 23.4151 6.24798 23.4221 6.10728 23.4113C5.75658 23.5425 5.41143 23.6268 5.07182 23.6642C4.74402 23.7133 4.35715 23.6924 3.91123 23.6016C3.48975 23.6629 3.09706 23.648 2.73317 23.5566C2.381 23.4652 2.06363 23.3208 1.78107 23.1234C1.51015 22.9143 1.26829 22.6698 1.0555 22.3899C0.854352 22.0983 0.688279 21.7947 0.557285 21.4792C0.459122 20.8118 0.478571 20.2082 0.615631 19.6682C0.752613 19.1165 0.948497 18.6113 1.20328 18.1525C1.46971 17.682 1.77157 17.2523 2.10885 16.8633C2.44605 16.4627 2.77161 16.0738 3.08553 15.6967C3.156 15.7197 3.20873 15.7193 3.24373 15.6956C3.29037 15.6602 3.33112 15.6189 3.36596 15.5718C3.40073 15.513 3.43554 15.46 3.47038 15.4129C3.51695 15.3657 3.56949 15.3361 3.628 15.324C3.70887 15.1476 3.8252 15.018 3.977 14.9349C4.14044 14.8401 4.26849 14.7103 4.36116 14.5457C4.46647 14.5215 4.55412 14.4858 4.62413 14.4385C4.69413 14.3911 4.75823 14.338 4.81644 14.279C4.88636 14.2199 4.95632 14.1667 5.02632 14.1194C5.09625 14.0603 5.17801 14.0188 5.2716 13.9947L5.27032 13.8014C5.48063 13.7062 5.63228 13.5997 5.72525 13.4819C5.82987 13.3523 5.9519 13.1992 6.09136 13.0225C6.19675 13.0101 6.27874 13.0037 6.33733 13.0033C6.40765 13.0028 6.50718 12.9904 6.63592 12.9661C6.72859 12.8015 6.8098 12.6779 6.87957 12.5954C6.96106 12.5128 7.07766 12.4241 7.22939 12.3294C7.37047 12.3988 7.52312 12.4446 7.68734 12.467C7.86327 12.4893 8.01611 12.5644 8.14587 12.6925C8.15836 12.8096 8.19414 12.9031 8.25319 12.973C8.31217 13.0312 8.37701 13.0894 8.44771 13.1475C8.51833 13.1939 8.58313 13.2462 8.64211 13.3045C8.71281 13.3626 8.76022 13.4443 8.78436 13.5496C8.83131 13.561 8.86057 13.555 8.87213 13.5315C8.89541 13.5079 8.93053 13.5018 8.97748 13.5132C9.01372 13.677 9.05547 13.7881 9.10273 13.8463C9.14992 13.8929 9.19745 13.9922 9.24533 14.1442C9.18751 14.2618 9.14145 14.3852 9.10715 14.5143C9.08448 14.6316 9.01475 14.72 8.89796 14.7794C8.88678 14.8615 8.91053 14.9082 8.9692 14.9195C9.02779 14.9191 9.06314 14.9482 9.07524 15.0067C9.08766 15.1121 9.07059 15.1884 9.02402 15.2356C9.30829 15.6907 9.56345 16.1754 9.78951 16.6895C10.0155 17.1919 10.2706 17.6707 10.5549 18.1259ZM8.36869 19.8103C8.41471 19.6811 8.47261 19.5752 8.54238 19.4927C8.62387 19.4102 8.66993 19.2868 8.68056 19.1227C8.62135 19.0293 8.58573 18.9592 8.5737 18.9124C8.5616 18.8539 8.55516 18.7661 8.55438 18.6489C8.29417 18.2873 8.06897 17.9021 7.87876 17.4932C7.68848 17.0726 7.47495 16.6814 7.23818 16.3197C7.21505 16.3667 7.17435 16.4138 7.11606 16.4611C7.05778 16.5084 6.99325 16.4971 6.92248 16.4272C6.89966 16.5211 6.85911 16.5917 6.80082 16.639C6.74246 16.6745 6.67813 16.6925 6.60782 16.693C6.53743 16.6817 6.46114 16.6646 6.37896 16.6417C6.30842 16.6071 6.24369 16.5665 6.18479 16.52C5.84674 16.7918 5.50864 17.0577 5.17051 17.3177C4.83238 17.5778 4.52967 17.8786 4.26239 18.2202C4.21567 18.244 4.18645 18.2559 4.17473 18.256C4.16294 18.2443 4.12782 18.2504 4.06938 18.2742C3.97711 18.4975 3.86128 18.7034 3.7219 18.8918C3.59415 19.0684 3.46645 19.2509 3.33879 19.4392C3.21112 19.6276 3.10111 19.8275 3.00876 20.0391C2.91641 20.2506 2.8653 20.4971 2.85544 20.7784C3.05574 20.9411 3.29077 21.0392 3.56052 21.0726C3.83028 21.106 4.1057 21.11 4.38679 21.0847C4.6796 21.0593 4.96061 21.0223 5.22983 20.9737C5.51068 20.9132 5.7683 20.8822 6.00267 20.8807C6.49407 20.7602 6.91493 20.6051 7.26524 20.4153C7.61548 20.2137 7.9833 20.0121 8.36869 19.8103ZM20.9417 20.4655C21.0122 20.5002 21.0536 20.5585 21.0659 20.6405C21.0781 20.7224 21.0785 20.7869 21.0671 20.8338C20.858 21.1048 20.7127 21.2932 20.6314 21.3992C20.5501 21.5052 20.492 21.5877 20.4573 21.6465C20.4224 21.6936 20.3817 21.7349 20.335 21.7703C20.3001 21.8057 20.2127 21.8825 20.0729 22.0006C19.5476 22.3205 19.0046 22.6053 18.4437 22.8551C17.8946 23.1048 17.3156 23.2786 16.7069 23.3764C16.614 23.5059 16.4329 23.595 16.1637 23.6436C15.9063 23.7039 15.6664 23.7583 15.4441 23.8066C15.3971 23.7835 15.3675 23.7485 15.3555 23.7017C15.3553 23.6666 15.3316 23.6374 15.2846 23.6143C15.2737 23.7316 15.2213 23.7905 15.1276 23.7911C15.0339 23.8035 14.9166 23.7808 14.7756 23.7231C14.6463 23.6771 14.5053 23.6077 14.3523 23.515C14.2111 23.4339 14.0876 23.3585 13.9816 23.2889C13.9237 23.3831 13.8598 23.4772 13.7902 23.5714C13.7322 23.6656 13.6564 23.7305 13.5629 23.7663C13.4339 23.7437 13.3341 23.7268 13.2637 23.7155C13.2051 23.7042 13.1466 23.728 13.0884 23.787C13.0179 23.7523 12.959 23.7117 12.9118 23.6651C12.8764 23.6185 12.8351 23.5719 12.7879 23.5253C12.7525 23.4904 12.7054 23.4556 12.6466 23.4208C12.5994 23.3859 12.5289 23.3571 12.435 23.3343C12.4582 23.2873 12.446 23.217 12.3985 23.1236C12.3509 23.0184 12.2802 22.9544 12.1863 22.9316C12.2326 22.8493 12.2085 22.7498 12.114 22.6333C12.0311 22.5049 11.9657 22.3647 11.9178 22.2127C11.9404 22.0836 11.9571 21.9429 11.9678 21.7905C11.9785 21.6381 12.0482 21.5497 12.177 21.5254C12.1647 21.4435 12.1467 21.3733 12.1229 21.3148C12.099 21.2564 12.0752 21.198 12.0514 21.1395C12.133 21.0687 12.191 20.9862 12.2255 20.8923C12.26 20.7866 12.2886 20.6809 12.3113 20.5753C12.3341 20.4697 12.3627 20.364 12.3971 20.2583C12.4316 20.1526 12.4955 20.0643 12.5887 19.9934C12.6919 19.6411 12.7722 19.3828 12.8297 19.2183C12.8872 19.0421 12.927 18.872 12.9494 18.7077C12.9835 18.5435 13.0175 18.3674 13.0514 18.1797C13.097 17.9919 13.1716 17.757 13.2752 17.4751C13.2624 17.2994 13.2789 17.1469 13.325 17.0177C13.3709 16.8768 13.4169 16.7417 13.4629 16.6125C13.5206 16.4715 13.5665 16.3306 13.6007 16.1897C13.6349 16.0371 13.6279 15.8614 13.5797 15.6625C13.4157 15.6753 13.2989 15.7347 13.2293 15.8406C13.1596 15.9348 13.1136 16.064 13.0912 16.2282C12.9981 16.3226 12.8812 16.3703 12.7406 16.3712C12.6116 16.3603 12.4945 16.3728 12.3893 16.4087C11.978 16.2473 11.6367 16.0152 11.3651 15.7123C11.0936 15.4094 10.8744 15.0534 10.7077 14.6443C10.8113 14.3741 10.9681 14.1504 11.1778 13.9733C11.3875 13.7844 11.6268 13.6304 11.8955 13.5115C12.1642 13.3808 12.4506 13.2793 12.7548 13.207C13.059 13.1229 13.3514 13.0448 13.6322 12.9726C14.0887 12.8876 14.5451 12.7908 15.0014 12.6823C15.4577 12.5738 15.9497 12.5354 16.4773 12.5671C16.5473 12.5315 16.6292 12.5134 16.723 12.5128C16.8284 12.5003 16.9338 12.4938 17.0393 12.4931C17.1447 12.4924 17.2443 12.4917 17.3381 12.4911C17.4435 12.4787 17.5312 12.4547 17.6013 12.4191C17.6604 12.489 17.7427 12.5353 17.8483 12.558C17.9656 12.569 18.089 12.6209 18.2185 12.7138C18.3584 12.6074 18.4754 12.5832 18.5696 12.6412C18.6754 12.6991 18.7696 12.7629 18.8521 12.8327C18.9346 12.9024 19.0112 12.9664 19.0819 13.0245C19.1643 13.0826 19.2465 13.1113 19.3286 13.1108C19.4113 13.2157 19.5116 13.3147 19.6294 13.4076C19.7589 13.5005 19.8767 13.5994 19.9829 13.7041C20.1007 13.7971 20.1951 13.9019 20.2662 14.0187C20.349 14.1353 20.3909 14.2698 20.3919 14.4221C20.3806 14.4808 20.3984 14.5158 20.4454 14.5273C20.4923 14.5387 20.5276 14.5619 20.5513 14.5969C20.5654 14.9601 20.5089 15.2769 20.3818 15.5472C20.2663 15.8058 20.1156 16.047 19.9295 16.2709C19.7552 16.4948 19.5574 16.707 19.3361 16.9077C19.1265 17.1083 18.9345 17.3205 18.7602 17.5443C18.8784 17.6959 19.014 17.8298 19.1672 17.9459C19.3203 18.0621 19.4734 18.1783 19.6265 18.2945C19.7913 18.4106 19.9445 18.5326 20.086 18.6606C20.2274 18.7886 20.3456 18.9401 20.4405 19.1153C20.4641 19.1386 20.4936 19.1618 20.5289 19.185C20.5641 19.1965 20.5994 19.2138 20.6347 19.237C20.6706 19.354 20.7183 19.4767 20.7778 19.6053C20.8371 19.722 20.8848 19.8389 20.9207 19.9559C20.9683 20.061 20.9982 20.1604 21.0106 20.2541C21.0228 20.3361 20.9999 20.4065 20.9417 20.4655ZM17.8092 14.615C17.2114 14.5955 16.6141 14.6522 16.0173 14.785C15.4322 14.9178 14.9412 15.1027 14.5444 15.3397C14.7447 15.5025 14.9448 15.6476 15.1449 15.7752C15.3567 15.9027 15.5219 16.0774 15.6406 16.2993C16.0964 16.1088 16.4991 15.8717 16.8488 15.5882C17.1984 15.2929 17.5185 14.9685 17.8092 14.615ZM18.0747 20.2208C18.1091 20.1034 18.173 20.0092 18.2662 19.9383C18.3595 19.8673 18.4528 19.8023 18.5462 19.743C18.6395 19.6721 18.7211 19.6013 18.7909 19.5305C18.8607 19.448 18.8892 19.3365 18.8766 19.1959C18.5003 18.9992 18.1538 18.8843 17.8372 18.8512C17.5322 18.8064 17.2392 18.8083 16.9583 18.857C16.689 18.894 16.4257 18.9543 16.1684 19.038C15.9229 19.1217 15.6713 19.182 15.4138 19.2188C15.2871 19.5595 15.1548 19.9295 15.0168 20.3289C14.8788 20.7282 14.7466 21.1158 14.6202 21.4917C14.9714 21.4425 15.2932 21.37 15.5856 21.2744C15.8778 21.167 16.1583 21.0538 16.4271 20.9348C16.7076 20.8158 16.9763 20.6968 17.2333 20.5779C17.502 20.4472 17.7825 20.3282 18.0747 20.2208ZM30.0823 15.114C30.0608 15.4188 30.0275 15.6886 29.9821 15.9232C29.9368 16.1579 29.874 16.4044 29.7937 16.6628C29.6007 17.6133 29.3723 18.5172 29.1085 19.3744C28.8563 20.2316 28.5626 21.0011 28.2272 21.683C27.9248 22.0249 27.6279 22.3257 27.3367 22.5854C27.0571 22.8451 26.7419 23.0288 26.3911 23.1366C26.2154 23.1612 26.0574 23.1915 25.9171 23.2276C25.7883 23.2519 25.6596 23.2821 25.5309 23.3181C25.4724 23.3302 25.408 23.3423 25.3378 23.3545C25.2793 23.3666 25.2208 23.3846 25.1624 23.4084C24.9864 23.3744 24.8162 23.3462 24.652 23.3239C24.4996 23.3132 24.359 23.3082 24.2301 23.3091L24.0011 23.2403C23.8837 23.2059 23.7897 23.1772 23.7193 23.1542C23.6605 23.1312 23.6018 23.114 23.5431 23.1027C23.4961 23.0795 23.4374 23.0624 23.367 23.0511C23.3083 23.0398 23.2086 23.0287 23.0679 23.0179C22.8926 23.0894 22.7288 23.1256 22.5765 23.1266C22.3655 23.128 22.1364 23.0417 21.8892 22.8675C21.6419 22.6934 21.4344 22.3197 21.2665 21.7466C21.2885 21.5238 21.3224 21.3302 21.3682 21.1658C21.4022 20.9898 21.4423 20.8548 21.4885 20.7607C21.7687 20.5948 22.0025 20.5112 22.19 20.51C22.4127 20.5085 22.6238 20.5423 22.8235 20.6113C23.0349 20.6802 23.2405 20.755 23.4403 20.8357C23.5342 20.8703 23.5989 20.8991 23.6342 20.9223C23.6695 20.9455 23.6989 20.9629 23.7224 20.9745C23.7459 20.9861 23.7694 20.9918 23.7929 20.9916C23.828 20.9914 23.8925 20.9909 23.9862 20.9903C24.0448 20.9899 24.0917 20.9896 24.1268 20.9894C24.1736 20.9774 24.2204 20.9653 24.2672 20.9533L24.4431 20.9697C24.5137 21.0044 24.5958 21.0215 24.6895 21.0208C24.8067 21.0201 24.953 20.9898 25.1284 20.93C25.2102 20.8943 25.2745 20.8705 25.3213 20.8585C25.3798 20.8463 25.4383 20.8342 25.4968 20.8221L25.6365 20.6806C25.7418 20.6447 25.8177 20.6032 25.8642 20.556C25.9225 20.5088 25.969 20.4557 26.0038 20.3969C26.0503 20.338 26.0909 20.2733 26.1256 20.2027C26.1603 20.1322 26.2066 20.0557 26.2647 19.9733C26.3112 19.9144 26.3518 19.8555 26.3866 19.7967C26.4331 19.7378 26.4795 19.6789 26.526 19.62L26.5249 19.4442C26.675 19.1034 26.8074 18.7509 26.9222 18.3869C27.0369 18.0111 27.1399 17.6354 27.2312 17.2598C27.3224 16.8842 27.3962 16.5204 27.4525 16.1685C27.5205 15.8165 27.577 15.4997 27.622 15.2181L27.4462 15.2193C27.1532 15.2212 26.913 15.2287 26.7256 15.2416C26.5381 15.2429 26.3683 15.2557 26.2161 15.2802C26.0638 15.2929 25.8999 15.3174 25.7244 15.3537C25.5606 15.39 25.3499 15.4324 25.0924 15.4809L24.8291 15.5354C24.6539 15.6303 24.4787 15.7135 24.3034 15.785C24.1281 15.8565 23.9525 15.8928 23.7767 15.8939C23.4721 15.896 23.2135 15.7805 23.001 15.5475C22.7773 15.3966 22.6471 15.1983 22.6103 14.9524C22.5513 14.8825 22.5332 14.8006 22.556 14.7067C22.5082 14.5664 22.4839 14.4435 22.4832 14.338C22.4825 14.2208 22.4818 14.1154 22.4811 14.0216L22.4795 13.7755L22.708 13.774C22.7662 13.715 22.807 13.6737 22.8303 13.6501C22.8535 13.6148 22.8708 13.5737 22.8822 13.5268L23.0745 13.3673C23.2735 13.3425 23.4784 13.3119 23.6891 13.2753C23.9115 13.227 24.1397 13.1786 24.3737 13.1302C24.5961 13.0818 24.7833 13.0454 24.9355 13.021C25.0994 12.9965 25.2516 12.9779 25.3922 12.9652C25.5445 12.9525 25.6968 12.9456 25.8491 12.9446C26.0131 12.9318 26.2005 12.9247 26.4115 12.9233L26.8158 12.9207C26.8506 12.8736 26.8856 12.8499 26.9208 12.8497C26.9676 12.8376 27.0027 12.8315 27.0261 12.8314C27.0847 12.831 27.1316 12.8365 27.1668 12.848C27.2021 12.8595 27.2314 12.871 27.255 12.8826C27.5827 12.8218 27.8871 12.7847 28.1683 12.7711C28.4494 12.7458 28.7013 12.7324 28.9239 12.731C29.0411 12.7302 29.1466 12.7295 29.2403 12.7289C29.3458 12.7282 29.4454 12.7334 29.5393 12.7445L30.1193 12.7406L30.506 12.7381C30.5645 12.726 30.6583 12.7195 30.7872 12.7186C30.9747 12.7174 31.0919 12.7225 31.1388 12.7339C31.1974 12.7335 31.2971 12.7446 31.4379 12.7671C31.6021 12.7894 31.7487 12.8119 31.8778 12.8345C32.0185 12.8453 32.1592 12.8502 32.2998 12.8493L32.5634 12.8475L32.6173 13.023L32.7591 13.1978C32.7829 13.2562 32.8184 13.3087 32.8656 13.3553C32.9245 13.4018 32.9835 13.4541 33.0425 13.5123C33.1604 13.6288 33.2726 13.7628 33.3791 13.9144C33.4973 14.066 33.5398 14.2942 33.5067 14.5991L33.3849 14.7933C33.3265 14.8171 33.2565 14.8703 33.175 14.9529L33.0178 15.0946C32.8889 15.1071 32.7777 15.1196 32.684 15.1319C32.5903 15.1326 32.4965 15.1332 32.4028 15.1338C32.227 15.135 32.0453 15.1303 31.8577 15.1198C31.6819 15.1093 31.4943 15.0988 31.295 15.0884C31.1896 15.0891 31.1075 15.0896 31.0489 15.09C30.9903 15.0904 30.9317 15.0908 30.8732 15.0912C30.8263 15.0915 30.7735 15.0918 30.715 15.0922C30.6564 15.0926 30.5802 15.0931 30.4864 15.0937C30.3927 15.0943 30.3224 15.0948 30.2755 15.0951C30.2286 15.0954 30.1642 15.1017 30.0823 15.114ZM40.9865 13.3016C40.9988 13.3836 40.9992 13.448 40.9878 13.495C40.9881 13.5301 40.9824 13.5653 40.9709 13.6006C40.9712 13.6357 40.9714 13.6767 40.9718 13.7236C40.972 13.7588 40.9841 13.8173 41.0081 13.8992C40.7646 14.2992 40.4793 14.5765 40.1522 14.731C39.8368 14.8737 39.4918 14.9815 39.1172 15.0543C38.7426 15.1153 38.3563 15.1823 37.9584 15.2553C37.5721 15.3282 37.1864 15.4831 36.8013 15.72C36.6485 15.6624 36.5079 15.6633 36.3794 15.7228C36.2626 15.7821 36.0869 15.8009 35.8524 15.779C35.7826 15.8498 35.695 15.9031 35.5898 15.9389C35.4845 15.9631 35.3792 15.9931 35.274 16.0289C35.3215 16.1341 35.3399 16.2453 35.3289 16.3625C35.3296 16.468 35.3478 16.5558 35.3834 16.6259C35.7938 16.6583 36.2449 16.6495 36.7368 16.5993C37.2403 16.5491 37.7323 16.5166 38.2127 16.5017C38.2248 16.5602 38.2192 16.6012 38.1959 16.6248C38.1726 16.6367 38.1669 16.666 38.179 16.7128C38.2614 16.7709 38.3439 16.8465 38.4266 16.9397C38.5091 17.0212 38.5917 17.1027 38.6743 17.1842C38.7568 17.2657 38.8393 17.3354 38.9217 17.3935C39.0158 17.4398 39.1214 17.4566 39.2385 17.4441C39.286 17.5376 39.316 17.6429 39.3285 17.76C39.3526 17.8653 39.3416 17.9767 39.2955 18.0942C39.1089 18.2243 38.9223 18.3603 38.7357 18.5022C38.5491 18.6323 38.3506 18.7508 38.1404 18.8577C37.9419 18.9645 37.7257 19.0538 37.4918 19.1256C37.2695 19.1857 37.0177 19.2108 36.7364 19.2009C36.6778 19.2013 36.6309 19.2016 36.5958 19.2019C36.5723 19.202 36.537 19.1847 36.4899 19.1498C36.3966 19.2091 36.2619 19.2275 36.086 19.2052C35.9218 19.1829 35.793 19.2013 35.6996 19.2605C35.5704 19.2028 35.412 19.1804 35.2246 19.1934C35.0488 19.1945 34.8904 19.1721 34.7495 19.1262C34.5636 19.3735 34.3955 19.6383 34.245 19.9206C34.0945 20.2028 33.9617 20.5025 33.8466 20.8197C34.2454 20.8757 34.5737 20.8969 34.8314 20.8835C35.1009 20.87 35.3527 20.8508 35.5869 20.8258C35.8211 20.7891 36.0611 20.7582 36.307 20.7331C36.5529 20.6963 36.8634 20.6826 37.2384 20.6918C37.4719 20.5614 37.7468 20.4775 38.063 20.4403C38.3908 20.3912 38.6891 20.3189 38.958 20.2234C39.052 20.2579 39.1345 20.3218 39.2054 20.4151C39.2762 20.4967 39.3412 20.5783 39.4004 20.6599C39.4712 20.7298 39.5419 20.7938 39.6126 20.8519C39.6833 20.91 39.7713 20.9329 39.8767 20.9205C39.9239 20.967 39.9536 21.0254 39.9658 21.0957C39.9896 21.1541 40.0076 21.2126 40.0197 21.2711C40.0318 21.3296 40.0497 21.3822 40.0734 21.4289C40.1088 21.4639 40.1616 21.4752 40.2319 21.4631C40.0587 21.8509 39.8556 22.1511 39.6226 22.3636C39.4012 22.5643 39.1444 22.7183 38.8522 22.8257C38.5599 22.9331 38.2323 23.0173 37.8694 23.0783C37.5183 23.1392 37.1262 23.2121 36.6931 23.297C36.5878 23.3212 36.4999 23.3159 36.4294 23.2812C36.3589 23.2582 36.2768 23.247 36.183 23.2477C35.9139 23.308 35.592 23.3629 35.2173 23.4123C34.8426 23.4616 34.4619 23.4817 34.0751 23.4725C33.6883 23.4634 33.3188 23.4131 32.9667 23.3217C32.6146 23.2419 32.3264 23.0915 32.1023 22.8703C32.008 22.7889 31.943 22.6956 31.9071 22.5904C31.8829 22.4733 31.8061 22.3859 31.6769 22.3282C31.6641 22.1759 31.6396 22.0062 31.6032 21.8189C31.5668 21.6317 31.5303 21.4385 31.4939 21.2395C31.4573 21.0288 31.4267 20.824 31.4019 20.6249C31.3889 20.4258 31.3994 20.2441 31.4335 20.0798C31.4675 19.9038 31.5367 19.7451 31.6413 19.6038C31.7575 19.4624 31.7975 19.3098 31.7613 19.1459C31.8198 19.1338 31.8548 19.1043 31.8662 19.0574C31.8775 18.9987 31.9242 18.9749 32.0063 18.9861C32.0753 18.7747 32.1501 18.575 32.2309 18.387C32.3117 18.1989 32.3925 18.0167 32.4734 17.8404C32.566 17.664 32.6527 17.4877 32.7336 17.3113C32.8261 17.1232 32.9126 16.9176 32.9932 16.6944C32.8281 16.5431 32.704 16.3799 32.6208 16.2046C32.5492 16.0176 32.4953 15.8363 32.459 15.6608C32.4226 15.4735 32.3921 15.2862 32.3674 15.0989C32.3426 14.8998 32.3003 14.7009 32.2404 14.502C32.3564 14.3255 32.4961 14.1839 32.6595 14.0774C32.8345 13.959 33.0213 13.8641 33.2201 13.7924C33.4188 13.7208 33.6352 13.6608 33.8693 13.6124C34.1034 13.5639 34.3491 13.5096 34.6065 13.4493C35.0743 13.2938 35.4895 13.1739 35.8522 13.0895C36.2267 13.005 36.5895 12.9381 36.9408 12.8889C37.3036 12.8279 37.6783 12.7727 38.0647 12.7233C38.4511 12.6738 38.8901 12.6006 39.3816 12.5036C39.4878 12.6084 39.5877 12.6605 39.6815 12.6599C39.7277 12.5541 39.7802 12.5244 39.8391 12.5709C39.9097 12.6056 39.9387 12.5703 39.9263 12.4649C40.0448 12.6633 40.1924 12.8323 40.3691 12.9717C40.5575 13.0994 40.7633 13.2094 40.9865 13.3016ZM47.7669 23.1887C47.5795 23.2016 47.3451 23.1973 47.0637 23.1758C46.794 23.1541 46.5423 23.1968 46.3086 23.3038C45.6874 23.2845 45.0541 23.2125 44.4087 23.0878C43.7633 22.9632 43.1705 22.8089 42.6302 22.625C42.5122 22.4968 42.3942 22.3804 42.2764 22.2757C42.1584 22.1593 41.9997 22.0783 41.8001 22.0328C41.5174 21.812 41.2871 21.544 41.1093 21.2287C40.9313 20.9018 40.7884 20.557 40.6805 20.1944C40.5727 19.8319 40.4999 19.4632 40.4623 19.0884C40.4246 18.702 40.4104 18.3329 40.4198 17.9813C40.5921 17.4528 40.8352 17 41.1491 16.6229C41.4747 16.234 41.8061 15.851 42.1435 15.4737C42.2954 15.4024 42.4062 15.3314 42.4761 15.2606C42.5576 15.178 42.6391 15.1072 42.7208 15.048C42.8141 14.9771 42.9015 14.9121 42.9832 14.8529C43.0765 14.782 43.1579 14.6994 43.2276 14.6052C43.4733 14.545 43.6837 14.4616 43.8588 14.3549C44.0455 14.2365 44.2264 14.1181 44.4014 13.9998C44.5763 13.8697 44.7572 13.7513 44.944 13.6446C45.1308 13.5379 45.347 13.4545 45.5927 13.3942C45.6858 13.2882 45.7966 13.2054 45.9251 13.146C46.0535 13.0748 46.182 13.0095 46.3105 12.95C46.4507 12.8788 46.5791 12.8076 46.6958 12.7366C46.8243 12.6654 46.9233 12.571 46.9928 12.4533C47.052 12.5467 47.1343 12.5813 47.2396 12.5572C47.3448 12.5213 47.4442 12.4855 47.5377 12.4497C47.5962 12.4376 47.6432 12.449 47.6786 12.484C47.7257 12.5188 47.7669 12.5537 47.8023 12.5886C47.8377 12.6235 47.8671 12.6468 47.8907 12.6583C47.9258 12.6581 47.9549 12.6286 47.978 12.5699C48.0366 12.5695 48.0543 12.5987 48.0313 12.6574C48.0082 12.7162 47.9909 12.7573 47.9794 12.7808C48.073 12.7685 48.1493 12.7914 48.2083 12.8496C48.2789 12.896 48.3846 12.9246 48.5253 12.9354C48.5726 12.9937 48.5846 13.0405 48.5614 13.0758C48.5381 13.0994 48.5267 13.1463 48.5272 13.2166C48.8794 13.3198 49.1032 13.4882 49.1985 13.722C49.2937 13.944 49.3011 14.1784 49.2207 14.425C49.1403 14.6716 48.9953 14.9011 48.7858 15.1134C48.5763 15.3257 48.3487 15.4679 48.1031 15.5398C47.5416 15.6959 47.0095 15.8693 46.5069 16.0601C46.0158 16.2392 45.6133 16.5055 45.2992 16.8592C45.0185 16.943 44.7673 17.056 44.5456 17.1981C44.3355 17.3284 44.1314 17.4821 43.9334 17.6592C43.747 17.8245 43.5665 18.0015 43.392 18.1901C43.2291 18.367 43.0544 18.5439 42.8681 18.721C42.8809 18.8849 42.8525 19.014 42.7828 19.1083C42.7247 19.1907 42.6667 19.2789 42.6087 19.3731C42.6333 19.5487 42.6754 19.7066 42.7349 19.8469C42.7944 19.9754 42.8597 20.1039 42.9308 20.2323C43.7058 20.4616 44.5271 20.6026 45.3946 20.6555C46.2739 20.7083 47.153 20.7376 48.032 20.7435C48.1148 20.8602 48.2093 20.9709 48.3154 21.0756C48.4332 21.1686 48.5394 21.2734 48.6339 21.3899C48.7284 21.4948 48.8053 21.6173 48.8649 21.7576C48.9243 21.8861 48.9371 22.0501 48.9033 22.2495C48.7404 22.4264 48.5598 22.5916 48.3616 22.7453C48.1633 22.8872 47.9651 23.035 47.7669 23.1887ZM59.6461 14.6198C59.3531 14.6217 59.0369 14.6472 58.6973 14.6963C58.3577 14.7337 58.024 14.777 57.6962 14.826C57.4621 14.8627 57.2338 14.8935 57.0113 14.9184C56.8005 14.9433 56.6072 14.9621 56.4315 14.975C56.3512 15.2333 56.2707 15.4624 56.19 15.6622C56.1093 15.8619 56.0227 16.0558 55.9301 16.244C55.8377 16.4438 55.7512 16.6495 55.6705 16.8609C55.6016 17.0606 55.5327 17.2779 55.4639 17.5127C55.348 17.701 55.2495 17.8774 55.1686 18.042C55.0993 18.1948 55.0418 18.371 54.9963 18.5705C54.8568 18.7472 54.7526 18.9354 54.6836 19.1351C54.6145 19.323 54.5629 19.4874 54.5287 19.6283L54.4597 19.8397C54.3899 19.9105 54.3493 19.9693 54.3379 20.0163C54.3264 20.0515 54.2973 20.0869 54.2507 20.1223C54.2398 20.2513 54.1996 20.3805 54.1302 20.5099C54.1071 20.5686 54.0899 20.6273 54.0786 20.686C54.0672 20.7329 54.0616 20.7681 54.0617 20.7916C54.0625 20.9088 54.0337 20.9851 53.9753 21.0207C53.9874 21.0792 53.9879 21.1436 53.9766 21.214C53.9653 21.2727 53.954 21.3314 53.9426 21.39C53.9084 21.5309 53.8974 21.6423 53.9097 21.7242C53.9451 21.7709 53.9747 21.8117 53.9984 21.8467C54.0338 21.8816 54.0575 21.9283 54.0696 21.9869C54.1402 22.0333 54.1932 22.0622 54.2284 22.0737C54.2755 22.1085 54.3461 22.1491 54.4401 22.1953L54.5995 22.3701C54.6603 22.7095 54.6094 22.9794 54.4467 23.1797C54.2723 23.4035 53.9743 23.5168 53.5524 23.5196L53.3415 23.521C53.2825 23.4628 53.247 23.4161 53.2351 23.3811C53.1411 23.3465 53.0647 23.3177 53.006 23.2947C52.9472 23.2716 52.8942 23.2251 52.8468 23.1551C52.694 23.0858 52.5706 23.028 52.4766 22.9818L52.3178 22.8949C52.3169 22.766 52.3165 22.6957 52.3164 22.684C52.2337 22.5791 52.1684 22.4623 52.1207 22.3337C52.0847 22.2051 52.0545 22.0763 52.0303 21.9476C52.0061 21.8423 51.9762 21.7429 51.9404 21.6494C51.9163 21.5558 51.8806 21.474 51.8333 21.404C51.8054 20.7244 51.866 20.1498 52.0153 19.6801C52.1645 19.2103 52.3197 18.7581 52.4809 18.3234C52.5731 18.0885 52.6653 17.8535 52.7575 17.6185C52.8496 17.3718 52.93 17.1193 52.9986 16.861L53.1557 16.6842C53.2364 16.4961 53.2999 16.3434 53.346 16.2259C53.4037 16.0966 53.4615 15.9673 53.5192 15.838C53.5538 15.7558 53.5826 15.6794 53.6056 15.6089C53.6402 15.5267 53.669 15.4562 53.6921 15.3974C53.6218 15.3979 53.5574 15.4042 53.4988 15.4163C53.4403 15.4166 53.3817 15.4229 53.3232 15.435C53.2529 15.4472 53.1886 15.4593 53.1301 15.4714C53.0715 15.4718 53.0129 15.4722 52.9543 15.4726C52.8723 15.4731 52.8136 15.4677 52.7784 15.4562C52.6499 15.5156 52.5094 15.5459 52.3571 15.5469L52.1813 15.548C52.1462 15.5483 52.111 15.5485 52.0759 15.5487C52.0523 15.5372 52.0289 15.5314 52.0054 15.5316C51.8882 15.5324 51.7946 15.5506 51.7245 15.5862C51.5839 15.5871 51.4492 15.588 51.3202 15.5889L51.1445 15.59C51.121 15.5902 51.0918 15.5962 51.0567 15.6082C51.0215 15.6084 50.9922 15.6086 50.9688 15.6088C50.8868 15.6093 50.7989 15.604 50.705 15.5929C50.6111 15.5701 50.5112 15.5298 50.4054 15.4719C50.2635 15.2853 50.1691 15.1863 50.1222 15.1749L49.9626 14.965C49.9504 14.8948 49.9324 14.8304 49.9086 14.772C49.8847 14.7019 49.8607 14.6258 49.8367 14.544C49.7891 14.4271 49.7414 14.3044 49.6937 14.1758C49.6576 14.0354 49.6389 13.8714 49.6377 13.6839C49.6488 13.5901 49.6718 13.5196 49.7066 13.4725C49.7415 13.4254 49.7705 13.3842 49.7937 13.3489L49.8447 13.0849L50.0733 13.101L50.5655 13.0977C50.9405 13.0952 51.3213 13.081 51.7078 13.055C52.0943 13.0173 52.4925 12.9795 52.9024 12.9416C53.1366 12.9166 53.3708 12.8917 53.605 12.8667C53.851 12.8416 54.1028 12.8165 54.3604 12.7914C54.4066 12.6856 54.4528 12.5857 54.4991 12.4916L54.6743 12.4026C54.8851 12.3895 55.0318 12.4178 55.1143 12.4876C55.2084 12.5455 55.285 12.6036 55.344 12.6618C55.6016 12.6367 55.8593 12.6115 56.1169 12.5864C56.3862 12.5495 56.6555 12.5067 56.9247 12.458C57.3227 12.3968 57.7208 12.3414 58.1189 12.2919C58.5288 12.2423 58.9212 12.2163 59.2962 12.2138C59.4602 12.2127 59.6185 12.2175 59.7709 12.2283C59.9233 12.239 60.064 12.2556 60.1931 12.2782L60.3697 12.4001C60.4053 12.4702 60.4526 12.5343 60.5116 12.5925C60.5823 12.6506 60.653 12.7088 60.7237 12.7669C60.8652 12.8949 61.0068 13.0463 61.1486 13.2211C61.2904 13.396 61.3448 13.6534 61.3119 13.9935C61.2191 14.1347 61.1493 14.2172 61.1026 14.241L60.9458 14.453L60.7699 14.4365C60.6996 14.437 60.6352 14.4492 60.5767 14.473C60.5182 14.4851 60.4598 14.5031 60.4013 14.5269C60.3546 14.5506 60.3079 14.5744 60.2612 14.5981C60.2144 14.6101 60.1617 14.6222 60.1032 14.6343C59.9977 14.635 59.9098 14.6356 59.8395 14.6361C59.7809 14.6247 59.7164 14.6193 59.6461 14.6198ZM62.0492 21.8286C62.1101 22.1798 62.0885 22.4554 61.9844 22.6553C61.8919 22.8551 61.7523 23.0025 61.5654 23.0975C61.3903 23.2041 61.1856 23.2641 60.9513 23.2773C60.7171 23.2906 60.4943 23.2804 60.2832 23.2466C60.1649 23.0833 60.0581 22.8789 59.9627 22.6335C59.8673 22.388 59.7778 22.1366 59.694 21.8794C59.6102 21.6104 59.5323 21.3472 59.4603 21.0899C59.4 20.8325 59.3458 20.6043 59.2976 20.4054C59.3552 20.2644 59.3893 20.106 59.3999 19.9301C59.4221 19.7424 59.4326 19.5549 59.4313 19.3674C59.4418 19.1798 59.4464 18.9923 59.4452 18.8048C59.4556 18.6055 59.4719 18.4179 59.4942 18.2419C59.573 17.7492 59.6871 17.2797 59.8365 16.8334C59.9976 16.387 60.1234 15.9233 60.214 15.4422C60.2367 15.3366 60.2244 15.237 60.1769 15.1436C60.1411 15.0501 60.1347 14.9622 60.1576 14.8801C60.169 14.8331 60.2039 14.8036 60.2624 14.7915C60.3209 14.7676 60.3558 14.7264 60.3671 14.6677C60.4014 14.5386 60.4066 14.4331 60.3826 14.3512C60.3703 14.2693 60.3931 14.1695 60.4509 14.0519C60.5089 13.9578 60.5783 13.8226 60.6592 13.6462C60.7517 13.4581 60.7856 13.2645 60.7608 13.0655C60.8658 12.9945 60.9649 12.9118 61.058 12.8174C61.1511 12.7231 61.2443 12.6404 61.3376 12.5695C61.4425 12.4867 61.5534 12.4157 61.6702 12.3563C61.7987 12.2969 61.9509 12.2666 62.1266 12.2654C62.2212 12.382 62.2806 12.5105 62.305 12.651C62.3411 12.7914 62.3713 12.9318 62.3957 13.0723C62.4317 13.2126 62.4795 13.3471 62.539 13.4756C62.5983 13.5924 62.6985 13.6855 62.8396 13.7549C62.8403 13.8486 62.841 13.9658 62.842 14.1064C62.8429 14.2471 62.8497 14.3876 62.8623 14.5282C62.8749 14.657 62.8991 14.7799 62.9351 14.8969C62.9826 15.002 63.0534 15.0719 63.1474 15.1064C62.9402 15.6703 62.7446 16.2282 62.5608 16.7802C62.3887 17.3322 62.2458 17.8898 62.1324 18.453C62.0188 19.0046 61.9463 19.5617 61.9149 20.1244C61.8952 20.6871 61.94 21.2551 62.0492 21.8286ZM69.9293 19.9132C69.9187 20.0774 69.8787 20.2359 69.8094 20.3887C69.7517 20.5297 69.6765 20.6708 69.5837 20.812C69.4908 20.9416 69.3862 21.0712 69.2698 21.2008C69.1651 21.3187 69.0604 21.4249 68.9555 21.5193C68.9917 21.6714 68.9925 21.7886 68.9579 21.8709C68.9349 21.9413 68.9298 22.0527 68.9425 22.205C68.7698 22.6749 68.5023 22.9872 68.1401 23.1419C67.7896 23.3083 67.4554 23.2812 67.1376 23.0607C67.008 22.9678 66.8959 22.8513 66.8013 22.7113C66.7182 22.5595 66.6004 22.4666 66.4478 22.4324C66.4817 22.233 66.4628 22.0339 66.3912 21.8351C66.3195 21.6364 66.2427 21.5314 66.1606 21.5202C66.1238 21.2744 66.0693 21.011 65.9971 20.7303C65.925 20.4495 65.8586 20.1687 65.7982 19.8878C65.7377 19.5952 65.6831 19.3143 65.6344 19.0451C65.5974 18.7641 65.584 18.5064 65.5942 18.2719C65.6051 18.1547 65.581 18.0494 65.5217 17.956C65.4743 17.8626 65.4384 17.7515 65.4141 17.6227C65.3654 17.3535 65.346 17.0724 65.3558 16.7793C65.3772 16.4745 65.387 16.1873 65.3852 15.9178C65.3835 15.66 65.3641 15.3847 65.327 15.092C65.3016 14.7875 65.2763 14.5005 65.251 14.2311C65.2257 13.9501 65.2124 13.6982 65.2109 13.4755C65.2093 13.2412 65.2374 13.0593 65.2952 12.93C65.3646 12.789 65.4576 12.677 65.5742 12.5942C65.7025 12.4996 65.819 12.3992 65.9238 12.2931C66.1817 12.3148 66.3875 12.4189 66.5411 12.6054C66.6947 12.7919 66.7544 12.9673 66.7204 13.1316C66.9675 13.2823 67.1621 13.4802 67.3044 13.7254C67.4583 13.9587 67.5772 14.2275 67.6613 14.5316C67.757 14.824 67.8235 15.1399 67.8609 15.4796C67.8982 15.8074 67.9297 16.1354 67.9553 16.4633C67.9808 16.7796 68.0063 17.0841 68.0316 17.3769C68.057 17.6697 68.1056 17.9213 68.1773 18.1318C68.6067 17.5079 68.9664 16.9547 69.2562 16.4723C69.5459 15.9782 69.8416 15.5075 70.1433 15.0602C70.4451 14.6128 70.7819 14.1594 71.1539 13.6999C71.5259 13.2404 72.0088 12.7216 72.6026 12.1435C72.7199 12.1544 72.8138 12.1772 72.8843 12.2119C72.9666 12.2465 73.0371 12.2754 73.0959 12.2984C73.1546 12.3215 73.2251 12.3444 73.3073 12.3673C73.3894 12.3785 73.5006 12.3719 73.6411 12.3475C73.6888 12.4644 73.7245 12.5521 73.7483 12.6105C73.7721 12.6572 73.79 12.7098 73.8021 12.7684C73.8258 12.8151 73.8497 12.8794 73.8737 12.9612C73.9094 13.043 73.9629 13.1599 74.0342 13.3118C74.0696 13.3467 74.0816 13.3935 74.0703 13.4521C74.059 13.5108 74.0476 13.5695 74.0363 13.6282C74.0366 13.675 74.0368 13.7102 74.037 13.7336C74.0372 13.7571 74.0665 13.7569 74.1249 13.733C74.0908 13.8973 74.0274 14.0501 73.9346 14.1913C73.8534 14.3208 73.8193 14.4792 73.8322 14.6666C73.565 15.02 73.2686 15.3852 72.943 15.7624C72.629 16.1395 72.3093 16.5283 71.9839 16.9289C71.6701 17.3294 71.3682 17.7533 71.0782 18.2005C70.7881 18.6361 70.5392 19.0947 70.3314 19.5766C70.2728 19.577 70.226 19.5949 70.1911 19.6303C70.1679 19.6656 70.1447 19.7067 70.1216 19.7538C70.0984 19.7891 70.0694 19.8244 70.0344 19.8598C70.0112 19.8951 69.9762 19.9129 69.9293 19.9132ZM83.2128 21.6888C83.2737 22.0399 83.2521 22.3155 83.148 22.5154C83.0555 22.7152 82.9159 22.8626 82.729 22.9576C82.5539 23.0643 82.3492 23.1242 82.1149 23.1375C81.8807 23.1507 81.6579 23.1405 81.4468 23.1067C81.3285 22.9434 81.2217 22.7391 81.1263 22.4936C81.0309 22.2481 80.9414 21.9968 80.8576 21.7395C80.7738 21.4705 80.6959 21.2074 80.6239 20.95C80.5636 20.6926 80.5094 20.4644 80.4612 20.2655C80.5188 20.1245 80.5529 19.9661 80.5635 19.7902C80.5857 19.6026 80.5962 19.415 80.5949 19.2275C80.6054 19.0399 80.61 18.8524 80.6088 18.6649C80.6192 18.4656 80.6355 18.278 80.6578 18.1021C80.7366 17.6094 80.8507 17.1398 81.0001 16.6935C81.1612 16.2471 81.287 15.7834 81.3776 15.3023C81.4003 15.1967 81.388 15.0972 81.3405 15.0037C81.3047 14.9102 81.2983 14.8224 81.3212 14.7402C81.3326 14.6932 81.3675 14.6637 81.426 14.6516C81.4845 14.6278 81.5194 14.5865 81.5307 14.5279C81.565 14.3987 81.5702 14.2932 81.5462 14.2114C81.5339 14.1294 81.5567 14.0296 81.6145 13.9121C81.6725 13.8179 81.7419 13.6827 81.8228 13.5064C81.9153 13.3183 81.9492 13.1247 81.9244 12.9256C82.0294 12.8546 82.1285 12.7719 82.2216 12.6776C82.3147 12.5832 82.4079 12.5005 82.5012 12.4296C82.6061 12.3469 82.717 12.2758 82.8338 12.2165C82.9623 12.157 83.1145 12.1267 83.2902 12.1256C83.3848 12.2421 83.4442 12.3706 83.4686 12.5111C83.5047 12.6515 83.5349 12.7919 83.5593 12.9324C83.5953 13.0728 83.6431 13.2072 83.7026 13.3358C83.7619 13.4526 83.8621 13.5456 84.0032 13.615C84.0039 13.7088 84.0046 13.826 84.0056 13.9666C84.0065 14.1072 84.0133 14.2478 84.0259 14.3883C84.0385 14.5172 84.0627 14.64 84.0987 14.757C84.1462 14.8622 84.217 14.932 84.311 14.9665C84.1038 15.5304 83.9082 16.0884 83.7244 16.6404C83.5523 17.1923 83.4095 17.7499 83.296 18.3132C83.1824 18.8647 83.1099 19.4218 83.0785 19.9846C83.0588 20.5472 83.1036 21.1153 83.2128 21.6888ZM88.8423 19.6828C88.737 19.7069 88.6612 19.7719 88.615 19.8777C88.5688 19.9717 88.5226 20.0716 88.4764 20.1774C88.4419 20.2831 88.4016 20.383 88.3553 20.477C88.3207 20.5593 88.2624 20.6007 88.1804 20.6012C88.1693 20.6951 88.1346 20.7773 88.0765 20.848C88.0301 20.9186 87.9837 20.9951 87.9374 21.0775C87.891 21.1481 87.8564 21.2304 87.8336 21.3243C87.8107 21.4064 87.823 21.506 87.8707 21.6228C87.7774 21.6938 87.7195 21.7938 87.6969 21.9228C87.6743 22.0519 87.6458 22.1751 87.6114 22.2925C87.5888 22.4099 87.5426 22.5098 87.4728 22.5923C87.403 22.6748 87.2744 22.7108 87.0868 22.7003C87.0519 22.7474 87.0463 22.7768 87.0698 22.7883C87.0933 22.7999 87.1111 22.8408 87.1233 22.911C86.9943 22.8884 86.8947 22.8949 86.8246 22.9306C86.7663 22.9778 86.6904 23.0076 86.5967 23.02C86.3736 22.9511 86.1853 22.8293 86.0318 22.6545C85.89 22.4797 85.7598 22.2872 85.6412 22.077C85.5343 21.8551 85.4332 21.6331 85.338 21.4111C85.2545 21.189 85.1712 20.9961 85.0881 20.8326C85.1224 20.7035 85.1274 20.5804 85.1032 20.4634C85.0789 20.3346 85.0372 20.2294 84.9781 20.1478C85.5442 18.9253 86.1626 17.6204 86.8331 16.2331C87.5036 14.8458 88.1391 13.4764 88.7396 12.1247C89.0098 12.2284 89.2743 12.3497 89.533 12.4886C89.8034 12.6157 90.0446 12.7665 90.2567 12.9409C90.4805 13.1152 90.6694 13.319 90.8233 13.5524C90.9771 13.774 91.0784 14.0253 91.1271 14.3062C91.1041 14.3767 91.075 14.4062 91.0398 14.3947C91.0162 14.3714 90.9928 14.3774 90.9696 14.4128C91.0169 14.471 91.0406 14.5119 91.0407 14.5353C91.0526 14.5587 91.0527 14.5821 91.0412 14.6056C91.0413 14.6291 91.0416 14.6642 91.0419 14.7111C91.0421 14.7463 91.06 14.7989 91.0957 14.869C91.0487 14.8576 91.0136 14.8636 90.9903 14.8872C90.9787 14.9107 90.9436 14.911 90.8848 14.8879C90.9326 15.0165 90.945 15.1219 90.9221 15.2041C90.9109 15.2862 90.888 15.3625 90.8533 15.4331C90.8185 15.4919 90.7897 15.5624 90.7668 15.6446C90.7438 15.7151 90.7503 15.8088 90.7862 15.9257C90.7511 15.9259 90.7219 15.9379 90.6986 15.9615C90.6869 15.9732 90.6753 15.9909 90.6638 16.0144C90.6521 16.0262 90.6347 16.0439 90.6114 16.0675C90.5997 16.0793 90.5763 16.0795 90.5411 16.068C90.5779 16.3255 90.5914 16.5833 90.5813 16.8412C90.5713 17.099 90.5613 17.3628 90.5514 17.6324C90.5531 17.8902 90.5608 18.1655 90.5744 18.4584C90.588 18.7396 90.631 19.0323 90.7033 19.3365C91.1235 19.0876 91.4554 18.769 91.699 18.3807C91.9542 17.9923 92.1564 17.5573 92.3056 17.0759C92.4665 16.5943 92.5861 16.0779 92.6645 15.5266C92.7429 14.9753 92.8271 14.4122 92.917 13.8374C93.0218 13.7312 93.103 13.6018 93.1605 13.449C93.2181 13.2963 93.2698 13.1378 93.3156 12.9734C93.3613 12.7973 93.4071 12.6271 93.4529 12.4627C93.4986 12.2866 93.5561 12.128 93.6255 11.9869C93.8014 12.0092 93.9483 12.0668 94.0661 12.1598C94.1955 12.241 94.3134 12.334 94.4195 12.4387C94.5256 12.5318 94.6375 12.6248 94.7553 12.7178C94.8731 12.799 95.0199 12.8508 95.1958 12.8731C95.3378 13.0714 95.468 13.2639 95.5864 13.4506C95.7048 13.6373 95.7823 13.836 95.8188 14.0467C95.7609 14.1408 95.7147 14.2466 95.6803 14.364C95.6576 14.4814 95.6291 14.5988 95.5947 14.7162C95.5604 14.8336 95.5142 14.9452 95.4563 15.0511C95.3984 15.1452 95.3169 15.2278 95.2119 15.2988C95.1787 15.6037 95.1337 15.8853 95.0768 16.1435C95.0316 16.3899 94.9805 16.6363 94.9235 16.8828C94.8783 17.1292 94.8389 17.3872 94.8056 17.657C94.7721 17.915 94.7623 18.2022 94.7761 18.5185C94.6841 18.7887 94.5864 19.0765 94.483 19.3818C94.3795 19.6872 94.2993 19.9631 94.2423 20.2096C94.0559 20.3632 93.9106 20.5458 93.8065 20.7574C93.7024 20.9691 93.5925 21.1807 93.4767 21.3924C93.4301 21.4396 93.4009 21.4515 93.3891 21.4282C93.3772 21.4048 93.3361 21.3875 93.2657 21.3762C93.2777 21.423 93.2779 21.4582 93.2664 21.4817C93.2548 21.5052 93.2374 21.5288 93.2141 21.5524C93.2024 21.5642 93.1909 21.5877 93.1794 21.6229C93.1796 21.6581 93.1917 21.7049 93.2155 21.7633C93.0519 21.8347 92.9061 21.9353 92.778 22.065C92.65 22.1948 92.5101 22.3129 92.3585 22.4194C92.2185 22.5258 92.0432 22.5972 91.8325 22.6338C91.6336 22.6703 91.3696 22.631 91.0407 22.516C90.5579 22.1676 90.1275 21.7661 89.7495 21.3116C89.3832 20.857 89.0808 20.314 88.8423 19.6828ZM114.419 19.6544C114.701 19.7931 114.843 19.968 114.844 20.1789C114.857 20.3898 114.794 20.5894 114.655 20.7779C114.527 20.9545 114.352 21.0904 114.13 21.1856C113.92 21.2808 113.726 21.2762 113.55 21.1719C113.527 21.2658 113.475 21.3306 113.393 21.3663C113.323 21.3902 113.276 21.4432 113.253 21.5254C112.118 21.7087 110.959 21.9332 109.777 22.1988C108.595 22.4644 107.413 22.6656 106.23 22.8023C105.316 22.7732 104.554 22.6435 103.943 22.4131C103.695 22.2038 103.506 21.9414 103.375 21.6258C103.256 21.3102 103.183 20.9767 103.157 20.6253C103.132 20.2739 103.141 19.934 103.186 19.6056C103.23 19.2654 103.299 18.972 103.391 18.7253C103.995 17.9478 104.623 17.2054 105.275 16.4979C105.938 15.7787 106.69 15.1409 107.53 14.5846C107.774 14.2783 108.059 14.0186 108.386 13.8055C108.713 13.5806 109.01 13.3326 109.277 13.0613C108.925 12.9347 108.556 12.8727 108.169 12.8752C107.782 12.8778 107.401 12.9155 107.027 12.9882C106.652 13.0493 106.301 13.1278 105.974 13.2237C105.646 13.3196 105.36 13.3919 105.114 13.4404C104.926 13.3478 104.703 13.2966 104.445 13.2866C104.199 13.2765 103.952 13.2312 103.706 13.1508C103.564 13.0346 103.464 12.8829 103.404 12.6958C103.356 12.5086 103.325 12.3154 103.312 12.1163C103.299 11.9172 103.292 11.7297 103.291 11.5539C103.29 11.3664 103.265 11.2142 103.217 11.0974C103.31 10.9444 103.391 10.7915 103.461 10.6387C103.542 10.4858 103.634 10.3446 103.739 10.215C104.289 10.059 104.897 9.93194 105.565 9.83378C106.232 9.7239 106.905 9.67257 107.585 9.6798C108.265 9.68702 108.922 9.77058 109.556 9.93045C110.189 10.0786 110.754 10.3327 111.248 10.6927C111.309 11.0205 111.434 11.2833 111.623 11.4813C111.811 11.6675 112.041 11.8125 112.311 11.9162C112.441 12.1497 112.554 12.3892 112.65 12.6347C112.745 12.8684 112.811 13.1199 112.848 13.3892C112.618 14.0119 112.287 14.5414 111.857 14.9779C111.438 15.4025 111.012 15.792 110.581 16.1465C110.348 16.3472 110.097 16.5188 109.829 16.6612C109.56 16.8036 109.327 16.9692 109.129 17.158C109.082 17.2052 109.053 17.2699 109.042 17.352C109.031 17.4224 109.002 17.4753 108.955 17.5108C108.746 17.6996 108.512 17.8711 108.256 18.0252C107.999 18.1675 107.765 18.3331 107.556 18.522C107.404 18.6519 107.276 18.7934 107.172 18.9464C107.079 19.0994 106.951 19.235 106.788 19.3532C106.999 19.4222 107.204 19.4501 107.404 19.4371C107.614 19.424 107.825 19.3991 108.036 19.3626C108.258 19.3259 108.481 19.2893 108.703 19.2527C108.937 19.216 109.177 19.2027 109.424 19.2128C109.763 19.0933 110.137 18.9913 110.547 18.9065C110.956 18.8101 111.366 18.7722 111.776 18.7929C112.127 18.65 112.46 18.5482 112.776 18.4875C113.104 18.415 113.414 18.3954 113.708 18.4286C113.86 18.4862 113.972 18.5909 114.044 18.7428C114.127 18.8946 114.25 18.9992 114.415 19.0567C114.381 19.1859 114.369 19.2797 114.382 19.3382C114.405 19.3967 114.418 19.502 114.419 19.6544ZM132.612 22.2764C132.496 22.3358 132.385 22.3892 132.279 22.4368C132.186 22.4843 132.075 22.5085 131.946 22.5093C131.487 22.1725 131.242 21.5823 131.213 20.7387C131.196 19.8951 131.371 18.8216 131.737 17.5184C131.795 17.4829 131.824 17.4124 131.824 17.3069L131.664 17.1322C131.617 17.1325 131.571 17.1386 131.524 17.1507C131.489 17.1626 131.46 17.2038 131.437 17.2743C131.133 17.499 130.801 17.7355 130.439 17.984C130.078 18.2208 129.698 18.446 129.301 18.6595C128.916 18.8613 128.518 19.028 128.109 19.1596C127.712 19.2911 127.319 19.3582 126.933 19.3607C125.948 19.3672 125.207 18.8741 124.708 17.8813L124.566 17.6185L124.427 17.848C124.392 17.8951 124.34 17.995 124.27 18.1478C124.201 18.2889 124.132 18.4535 124.063 18.6414C123.994 18.8294 123.93 19.0232 123.873 19.2228C123.828 19.4106 123.811 19.5747 123.824 19.7153C123.719 19.8214 123.608 19.9452 123.492 20.0866C123.376 20.228 123.289 20.3868 123.232 20.563C123.209 20.6569 123.221 20.7447 123.269 20.8264C123.246 20.932 123.194 21.0144 123.112 21.0735C123.065 21.1324 123.013 21.1914 122.955 21.2504C122.908 21.2975 122.868 21.3505 122.833 21.4094C122.81 21.4681 122.793 21.5268 122.781 21.5855C122.782 21.6441 122.776 21.7027 122.765 21.7614C122.765 21.8434 122.754 21.9197 122.731 21.9901C122.535 22.4016 122.378 22.6663 122.262 22.7843C122.146 22.9139 121.988 22.9794 121.789 22.9808C121.695 22.9814 121.542 22.9648 121.331 22.931C121.178 22.768 121.036 22.5463 120.905 22.2659C120.786 21.9737 120.69 21.6638 120.618 21.3361C120.557 21.0084 120.525 20.6805 120.523 20.3523C120.533 20.0124 120.589 19.7191 120.693 19.4723C120.693 19.4606 120.739 19.3431 120.831 19.1198C120.924 18.8965 121.039 18.6087 121.177 18.2562C121.327 17.9036 121.495 17.5158 121.679 17.0927C121.864 16.6579 122.049 16.2406 122.234 15.8409C122.418 15.4296 122.592 15.0534 122.754 14.7125C122.927 14.3715 123.072 14.1127 123.188 13.9362C123.281 13.7949 123.362 13.6655 123.431 13.5478C123.513 13.4184 123.588 13.2948 123.657 13.1772C123.866 12.8125 124.063 12.5124 124.249 12.2768C124.447 12.0294 124.733 11.8341 125.107 11.691C125.365 11.7948 125.553 11.9166 125.672 12.0564L125.708 12.2495C125.756 12.3664 125.826 12.4245 125.92 12.4239C126.049 12.4582 126.155 12.4927 126.237 12.5273C126.331 12.5501 126.431 12.5729 126.536 12.5956C126.619 12.6888 126.696 12.7997 126.767 12.9281C126.862 13.0681 126.951 13.2081 127.034 13.3482C127.128 13.4765 127.199 13.6108 127.247 13.7511C127.307 13.8796 127.337 14.0142 127.338 14.1548C127.35 14.2954 127.328 14.442 127.27 14.5947L127.289 14.7704C127.348 14.8755 127.361 15.0219 127.327 15.2096C127.316 15.2917 127.311 15.3796 127.311 15.4734C127.312 15.5554 127.324 15.6491 127.348 15.7544C127.56 15.9171 127.748 15.9979 127.913 15.9968C128.1 15.9955 128.27 15.9534 128.421 15.8704C128.585 15.7755 128.737 15.6808 128.877 15.5861C128.97 15.5152 129.063 15.456 129.157 15.4085C129.25 15.3492 129.344 15.3135 129.437 15.3011C129.647 15.1005 129.833 14.9235 129.996 14.7701C130.171 14.6166 130.352 14.463 130.538 14.3095C130.888 14.0259 131.226 13.719 131.552 13.3887C131.878 13.0584 132.139 12.6465 132.334 12.153C132.451 12.0819 132.574 12.046 132.703 12.0451C132.832 12.0443 132.967 12.0727 133.108 12.1303C133.249 12.188 133.384 12.2457 133.513 12.3034C133.549 12.3266 133.578 12.344 133.601 12.3556C133.637 12.3671 133.666 12.3786 133.69 12.3902C133.69 12.5073 133.738 12.6066 133.832 12.688C133.879 12.7229 133.909 12.7461 133.921 12.7578C133.932 12.7694 133.95 12.781 133.973 12.7926C134.15 12.8852 134.262 12.9782 134.309 13.0716C134.393 13.3406 134.541 13.5447 134.753 13.6839C134.73 13.8013 134.731 13.9126 134.755 14.0179C134.791 14.1114 134.832 14.2108 134.88 14.3159C134.892 14.351 134.904 14.3861 134.916 14.4212C134.928 14.4562 134.946 14.4971 134.969 14.5439L134.635 14.5109L134.69 14.8445C134.715 15.0084 134.698 15.1902 134.641 15.3898C134.596 15.5893 134.538 15.7479 134.468 15.8656C134.482 16.1702 134.49 16.4103 134.491 16.5861C134.504 16.7501 134.499 16.9083 134.476 17.0608C134.454 17.2016 134.42 17.3366 134.374 17.4658C134.339 17.595 134.287 17.7359 134.218 17.8887C134.27 18.6384 134.187 19.3245 133.968 19.9471C133.761 20.5578 133.542 21.1335 133.311 21.6741C133.288 21.7329 133.26 21.7916 133.225 21.8505C133.202 21.9092 133.179 21.968 133.156 22.0267C133.05 22.0626 132.957 22.1042 132.875 22.1516C132.793 22.1873 132.706 22.2289 132.612 22.2764ZM138.829 21.3212C138.89 21.6724 138.868 21.9479 138.764 22.1478C138.672 22.3477 138.532 22.4951 138.345 22.5901C138.17 22.6967 137.965 22.7567 137.731 22.7699C137.497 22.7832 137.274 22.7729 137.063 22.7392C136.944 22.5759 136.838 22.3715 136.742 22.1261C136.647 21.8806 136.557 21.6292 136.474 21.372C136.39 21.103 136.312 20.8398 136.24 20.5825C136.18 20.325 136.125 20.0969 136.077 19.898C136.135 19.757 136.169 19.5985 136.179 19.4227C136.202 19.235 136.212 19.0475 136.211 18.86C136.221 18.6724 136.226 18.4849 136.225 18.2974C136.235 18.0981 136.252 17.9105 136.274 17.7345C136.353 17.2418 136.467 16.7723 136.616 16.326C136.777 15.8796 136.903 15.4159 136.994 14.9348C137.016 14.8292 137.004 14.7296 136.956 14.6362C136.921 14.5427 136.914 14.4548 136.937 14.3726C136.949 14.3257 136.984 14.2962 137.042 14.2841C137.1 14.2602 137.135 14.219 137.147 14.1603C137.181 14.0312 137.186 13.9257 137.162 13.8438C137.15 13.7618 137.173 13.6621 137.23 13.5445C137.288 13.4504 137.358 13.3152 137.439 13.1388C137.531 12.9507 137.565 12.7571 137.54 12.5581C137.645 12.4871 137.744 12.4044 137.838 12.31C137.931 12.2156 138.024 12.133 138.117 12.0621C138.222 11.9793 138.333 11.9083 138.45 11.8489C138.578 11.7895 138.73 11.7592 138.906 11.758C139.001 11.8746 139.06 12.0031 139.085 12.1436C139.121 12.2839 139.151 12.4244 139.175 12.5648C139.211 12.7052 139.259 12.8397 139.319 12.9682C139.378 13.085 139.478 13.1781 139.619 13.2475C139.62 13.3412 139.621 13.4584 139.622 13.599C139.622 13.7396 139.629 13.8802 139.642 14.0208C139.654 14.1496 139.679 14.2725 139.715 14.3894C139.762 14.4946 139.833 14.5644 139.927 14.599C139.72 15.1629 139.524 15.7208 139.34 16.2728C139.168 16.8247 139.025 17.3823 138.912 17.9456C138.798 18.4972 138.726 19.0543 138.694 19.617C138.675 20.1796 138.72 20.7477 138.829 21.3212ZM144.458 19.3152C144.353 19.3394 144.277 19.4043 144.231 19.5101C144.185 19.6042 144.139 19.7041 144.092 19.8099C144.058 19.9155 144.018 20.0154 143.971 20.1095C143.937 20.1917 143.878 20.2331 143.796 20.2337C143.785 20.3275 143.751 20.4098 143.692 20.4805C143.646 20.5511 143.6 20.6276 143.553 20.7099C143.507 20.7805 143.472 20.8628 143.45 20.9567C143.427 21.0389 143.439 21.1384 143.487 21.2553C143.393 21.3262 143.335 21.4262 143.313 21.5553C143.29 21.6843 143.262 21.8076 143.227 21.925C143.205 22.0423 143.159 22.1422 143.089 22.2247C143.019 22.3072 142.89 22.3432 142.703 22.3328C142.668 22.3799 142.662 22.4092 142.686 22.4208C142.709 22.4323 142.727 22.4732 142.739 22.5435C142.61 22.5209 142.511 22.5274 142.441 22.563C142.382 22.6103 142.306 22.6401 142.213 22.6524C141.99 22.5836 141.801 22.4618 141.648 22.287C141.506 22.1121 141.376 21.9196 141.257 21.7095C141.15 21.4875 141.049 21.2655 140.954 21.0435C140.87 20.8214 140.787 20.6286 140.704 20.4651C140.738 20.3359 140.743 20.2129 140.719 20.0958C140.695 19.9671 140.653 19.8619 140.594 19.7802C141.16 18.5577 141.779 17.2528 142.449 15.8655C143.12 14.4783 143.755 13.1088 144.356 11.7572C144.626 11.8608 144.89 11.9821 145.149 12.1211C145.419 12.2482 145.661 12.3989 145.873 12.5733C146.097 12.7476 146.285 12.9515 146.439 13.1848C146.593 13.4065 146.694 13.6578 146.743 13.9387C146.72 14.0092 146.691 14.0386 146.656 14.0272C146.632 14.0039 146.609 14.0099 146.586 14.0452C146.633 14.1035 146.657 14.1443 146.657 14.1678C146.669 14.1911 146.669 14.2146 146.657 14.2381C146.657 14.2615 146.658 14.2967 146.658 14.3436C146.658 14.3787 146.676 14.4313 146.712 14.5014C146.665 14.49 146.63 14.4961 146.606 14.5197C146.595 14.5432 146.56 14.5434 146.501 14.5204C146.549 14.649 146.561 14.7544 146.538 14.8365C146.527 14.9187 146.504 14.995 146.469 15.0655C146.434 15.1243 146.406 15.1949 146.383 15.277C146.36 15.3475 146.366 15.4412 146.402 15.5582C146.367 15.5584 146.338 15.5703 146.315 15.5939C146.303 15.6057 146.291 15.6234 146.28 15.6469C146.268 15.6587 146.251 15.6764 146.227 15.6999C146.216 15.7117 146.192 15.7119 146.157 15.7004C146.194 15.958 146.207 16.2157 146.197 16.4736C146.187 16.7315 146.177 16.9952 146.167 17.2648C146.169 17.5226 146.177 17.798 146.19 18.0909C146.204 18.372 146.247 18.6647 146.319 18.9689C146.74 18.7201 147.071 18.4015 147.315 18.0131C147.57 17.6247 147.772 17.1898 147.922 16.7083C148.082 16.2268 148.202 15.7103 148.28 15.159C148.359 14.6077 148.443 14.0446 148.533 13.4698C148.638 13.3637 148.719 13.2342 148.777 13.0815C148.834 12.9288 148.886 12.7702 148.932 12.6058C148.977 12.4298 149.023 12.2595 149.069 12.0952C149.115 11.9191 149.172 11.7605 149.241 11.6194C149.417 11.6417 149.564 11.6993 149.682 11.7923C149.812 11.8734 149.929 11.9664 150.035 12.0712C150.142 12.1642 150.254 12.2573 150.371 12.3502C150.489 12.4315 150.636 12.4832 150.812 12.5055C150.954 12.7038 151.084 12.8963 151.202 13.083C151.321 13.2698 151.398 13.4685 151.435 13.6792C151.377 13.7733 151.331 13.8791 151.296 13.9965C151.274 14.1138 151.245 14.2312 151.211 14.3486C151.176 14.466 151.13 14.5777 151.072 14.6835C151.014 14.7777 150.933 14.8602 150.828 14.9312C150.795 15.2362 150.75 15.5177 150.693 15.7759C150.648 16.0223 150.596 16.2687 150.539 16.5152C150.494 16.7616 150.455 17.0197 150.422 17.2895C150.388 17.5475 150.378 17.8347 150.392 18.151C150.3 18.4211 150.202 18.7089 150.099 19.0143C149.995 19.3197 149.915 19.5956 149.858 19.8421C149.672 19.9956 149.527 20.1782 149.422 20.3899C149.318 20.6015 149.208 20.8132 149.093 21.0249C149.046 21.0721 149.017 21.084 149.005 21.0606C148.993 21.0373 148.952 21.0199 148.882 21.0087C148.894 21.0555 148.894 21.0906 148.882 21.1142C148.871 21.1377 148.853 21.1612 148.83 21.1848C148.818 21.1966 148.807 21.2201 148.795 21.2554C148.796 21.2905 148.808 21.3373 148.831 21.3958C148.668 21.4671 148.522 21.5677 148.394 21.6975C148.266 21.8272 148.126 21.9453 147.974 22.0518C147.835 22.1582 147.659 22.2297 147.449 22.2662C147.25 22.3027 146.986 22.2634 146.657 22.1484C146.174 21.8 145.744 21.3986 145.366 20.944C144.999 20.4894 144.697 19.9465 144.458 19.3152ZM161.341 12.4008C161.366 12.6584 161.408 12.8808 161.468 13.0679C161.528 13.255 161.594 13.4362 161.665 13.6116C161.725 13.7752 161.779 13.9389 161.827 14.1027C161.886 14.2546 161.928 14.4419 161.953 14.6644C161.862 14.9697 161.793 15.2514 161.748 15.5095C161.714 15.7675 161.675 16.0373 161.63 16.3189C161.445 16.7303 161.266 17.0947 161.093 17.4123C160.919 17.7299 160.78 18.0062 160.676 18.2412C160.618 18.3002 160.566 18.3709 160.519 18.4532C160.485 18.5238 160.444 18.6002 160.398 18.6825C160.375 18.7178 160.346 18.7708 160.311 18.8413C160.276 18.9119 160.247 18.9589 160.224 18.9825L159.872 18.8618L159.804 19.3017L159.559 19.3736L159.384 19.5857C159.164 19.9739 158.932 20.3036 158.688 20.5747C158.443 20.8342 158.163 21.0704 157.848 21.2834C157.545 21.4847 157.195 21.6745 156.798 21.8529C156.412 22.0312 155.974 22.2275 155.483 22.4417C155.284 22.4195 155.108 22.409 154.955 22.41C154.815 22.3992 154.68 22.3884 154.551 22.3775C154.328 22.379 154.053 22.3632 153.724 22.3302C153.689 22.2367 153.636 22.1726 153.565 22.1379C153.494 22.1032 153.43 22.0861 153.371 22.0865C153.171 21.994 153.018 21.8603 152.912 21.6852C152.817 21.4983 152.722 21.2997 152.626 21.0894C152.567 20.9609 152.508 20.8441 152.448 20.739C152.389 20.6222 152.324 20.5055 152.253 20.3887L152.551 20.2989L152.161 19.8796C152.138 19.8446 152.108 19.8155 152.073 19.7923C152.037 19.7573 152.008 19.7224 151.984 19.6874L151.965 19.4063C151.924 18.5979 151.902 17.8598 151.897 17.1918C151.905 16.5121 151.994 15.9079 152.167 15.3794L152.165 15.1861C152.199 14.928 152.233 14.7169 152.267 14.5526C152.301 14.3766 152.329 14.2123 152.351 14.0598C152.385 13.8018 152.436 13.5612 152.505 13.3381C152.669 13.3019 152.791 13.2366 152.873 13.1423C152.954 13.0363 153.024 12.9421 153.082 12.8597C153.246 12.8469 153.357 12.8696 153.416 12.9278C153.475 12.986 153.534 13.0793 153.594 13.2079C153.653 13.3129 153.724 13.4297 153.807 13.558C153.902 13.6863 154.037 13.785 154.213 13.8542C154.237 13.9478 154.267 14.0472 154.303 14.1524C154.351 14.2458 154.398 14.351 154.446 14.4679C154.541 14.6665 154.624 14.8769 154.696 15.099C154.78 15.3094 154.828 15.5142 154.841 15.7133C154.725 15.9368 154.633 16.1952 154.565 16.4886C154.508 16.782 154.469 17.0811 154.448 17.3859C154.438 17.6789 154.446 17.966 154.471 18.2471C154.508 18.5164 154.562 18.7445 154.634 18.9316L154.741 19.1594L155.039 19.1223C155.39 19.0262 155.706 18.9245 155.986 18.8172C156.279 18.698 156.547 18.5615 156.792 18.4075C157.037 18.2536 157.271 18.0762 157.492 17.8756C157.713 17.6631 157.946 17.4214 158.19 17.1502C158.435 16.8791 158.644 16.573 158.817 16.232C159.002 15.8792 159.152 15.5149 159.267 15.1392C159.393 14.7633 159.485 14.3936 159.541 14.0299C159.609 13.6544 159.653 13.3026 159.674 12.9743C159.873 12.9027 159.972 12.7614 159.971 12.5505L159.934 12.3573C159.887 12.2873 159.886 12.2053 159.932 12.1113C160.001 11.8881 160.164 11.7171 160.421 11.5982C160.61 11.7142 160.774 11.842 160.916 11.9817C161.069 12.1213 161.211 12.261 161.341 12.4008ZM171.511 13.8805C171.218 13.8824 170.902 13.9079 170.562 13.9571C170.222 13.9945 169.889 14.0377 169.561 14.0867C169.327 14.1234 169.098 14.1542 168.876 14.1791C168.665 14.204 168.472 14.2228 168.296 14.2357C168.216 14.4941 168.135 14.7231 168.055 14.9229C167.974 15.1226 167.887 15.3166 167.795 15.5047C167.702 15.7045 167.616 15.9102 167.535 16.1216C167.466 16.3213 167.397 16.5386 167.329 16.7734C167.213 16.9617 167.114 17.1381 167.033 17.3027C166.964 17.4555 166.907 17.6317 166.861 17.8312C166.722 18.0079 166.617 18.1961 166.548 18.3958C166.479 18.5838 166.428 18.7482 166.393 18.889L166.324 19.1004C166.255 19.1712 166.214 19.2301 166.203 19.277C166.191 19.3122 166.162 19.3476 166.115 19.3831C166.105 19.512 166.064 19.6412 165.995 19.7706C165.972 19.8293 165.955 19.888 165.943 19.9467C165.932 19.9937 165.926 20.0288 165.926 20.0523C165.927 20.1695 165.898 20.2458 165.84 20.2814C165.852 20.3399 165.853 20.4043 165.841 20.4747C165.83 20.5334 165.819 20.5921 165.807 20.6507C165.773 20.7916 165.762 20.903 165.774 20.9849C165.81 21.0316 165.839 21.0724 165.863 21.1074C165.899 21.1423 165.922 21.1891 165.934 21.2476C166.005 21.294 166.058 21.3229 166.093 21.3344C166.14 21.3693 166.211 21.4098 166.305 21.4561L166.464 21.6308C166.525 21.9702 166.474 22.2401 166.311 22.4404C166.137 22.6642 165.839 22.7775 165.417 22.7803L165.206 22.7817C165.147 22.7235 165.112 22.6769 165.1 22.6418C165.006 22.6073 164.929 22.5785 164.871 22.5554C164.812 22.5324 164.759 22.4858 164.712 22.4158C164.559 22.3465 164.435 22.2887 164.341 22.2425L164.183 22.1556C164.182 22.0267 164.181 21.9564 164.181 21.9447C164.098 21.8398 164.033 21.723 163.985 21.5944C163.949 21.4658 163.919 21.3371 163.895 21.2083C163.871 21.103 163.841 21.0036 163.805 20.9101C163.781 20.8165 163.745 20.7347 163.698 20.6647C163.67 19.9852 163.731 19.4105 163.88 18.9408C164.029 18.471 164.184 18.0188 164.346 17.5842C164.438 17.3492 164.53 17.1142 164.622 16.8792C164.714 16.6325 164.795 16.38 164.863 16.1217L165.02 15.9449C165.101 15.7569 165.165 15.6041 165.211 15.4866C165.268 15.3573 165.326 15.228 165.384 15.0987C165.419 15.0165 165.447 14.9401 165.47 14.8696C165.505 14.7874 165.534 14.7169 165.557 14.6581C165.487 14.6586 165.422 14.6649 165.364 14.677C165.305 14.6774 165.246 14.6836 165.188 14.6957C165.118 14.7079 165.053 14.72 164.995 14.7322C164.936 14.7325 164.878 14.7329 164.819 14.7333C164.737 14.7339 164.678 14.7284 164.643 14.7169C164.515 14.7763 164.374 14.8066 164.222 14.8076L164.046 14.8087C164.011 14.809 163.976 14.8092 163.941 14.8094C163.917 14.7979 163.894 14.7922 163.87 14.7923C163.753 14.7931 163.659 14.8113 163.589 14.8469C163.449 14.8478 163.314 14.8487 163.185 14.8496L163.009 14.8507C162.986 14.8509 162.957 14.857 162.921 14.8689C162.886 14.8691 162.857 14.8693 162.834 14.8695C162.752 14.87 162.664 14.8647 162.57 14.8536C162.476 14.8308 162.376 14.7905 162.27 14.7326C162.128 14.546 162.034 14.447 161.987 14.4356L161.827 14.2257C161.815 14.1555 161.797 14.0912 161.773 14.0327C161.749 13.9626 161.725 13.8866 161.701 13.8047C161.654 13.6878 161.606 13.5651 161.558 13.4365C161.522 13.2961 161.504 13.1321 161.502 12.9446C161.514 12.8508 161.537 12.7804 161.571 12.7332C161.606 12.6861 161.635 12.6449 161.658 12.6096L161.709 12.3456L161.938 12.3617L162.43 12.3584C162.805 12.3559 163.186 12.3417 163.573 12.3157C163.959 12.278 164.357 12.2402 164.767 12.2024C165.001 12.1774 165.236 12.1524 165.47 12.1274C165.716 12.1023 165.968 12.0772 166.225 12.0521C166.271 11.9463 166.318 11.8464 166.364 11.7523L166.539 11.6633C166.75 11.6502 166.897 11.6785 166.979 11.7483C167.073 11.8062 167.15 11.8643 167.209 11.9225C167.466 11.8974 167.724 11.8723 167.982 11.8471C168.251 11.8102 168.52 11.7674 168.789 11.7187C169.187 11.6575 169.586 11.6021 169.984 11.5526C170.394 11.503 170.786 11.477 171.161 11.4745C171.325 11.4734 171.483 11.4783 171.636 11.489C171.788 11.4997 171.929 11.5163 172.058 11.5389L172.234 11.6608C172.27 11.7309 172.317 11.795 172.376 11.8532C172.447 11.9114 172.518 11.9695 172.588 12.0276C172.73 12.1556 172.872 12.307 173.013 12.4818C173.155 12.6567 173.21 12.9142 173.177 13.2542C173.084 13.3955 173.014 13.478 172.967 13.5017L172.811 13.7137L172.635 13.6973C172.564 13.6977 172.5 13.7099 172.441 13.7337C172.383 13.7458 172.325 13.7638 172.266 13.7876C172.219 13.8113 172.173 13.8351 172.126 13.8588C172.079 13.8709 172.026 13.8829 171.968 13.895C171.862 13.8957 171.775 13.8963 171.704 13.8968C171.646 13.8854 171.581 13.88 171.511 13.8805ZM179.939 12.3833C179.951 12.4653 179.951 12.5297 179.94 12.5767C179.94 12.6119 179.934 12.647 179.923 12.6823C179.923 12.7174 179.923 12.7585 179.924 12.8053C179.924 12.8405 179.936 12.899 179.96 12.9809C179.717 13.3809 179.431 13.6582 179.104 13.8127C178.789 13.9554 178.444 14.0632 178.069 14.136C177.695 14.197 177.308 14.264 176.91 14.337C176.524 14.4099 176.138 14.5648 175.753 14.8017C175.601 14.7441 175.46 14.745 175.331 14.8045C175.215 14.8638 175.039 14.8826 174.804 14.8607C174.735 14.9315 174.647 14.9848 174.542 15.0206C174.437 15.0448 174.331 15.0748 174.226 15.1106C174.274 15.2158 174.292 15.327 174.281 15.4442C174.282 15.5497 174.3 15.6375 174.335 15.7076C174.746 15.74 175.197 15.7312 175.689 15.681C176.192 15.6308 176.684 15.5983 177.165 15.5834C177.177 15.6419 177.171 15.683 177.148 15.7065C177.125 15.7184 177.119 15.7478 177.131 15.7945C177.213 15.8526 177.296 15.9282 177.379 16.0214C177.461 16.1029 177.544 16.1844 177.626 16.2659C177.709 16.3474 177.791 16.4172 177.874 16.4752C177.968 16.5215 178.073 16.5383 178.191 16.5258C178.238 16.6193 178.268 16.7246 178.281 16.8417C178.305 16.947 178.294 17.0584 178.248 17.1759C178.061 17.306 177.874 17.442 177.688 17.5839C177.501 17.714 177.303 17.8325 177.092 17.9394C176.894 18.0462 176.678 18.1355 176.444 18.2073C176.222 18.2674 175.97 18.2925 175.688 18.2827C175.63 18.283 175.583 18.2833 175.548 18.2836C175.524 18.2837 175.489 18.2664 175.442 18.2315C175.349 18.2908 175.214 18.3092 175.038 18.287C174.874 18.2646 174.745 18.283 174.652 18.3422C174.522 18.2845 174.364 18.2621 174.177 18.2751C174.001 18.2762 173.842 18.2538 173.702 18.2079C173.516 18.4552 173.348 18.72 173.197 19.0023C173.047 19.2845 172.914 19.5842 172.799 19.9014C173.197 19.9574 173.526 19.9786 173.783 19.9652C174.053 19.9517 174.305 19.9325 174.539 19.9075C174.773 19.8708 175.013 19.8399 175.259 19.8148C175.505 19.778 175.815 19.7643 176.19 19.7735C176.424 19.6431 176.699 19.5592 177.015 19.522C177.343 19.4729 177.641 19.4006 177.91 19.3051C178.004 19.3396 178.087 19.4035 178.157 19.4968C178.228 19.5784 178.293 19.66 178.352 19.7416C178.423 19.8115 178.494 19.8755 178.565 19.9336C178.635 19.9917 178.723 20.0146 178.829 20.0022C178.876 20.0487 178.906 20.1071 178.918 20.1774C178.942 20.2358 178.96 20.2943 178.972 20.3528C178.984 20.4113 179.002 20.4639 179.025 20.5106C179.061 20.5456 179.114 20.5569 179.184 20.5448C179.011 20.9326 178.808 21.2328 178.575 21.4453C178.353 21.646 178.096 21.8 177.804 21.9074C177.512 22.0148 177.184 22.099 176.821 22.16C176.47 22.2209 176.078 22.2938 175.645 22.3787C175.54 22.4029 175.452 22.3976 175.381 22.3629C175.311 22.3399 175.229 22.3287 175.135 22.3294C174.866 22.3897 174.544 22.4446 174.169 22.494C173.795 22.5433 173.414 22.5634 173.027 22.5542C172.64 22.5451 172.271 22.4948 171.919 22.4034C171.567 22.3237 171.278 22.1732 171.054 21.952C170.96 21.8706 170.895 21.7773 170.859 21.6721C170.835 21.555 170.758 21.4676 170.629 21.4099C170.616 21.2576 170.592 21.0879 170.555 20.9006C170.519 20.7134 170.482 20.5202 170.446 20.3212C170.409 20.1105 170.379 19.9057 170.354 19.7066C170.341 19.5075 170.351 19.3258 170.386 19.1615C170.42 18.9855 170.489 18.8268 170.593 18.6855C170.71 18.5441 170.75 18.3915 170.713 18.2276C170.772 18.2155 170.807 18.186 170.818 18.1391C170.83 18.0804 170.876 18.0566 170.958 18.0678C171.027 17.8564 171.102 17.6567 171.183 17.4687C171.264 17.2806 171.345 17.0984 171.425 16.9221C171.518 16.7457 171.605 16.5694 171.686 16.393C171.778 16.2049 171.865 15.9993 171.945 15.7761C171.78 15.6248 171.656 15.4616 171.573 15.2863C171.501 15.0993 171.447 14.918 171.411 14.7425C171.375 14.5552 171.344 14.3679 171.319 14.1806C171.295 13.9815 171.252 13.7826 171.192 13.5837C171.308 13.4072 171.448 13.2656 171.612 13.1591C171.787 13.0407 171.973 12.9458 172.172 12.8741C172.371 12.8025 172.587 12.7425 172.821 12.6941C173.055 12.6456 173.301 12.5913 173.559 12.531C174.026 12.3755 174.442 12.2556 174.804 12.1712C175.179 12.0867 175.542 12.0198 175.893 11.9706C176.256 11.9096 176.63 11.8544 177.017 11.805C177.403 11.7556 177.842 11.6823 178.334 11.5853C178.44 11.6901 178.54 11.7422 178.634 11.7416C178.68 11.6358 178.732 11.6061 178.791 11.6526C178.862 11.6873 178.891 11.652 178.878 11.5466C178.997 11.745 179.144 11.914 179.321 12.0534C179.51 12.1811 179.715 12.2911 179.939 12.3833ZM179.811 14.3706C179.892 14.1239 180.019 13.9121 180.194 13.7352C180.38 13.5582 180.578 13.4104 180.788 13.2918C181.01 13.1614 181.238 13.0545 181.472 12.9709C181.706 12.8873 181.928 12.8155 182.138 12.7555C182.606 12.5532 183.103 12.3624 183.629 12.1832C184.167 11.9921 184.71 11.8245 185.26 11.6802C185.822 11.5359 186.395 11.4442 186.981 11.4051C187.567 11.3544 188.182 11.4206 188.828 11.6039C188.864 11.7208 188.918 11.8318 188.989 11.9368C189.06 12.0418 189.131 12.1468 189.202 12.2518C189.284 12.3567 189.355 12.4617 189.415 12.5668C189.474 12.6602 189.51 12.7596 189.522 12.8649C189.64 12.9696 189.734 13.0862 189.806 13.2146C189.877 13.3314 189.889 13.4895 189.844 13.689C189.727 13.7835 189.611 13.8722 189.494 13.955C189.389 14.026 189.272 14.0912 189.144 14.1507C188.71 14.0481 188.27 14.0158 187.825 14.0539C187.38 14.092 186.982 14.1239 186.63 14.1497C186.524 14.0449 186.395 13.9931 186.242 13.9941C186.102 13.995 185.95 14.0194 185.786 14.0674C185.634 14.1153 185.476 14.1632 185.312 14.2112C185.16 14.259 185.014 14.2717 184.873 14.2492C184.756 14.3437 184.61 14.4092 184.435 14.4455C184.271 14.47 184.089 14.4946 183.89 14.5194C183.879 14.5781 183.891 14.619 183.926 14.6422C183.961 14.6537 183.968 14.6888 183.945 14.7475C184.015 14.8291 184.104 14.8871 184.209 14.9216C184.327 14.956 184.444 14.9903 184.562 15.0247C184.691 15.059 184.802 15.1052 184.897 15.1631C184.991 15.2094 185.056 15.291 185.092 15.4079C185.267 15.4068 185.42 15.4468 185.549 15.528C185.679 15.6091 185.785 15.7081 185.868 15.8247C185.951 15.9413 186.01 16.0699 186.046 16.2103C186.094 16.3388 186.118 16.4559 186.119 16.5613C186.154 16.6549 186.196 16.6956 186.243 16.6836C186.289 16.6715 186.342 16.6946 186.401 16.7528C186.437 16.9049 186.526 17.0626 186.668 17.2257C186.81 17.3771 186.922 17.5463 187.005 17.7332C187.031 18.026 187.05 18.2896 187.063 18.5239C187.077 18.7465 187.037 18.9752 186.945 19.2102C186.772 19.645 186.528 20.0333 186.214 20.3752C185.912 20.7171 185.562 21.0241 185.166 21.2963C184.781 21.5566 184.366 21.782 183.922 21.9725C183.478 22.1629 183.045 22.324 182.624 22.4557C182.577 22.4442 182.531 22.4446 182.484 22.4566C182.437 22.4686 182.425 22.4394 182.448 22.3689C182.355 22.4516 182.25 22.505 182.133 22.5292C182.027 22.5534 181.91 22.56 181.781 22.5491C181.652 22.55 181.518 22.545 181.377 22.5342C181.248 22.5233 181.125 22.53 181.008 22.5542C180.925 22.4727 180.849 22.3912 180.778 22.3097C180.719 22.2397 180.671 22.1463 180.635 22.0293C180.577 22.0297 180.547 22.0006 180.547 21.942C180.558 21.8834 180.54 21.8542 180.493 21.8545C180.563 21.7368 180.592 21.6722 180.58 21.6606C180.58 21.6371 180.562 21.6197 180.527 21.6082C180.503 21.5966 180.48 21.585 180.456 21.5735C180.433 21.5502 180.427 21.5209 180.438 21.4857C180.484 21.3917 180.501 21.2861 180.489 21.169C180.476 21.0401 180.464 20.9113 180.451 20.7825C180.439 20.6537 180.444 20.5306 180.466 20.4132C180.501 20.2958 180.588 20.2015 180.728 20.1302C181.127 20.1745 181.502 20.1603 181.853 20.0877C182.216 20.0032 182.555 19.8897 182.87 19.7469C183.186 19.6042 183.483 19.4499 183.764 19.284C184.055 19.118 184.342 18.9696 184.622 18.8389C184.656 18.7332 184.703 18.645 184.761 18.5743C184.831 18.5035 184.901 18.4386 184.971 18.3795C185.04 18.3205 185.104 18.2556 185.163 18.1849C185.221 18.1142 185.261 18.026 185.284 17.9204C185.295 17.8383 185.271 17.7916 185.213 17.7802C185.166 17.7571 185.142 17.7104 185.141 17.6401L184.948 17.5886C184.724 17.4612 184.472 17.3574 184.19 17.2772C183.908 17.1853 183.667 17.0873 183.467 16.9832C183.339 17.0543 183.216 17.0727 183.098 17.0383C182.993 17.0039 182.852 16.9697 182.676 16.9357C182.277 16.9149 181.89 16.8764 181.515 16.8203C181.151 16.7641 180.799 16.661 180.458 16.5109C180.434 16.4524 180.405 16.3999 180.369 16.3532C180.334 16.3066 180.269 16.2953 180.176 16.3194C180.105 16.2261 180.034 16.1387 179.963 16.0571C179.892 15.9638 179.827 15.8646 179.768 15.7595C179.79 15.6188 179.807 15.5015 179.818 15.4076C179.829 15.3021 179.793 15.2027 179.711 15.1095C179.756 14.9569 179.791 14.8336 179.814 14.7397C179.836 14.6458 179.836 14.5227 179.811 14.3706Z" fill="white"/>
</svg>
