<svg width="296" height="192" viewBox="0 0 296 192" fill="none" xmlns="http://www.w3.org/2000/svg">
<g clip-path="url(#clip0_1112_2457)">
<mask id="mask0_1112_2457" style="mask-type:alpha" maskUnits="userSpaceOnUse" x="61" y="18" width="175" height="174">
<circle cx="148.479" cy="105.465" r="86.5352" fill="#06A5FA"/>
</mask>
<g mask="url(#mask0_1112_2457)">
<circle cx="148.479" cy="105.465" r="86.5352" fill="#008FDB"/>
<rect x="117.454" y="157.133" width="62.0469" height="64.6761" rx="2.7076" fill="#C4C4C4" stroke="black" stroke-width="5"/>
<path d="M170.715 178.211V194.511" stroke="white" stroke-width="5.4152" stroke-linecap="round"/>
<path d="M105.887 130.288C105.887 130.288 105.887 130.288 105.887 130.288C105.887 130.288 105.887 124.395 148.479 124.395C191.071 124.395 191.071 130.288 191.071 130.288C191.071 130.288 191.071 130.288 191.071 130.288V164.473C191.071 164.473 191.071 164.473 191.071 164.473C191.071 164.473 191.071 170.366 148.479 170.366C105.887 170.366 105.887 164.473 105.887 164.473C105.887 164.473 105.887 164.473 105.887 164.473V130.288Z" fill="#C4C4C4" stroke="black" stroke-width="5"/>
<path d="M125.895 137.918C125.895 83.9301 82.129 40.1641 28.1409 40.1641" stroke="#FBA99D" stroke-width="8"/>
<path d="M133.715 137.918C133.715 79.611 86.448 32.3438 28.1409 32.3438" stroke="#FED585" stroke-width="8"/>
<path d="M141.536 137.918C141.536 75.292 90.7671 24.5234 28.1409 24.5234" stroke="#FEF284" stroke-width="8"/>
<path d="M149.356 137.922C149.356 70.9769 95.0861 16.707 28.1409 16.707" stroke="#C3E29E" stroke-width="8"/>
<path d="M157.176 137.918C157.176 66.6539 99.4052 8.88281 28.1409 8.88281" stroke="#ABE9FE" stroke-width="8"/>
<path d="M164.997 137.918C164.997 62.3349 103.724 1.0625 28.1409 1.0625" stroke="#97B0F0" stroke-width="8"/>
<path d="M172.817 137.918C172.817 58.0159 108.043 -6.75781 28.1409 -6.75781" stroke="#C4A6FC" stroke-width="8"/>
<path d="M180.93 135.211C180.93 135.211 180.93 137.915 148.479 137.915C116.028 137.915 116.028 135.211 116.028 135.211" stroke="black" stroke-width="5" stroke-linecap="round"/>
<path d="M177.766 144.578L177.766 159.464" stroke="white" stroke-width="5.4152" stroke-linecap="round"/>
</g>
<mask id="path-15-inside-1_1112_2457" fill="white">
<path fill-rule="evenodd" clip-rule="evenodd" d="M170.889 98.9496C150.298 98.9486 133.606 82.2557 133.606 61.6642C133.606 41.0721 150.299 24.3789 170.891 24.3789C172.19 24.3789 173.474 24.4454 174.74 24.5751C183.317 9.8766 199.256 0 217.501 0C241.639 0 261.739 17.2853 266.099 40.1528C266.12 40.1526 266.142 40.1526 266.163 40.1525C266.194 40.1524 266.225 40.1523 266.255 40.1523C282.492 40.1523 295.653 53.3143 295.653 69.5504C295.653 85.5474 282.876 98.5602 266.971 98.9399V98.9496H170.889Z"/>
</mask>
<path fill-rule="evenodd" clip-rule="evenodd" d="M170.889 98.9496C150.298 98.9486 133.606 82.2557 133.606 61.6642C133.606 41.0721 150.299 24.3789 170.891 24.3789C172.19 24.3789 173.474 24.4454 174.74 24.5751C183.317 9.8766 199.256 0 217.501 0C241.639 0 261.739 17.2853 266.099 40.1528C266.12 40.1526 266.142 40.1526 266.163 40.1525C266.194 40.1524 266.225 40.1523 266.255 40.1523C282.492 40.1523 295.653 53.3143 295.653 69.5504C295.653 85.5474 282.876 98.5602 266.971 98.9399V98.9496H170.889Z" fill="white"/>
<path d="M170.889 98.9496L170.889 103.95H170.889V98.9496ZM174.74 24.5751L174.229 29.549L177.434 29.8777L179.058 27.0952L174.74 24.5751ZM266.099 40.1528L261.187 41.0892L261.966 45.1743L266.125 45.1527L266.099 40.1528ZM266.163 40.1525L266.147 35.1525L266.147 35.1525L266.163 40.1525ZM266.971 98.9399L266.851 93.9413L261.971 94.0578V98.9399H266.971ZM266.971 98.9496V103.95H271.971V98.9496H266.971ZM170.889 93.9496C153.059 93.9487 138.606 79.4944 138.606 61.6642H128.606C128.606 85.0171 147.536 103.948 170.889 103.95L170.889 93.9496ZM138.606 61.6642C138.606 43.8335 153.06 29.3789 170.891 29.3789V19.3789C147.537 19.3789 128.606 38.3107 128.606 61.6642H138.606ZM170.891 29.3789C172.02 29.3789 173.133 29.4366 174.229 29.549L175.25 19.6012C173.815 19.4541 172.361 19.3789 170.891 19.3789V29.3789ZM179.058 27.0952C186.776 13.869 201.106 5 217.501 5V-5C197.405 -5 179.857 5.88416 170.421 22.0551L179.058 27.0952ZM217.501 5C239.194 5 257.269 20.5355 261.187 41.0892L271.011 39.2163C266.209 14.035 244.084 -5 217.501 -5V5ZM266.125 45.1527C266.143 45.1526 266.161 45.1525 266.179 45.1525L266.147 35.1525C266.122 35.1526 266.098 35.1527 266.073 35.1528L266.125 45.1527ZM266.178 45.1525C266.204 45.1524 266.229 45.1523 266.255 45.1523V35.1523C266.22 35.1523 266.184 35.1524 266.147 35.1525L266.178 45.1525ZM266.255 45.1523C279.73 45.1523 290.653 56.0757 290.653 69.5504H300.653C300.653 50.5529 285.253 35.1523 266.255 35.1523V45.1523ZM290.653 69.5504C290.653 82.826 280.049 93.6263 266.851 93.9413L267.09 103.938C285.703 103.494 300.653 88.2689 300.653 69.5504H290.653ZM261.971 98.9399V98.9496H271.971V98.9399H261.971ZM266.971 93.9496H170.889V103.95H266.971V93.9496Z" fill="black" mask="url(#path-15-inside-1_1112_2457)"/>
<mask id="path-17-inside-2_1112_2457" fill="white">
<path fill-rule="evenodd" clip-rule="evenodd" d="M35.1603 128.016C25.6829 128.016 18 120.333 18 110.856C18 101.378 25.683 93.6953 35.1604 93.6953C35.758 93.6953 36.3485 93.7259 36.9304 93.7855C40.8783 87.0215 48.2136 82.4766 56.6103 82.4766C67.7197 82.4766 76.9709 90.4323 78.9774 100.957L79.0497 100.957C86.5223 100.957 92.58 107.015 92.58 114.487C92.58 121.849 86.7007 127.838 79.3813 128.014V128.019H35.1603V128.016Z"/>
</mask>
<path fill-rule="evenodd" clip-rule="evenodd" d="M35.1603 128.016C25.6829 128.016 18 120.333 18 110.856C18 101.378 25.683 93.6953 35.1604 93.6953C35.758 93.6953 36.3485 93.7259 36.9304 93.7855C40.8783 87.0215 48.2136 82.4766 56.6103 82.4766C67.7197 82.4766 76.9709 90.4323 78.9774 100.957L79.0497 100.957C86.5223 100.957 92.58 107.015 92.58 114.487C92.58 121.849 86.7007 127.838 79.3813 128.014V128.019H35.1603V128.016Z" fill="white"/>
<path d="M35.1603 128.016H40.1603V123.016L35.1603 123.016L35.1603 128.016ZM36.9304 93.7855L36.4208 98.7594L39.625 99.0878L41.2487 96.3059L36.9304 93.7855ZM78.9774 100.957L74.0658 101.894L74.8426 105.968L78.9905 105.957L78.9774 100.957ZM79.0497 100.957L79.0497 95.957L79.0365 95.957L79.0497 100.957ZM79.3813 128.014L79.2611 123.015L74.3813 123.132V128.014H79.3813ZM79.3813 128.019V133.019H84.3813V128.019H79.3813ZM35.1603 128.019H30.1603V133.019H35.1603V128.019ZM35.1603 123.016C28.4443 123.016 23 117.572 23 110.856H13C13 123.095 22.9215 133.016 35.1602 133.016L35.1603 123.016ZM23 110.856C23 104.14 28.4444 98.6953 35.1604 98.6953V88.6953C22.9216 88.6953 13 98.6169 13 110.856H23ZM35.1604 98.6953C35.5875 98.6953 36.0079 98.7171 36.4208 98.7594L37.4401 88.8115C36.6892 88.7346 35.9286 88.6953 35.1604 88.6953V98.6953ZM41.2487 96.3059C44.3373 91.0141 50.0636 87.4766 56.6103 87.4766V77.4766C46.3636 77.4766 37.4193 83.0289 32.6122 91.2651L41.2487 96.3059ZM56.6103 87.4766C65.2747 87.4766 72.5004 93.6825 74.0658 101.894L83.8889 100.021C81.4413 87.1821 70.1646 77.4766 56.6103 77.4766V87.4766ZM78.9905 105.957L79.0629 105.957L79.0365 95.957L78.9642 95.9572L78.9905 105.957ZM79.0497 105.957C83.7609 105.957 87.58 109.776 87.58 114.487H97.58C97.58 104.253 89.2837 95.957 79.0497 95.957V105.957ZM87.58 114.487C87.58 119.128 83.8732 122.904 79.2611 123.015L79.5015 133.012C89.5281 132.771 97.58 124.57 97.58 114.487H87.58ZM74.3813 128.014V128.019H84.3813V128.014H74.3813ZM79.3813 123.019H35.1603V133.019H79.3813V123.019ZM40.1603 128.019V128.016H30.1603V128.019H40.1603Z" fill="black" mask="url(#path-17-inside-2_1112_2457)"/>
</g>
<defs>
<clipPath id="clip0_1112_2457">
<rect width="296" height="192" fill="white"/>
</clipPath>
</defs>
</svg>
