<svg width="436" height="284" viewBox="0 0 436 284" fill="none" xmlns="http://www.w3.org/2000/svg">
<mask id="mask0_1431_8473" style="mask-type:alpha" maskUnits="userSpaceOnUse" x="90" y="28" width="256" height="256">
<circle cx="218" cy="156" r="128" fill="#06A5FA"/>
</mask>
<g mask="url(#mask0_1431_8473)">
<circle cx="218" cy="156" r="128" fill="#008FDB"/>
<rect x="172.109" y="232.426" width="91.7778" height="95.6667" rx="4" fill="#C4C4C4" stroke="black" stroke-width="8"/>
<path d="M250.891 263.598V287.709" stroke="white" stroke-width="8" stroke-linecap="round"/>
<path d="M155 192.718C155 192.718 155 184 218 184C281 184 281 192.718 281 192.718V243.282C281 243.282 281 252 218 252C155 252 155 243.282 155 243.282V192.718Z" fill="#C4C4C4" stroke="black" stroke-width="8"/>
<path d="M184.595 204.001C184.595 124.143 119.857 59.4062 40 59.4062" stroke="#FBA99D" stroke-width="11.5676"/>
<path d="M196.162 203.998C196.162 117.752 126.246 47.8359 40 47.8359" stroke="#FED585" stroke-width="11.5676"/>
<path d="M207.73 203.999C207.73 111.365 132.635 36.2695 40 36.2695" stroke="#FEF284" stroke-width="11.5676"/>
<path d="M219.297 204C219.297 104.977 139.023 24.7031 40 24.7031" stroke="#C3E29E" stroke-width="11.5676"/>
<path d="M230.865 204.002C230.865 98.5898 145.412 13.1367 40 13.1367" stroke="#ABE9FE" stroke-width="11.5676"/>
<path d="M242.432 203.999C242.432 92.1985 151.8 1.56641 40 1.56641" stroke="#97B0F0" stroke-width="11.5676"/>
<path d="M254 204C254 85.8111 158.189 -10 40 -10" stroke="#C4A6FC" stroke-width="11.5676"/>
<path d="M266 200C266 200 266 204 218 204C170 204 170 200 170 200" stroke="black" stroke-width="8" stroke-linecap="round"/>
<path d="M261.32 213.855L261.32 235.874" stroke="white" stroke-width="8" stroke-linecap="round"/>
</g>
<mask id="path-15-inside-1_1431_8473" fill="white">
<path fill-rule="evenodd" clip-rule="evenodd" d="M391.973 146.363H251.605C251.454 146.364 251.303 146.365 251.151 146.365C220.692 146.365 196 121.673 196 91.2137C196 60.7545 220.692 36.0625 251.151 36.0625C253.073 36.0625 254.972 36.1608 256.843 36.3526C269.53 14.61 293.106 0 320.095 0C355.8 0 385.532 25.569 391.98 59.3951C392.057 59.3947 392.134 59.3945 392.211 59.3945C416.227 59.3945 435.696 78.8633 435.696 102.879C435.696 126.541 416.796 145.789 393.269 146.351V146.363H392.45C392.37 146.364 392.291 146.364 392.211 146.364C392.132 146.364 392.052 146.364 391.973 146.363Z"/>
</mask>
<path fill-rule="evenodd" clip-rule="evenodd" d="M391.973 146.363H251.605C251.454 146.364 251.303 146.365 251.151 146.365C220.692 146.365 196 121.673 196 91.2137C196 60.7545 220.692 36.0625 251.151 36.0625C253.073 36.0625 254.972 36.1608 256.843 36.3526C269.53 14.61 293.106 0 320.095 0C355.8 0 385.532 25.569 391.98 59.3951C392.057 59.3947 392.134 59.3945 392.211 59.3945C416.227 59.3945 435.696 78.8633 435.696 102.879C435.696 126.541 416.796 145.789 393.269 146.351V146.363H392.45C392.37 146.364 392.291 146.364 392.211 146.364C392.132 146.364 392.052 146.364 391.973 146.363Z" fill="white"/>
<path d="M391.973 146.363L392.016 138.363L391.994 138.363H391.973V146.363ZM251.605 146.363V138.363H251.573L251.541 138.363L251.605 146.363ZM256.843 36.3526L256.027 44.3109L261.155 44.8366L263.752 40.3845L256.843 36.3526ZM391.98 59.3951L384.122 60.8932L385.368 67.4297L392.022 67.395L391.98 59.3951ZM393.269 146.351L393.078 138.353L385.269 138.54V146.351H393.269ZM393.269 146.363V154.363H401.269V146.363H393.269ZM392.45 146.363V138.363H392.428L392.407 138.363L392.45 146.363ZM391.973 138.363H251.605V154.363H391.973V138.363ZM251.541 138.363C251.411 138.364 251.281 138.365 251.151 138.365V154.365C251.324 154.365 251.497 154.364 251.67 154.363L251.541 138.363ZM251.151 138.365C225.11 138.365 204 117.255 204 91.2137H188C188 126.091 216.274 154.365 251.151 154.365V138.365ZM204 91.2137C204 65.1728 225.11 44.0625 251.151 44.0625V28.0625C216.274 28.0625 188 56.3363 188 91.2137H204ZM251.151 44.0625C252.8 44.0625 254.426 44.1468 256.027 44.3109L257.659 28.3943C255.517 28.1748 253.346 28.0625 251.151 28.0625V44.0625ZM263.752 40.3845C275.065 20.9978 296.067 8 320.095 8V-8C290.146 -8 263.995 8.22219 249.933 32.3208L263.752 40.3845ZM320.095 8C351.888 8 378.379 30.7693 384.122 60.8932L399.839 57.8971C392.685 20.3688 359.712 -8 320.095 -8V8ZM392.022 67.395C392.085 67.3947 392.148 67.3945 392.211 67.3945V51.3945C392.12 51.3945 392.03 51.3948 391.939 51.3952L392.022 67.395ZM392.211 67.3945C411.809 67.3945 427.696 83.2815 427.696 102.879H443.696C443.696 74.445 420.645 51.3945 392.211 51.3945V67.3945ZM427.696 102.879C427.696 122.187 412.273 137.895 393.078 138.353L393.46 154.349C421.319 153.684 443.696 130.896 443.696 102.879H427.696ZM385.269 146.351V146.363H401.269V146.351H385.269ZM393.269 138.363H392.45V154.363H393.269V138.363ZM392.407 138.363C392.342 138.364 392.276 138.364 392.211 138.364V154.364C392.305 154.364 392.399 154.363 392.493 154.363L392.407 138.363ZM392.211 138.364C392.146 138.364 392.081 138.364 392.016 138.363L391.93 154.363C392.023 154.363 392.117 154.364 392.211 154.364V138.364Z" fill="black" mask="url(#path-15-inside-1_1431_8473)"/>
<mask id="path-17-inside-2_1431_8473" fill="white">
<path fill-rule="evenodd" clip-rule="evenodd" d="M50.3828 189.364C36.3642 189.364 25 177.999 25 163.981C25 149.962 36.3644 138.598 50.3831 138.598C51.2665 138.598 52.1393 138.643 52.9995 138.731C58.8386 128.724 69.6896 122 82.1111 122C98.5438 122 112.228 133.768 115.196 149.336L115.303 149.336C126.356 149.336 135.316 158.296 135.316 169.35C135.316 180.239 126.62 189.097 115.793 189.357V189.365H50.3828V189.364Z"/>
</mask>
<path fill-rule="evenodd" clip-rule="evenodd" d="M50.3828 189.364C36.3642 189.364 25 177.999 25 163.981C25 149.962 36.3644 138.598 50.3831 138.598C51.2665 138.598 52.1393 138.643 52.9995 138.731C58.8386 128.724 69.6896 122 82.1111 122C98.5438 122 112.228 133.768 115.196 149.336L115.303 149.336C126.356 149.336 135.316 158.296 135.316 169.35C135.316 180.239 126.62 189.097 115.793 189.357V189.365H50.3828V189.364Z" fill="white"/>
<path d="M50.3828 189.364H58.3828V181.364L50.3829 181.364L50.3828 189.364ZM52.9995 138.731L52.1846 146.689L57.3116 147.214L59.9092 142.763L52.9995 138.731ZM115.196 149.336L107.337 150.834L108.58 157.354L115.217 157.336L115.196 149.336ZM115.303 149.336V141.336H115.292L115.282 141.336L115.303 149.336ZM115.793 189.357L115.601 181.36L107.793 181.547V189.357H115.793ZM115.793 189.365V197.365H123.793V189.365H115.793ZM50.3828 189.365H42.3828V197.365H50.3828V189.365ZM50.3829 181.364C40.7826 181.364 33 173.581 33 163.981H17C17 182.418 31.9459 197.364 50.3827 197.364L50.3829 181.364ZM33 163.981C33 154.38 40.7827 146.598 50.3831 146.598V130.598C31.9461 130.598 17 145.544 17 163.981H33ZM50.3831 146.598C50.9939 146.598 51.5947 146.629 52.1846 146.689L53.8144 130.772C52.684 130.657 51.5391 130.598 50.3831 130.598V146.598ZM59.9092 142.763C64.3736 135.112 72.6499 130 82.1111 130V114C66.7293 114 53.3037 122.336 46.0898 134.699L59.9092 142.763ZM82.1111 130C94.6318 130 105.075 138.968 107.337 150.834L123.054 147.838C119.381 128.568 102.456 114 82.1111 114V130ZM115.217 157.336L115.324 157.336L115.282 141.336L115.175 141.336L115.217 157.336ZM115.303 157.336C121.938 157.336 127.316 162.715 127.316 169.35H143.316C143.316 153.878 130.774 141.336 115.303 141.336V157.336ZM127.316 169.35C127.316 175.885 122.096 181.203 115.601 181.36L115.985 197.355C131.144 196.99 143.316 184.593 143.316 169.35H127.316ZM107.793 189.357V189.365H123.793V189.357H107.793ZM115.793 181.365H50.3828V197.365H115.793V181.365ZM58.3828 189.365V189.364H42.3828V189.365H58.3828Z" fill="black" mask="url(#path-17-inside-2_1431_8473)"/>
</svg>
