<svg width="229" height="67" viewBox="0 0 229 67" fill="none" xmlns="http://www.w3.org/2000/svg">
<path d="M53.1317 18.1745C52.8387 18.1761 52.5225 18.2013 52.1829 18.25C51.8432 18.287 51.5095 18.3299 51.1816 18.3786C50.9475 18.415 50.7191 18.4456 50.4966 18.4703C50.2858 18.4948 50.0925 18.5135 49.9168 18.5262C49.8362 18.7844 49.7554 19.0134 49.6745 19.2131C49.5936 19.4127 49.5067 19.6066 49.414 19.7946C49.3214 19.9943 49.2346 20.1999 49.1537 20.4113C49.0845 20.6109 49.0154 20.8281 48.9464 21.0628C48.8302 21.251 48.7316 21.4273 48.6505 21.5918C48.581 21.7445 48.5234 21.9206 48.4776 22.1201C48.3379 22.2967 48.2335 22.4847 48.1643 22.6843C48.095 22.8722 48.0432 23.0366 48.0088 23.1774L47.9397 23.3887C47.8697 23.4594 47.829 23.5182 47.8176 23.5652C47.8061 23.6004 47.777 23.6357 47.7303 23.6711C47.7193 23.8001 47.679 23.9292 47.6094 24.0585C47.5862 24.1172 47.569 24.1759 47.5576 24.2346C47.5461 24.2815 47.5405 24.3167 47.5406 24.3401C47.5412 24.4573 47.5124 24.5337 47.454 24.5691C47.466 24.6277 47.4664 24.6921 47.455 24.7625C47.4436 24.8212 47.4322 24.8798 47.4208 24.9385C47.3865 25.0793 47.3754 25.1907 47.3875 25.2726C47.4229 25.3193 47.4525 25.3602 47.4761 25.3952C47.5114 25.4302 47.5351 25.4769 47.5472 25.5354C47.6178 25.5819 47.6706 25.6109 47.7059 25.6225C47.7529 25.6574 47.8235 25.698 47.9175 25.7443L48.0766 25.9192C48.1371 26.2588 48.0859 26.5286 47.9229 26.7287C47.7483 26.9523 47.4501 27.0653 47.0283 27.0676L46.8173 27.0688C46.7584 27.0105 46.723 26.9638 46.7111 26.9287C46.6172 26.8941 46.5408 26.8652 46.4821 26.8421C46.4234 26.819 46.3704 26.7724 46.3231 26.7024C46.1704 26.6329 46.047 26.575 45.953 26.5286L45.7943 26.4416C45.7936 26.3127 45.7932 26.2424 45.7932 26.2307C45.7106 26.1256 45.6455 26.0088 45.5979 25.8802C45.562 25.7515 45.532 25.6227 45.5079 25.4939C45.4838 25.3886 45.454 25.2892 45.4183 25.1956C45.3944 25.102 45.3588 25.0201 45.3115 24.9501C45.2843 24.2705 45.3456 23.696 45.4954 23.2264C45.6451 22.7568 45.8008 22.3048 45.9625 21.8703C46.055 21.6354 46.1474 21.4005 46.2399 21.1656C46.3323 20.919 46.4129 20.6666 46.4818 20.4084L46.639 20.2318C46.72 20.0438 46.7836 19.8911 46.8299 19.7737C46.8878 19.6444 46.9456 19.5152 47.0035 19.386C47.0382 19.3038 47.0671 19.2274 47.0902 19.157C47.1249 19.0748 47.1538 19.0043 47.1769 18.9456C47.1066 18.946 47.0422 18.9522 46.9836 18.9642C46.925 18.9645 46.8665 18.9707 46.8079 18.9828C46.7377 18.9949 46.6733 19.0069 46.6148 19.019C46.5562 19.0193 46.4976 19.0196 46.439 19.02C46.357 19.0204 46.2983 19.0149 46.2631 19.0033C46.1345 19.0627 45.9941 19.0927 45.8417 19.0936L45.666 19.0945C45.6308 19.0947 45.5957 19.0949 45.5605 19.0951C45.537 19.0835 45.5135 19.0778 45.4901 19.0779C45.3729 19.0786 45.2792 19.0967 45.2091 19.1322C45.0685 19.133 44.9337 19.1337 44.8048 19.1344L44.6291 19.1354C44.6056 19.1355 44.5764 19.1415 44.5413 19.1535C44.5061 19.1537 44.4768 19.1538 44.4534 19.1539C44.3714 19.1544 44.2834 19.149 44.1896 19.1378C44.0957 19.1149 43.9959 19.0744 43.8901 19.0164C43.7485 18.8297 43.6542 18.7306 43.6072 18.7191L43.4479 18.5091C43.4358 18.4388 43.4178 18.3745 43.3941 18.316C43.3702 18.2458 43.3464 18.1698 43.3225 18.0879C43.275 17.971 43.2274 17.8482 43.1798 17.7195C43.1439 17.5791 43.1254 17.4151 43.1244 17.2276C43.1356 17.1338 43.1586 17.0634 43.1935 17.0163C43.2284 16.9693 43.2575 16.9281 43.2807 16.8928L43.332 16.6288L43.5606 16.6452L44.0528 16.6424C44.4278 16.6404 44.8086 16.6266 45.1952 16.601C45.5817 16.5637 45.9799 16.5264 46.3899 16.4889C46.6241 16.4642 46.8584 16.4395 47.0926 16.4148C47.3386 16.39 47.5904 16.3651 47.8481 16.3403C47.8944 16.2346 47.9407 16.1347 47.9871 16.0407L48.1624 15.9518C48.3732 15.9389 48.5199 15.9674 48.6023 16.0373C48.6964 16.0954 48.7729 16.1535 48.8318 16.2118C49.0894 16.187 49.3471 16.1621 49.6048 16.1372C49.8741 16.1006 50.1434 16.0581 50.4127 16.0097C50.8108 15.9489 51.209 15.894 51.6071 15.845C52.017 15.7958 52.4095 15.7702 52.7845 15.7682C52.9485 15.7672 53.1068 15.7722 53.2592 15.7831C53.4116 15.794 53.5523 15.8108 53.6813 15.8335L53.8578 15.9556C53.8933 16.0257 53.9405 16.0899 53.9995 16.1482C54.0701 16.2064 54.1407 16.2646 54.2114 16.3228C54.3527 16.4509 54.4942 16.6025 54.6358 16.7775C54.7773 16.9525 54.8315 17.21 54.7982 17.5501C54.7052 17.6912 54.6354 17.7736 54.5886 17.7973L54.4316 18.0091L54.2557 17.9925C54.1854 17.9929 54.121 18.005 54.0626 18.0287C54.004 18.0408 53.9455 18.0587 53.8871 18.0824C53.8403 18.1061 53.7936 18.1298 53.7468 18.1535C53.7 18.1655 53.6474 18.1775 53.5888 18.1895C53.4834 18.1901 53.3955 18.1906 53.3252 18.191C53.2665 18.1796 53.202 18.1741 53.1317 18.1745ZM60.2013 25.1141C60.1321 25.3138 60.0277 25.5194 59.8883 25.7311C59.7605 25.931 59.6033 26.1136 59.4167 26.2786C59.2417 26.432 59.0432 26.562 58.8212 26.6687C58.5991 26.7753 58.3651 26.8352 58.119 26.8483C57.9665 26.814 57.8608 26.7736 57.8019 26.727C57.7549 26.6921 57.702 26.6572 57.6432 26.6224C57.6079 26.5992 57.5726 26.5818 57.5374 26.5703C57.5138 26.5469 57.4903 26.5295 57.4668 26.5179L57.2554 26.4312L57.3244 26.2023C57.3474 26.1084 57.3411 26.0381 57.3057 25.9914C57.2702 25.933 57.1995 25.8573 57.0935 25.7641C57.0582 25.7291 57.0228 25.6942 56.9875 25.6592C56.9521 25.6242 56.9226 25.5893 56.899 25.5542L56.5983 25.2219L57.0722 25.0962C57.3648 25.0126 57.5575 24.9061 57.6506 24.7766C57.7553 24.6471 57.7952 24.4301 57.77 24.1256C57.5354 24.08 57.3362 24.0752 57.1723 24.1113C57.0201 24.1473 56.8622 24.1892 56.6984 24.2369C56.4878 24.2967 56.2713 24.3506 56.0489 24.3987C55.8381 24.4351 55.6038 24.4539 55.346 24.4553C55.2523 24.4559 55.1644 24.4563 55.0824 24.4568C55.0003 24.4455 54.9123 24.4343 54.8185 24.4231L54.6425 24.3889C54.6184 24.2601 54.5946 24.1899 54.5711 24.1784C54.5475 24.155 54.5239 24.1317 54.5004 24.1084C54.4414 24.0502 54.3766 23.9743 54.3057 23.881C54.2466 23.7758 54.2341 23.647 54.2685 23.4945C54.2093 23.3893 54.1735 23.284 54.1612 23.1786C54.0917 23.3197 54.0398 23.4664 54.0055 23.619L53.9361 23.7951L53.7605 23.8313C53.7372 23.8431 53.7198 23.8725 53.7083 23.9194C53.6968 23.9547 53.6911 23.984 53.6912 24.0074L53.605 24.3067C53.5816 24.3303 53.5583 24.3539 53.535 24.3774C53.5117 24.3893 53.4883 24.407 53.465 24.4305C53.4422 24.5361 53.4134 24.6418 53.3789 24.7474C53.3443 24.8531 53.3097 24.9529 53.275 25.0468C53.2173 25.1995 53.1654 25.3521 53.1194 25.5047C53.085 25.6456 53.074 25.7862 53.0865 25.9268L53.0173 26.1205C52.9591 26.1912 52.8949 26.2501 52.8249 26.2974C52.7548 26.3329 52.6847 26.3685 52.6145 26.404C52.5912 26.4276 52.5562 26.4512 52.5095 26.4749C52.4744 26.4868 52.4451 26.4987 52.4218 26.5105L52.3701 26.7042L52.1594 26.7405C52.0306 26.7647 51.9369 26.7828 51.8784 26.7948C51.8316 26.8068 51.773 26.813 51.7027 26.8133L51.5268 26.7967C51.3974 26.692 51.2973 26.6105 51.2267 26.5523C51.156 26.4824 51.0736 26.4184 50.9795 26.3603C50.8733 26.2202 50.8141 26.1151 50.802 26.0449C50.7899 25.9746 50.7778 25.9102 50.7658 25.8517C50.7419 25.7815 50.7299 25.723 50.7296 25.6761C50.7177 25.6293 50.6999 25.5942 50.6763 25.5709L50.4467 25.3613L50.6391 25.202L50.6551 24.9031C50.8861 24.3041 51.1291 23.7286 51.3839 23.1764C51.6503 22.6241 51.9226 22.0601 52.2007 21.4843C52.2934 21.2963 52.3803 21.1083 52.4613 20.9204C52.554 20.7324 52.6467 20.5444 52.7394 20.3564C52.7275 20.3213 52.7214 20.2803 52.7212 20.2334C52.7209 20.1865 52.7323 20.1337 52.7555 20.075C52.8833 19.8751 52.9878 19.6987 53.069 19.5459C53.1501 19.3814 53.2312 19.2169 53.3123 19.0524C53.405 18.8527 53.4977 18.6588 53.5904 18.4708C53.6948 18.2827 53.8227 18.0886 53.9739 17.8886L54.2545 17.764C54.2896 17.7521 54.3305 17.7401 54.3773 17.7282C54.4241 17.7045 54.4767 17.6925 54.5353 17.6921L54.7992 17.7258C55.1265 17.5717 55.4124 17.3592 55.657 17.0883C55.9016 16.8057 56.1517 16.4703 56.4073 16.0822L56.5818 15.8351L56.811 15.9745C56.8698 16.0093 56.9521 16.044 57.0577 16.0786C57.1633 16.1015 57.2748 16.1301 57.3922 16.1646C57.6034 16.2104 57.8029 16.262 57.9907 16.3196C58.1785 16.3771 58.3313 16.4642 58.4492 16.5807C58.5205 16.7678 58.5623 16.9082 58.5745 17.0019C58.5868 17.0956 58.6049 17.1892 58.6288 17.2828C58.6651 17.4819 58.6955 17.6809 58.72 17.88C58.7563 18.079 58.7809 18.3016 58.794 18.5476C58.8537 18.7465 58.9017 18.9454 58.9379 19.1445C58.9858 19.3317 59.0279 19.5248 59.0642 19.7238C59.1243 20.0048 59.1844 20.2798 59.2445 20.549C59.3045 20.8065 59.382 21.0522 59.4771 21.286C59.5708 21.2855 59.6294 21.2911 59.6529 21.3027C59.7114 21.2789 59.7699 21.261 59.8284 21.249C59.8987 21.2369 59.9748 21.2247 60.0568 21.2125L60.25 21.1939L60.3213 21.3693C60.3333 21.4278 60.3923 21.4861 60.498 21.5441C60.6504 21.555 60.762 21.5895 60.8326 21.6477C60.9032 21.6942 60.9679 21.7466 61.0268 21.8049C61.074 21.8515 61.121 21.8864 61.168 21.9096L61.4323 22.0136L61.2931 22.278C61.1771 22.4896 61.0083 22.6956 60.7867 22.896C60.5768 23.0847 60.3375 23.2442 60.0687 23.3746C60.0808 23.4449 60.087 23.5151 60.0874 23.5855C60.0994 23.644 60.1174 23.7083 60.1412 23.7785C60.1775 23.9775 60.2079 24.1825 60.2325 24.3933C60.2571 24.6041 60.2583 24.8209 60.2361 25.0436L60.2013 25.1141ZM55.1045 22.1012C55.456 22.0758 55.7722 22.0506 56.0534 22.0256C56.3461 21.9889 56.6681 21.9343 57.0193 21.8621C56.9353 21.511 56.8454 21.1482 56.7496 20.7737C56.6537 20.3875 56.552 20.0072 56.4445 19.6328L56.34 19.8092C56.107 20.0566 55.88 20.3332 55.659 20.6391C55.4497 20.945 55.2697 21.2331 55.1188 21.5034C55.0491 21.6093 54.9794 21.7151 54.9096 21.821C54.8399 21.9268 54.776 22.0327 54.718 22.1385C54.7883 22.1263 54.8527 22.1201 54.9113 22.1198C54.9816 22.1194 55.046 22.1132 55.1045 22.1012ZM71.9655 25.8931C71.4032 25.9196 70.9051 25.9107 70.4712 25.8662C70.0491 25.8216 69.6325 25.7126 69.2214 25.5391C69.1979 25.5275 69.1743 25.4983 69.1506 25.4516C69.1269 25.4048 69.1032 25.3698 69.0797 25.3465C69.0092 25.3117 68.9212 25.3005 68.8158 25.3128C68.7221 25.3133 68.64 25.302 68.5695 25.279C68.4755 25.2326 68.3285 25.1455 68.1286 25.0177C67.9286 24.8782 67.7463 24.7503 67.5816 24.634C67.3697 24.4711 67.1696 24.3082 66.9812 24.1451C66.7928 23.9821 66.6278 23.8072 66.4861 23.6205C66.4507 23.5738 66.4037 23.5507 66.3451 23.551C66.2865 23.5396 66.2336 23.5223 66.1866 23.4991C65.848 23.7119 65.5623 23.9772 65.3297 24.2949C65.097 24.6126 64.8762 24.936 64.667 25.2653C64.4579 25.5946 64.237 25.9064 64.0042 26.2006C63.7715 26.4949 63.4739 26.7192 63.1114 26.8735C63.006 26.8741 62.9121 26.8571 62.8299 26.8223C62.7477 26.7876 62.6712 26.7412 62.6006 26.683C62.53 26.6365 62.4595 26.59 62.3889 26.5435C62.3183 26.497 62.242 26.4623 62.1598 26.4393C62.159 26.2987 62.129 26.1699 62.0698 26.0531C62.0223 25.9362 61.9689 25.8251 61.9097 25.72C61.8623 25.6148 61.8266 25.5154 61.8026 25.4217C61.7786 25.3164 61.8015 25.2167 61.8713 25.1225C61.8006 25.0526 61.6947 24.977 61.5536 24.8958C61.6236 24.8251 61.6525 24.7604 61.6405 24.7019C61.6401 24.6433 61.6281 24.5848 61.6043 24.5263C61.5806 24.4679 61.5568 24.4035 61.533 24.3334C61.5208 24.2631 61.538 24.1927 61.5845 24.1221C61.6431 24.1218 61.7134 24.1097 61.7953 24.0858C61.7244 23.9925 61.689 23.9399 61.6889 23.9282C61.7005 23.9047 61.6886 23.8755 61.6533 23.8405C61.6295 23.7703 61.641 23.7292 61.6878 23.7173C61.7345 23.6936 61.7813 23.6699 61.828 23.6462C61.8717 23.0717 61.9684 22.538 62.118 22.0449C62.2676 21.5519 62.4349 21.0764 62.6199 20.6183C62.8049 20.1603 62.984 19.6964 63.1572 19.2267C63.3421 18.7569 63.4917 18.2522 63.6059 17.7125C63.7341 17.5829 63.8328 17.43 63.9022 17.2538C63.9833 17.0776 64.0643 16.9013 64.1454 16.7251C64.2382 16.5488 64.3368 16.3783 64.4414 16.2137C64.5576 16.0373 64.715 15.8958 64.9137 15.7892C65.0778 15.8 65.2245 15.8461 65.3539 15.9274C65.4832 15.997 65.6415 16.0254 65.829 16.0127C65.8645 16.0711 65.8941 16.1295 65.9178 16.188C65.9533 16.2464 65.9946 16.3048 66.0418 16.3631L66.3052 16.3089C66.4347 16.4137 66.5468 16.5478 66.6414 16.7114C66.7477 16.8631 66.819 17.0268 66.8551 17.2024C66.8912 17.378 66.8863 17.5479 66.8403 17.7122C66.7943 17.8648 66.6836 17.9885 66.5084 18.0832C66.5204 18.1417 66.5207 18.1886 66.5091 18.2238C66.5093 18.2473 66.5035 18.2707 66.4919 18.2942C66.4804 18.3177 66.4746 18.3412 66.4748 18.3646C66.4749 18.3881 66.4927 18.4231 66.5281 18.4698C66.2947 18.6469 66.1202 18.8939 66.0048 19.211C65.8894 19.528 65.8265 19.8096 65.8161 20.0558C65.9559 19.9144 66.1075 19.7788 66.2709 19.649C66.4459 19.5074 66.6209 19.3717 66.796 19.2418C66.9828 19.1119 67.1579 18.9878 67.3213 18.8697C67.4964 18.7516 67.654 18.6335 67.794 18.5156C68.1787 18.1619 68.5463 17.8786 68.8967 17.6657C69.2588 17.4411 69.6383 17.1929 70.0352 16.9212C70.1288 16.8972 70.1991 16.8968 70.2461 16.92C70.3048 16.9314 70.3635 16.9487 70.4222 16.9718C70.4218 16.9015 70.3982 16.8606 70.3512 16.8491C70.316 16.8376 70.304 16.7908 70.3153 16.7087C70.4908 16.6608 70.6429 16.6073 70.7715 16.548C70.9 16.4769 71.0402 16.4117 71.1923 16.3523C71.2983 16.4572 71.3985 16.568 71.4929 16.6846C71.5872 16.7896 71.7165 16.8533 71.8807 16.8758C71.94 17.0044 72.0109 17.1036 72.0933 17.1735C72.1756 17.2316 72.258 17.2898 72.3403 17.3479C72.4227 17.4061 72.4934 17.476 72.5524 17.5577C72.6232 17.6393 72.6649 17.768 72.6776 17.9437C72.6312 18.026 72.5789 18.1142 72.5209 18.2083C72.4745 18.3023 72.4282 18.4139 72.3821 18.543C72.1489 18.7553 71.9097 18.9441 71.6645 19.1095C71.431 19.2748 71.1917 19.4344 70.9464 19.5881C70.7012 19.7418 70.45 19.8955 70.1931 20.0493C69.9361 20.203 69.6734 20.3861 69.4051 20.5985C69.3469 20.6809 69.2712 20.7575 69.1778 20.8283C69.0961 20.8873 69.0086 20.9523 68.9152 21.0231C68.8218 21.0822 68.7343 21.1472 68.6526 21.2179C68.571 21.2887 68.507 21.3711 68.4606 21.4651C68.4255 21.477 68.3904 21.483 68.3552 21.4832C68.3201 21.4834 68.285 21.4895 68.2499 21.5014C68.2152 21.5836 68.1569 21.6484 68.0752 21.6957C68.0051 21.743 67.9586 21.8077 67.9356 21.8898C68.1134 22.2639 68.3435 22.5497 68.6259 22.7474C68.9082 22.9451 69.2254 23.0898 69.5775 23.1816C69.9295 23.2617 70.3106 23.3065 70.7208 23.3159C71.131 23.3137 71.5587 23.3113 72.004 23.3089C72.0508 23.2969 72.0683 23.2733 72.0564 23.2383C72.0561 23.1914 72.0853 23.1736 72.144 23.185C72.4257 23.2772 72.6433 23.4108 72.7966 23.5857C72.9498 23.749 73.1324 23.912 73.3442 24.0749C73.3232 24.5204 73.1905 24.8902 72.946 25.1846C72.7015 25.4789 72.3747 25.7151 71.9655 25.8931ZM82.7425 16.5699C82.7546 16.6519 82.755 16.7163 82.7435 16.7633C82.7437 16.7984 82.738 16.8336 82.7265 16.8688C82.7267 16.904 82.7269 16.945 82.7272 16.9919C82.7274 17.027 82.7394 17.0856 82.7633 17.1675C82.5194 17.5672 82.2338 17.8442 81.9066 17.9984C81.5909 18.1407 81.2458 18.2481 80.8712 18.3205C80.4965 18.3811 80.1102 18.4477 79.7121 18.5202C79.3258 18.5927 78.9399 18.7471 78.5545 18.9836C78.4019 18.9259 78.2612 18.9267 78.1326 18.986C78.0158 19.0452 77.8401 19.0637 77.6056 19.0416C77.5357 19.1123 77.4481 19.1655 77.3428 19.2013C77.2375 19.2253 77.1322 19.2552 77.0269 19.2909C77.0743 19.3961 77.0925 19.5073 77.0815 19.6246C77.082 19.73 77.1001 19.8178 77.1357 19.888C77.546 19.9209 77.9971 19.9125 78.489 19.8629C78.9927 19.8133 79.4847 19.7813 79.9651 19.7669C79.9771 19.8254 79.9715 19.8665 79.9482 19.89C79.9248 19.9019 79.9191 19.9312 79.9311 19.978C80.0135 20.0362 80.0959 20.1119 80.1785 20.2052C80.2609 20.2868 80.3434 20.3683 80.4259 20.4499C80.5084 20.5315 80.5908 20.6014 80.6732 20.6595C80.7672 20.7059 80.8727 20.7228 80.9898 20.7105C81.0372 20.804 81.0671 20.9093 81.0795 21.0264C81.1035 21.1317 81.0924 21.2431 81.0462 21.3606C80.8594 21.4905 80.6726 21.6263 80.4859 21.768C80.2991 21.8979 80.1005 22.0162 79.8902 22.1228C79.6916 22.2294 79.4752 22.3185 79.2413 22.3901C79.0189 22.4499 78.7671 22.4747 78.4858 22.4645C78.4272 22.4649 78.3803 22.4651 78.3452 22.4653C78.3217 22.4654 78.2865 22.4481 78.2394 22.4132C78.146 22.4723 78.0113 22.4906 77.8354 22.4681C77.6712 22.4456 77.5424 22.4639 77.449 22.523C77.3198 22.4651 77.1614 22.4425 76.974 22.4553C76.7982 22.4563 76.6399 22.4337 76.499 22.3876C76.3129 22.6347 76.1444 22.8993 75.9936 23.1814C75.8428 23.4635 75.7097 23.7631 75.5943 24.0801C75.993 24.1365 76.3213 24.1581 76.579 24.145C76.8485 24.1318 77.1003 24.1128 77.3346 24.0881C77.5688 24.0516 77.8088 24.021 78.0548 23.9962C78.3007 23.9597 78.6112 23.9463 78.9862 23.9559C79.2199 23.8258 79.4948 23.7422 79.811 23.7053C80.1389 23.6566 80.4373 23.5847 80.7063 23.4894C80.8003 23.5241 80.8827 23.5881 80.9535 23.6814C81.0242 23.7631 81.0892 23.8447 81.1482 23.9265C81.2189 23.9964 81.2896 24.0604 81.3602 24.1187C81.4308 24.1769 81.5188 24.1998 81.6243 24.1875C81.6714 24.2341 81.701 24.2926 81.7131 24.3628C81.7369 24.4213 81.7548 24.4798 81.7668 24.5383C81.7789 24.5968 81.7967 24.6495 81.8204 24.6962C81.8558 24.7312 81.9086 24.7426 81.9788 24.7305C81.8052 25.1182 81.6017 25.4181 81.3685 25.6303C81.147 25.8308 80.89 25.9846 80.5976 26.0916C80.3052 26.1987 79.9776 26.2826 79.6146 26.3431C79.2634 26.4037 78.8712 26.4761 78.4381 26.5606C78.3327 26.5846 78.2448 26.5792 78.1743 26.5444C78.1039 26.5214 78.0218 26.5101 77.928 26.5106C77.6588 26.5707 77.3368 26.6252 76.9621 26.6742C76.5874 26.7231 76.2066 26.7428 75.8198 26.7332C75.4331 26.7236 75.0636 26.6729 74.7116 26.5811C74.3595 26.501 74.0716 26.3502 73.8477 26.1288C73.7535 26.0473 73.6886 25.9539 73.6528 25.8486C73.6287 25.7316 73.5521 25.6441 73.4228 25.5862C73.4103 25.434 73.3859 25.2642 73.3497 25.0769C73.3135 24.8896 73.2773 24.6964 73.2411 24.4974C73.2047 24.2866 73.1743 24.0817 73.1498 23.8826C73.137 23.6835 73.1477 23.5018 73.1819 23.3375C73.2161 23.1616 73.2856 23.003 73.3903 22.8618C73.5067 22.7205 73.5468 22.5679 73.5108 22.4041C73.5693 22.392 73.6043 22.3625 73.6158 22.3156C73.6272 22.2569 73.6739 22.2332 73.756 22.2445C73.8252 22.0332 73.9002 21.8335 73.9812 21.6456C74.0622 21.4576 74.1433 21.2756 74.2243 21.0993C74.3171 20.923 74.404 20.7468 74.4851 20.5705C74.5778 20.3825 74.6645 20.177 74.7454 19.9539C74.5805 19.8024 74.4565 19.639 74.3735 19.4637C74.3022 19.2766 74.2484 19.0953 74.2123 18.9197C74.1761 18.7324 74.1458 18.545 74.1213 18.3577C74.0968 18.1586 74.0547 17.9596 73.995 17.7607C74.1112 17.5843 74.251 17.4429 74.4145 17.3365C74.5897 17.2183 74.7766 17.1236 74.9755 17.0522C75.1743 16.9807 75.3908 16.921 75.6249 16.8728C75.859 16.8246 76.1048 16.7705 76.3623 16.7105C76.8302 16.5556 77.2455 16.4361 77.6084 16.3521C77.9829 16.268 78.3458 16.2015 78.6971 16.1527C79.0601 16.0921 79.4348 16.0373 79.8212 15.9883C80.2077 15.9393 80.6468 15.8666 81.1384 15.7701C81.2445 15.875 81.3444 15.9272 81.4381 15.9267C81.4844 15.821 81.537 15.7914 81.5958 15.8379C81.6663 15.8727 81.6954 15.8374 81.6831 15.732C81.8014 15.9305 81.9488 16.0997 82.1254 16.2393C82.3136 16.3672 82.5193 16.4774 82.7425 16.5699ZM82.6128 18.557C82.6934 18.3104 82.8212 18.0988 82.996 17.922C83.1825 17.7452 83.3809 17.5977 83.5912 17.4793C83.8132 17.3492 84.0411 17.2424 84.275 17.1591C84.5089 17.0758 84.7312 17.0043 84.9418 16.9445C85.4095 16.7427 85.9065 16.5525 86.4328 16.3738C86.9709 16.1833 87.5149 16.0163 88.0649 15.8726C88.6266 15.7289 89.2003 15.6378 89.786 15.5994C90.3717 15.5493 90.9873 15.6163 91.6329 15.8002C91.6687 15.9172 91.722 16.0282 91.7929 16.1333C91.8638 16.2384 91.9347 16.3435 92.0056 16.4486C92.0882 16.5536 92.1591 16.6587 92.2183 16.7638C92.2774 16.8572 92.3131 16.9566 92.3254 17.062C92.4432 17.1669 92.5375 17.2835 92.6086 17.412C92.6795 17.5288 92.6921 17.687 92.6463 17.8865C92.5297 17.9808 92.413 18.0694 92.2962 18.1521C92.1912 18.223 92.0743 18.288 91.9457 18.3474C91.5116 18.2443 91.0719 18.2115 90.6268 18.2491C90.1817 18.2868 89.7834 18.3182 89.432 18.3436C89.326 18.2387 89.1968 18.1867 89.0444 18.1876C88.9038 18.1883 88.7516 18.2126 88.5878 18.2604C88.4357 18.3081 88.2778 18.3558 88.114 18.4036C87.9619 18.4513 87.8155 18.4639 87.6747 18.4412C87.558 18.5356 87.4119 18.6008 87.2363 18.637C87.0724 18.6613 86.8909 18.6858 86.6918 18.7103C86.6804 18.7689 86.6924 18.8099 86.7276 18.8331C86.7629 18.8447 86.7689 18.8798 86.7458 18.9385C86.8166 19.0202 86.9048 19.0783 87.0104 19.1128C87.1278 19.1473 87.2452 19.1819 87.3626 19.2164C87.4917 19.2508 87.6033 19.2971 87.6973 19.3551C87.7913 19.4015 87.8562 19.4832 87.892 19.6002C88.0678 19.5992 88.2204 19.6394 88.3497 19.7207C88.4791 19.802 88.5851 19.901 88.6678 20.0178C88.7505 20.1345 88.8098 20.2631 88.8457 20.4035C88.8933 20.5322 88.9174 20.6492 88.9179 20.7547C88.9536 20.8482 88.9949 20.889 89.0417 20.8771C89.0885 20.8651 89.1413 20.8882 89.2003 20.9465C89.2363 21.0986 89.325 21.2564 89.4665 21.4197C89.608 21.5712 89.7203 21.7405 89.8033 21.9276C89.8284 22.2204 89.8474 22.484 89.8604 22.7183C89.8734 22.9409 89.8336 23.1696 89.7412 23.4045C89.5678 23.8391 89.3238 24.2271 89.0093 24.5687C88.7065 24.9102 88.3566 25.2168 87.9596 25.4886C87.5743 25.7485 87.1596 25.9734 86.7153 26.1634C86.271 26.3533 85.8383 26.5139 85.4171 26.6452C85.3702 26.6337 85.3233 26.634 85.2765 26.6459C85.2297 26.6579 85.2178 26.6287 85.2409 26.5582C85.1476 26.6408 85.0424 26.6941 84.9254 26.7182C84.82 26.7422 84.7029 26.7487 84.5739 26.7377C84.445 26.7384 84.3102 26.7333 84.1695 26.7224C84.0405 26.7113 83.9175 26.7179 83.8005 26.742C83.718 26.6604 83.6414 26.5788 83.5706 26.4971C83.5116 26.4271 83.4642 26.3337 83.4284 26.2167C83.3698 26.217 83.3404 26.1879 83.3401 26.1293C83.3514 26.0706 83.3337 26.0414 83.2868 26.0417C83.3565 25.9241 83.3854 25.8595 83.3737 25.8478C83.3735 25.8244 83.3559 25.8069 83.3206 25.7954C83.2971 25.7838 83.2736 25.7722 83.2501 25.7606C83.2266 25.7373 83.2205 25.708 83.2321 25.6728C83.2784 25.5788 83.2954 25.4732 83.2831 25.3561C83.2706 25.2273 83.2582 25.0984 83.2458 24.9696C83.2333 24.8408 83.2385 24.7177 83.2613 24.6004C83.2958 24.483 83.3832 24.3888 83.5234 24.3177C83.9221 24.3624 84.2971 24.3486 84.6482 24.2763C85.011 24.1923 85.3503 24.0791 85.6659 23.9367C85.9815 23.7944 86.2795 23.6404 86.5599 23.4748C86.8519 23.3091 87.1382 23.161 87.4187 23.0306C87.4533 22.9249 87.4997 22.8368 87.5579 22.7661C87.6278 22.6954 87.6978 22.6306 87.7678 22.5716C87.8378 22.5126 87.9019 22.4478 87.9601 22.3772C88.0183 22.3065 88.0588 22.2184 88.0817 22.1128C88.0929 22.0307 88.0692 21.984 88.0106 21.9726C87.9636 21.9494 87.9399 21.9027 87.9395 21.8324L87.7458 21.7807C87.5225 21.653 87.27 21.5489 86.9883 21.4685C86.7065 21.3763 86.4657 21.278 86.2659 21.1736C86.1374 21.2446 86.0145 21.2629 85.8971 21.2284C85.7914 21.1938 85.6506 21.1594 85.4746 21.1252C85.0761 21.104 84.6891 21.0651 84.3138 21.0086C83.9502 20.952 83.5981 20.8485 83.2574 20.698C83.2336 20.6395 83.204 20.587 83.1686 20.5403C83.1332 20.4936 83.0687 20.4822 82.9751 20.5062C82.9043 20.4128 82.8335 20.3253 82.7627 20.2437C82.6919 20.1503 82.6269 20.0511 82.5677 19.9459C82.5904 19.8052 82.6073 19.6879 82.6185 19.5941C82.6296 19.4885 82.5939 19.3891 82.5114 19.2958C82.5574 19.1432 82.5919 19.02 82.6148 18.9261C82.6377 18.8322 82.6371 18.7092 82.6128 18.557ZM102.026 26.1669C101.699 26.2742 101.342 26.3816 100.956 26.4892C100.569 26.5968 100.183 26.6517 99.7963 26.6538C99.2104 26.6571 98.7467 26.5131 98.4052 26.222C98.3459 26.0935 98.2927 26.0059 98.2456 25.9592C98.2102 25.9126 98.1748 25.8659 98.1393 25.8192C98.1156 25.7607 98.0976 25.6847 98.0854 25.591C97.9438 25.4277 97.8315 25.2408 97.7483 25.0303C97.665 24.8081 97.6052 24.5858 97.5688 24.3633C97.5441 24.1291 97.5369 23.8948 97.5474 23.6603C97.5695 23.4258 97.6093 23.2029 97.6667 22.9917C97.6899 22.9447 97.7014 22.8977 97.7011 22.8509C97.7126 22.8039 97.724 22.7511 97.7354 22.6925C97.7812 22.5047 97.8271 22.3228 97.873 22.1468C97.9306 21.9707 98.006 21.8179 98.099 21.6885C98.0516 21.5833 98.0509 21.4661 98.0971 21.3369C98.1432 21.2078 98.1953 21.0903 98.2533 20.9845C98.4149 20.5383 98.5476 20.1626 98.6514 19.8573C98.7669 19.5403 98.8823 19.2291 98.9979 18.9237C99.1942 18.3953 99.3788 17.8728 99.5517 17.3562C99.7247 16.8396 99.8798 16.2821 100.017 15.6837C100.111 15.6246 100.181 15.5832 100.227 15.5595C100.298 15.5357 100.356 15.5178 100.403 15.5058C100.614 15.6101 100.861 15.7142 101.143 15.8181C101.425 15.9103 101.659 15.9559 101.847 15.9549C101.941 16.013 102 16.0595 102.023 16.0945C102.047 16.1178 102.07 16.1411 102.094 16.1645C102.224 16.3161 102.336 16.4737 102.431 16.6372C102.525 16.789 102.556 16.994 102.522 17.252C102.452 17.3578 102.4 17.4108 102.365 17.411C102.307 17.6457 102.244 17.8453 102.175 18.0097C102.117 18.1741 102.053 18.3385 101.984 18.503C101.903 18.6792 101.828 18.8554 101.758 19.0316C101.689 19.2077 101.632 19.4249 101.586 19.6829C101.54 19.7418 101.505 19.7947 101.481 19.8417C101.47 19.8887 101.453 19.9415 101.43 20.0002C101.406 20.0589 101.378 20.1235 101.343 20.194C101.32 20.2528 101.279 20.3057 101.221 20.3529C101.187 20.6578 101.13 20.9042 101.049 21.0922C100.98 21.28 100.904 21.468 100.823 21.6559C100.685 21.9965 100.558 22.3371 100.442 22.6776C100.339 23.018 100.276 23.405 100.255 23.8388C100.314 23.815 100.367 23.803 100.413 23.8027C100.472 23.8024 100.525 23.8021 100.572 23.8019C100.677 23.8013 100.8 23.8182 100.941 23.8526C101.292 23.6631 101.672 23.5497 102.082 23.5123C102.503 23.4748 102.919 23.4491 103.329 23.4351C103.493 23.4342 103.658 23.4333 103.822 23.4324C103.986 23.4315 104.138 23.4189 104.278 23.3947C104.384 23.4527 104.449 23.4875 104.472 23.4991C104.508 23.4989 104.554 23.4987 104.613 23.4983C104.695 23.4979 104.765 23.5034 104.824 23.5148C104.965 23.6429 105.101 23.7359 105.23 23.7938C105.359 23.8517 105.494 23.9036 105.635 23.9497C105.764 23.9959 105.888 24.048 106.005 24.1059C106.134 24.1521 106.258 24.2217 106.375 24.3148L106.503 25.07C106.585 25.175 106.621 25.2451 106.609 25.2803C106.61 25.3741 106.587 25.4445 106.54 25.4917L106.576 25.6848C106.401 25.7209 106.278 25.7626 106.208 25.8099C106.149 25.8571 106.091 25.9102 106.033 25.9691C105.939 25.9813 105.869 25.9876 105.822 25.9878C105.787 25.988 105.752 25.9882 105.717 25.9884C105.553 25.9893 105.353 26.0197 105.119 26.0796C104.802 25.9759 104.474 25.9249 104.134 25.9268C104.005 25.9275 103.871 25.9341 103.73 25.9466C103.589 25.9591 103.449 25.9716 103.308 25.9841C103.168 26.0083 103.021 26.0267 102.869 26.0392C102.729 26.0517 102.582 26.0584 102.43 26.0592L102.026 26.1669ZM116.738 16.3826C116.75 16.4646 116.751 16.529 116.739 16.576C116.739 16.6111 116.734 16.6463 116.722 16.6815C116.722 16.7167 116.723 16.7577 116.723 16.8046C116.723 16.8397 116.735 16.8983 116.759 16.9802C116.515 17.3799 116.229 17.6569 115.902 17.8111C115.587 17.9534 115.241 18.0608 114.867 18.1332C114.492 18.1938 114.106 18.2604 113.708 18.3329C113.321 18.4054 112.936 18.5598 112.55 18.7963C112.397 18.7386 112.257 18.7394 112.128 18.7987C112.011 18.8579 111.836 18.8764 111.601 18.8543C111.531 18.925 111.444 18.9782 111.338 19.014C111.233 19.038 111.128 19.0679 111.022 19.1036C111.07 19.2088 111.088 19.32 111.077 19.4373C111.078 19.5427 111.096 19.6305 111.131 19.7007C111.542 19.7335 111.993 19.7252 112.485 19.6756C112.988 19.626 113.48 19.594 113.961 19.5796C113.973 19.6381 113.967 19.6792 113.944 19.7027C113.92 19.7146 113.915 19.7439 113.927 19.7907C114.009 19.8489 114.091 19.9246 114.174 20.0179C114.257 20.0995 114.339 20.181 114.421 20.2626C114.504 20.3442 114.586 20.414 114.669 20.4722C114.763 20.5185 114.868 20.5355 114.985 20.5232C115.033 20.6167 115.063 20.722 115.075 20.8391C115.099 20.9444 115.088 21.0558 115.042 21.1733C114.855 21.3032 114.668 21.439 114.481 21.5807C114.295 21.7106 114.096 21.8289 113.886 21.9355C113.687 22.0421 113.471 22.1312 113.237 22.2028C113.015 22.2626 112.763 22.2874 112.481 22.2772C112.423 22.2776 112.376 22.2778 112.341 22.278C112.317 22.2781 112.282 22.2608 112.235 22.2259C112.142 22.285 112.007 22.3033 111.831 22.2808C111.667 22.2583 111.538 22.2766 111.445 22.3357C111.315 22.2778 111.157 22.2552 110.97 22.268C110.794 22.269 110.635 22.2464 110.495 22.2003C110.308 22.4474 110.14 22.712 109.989 22.9941C109.838 23.2762 109.705 23.5758 109.59 23.8928C109.989 23.9492 110.317 23.9708 110.575 23.9577C110.844 23.9445 111.096 23.9255 111.33 23.9008C111.564 23.8643 111.804 23.8337 112.05 23.8089C112.296 23.7724 112.607 23.759 112.982 23.7686C113.215 23.6384 113.49 23.5549 113.807 23.518C114.134 23.4693 114.433 23.3974 114.702 23.3021C114.796 23.3368 114.878 23.4008 114.949 23.4941C115.02 23.5758 115.085 23.6574 115.144 23.7392C115.214 23.8091 115.285 23.8731 115.356 23.9313C115.426 23.9896 115.514 24.0125 115.62 24.0002C115.667 24.0468 115.697 24.1053 115.709 24.1755C115.732 24.234 115.75 24.2925 115.762 24.351C115.774 24.4095 115.792 24.4622 115.816 24.5089C115.851 24.5439 115.904 24.5553 115.974 24.5432C115.801 24.9309 115.597 25.2308 115.364 25.443C115.143 25.6435 114.886 25.7972 114.593 25.9043C114.301 26.0114 113.973 26.0952 113.61 26.1558C113.259 26.2164 112.867 26.2888 112.434 26.3733C112.328 26.3973 112.24 26.3919 112.17 26.3571C112.099 26.3341 112.017 26.3228 111.924 26.3233C111.654 26.3834 111.332 26.4379 110.958 26.4869C110.583 26.5358 110.202 26.5555 109.815 26.5459C109.429 26.5363 109.059 26.4856 108.707 26.3938C108.355 26.3137 108.067 26.1629 107.843 25.9415C107.749 25.86 107.684 25.7666 107.648 25.6613C107.624 25.5443 107.548 25.4568 107.418 25.3989C107.406 25.2467 107.381 25.0769 107.345 24.8896C107.309 24.7023 107.273 24.5091 107.237 24.3101C107.2 24.0993 107.17 23.8944 107.145 23.6953C107.133 23.4962 107.143 23.3145 107.178 23.1502C107.212 22.9743 107.281 22.8157 107.386 22.6745C107.502 22.5332 107.542 22.3806 107.506 22.2168C107.565 22.2047 107.6 22.1752 107.611 22.1283C107.623 22.0696 107.669 22.0459 107.752 22.0572C107.821 21.8459 107.896 21.6462 107.977 21.4583C108.058 21.2703 108.139 21.0883 108.22 20.912C108.313 20.7357 108.4 20.5595 108.481 20.3832C108.573 20.1952 108.66 19.9897 108.741 19.7666C108.576 19.6151 108.452 19.4517 108.369 19.2764C108.298 19.0893 108.244 18.908 108.208 18.7324C108.172 18.5451 108.141 18.3577 108.117 18.1704C108.092 17.9713 108.05 17.7723 107.991 17.5734C108.107 17.397 108.247 17.2556 108.41 17.1492C108.585 17.031 108.772 16.9363 108.971 16.8649C109.17 16.7934 109.386 16.7337 109.62 16.6855C109.855 16.6373 110.1 16.5832 110.358 16.5232C110.826 16.3683 111.241 16.2488 111.604 16.1648C111.978 16.0807 112.341 16.0142 112.693 15.9654C113.056 15.9048 113.43 15.85 113.817 15.801C114.203 15.752 114.642 15.6793 115.134 15.5828C115.24 15.6877 115.34 15.7399 115.434 15.7394C115.48 15.6337 115.533 15.6041 115.591 15.6506C115.662 15.6854 115.691 15.6501 115.679 15.5447C115.797 15.7432 115.944 15.9124 116.121 16.052C116.309 16.1799 116.515 16.2901 116.738 16.3826ZM116.608 18.3697C116.689 18.1231 116.817 17.9115 116.992 17.7347C117.178 17.5579 117.377 17.4104 117.587 17.292C117.809 17.1619 118.037 17.0551 118.271 16.9718C118.505 16.8885 118.727 16.817 118.937 16.7572C119.405 16.5554 119.902 16.3652 120.428 16.1865C120.966 15.996 121.51 15.829 122.06 15.6853C122.622 15.5416 123.196 15.4505 123.782 15.4121C124.367 15.362 124.983 15.429 125.628 15.6129C125.664 15.7299 125.718 15.8409 125.788 15.946C125.859 16.0511 125.93 16.1562 126.001 16.2613C126.084 16.3663 126.155 16.4713 126.214 16.5765C126.273 16.6699 126.309 16.7693 126.321 16.8747C126.439 16.9796 126.533 17.0962 126.604 17.2247C126.675 17.3415 126.688 17.4997 126.642 17.6992C126.525 17.7935 126.409 17.8821 126.292 17.9648C126.187 18.0356 126.07 18.1007 125.941 18.16C125.507 18.057 125.068 18.0242 124.622 18.0618C124.177 18.0995 123.779 18.1309 123.428 18.1563C123.322 18.0514 123.192 17.9994 123.04 18.0002C122.899 18.001 122.747 18.0253 122.583 18.0731C122.431 18.1208 122.273 18.1685 122.11 18.2163C121.957 18.264 121.811 18.2766 121.67 18.2539C121.554 18.3483 121.407 18.4135 121.232 18.4497C121.068 18.474 120.886 18.4985 120.687 18.523C120.676 18.5816 120.688 18.6226 120.723 18.6458C120.758 18.6574 120.764 18.6925 120.741 18.7512C120.812 18.8328 120.9 18.891 121.006 18.9255C121.123 18.96 121.241 18.9946 121.358 19.0291C121.487 19.0635 121.599 19.1098 121.693 19.1678C121.787 19.2142 121.852 19.2959 121.888 19.4129C122.063 19.4119 122.216 19.4521 122.345 19.5334C122.475 19.6147 122.581 19.7137 122.663 19.8305C122.746 19.9472 122.805 20.0758 122.841 20.2162C122.889 20.3449 122.913 20.4619 122.914 20.5674C122.949 20.6609 122.99 20.7017 123.037 20.6898C123.084 20.6778 123.137 20.7009 123.196 20.7592C123.232 20.9113 123.321 21.0691 123.462 21.2323C123.604 21.3839 123.716 21.5532 123.799 21.7403C123.824 22.0331 123.843 22.2967 123.856 22.531C123.869 22.7536 123.829 22.9823 123.737 23.2172C123.563 23.6517 123.319 24.0398 123.005 24.3814C122.702 24.7229 122.352 25.0295 121.955 25.3013C121.57 25.5612 121.155 25.7861 120.711 25.9761C120.267 26.166 119.834 26.3266 119.413 26.4579C119.366 26.4464 119.319 26.4467 119.272 26.4586C119.225 26.4706 119.213 26.4414 119.236 26.3709C119.143 26.4535 119.038 26.5068 118.921 26.5309C118.816 26.5549 118.698 26.5614 118.569 26.5504C118.441 26.5511 118.306 26.546 118.165 26.5351C118.036 26.524 117.913 26.5306 117.796 26.5547C117.714 26.4731 117.637 26.3915 117.566 26.3098C117.507 26.2398 117.46 26.1464 117.424 26.0294C117.365 26.0297 117.336 26.0005 117.336 25.942C117.347 25.8833 117.329 25.8541 117.282 25.8544C117.352 25.7368 117.381 25.6722 117.369 25.6605C117.369 25.6371 117.351 25.6196 117.316 25.6081C117.293 25.5965 117.269 25.5849 117.246 25.5733C117.222 25.55 117.216 25.5207 117.228 25.4855C117.274 25.3915 117.291 25.2859 117.279 25.1688C117.266 25.04 117.254 24.9111 117.241 24.7823C117.229 24.6535 117.234 24.5304 117.257 24.4131C117.291 24.2957 117.379 24.2015 117.519 24.1304C117.918 24.175 118.293 24.1613 118.644 24.089C119.007 24.005 119.346 23.8918 119.661 23.7494C119.977 23.6071 120.275 23.4531 120.555 23.2875C120.847 23.1218 121.134 22.9737 121.414 22.8433C121.449 22.7376 121.495 22.6495 121.553 22.5788C121.623 22.5081 121.693 22.4433 121.763 22.3843C121.833 22.3253 121.897 22.2605 121.956 22.1899C122.014 22.1192 122.054 22.0311 122.077 21.9255C122.089 21.8434 122.065 21.7967 122.006 21.7853C121.959 21.7621 121.935 21.7154 121.935 21.6451L121.741 21.5934C121.518 21.4657 121.266 21.3616 120.984 21.2812C120.702 21.189 120.461 21.0907 120.261 20.9863C120.133 21.0573 120.01 21.0756 119.893 21.0411C119.787 21.0065 119.646 20.9721 119.47 20.9379C119.072 20.9167 118.685 20.8778 118.309 20.8213C117.946 20.7647 117.594 20.6612 117.253 20.5107C117.229 20.4522 117.2 20.3997 117.164 20.353C117.129 20.3063 117.064 20.2949 116.971 20.3189C116.9 20.2255 116.829 20.138 116.758 20.0564C116.687 19.963 116.622 19.8638 116.563 19.7586C116.586 19.6179 116.603 19.5006 116.614 19.4068C116.625 19.3012 116.589 19.2018 116.507 19.1085C116.553 18.9559 116.587 18.8327 116.61 18.7388C116.633 18.6449 116.633 18.5219 116.608 18.3697ZM124.958 18.3237C125.039 18.0771 125.166 17.8655 125.341 17.6887C125.528 17.5119 125.726 17.3643 125.936 17.246C126.158 17.1159 126.386 17.0091 126.62 16.9258C126.854 16.8425 127.076 16.771 127.287 16.7112C127.755 16.5094 128.252 16.3192 128.778 16.1405C129.316 15.95 129.86 15.783 130.41 15.6393C130.972 15.4956 131.545 15.4045 132.131 15.3661C132.717 15.316 133.332 15.383 133.978 15.5669C134.014 15.6839 134.067 15.7949 134.138 15.9C134.209 16.0051 134.28 16.1102 134.351 16.2152C134.433 16.3203 134.504 16.4253 134.563 16.5305C134.622 16.6239 134.658 16.7233 134.67 16.8287C134.788 16.9336 134.883 17.0502 134.954 17.1787C135.025 17.2955 135.037 17.4537 134.991 17.6531C134.875 17.7475 134.758 17.8361 134.641 17.9188C134.536 17.9896 134.419 18.0547 134.291 18.114C133.857 18.011 133.417 17.9782 132.972 18.0158C132.527 18.0535 132.128 18.0849 131.777 18.1103C131.671 18.0054 131.542 17.9534 131.389 17.9542C131.249 17.955 131.097 17.9793 130.933 18.0271C130.781 18.0748 130.623 18.1225 130.459 18.1703C130.307 18.218 130.161 18.2306 130.02 18.2079C129.903 18.3023 129.757 18.3675 129.581 18.4037C129.417 18.428 129.236 18.4524 129.037 18.477C129.025 18.5356 129.037 18.5766 129.073 18.5998C129.108 18.6114 129.114 18.6465 129.091 18.7052C129.162 18.7868 129.25 18.845 129.355 18.8795C129.473 18.914 129.59 18.9486 129.708 18.9831C129.837 19.0175 129.948 19.0638 130.042 19.1218C130.136 19.1682 130.201 19.2499 130.237 19.3669C130.413 19.3659 130.565 19.4061 130.695 19.4874C130.824 19.5687 130.93 19.6677 131.013 19.7845C131.096 19.9012 131.155 20.0298 131.191 20.1702C131.238 20.2989 131.262 20.4159 131.263 20.5214C131.299 20.6149 131.34 20.6557 131.387 20.6438C131.434 20.6318 131.486 20.6549 131.545 20.7132C131.581 20.8653 131.67 21.0231 131.812 21.1863C131.953 21.3379 132.065 21.5072 132.148 21.6943C132.173 21.9871 132.192 22.2507 132.205 22.485C132.218 22.7076 132.179 22.9363 132.086 23.1712C131.913 23.6057 131.669 23.9938 131.354 24.3354C131.052 24.6769 130.702 24.9835 130.305 25.2553C129.919 25.5152 129.505 25.7401 129.06 25.9301C128.616 26.12 128.183 26.2806 127.762 26.4119C127.715 26.4004 127.668 26.4007 127.622 26.4126C127.575 26.4246 127.563 26.3954 127.586 26.3249C127.493 26.4075 127.387 26.4608 127.27 26.4849C127.165 26.5089 127.048 26.5154 126.919 26.5044C126.79 26.5051 126.655 26.5 126.515 26.489C126.386 26.478 126.263 26.4846 126.146 26.5087C126.063 26.4271 125.986 26.3455 125.916 26.2638C125.857 26.1938 125.809 26.1003 125.773 25.9834C125.715 25.9837 125.685 25.9545 125.685 25.896C125.697 25.8373 125.679 25.8081 125.632 25.8084C125.702 25.6908 125.73 25.6262 125.719 25.6145C125.719 25.5911 125.701 25.5736 125.666 25.5621C125.642 25.5505 125.619 25.5389 125.595 25.5273C125.572 25.504 125.566 25.4747 125.577 25.4395C125.623 25.3455 125.64 25.2399 125.628 25.1228C125.616 24.994 125.603 24.8651 125.591 24.7363C125.578 24.6075 125.584 24.4844 125.606 24.3671C125.641 24.2497 125.728 24.1555 125.868 24.0844C126.267 24.129 126.642 24.1153 126.993 24.043C127.356 23.959 127.695 23.8458 128.011 23.7034C128.327 23.5611 128.625 23.4071 128.905 23.2415C129.197 23.0758 129.483 22.9277 129.764 22.7973C129.798 22.6916 129.845 22.6035 129.903 22.5328C129.973 22.4621 130.043 22.3973 130.113 22.3383C130.183 22.2793 130.247 22.2145 130.305 22.1439C130.363 22.0732 130.404 21.9851 130.427 21.8795C130.438 21.7974 130.414 21.7507 130.356 21.7393C130.309 21.7161 130.285 21.6694 130.285 21.5991L130.091 21.5474C129.868 21.4197 129.615 21.3156 129.333 21.2352C129.052 21.143 128.811 21.0447 128.611 20.9403C128.482 21.0113 128.36 21.0296 128.242 20.9951C128.136 20.9605 127.996 20.9261 127.82 20.8919C127.421 20.8707 127.034 20.8318 126.659 20.7753C126.295 20.7187 125.943 20.6152 125.602 20.4647C125.579 20.4062 125.549 20.3536 125.514 20.307C125.478 20.2603 125.414 20.2489 125.32 20.2729C125.249 20.1795 125.179 20.092 125.108 20.0104C125.037 19.917 124.972 19.8178 124.913 19.7126C124.935 19.5719 124.952 19.4546 124.964 19.3608C124.975 19.2552 124.939 19.1558 124.856 19.0625C124.902 18.9099 124.937 18.7867 124.96 18.6928C124.983 18.5989 124.982 18.4759 124.958 18.3237ZM149.687 17.6425C149.394 17.6441 149.078 17.6693 148.738 17.718C148.398 17.7551 148.065 17.7979 147.737 17.8466C147.503 17.883 147.274 17.9136 147.052 17.9383C146.841 17.9629 146.648 17.9815 146.472 17.9942C146.391 18.2525 146.311 18.4814 146.23 18.6811C146.149 18.8808 146.062 19.0746 145.969 19.2626C145.877 19.4623 145.79 19.6679 145.709 19.8793C145.64 20.0789 145.571 20.2961 145.502 20.5308C145.385 20.719 145.287 20.8953 145.206 21.0598C145.136 21.2125 145.079 21.3886 145.033 21.5881C144.893 21.7647 144.789 21.9528 144.719 22.1524C144.65 22.3402 144.598 22.5046 144.564 22.6454L144.495 22.8567C144.425 22.9274 144.384 22.9862 144.373 23.0332C144.361 23.0684 144.332 23.1037 144.285 23.1391C144.274 23.2681 144.234 23.3972 144.165 23.5265C144.141 23.5852 144.124 23.6439 144.113 23.7026C144.101 23.7495 144.096 23.7847 144.096 23.8082C144.096 23.9253 144.068 24.0017 144.009 24.0372C144.021 24.0957 144.022 24.1601 144.01 24.2305C143.999 24.2892 143.987 24.3478 143.976 24.4065C143.942 24.5473 143.931 24.6587 143.943 24.7407C143.978 24.7873 144.008 24.8282 144.031 24.8632C144.067 24.8982 144.09 24.9449 144.102 25.0035C144.173 25.0499 144.226 25.0789 144.261 25.0905C144.308 25.1254 144.379 25.166 144.473 25.2124L144.632 25.3873C144.692 25.7268 144.641 25.9966 144.478 26.1967C144.304 26.4203 144.005 26.5333 143.583 26.5356L143.372 26.5368C143.314 26.4785 143.278 26.4318 143.266 26.3968C143.172 26.3621 143.096 26.3332 143.037 26.3101C142.979 26.287 142.926 26.2404 142.878 26.1704C142.726 26.1009 142.602 26.043 142.508 25.9966L142.349 25.9096C142.349 25.7807 142.348 25.7104 142.348 25.6987C142.266 25.5937 142.201 25.4768 142.153 25.3482C142.117 25.2195 142.087 25.0907 142.063 24.962C142.039 24.8566 142.009 24.7572 141.973 24.6636C141.95 24.57 141.914 24.4882 141.867 24.4181C141.839 23.7386 141.901 23.164 142.051 22.6944C142.2 22.2248 142.356 21.7728 142.518 21.3383C142.61 21.1034 142.703 20.8685 142.795 20.6336C142.887 20.387 142.968 20.1346 143.037 19.8764L143.194 19.6998C143.275 19.5118 143.339 19.3591 143.385 19.2417C143.443 19.1125 143.501 18.9832 143.559 18.854C143.593 18.7718 143.622 18.6955 143.645 18.625C143.68 18.5428 143.709 18.4723 143.732 18.4136C143.662 18.414 143.597 18.4202 143.539 18.4322C143.48 18.4326 143.422 18.4387 143.363 18.4508C143.293 18.4629 143.228 18.475 143.17 18.487C143.111 18.4873 143.053 18.4877 142.994 18.488C142.912 18.4884 142.853 18.4829 142.818 18.4714C142.69 18.5307 142.549 18.5607 142.397 18.5616L142.221 18.5625C142.186 18.5627 142.151 18.5629 142.116 18.5631C142.092 18.5515 142.069 18.5458 142.045 18.5459C141.928 18.5466 141.834 18.5647 141.764 18.6002C141.624 18.601 141.489 18.6017 141.36 18.6024L141.184 18.6034C141.161 18.6035 141.132 18.6096 141.096 18.6215C141.061 18.6217 141.032 18.6218 141.009 18.622C140.927 18.6224 140.839 18.617 140.745 18.6058C140.651 18.5829 140.551 18.5425 140.445 18.4844C140.304 18.2977 140.209 18.1986 140.162 18.1872L140.003 17.9771C139.991 17.9069 139.973 17.8425 139.949 17.784C139.925 17.7139 139.902 17.6378 139.878 17.5559C139.83 17.439 139.783 17.3162 139.735 17.1876C139.699 17.0471 139.681 16.8832 139.68 16.6957C139.691 16.6018 139.714 16.5314 139.749 16.4843C139.784 16.4373 139.813 16.3961 139.836 16.3608L139.887 16.0969L140.116 16.1132L140.608 16.1105C140.983 16.1084 141.364 16.0946 141.75 16.069C142.137 16.0317 142.535 15.9944 142.945 15.957C143.179 15.9322 143.414 15.9075 143.648 15.8828C143.894 15.858 144.146 15.8332 144.403 15.8083C144.45 15.7026 144.496 15.6027 144.542 15.5087L144.718 15.4198C144.928 15.407 145.075 15.4354 145.157 15.5053C145.252 15.5634 145.328 15.6216 145.387 15.6798C145.645 15.655 145.902 15.6301 146.16 15.6053C146.429 15.5686 146.699 15.5261 146.968 15.4778C147.366 15.417 147.764 15.362 148.162 15.313C148.572 15.2638 148.965 15.2382 149.34 15.2362C149.504 15.2353 149.662 15.2403 149.814 15.2511C149.967 15.262 150.107 15.2788 150.236 15.3015L150.413 15.4236C150.448 15.4937 150.496 15.5579 150.555 15.6162C150.625 15.6744 150.696 15.7326 150.767 15.7908C150.908 15.9189 151.049 16.0705 151.191 16.2455C151.332 16.4205 151.387 16.678 151.353 17.0181C151.26 17.1592 151.191 17.2416 151.144 17.2653L150.987 17.4771L150.811 17.4605C150.741 17.4609 150.676 17.473 150.618 17.4967C150.559 17.5088 150.501 17.5267 150.442 17.5504C150.395 17.5741 150.349 17.5978 150.302 17.6215C150.255 17.6335 150.203 17.6455 150.144 17.6576C150.039 17.6581 149.951 17.6586 149.88 17.659C149.822 17.6476 149.757 17.6421 149.687 17.6425ZM157.353 24.3504C157.378 24.6549 157.344 24.9071 157.252 25.1068C157.159 25.3065 157.031 25.4772 156.868 25.6187C156.704 25.7602 156.517 25.8726 156.307 25.9558C156.097 26.0389 155.892 26.1162 155.693 26.1877C155.599 26.1296 155.505 26.0715 155.411 26.0134C155.328 25.9436 155.228 25.8914 155.111 25.8569C154.957 25.5765 154.809 25.3312 154.668 25.121C154.526 24.8991 154.46 24.6476 154.47 24.3662C154.47 24.3545 154.476 24.29 154.487 24.1728C154.509 24.0555 154.532 23.9264 154.555 23.7857C154.589 23.6449 154.612 23.5158 154.623 23.3986C154.646 23.2696 154.657 23.1992 154.657 23.1875C154.388 23.2124 154.107 23.2725 153.814 23.3679C153.522 23.4633 153.235 23.5762 152.955 23.7066C152.686 23.837 152.429 23.9673 152.183 24.0976C151.95 24.2278 151.757 24.3402 151.605 24.4348C151.605 24.4699 151.582 24.5579 151.536 24.6988C151.49 24.828 151.432 24.9689 151.363 25.1217C151.293 25.2627 151.218 25.392 151.136 25.5096C151.055 25.6273 150.973 25.6863 150.891 25.6868C150.903 25.7219 150.921 25.7569 150.945 25.7919C150.968 25.827 150.969 25.8738 150.945 25.9326C150.782 25.9803 150.635 26.0397 150.507 26.1108C150.379 26.1935 150.244 26.2587 150.104 26.3063C149.963 26.3657 149.811 26.3958 149.647 26.3968C149.483 26.3977 149.289 26.3401 149.066 26.2242C149.066 26.1539 149.036 26.0954 148.977 26.0489C148.918 25.9906 148.854 25.9441 148.783 25.9093C148.724 25.8628 148.671 25.8279 148.624 25.8047C148.577 25.7698 148.554 25.7407 148.554 25.7172C148.495 25.7293 148.471 25.6884 148.483 25.5946C148.494 25.5007 148.541 25.4771 148.623 25.5235C148.493 25.3601 148.41 25.22 148.374 25.103C148.35 24.9742 148.285 24.8163 148.178 24.6294C148.202 24.6059 148.225 24.5647 148.248 24.506C148.259 24.4473 148.271 24.3945 148.282 24.3476C148.294 24.3007 148.311 24.2654 148.335 24.2418C148.358 24.2183 148.387 24.224 148.423 24.2589C148.398 24.1536 148.398 24.0657 148.421 23.9953C148.444 23.9248 148.467 23.8602 148.49 23.8015C148.513 23.7428 148.531 23.6841 148.542 23.6255C148.553 23.5668 148.536 23.5024 148.488 23.4324C148.674 23.1735 148.796 22.8975 148.853 22.6042C148.91 22.2992 148.943 22.0236 148.954 21.7775C149.035 21.695 149.105 21.5774 149.163 21.4247C149.232 21.272 149.284 21.1194 149.318 20.9668C149.353 20.8026 149.364 20.6502 149.351 20.5096C149.35 20.3573 149.332 20.2343 149.296 20.1408C149.308 20.0821 149.372 20.0642 149.489 20.087C149.558 19.6999 149.602 19.266 149.623 18.7854C149.655 18.2931 149.705 17.8299 149.773 17.3959C149.841 16.9502 149.956 16.5629 150.119 16.2338C150.281 15.8931 150.543 15.669 150.906 15.5615C150.978 15.8072 151.067 16.0235 151.173 16.2105C151.291 16.3973 151.415 16.5783 151.545 16.7533C151.687 16.9166 151.822 17.0858 151.952 17.2609C152.094 17.4359 152.224 17.6344 152.342 17.8564C152.332 18.0791 152.31 18.337 152.276 18.6302C152.243 18.9234 152.198 19.2224 152.141 19.5274C152.095 19.8324 152.044 20.1256 151.987 20.4072C151.942 20.6887 151.896 20.9292 151.851 21.1287C151.863 21.1872 151.892 21.2222 151.939 21.2337C151.998 21.2451 152.01 21.2977 151.975 21.3917C152.256 21.3198 152.549 21.2537 152.853 21.1935C153.157 21.1332 153.462 21.0671 153.766 20.9951C154.07 20.9231 154.363 20.8453 154.644 20.7617C154.936 20.6664 155.205 20.5535 155.45 20.4233C155.506 19.9659 155.58 19.5085 155.671 19.051C155.763 18.5934 155.772 18.1246 155.699 17.6445C155.757 17.5973 155.804 17.5385 155.838 17.468C155.873 17.3975 155.931 17.3503 156.013 17.3264C155.954 17.1041 155.929 16.8698 155.939 16.6237C155.95 16.3775 155.989 16.1429 156.058 15.9199C156.139 15.6968 156.249 15.5086 156.389 15.3555C156.541 15.1906 156.722 15.0842 156.932 15.0361C157.062 15.2229 157.175 15.4274 157.27 15.6495C157.365 15.8599 157.46 16.0762 157.555 16.2983C157.661 16.5087 157.768 16.7132 157.874 16.9118C157.993 17.0987 158.14 17.2619 158.317 17.4016C158.354 17.7412 158.379 18.0927 158.393 18.4559C158.418 18.819 158.438 19.1881 158.451 19.563C158.36 20.0088 158.257 20.443 158.142 20.8655C158.039 21.2762 157.965 21.7161 157.921 22.1851C157.839 22.2793 157.776 22.3851 157.729 22.5026C157.683 22.62 157.637 22.7433 157.591 22.8725C157.545 22.9899 157.492 23.1074 157.435 23.2249C157.377 23.3307 157.307 23.4248 157.225 23.5073C157.273 23.6477 157.279 23.7824 157.245 23.9115C157.222 24.0288 157.258 24.1751 157.353 24.3504ZM168.129 24.5195C168.06 24.7191 167.956 24.9248 167.816 25.1365C167.689 25.3364 167.531 25.5189 167.345 25.684C167.17 25.8373 166.971 25.9673 166.749 26.074C166.527 26.1807 166.293 26.2406 166.047 26.2537C165.895 26.2193 165.789 26.1789 165.73 26.1324C165.683 26.0975 165.63 26.0626 165.571 26.0278C165.536 26.0045 165.501 25.9871 165.465 25.9756C165.442 25.9523 165.418 25.9349 165.395 25.9233L165.183 25.8365L165.252 25.6076C165.275 25.5138 165.269 25.4435 165.234 25.3968C165.198 25.3384 165.128 25.2626 165.022 25.1694C164.986 25.1345 164.951 25.0995 164.915 25.0646C164.88 25.0296 164.851 24.9946 164.827 24.9596L164.526 24.6272L165 24.5016C165.293 24.4179 165.486 24.3114 165.579 24.182C165.683 24.0525 165.723 23.8355 165.698 23.5309C165.463 23.4853 165.264 23.4806 165.1 23.5166C164.948 23.5526 164.79 23.5945 164.626 23.6423C164.416 23.7021 164.199 23.756 163.977 23.8041C163.766 23.8404 163.532 23.8593 163.274 23.8607C163.18 23.8612 163.092 23.8617 163.01 23.8622C162.928 23.8509 162.84 23.8397 162.747 23.8284L162.571 23.7943C162.546 23.6655 162.523 23.5953 162.499 23.5837C162.476 23.5604 162.452 23.5371 162.428 23.5138C162.369 23.4555 162.305 23.3797 162.234 23.2863C162.175 23.1812 162.162 23.0524 162.196 22.8998C162.137 22.7947 162.102 22.6894 162.089 22.584C162.02 22.725 161.968 22.8718 161.933 23.0243L161.864 23.2005L161.689 23.2366C161.665 23.2485 161.648 23.2779 161.636 23.3248C161.625 23.36 161.619 23.3893 161.619 23.4128L161.533 23.7121C161.51 23.7357 161.486 23.7592 161.463 23.7828C161.44 23.7946 161.416 23.8123 161.393 23.8359C161.37 23.9415 161.341 24.0471 161.307 24.1528C161.272 24.2585 161.238 24.3583 161.203 24.4522C161.145 24.6049 161.093 24.7575 161.047 24.9101C161.013 25.0509 161.002 25.1916 161.015 25.3322L160.945 25.5259C160.887 25.5965 160.823 25.6555 160.753 25.7027C160.683 25.7383 160.613 25.7738 160.543 25.8094C160.519 25.8329 160.484 25.8566 160.437 25.8803C160.402 25.8922 160.373 25.9041 160.35 25.9159L160.298 26.1096L160.087 26.1459C159.959 26.17 159.865 26.1881 159.806 26.2002C159.76 26.2121 159.701 26.2183 159.631 26.2187L159.455 26.2021C159.325 26.0973 159.225 26.0159 159.155 25.9576C159.084 25.8877 159.002 25.8237 158.908 25.7656C158.801 25.6256 158.742 25.5205 158.73 25.4502C158.718 25.38 158.706 25.3156 158.694 25.257C158.67 25.1869 158.658 25.1283 158.658 25.0815C158.646 25.0347 158.628 24.9996 158.604 24.9763L158.375 24.7666L158.567 24.6073L158.583 24.3084C158.814 23.7095 159.057 23.1339 159.312 22.5817C159.578 22.0295 159.851 21.4655 160.129 20.8897C160.221 20.7017 160.308 20.5137 160.389 20.3258C160.482 20.1377 160.575 19.9497 160.667 19.7617C160.656 19.7266 160.649 19.6856 160.649 19.6388C160.649 19.5919 160.66 19.5391 160.683 19.4804C160.811 19.2804 160.916 19.1041 160.997 18.9513C161.078 18.7868 161.159 18.6223 161.24 18.4578C161.333 18.258 161.426 18.0642 161.518 17.8761C161.623 17.6881 161.751 17.494 161.902 17.2939L162.182 17.1693C162.218 17.1574 162.259 17.1455 162.305 17.1335C162.352 17.1098 162.405 17.0978 162.463 17.0975L162.727 17.1312C163.054 16.977 163.34 16.7645 163.585 16.4936C163.83 16.211 164.08 15.8757 164.335 15.4875L164.51 15.2405L164.739 15.3798C164.798 15.4147 164.88 15.4494 164.986 15.484C165.091 15.5068 165.203 15.5355 165.32 15.57C165.531 15.6157 165.731 15.6674 165.919 15.7249C166.107 15.7825 166.259 15.8695 166.377 15.9861C166.449 16.1732 166.49 16.3136 166.503 16.4073C166.515 16.5009 166.533 16.5946 166.557 16.6882C166.593 16.8872 166.624 17.0863 166.648 17.2854C166.684 17.4844 166.709 17.7069 166.722 17.9529C166.782 18.1518 166.83 18.3508 166.866 18.5498C166.914 18.7371 166.956 18.9302 166.992 19.1292C167.052 19.4101 167.112 19.6852 167.173 19.9544C167.233 20.2119 167.31 20.4576 167.405 20.6914C167.499 20.6909 167.557 20.6964 167.581 20.708C167.639 20.6843 167.698 20.6664 167.756 20.6543C167.827 20.6422 167.903 20.6301 167.985 20.6179L168.178 20.5993L168.249 20.7746C168.261 20.8332 168.32 20.8914 168.426 20.9495C168.578 20.9603 168.69 20.9949 168.761 21.0531C168.831 21.0996 168.896 21.1519 168.955 21.2102C169.002 21.2568 169.049 21.2917 169.096 21.3149L169.36 21.4189L169.221 21.6834C169.105 21.8949 168.936 22.101 168.715 22.3014C168.505 22.4901 168.266 22.6496 167.997 22.78C168.009 22.8502 168.015 22.9205 168.015 22.9908C168.027 23.0493 168.045 23.1137 168.069 23.1839C168.105 23.3829 168.136 23.5878 168.161 23.7986C168.185 24.0094 168.186 24.2262 168.164 24.449L168.129 24.5195ZM163.033 21.5065C163.384 21.4812 163.7 21.456 163.981 21.431C164.274 21.3942 164.596 21.3397 164.947 21.2675C164.863 20.9164 164.773 20.5536 164.678 20.1791C164.582 19.7929 164.48 19.4126 164.373 19.0382L164.268 19.2145C164.035 19.4619 163.808 19.7386 163.587 20.0445C163.378 20.3503 163.198 20.6384 163.047 20.9088C162.977 21.0146 162.907 21.1205 162.838 21.2263C162.768 21.3322 162.704 21.438 162.646 21.5438C162.716 21.5317 162.781 21.5255 162.839 21.5252C162.91 21.5248 162.974 21.5186 163.033 21.5065ZM172.883 22.7706C172.778 22.7946 172.702 22.8595 172.656 22.9652C172.61 23.0593 172.563 23.1591 172.517 23.2648C172.482 23.3705 172.442 23.4703 172.396 23.5643C172.361 23.6466 172.303 23.6879 172.221 23.6884C172.209 23.7822 172.175 23.8644 172.116 23.935C172.07 24.0056 172.023 24.082 171.977 24.1643C171.931 24.2349 171.896 24.3171 171.873 24.411C171.85 24.4931 171.862 24.5927 171.91 24.7096C171.816 24.7804 171.758 24.8804 171.736 25.0094C171.713 25.1384 171.684 25.2616 171.65 25.379C171.627 25.4963 171.581 25.5962 171.511 25.6786C171.441 25.761 171.312 25.7969 171.125 25.7862C171.09 25.8333 171.084 25.8626 171.108 25.8742C171.131 25.8858 171.149 25.9267 171.161 25.997C171.032 25.9742 170.932 25.9806 170.862 26.0162C170.804 26.0634 170.728 26.0931 170.634 26.1053C170.411 26.0363 170.223 25.9142 170.07 25.7393C169.928 25.5643 169.798 25.3717 169.68 25.1614C169.573 24.9393 169.472 24.7172 169.377 24.4951C169.294 24.2729 169.211 24.0799 169.128 23.9163C169.162 23.7872 169.168 23.6642 169.144 23.5471C169.119 23.4183 169.078 23.3131 169.019 23.2314C169.586 22.0095 170.206 20.7053 170.878 19.3187C171.55 17.9322 172.187 16.5634 172.789 15.2124C173.059 15.3164 173.324 15.438 173.582 15.5772C173.852 15.7046 174.093 15.8557 174.305 16.0303C174.529 16.2048 174.718 16.4089 174.871 16.6424C175.025 16.8642 175.126 17.1156 175.174 17.3966C175.151 17.467 175.122 17.4965 175.087 17.485C175.063 17.4617 175.04 17.4677 175.017 17.5029C175.064 17.5613 175.087 17.6022 175.088 17.6256C175.099 17.649 175.1 17.6724 175.088 17.6959C175.088 17.7193 175.088 17.7545 175.089 17.8014C175.089 17.8365 175.107 17.8892 175.142 17.9593C175.095 17.9478 175.06 17.9539 175.037 17.9774C175.025 18.0009 174.99 18.0011 174.931 17.978C174.979 18.1067 174.991 18.2121 174.968 18.2942C174.957 18.3763 174.934 18.4526 174.899 18.5231C174.864 18.5819 174.835 18.6524 174.812 18.7345C174.789 18.805 174.796 18.8987 174.832 19.0157C174.796 19.0159 174.767 19.0278 174.744 19.0513C174.732 19.0631 174.721 19.0808 174.709 19.1043C174.697 19.116 174.68 19.1337 174.657 19.1573C174.645 19.1691 174.621 19.1692 174.586 19.1577C174.623 19.4153 174.636 19.673 174.626 19.9309C174.615 20.1888 174.605 20.4525 174.595 20.7221C174.596 20.9799 174.604 21.2553 174.617 21.5482C174.63 21.8294 174.673 22.1221 174.745 22.4264C175.165 22.178 175.498 21.8597 175.742 21.4717C175.997 21.0835 176.2 20.6488 176.35 20.1675C176.511 19.6861 176.631 19.1698 176.71 18.6186C176.789 18.0674 176.874 17.5044 176.965 16.9297C177.069 16.8236 177.151 16.6943 177.209 16.5416C177.266 16.389 177.318 16.2305 177.364 16.0662C177.41 15.8901 177.456 15.7199 177.502 15.5556C177.548 15.3796 177.606 15.2211 177.675 15.0801C177.851 15.1025 177.998 15.1603 178.116 15.2534C178.245 15.3347 178.363 15.4278 178.469 15.5327C178.575 15.6259 178.686 15.719 178.804 15.8121C178.922 15.8935 179.069 15.9454 179.244 15.9679C179.386 16.1663 179.516 16.359 179.634 16.5458C179.753 16.7327 179.83 16.9315 179.866 17.1422C179.808 17.2363 179.762 17.342 179.727 17.4594C179.705 17.5767 179.676 17.6941 179.641 17.8114C179.607 17.9288 179.561 18.0404 179.503 18.1462C179.445 18.2403 179.363 18.3228 179.258 18.3936C179.224 18.6985 179.179 18.98 179.122 19.2382C179.076 19.4845 179.025 19.7309 178.968 19.9773C178.922 20.2236 178.883 20.4817 178.849 20.7514C178.815 21.0094 178.805 21.2966 178.819 21.6129C178.726 21.883 178.628 22.1706 178.524 22.4759C178.421 22.7811 178.34 23.057 178.283 23.3034C178.096 23.4568 177.951 23.6392 177.846 23.8507C177.742 24.0622 177.632 24.2738 177.516 24.4854C177.469 24.5325 177.44 24.5444 177.428 24.521C177.416 24.4976 177.375 24.4803 177.305 24.469C177.317 24.5158 177.317 24.5509 177.306 24.5744C177.294 24.5979 177.277 24.6215 177.253 24.645C177.242 24.6568 177.23 24.6803 177.218 24.7155C177.219 24.7507 177.231 24.7975 177.254 24.856C177.091 24.9272 176.945 25.0276 176.817 25.1572C176.688 25.2868 176.548 25.4048 176.397 25.5111C176.257 25.6173 176.081 25.6886 175.87 25.7249C175.671 25.7612 175.408 25.7216 175.079 25.6062C174.596 25.2573 174.166 24.8554 173.789 24.4004C173.423 23.9454 173.121 23.4021 172.883 22.7706ZM81.1844 41.6629C81.2552 41.7562 81.3262 41.873 81.3973 42.0132C81.4684 42.1535 81.4749 42.2824 81.417 42.3999C81.6291 42.6096 81.7946 42.8665 81.9134 43.1706C82.044 43.4746 82.0341 43.8086 81.8838 44.1727C81.6148 44.2679 81.375 44.3454 81.1643 44.4052C80.9654 44.4532 80.7489 44.513 80.5149 44.5846C80.0698 44.6104 79.7886 44.6296 79.6715 44.6419C79.5661 44.6542 79.4841 44.6664 79.4256 44.6784C79.3671 44.6905 79.2734 44.7144 79.1447 44.7503C79.0277 44.7744 78.7642 44.8169 78.3544 44.8777C78.3541 44.8308 78.3481 44.8016 78.3363 44.7899C78.3363 44.7782 78.3246 44.7783 78.3012 44.7901C78.2895 44.8019 78.272 44.8137 78.2486 44.8256C78.237 44.8373 78.2136 44.8375 78.1783 44.8259C77.9444 44.9093 77.7104 44.975 77.4763 45.0232C77.2421 45.0596 77.0079 45.0961 76.7738 45.1325C76.5396 45.169 76.3055 45.2171 76.0714 45.277C75.8373 45.3252 75.5975 45.4085 75.3521 45.5271C75.3758 45.5855 75.4113 45.6322 75.4583 45.6671C75.5053 45.6903 75.5524 45.7193 75.5994 45.7542C75.6582 45.7773 75.711 45.8064 75.7581 45.8413C75.8052 45.8761 75.8406 45.9228 75.8644 45.9813C76.1929 46.0615 76.4632 46.1948 76.6752 46.3811C76.8988 46.5557 77.0991 46.7597 77.2762 46.9931C77.4532 47.2147 77.6244 47.4423 77.7897 47.6758C77.9551 47.9093 78.1496 48.1191 78.3733 48.3054C78.3737 48.3757 78.3915 48.4283 78.4269 48.4633C78.4622 48.4983 78.4685 48.5627 78.4455 48.6566C78.658 48.9249 78.8238 49.2463 78.943 49.6206C79.0623 49.995 79.0881 50.4284 79.0205 50.921C78.8703 51.2968 78.6904 51.6201 78.4809 51.8908C78.2714 52.1498 77.9975 52.4208 77.6592 52.7039C77.3904 52.8226 77.1272 52.9178 76.8698 52.9895C76.6123 53.0495 76.3843 53.1446 76.1858 53.2746C76.0917 53.2165 76.0037 53.1935 75.9217 53.2057C75.8514 53.2061 75.7869 53.1947 75.7282 53.1716C75.4593 53.2903 75.1727 53.3739 74.8682 53.4224C74.5637 53.4593 74.2411 53.3966 73.9004 53.2344C73.6544 53.2475 73.4024 53.243 73.1444 53.221C72.8982 53.1872 72.6693 53.1299 72.4579 53.049C72.2465 52.9681 72.0643 52.8578 71.9112 52.718C71.7697 52.5665 71.6749 52.3795 71.6268 52.1571C71.3561 51.9359 71.1788 51.6615 71.0949 51.3338C71.011 50.9944 71.0503 50.6661 71.2126 50.3488C71.2828 50.325 71.3354 50.3071 71.3705 50.2952C71.4172 50.2715 71.4756 50.2301 71.5456 50.1712C72.167 50.2263 72.8001 50.2756 73.4449 50.3189C74.1013 50.3504 74.7983 50.2939 75.5358 50.1492C75.5587 50.0553 75.5993 49.9906 75.6577 49.9551C75.7278 49.9079 75.8037 49.8665 75.8856 49.8308C75.9674 49.7952 76.0434 49.7597 76.1135 49.7241C76.1836 49.6886 76.2361 49.6356 76.2708 49.565C76.2704 49.4947 76.2526 49.448 76.2173 49.4247C76.182 49.3898 76.1467 49.3606 76.1114 49.3374C76.076 49.3024 76.0407 49.2675 76.0053 49.2325C75.9817 49.1975 75.9755 49.1389 75.9868 49.0568C75.8344 49.0577 75.6525 49.0059 75.441 48.9016C75.2412 48.7973 75.0823 48.681 74.9644 48.5527C74.4483 48.4618 73.9317 48.2889 73.4147 48.0339C72.9094 47.7789 72.4159 47.5413 71.9342 47.3213C71.8514 47.1812 71.7569 47.0528 71.6508 46.9362C71.5563 46.8078 71.4619 46.6794 71.3674 46.551C71.2729 46.4109 71.1901 46.2707 71.119 46.1305C71.0596 45.9902 71.0237 45.838 71.011 45.674C71.0217 45.4865 71.0325 45.3106 71.0433 45.1465C71.054 44.9707 71.0648 44.8007 71.0756 44.6366C71.0864 44.4607 71.103 44.2848 71.1255 44.1089C71.1479 43.9213 71.1819 43.7219 71.2276 43.5107C71.7277 42.8165 72.3515 42.233 73.0989 41.7601C73.8579 41.2755 74.6351 40.8786 75.4302 40.5695C75.5599 40.6977 75.6895 40.8376 75.8193 40.9893C75.949 41.1292 76.0845 41.2632 76.2258 41.3913C76.3671 41.5195 76.5142 41.63 76.6671 41.7229C76.8317 41.8157 77.0136 41.8675 77.2129 41.8781C77.3416 41.8422 77.4411 41.8182 77.5113 41.8061C77.5815 41.794 77.646 41.7878 77.7046 41.7875C77.7632 41.7872 77.8393 41.7868 77.9331 41.7862C78.0268 41.7857 78.1615 41.7733 78.3372 41.7489C78.5128 41.7244 78.6827 41.7118 78.8467 41.7109C79.0108 41.71 79.1631 41.7033 79.3037 41.6908C79.5965 41.6657 79.8073 41.6411 79.9361 41.617C80.0766 41.5928 80.1702 41.5747 80.217 41.5627C80.2638 41.5507 80.2872 41.5447 80.2872 41.5447C80.2872 41.533 80.3048 41.5329 80.34 41.5445C80.3869 41.5442 80.4689 41.5555 80.5863 41.5783C80.7036 41.601 80.903 41.6292 81.1844 41.6629ZM99.4232 53.0586C99.3064 53.1179 99.1953 53.1712 99.0901 53.2187C98.9966 53.2661 98.8854 53.2901 98.7565 53.2908C98.2976 52.9535 98.0541 52.363 98.0261 51.5194C98.0097 50.6758 98.1854 49.6025 98.5533 48.2997C98.6117 48.2642 98.6406 48.1937 98.64 48.0883L98.4808 47.9134C98.4339 47.9136 98.3871 47.9197 98.3403 47.9317C98.3052 47.9436 98.2761 47.9848 98.2531 48.0552C97.9496 48.2796 97.6169 48.5158 97.255 48.7639C96.893 49.0002 96.5134 49.225 96.1161 49.4381C95.7305 49.6395 95.333 49.8057 94.9235 49.9369C94.5258 50.068 94.1336 50.1346 93.7469 50.1367C92.7625 50.1422 92.0215 49.6482 91.5239 48.6548L91.3818 48.3919L91.2424 48.6212C91.2075 48.6683 91.1553 48.7682 91.0859 48.9209C91.0163 49.0619 90.9469 49.2264 90.8776 49.4143C90.8084 49.6021 90.745 49.7958 90.6875 49.9954C90.6416 50.1831 90.625 50.3473 90.6375 50.4879C90.5326 50.5939 90.4219 50.7176 90.3055 50.8588C90.1891 51.0001 90.1021 51.1588 90.0445 51.3349C90.0215 51.4288 90.0337 51.5166 90.0811 51.5984C90.0582 51.704 90.0059 51.7863 89.9242 51.8453C89.8777 51.9042 89.8253 51.9631 89.767 52.022C89.7204 52.0691 89.6796 52.1221 89.6448 52.1809C89.6217 52.2396 89.6044 52.2983 89.593 52.3569C89.5934 52.4155 89.5878 52.4741 89.5764 52.5328C89.5769 52.6148 89.5656 52.6911 89.5425 52.7615C89.3456 53.1728 89.1888 53.4373 89.0723 53.5551C88.9558 53.6847 88.798 53.75 88.5988 53.7511C88.505 53.7516 88.3526 53.7349 88.1414 53.7009C87.9882 53.5377 87.8464 53.3158 87.7159 53.0352C87.5971 52.7429 87.5016 52.4329 87.4295 52.1052C87.3691 51.7774 87.338 51.4494 87.3362 51.1213C87.3461 50.7814 87.403 50.4881 87.5071 50.2414C87.5071 50.2297 87.5533 50.1123 87.6458 49.8891C87.7384 49.6659 87.854 49.3782 87.9926 49.0258C88.143 48.6734 88.3108 48.2858 88.496 47.8629C88.6811 47.4283 88.8663 47.0112 89.0516 46.6118C89.2369 46.2006 89.4106 45.8246 89.5728 45.4839C89.7467 45.1431 89.8917 44.8845 90.0079 44.708C90.1009 44.5669 90.1822 44.4375 90.2519 44.32C90.3332 44.1906 90.4087 44.0671 90.4784 43.9496C90.6873 43.5851 90.8849 43.2852 91.0711 43.0498C91.2689 42.8026 91.555 42.6077 91.9292 42.465C92.1876 42.569 92.3758 42.6911 92.4937 42.831L92.53 43.0242C92.5775 43.1411 92.6481 43.1993 92.7419 43.1988C92.871 43.2333 92.9766 43.2678 93.0588 43.3025C93.1527 43.3255 93.2525 43.3483 93.3581 43.3712C93.4406 43.4645 93.5174 43.5754 93.5884 43.7039C93.6829 43.844 93.7716 43.9842 93.8544 44.1243C93.9489 44.2527 94.0199 44.3871 94.0676 44.5275C94.1269 44.656 94.1569 44.7906 94.1577 44.9313C94.1702 45.0718 94.1475 45.2184 94.0898 45.3711L94.1083 45.5468C94.1675 45.6519 94.18 45.7983 94.1459 45.986C94.1346 46.0681 94.1293 46.1561 94.1298 46.2498C94.1302 46.3318 94.1425 46.4255 94.1665 46.5309C94.3783 46.6938 94.5663 46.7748 94.7303 46.7738C94.9178 46.7728 95.0875 46.7309 95.2394 46.648C95.403 46.5533 95.5548 46.4588 95.6949 46.3642C95.7883 46.2934 95.8817 46.2343 95.9752 46.1869C96.0686 46.1278 96.1621 46.0921 96.2558 46.0799C96.4657 45.8795 96.6522 45.7027 96.8154 45.5494C96.9904 45.3961 97.1712 45.2428 97.3578 45.0894C97.7078 44.8062 98.046 44.4997 98.3723 44.1698C98.6986 43.8398 98.96 43.4282 99.1565 42.9349C99.2733 42.864 99.3962 42.8282 99.5251 42.8274C99.654 42.8267 99.7889 42.8553 99.9298 42.9131C100.071 42.9709 100.206 43.0288 100.335 43.0867C100.37 43.1099 100.4 43.1273 100.423 43.1389C100.459 43.1504 100.488 43.162 100.511 43.1736C100.512 43.2908 100.559 43.3901 100.654 43.4716C100.701 43.5065 100.73 43.5298 100.742 43.5415C100.754 43.5531 100.771 43.5647 100.795 43.5763C100.971 43.6691 101.083 43.7622 101.13 43.8557C101.214 44.1248 101.361 44.3291 101.573 44.4685C101.55 44.5858 101.551 44.6972 101.575 44.8025C101.611 44.8961 101.652 44.9954 101.7 45.1007C101.712 45.1357 101.724 45.1708 101.735 45.2059C101.747 45.241 101.765 45.2819 101.789 45.3287L101.455 45.2954L101.509 45.6291C101.534 45.793 101.517 45.9747 101.46 46.1743C101.414 46.3737 101.356 46.5323 101.286 46.6498C101.3 46.9545 101.307 47.1946 101.308 47.3704C101.321 47.5344 101.316 47.6927 101.293 47.8451C101.27 47.9859 101.236 48.1208 101.19 48.25C101.155 48.3791 101.103 48.52 101.034 48.6727C101.085 49.4225 101.001 50.1085 100.782 50.7308C100.574 51.3413 100.354 51.9168 100.123 52.4571C100.1 52.5158 100.071 52.5746 100.036 52.6334C100.013 52.6921 99.9899 52.7508 99.9668 52.8095C99.8615 52.8453 99.768 52.8868 99.6862 52.9341C99.6044 52.9697 99.5167 53.0112 99.4232 53.0586ZM105.641 52.1103C105.701 52.4615 105.679 52.7371 105.575 52.9368C105.482 53.1366 105.343 53.2838 105.156 53.3786C104.98 53.4851 104.776 53.5448 104.541 53.5578C104.307 53.5708 104.084 53.5603 103.873 53.5263C103.755 53.3629 103.648 53.1584 103.553 52.9128C103.458 52.6673 103.369 52.4158 103.286 52.1584C103.202 51.8894 103.124 51.6261 103.053 51.3687C102.993 51.1112 102.939 50.883 102.891 50.684C102.948 50.5431 102.983 50.3847 102.994 50.2088C103.016 50.0212 103.027 49.8337 103.026 49.6462C103.036 49.4586 103.041 49.2711 103.04 49.0836C103.051 48.8843 103.067 48.6967 103.09 48.5208C103.169 48.0282 103.284 47.5588 103.434 47.1126C103.595 46.6664 103.721 46.2028 103.813 45.7218C103.835 45.6162 103.823 45.5167 103.776 45.4232C103.74 45.3297 103.734 45.2418 103.757 45.1596C103.768 45.1127 103.803 45.0832 103.862 45.0712C103.92 45.0474 103.955 45.0062 103.967 44.9475C104.001 44.8184 104.006 44.7129 103.982 44.631C103.97 44.5491 103.993 44.4493 104.051 44.3318C104.109 44.2378 104.179 44.1026 104.26 43.9264C104.352 43.7384 104.387 43.5448 104.362 43.3457C104.467 43.2748 104.566 43.1923 104.659 43.098C104.753 43.0037 104.846 42.9212 104.939 42.8504C105.044 42.7677 105.155 42.6968 105.272 42.6376C105.401 42.5783 105.553 42.5481 105.729 42.5472C105.823 42.6638 105.882 42.7924 105.907 42.9329C105.943 43.0733 105.973 43.2138 105.997 43.3543C106.033 43.4947 106.08 43.6292 106.14 43.7578C106.199 43.8747 106.299 43.9679 106.44 44.0374C106.441 44.1312 106.441 44.2483 106.442 44.389C106.443 44.5296 106.449 44.6702 106.462 44.8107C106.474 44.9396 106.498 45.0625 106.534 45.1795C106.582 45.2847 106.652 45.3546 106.746 45.3893C106.538 45.9529 106.342 46.5106 106.158 47.0625C105.985 47.6142 105.842 48.1716 105.728 48.7348C105.613 49.2862 105.54 49.8432 105.508 50.4059C105.488 50.9685 105.532 51.5367 105.641 52.1103ZM111.272 50.1105C111.167 50.1345 111.091 50.1994 111.045 50.3051C110.999 50.3991 110.952 50.499 110.906 50.6047C110.871 50.7104 110.831 50.8102 110.785 50.9042C110.75 50.9864 110.692 51.0278 110.609 51.0282C110.598 51.122 110.564 51.2043 110.505 51.2749C110.459 51.3455 110.412 51.4219 110.366 51.5042C110.32 51.5747 110.285 51.657 110.262 51.7509C110.239 51.833 110.251 51.9326 110.299 52.0495C110.205 52.1203 110.147 52.2202 110.125 52.3493C110.102 52.4783 110.073 52.6015 110.039 52.7189C110.016 52.8362 109.97 52.9361 109.9 53.0185C109.83 53.1009 109.701 53.1368 109.514 53.1261C109.479 53.1732 109.473 53.2025 109.497 53.2141C109.52 53.2257 109.538 53.2666 109.55 53.3368C109.421 53.3141 109.321 53.3205 109.251 53.3561C109.193 53.4032 109.117 53.433 109.023 53.4452C108.8 53.3761 108.612 53.2541 108.459 53.0792C108.317 52.9042 108.187 52.7115 108.069 52.5012C107.962 52.2792 107.861 52.0571 107.766 51.8349C107.683 51.6127 107.6 51.4198 107.517 51.2562C107.551 51.1271 107.557 51.004 107.532 50.887C107.508 50.7582 107.467 50.653 107.408 50.5712C107.975 49.3493 108.595 48.0451 109.267 46.6586C109.939 45.2721 110.576 43.9033 111.178 42.5523C111.448 42.6563 111.712 42.7779 111.971 42.9171C112.241 43.0445 112.482 43.1955 112.694 43.3701C112.918 43.5447 113.107 43.7487 113.26 43.9823C113.414 44.2041 113.515 44.4555 113.563 44.7365C113.54 44.8069 113.511 44.8364 113.476 44.8248C113.452 44.8015 113.429 44.8075 113.406 44.8428C113.453 44.9011 113.476 44.942 113.477 44.9655C113.488 44.9888 113.488 45.0123 113.477 45.0358C113.477 45.0592 113.477 45.0944 113.477 45.1412C113.478 45.1764 113.496 45.229 113.531 45.2991C113.484 45.2877 113.449 45.2937 113.426 45.3173C113.414 45.3408 113.379 45.341 113.32 45.3179C113.368 45.4465 113.38 45.5519 113.357 45.6341C113.346 45.7162 113.323 45.7925 113.288 45.863C113.253 45.9218 113.224 45.9923 113.201 46.0744C113.178 46.1449 113.185 46.2386 113.22 46.3556C113.185 46.3558 113.156 46.3676 113.133 46.3912C113.121 46.403 113.11 46.4206 113.098 46.4441C113.086 46.4559 113.069 46.4736 113.045 46.4972C113.034 46.5089 113.01 46.5091 112.975 46.4975C113.012 46.7552 113.025 47.0129 113.015 47.2708C113.004 47.5286 112.994 47.7924 112.984 48.062C112.985 48.3198 112.993 48.5951 113.006 48.888C113.019 49.1692 113.062 49.462 113.134 49.7662C113.554 49.5178 113.887 49.1996 114.131 48.8115C114.386 48.4234 114.589 47.9887 114.739 47.5074C114.9 47.026 115.02 46.5097 115.099 45.9585C115.178 45.4073 115.263 44.8443 115.354 44.2696C115.458 44.1635 115.54 44.0342 115.598 43.8815C115.655 43.7288 115.707 43.5703 115.753 43.406C115.799 43.23 115.845 43.0598 115.891 42.8955C115.937 42.7194 115.995 42.5609 116.064 42.4199C116.24 42.4424 116.387 42.5002 116.505 42.5933C116.634 42.6746 116.752 42.7677 116.858 42.8726C116.964 42.9657 117.075 43.0589 117.193 43.152C117.311 43.2334 117.458 43.2853 117.633 43.3078C117.775 43.5062 117.905 43.6989 118.023 43.8857C118.142 44.0726 118.219 44.2714 118.255 44.4821C118.197 44.5762 118.151 44.6819 118.116 44.7993C118.094 44.9166 118.065 45.0339 118.03 45.1513C117.996 45.2687 117.95 45.3803 117.892 45.4861C117.833 45.5801 117.752 45.6626 117.647 45.7335C117.613 46.0384 117.568 46.3199 117.511 46.578C117.465 46.8244 117.414 47.0707 117.357 47.3172C117.311 47.5635 117.272 47.8215 117.238 48.0913C117.204 48.3493 117.194 48.6364 117.208 48.9528C117.115 49.2228 117.017 49.5105 116.913 49.8157C116.81 50.121 116.729 50.3968 116.672 50.6433C116.485 50.7966 116.34 50.9791 116.235 51.1906C116.131 51.4021 116.021 51.6136 115.905 51.8252C115.858 51.8724 115.829 51.8842 115.817 51.8609C115.805 51.8375 115.764 51.8201 115.694 51.8088C115.706 51.8556 115.706 51.8908 115.695 51.9143C115.683 51.9378 115.665 51.9613 115.642 51.9849C115.631 51.9967 115.619 52.0202 115.607 52.0554C115.608 52.0905 115.62 52.1374 115.643 52.1958C115.48 52.267 115.334 52.3674 115.206 52.4971C115.077 52.6267 114.937 52.7446 114.786 52.8509C114.646 52.9572 114.47 53.0285 114.259 53.0648C114.06 53.101 113.797 53.0615 113.468 52.9461C112.985 52.5972 112.555 52.1953 112.178 51.7403C111.812 51.2853 111.51 50.742 111.272 50.1105ZM128.162 43.2146C128.187 43.4723 128.229 43.6947 128.289 43.8819C128.349 44.0691 128.414 44.2503 128.485 44.4257C128.545 44.5895 128.599 44.7532 128.646 44.917C128.706 45.0691 128.748 45.2563 128.773 45.4788C128.68 45.784 128.612 46.0657 128.566 46.3237C128.533 46.5817 128.493 46.8515 128.448 47.133C128.262 47.5442 128.083 47.9085 127.909 48.2258C127.735 48.5432 127.596 48.8194 127.491 49.0543C127.433 49.1132 127.381 49.1838 127.334 49.2661C127.3 49.3366 127.259 49.413 127.213 49.4953C127.189 49.5306 127.16 49.5835 127.126 49.654C127.091 49.7245 127.062 49.7715 127.038 49.7951L126.686 49.674L126.618 50.1138L126.373 50.1855L126.198 50.3974C125.978 50.7853 125.745 51.1148 125.5 51.3856C125.256 51.6448 124.976 51.8807 124.66 52.0934C124.357 52.2943 124.006 52.4837 123.609 52.6617C123.223 52.8396 122.785 53.0354 122.294 53.249C122.094 53.2267 121.919 53.2159 121.766 53.2168C121.626 53.2058 121.491 53.1949 121.362 53.1839C121.139 53.1851 120.864 53.169 120.535 53.1357C120.5 53.0421 120.447 52.978 120.376 52.9432C120.306 52.9084 120.241 52.8912 120.182 52.8915C119.983 52.7989 119.83 52.6649 119.723 52.4897C119.628 52.3028 119.534 52.1041 119.439 51.8937C119.379 51.7651 119.32 51.6482 119.261 51.5431C119.202 51.4262 119.137 51.3094 119.066 51.1926L119.364 51.103L118.975 50.6833C118.951 50.6483 118.922 50.6191 118.887 50.5959C118.851 50.5609 118.822 50.5259 118.798 50.4909L118.779 50.2098C118.739 49.4014 118.718 48.6632 118.714 47.9952C118.722 47.3155 118.812 46.7115 118.985 46.1832L118.984 45.9898C119.018 45.7318 119.052 45.5207 119.086 45.3564C119.12 45.1805 119.149 45.0162 119.171 44.8638C119.205 44.6058 119.256 44.3652 119.326 44.1422C119.489 44.1061 119.612 44.041 119.694 43.9468C119.775 43.8409 119.845 43.7468 119.903 43.6644C120.067 43.6518 120.178 43.6746 120.237 43.7329C120.296 43.7911 120.355 43.8846 120.415 44.0132C120.474 44.1183 120.545 44.2351 120.628 44.3635C120.722 44.4919 120.857 44.5908 121.034 44.6601C121.057 44.7538 121.087 44.8532 121.123 44.9585C121.17 45.052 121.218 45.1572 121.265 45.2741C121.36 45.4728 121.443 45.6833 121.515 45.9056C121.598 46.116 121.646 46.3209 121.659 46.52C121.543 46.7433 121.451 47.0016 121.382 47.295C121.325 47.5883 121.286 47.8873 121.264 48.1921C121.254 48.4852 121.261 48.7722 121.286 49.0534C121.323 49.3227 121.377 49.5509 121.448 49.738L121.555 49.9659L121.854 49.9291C122.205 49.8335 122.52 49.7321 122.801 49.6251C123.093 49.5063 123.362 49.37 123.608 49.2163C123.853 49.0626 124.086 48.8856 124.308 48.6851C124.529 48.473 124.762 48.2315 125.007 47.9606C125.251 47.6897 125.461 47.3838 125.635 47.043C125.82 46.6904 125.971 46.3263 126.086 45.9507C126.212 45.575 126.304 45.2053 126.361 44.8417C126.429 44.4664 126.474 44.1145 126.496 43.7863C126.694 43.7149 126.793 43.5737 126.792 43.3628L126.756 43.1696C126.709 43.0996 126.708 43.0175 126.755 42.9235C126.824 42.7005 126.987 42.5297 127.244 42.4111C127.432 42.5272 127.597 42.6552 127.738 42.7951C127.891 42.9348 128.033 43.0747 128.162 43.2146ZM138.331 44.7055C138.038 44.7071 137.722 44.7323 137.382 44.781C137.042 44.818 136.709 44.8609 136.381 44.9096C136.147 44.946 135.918 44.9766 135.696 45.0012C135.485 45.0258 135.292 45.0445 135.116 45.0572C135.035 45.3154 134.955 45.5444 134.874 45.7441C134.793 45.9437 134.706 46.1376 134.613 46.3256C134.521 46.5253 134.434 46.7309 134.353 46.9423C134.284 47.1419 134.215 47.359 134.146 47.5938C134.029 47.782 133.931 47.9583 133.85 48.1228C133.78 48.2755 133.723 48.4516 133.677 48.6511C133.537 48.8276 133.433 49.0157 133.364 49.2153C133.294 49.4032 133.242 49.5676 133.208 49.7084L133.139 49.9197C133.069 49.9904 133.028 50.0492 133.017 50.0962C133.005 50.1314 132.976 50.1667 132.929 50.2021C132.918 50.3311 132.878 50.4602 132.809 50.5895C132.785 50.6482 132.768 50.7069 132.757 50.7656C132.745 50.8125 132.74 50.8477 132.74 50.8711C132.74 50.9883 132.712 51.0647 132.653 51.1001C132.665 51.1587 132.666 51.2231 132.654 51.2935C132.643 51.3521 132.631 51.4108 132.62 51.4695C132.586 51.6103 132.575 51.7217 132.587 51.8036C132.622 51.8503 132.652 51.8912 132.675 51.9262C132.711 51.9612 132.734 52.0079 132.746 52.0664C132.817 52.1129 132.87 52.1419 132.905 52.1534C132.952 52.1883 133.023 52.229 133.117 52.2753L133.276 52.4502C133.336 52.7898 133.285 53.0596 133.122 53.2597C132.948 53.4833 132.649 53.5963 132.227 53.5986L132.017 53.5998C131.958 53.5415 131.922 53.4948 131.91 53.4597C131.816 53.4251 131.74 53.3962 131.681 53.3731C131.623 53.35 131.57 53.3034 131.522 53.2333C131.37 53.1639 131.246 53.106 131.152 53.0596L130.994 52.9726C130.993 52.8437 130.992 52.7734 130.992 52.7616C130.91 52.6566 130.845 52.5398 130.797 52.4112C130.761 52.2824 130.731 52.1537 130.707 52.0249C130.683 51.9196 130.653 51.8201 130.618 51.7266C130.594 51.633 130.558 51.5511 130.511 51.4811C130.484 50.8015 130.545 50.227 130.695 49.7574C130.844 49.2878 131 48.8358 131.162 48.4013C131.254 48.1664 131.347 47.9315 131.439 47.6966C131.531 47.45 131.612 47.1976 131.681 46.9394L131.838 46.7628C131.919 46.5748 131.983 46.4221 132.029 46.3047C132.087 46.1754 132.145 46.0462 132.203 45.917C132.237 45.8348 132.266 45.7584 132.289 45.688C132.324 45.6058 132.353 45.5353 132.376 45.4766C132.306 45.477 132.241 45.4832 132.183 45.4952C132.124 45.4955 132.066 45.5017 132.007 45.5138C131.937 45.5259 131.873 45.5379 131.814 45.55C131.755 45.5503 131.697 45.5506 131.638 45.551C131.556 45.5514 131.498 45.5459 131.462 45.5343C131.334 45.5936 131.193 45.6237 131.041 45.6246L130.865 45.6255C130.83 45.6257 130.795 45.6259 130.76 45.6261C130.736 45.6145 130.713 45.6088 130.689 45.6089C130.572 45.6096 130.478 45.6277 130.408 45.6632C130.268 45.664 130.133 45.6647 130.004 45.6654L129.828 45.6664C129.805 45.6665 129.776 45.6725 129.74 45.6845C129.705 45.6846 129.676 45.6848 129.653 45.6849C129.571 45.6854 129.483 45.68 129.389 45.6688C129.295 45.6459 129.195 45.6054 129.089 45.5474C128.948 45.3607 128.853 45.2616 128.806 45.2501L128.647 45.0401C128.635 44.9698 128.617 44.9055 128.593 44.847C128.569 44.7768 128.546 44.7008 128.522 44.6189C128.474 44.502 128.427 44.3792 128.379 44.2505C128.343 44.1101 128.325 43.9461 128.324 43.7586C128.335 43.6648 128.358 43.5944 128.393 43.5473C128.428 43.5002 128.457 43.4591 128.48 43.4238L128.531 43.1598L128.76 43.1761L129.252 43.1734C129.627 43.1714 130.008 43.1576 130.394 43.132C130.781 43.0947 131.179 43.0573 131.589 43.0199C131.823 42.9952 132.058 42.9705 132.292 42.9457C132.538 42.921 132.79 42.8961 133.047 42.8713C133.094 42.7655 133.14 42.6657 133.186 42.5717L133.362 42.4828C133.572 42.4699 133.719 42.4984 133.802 42.5683C133.896 42.6264 133.972 42.6845 134.031 42.7428C134.289 42.7179 134.546 42.6931 134.804 42.6682C135.073 42.6316 135.343 42.5891 135.612 42.5407C136.01 42.4799 136.408 42.425 136.806 42.3759C137.216 42.3268 137.609 42.3012 137.984 42.2991C138.148 42.2982 138.306 42.3032 138.458 42.3141C138.611 42.325 138.751 42.3418 138.881 42.3645L139.057 42.4866C139.093 42.5567 139.14 42.6209 139.199 42.6792C139.269 42.7374 139.34 42.7956 139.411 42.8538C139.552 42.9819 139.693 43.1335 139.835 43.3085C139.977 43.4835 140.031 43.741 139.997 44.081C139.904 44.2222 139.835 44.3046 139.788 44.3283L139.631 44.5401L139.455 44.5235C139.385 44.5239 139.32 44.536 139.262 44.5597C139.203 44.5718 139.145 44.5897 139.086 44.6134C139.04 44.6371 138.993 44.6608 138.946 44.6845C138.899 44.6965 138.847 44.7085 138.788 44.7205C138.683 44.7211 138.595 44.7216 138.524 44.722C138.466 44.7106 138.401 44.7051 138.331 44.7055ZM146.76 43.2176C146.773 43.2996 146.773 43.364 146.761 43.411C146.762 43.4461 146.756 43.4813 146.744 43.5165C146.745 43.5517 146.745 43.5927 146.745 43.6396C146.745 43.6747 146.757 43.7332 146.781 43.8152C146.537 44.2149 146.252 44.4919 145.924 44.6461C145.609 44.7884 145.264 44.8958 144.889 44.9682C144.514 45.0288 144.128 45.0954 143.73 45.1679C143.344 45.2404 142.958 45.3948 142.572 45.6313C142.42 45.5736 142.279 45.5744 142.151 45.6337C142.034 45.6929 141.858 45.7114 141.623 45.6893C141.554 45.76 141.466 45.8132 141.361 45.849C141.255 45.873 141.15 45.9028 141.045 45.9386C141.092 46.0438 141.11 46.155 141.099 46.2723C141.1 46.3777 141.118 46.4655 141.154 46.5357C141.564 46.5685 142.015 46.5602 142.507 46.5106C143.011 46.461 143.503 46.429 143.983 46.4146C143.995 46.4731 143.989 46.5142 143.966 46.5377C143.943 46.5496 143.937 46.5789 143.949 46.6257C144.031 46.6839 144.114 46.7596 144.196 46.8529C144.279 46.9345 144.361 47.016 144.444 47.0976C144.526 47.1792 144.609 47.249 144.691 47.3072C144.785 47.3535 144.891 47.3705 145.008 47.3582C145.055 47.4517 145.085 47.557 145.097 47.6741C145.121 47.7794 145.11 47.8908 145.064 48.0083C144.877 48.1382 144.691 48.274 144.504 48.4157C144.317 48.5456 144.118 48.6639 143.908 48.7705C143.709 48.8771 143.493 48.9662 143.259 49.0378C143.037 49.0976 142.785 49.1224 142.504 49.1122C142.445 49.1126 142.398 49.1128 142.363 49.113C142.34 49.1131 142.304 49.0958 142.257 49.0609C142.164 49.12 142.029 49.1383 141.853 49.1158C141.689 49.0933 141.56 49.1116 141.467 49.1707C141.338 49.1128 141.179 49.0902 140.992 49.103C140.816 49.104 140.658 49.0814 140.517 49.0353C140.331 49.2824 140.162 49.547 140.012 49.8291C139.861 50.1112 139.728 50.4108 139.612 50.7278C140.011 50.7842 140.339 50.8058 140.597 50.7927C140.866 50.7795 141.118 50.7605 141.352 50.7358C141.587 50.6993 141.827 50.6687 142.073 50.6439C142.319 50.6074 142.629 50.594 143.004 50.6036C143.238 50.4734 143.513 50.3899 143.829 50.353C144.157 50.3043 144.455 50.2324 144.724 50.1371C144.818 50.1718 144.901 50.2358 144.971 50.3291C145.042 50.4108 145.107 50.4924 145.166 50.5742C145.237 50.6441 145.307 50.7081 145.378 50.7663C145.449 50.8246 145.537 50.8475 145.642 50.8352C145.689 50.8818 145.719 50.9403 145.731 51.0105C145.755 51.069 145.773 51.1275 145.785 51.186C145.797 51.2445 145.815 51.2972 145.838 51.3439C145.874 51.3789 145.926 51.3903 145.997 51.3782C145.823 51.7659 145.62 52.0658 145.386 52.278C145.165 52.4785 144.908 52.6322 144.616 52.7393C144.323 52.8464 143.995 52.9302 143.633 52.9908C143.281 53.0514 142.889 53.1238 142.456 53.2083C142.351 53.2323 142.263 53.2269 142.192 53.1921C142.122 53.1691 142.04 53.1578 141.946 53.1583C141.677 53.2184 141.355 53.2729 140.98 53.3219C140.605 53.3708 140.224 53.3905 139.838 53.3809C139.451 53.3713 139.082 53.3206 138.729 53.2288C138.377 53.1487 138.089 52.9979 137.866 52.7765C137.771 52.695 137.706 52.6016 137.671 52.4963C137.647 52.3793 137.57 52.2918 137.441 52.2339C137.428 52.0817 137.404 51.9119 137.368 51.7246C137.331 51.5373 137.295 51.3441 137.259 51.1451C137.223 50.9343 137.192 50.7294 137.168 50.5303C137.155 50.3312 137.166 50.1495 137.2 49.9852C137.234 49.8092 137.303 49.6507 137.408 49.5095C137.525 49.3682 137.565 49.2156 137.529 49.0518C137.587 49.0397 137.622 49.0102 137.634 48.9633C137.645 48.9046 137.692 48.8809 137.774 48.8922C137.843 48.6809 137.918 48.4812 137.999 48.2933C138.08 48.1053 138.161 47.9233 138.242 47.747C138.335 47.5707 138.422 47.3945 138.503 47.2182C138.596 47.0302 138.682 46.8247 138.763 46.6016C138.598 46.4501 138.474 46.2867 138.391 46.1114C138.32 45.9243 138.266 45.743 138.23 45.5674C138.194 45.3801 138.164 45.1927 138.139 45.0054C138.115 44.8063 138.073 44.6073 138.013 44.4084C138.129 44.232 138.269 44.0906 138.432 43.9842C138.608 43.866 138.795 43.7713 138.993 43.6999C139.192 43.6284 139.409 43.5687 139.643 43.5205C139.877 43.4723 140.123 43.4182 140.38 43.3582C140.848 43.2033 141.263 43.0838 141.626 42.9998C142.001 42.9157 142.364 42.8492 142.715 42.8004C143.078 42.7398 143.453 42.685 143.839 42.636C144.226 42.587 144.665 42.5143 145.156 42.4178C145.262 42.5227 145.362 42.5749 145.456 42.5744C145.502 42.4687 145.555 42.4391 145.614 42.4856C145.684 42.5204 145.713 42.4851 145.701 42.3797C145.819 42.5782 145.967 42.7474 146.143 42.887C146.331 43.0149 146.537 43.1251 146.76 43.2176ZM146.631 45.2047C146.711 44.9581 146.839 44.7465 147.014 44.5697C147.2 44.3929 147.399 44.2453 147.609 44.127C147.831 43.9969 148.059 43.8901 148.293 43.8068C148.527 43.7235 148.749 43.652 148.96 43.5922C149.427 43.3904 149.924 43.2002 150.451 43.0215C150.989 42.831 151.533 42.664 152.083 42.5203C152.644 42.3766 153.218 42.2855 153.804 42.2471C154.39 42.197 155.005 42.264 155.651 42.4479C155.687 42.5649 155.74 42.6759 155.811 42.781C155.882 42.8861 155.953 42.9912 156.023 43.0962C156.106 43.2013 156.177 43.3063 156.236 43.4115C156.295 43.5049 156.331 43.6043 156.343 43.7097C156.461 43.8146 156.555 43.9312 156.626 44.0597C156.697 44.1765 156.71 44.3347 156.664 44.5341C156.548 44.6285 156.431 44.7171 156.314 44.7998C156.209 44.8706 156.092 44.9357 155.964 44.995C155.529 44.892 155.09 44.8592 154.645 44.8968C154.2 44.9345 153.801 44.9659 153.45 44.9913C153.344 44.8864 153.215 44.8344 153.062 44.8352C152.922 44.836 152.769 44.8603 152.606 44.9081C152.454 44.9558 152.296 45.0035 152.132 45.0513C151.98 45.099 151.833 45.1116 151.693 45.0889C151.576 45.1833 151.43 45.2485 151.254 45.2847C151.09 45.309 150.909 45.3334 150.71 45.358C150.698 45.4166 150.71 45.4576 150.746 45.4808C150.781 45.4924 150.787 45.5275 150.764 45.5862C150.834 45.6678 150.923 45.726 151.028 45.7605C151.146 45.795 151.263 45.8296 151.38 45.8641C151.51 45.8985 151.621 45.9448 151.715 46.0028C151.809 46.0492 151.874 46.1309 151.91 46.2479C152.086 46.2469 152.238 46.2871 152.368 46.3684C152.497 46.4497 152.603 46.5487 152.686 46.6655C152.768 46.7822 152.828 46.9108 152.864 47.0512C152.911 47.1799 152.935 47.2969 152.936 47.4024C152.972 47.4959 153.013 47.5367 153.06 47.5248C153.106 47.5128 153.159 47.5359 153.218 47.5942C153.254 47.7463 153.343 47.9041 153.484 48.0673C153.626 48.2189 153.738 48.3882 153.821 48.5753C153.846 48.8681 153.865 49.1317 153.878 49.366C153.891 49.5886 153.852 49.8173 153.759 50.0522C153.586 50.4867 153.342 50.8748 153.027 51.2164C152.724 51.5579 152.374 51.8645 151.978 52.1363C151.592 52.3962 151.177 52.6211 150.733 52.8111C150.289 53.001 149.856 53.1616 149.435 53.2929C149.388 53.2814 149.341 53.2817 149.294 53.2936C149.248 53.3056 149.236 53.2764 149.259 53.2059C149.165 53.2885 149.06 53.3418 148.943 53.3659C148.838 53.3899 148.721 53.3964 148.592 53.3854C148.463 53.3861 148.328 53.381 148.187 53.37C148.058 53.359 147.935 53.3656 147.818 53.3897C147.736 53.3081 147.659 53.2265 147.588 53.1448C147.53 53.0748 147.482 52.9813 147.446 52.8644C147.388 52.8647 147.358 52.8355 147.358 52.777C147.369 52.7183 147.352 52.6891 147.305 52.6894C147.374 52.5718 147.403 52.5072 147.392 52.4955C147.391 52.4721 147.374 52.4546 147.339 52.4431C147.315 52.4315 147.292 52.4199 147.268 52.4083C147.244 52.385 147.238 52.3557 147.25 52.3205C147.296 52.2265 147.313 52.1209 147.301 52.0038C147.289 51.875 147.276 51.7461 147.264 51.6173C147.251 51.4885 147.256 51.3654 147.279 51.2481C147.314 51.1307 147.401 51.0365 147.541 50.9654C147.94 51.01 148.315 50.9963 148.666 50.924C149.029 50.84 149.368 50.7268 149.684 50.5844C149.999 50.4421 150.297 50.2881 150.578 50.1225C150.87 49.9568 151.156 49.8087 151.437 49.6783C151.471 49.5726 151.518 49.4845 151.576 49.4138C151.646 49.3431 151.716 49.2783 151.786 49.2193C151.856 49.1603 151.92 49.0955 151.978 49.0249C152.036 48.9542 152.077 48.8661 152.1 48.7605C152.111 48.6784 152.087 48.6317 152.028 48.6203C151.981 48.5971 151.958 48.5504 151.957 48.4801L151.764 48.4284C151.54 48.3007 151.288 48.1966 151.006 48.1162C150.724 48.024 150.484 47.9257 150.284 47.8213C150.155 47.8923 150.032 47.9106 149.915 47.8761C149.809 47.8415 149.668 47.8071 149.493 47.7729C149.094 47.7517 148.707 47.7128 148.332 47.6563C147.968 47.5997 147.616 47.4962 147.275 47.3457C147.252 47.2872 147.222 47.2346 147.187 47.188C147.151 47.1413 147.087 47.1299 146.993 47.1539C146.922 47.0605 146.851 46.973 146.781 46.8914C146.71 46.798 146.645 46.6988 146.586 46.5936C146.608 46.4529 146.625 46.3356 146.636 46.2418C146.648 46.1362 146.612 46.0368 146.529 45.9435C146.575 45.7909 146.61 45.6677 146.633 45.5738C146.656 45.4799 146.655 45.3569 146.631 45.2047ZM159.527 40.95C159.528 41.0554 159.511 41.1844 159.477 41.337C159.454 41.4894 159.432 41.6419 159.409 41.7944C159.386 41.9468 159.381 42.0875 159.394 42.2163C159.406 42.3335 159.459 42.4093 159.553 42.444C159.346 43.0662 159.202 43.5885 159.122 44.0108C159.054 44.4331 158.992 44.8377 158.936 45.2248C158.891 45.6 158.829 45.9988 158.749 46.4211C158.669 46.8434 158.526 47.3599 158.318 47.9704C158.191 48.3461 158.034 48.6106 157.848 48.764C157.661 48.9057 157.462 48.9771 157.251 48.9782C157.04 48.9794 156.823 48.922 156.6 48.8061C156.377 48.6901 156.171 48.5623 155.983 48.4227C155.946 48.2003 155.939 47.9308 155.96 47.6142C155.994 47.2859 156.033 46.9459 156.078 46.594C156.123 46.2422 156.168 45.908 156.213 45.5913C156.258 45.263 156.292 44.9874 156.314 44.7646C156.43 44.635 156.512 44.5291 156.558 44.4468C156.605 44.3646 156.634 44.2765 156.645 44.1827C156.668 44.0888 156.685 43.9715 156.696 43.8308C156.706 43.6902 156.735 43.4908 156.78 43.2327C156.803 43.1037 156.791 42.9924 156.743 42.8989C156.707 42.7936 156.701 42.6941 156.724 42.6002C156.747 42.5532 156.782 42.5178 156.829 42.4941C156.887 42.4704 156.922 42.4292 156.934 42.3705C156.98 42.2179 156.991 42.1007 156.967 42.0188C156.943 41.9252 156.96 41.8137 157.018 41.6845C157.076 41.5904 157.145 41.4436 157.226 41.2439C157.319 41.0324 157.353 40.8155 157.328 40.5929C157.433 40.5103 157.532 40.416 157.625 40.31C157.719 40.2041 157.812 40.1098 157.905 40.0272C158.01 39.9329 158.121 39.8561 158.238 39.7969C158.366 39.7376 158.519 39.7075 158.694 39.7065C158.789 39.8349 158.86 39.9575 158.907 40.0745C158.955 40.1914 158.996 40.3025 159.032 40.4078C159.08 40.513 159.139 40.6123 159.21 40.7056C159.28 40.799 159.386 40.8804 159.527 40.95ZM157.842 50.9613C157.866 51.055 157.884 51.1428 157.896 51.2247C157.909 51.3067 157.921 51.3945 157.933 51.4882C157.864 51.7347 157.789 51.9578 157.708 52.1574C157.673 52.2396 157.65 52.2925 157.639 52.316C157.627 52.3395 157.621 52.3571 157.621 52.3688C157.622 52.3806 157.627 52.3981 157.639 52.4215C157.651 52.4331 157.657 52.48 157.658 52.562L157.571 52.7734C157.513 52.8558 157.443 52.9206 157.361 52.9679C157.291 53.0152 157.215 53.0566 157.133 53.0922C157.098 53.1159 157.057 53.1337 157.011 53.1457C156.975 53.1693 156.946 53.1929 156.923 53.2164L156.871 53.4277L156.626 53.4642C156.438 53.5121 156.269 53.5365 156.116 53.5373L155.923 53.5384C155.781 53.4102 155.67 53.3112 155.587 53.2414C155.505 53.1715 155.411 53.1076 155.305 53.0496C155.175 52.8276 155.098 52.6347 155.073 52.4708C155.049 52.3186 155.019 52.2191 154.984 52.1724L154.736 51.9277L154.946 51.7683L154.733 51.4355C154.874 51.3293 154.979 51.2525 155.049 51.2053C155.119 51.158 155.177 51.1108 155.224 51.0637C155.282 51.0048 155.34 50.9341 155.398 50.8518C155.456 50.7694 155.549 50.6341 155.677 50.4459L155.834 50.2165L156.046 50.3384C156.105 50.3733 156.21 50.4078 156.363 50.4421C156.527 50.4647 156.668 50.4873 156.785 50.5101C156.973 50.5677 157.155 50.6136 157.331 50.6478C157.518 50.6702 157.665 50.7279 157.771 50.8211L157.842 50.9613Z" fill="white"/>
<path d="M19.8134 0.0324671L9.85025 14.2006L27.1018 15.7449L19.8134 0.0324671ZM23.4373 30.2961C24.7902 29.6484 24.7903 29.6486 24.7904 29.6487C24.7904 29.6487 24.7905 29.6489 24.7905 29.6489C24.7905 29.649 24.7905 29.6489 24.7904 29.6487C24.7902 29.6484 24.7898 29.6475 24.7892 29.6462C24.7879 29.6436 24.7858 29.6391 24.7828 29.6328C24.7768 29.6201 24.7674 29.6 24.7547 29.5727C24.7293 29.5181 24.6908 29.4347 24.6408 29.3241C24.5409 29.1028 24.3952 28.773 24.216 28.3477C23.8576 27.4967 23.3665 26.2655 22.842 24.7584C21.7904 21.7365 20.6179 17.6425 20.0993 13.299L17.1205 13.6547C17.6733 18.2845 18.9144 22.6001 20.0087 25.7444C20.5571 27.3205 21.072 28.6117 21.4513 29.5122C21.641 29.9626 21.797 30.3159 21.9067 30.5588C21.9615 30.6802 22.0048 30.7741 22.0349 30.8388C22.05 30.8712 22.0618 30.8962 22.0701 30.9138C22.0742 30.9226 22.0775 30.9295 22.0799 30.9345C22.0811 30.937 22.082 30.939 22.0828 30.9406C22.0831 30.9413 22.0834 30.942 22.0837 30.9425C22.0838 30.9428 22.084 30.9431 22.084 30.9432C22.0842 30.9435 22.0843 30.9438 23.4373 30.2961Z" fill="white"/>
</svg>
