<svg width="229" height="67" viewBox="0 0 229 67" fill="none" xmlns="http://www.w3.org/2000/svg">
<path d="M53.1356 18.1745C52.8427 18.1761 52.5264 18.2013 52.1868 18.25C51.8472 18.287 51.5134 18.3299 51.1855 18.3786C50.9514 18.415 50.723 18.4456 50.5005 18.4703C50.2897 18.4948 50.0964 18.5135 49.9207 18.5262C49.8401 18.7844 49.7593 19.0134 49.6784 19.2131C49.5975 19.4127 49.5106 19.6066 49.4179 19.7946C49.3253 19.9943 49.2385 20.1999 49.1576 20.4113C49.0884 20.6109 49.0193 20.8281 48.9503 21.0628C48.8341 21.251 48.7355 21.4273 48.6544 21.5918C48.5849 21.7445 48.5273 21.9206 48.4815 22.1201C48.3418 22.2967 48.2374 22.4847 48.1682 22.6843C48.0989 22.8722 48.0471 23.0366 48.0127 23.1774L47.9436 23.3887C47.8736 23.4594 47.8329 23.5182 47.8215 23.5652C47.81 23.6004 47.7809 23.6357 47.7342 23.6711C47.7232 23.8001 47.6829 23.9292 47.6133 24.0585C47.5901 24.1172 47.5729 24.1759 47.5615 24.2346C47.55 24.2815 47.5444 24.3167 47.5445 24.3401C47.5451 24.4573 47.5163 24.5337 47.4579 24.5691C47.4699 24.6277 47.4703 24.6921 47.4589 24.7625C47.4475 24.8212 47.4361 24.8798 47.4247 24.9385C47.3904 25.0793 47.3793 25.1907 47.3914 25.2726C47.4268 25.3193 47.4564 25.3602 47.48 25.3952C47.5154 25.4302 47.539 25.4769 47.5511 25.5354C47.6217 25.5819 47.6746 25.6109 47.7098 25.6225C47.7568 25.6574 47.8274 25.698 47.9214 25.7443L48.0806 25.9192C48.141 26.2588 48.0898 26.5286 47.9268 26.7287C47.7523 26.9523 47.454 27.0653 47.0322 27.0676L46.8212 27.0688C46.7623 27.0105 46.7269 26.9638 46.715 26.9287C46.6211 26.8941 46.5447 26.8652 46.486 26.8421C46.4273 26.819 46.3743 26.7724 46.327 26.7024C46.1743 26.6329 46.0509 26.575 45.9569 26.5286L45.7982 26.4416C45.7975 26.3127 45.7971 26.2424 45.7971 26.2307C45.7145 26.1256 45.6494 26.0088 45.6018 25.8802C45.5659 25.7515 45.5359 25.6227 45.5118 25.4939C45.4877 25.3886 45.4579 25.2892 45.4222 25.1956C45.3983 25.102 45.3627 25.0201 45.3154 24.9501C45.2882 24.2705 45.3495 23.696 45.4993 23.2264C45.649 22.7568 45.8047 22.3048 45.9664 21.8703C46.0589 21.6354 46.1513 21.4005 46.2438 21.1656C46.3362 20.919 46.4168 20.6666 46.4857 20.4084L46.6429 20.2318C46.7239 20.0438 46.7876 19.8911 46.8338 19.7737C46.8917 19.6444 46.9495 19.5152 47.0074 19.386C47.0421 19.3038 47.071 19.2274 47.0941 19.157C47.1288 19.0748 47.1577 19.0043 47.1808 18.9456C47.1105 18.946 47.0461 18.9522 46.9875 18.9642C46.9289 18.9645 46.8704 18.9707 46.8118 18.9828C46.7416 18.9949 46.6772 19.0069 46.6187 19.019C46.5601 19.0193 46.5015 19.0196 46.4429 19.02C46.3609 19.0204 46.3023 19.0149 46.267 19.0033C46.1385 19.0627 45.998 19.0927 45.8456 19.0936L45.6699 19.0945C45.6347 19.0947 45.5996 19.0949 45.5644 19.0951C45.5409 19.0835 45.5174 19.0778 45.494 19.0779C45.3768 19.0786 45.2832 19.0967 45.213 19.1322C45.0724 19.133 44.9377 19.1337 44.8087 19.1344L44.633 19.1354C44.6095 19.1355 44.5803 19.1415 44.5452 19.1535C44.51 19.1537 44.4807 19.1538 44.4573 19.1539C44.3753 19.1544 44.2873 19.149 44.1935 19.1378C44.0996 19.1149 43.9998 19.0744 43.894 19.0164C43.7524 18.8297 43.6581 18.7306 43.6111 18.7191L43.4518 18.5091C43.4397 18.4388 43.4217 18.3745 43.398 18.316C43.3741 18.2458 43.3503 18.1698 43.3264 18.0879C43.2789 17.971 43.2313 17.8482 43.1837 17.7195C43.1478 17.5791 43.1293 17.4151 43.1283 17.2276C43.1395 17.1338 43.1625 17.0634 43.1974 17.0163C43.2323 16.9693 43.2614 16.9281 43.2847 16.8928L43.3359 16.6288L43.5645 16.6452L44.0567 16.6424C44.4317 16.6404 44.8125 16.6266 45.1991 16.601C45.5856 16.5637 45.9838 16.5264 46.3938 16.4889C46.628 16.4642 46.8623 16.4395 47.0965 16.4148C47.3425 16.39 47.5943 16.3651 47.852 16.3403C47.8983 16.2346 47.9446 16.1347 47.991 16.0407L48.1663 15.9518C48.3771 15.9389 48.5238 15.9674 48.6062 16.0373C48.7003 16.0954 48.7768 16.1535 48.8357 16.2118C49.0934 16.187 49.351 16.1621 49.6087 16.1372C49.878 16.1006 50.1473 16.0581 50.4166 16.0097C50.8147 15.9489 51.2129 15.894 51.611 15.845C52.0209 15.7958 52.4134 15.7702 52.7884 15.7682C52.9524 15.7672 53.1107 15.7722 53.2631 15.7831C53.4155 15.794 53.5562 15.8108 53.6852 15.8335L53.8617 15.9556C53.8972 16.0257 53.9445 16.0899 54.0034 16.1482C54.074 16.2064 54.1446 16.2646 54.2153 16.3228C54.3566 16.4509 54.4981 16.6025 54.6397 16.7775C54.7813 16.9525 54.8354 17.21 54.8021 17.5501C54.7091 17.6912 54.6393 17.7736 54.5925 17.7973L54.4355 18.0091L54.2596 17.9925C54.1893 17.9929 54.1249 18.005 54.0665 18.0287C54.0079 18.0408 53.9494 18.0587 53.891 18.0824C53.8442 18.1061 53.7975 18.1298 53.7507 18.1535C53.7039 18.1655 53.6513 18.1775 53.5927 18.1895C53.4873 18.1901 53.3994 18.1906 53.3291 18.191C53.2704 18.1796 53.2059 18.1741 53.1356 18.1745ZM60.2052 25.1141C60.136 25.3138 60.0317 25.5194 59.8922 25.7311C59.7644 25.931 59.6072 26.1136 59.4206 26.2786C59.2457 26.432 59.0471 26.562 58.8251 26.6687C58.603 26.7753 58.369 26.8352 58.1229 26.8483C57.9704 26.814 57.8647 26.7736 57.8059 26.727C57.7588 26.6921 57.7059 26.6572 57.6471 26.6224C57.6118 26.5992 57.5765 26.5818 57.5413 26.5703C57.5177 26.5469 57.4942 26.5295 57.4707 26.5179L57.2593 26.4312L57.3283 26.2023C57.3513 26.1084 57.345 26.0381 57.3096 25.9914C57.2741 25.933 57.2034 25.8573 57.0974 25.7641C57.0621 25.7291 57.0267 25.6942 56.9914 25.6592C56.956 25.6242 56.9265 25.5893 56.9029 25.5542L56.6022 25.2219L57.0762 25.0962C57.3687 25.0126 57.5614 24.9061 57.6545 24.7766C57.7592 24.6471 57.7991 24.4301 57.7739 24.1256C57.5393 24.08 57.3401 24.0752 57.1762 24.1113C57.024 24.1473 56.8661 24.1892 56.7023 24.2369C56.4917 24.2967 56.2752 24.3506 56.0528 24.3987C55.842 24.4351 55.6077 24.4539 55.3499 24.4553C55.2562 24.4559 55.1683 24.4563 55.0863 24.4568C55.0042 24.4455 54.9162 24.4343 54.8224 24.4231L54.6464 24.3889C54.6223 24.2601 54.5985 24.1899 54.575 24.1784C54.5514 24.155 54.5278 24.1317 54.5043 24.1084C54.4454 24.0502 54.3805 23.9743 54.3097 23.881C54.2505 23.7758 54.238 23.647 54.2724 23.4945C54.2132 23.3893 54.1775 23.284 54.1652 23.1786C54.0956 23.3197 54.0437 23.4664 54.0094 23.619L53.94 23.7951L53.7644 23.8313C53.7411 23.8431 53.7237 23.8725 53.7122 23.9194C53.7007 23.9547 53.695 23.984 53.6951 24.0074L53.6089 24.3067C53.5856 24.3303 53.5622 24.3539 53.5389 24.3774C53.5156 24.3893 53.4922 24.407 53.4689 24.4305C53.4461 24.5361 53.4173 24.6418 53.3828 24.7474C53.3482 24.8531 53.3136 24.9529 53.2789 25.0468C53.2212 25.1995 53.1693 25.3521 53.1233 25.5047C53.0889 25.6456 53.0779 25.7862 53.0904 25.9268L53.0212 26.1205C52.963 26.1912 52.8989 26.2501 52.8288 26.2974C52.7587 26.3329 52.6886 26.3685 52.6184 26.404C52.5951 26.4276 52.5601 26.4512 52.5134 26.4749C52.4783 26.4868 52.449 26.4987 52.4257 26.5105L52.374 26.7042L52.1633 26.7405C52.0345 26.7647 51.9408 26.7828 51.8823 26.7948C51.8355 26.8068 51.7769 26.813 51.7066 26.8133L51.5308 26.7967C51.4013 26.692 51.3012 26.6105 51.2306 26.5523C51.1599 26.4824 51.0775 26.4184 50.9834 26.3603C50.8772 26.2202 50.818 26.1151 50.8059 26.0449C50.7938 25.9746 50.7817 25.9102 50.7697 25.8517C50.7459 25.7815 50.7338 25.723 50.7336 25.6761C50.7216 25.6293 50.7038 25.5942 50.6802 25.5709L50.4506 25.3613L50.643 25.202L50.659 24.9031C50.8901 24.3041 51.133 23.7286 51.3878 23.1764C51.6542 22.6241 51.9265 22.0601 52.2046 21.4843C52.2973 21.2963 52.3842 21.1083 52.4652 20.9204C52.5579 20.7324 52.6506 20.5444 52.7433 20.3564C52.7314 20.3213 52.7253 20.2803 52.7251 20.2334C52.7248 20.1865 52.7362 20.1337 52.7594 20.075C52.8872 19.8751 52.9917 19.6987 53.0729 19.5459C53.154 19.3814 53.2351 19.2169 53.3162 19.0524C53.4089 18.8527 53.5016 18.6588 53.5943 18.4708C53.6987 18.2827 53.8266 18.0886 53.9778 17.8886L54.2584 17.764C54.2935 17.7521 54.3344 17.7401 54.3812 17.7282C54.428 17.7045 54.4806 17.6925 54.5392 17.6921L54.8031 17.7258C55.1304 17.5717 55.4163 17.3592 55.6609 17.0883C55.9055 16.8057 56.1556 16.4703 56.4112 16.0822L56.5857 15.8351L56.815 15.9745C56.8737 16.0093 56.956 16.044 57.0616 16.0786C57.1672 16.1015 57.2787 16.1301 57.3961 16.1646C57.6073 16.2104 57.8068 16.262 57.9946 16.3196C58.1824 16.3771 58.3353 16.4642 58.4531 16.5807C58.5244 16.7678 58.5662 16.9082 58.5785 17.0019C58.5907 17.0956 58.6088 17.1892 58.6327 17.2828C58.669 17.4819 58.6994 17.6809 58.7239 17.88C58.7602 18.079 58.7848 18.3016 58.7979 18.5476C58.8576 18.7465 58.9056 18.9454 58.9418 19.1445C58.9897 19.3317 59.0318 19.5248 59.0681 19.7238C59.1282 20.0048 59.1883 20.2798 59.2484 20.549C59.3084 20.8065 59.3859 21.0522 59.481 21.286C59.5747 21.2855 59.6334 21.2911 59.6569 21.3027C59.7153 21.2789 59.7738 21.261 59.8323 21.249C59.9026 21.2369 59.9787 21.2247 60.0607 21.2125L60.2539 21.1939L60.3252 21.3693C60.3372 21.4278 60.3962 21.4861 60.5019 21.5441C60.6544 21.555 60.7659 21.5895 60.8365 21.6477C60.9071 21.6942 60.9718 21.7466 61.0307 21.8049C61.0779 21.8515 61.1249 21.8864 61.1719 21.9096L61.4362 22.0136L61.297 22.278C61.181 22.4896 61.0122 22.6956 60.7907 22.896C60.5807 23.0847 60.3414 23.2442 60.0726 23.3746C60.0847 23.4449 60.0909 23.5151 60.0913 23.5855C60.1034 23.644 60.1213 23.7083 60.1451 23.7785C60.1814 23.9775 60.2118 24.1825 60.2364 24.3933C60.261 24.6041 60.2622 24.8209 60.24 25.0436L60.2052 25.1141ZM55.1085 22.1012C55.4599 22.0758 55.7762 22.0506 56.0573 22.0256C56.35 21.9889 56.672 21.9343 57.0232 21.8621C56.9392 21.511 56.8493 21.1482 56.7535 20.7737C56.6576 20.3875 56.5559 20.0072 56.4484 19.6328L56.3439 19.8092C56.1109 20.0566 55.8839 20.3332 55.6629 20.6391C55.4536 20.945 55.2736 21.2331 55.1227 21.5034C55.053 21.6093 54.9833 21.7151 54.9135 21.821C54.8438 21.9268 54.7799 22.0327 54.7219 22.1385C54.7922 22.1263 54.8566 22.1201 54.9152 22.1198C54.9855 22.1194 55.0499 22.1132 55.1085 22.1012ZM71.9694 25.8931C71.4071 25.9196 70.909 25.9107 70.4751 25.8662C70.053 25.8216 69.6364 25.7126 69.2253 25.5391C69.2018 25.5275 69.1782 25.4983 69.1545 25.4516C69.1308 25.4048 69.1071 25.3698 69.0836 25.3465C69.0131 25.3117 68.9251 25.3005 68.8197 25.3128C68.726 25.3133 68.6439 25.302 68.5734 25.279C68.4794 25.2326 68.3325 25.1455 68.1325 25.0177C67.9325 24.8782 67.7502 24.7503 67.5855 24.634C67.3736 24.4711 67.1735 24.3082 66.9851 24.1451C66.7967 23.9821 66.6317 23.8072 66.49 23.6205C66.4546 23.5738 66.4076 23.5507 66.349 23.551C66.2904 23.5396 66.2375 23.5223 66.1905 23.4991C65.8519 23.7119 65.5662 23.9772 65.3336 24.2949C65.101 24.6126 64.8801 24.936 64.6709 25.2653C64.4618 25.5946 64.2409 25.9064 64.0081 26.2006C63.7754 26.4949 63.4778 26.7192 63.1153 26.8735C63.0099 26.8741 62.916 26.8571 62.8338 26.8223C62.7516 26.7876 62.6751 26.7412 62.6045 26.683C62.5339 26.6365 62.4634 26.59 62.3928 26.5435C62.3222 26.497 62.2459 26.4623 62.1637 26.4393C62.1629 26.2987 62.1329 26.1699 62.0737 26.0531C62.0262 25.9362 61.9728 25.8251 61.9136 25.72C61.8662 25.6148 61.8305 25.5154 61.8065 25.4217C61.7825 25.3164 61.8054 25.2167 61.8752 25.1225C61.8045 25.0526 61.6986 24.977 61.5575 24.8958C61.6275 24.8251 61.6564 24.7604 61.6444 24.7019C61.644 24.6433 61.632 24.5848 61.6082 24.5263C61.5845 24.4679 61.5607 24.4035 61.5369 24.3334C61.5248 24.2631 61.5419 24.1927 61.5884 24.1221C61.647 24.1218 61.7173 24.1097 61.7992 24.0858C61.7283 23.9925 61.6929 23.9399 61.6928 23.9282C61.7044 23.9047 61.6925 23.8755 61.6572 23.8405C61.6334 23.7703 61.6449 23.7292 61.6917 23.7173C61.7384 23.6936 61.7852 23.6699 61.8319 23.6462C61.8756 23.0717 61.9723 22.538 62.1219 22.0449C62.2715 21.5519 62.4389 21.0764 62.6238 20.6183C62.8088 20.1603 62.9879 19.6964 63.1611 19.2267C63.346 18.7569 63.4956 18.2522 63.6098 17.7125C63.738 17.5829 63.8368 17.43 63.9061 17.2538C63.9872 17.0776 64.0682 16.9013 64.1493 16.7251C64.2421 16.5488 64.3407 16.3783 64.4453 16.2137C64.5615 16.0373 64.7189 15.8958 64.9176 15.7892C65.0817 15.8 65.2284 15.8461 65.3578 15.9274C65.4871 15.997 65.6454 16.0254 65.8329 16.0127C65.8684 16.0711 65.898 16.1295 65.9217 16.188C65.9572 16.2464 65.9986 16.3048 66.0458 16.3631L66.3091 16.3089C66.4386 16.4137 66.5507 16.5478 66.6453 16.7114C66.7516 16.8631 66.8229 17.0268 66.859 17.2024C66.8951 17.378 66.8902 17.5479 66.8442 17.7122C66.7982 17.8648 66.6875 17.9885 66.5123 18.0832C66.5243 18.1417 66.5246 18.1886 66.513 18.2238C66.5132 18.2473 66.5074 18.2707 66.4959 18.2942C66.4843 18.3177 66.4785 18.3412 66.4787 18.3646C66.4788 18.3881 66.4966 18.4231 66.532 18.4698C66.2986 18.6469 66.1241 18.8939 66.0087 19.211C65.8933 19.528 65.8304 19.8096 65.82 20.0558C65.9598 19.9144 66.1114 19.7788 66.2748 19.649C66.4498 19.5074 66.6248 19.3717 66.7999 19.2418C66.9867 19.1119 67.1618 18.9878 67.3252 18.8697C67.5003 18.7516 67.6579 18.6335 67.7979 18.5156C68.1826 18.1619 68.5502 17.8786 68.9006 17.6657C69.2627 17.4411 69.6422 17.1929 70.0391 16.9212C70.1327 16.8972 70.2031 16.8968 70.2501 16.92C70.3087 16.9314 70.3674 16.9487 70.4261 16.9718C70.4257 16.9015 70.4021 16.8606 70.3551 16.8491C70.3199 16.8376 70.3079 16.7908 70.3192 16.7087C70.4947 16.6608 70.6468 16.6073 70.7754 16.548C70.9039 16.4769 71.0441 16.4117 71.1962 16.3523C71.3022 16.4572 71.4024 16.568 71.4968 16.6846C71.5912 16.7896 71.7204 16.8533 71.8846 16.8758C71.9439 17.0044 72.0148 17.1036 72.0972 17.1735C72.1795 17.2316 72.2619 17.2898 72.3442 17.3479C72.4266 17.4061 72.4973 17.476 72.5563 17.5577C72.6271 17.6393 72.6688 17.768 72.6815 17.9437C72.6351 18.026 72.5828 18.1142 72.5248 18.2083C72.4784 18.3023 72.4321 18.4139 72.386 18.543C72.1528 18.7553 71.9136 18.9441 71.6684 19.1095C71.4349 19.2748 71.1956 19.4344 70.9503 19.5881C70.7051 19.7418 70.454 19.8955 70.197 20.0493C69.94 20.203 69.6773 20.3861 69.409 20.5985C69.3508 20.6809 69.2751 20.7575 69.1817 20.8283C69.1 20.8873 69.0125 20.9523 68.9191 21.0231C68.8257 21.0822 68.7382 21.1472 68.6565 21.2179C68.5749 21.2887 68.5109 21.3711 68.4645 21.4651C68.4294 21.477 68.3943 21.483 68.3592 21.4832C68.324 21.4834 68.2889 21.4895 68.2538 21.5014C68.2191 21.5836 68.1608 21.6484 68.0791 21.6957C68.009 21.743 67.9625 21.8077 67.9395 21.8898C68.1174 22.2639 68.3474 22.5497 68.6298 22.7474C68.9121 22.9451 69.2293 23.0898 69.5814 23.1816C69.9334 23.2617 70.3145 23.3065 70.7248 23.3159C71.1349 23.3137 71.5626 23.3113 72.0079 23.3089C72.0547 23.2969 72.0722 23.2733 72.0603 23.2383C72.06 23.1914 72.0892 23.1736 72.1479 23.185C72.4296 23.2772 72.6472 23.4108 72.8005 23.5857C72.9537 23.749 73.1363 23.912 73.3481 24.0749C73.3271 24.5204 73.1944 24.8902 72.9499 25.1846C72.7055 25.4789 72.3786 25.7151 71.9694 25.8931ZM82.7464 16.5699C82.7585 16.6519 82.7589 16.7163 82.7474 16.7633C82.7476 16.7984 82.742 16.8336 82.7304 16.8688C82.7306 16.904 82.7308 16.945 82.7311 16.9919C82.7313 17.027 82.7433 17.0856 82.7672 17.1675C82.5233 17.5672 82.2377 17.8442 81.9105 17.9984C81.5948 18.1407 81.2497 18.2481 80.8751 18.3205C80.5004 18.3811 80.1141 18.4477 79.716 18.5202C79.3297 18.5927 78.9438 18.7471 78.5584 18.9836C78.4058 18.9259 78.2651 18.9267 78.1366 18.986C78.0197 19.0452 77.844 19.0637 77.6095 19.0416C77.5396 19.1123 77.452 19.1655 77.3467 19.2013C77.2414 19.2253 77.1361 19.2552 77.0308 19.2909C77.0783 19.3961 77.0964 19.5073 77.0854 19.6246C77.086 19.73 77.104 19.8178 77.1396 19.888C77.5499 19.9209 78.001 19.9125 78.493 19.8629C78.9966 19.8133 79.4886 19.7813 79.969 19.7669C79.9811 19.8254 79.9754 19.8665 79.9521 19.89C79.9287 19.9019 79.923 19.9312 79.935 19.978C80.0174 20.0362 80.0998 20.1119 80.1824 20.2052C80.2648 20.2868 80.3473 20.3683 80.4298 20.4499C80.5123 20.5315 80.5947 20.6014 80.6771 20.6595C80.7711 20.7059 80.8766 20.7228 80.9938 20.7105C81.0411 20.804 81.071 20.9093 81.0834 21.0264C81.1074 21.1317 81.0963 21.2431 81.0501 21.3606C80.8633 21.4905 80.6765 21.6263 80.4898 21.768C80.303 21.8979 80.1045 22.0162 79.8941 22.1228C79.6955 22.2294 79.4792 22.3185 79.2452 22.3901C79.0228 22.4499 78.771 22.4747 78.4897 22.4645C78.4311 22.4649 78.3842 22.4651 78.3491 22.4653C78.3257 22.4654 78.2904 22.4481 78.2433 22.4132C78.1499 22.4723 78.0152 22.4906 77.8393 22.4681C77.6751 22.4456 77.5463 22.4639 77.4529 22.523C77.3237 22.4651 77.1654 22.4425 76.9779 22.4553C76.8021 22.4563 76.6438 22.4337 76.5029 22.3876C76.3168 22.6347 76.1483 22.8993 75.9975 23.1814C75.8467 23.4635 75.7136 23.7631 75.5982 24.0801C75.9969 24.1365 76.3252 24.1581 76.5829 24.145C76.8524 24.1318 77.1042 24.1128 77.3385 24.0881C77.5727 24.0516 77.8127 24.021 78.0587 23.9962C78.3046 23.9597 78.6151 23.9463 78.9901 23.9559C79.2238 23.8258 79.4987 23.7422 79.8149 23.7053C80.1428 23.6566 80.4412 23.5847 80.7102 23.4894C80.8042 23.5241 80.8866 23.5881 80.9574 23.6814C81.0282 23.7631 81.0931 23.8447 81.1521 23.9265C81.2228 23.9964 81.2935 24.0604 81.3641 24.1187C81.4347 24.1769 81.5228 24.1998 81.6282 24.1875C81.6753 24.2341 81.7049 24.2926 81.717 24.3628C81.7408 24.4213 81.7587 24.4798 81.7707 24.5383C81.7828 24.5968 81.8006 24.6495 81.8243 24.6962C81.8597 24.7312 81.9125 24.7426 81.9827 24.7305C81.8091 25.1182 81.6056 25.4181 81.3724 25.6303C81.1509 25.8308 80.8939 25.9846 80.6015 26.0916C80.3091 26.1987 79.9815 26.2826 79.6185 26.3431C79.2673 26.4037 78.8751 26.4761 78.442 26.5606C78.3366 26.5846 78.2487 26.5792 78.1782 26.5444C78.1078 26.5214 78.0257 26.5101 77.9319 26.5106C77.6627 26.5707 77.3407 26.6252 76.966 26.6742C76.5913 26.7231 76.2105 26.7428 75.8237 26.7332C75.437 26.7236 75.0675 26.6729 74.7155 26.5811C74.3635 26.501 74.0755 26.3502 73.8516 26.1288C73.7574 26.0473 73.6925 25.9539 73.6567 25.8486C73.6326 25.7316 73.556 25.6441 73.4268 25.5862C73.4142 25.434 73.3898 25.2642 73.3536 25.0769C73.3174 24.8896 73.2812 24.6964 73.245 24.4974C73.2087 24.2866 73.1782 24.0817 73.1537 23.8826C73.1409 23.6835 73.1516 23.5018 73.1858 23.3375C73.22 23.1616 73.2895 23.003 73.3942 22.8618C73.5106 22.7205 73.5508 22.5679 73.5147 22.4041C73.5732 22.392 73.6082 22.3625 73.6197 22.3156C73.6311 22.2569 73.6778 22.2332 73.7599 22.2445C73.8291 22.0332 73.9041 21.8335 73.9851 21.6456C74.0661 21.4576 74.1472 21.2756 74.2282 21.0993C74.321 20.923 74.4079 20.7468 74.489 20.5705C74.5817 20.3825 74.6685 20.177 74.7493 19.9539C74.5844 19.8024 74.4604 19.639 74.3774 19.4637C74.3061 19.2766 74.2523 19.0953 74.2162 18.9197C74.18 18.7324 74.1497 18.545 74.1252 18.3577C74.1007 18.1586 74.0586 17.9596 73.9989 17.7607C74.1151 17.5843 74.2549 17.4429 74.4184 17.3365C74.5936 17.2183 74.7805 17.1236 74.9794 17.0522C75.1782 16.9807 75.3947 16.921 75.6288 16.8728C75.8629 16.8246 76.1087 16.7705 76.3662 16.7105C76.8341 16.5556 77.2494 16.4361 77.6123 16.3521C77.9868 16.268 78.3497 16.2015 78.701 16.1527C79.064 16.0921 79.4387 16.0373 79.8251 15.9883C80.2116 15.9393 80.6507 15.8666 81.1423 15.7701C81.2484 15.875 81.3483 15.9272 81.442 15.9267C81.4883 15.821 81.5409 15.7914 81.5997 15.8379C81.6702 15.8727 81.6993 15.8374 81.687 15.732C81.8053 15.9305 81.9527 16.0997 82.1293 16.2393C82.3175 16.3672 82.5232 16.4774 82.7464 16.5699ZM82.6167 18.557C82.6974 18.3104 82.8251 18.0988 82.9999 17.922C83.1864 17.7452 83.3848 17.5977 83.5951 17.4793C83.8171 17.3492 84.045 17.2424 84.2789 17.1591C84.5128 17.0758 84.7351 17.0043 84.9457 16.9445C85.4134 16.7427 85.9104 16.5525 86.4367 16.3738C86.9748 16.1833 87.5188 16.0163 88.0688 15.8726C88.6305 15.7289 89.2042 15.6378 89.7899 15.5994C90.3756 15.5493 90.9912 15.6163 91.6368 15.8002C91.6726 15.9172 91.7259 16.0282 91.7968 16.1333C91.8677 16.2384 91.9386 16.3435 92.0095 16.4486C92.0921 16.5536 92.163 16.6587 92.2222 16.7638C92.2813 16.8572 92.317 16.9566 92.3293 17.062C92.4471 17.1669 92.5415 17.2835 92.6125 17.412C92.6834 17.5288 92.696 17.687 92.6502 17.8865C92.5336 17.9808 92.4169 18.0694 92.3001 18.1521C92.1951 18.223 92.0782 18.288 91.9497 18.3474C91.5155 18.2443 91.0758 18.2115 90.6307 18.2491C90.1856 18.2868 89.7873 18.3182 89.4359 18.3436C89.3299 18.2387 89.2007 18.1867 89.0483 18.1876C88.9077 18.1883 88.7555 18.2126 88.5917 18.2604C88.4396 18.3081 88.2817 18.3558 88.1179 18.4036C87.9658 18.4513 87.8194 18.4639 87.6786 18.4412C87.562 18.5356 87.4158 18.6008 87.2402 18.637C87.0763 18.6613 86.8948 18.6858 86.6957 18.7103C86.6843 18.7689 86.6963 18.8099 86.7315 18.8331C86.7668 18.8447 86.7728 18.8798 86.7497 18.9385C86.8205 19.0202 86.9087 19.0783 87.0143 19.1128C87.1317 19.1473 87.2491 19.1819 87.3665 19.2164C87.4956 19.2508 87.6072 19.2971 87.7012 19.3551C87.7952 19.4015 87.8601 19.4832 87.8959 19.6002C88.0717 19.5992 88.2243 19.6394 88.3536 19.7207C88.483 19.802 88.589 19.901 88.6717 20.0178C88.7544 20.1345 88.8137 20.2631 88.8496 20.4035C88.8972 20.5322 88.9213 20.6492 88.9219 20.7547C88.9575 20.8482 88.9988 20.889 89.0456 20.8771C89.0924 20.8651 89.1452 20.8882 89.2042 20.9465C89.2402 21.0986 89.3289 21.2564 89.4704 21.4197C89.6119 21.5712 89.7242 21.7405 89.8072 21.9276C89.8323 22.2204 89.8513 22.484 89.8643 22.7183C89.8773 22.9409 89.8375 23.1696 89.7451 23.4045C89.5717 23.8391 89.3277 24.2271 89.0132 24.5687C88.7104 24.9102 88.3605 25.2168 87.9635 25.4886C87.5783 25.7485 87.1635 25.9734 86.7192 26.1634C86.2749 26.3533 85.8422 26.5139 85.4211 26.6452C85.3741 26.6337 85.3272 26.634 85.2804 26.6459C85.2336 26.6579 85.2217 26.6287 85.2448 26.5582C85.1515 26.6408 85.0463 26.6941 84.9293 26.7182C84.8239 26.7422 84.7068 26.7487 84.5778 26.7377C84.4489 26.7384 84.3141 26.7333 84.1734 26.7224C84.0444 26.7113 83.9214 26.7179 83.8044 26.742C83.7219 26.6604 83.6453 26.5788 83.5745 26.4971C83.5155 26.4271 83.4681 26.3337 83.4323 26.2167C83.3737 26.217 83.3443 26.1879 83.344 26.1293C83.3554 26.0706 83.3376 26.0414 83.2907 26.0417C83.3604 25.9241 83.3893 25.8595 83.3776 25.8478C83.3774 25.8244 83.3598 25.8069 83.3245 25.7954C83.301 25.7838 83.2775 25.7722 83.254 25.7606C83.2305 25.7373 83.2244 25.708 83.236 25.6728C83.2823 25.5788 83.2993 25.4732 83.287 25.3561C83.2745 25.2273 83.2621 25.0984 83.2497 24.9696C83.2372 24.8408 83.2424 24.7177 83.2652 24.6004C83.2997 24.483 83.3871 24.3888 83.5273 24.3177C83.926 24.3624 84.301 24.3486 84.6521 24.2763C85.015 24.1923 85.3542 24.0791 85.6698 23.9367C85.9854 23.7944 86.2834 23.6404 86.5638 23.4748C86.8558 23.3091 87.1421 23.161 87.4227 23.0306C87.4572 22.9249 87.5036 22.8368 87.5618 22.7661C87.6317 22.6954 87.7017 22.6306 87.7717 22.5716C87.8417 22.5126 87.9058 22.4478 87.964 22.3772C88.0222 22.3065 88.0627 22.2184 88.0856 22.1128C88.0968 22.0307 88.0731 21.984 88.0145 21.9726C87.9675 21.9494 87.9438 21.9027 87.9434 21.8324L87.7498 21.7807C87.5264 21.653 87.2739 21.5489 86.9922 21.4685C86.7104 21.3763 86.4696 21.278 86.2698 21.1736C86.1413 21.2446 86.0184 21.2629 85.901 21.2284C85.7953 21.1938 85.6545 21.1594 85.4785 21.1252C85.08 21.104 84.693 21.0651 84.3177 21.0086C83.9541 20.952 83.602 20.8485 83.2613 20.698C83.2375 20.6395 83.208 20.587 83.1725 20.5403C83.1371 20.4936 83.0726 20.4822 82.979 20.5062C82.9082 20.4128 82.8374 20.3253 82.7666 20.2437C82.6958 20.1503 82.6308 20.0511 82.5716 19.9459C82.5943 19.8052 82.6112 19.6879 82.6224 19.5941C82.6335 19.4885 82.5978 19.3891 82.5153 19.2958C82.5613 19.1432 82.5958 19.02 82.6187 18.9261C82.6416 18.8322 82.641 18.7092 82.6167 18.557ZM102.03 26.1669C101.702 26.2742 101.346 26.3816 100.959 26.4892C100.573 26.5968 100.187 26.6517 99.8002 26.6538C99.2143 26.6571 98.7506 26.5131 98.4092 26.222C98.3498 26.0935 98.2966 26.0059 98.2495 25.9592C98.2141 25.9126 98.1787 25.8659 98.1433 25.8192C98.1195 25.7607 98.1015 25.6847 98.0893 25.591C97.9477 25.4277 97.8354 25.2408 97.7522 25.0303C97.6689 24.8081 97.6091 24.5858 97.5727 24.3633C97.548 24.1291 97.5408 23.8948 97.5513 23.6603C97.5734 23.4258 97.6132 23.2029 97.6706 22.9917C97.6938 22.9447 97.7053 22.8977 97.705 22.8509C97.7165 22.8039 97.7279 22.7511 97.7393 22.6925C97.7851 22.5047 97.831 22.3228 97.8769 22.1468C97.9345 21.9707 98.0099 21.8179 98.1029 21.6885C98.0555 21.5833 98.0548 21.4661 98.101 21.3369C98.1471 21.2078 98.1992 21.0903 98.2572 20.9845C98.4189 20.5383 98.5515 20.1626 98.6553 19.8573C98.7708 19.5403 98.8863 19.2291 99.0018 18.9237C99.1981 18.3953 99.3827 17.8728 99.5556 17.3562C99.7286 16.8396 99.8837 16.2821 100.021 15.6837C100.114 15.6246 100.185 15.5832 100.231 15.5595C100.301 15.5357 100.36 15.5178 100.407 15.5058C100.618 15.6101 100.865 15.7142 101.147 15.8181C101.429 15.9103 101.663 15.9559 101.851 15.9549C101.945 16.013 102.004 16.0595 102.027 16.0945C102.051 16.1178 102.074 16.1411 102.098 16.1645C102.228 16.3161 102.34 16.4737 102.435 16.6372C102.529 16.789 102.56 16.994 102.526 17.252C102.456 17.3578 102.404 17.4108 102.368 17.411C102.311 17.6457 102.248 17.8453 102.178 18.0097C102.121 18.1741 102.057 18.3385 101.988 18.503C101.907 18.6792 101.832 18.8554 101.762 19.0316C101.693 19.2077 101.635 19.4249 101.59 19.6829C101.543 19.7418 101.509 19.7947 101.485 19.8417C101.474 19.8887 101.457 19.9415 101.434 20.0002C101.41 20.0589 101.381 20.1235 101.347 20.194C101.324 20.2528 101.283 20.3057 101.225 20.3529C101.191 20.6578 101.134 20.9042 101.053 21.0922C100.984 21.28 100.908 21.468 100.827 21.6559C100.689 21.9965 100.562 22.3371 100.446 22.6776C100.343 23.018 100.28 23.405 100.259 23.8388C100.318 23.815 100.37 23.803 100.417 23.8027C100.476 23.8024 100.529 23.8021 100.576 23.8019C100.681 23.8013 100.804 23.8182 100.945 23.8526C101.295 23.6631 101.676 23.5497 102.086 23.5123C102.507 23.4748 102.923 23.4491 103.333 23.4351C103.497 23.4342 103.661 23.4333 103.826 23.4324C103.99 23.4315 104.142 23.4189 104.282 23.3947C104.388 23.4527 104.453 23.4875 104.476 23.4991C104.511 23.4989 104.558 23.4987 104.617 23.4983C104.699 23.4979 104.769 23.5034 104.828 23.5148C104.969 23.6429 105.105 23.7359 105.234 23.7938C105.363 23.8517 105.498 23.9036 105.639 23.9497C105.768 23.9959 105.891 24.048 106.009 24.1059C106.138 24.1521 106.262 24.2217 106.379 24.3148L106.506 25.07C106.589 25.175 106.625 25.2451 106.613 25.2803C106.614 25.3741 106.591 25.4445 106.544 25.4917L106.58 25.6848C106.405 25.7209 106.282 25.7626 106.212 25.8099C106.153 25.8571 106.095 25.9102 106.037 25.9691C105.943 25.9813 105.873 25.9876 105.826 25.9878C105.791 25.988 105.756 25.9882 105.72 25.9884C105.556 25.9893 105.357 26.0197 105.123 26.0796C104.806 25.9759 104.478 25.9249 104.138 25.9268C104.009 25.9275 103.874 25.9341 103.734 25.9466C103.593 25.9591 103.453 25.9716 103.312 25.9841C103.172 26.0083 103.025 26.0267 102.873 26.0392C102.732 26.0517 102.586 26.0584 102.434 26.0592L102.03 26.1669ZM116.742 16.3826C116.754 16.4646 116.754 16.529 116.743 16.576C116.743 16.6111 116.738 16.6463 116.726 16.6815C116.726 16.7167 116.726 16.7577 116.727 16.8046C116.727 16.8397 116.739 16.8983 116.763 16.9802C116.519 17.3799 116.233 17.6569 115.906 17.8111C115.59 17.9534 115.245 18.0608 114.871 18.1332C114.496 18.1938 114.11 18.2604 113.712 18.3329C113.325 18.4054 112.939 18.5598 112.554 18.7963C112.401 18.7386 112.261 18.7394 112.132 18.7987C112.015 18.8579 111.84 18.8764 111.605 18.8543C111.535 18.925 111.448 18.9782 111.342 19.014C111.237 19.038 111.132 19.0679 111.026 19.1036C111.074 19.2088 111.092 19.32 111.081 19.4373C111.082 19.5427 111.1 19.6305 111.135 19.7007C111.545 19.7335 111.997 19.7252 112.489 19.6756C112.992 19.626 113.484 19.594 113.965 19.5796C113.977 19.6381 113.971 19.6792 113.948 19.7027C113.924 19.7146 113.919 19.7439 113.931 19.7907C114.013 19.8489 114.095 19.9246 114.178 20.0179C114.26 20.0995 114.343 20.181 114.425 20.2626C114.508 20.3442 114.59 20.414 114.673 20.4722C114.767 20.5185 114.872 20.5355 114.989 20.5232C115.037 20.6167 115.067 20.722 115.079 20.8391C115.103 20.9444 115.092 21.0558 115.046 21.1733C114.859 21.3032 114.672 21.439 114.485 21.5807C114.299 21.7106 114.1 21.8289 113.89 21.9355C113.691 22.0421 113.475 22.1312 113.241 22.2028C113.018 22.2626 112.767 22.2874 112.485 22.2772C112.427 22.2776 112.38 22.2778 112.345 22.278C112.321 22.2781 112.286 22.2608 112.239 22.2259C112.145 22.285 112.011 22.3033 111.835 22.2808C111.671 22.2583 111.542 22.2766 111.448 22.3357C111.319 22.2778 111.161 22.2552 110.973 22.268C110.798 22.269 110.639 22.2464 110.499 22.2003C110.312 22.4474 110.144 22.712 109.993 22.9941C109.842 23.2762 109.709 23.5758 109.594 23.8928C109.993 23.9492 110.321 23.9708 110.578 23.9577C110.848 23.9445 111.1 23.9255 111.334 23.9008C111.568 23.8643 111.808 23.8337 112.054 23.8089C112.3 23.7724 112.611 23.759 112.986 23.7686C113.219 23.6384 113.494 23.5549 113.81 23.518C114.138 23.4693 114.437 23.3974 114.706 23.3021C114.8 23.3368 114.882 23.4008 114.953 23.4941C115.024 23.5758 115.089 23.6574 115.148 23.7392C115.218 23.8091 115.289 23.8731 115.36 23.9313C115.43 23.9896 115.518 24.0125 115.624 24.0002C115.671 24.0468 115.7 24.1053 115.713 24.1755C115.736 24.234 115.754 24.2925 115.766 24.351C115.778 24.4095 115.796 24.4622 115.82 24.5089C115.855 24.5439 115.908 24.5553 115.978 24.5432C115.805 24.9309 115.601 25.2308 115.368 25.443C115.146 25.6435 114.889 25.7972 114.597 25.9043C114.305 26.0114 113.977 26.0952 113.614 26.1558C113.263 26.2164 112.871 26.2888 112.438 26.3733C112.332 26.3973 112.244 26.3919 112.174 26.3571C112.103 26.3341 112.021 26.3228 111.927 26.3233C111.658 26.3834 111.336 26.4379 110.962 26.4869C110.587 26.5358 110.206 26.5555 109.819 26.5459C109.433 26.5363 109.063 26.4856 108.711 26.3938C108.359 26.3137 108.071 26.1629 107.847 25.9415C107.753 25.86 107.688 25.7666 107.652 25.6613C107.628 25.5443 107.552 25.4568 107.422 25.3989C107.41 25.2467 107.385 25.0769 107.349 24.8896C107.313 24.7023 107.277 24.5091 107.241 24.3101C107.204 24.0993 107.174 23.8944 107.149 23.6953C107.136 23.4962 107.147 23.3145 107.181 23.1502C107.216 22.9743 107.285 22.8157 107.39 22.6745C107.506 22.5332 107.546 22.3806 107.51 22.2168C107.569 22.2047 107.604 22.1752 107.615 22.1283C107.627 22.0696 107.673 22.0459 107.755 22.0572C107.825 21.8459 107.9 21.6462 107.981 21.4583C108.062 21.2703 108.143 21.0883 108.224 20.912C108.317 20.7357 108.403 20.5595 108.485 20.3832C108.577 20.1952 108.664 19.9897 108.745 19.7666C108.58 19.6151 108.456 19.4517 108.373 19.2764C108.302 19.0893 108.248 18.908 108.212 18.7324C108.176 18.5451 108.145 18.3577 108.121 18.1704C108.096 17.9713 108.054 17.7723 107.994 17.5734C108.111 17.397 108.251 17.2556 108.414 17.1492C108.589 17.031 108.776 16.9363 108.975 16.8649C109.174 16.7934 109.39 16.7337 109.624 16.6855C109.858 16.6373 110.104 16.5832 110.362 16.5232C110.83 16.3683 111.245 16.2488 111.608 16.1648C111.982 16.0807 112.345 16.0142 112.697 15.9654C113.06 15.9048 113.434 15.85 113.821 15.801C114.207 15.752 114.646 15.6793 115.138 15.5828C115.244 15.6877 115.344 15.7399 115.438 15.7394C115.484 15.6337 115.536 15.6041 115.595 15.6506C115.666 15.6854 115.695 15.6501 115.683 15.5447C115.801 15.7432 115.948 15.9124 116.125 16.052C116.313 16.1799 116.519 16.2901 116.742 16.3826ZM116.612 18.3697C116.693 18.1231 116.821 17.9115 116.995 17.7347C117.182 17.5579 117.38 17.4104 117.591 17.292C117.813 17.1619 118.041 17.0551 118.274 16.9718C118.508 16.8885 118.731 16.817 118.941 16.7572C119.409 16.5554 119.906 16.3652 120.432 16.1865C120.97 15.996 121.514 15.829 122.064 15.6853C122.626 15.5416 123.2 15.4505 123.786 15.4121C124.371 15.362 124.987 15.429 125.632 15.6129C125.668 15.7299 125.722 15.8409 125.792 15.946C125.863 16.0511 125.934 16.1562 126.005 16.2613C126.088 16.3663 126.159 16.4713 126.218 16.5765C126.277 16.6699 126.313 16.7693 126.325 16.8747C126.443 16.9796 126.537 17.0962 126.608 17.2247C126.679 17.3415 126.692 17.4997 126.646 17.6992C126.529 17.7935 126.412 17.8821 126.296 17.9648C126.191 18.0356 126.074 18.1007 125.945 18.16C125.511 18.057 125.071 18.0242 124.626 18.0618C124.181 18.0995 123.783 18.1309 123.431 18.1563C123.325 18.0514 123.196 17.9994 123.044 18.0002C122.903 18.001 122.751 18.0253 122.587 18.0731C122.435 18.1208 122.277 18.1685 122.113 18.2163C121.961 18.264 121.815 18.2766 121.674 18.2539C121.558 18.3483 121.411 18.4135 121.236 18.4497C121.072 18.474 120.89 18.4985 120.691 18.523C120.68 18.5816 120.692 18.6226 120.727 18.6458C120.762 18.6574 120.768 18.6925 120.745 18.7512C120.816 18.8328 120.904 18.891 121.01 18.9255C121.127 18.96 121.245 18.9946 121.362 19.0291C121.491 19.0635 121.603 19.1098 121.697 19.1678C121.791 19.2142 121.856 19.2959 121.892 19.4129C122.067 19.4119 122.22 19.4521 122.349 19.5334C122.479 19.6147 122.585 19.7137 122.667 19.8305C122.75 19.9472 122.809 20.0758 122.845 20.2162C122.893 20.3449 122.917 20.4619 122.917 20.5674C122.953 20.6609 122.994 20.7017 123.041 20.6898C123.088 20.6778 123.141 20.7009 123.2 20.7592C123.236 20.9113 123.324 21.0691 123.466 21.2323C123.607 21.3839 123.72 21.5532 123.803 21.7403C123.828 22.0331 123.847 22.2967 123.86 22.531C123.873 22.7536 123.833 22.9823 123.741 23.2172C123.567 23.6517 123.323 24.0398 123.009 24.3814C122.706 24.7229 122.356 25.0295 121.959 25.3013C121.574 25.5612 121.159 25.7861 120.715 25.9761C120.27 26.166 119.838 26.3266 119.417 26.4579C119.37 26.4464 119.323 26.4467 119.276 26.4586C119.229 26.4706 119.217 26.4414 119.24 26.3709C119.147 26.4535 119.042 26.5068 118.925 26.5309C118.819 26.5549 118.702 26.5614 118.573 26.5504C118.444 26.5511 118.31 26.546 118.169 26.5351C118.04 26.524 117.917 26.5306 117.8 26.5547C117.717 26.4731 117.641 26.3915 117.57 26.3098C117.511 26.2398 117.464 26.1464 117.428 26.0294C117.369 26.0297 117.34 26.0005 117.34 25.942C117.351 25.8833 117.333 25.8541 117.286 25.8544C117.356 25.7368 117.385 25.6722 117.373 25.6605C117.373 25.6371 117.355 25.6196 117.32 25.6081C117.297 25.5965 117.273 25.5849 117.25 25.5733C117.226 25.55 117.22 25.5207 117.232 25.4855C117.278 25.3915 117.295 25.2859 117.283 25.1688C117.27 25.04 117.258 24.9111 117.245 24.7823C117.233 24.6535 117.238 24.5304 117.261 24.4131C117.295 24.2957 117.383 24.2015 117.523 24.1304C117.922 24.175 118.297 24.1613 118.648 24.089C119.011 24.005 119.35 23.8918 119.665 23.7494C119.981 23.6071 120.279 23.4531 120.559 23.2875C120.851 23.1218 121.138 22.9737 121.418 22.8433C121.453 22.7376 121.499 22.6495 121.557 22.5788C121.627 22.5081 121.697 22.4433 121.767 22.3843C121.837 22.3253 121.901 22.2605 121.96 22.1899C122.018 22.1192 122.058 22.0311 122.081 21.9255C122.092 21.8434 122.069 21.7967 122.01 21.7853C121.963 21.7621 121.939 21.7154 121.939 21.6451L121.745 21.5934C121.522 21.4657 121.269 21.3616 120.988 21.2812C120.706 21.189 120.465 21.0907 120.265 20.9863C120.137 21.0573 120.014 21.0756 119.897 21.0411C119.791 21.0065 119.65 20.9721 119.474 20.9379C119.076 20.9167 118.689 20.8778 118.313 20.8213C117.95 20.7647 117.598 20.6612 117.257 20.5107C117.233 20.4522 117.204 20.3997 117.168 20.353C117.133 20.3063 117.068 20.2949 116.975 20.3189C116.904 20.2255 116.833 20.138 116.762 20.0564C116.691 19.963 116.626 19.8638 116.567 19.7586C116.59 19.6179 116.607 19.5006 116.618 19.4068C116.629 19.3012 116.593 19.2018 116.511 19.1085C116.557 18.9559 116.591 18.8327 116.614 18.7388C116.637 18.6449 116.637 18.5219 116.612 18.3697ZM124.962 18.3237C125.042 18.0771 125.17 17.8655 125.345 17.6887C125.531 17.5119 125.73 17.3643 125.94 17.246C126.162 17.1159 126.39 17.0091 126.624 16.9258C126.858 16.8425 127.08 16.771 127.291 16.7112C127.758 16.5094 128.255 16.3192 128.782 16.1405C129.32 15.95 129.864 15.783 130.414 15.6393C130.976 15.4956 131.549 15.4045 132.135 15.3661C132.721 15.316 133.336 15.383 133.982 15.5669C134.018 15.6839 134.071 15.7949 134.142 15.9C134.213 16.0051 134.284 16.1102 134.355 16.2152C134.437 16.3203 134.508 16.4253 134.567 16.5305C134.626 16.6239 134.662 16.7233 134.674 16.8287C134.792 16.9336 134.887 17.0502 134.958 17.1787C135.028 17.2955 135.041 17.4537 134.995 17.6531C134.879 17.7475 134.762 17.8361 134.645 17.9188C134.54 17.9896 134.423 18.0547 134.295 18.114C133.861 18.011 133.421 17.9782 132.976 18.0158C132.531 18.0535 132.132 18.0849 131.781 18.1103C131.675 18.0054 131.546 17.9534 131.393 17.9542C131.253 17.955 131.101 17.9793 130.937 18.0271C130.785 18.0748 130.627 18.1225 130.463 18.1703C130.311 18.218 130.164 18.2306 130.024 18.2079C129.907 18.3023 129.761 18.3675 129.585 18.4037C129.421 18.428 129.24 18.4524 129.041 18.477C129.029 18.5356 129.041 18.5766 129.077 18.5998C129.112 18.6114 129.118 18.6465 129.095 18.7052C129.166 18.7868 129.254 18.845 129.359 18.8795C129.477 18.914 129.594 18.9486 129.712 18.9831C129.841 19.0175 129.952 19.0638 130.046 19.1218C130.14 19.1682 130.205 19.2499 130.241 19.3669C130.417 19.3659 130.569 19.4061 130.699 19.4874C130.828 19.5687 130.934 19.6677 131.017 19.7845C131.099 19.9012 131.159 20.0298 131.195 20.1702C131.242 20.2989 131.266 20.4159 131.267 20.5214C131.303 20.6149 131.344 20.6557 131.391 20.6438C131.437 20.6318 131.49 20.6549 131.549 20.7132C131.585 20.8653 131.674 21.0231 131.816 21.1863C131.957 21.3379 132.069 21.5072 132.152 21.6943C132.177 21.9871 132.196 22.2507 132.209 22.485C132.222 22.7076 132.183 22.9363 132.09 23.1712C131.917 23.6057 131.673 23.9938 131.358 24.3354C131.055 24.6769 130.706 24.9835 130.309 25.2553C129.923 25.5152 129.509 25.7401 129.064 25.9301C128.62 26.12 128.187 26.2806 127.766 26.4119C127.719 26.4004 127.672 26.4007 127.625 26.4126C127.579 26.4246 127.567 26.3954 127.59 26.3249C127.497 26.4075 127.391 26.4608 127.274 26.4849C127.169 26.5089 127.052 26.5154 126.923 26.5044C126.794 26.5051 126.659 26.5 126.518 26.489C126.389 26.478 126.266 26.4846 126.149 26.5087C126.067 26.4271 125.99 26.3455 125.92 26.2638C125.861 26.1938 125.813 26.1003 125.777 25.9834C125.719 25.9837 125.689 25.9545 125.689 25.896C125.7 25.8373 125.683 25.8081 125.636 25.8084C125.705 25.6908 125.734 25.6262 125.723 25.6145C125.722 25.5911 125.705 25.5736 125.67 25.5621C125.646 25.5505 125.623 25.5389 125.599 25.5273C125.576 25.504 125.57 25.4747 125.581 25.4395C125.627 25.3455 125.644 25.2399 125.632 25.1228C125.62 24.994 125.607 24.8651 125.595 24.7363C125.582 24.6075 125.587 24.4844 125.61 24.3671C125.645 24.2497 125.732 24.1555 125.872 24.0844C126.271 24.129 126.646 24.1153 126.997 24.043C127.36 23.959 127.699 23.8458 128.015 23.7034C128.33 23.5611 128.628 23.4071 128.909 23.2415C129.201 23.0758 129.487 22.9277 129.768 22.7973C129.802 22.6916 129.849 22.6035 129.907 22.5328C129.977 22.4621 130.047 22.3973 130.117 22.3383C130.187 22.2793 130.251 22.2145 130.309 22.1439C130.367 22.0732 130.408 21.9851 130.431 21.8795C130.442 21.7974 130.418 21.7507 130.36 21.7393C130.313 21.7161 130.289 21.6694 130.288 21.5991L130.095 21.5474C129.871 21.4197 129.619 21.3156 129.337 21.2352C129.055 21.143 128.815 21.0447 128.615 20.9403C128.486 21.0113 128.363 21.0296 128.246 20.9951C128.14 20.9605 128 20.9261 127.824 20.8919C127.425 20.8707 127.038 20.8318 126.663 20.7753C126.299 20.7187 125.947 20.6152 125.606 20.4647C125.583 20.4062 125.553 20.3536 125.518 20.307C125.482 20.2603 125.418 20.2489 125.324 20.2729C125.253 20.1795 125.182 20.092 125.112 20.0104C125.041 19.917 124.976 19.8178 124.917 19.7126C124.939 19.5719 124.956 19.4546 124.967 19.3608C124.979 19.2552 124.943 19.1558 124.86 19.0625C124.906 18.9099 124.941 18.7867 124.964 18.6928C124.987 18.5989 124.986 18.4759 124.962 18.3237ZM149.691 17.6425C149.398 17.6441 149.082 17.6693 148.742 17.718C148.402 17.7551 148.069 17.7979 147.741 17.8466C147.507 17.883 147.278 17.9136 147.056 17.9383C146.845 17.9629 146.652 17.9815 146.476 17.9942C146.395 18.2525 146.314 18.4814 146.234 18.6811C146.153 18.8808 146.066 19.0746 145.973 19.2626C145.88 19.4623 145.794 19.6679 145.713 19.8793C145.644 20.0789 145.574 20.2961 145.505 20.5308C145.389 20.719 145.291 20.8953 145.21 21.0598C145.14 21.2125 145.082 21.3886 145.037 21.5881C144.897 21.7647 144.793 21.9528 144.723 22.1524C144.654 22.3402 144.602 22.5046 144.568 22.6454L144.499 22.8567C144.429 22.9274 144.388 22.9862 144.377 23.0332C144.365 23.0684 144.336 23.1037 144.289 23.1391C144.278 23.2681 144.238 23.3972 144.168 23.5265C144.145 23.5852 144.128 23.6439 144.117 23.7026C144.105 23.7495 144.1 23.7847 144.1 23.8082C144.1 23.9253 144.071 24.0017 144.013 24.0372C144.025 24.0957 144.025 24.1601 144.014 24.2305C144.003 24.2892 143.991 24.3478 143.98 24.4065C143.946 24.5473 143.934 24.6587 143.947 24.7407C143.982 24.7873 144.012 24.8282 144.035 24.8632C144.071 24.8982 144.094 24.9449 144.106 25.0035C144.177 25.0499 144.23 25.0789 144.265 25.0905C144.312 25.1254 144.383 25.166 144.477 25.2124L144.636 25.3873C144.696 25.7268 144.645 25.9966 144.482 26.1967C144.307 26.4203 144.009 26.5333 143.587 26.5356L143.376 26.5368C143.317 26.4785 143.282 26.4318 143.27 26.3968C143.176 26.3621 143.1 26.3332 143.041 26.3101C142.982 26.287 142.929 26.2404 142.882 26.1704C142.729 26.1009 142.606 26.043 142.512 25.9966L142.353 25.9096C142.353 25.7807 142.352 25.7104 142.352 25.6987C142.27 25.5937 142.205 25.4768 142.157 25.3482C142.121 25.2195 142.091 25.0907 142.067 24.962C142.043 24.8566 142.013 24.7572 141.977 24.6636C141.953 24.57 141.918 24.4882 141.871 24.4181C141.843 23.7386 141.905 23.164 142.054 22.6944C142.204 22.2248 142.36 21.7728 142.522 21.3383C142.614 21.1034 142.706 20.8685 142.799 20.6336C142.891 20.387 142.972 20.1346 143.041 19.8764L143.198 19.6998C143.279 19.5118 143.343 19.3591 143.389 19.2417C143.447 19.1125 143.505 18.9832 143.563 18.854C143.597 18.7718 143.626 18.6955 143.649 18.625C143.684 18.5428 143.713 18.4723 143.736 18.4136C143.666 18.414 143.601 18.4202 143.543 18.4322C143.484 18.4326 143.426 18.4387 143.367 18.4508C143.297 18.4629 143.232 18.475 143.174 18.487C143.115 18.4873 143.057 18.4877 142.998 18.488C142.916 18.4884 142.857 18.4829 142.822 18.4714C142.694 18.5307 142.553 18.5607 142.401 18.5616L142.225 18.5625C142.19 18.5627 142.155 18.5629 142.12 18.5631C142.096 18.5515 142.073 18.5458 142.049 18.5459C141.932 18.5466 141.838 18.5647 141.768 18.6002C141.628 18.601 141.493 18.6017 141.364 18.6024L141.188 18.6034C141.165 18.6035 141.135 18.6096 141.1 18.6215C141.065 18.6217 141.036 18.6218 141.012 18.622C140.93 18.6224 140.842 18.617 140.749 18.6058C140.655 18.5829 140.555 18.5425 140.449 18.4844C140.308 18.2977 140.213 18.1986 140.166 18.1872L140.007 17.9771C139.995 17.9069 139.977 17.8425 139.953 17.784C139.929 17.7139 139.905 17.6378 139.882 17.5559C139.834 17.439 139.786 17.3162 139.739 17.1876C139.703 17.0471 139.684 16.8832 139.683 16.6957C139.695 16.6018 139.718 16.5314 139.753 16.4843C139.787 16.4373 139.817 16.3961 139.84 16.3608L139.891 16.0969L140.12 16.1132L140.612 16.1105C140.987 16.1084 141.368 16.0946 141.754 16.069C142.141 16.0317 142.539 15.9944 142.949 15.957C143.183 15.9322 143.417 15.9075 143.652 15.8828C143.898 15.858 144.149 15.8332 144.407 15.8083C144.453 15.7026 144.5 15.6027 144.546 15.5087L144.721 15.4198C144.932 15.407 145.079 15.4354 145.161 15.5053C145.255 15.5634 145.332 15.6216 145.391 15.6798C145.649 15.655 145.906 15.6301 146.164 15.6053C146.433 15.5686 146.703 15.5261 146.972 15.4778C147.37 15.417 147.768 15.362 148.166 15.313C148.576 15.2638 148.969 15.2382 149.344 15.2362C149.508 15.2353 149.666 15.2403 149.818 15.2511C149.971 15.262 150.111 15.2788 150.24 15.3015L150.417 15.4236C150.452 15.4937 150.5 15.5579 150.559 15.6162C150.629 15.6744 150.7 15.7326 150.77 15.7908C150.912 15.9189 151.053 16.0705 151.195 16.2455C151.336 16.4205 151.391 16.678 151.357 17.0181C151.264 17.1592 151.194 17.2416 151.148 17.2653L150.991 17.4771L150.815 17.4605C150.744 17.4609 150.68 17.473 150.622 17.4967C150.563 17.5088 150.505 17.5267 150.446 17.5504C150.399 17.5741 150.353 17.5978 150.306 17.6215C150.259 17.6335 150.206 17.6455 150.148 17.6576C150.042 17.6581 149.955 17.6586 149.884 17.659C149.826 17.6476 149.761 17.6421 149.691 17.6425ZM157.357 24.3504C157.382 24.6549 157.348 24.9071 157.255 25.1068C157.163 25.3065 157.035 25.4772 156.872 25.6187C156.708 25.7602 156.521 25.8726 156.311 25.9558C156.1 26.0389 155.896 26.1162 155.697 26.1877C155.603 26.1296 155.509 26.0715 155.415 26.0134C155.332 25.9436 155.232 25.8914 155.115 25.8569C154.961 25.5765 154.813 25.3312 154.672 25.121C154.53 24.8991 154.464 24.6476 154.474 24.3662C154.474 24.3545 154.479 24.29 154.49 24.1728C154.513 24.0555 154.536 23.9264 154.559 23.7857C154.593 23.6449 154.616 23.5158 154.627 23.3986C154.65 23.2696 154.661 23.1992 154.661 23.1875C154.391 23.2124 154.111 23.2725 153.818 23.3679C153.526 23.4633 153.239 23.5762 152.959 23.7066C152.69 23.837 152.433 23.9673 152.187 24.0976C151.954 24.2278 151.761 24.3402 151.609 24.4348C151.609 24.4699 151.586 24.5579 151.54 24.6988C151.494 24.828 151.436 24.9689 151.367 25.1217C151.297 25.2627 151.222 25.392 151.14 25.5096C151.059 25.6273 150.977 25.6863 150.895 25.6868C150.907 25.7219 150.925 25.7569 150.949 25.7919C150.972 25.827 150.972 25.8738 150.949 25.9326C150.786 25.9803 150.639 26.0397 150.511 26.1108C150.382 26.1935 150.248 26.2587 150.108 26.3063C149.967 26.3657 149.815 26.3958 149.651 26.3968C149.487 26.3977 149.293 26.3401 149.07 26.2242C149.07 26.1539 149.04 26.0954 148.981 26.0489C148.922 25.9906 148.858 25.9441 148.787 25.9093C148.728 25.8628 148.675 25.8279 148.628 25.8047C148.581 25.7698 148.558 25.7407 148.558 25.7172C148.499 25.7293 148.475 25.6884 148.487 25.5946C148.498 25.5007 148.544 25.4771 148.627 25.5235C148.497 25.3601 148.414 25.22 148.378 25.103C148.354 24.9742 148.289 24.8163 148.182 24.6294C148.206 24.6059 148.229 24.5647 148.252 24.506C148.263 24.4473 148.275 24.3945 148.286 24.3476C148.298 24.3007 148.315 24.2654 148.338 24.2418C148.362 24.2183 148.391 24.224 148.426 24.2589C148.402 24.1536 148.402 24.0657 148.425 23.9953C148.448 23.9248 148.471 23.8602 148.494 23.8015C148.517 23.7428 148.535 23.6841 148.546 23.6255C148.557 23.5668 148.539 23.5024 148.492 23.4324C148.678 23.1735 148.8 22.8975 148.857 22.6042C148.914 22.2992 148.947 22.0236 148.958 21.7775C149.039 21.695 149.109 21.5774 149.167 21.4247C149.236 21.272 149.288 21.1194 149.322 20.9668C149.357 20.8026 149.367 20.6502 149.355 20.5096C149.354 20.3573 149.336 20.2343 149.3 20.1408C149.312 20.0821 149.376 20.0642 149.493 20.087C149.561 19.6999 149.606 19.266 149.627 18.7854C149.659 18.2931 149.709 17.8299 149.777 17.3959C149.845 16.9502 149.96 16.5629 150.122 16.2338C150.285 15.8931 150.547 15.669 150.91 15.5615C150.981 15.8072 151.071 16.0235 151.177 16.2105C151.295 16.3973 151.419 16.5783 151.549 16.7533C151.691 16.9166 151.826 17.0858 151.956 17.2609C152.098 17.4359 152.228 17.6344 152.346 17.8564C152.336 18.0791 152.314 18.337 152.28 18.6302C152.247 18.9234 152.201 19.2224 152.145 19.5274C152.099 19.8324 152.048 20.1256 151.991 20.4072C151.946 20.6887 151.9 20.9292 151.855 21.1287C151.867 21.1872 151.896 21.2222 151.943 21.2337C152.002 21.2451 152.014 21.2977 151.979 21.3917C152.26 21.3198 152.553 21.2537 152.857 21.1935C153.161 21.1332 153.466 21.0671 153.77 20.9951C154.074 20.9231 154.367 20.8453 154.647 20.7617C154.94 20.6664 155.209 20.5535 155.454 20.4233C155.51 19.9659 155.584 19.5085 155.675 19.051C155.766 18.5934 155.776 18.1246 155.703 17.6445C155.761 17.5973 155.807 17.5385 155.842 17.468C155.877 17.3975 155.935 17.3503 156.017 17.3264C155.957 17.1041 155.933 16.8698 155.943 16.6237C155.953 16.3775 155.993 16.1429 156.062 15.9199C156.143 15.6968 156.253 15.5086 156.393 15.3555C156.545 15.1906 156.726 15.0842 156.936 15.0361C157.066 15.2229 157.179 15.4274 157.274 15.6495C157.369 15.8599 157.464 16.0762 157.558 16.2983C157.665 16.5087 157.772 16.7132 157.878 16.9118C157.996 17.0987 158.144 17.2619 158.32 17.4016C158.357 17.7412 158.383 18.0927 158.397 18.4559C158.422 18.819 158.442 19.1881 158.455 19.563C158.364 20.0088 158.261 20.443 158.146 20.8655C158.043 21.2762 157.969 21.7161 157.925 22.1851C157.843 22.2793 157.78 22.3851 157.733 22.5026C157.687 22.62 157.641 22.7433 157.595 22.8725C157.548 22.9899 157.496 23.1074 157.438 23.2249C157.38 23.3307 157.311 23.4248 157.229 23.5073C157.277 23.6477 157.283 23.7824 157.249 23.9115C157.226 24.0288 157.262 24.1751 157.357 24.3504ZM168.133 24.5195C168.064 24.7191 167.96 24.9248 167.82 25.1365C167.692 25.3364 167.535 25.5189 167.349 25.684C167.174 25.8373 166.975 25.9673 166.753 26.074C166.531 26.1807 166.297 26.2406 166.051 26.2537C165.898 26.2193 165.793 26.1789 165.734 26.1324C165.687 26.0975 165.634 26.0626 165.575 26.0278C165.54 26.0045 165.505 25.9871 165.469 25.9756C165.446 25.9523 165.422 25.9349 165.399 25.9233L165.187 25.8365L165.256 25.6076C165.279 25.5138 165.273 25.4435 165.238 25.3968C165.202 25.3384 165.131 25.2626 165.025 25.1694C164.99 25.1345 164.955 25.0995 164.919 25.0646C164.884 25.0296 164.855 24.9946 164.831 24.9596L164.53 24.6272L165.004 24.5016C165.297 24.4179 165.489 24.3114 165.583 24.182C165.687 24.0525 165.727 23.8355 165.702 23.5309C165.467 23.4853 165.268 23.4806 165.104 23.5166C164.952 23.5526 164.794 23.5945 164.63 23.6423C164.42 23.7021 164.203 23.756 163.981 23.8041C163.77 23.8404 163.536 23.8593 163.278 23.8607C163.184 23.8612 163.096 23.8617 163.014 23.8622C162.932 23.8509 162.844 23.8397 162.75 23.8284L162.574 23.7943C162.55 23.6655 162.526 23.5953 162.503 23.5837C162.479 23.5604 162.456 23.5371 162.432 23.5138C162.373 23.4555 162.309 23.3797 162.238 23.2863C162.179 23.1812 162.166 23.0524 162.2 22.8998C162.141 22.7947 162.105 22.6894 162.093 22.584C162.024 22.725 161.972 22.8718 161.937 23.0243L161.868 23.2005L161.692 23.2366C161.669 23.2485 161.652 23.2779 161.64 23.3248C161.629 23.36 161.623 23.3893 161.623 23.4128L161.537 23.7121C161.514 23.7357 161.49 23.7592 161.467 23.7828C161.444 23.7946 161.42 23.8123 161.397 23.8359C161.374 23.9415 161.345 24.0471 161.311 24.1528C161.276 24.2585 161.242 24.3583 161.207 24.4522C161.149 24.6049 161.097 24.7575 161.051 24.9101C161.017 25.0509 161.006 25.1916 161.018 25.3322L160.949 25.5259C160.891 25.5965 160.827 25.6555 160.757 25.7027C160.687 25.7383 160.617 25.7738 160.546 25.8094C160.523 25.8329 160.488 25.8566 160.441 25.8803C160.406 25.8922 160.377 25.9041 160.354 25.9159L160.302 26.1096L160.091 26.1459C159.963 26.17 159.869 26.1881 159.81 26.2002C159.764 26.2121 159.705 26.2183 159.635 26.2187L159.459 26.2021C159.329 26.0973 159.229 26.0159 159.159 25.9576C159.088 25.8877 159.006 25.8237 158.911 25.7656C158.805 25.6256 158.746 25.5205 158.734 25.4502C158.722 25.38 158.71 25.3156 158.698 25.257C158.674 25.1869 158.662 25.1283 158.662 25.0815C158.65 25.0347 158.632 24.9996 158.608 24.9763L158.379 24.7666L158.571 24.6073L158.587 24.3084C158.818 23.7095 159.061 23.1339 159.316 22.5817C159.582 22.0295 159.855 21.4655 160.133 20.8897C160.225 20.7017 160.312 20.5137 160.393 20.3258C160.486 20.1377 160.579 19.9497 160.671 19.7617C160.659 19.7266 160.653 19.6856 160.653 19.6388C160.653 19.5919 160.664 19.5391 160.687 19.4804C160.815 19.2804 160.92 19.1041 161.001 18.9513C161.082 18.7868 161.163 18.6223 161.244 18.4578C161.337 18.258 161.43 18.0642 161.522 17.8761C161.627 17.6881 161.755 17.494 161.906 17.2939L162.186 17.1693C162.221 17.1574 162.262 17.1455 162.309 17.1335C162.356 17.1098 162.409 17.0978 162.467 17.0975L162.731 17.1312C163.058 16.977 163.344 16.7645 163.589 16.4936C163.833 16.211 164.084 15.8757 164.339 15.4875L164.514 15.2405L164.743 15.3798C164.802 15.4147 164.884 15.4494 164.99 15.484C165.095 15.5068 165.207 15.5355 165.324 15.57C165.535 15.6157 165.735 15.6674 165.923 15.7249C166.11 15.7825 166.263 15.8695 166.381 15.9861C166.452 16.1732 166.494 16.3136 166.506 16.4073C166.519 16.5009 166.537 16.5946 166.561 16.6882C166.597 16.8872 166.627 17.0863 166.652 17.2854C166.688 17.4844 166.713 17.7069 166.726 17.9529C166.786 18.1518 166.834 18.3508 166.87 18.5498C166.918 18.7371 166.96 18.9302 166.996 19.1292C167.056 19.4101 167.116 19.6852 167.176 19.9544C167.236 20.2119 167.314 20.4576 167.409 20.6914C167.503 20.6909 167.561 20.6964 167.585 20.708C167.643 20.6843 167.702 20.6664 167.76 20.6543C167.831 20.6422 167.907 20.6301 167.989 20.6179L168.182 20.5993L168.253 20.7746C168.265 20.8332 168.324 20.8914 168.43 20.9495C168.582 20.9603 168.694 20.9949 168.765 21.0531C168.835 21.0996 168.9 21.1519 168.959 21.2102C169.006 21.2568 169.053 21.2917 169.1 21.3149L169.364 21.4189L169.225 21.6834C169.109 21.8949 168.94 22.101 168.719 22.3014C168.509 22.4901 168.269 22.6496 168.001 22.78C168.013 22.8502 168.019 22.9205 168.019 22.9908C168.031 23.0493 168.049 23.1137 168.073 23.1839C168.109 23.3829 168.14 23.5878 168.164 23.7986C168.189 24.0094 168.19 24.2262 168.168 24.449L168.133 24.5195ZM163.036 21.5065C163.388 21.4812 163.704 21.456 163.985 21.431C164.278 21.3942 164.6 21.3397 164.951 21.2675C164.867 20.9164 164.777 20.5536 164.682 20.1791C164.586 19.7929 164.484 19.4126 164.376 19.0382L164.272 19.2145C164.039 19.4619 163.812 19.7386 163.591 20.0445C163.382 20.3503 163.202 20.6384 163.051 20.9088C162.981 21.0146 162.911 21.1205 162.842 21.2263C162.772 21.3322 162.708 21.438 162.65 21.5438C162.72 21.5317 162.785 21.5255 162.843 21.5252C162.914 21.5248 162.978 21.5186 163.036 21.5065ZM172.887 22.7706C172.782 22.7946 172.706 22.8595 172.66 22.9652C172.614 23.0593 172.567 23.1591 172.521 23.2648C172.486 23.3705 172.446 23.4703 172.4 23.5643C172.365 23.6466 172.306 23.6879 172.224 23.6884C172.213 23.7822 172.179 23.8644 172.12 23.935C172.074 24.0056 172.027 24.082 171.981 24.1643C171.934 24.2349 171.9 24.3171 171.877 24.411C171.854 24.4931 171.866 24.5927 171.914 24.7096C171.82 24.7804 171.762 24.8804 171.74 25.0094C171.717 25.1384 171.688 25.2616 171.654 25.379C171.631 25.4963 171.585 25.5962 171.515 25.6786C171.445 25.761 171.316 25.7969 171.129 25.7862C171.094 25.8333 171.088 25.8626 171.111 25.8742C171.135 25.8858 171.153 25.9267 171.165 25.997C171.036 25.9742 170.936 25.9806 170.866 26.0162C170.808 26.0634 170.732 26.0931 170.638 26.1053C170.415 26.0363 170.227 25.9142 170.074 25.7393C169.932 25.5643 169.802 25.3717 169.684 25.1614C169.577 24.9393 169.476 24.7172 169.381 24.4951C169.298 24.2729 169.215 24.0799 169.132 23.9163C169.166 23.7872 169.172 23.6642 169.147 23.5471C169.123 23.4183 169.082 23.3131 169.023 23.2314C169.59 22.0095 170.21 20.7053 170.882 19.3187C171.554 17.9322 172.191 16.5634 172.793 15.2124C173.063 15.3164 173.327 15.438 173.586 15.5772C173.856 15.7046 174.097 15.8557 174.309 16.0303C174.533 16.2048 174.721 16.4089 174.875 16.6424C175.029 16.8642 175.13 17.1156 175.178 17.3966C175.155 17.467 175.126 17.4965 175.091 17.485C175.067 17.4617 175.044 17.4677 175.02 17.5029C175.068 17.5613 175.091 17.6022 175.091 17.6256C175.103 17.649 175.103 17.6724 175.092 17.6959C175.092 17.7193 175.092 17.7545 175.092 17.8014C175.093 17.8365 175.11 17.8892 175.146 17.9593C175.099 17.9478 175.064 17.9539 175.041 17.9774C175.029 18.0009 174.994 18.0011 174.935 17.978C174.983 18.1067 174.995 18.2121 174.972 18.2942C174.961 18.3763 174.938 18.4526 174.903 18.5231C174.868 18.5819 174.839 18.6524 174.816 18.7345C174.793 18.805 174.8 18.8987 174.835 19.0157C174.8 19.0159 174.771 19.0278 174.748 19.0513C174.736 19.0631 174.724 19.0808 174.713 19.1043C174.701 19.116 174.684 19.1337 174.66 19.1573C174.649 19.1691 174.625 19.1692 174.59 19.1577C174.627 19.4153 174.64 19.673 174.63 19.9309C174.619 20.1888 174.609 20.4525 174.599 20.7221C174.6 20.9799 174.608 21.2553 174.621 21.5482C174.634 21.8294 174.677 22.1221 174.749 22.4264C175.169 22.178 175.502 21.8597 175.745 21.4717C176.001 21.0835 176.204 20.6488 176.354 20.1675C176.515 19.6861 176.635 19.1698 176.714 18.6186C176.793 18.0674 176.878 17.5044 176.969 16.9297C177.073 16.8236 177.155 16.6943 177.212 16.5416C177.27 16.389 177.322 16.2305 177.368 16.0662C177.414 15.8901 177.46 15.7199 177.506 15.5556C177.552 15.3796 177.609 15.2211 177.679 15.0801C177.855 15.1025 178.002 15.1603 178.119 15.2534C178.249 15.3347 178.366 15.4278 178.473 15.5327C178.579 15.6259 178.69 15.719 178.808 15.8121C178.926 15.8935 179.072 15.9454 179.248 15.9679C179.39 16.1663 179.52 16.359 179.638 16.5458C179.757 16.7327 179.834 16.9315 179.87 17.1422C179.812 17.2363 179.766 17.342 179.731 17.4594C179.708 17.5767 179.68 17.6941 179.645 17.8114C179.611 17.9288 179.565 18.0404 179.506 18.1462C179.448 18.2403 179.367 18.3228 179.262 18.3936C179.228 18.6985 179.183 18.98 179.126 19.2382C179.08 19.4845 179.029 19.7309 178.972 19.9773C178.926 20.2236 178.887 20.4817 178.853 20.7514C178.819 21.0094 178.809 21.2966 178.822 21.6129C178.73 21.883 178.632 22.1706 178.528 22.4759C178.425 22.7811 178.344 23.057 178.287 23.3034C178.1 23.4568 177.955 23.6392 177.85 23.8507C177.746 24.0622 177.636 24.2738 177.52 24.4854C177.473 24.5325 177.444 24.5444 177.432 24.521C177.42 24.4976 177.379 24.4803 177.309 24.469C177.321 24.5158 177.321 24.5509 177.309 24.5744C177.298 24.5979 177.28 24.6215 177.257 24.645C177.245 24.6568 177.234 24.6803 177.222 24.7155C177.223 24.7507 177.235 24.7975 177.258 24.856C177.095 24.9272 176.949 25.0276 176.82 25.1572C176.692 25.2868 176.552 25.4048 176.401 25.5111C176.26 25.6173 176.085 25.6886 175.874 25.7249C175.675 25.7612 175.411 25.7216 175.083 25.6062C174.6 25.2573 174.17 24.8554 173.793 24.4004C173.427 23.9454 173.125 23.4021 172.887 22.7706ZM81.1883 41.6629C81.2591 41.7562 81.3301 41.873 81.4012 42.0132C81.4723 42.1535 81.4788 42.2824 81.4209 42.3999C81.633 42.6096 81.7985 42.8665 81.9173 43.1706C82.0479 43.4746 82.038 43.8086 81.8877 44.1727C81.6187 44.2679 81.3789 44.3454 81.1683 44.4052C80.9693 44.4532 80.7528 44.513 80.5188 44.5846C80.0737 44.6104 79.7925 44.6296 79.6754 44.6419C79.57 44.6542 79.488 44.6664 79.4295 44.6784C79.371 44.6905 79.2773 44.7144 79.1486 44.7503C79.0316 44.7744 78.7681 44.8169 78.3583 44.8777C78.3581 44.8308 78.352 44.8016 78.3403 44.7899C78.3402 44.7782 78.3285 44.7783 78.3051 44.7901C78.2934 44.8019 78.2759 44.8137 78.2526 44.8256C78.2409 44.8373 78.2175 44.8375 78.1822 44.8259C77.9483 44.9093 77.7143 44.975 77.4802 45.0232C77.246 45.0596 77.0118 45.0961 76.7777 45.1325C76.5435 45.169 76.3094 45.2171 76.0753 45.277C75.8412 45.3252 75.6014 45.4085 75.356 45.5271C75.3797 45.5855 75.4152 45.6322 75.4622 45.6671C75.5092 45.6903 75.5563 45.7193 75.6033 45.7542C75.6621 45.7773 75.715 45.8064 75.762 45.8413C75.8091 45.8761 75.8445 45.9228 75.8683 45.9813C76.1968 46.0615 76.4671 46.1948 76.6791 46.3811C76.9027 46.5557 77.103 46.7597 77.2801 46.9931C77.4571 47.2147 77.6283 47.4423 77.7936 47.6758C77.959 47.9093 78.1535 48.1191 78.3772 48.3054C78.3776 48.3757 78.3955 48.4283 78.4308 48.4633C78.4662 48.4983 78.4724 48.5627 78.4494 48.6566C78.6619 48.9249 78.8277 49.2463 78.947 49.6206C79.0662 49.995 79.092 50.4284 79.0244 50.921C78.8742 51.2968 78.6943 51.6201 78.4848 51.8908C78.2753 52.1498 78.0014 52.4208 77.6631 52.7039C77.3943 52.8226 77.1311 52.9178 76.8737 52.9895C76.6162 53.0495 76.3882 53.1446 76.1897 53.2746C76.0956 53.2165 76.0076 53.1935 75.9256 53.2057C75.8553 53.2061 75.7908 53.1947 75.7321 53.1716C75.4632 53.2903 75.1766 53.3739 74.8721 53.4224C74.5676 53.4593 74.245 53.3966 73.9043 53.2344C73.6583 53.2475 73.4063 53.243 73.1483 53.221C72.9021 53.1872 72.6732 53.1299 72.4618 53.049C72.2505 52.9681 72.0682 52.8578 71.9151 52.718C71.7736 52.5665 71.6788 52.3795 71.6307 52.1571C71.36 51.9359 71.1827 51.6615 71.0989 51.3338C71.015 50.9944 71.0542 50.6661 71.2165 50.3488C71.2867 50.325 71.3393 50.3071 71.3744 50.2952C71.4211 50.2715 71.4795 50.2301 71.5495 50.1712C72.1709 50.2263 72.804 50.2756 73.4488 50.3189C74.1052 50.3504 74.8022 50.2939 75.5397 50.1492C75.5626 50.0553 75.6032 49.9906 75.6616 49.9551C75.7317 49.9079 75.8076 49.8665 75.8895 49.8308C75.9713 49.7952 76.0473 49.7597 76.1174 49.7241C76.1875 49.6886 76.24 49.6356 76.2747 49.565C76.2743 49.4947 76.2565 49.448 76.2212 49.4247C76.1859 49.3898 76.1506 49.3606 76.1153 49.3374C76.0799 49.3024 76.0446 49.2675 76.0092 49.2325C75.9856 49.1975 75.9794 49.1389 75.9907 49.0568C75.8383 49.0577 75.6564 49.0059 75.4449 48.9016C75.2451 48.7973 75.0862 48.681 74.9684 48.5527C74.4522 48.4618 73.9356 48.2889 73.4186 48.0339C72.9133 47.7789 72.4198 47.5413 71.9381 47.3213C71.8553 47.1812 71.7608 47.0528 71.6547 46.9362C71.5603 46.8078 71.4658 46.6794 71.3713 46.551C71.2768 46.4109 71.194 46.2707 71.1229 46.1305C71.0636 45.9902 71.0276 45.838 71.0149 45.674C71.0256 45.4865 71.0364 45.3106 71.0472 45.1465C71.0579 44.9707 71.0687 44.8007 71.0795 44.6366C71.0903 44.4607 71.1069 44.2848 71.1294 44.1089C71.1518 43.9213 71.1858 43.7219 71.2315 43.5107C71.7316 42.8165 72.3554 42.233 73.1028 41.7601C73.8618 41.2755 74.639 40.8786 75.4341 40.5695C75.5638 40.6977 75.6934 40.8376 75.8232 40.9893C75.9529 41.1292 76.0884 41.2632 76.2297 41.3913C76.371 41.5195 76.5181 41.63 76.671 41.7229C76.8356 41.8157 77.0175 41.8675 77.2168 41.8781C77.3455 41.8422 77.445 41.8182 77.5152 41.8061C77.5855 41.794 77.6499 41.7878 77.7085 41.7875C77.7671 41.7872 77.8432 41.7868 77.937 41.7862C78.0307 41.7857 78.1654 41.7733 78.3411 41.7489C78.5167 41.7244 78.6866 41.7118 78.8506 41.7109C79.0147 41.71 79.167 41.7033 79.3076 41.6908C79.6004 41.6657 79.8112 41.6411 79.94 41.617C80.0805 41.5928 80.1741 41.5747 80.2209 41.5627C80.2677 41.5507 80.2912 41.5447 80.2912 41.5447C80.2911 41.533 80.3087 41.5329 80.3439 41.5445C80.3908 41.5442 80.4729 41.5555 80.5902 41.5783C80.7075 41.601 80.9069 41.6292 81.1883 41.6629ZM99.4271 53.0586C99.3103 53.1179 99.1992 53.1712 99.094 53.2187C99.0005 53.2661 98.8893 53.2901 98.7604 53.2908C98.3015 52.9535 98.0581 52.363 98.03 51.5194C98.0136 50.6758 98.1893 49.6025 98.5572 48.2997C98.6156 48.2642 98.6445 48.1937 98.6439 48.0883L98.4847 47.9134C98.4378 47.9136 98.391 47.9197 98.3442 47.9317C98.3091 47.9436 98.28 47.9848 98.257 48.0552C97.9535 48.2796 97.6208 48.5158 97.2589 48.7639C96.8969 49.0002 96.5173 49.225 96.12 49.4381C95.7344 49.6395 95.3369 49.8057 94.9275 49.9369C94.5297 50.068 94.1375 50.1346 93.7508 50.1367C92.7664 50.1422 92.0254 49.6482 91.5278 48.6548L91.3857 48.3919L91.2463 48.6212C91.2114 48.6683 91.1592 48.7682 91.0898 48.9209C91.0202 49.0619 90.9508 49.2264 90.8815 49.4143C90.8123 49.6021 90.7489 49.7958 90.6914 49.9954C90.6455 50.1831 90.6289 50.3473 90.6414 50.4879C90.5365 50.5939 90.4258 50.7176 90.3094 50.8588C90.193 51.0001 90.106 51.1588 90.0484 51.3349C90.0254 51.4288 90.0376 51.5166 90.085 51.5984C90.0621 51.704 90.0098 51.7863 89.9281 51.8453C89.8816 51.9042 89.8292 51.9631 89.7709 52.022C89.7243 52.0691 89.6836 52.1221 89.6487 52.1809C89.6256 52.2396 89.6084 52.2983 89.597 52.3569C89.5973 52.4155 89.5917 52.4741 89.5803 52.5328C89.5808 52.6148 89.5695 52.6911 89.5464 52.7615C89.3495 53.1728 89.1927 53.4373 89.0762 53.5551C88.9597 53.6847 88.8019 53.75 88.6027 53.7511C88.5089 53.7516 88.3565 53.7349 88.1454 53.7009C87.9921 53.5377 87.8503 53.3158 87.7198 53.0352C87.601 52.7429 87.5055 52.4329 87.4334 52.1052C87.373 51.7774 87.3419 51.4494 87.3401 51.1213C87.35 50.7814 87.4069 50.4881 87.511 50.2414C87.511 50.2297 87.5572 50.1123 87.6497 49.8891C87.7423 49.6659 87.8579 49.3782 87.9965 49.0258C88.147 48.6734 88.3147 48.2858 88.4999 47.8629C88.685 47.4283 88.8702 47.0112 89.0555 46.6118C89.2408 46.2006 89.4145 45.8246 89.5767 45.4839C89.7506 45.1431 89.8956 44.8845 90.0119 44.708C90.1048 44.5669 90.1861 44.4375 90.2558 44.32C90.3371 44.1906 90.4126 44.0671 90.4823 43.9496C90.6912 43.5851 90.8888 43.2852 91.075 43.0498C91.2729 42.8026 91.5589 42.6077 91.9331 42.465C92.1915 42.569 92.3797 42.6911 92.4976 42.831L92.5339 43.0242C92.5814 43.1411 92.652 43.1993 92.7458 43.1988C92.8749 43.2333 92.9805 43.2678 93.0627 43.3025C93.1566 43.3255 93.2564 43.3483 93.362 43.3712C93.4445 43.4645 93.5213 43.5754 93.5923 43.7039C93.6868 43.844 93.7755 43.9842 93.8583 44.1243C93.9528 44.2527 94.0238 44.3871 94.0715 44.5275C94.1308 44.656 94.1608 44.7906 94.1616 44.9313C94.1741 45.0718 94.1514 45.2184 94.0937 45.3711L94.1122 45.5468C94.1714 45.6519 94.1839 45.7983 94.1498 45.986C94.1385 46.0681 94.1332 46.1561 94.1337 46.2498C94.1341 46.3318 94.1464 46.4255 94.1704 46.5309C94.3822 46.6938 94.5702 46.7748 94.7342 46.7738C94.9217 46.7728 95.0914 46.7309 95.2433 46.648C95.4069 46.5533 95.5587 46.4588 95.6988 46.3642C95.7922 46.2934 95.8856 46.2343 95.9791 46.1869C96.0725 46.1278 96.1661 46.0921 96.2597 46.0799C96.4696 45.8795 96.6561 45.7027 96.8193 45.5494C96.9943 45.3961 97.1751 45.2428 97.3617 45.0894C97.7117 44.8062 98.0499 44.4997 98.3762 44.1698C98.7025 43.8398 98.9639 43.4282 99.1604 42.9349C99.2772 42.864 99.4001 42.8282 99.529 42.8274C99.6579 42.8267 99.7928 42.8553 99.9338 42.9131C100.075 42.9709 100.21 43.0288 100.339 43.0867C100.374 43.1099 100.404 43.1273 100.427 43.1389C100.462 43.1504 100.492 43.162 100.515 43.1736C100.516 43.2908 100.563 43.3901 100.658 43.4716C100.705 43.5065 100.734 43.5298 100.746 43.5415C100.758 43.5531 100.775 43.5647 100.799 43.5763C100.975 43.6691 101.087 43.7622 101.134 43.8557C101.218 44.1248 101.365 44.3291 101.577 44.4685C101.554 44.5858 101.555 44.6972 101.579 44.8025C101.615 44.8961 101.656 44.9954 101.704 45.1007C101.716 45.1357 101.727 45.1708 101.739 45.2059C101.751 45.241 101.769 45.2819 101.793 45.3287L101.459 45.2954L101.513 45.6291C101.538 45.793 101.521 45.9747 101.463 46.1743C101.418 46.3737 101.36 46.5323 101.29 46.6498C101.304 46.9545 101.311 47.1946 101.312 47.3704C101.324 47.5344 101.319 47.6927 101.297 47.8451C101.274 47.9859 101.24 48.1208 101.194 48.25C101.159 48.3791 101.107 48.52 101.038 48.6727C101.089 49.4225 101.005 50.1085 100.785 50.7308C100.578 51.3413 100.358 51.9168 100.127 52.4571C100.104 52.5158 100.075 52.5746 100.04 52.6334C100.017 52.6921 99.9938 52.7508 99.9707 52.8095C99.8654 52.8453 99.7719 52.8868 99.6901 52.9341C99.6083 52.9697 99.5206 53.0112 99.4271 53.0586ZM105.645 52.1103C105.705 52.4615 105.683 52.7371 105.579 52.9368C105.486 53.1366 105.346 53.2838 105.159 53.3786C104.984 53.4851 104.78 53.5448 104.545 53.5578C104.311 53.5708 104.088 53.5603 103.877 53.5263C103.759 53.3629 103.652 53.1584 103.557 52.9128C103.462 52.6673 103.373 52.4158 103.289 52.1584C103.206 51.8894 103.128 51.6261 103.057 51.3687C102.997 51.1112 102.943 50.883 102.895 50.684C102.952 50.5431 102.987 50.3847 102.997 50.2088C103.02 50.0212 103.031 49.8337 103.029 49.6462C103.04 49.4586 103.045 49.2711 103.044 49.0836C103.055 48.8843 103.071 48.6967 103.094 48.5208C103.173 48.0282 103.288 47.5588 103.437 47.1126C103.599 46.6664 103.725 46.2028 103.816 45.7218C103.839 45.6162 103.827 45.5167 103.78 45.4232C103.744 45.3297 103.738 45.2418 103.761 45.1596C103.772 45.1127 103.807 45.0832 103.866 45.0712C103.924 45.0474 103.959 45.0062 103.97 44.9475C104.005 44.8184 104.01 44.7129 103.986 44.631C103.974 44.5491 103.997 44.4493 104.055 44.3318C104.113 44.2378 104.183 44.1026 104.264 43.9264C104.356 43.7384 104.39 43.5448 104.366 43.3457C104.471 43.2748 104.57 43.1923 104.663 43.098C104.757 43.0037 104.85 42.9212 104.943 42.8504C105.048 42.7677 105.159 42.6968 105.276 42.6376C105.405 42.5783 105.557 42.5481 105.733 42.5472C105.827 42.6638 105.886 42.7924 105.911 42.9329C105.946 43.0733 105.977 43.2138 106.001 43.3543C106.037 43.4947 106.084 43.6292 106.144 43.7578C106.203 43.8747 106.303 43.9679 106.444 44.0374C106.444 44.1312 106.445 44.2483 106.446 44.389C106.447 44.5296 106.453 44.6702 106.466 44.8107C106.478 44.9396 106.502 45.0625 106.538 45.1795C106.586 45.2847 106.656 45.3546 106.75 45.3893C106.542 45.9529 106.346 46.5106 106.162 47.0625C105.989 47.6142 105.846 48.1716 105.732 48.7348C105.617 49.2862 105.544 49.8432 105.512 50.4059C105.492 50.9685 105.536 51.5367 105.645 52.1103ZM111.276 50.1105C111.171 50.1345 111.095 50.1994 111.049 50.3051C111.003 50.3991 110.956 50.499 110.91 50.6047C110.875 50.7104 110.835 50.8102 110.788 50.9042C110.754 50.9864 110.695 51.0278 110.613 51.0282C110.602 51.122 110.567 51.2043 110.509 51.2749C110.463 51.3455 110.416 51.4219 110.37 51.5042C110.323 51.5747 110.289 51.657 110.266 51.7509C110.243 51.833 110.255 51.9326 110.303 52.0495C110.209 52.1203 110.151 52.2202 110.128 52.3493C110.106 52.4783 110.077 52.6015 110.043 52.7189C110.02 52.8362 109.973 52.9361 109.904 53.0185C109.834 53.1009 109.705 53.1368 109.518 53.1261C109.483 53.1732 109.477 53.2025 109.5 53.2141C109.524 53.2257 109.542 53.2666 109.554 53.3368C109.425 53.3141 109.325 53.3205 109.255 53.3561C109.197 53.4032 109.121 53.433 109.027 53.4452C108.804 53.3761 108.616 53.2541 108.463 53.0792C108.321 52.9042 108.191 52.7115 108.073 52.5012C107.966 52.2792 107.865 52.0571 107.77 51.8349C107.687 51.6127 107.604 51.4198 107.521 51.2562C107.555 51.1271 107.56 51.004 107.536 50.887C107.512 50.7582 107.471 50.653 107.412 50.5712C107.979 49.3493 108.599 48.0451 109.271 46.6586C109.943 45.2721 110.58 43.9033 111.182 42.5523C111.452 42.6563 111.716 42.7779 111.975 42.9171C112.245 43.0445 112.486 43.1955 112.698 43.3701C112.922 43.5447 113.11 43.7487 113.264 43.9823C113.418 44.2041 113.519 44.4555 113.567 44.7365C113.544 44.8069 113.515 44.8364 113.48 44.8248C113.456 44.8015 113.433 44.8075 113.409 44.8428C113.457 44.9011 113.48 44.942 113.48 44.9655C113.492 44.9888 113.492 45.0123 113.481 45.0358C113.481 45.0592 113.481 45.0944 113.481 45.1412C113.482 45.1764 113.499 45.229 113.535 45.2991C113.488 45.2877 113.453 45.2937 113.43 45.3173C113.418 45.3408 113.383 45.341 113.324 45.3179C113.372 45.4465 113.384 45.5519 113.361 45.6341C113.35 45.7162 113.327 45.7925 113.292 45.863C113.257 45.9218 113.228 45.9923 113.205 46.0744C113.182 46.1449 113.189 46.2386 113.224 46.3556C113.189 46.3558 113.16 46.3676 113.137 46.3912C113.125 46.403 113.113 46.4206 113.102 46.4441C113.09 46.4559 113.073 46.4736 113.049 46.4972C113.038 46.5089 113.014 46.5091 112.979 46.4975C113.016 46.7552 113.029 47.0129 113.019 47.2708C113.008 47.5286 112.998 47.7924 112.988 48.062C112.989 48.3198 112.997 48.5951 113.01 48.888C113.023 49.1692 113.066 49.462 113.138 49.7662C113.558 49.5178 113.89 49.1996 114.134 48.8115C114.39 48.4234 114.593 47.9887 114.742 47.5074C114.904 47.026 115.024 46.5097 115.103 45.9585C115.182 45.4073 115.267 44.8443 115.357 44.2696C115.462 44.1635 115.544 44.0342 115.601 43.8815C115.659 43.7288 115.711 43.5703 115.757 43.406C115.803 43.23 115.849 43.0598 115.895 42.8955C115.941 42.7194 115.998 42.5609 116.068 42.4199C116.244 42.4424 116.391 42.5002 116.508 42.5933C116.638 42.6746 116.755 42.7677 116.862 42.8726C116.968 42.9657 117.079 43.0589 117.197 43.152C117.315 43.2334 117.461 43.2853 117.637 43.3078C117.779 43.5062 117.909 43.6989 118.027 43.8857C118.145 44.0726 118.223 44.2714 118.259 44.4821C118.201 44.5762 118.155 44.6819 118.12 44.7993C118.097 44.9166 118.069 45.0339 118.034 45.1513C118 45.2687 117.953 45.3803 117.895 45.4861C117.837 45.5801 117.756 45.6626 117.651 45.7335C117.617 46.0384 117.572 46.3199 117.515 46.578C117.469 46.8244 117.418 47.0707 117.361 47.3172C117.315 47.5635 117.276 47.8215 117.242 48.0913C117.208 48.3493 117.198 48.6364 117.211 48.9528C117.119 49.2228 117.021 49.5105 116.917 49.8157C116.814 50.121 116.733 50.3968 116.676 50.6433C116.489 50.7966 116.344 50.9791 116.239 51.1906C116.135 51.4021 116.025 51.6136 115.909 51.8252C115.862 51.8724 115.833 51.8842 115.821 51.8609C115.809 51.8375 115.768 51.8201 115.698 51.8088C115.71 51.8556 115.71 51.8908 115.698 51.9143C115.687 51.9378 115.669 51.9613 115.646 51.9849C115.634 51.9967 115.623 52.0202 115.611 52.0554C115.612 52.0905 115.623 52.1374 115.647 52.1958C115.484 52.267 115.338 52.3674 115.209 52.4971C115.081 52.6267 114.941 52.7446 114.79 52.8509C114.649 52.9572 114.474 53.0285 114.263 53.0648C114.064 53.101 113.8 53.0615 113.472 52.9461C112.989 52.5972 112.559 52.1953 112.182 51.7403C111.816 51.2853 111.514 50.742 111.276 50.1105ZM128.166 43.2146C128.191 43.4723 128.233 43.6947 128.293 43.8819C128.353 44.0691 128.418 44.2503 128.489 44.4257C128.549 44.5895 128.603 44.7532 128.65 44.917C128.71 45.0691 128.752 45.2563 128.776 45.4788C128.684 45.784 128.616 46.0657 128.57 46.3237C128.536 46.5817 128.497 46.8515 128.452 47.133C128.266 47.5442 128.087 47.9085 127.913 48.2258C127.739 48.5432 127.6 48.8194 127.495 49.0543C127.437 49.1132 127.385 49.1838 127.338 49.2661C127.304 49.3366 127.263 49.413 127.217 49.4953C127.193 49.5306 127.164 49.5835 127.13 49.654C127.095 49.7245 127.066 49.7715 127.042 49.7951L126.69 49.674L126.622 50.1138L126.377 50.1855L126.202 50.3974C125.981 50.7853 125.749 51.1148 125.504 51.3856C125.26 51.6448 124.98 51.8807 124.664 52.0934C124.361 52.2943 124.01 52.4837 123.613 52.6617C123.227 52.8396 122.789 53.0354 122.298 53.249C122.098 53.2267 121.922 53.2159 121.77 53.2168C121.629 53.2058 121.495 53.1949 121.366 53.1839C121.143 53.1851 120.868 53.169 120.539 53.1357C120.504 53.0421 120.45 52.978 120.38 52.9432C120.309 52.9084 120.245 52.8912 120.186 52.8915C119.987 52.7989 119.833 52.6649 119.727 52.4897C119.632 52.3028 119.537 52.1041 119.443 51.8937C119.383 51.7651 119.324 51.6482 119.265 51.5431C119.206 51.4262 119.14 51.3094 119.069 51.1926L119.368 51.103L118.979 50.6833C118.955 50.6483 118.926 50.6191 118.89 50.5959C118.855 50.5609 118.826 50.5259 118.802 50.4909L118.783 50.2098C118.743 49.4014 118.722 48.6632 118.718 47.9952C118.726 47.3155 118.816 46.7115 118.989 46.1832L118.988 45.9898C119.022 45.7318 119.056 45.5207 119.09 45.3564C119.124 45.1805 119.153 45.0162 119.175 44.8638C119.209 44.6058 119.26 44.3652 119.329 44.1422C119.493 44.1061 119.616 44.041 119.698 43.9468C119.779 43.8409 119.849 43.7468 119.907 43.6644C120.071 43.6518 120.182 43.6746 120.241 43.7329C120.3 43.7911 120.359 43.8846 120.419 44.0132C120.478 44.1183 120.549 44.2351 120.632 44.3635C120.726 44.4919 120.861 44.5908 121.037 44.6601C121.061 44.7538 121.091 44.8532 121.127 44.9585C121.174 45.052 121.222 45.1572 121.269 45.2741C121.364 45.4728 121.447 45.6833 121.519 45.9056C121.602 46.116 121.65 46.3209 121.663 46.52C121.547 46.7433 121.455 47.0016 121.386 47.295C121.329 47.5883 121.29 47.8873 121.268 48.1921C121.258 48.4852 121.265 48.7722 121.29 49.0534C121.327 49.3227 121.381 49.5509 121.452 49.738L121.559 49.9659L121.858 49.9291C122.209 49.8335 122.524 49.7321 122.805 49.6251C123.097 49.5063 123.366 49.37 123.611 49.2163C123.857 49.0626 124.09 48.8856 124.312 48.6851C124.533 48.473 124.766 48.2315 125.011 47.9606C125.255 47.6897 125.465 47.3838 125.639 47.043C125.824 46.6904 125.974 46.3263 126.09 45.9507C126.216 45.575 126.308 45.2053 126.365 44.8417C126.433 44.4664 126.478 44.1145 126.5 43.7863C126.698 43.7149 126.797 43.5737 126.796 43.3628L126.76 43.1696C126.713 43.0996 126.712 43.0175 126.758 42.9235C126.828 42.7005 126.991 42.5297 127.248 42.4111C127.436 42.5272 127.601 42.6552 127.742 42.7951C127.895 42.9348 128.037 43.0747 128.166 43.2146ZM138.335 44.7055C138.042 44.7071 137.726 44.7323 137.386 44.781C137.046 44.818 136.713 44.8609 136.385 44.9096C136.151 44.946 135.922 44.9766 135.7 45.0012C135.489 45.0258 135.296 45.0445 135.12 45.0572C135.039 45.3154 134.959 45.5444 134.878 45.7441C134.797 45.9437 134.71 46.1376 134.617 46.3256C134.524 46.5253 134.438 46.7309 134.357 46.9423C134.288 47.1419 134.219 47.359 134.15 47.5938C134.033 47.782 133.935 47.9583 133.854 48.1228C133.784 48.2755 133.726 48.4516 133.681 48.6511C133.541 48.8276 133.437 49.0157 133.367 49.2153C133.298 49.4032 133.246 49.5676 133.212 49.7084L133.143 49.9197C133.073 49.9904 133.032 50.0492 133.021 50.0962C133.009 50.1314 132.98 50.1667 132.933 50.2021C132.922 50.3311 132.882 50.4602 132.812 50.5895C132.789 50.6482 132.772 50.7069 132.761 50.7656C132.749 50.8125 132.744 50.8477 132.744 50.8711C132.744 50.9883 132.715 51.0647 132.657 51.1001C132.669 51.1587 132.669 51.2231 132.658 51.2935C132.647 51.3521 132.635 51.4108 132.624 51.4695C132.59 51.6103 132.578 51.7217 132.591 51.8036C132.626 51.8503 132.656 51.8912 132.679 51.9262C132.715 51.9612 132.738 52.0079 132.75 52.0664C132.821 52.1129 132.874 52.1419 132.909 52.1534C132.956 52.1883 133.027 52.229 133.121 52.2753L133.28 52.4502C133.34 52.7898 133.289 53.0596 133.126 53.2597C132.951 53.4833 132.653 53.5963 132.231 53.5986L132.02 53.5998C131.962 53.5415 131.926 53.4948 131.914 53.4597C131.82 53.4251 131.744 53.3962 131.685 53.3731C131.626 53.35 131.574 53.3034 131.526 53.2333C131.374 53.1639 131.25 53.106 131.156 53.0596L130.997 52.9726C130.997 52.8437 130.996 52.7734 130.996 52.7616C130.914 52.6566 130.849 52.5398 130.801 52.4112C130.765 52.2824 130.735 52.1537 130.711 52.0249C130.687 51.9196 130.657 51.8201 130.621 51.7266C130.597 51.633 130.562 51.5511 130.515 51.4811C130.487 50.8015 130.549 50.227 130.698 49.7574C130.848 49.2878 131.004 48.8358 131.166 48.4013C131.258 48.1664 131.351 47.9315 131.443 47.6966C131.535 47.45 131.616 47.1976 131.685 46.9394L131.842 46.7628C131.923 46.5748 131.987 46.4221 132.033 46.3047C132.091 46.1754 132.149 46.0462 132.207 45.917C132.241 45.8348 132.27 45.7584 132.293 45.688C132.328 45.6058 132.357 45.5353 132.38 45.4766C132.31 45.477 132.245 45.4832 132.187 45.4952C132.128 45.4955 132.07 45.5017 132.011 45.5138C131.941 45.5259 131.876 45.5379 131.818 45.55C131.759 45.5503 131.701 45.5506 131.642 45.551C131.56 45.5514 131.501 45.5459 131.466 45.5343C131.338 45.5936 131.197 45.6237 131.045 45.6246L130.869 45.6255C130.834 45.6257 130.799 45.6259 130.764 45.6261C130.74 45.6145 130.717 45.6088 130.693 45.6089C130.576 45.6096 130.482 45.6277 130.412 45.6632C130.272 45.664 130.137 45.6647 130.008 45.6654L129.832 45.6664C129.809 45.6665 129.779 45.6725 129.744 45.6845C129.709 45.6846 129.68 45.6848 129.657 45.6849C129.574 45.6854 129.487 45.68 129.393 45.6688C129.299 45.6459 129.199 45.6054 129.093 45.5474C128.952 45.3607 128.857 45.2616 128.81 45.2501L128.651 45.0401C128.639 44.9698 128.621 44.9055 128.597 44.847C128.573 44.7768 128.549 44.7008 128.526 44.6189C128.478 44.502 128.431 44.3792 128.383 44.2505C128.347 44.1101 128.329 43.9461 128.328 43.7586C128.339 43.6648 128.362 43.5944 128.397 43.5473C128.432 43.5002 128.461 43.4591 128.484 43.4238L128.535 43.1598L128.764 43.1761L129.256 43.1734C129.631 43.1714 130.012 43.1576 130.398 43.132C130.785 43.0947 131.183 43.0573 131.593 43.0199C131.827 42.9952 132.062 42.9705 132.296 42.9457C132.542 42.921 132.794 42.8961 133.051 42.8713C133.097 42.7655 133.144 42.6657 133.19 42.5717L133.365 42.4828C133.576 42.4699 133.723 42.4984 133.805 42.5683C133.899 42.6264 133.976 42.6845 134.035 42.7428C134.293 42.7179 134.55 42.6931 134.808 42.6682C135.077 42.6316 135.347 42.5891 135.616 42.5407C136.014 42.4799 136.412 42.425 136.81 42.3759C137.22 42.3268 137.613 42.3012 137.988 42.2991C138.152 42.2982 138.31 42.3032 138.462 42.3141C138.615 42.325 138.755 42.3418 138.884 42.3645L139.061 42.4866C139.096 42.5567 139.144 42.6209 139.203 42.6792C139.273 42.7374 139.344 42.7956 139.414 42.8538C139.556 42.9819 139.697 43.1335 139.839 43.3085C139.98 43.4835 140.035 43.741 140.001 44.081C139.908 44.2222 139.839 44.3046 139.792 44.3283L139.635 44.5401L139.459 44.5235C139.389 44.5239 139.324 44.536 139.266 44.5597C139.207 44.5718 139.149 44.5897 139.09 44.6134C139.043 44.6371 138.997 44.6608 138.95 44.6845C138.903 44.6965 138.85 44.7085 138.792 44.7205C138.686 44.7211 138.599 44.7216 138.528 44.722C138.47 44.7106 138.405 44.7051 138.335 44.7055ZM146.764 43.2176C146.776 43.2996 146.777 43.364 146.765 43.411C146.766 43.4461 146.76 43.4813 146.748 43.5165C146.749 43.5517 146.749 43.5927 146.749 43.6396C146.749 43.6747 146.761 43.7332 146.785 43.8152C146.541 44.2149 146.256 44.4919 145.928 44.6461C145.613 44.7884 145.268 44.8958 144.893 44.9682C144.518 45.0288 144.132 45.0954 143.734 45.1679C143.348 45.2404 142.962 45.3948 142.576 45.6313C142.424 45.5736 142.283 45.5744 142.154 45.6337C142.038 45.6929 141.862 45.7114 141.627 45.6893C141.557 45.76 141.47 45.8132 141.365 45.849C141.259 45.873 141.154 45.9028 141.049 45.9386C141.096 46.0438 141.114 46.155 141.103 46.2723C141.104 46.3777 141.122 46.4655 141.157 46.5357C141.568 46.5685 142.019 46.5602 142.511 46.5106C143.014 46.461 143.507 46.429 143.987 46.4146C143.999 46.4731 143.993 46.5142 143.97 46.5377C143.947 46.5496 143.941 46.5789 143.953 46.6257C144.035 46.6839 144.118 46.7596 144.2 46.8529C144.283 46.9345 144.365 47.016 144.448 47.0976C144.53 47.1792 144.613 47.249 144.695 47.3072C144.789 47.3535 144.895 47.3705 145.012 47.3582C145.059 47.4517 145.089 47.557 145.101 47.6741C145.125 47.7794 145.114 47.8908 145.068 48.0083C144.881 48.1382 144.694 48.274 144.508 48.4157C144.321 48.5456 144.122 48.6639 143.912 48.7705C143.713 48.8771 143.497 48.9662 143.263 49.0378C143.041 49.0976 142.789 49.1224 142.508 49.1122C142.449 49.1126 142.402 49.1128 142.367 49.113C142.344 49.1131 142.308 49.0958 142.261 49.0609C142.168 49.12 142.033 49.1383 141.857 49.1158C141.693 49.0933 141.564 49.1116 141.471 49.1707C141.342 49.1128 141.183 49.0902 140.996 49.103C140.82 49.104 140.662 49.0814 140.521 49.0353C140.335 49.2824 140.166 49.547 140.015 49.8291C139.865 50.1112 139.732 50.4108 139.616 50.7278C140.015 50.7842 140.343 50.8058 140.601 50.7927C140.87 50.7795 141.122 50.7605 141.356 50.7358C141.591 50.6993 141.831 50.6687 142.077 50.6439C142.322 50.6074 142.633 50.594 143.008 50.6036C143.242 50.4734 143.517 50.3899 143.833 50.353C144.161 50.3043 144.459 50.2324 144.728 50.1371C144.822 50.1718 144.904 50.2358 144.975 50.3291C145.046 50.4108 145.111 50.4924 145.17 50.5742C145.241 50.6441 145.311 50.7081 145.382 50.7663C145.453 50.8246 145.541 50.8475 145.646 50.8352C145.693 50.8818 145.723 50.9403 145.735 51.0105C145.759 51.069 145.777 51.1275 145.789 51.186C145.801 51.2445 145.819 51.2972 145.842 51.3439C145.878 51.3789 145.93 51.3903 146.001 51.3782C145.827 51.7659 145.624 52.0658 145.39 52.278C145.169 52.4785 144.912 52.6322 144.619 52.7393C144.327 52.8464 143.999 52.9302 143.636 52.9908C143.285 53.0514 142.893 53.1238 142.46 53.2083C142.355 53.2323 142.267 53.2269 142.196 53.1921C142.126 53.1691 142.044 53.1578 141.95 53.1583C141.681 53.2184 141.359 53.2729 140.984 53.3219C140.609 53.3708 140.228 53.3905 139.842 53.3809C139.455 53.3713 139.085 53.3206 138.733 53.2288C138.381 53.1487 138.093 52.9979 137.87 52.7765C137.775 52.695 137.71 52.6016 137.675 52.4963C137.651 52.3793 137.574 52.2918 137.445 52.2339C137.432 52.0817 137.408 51.9119 137.372 51.7246C137.335 51.5373 137.299 51.3441 137.263 51.1451C137.227 50.9343 137.196 50.7294 137.172 50.5303C137.159 50.3312 137.169 50.1495 137.204 49.9852C137.238 49.8092 137.307 49.6507 137.412 49.5095C137.528 49.3682 137.569 49.2156 137.533 49.0518C137.591 49.0397 137.626 49.0102 137.638 48.9633C137.649 48.9046 137.696 48.8809 137.778 48.8922C137.847 48.6809 137.922 48.4812 138.003 48.2933C138.084 48.1053 138.165 47.9233 138.246 47.747C138.339 47.5707 138.426 47.3945 138.507 47.2182C138.6 47.0302 138.686 46.8247 138.767 46.6016C138.602 46.4501 138.478 46.2867 138.395 46.1114C138.324 45.9243 138.27 45.743 138.234 45.5674C138.198 45.3801 138.168 45.1927 138.143 45.0054C138.119 44.8063 138.076 44.6073 138.017 44.4084C138.133 44.232 138.273 44.0906 138.436 43.9842C138.611 43.866 138.798 43.7713 138.997 43.6999C139.196 43.6284 139.413 43.5687 139.647 43.5205C139.881 43.4723 140.127 43.4182 140.384 43.3582C140.852 43.2033 141.267 43.0838 141.63 42.9998C142.005 42.9157 142.368 42.8492 142.719 42.8004C143.082 42.7398 143.457 42.685 143.843 42.636C144.229 42.587 144.669 42.5143 145.16 42.4178C145.266 42.5227 145.366 42.5749 145.46 42.5744C145.506 42.4687 145.559 42.4391 145.618 42.4856C145.688 42.5204 145.717 42.4851 145.705 42.3797C145.823 42.5782 145.971 42.7474 146.147 42.887C146.335 43.0149 146.541 43.1251 146.764 43.2176ZM146.635 45.2047C146.715 44.9581 146.843 44.7465 147.018 44.5697C147.204 44.3929 147.403 44.2453 147.613 44.127C147.835 43.9969 148.063 43.8901 148.297 43.8068C148.531 43.7235 148.753 43.652 148.964 43.5922C149.431 43.3904 149.928 43.2002 150.455 43.0215C150.993 42.831 151.537 42.664 152.087 42.5203C152.648 42.3766 153.222 42.2855 153.808 42.2471C154.394 42.197 155.009 42.264 155.655 42.4479C155.69 42.5649 155.744 42.6759 155.815 42.781C155.886 42.8861 155.957 42.9912 156.027 43.0962C156.11 43.2013 156.181 43.3063 156.24 43.4115C156.299 43.5049 156.335 43.6043 156.347 43.7097C156.465 43.8146 156.559 43.9312 156.63 44.0597C156.701 44.1765 156.714 44.3347 156.668 44.5341C156.551 44.6285 156.435 44.7171 156.318 44.7998C156.213 44.8706 156.096 44.9357 155.968 44.995C155.533 44.892 155.094 44.8592 154.649 44.8968C154.204 44.9345 153.805 44.9659 153.454 44.9913C153.348 44.8864 153.219 44.8344 153.066 44.8352C152.926 44.836 152.773 44.8603 152.61 44.9081C152.458 44.9558 152.3 45.0035 152.136 45.0513C151.984 45.099 151.837 45.1116 151.697 45.0889C151.58 45.1833 151.434 45.2485 151.258 45.2847C151.094 45.309 150.913 45.3334 150.714 45.358C150.702 45.4166 150.714 45.4576 150.749 45.4808C150.785 45.4924 150.791 45.5275 150.768 45.5862C150.838 45.6678 150.927 45.726 151.032 45.7605C151.15 45.795 151.267 45.8296 151.384 45.8641C151.513 45.8985 151.625 45.9448 151.719 46.0028C151.813 46.0492 151.878 46.1309 151.914 46.2479C152.09 46.2469 152.242 46.2871 152.372 46.3684C152.501 46.4497 152.607 46.5487 152.69 46.6655C152.772 46.7822 152.832 46.9108 152.867 47.0512C152.915 47.1799 152.939 47.2969 152.94 47.4024C152.975 47.4959 153.017 47.5367 153.063 47.5248C153.11 47.5128 153.163 47.5359 153.222 47.5942C153.258 47.7463 153.347 47.9041 153.488 48.0673C153.63 48.2189 153.742 48.3882 153.825 48.5753C153.85 48.8681 153.869 49.1317 153.882 49.366C153.895 49.5886 153.855 49.8173 153.763 50.0522C153.59 50.4867 153.346 50.8748 153.031 51.2164C152.728 51.5579 152.378 51.8645 151.981 52.1363C151.596 52.3962 151.181 52.6211 150.737 52.8111C150.293 53.001 149.86 53.1616 149.439 53.2929C149.392 53.2814 149.345 53.2817 149.298 53.2936C149.252 53.3056 149.24 53.2764 149.263 53.2059C149.169 53.2885 149.064 53.3418 148.947 53.3659C148.842 53.3899 148.725 53.3964 148.596 53.3854C148.467 53.3861 148.332 53.381 148.191 53.37C148.062 53.359 147.939 53.3656 147.822 53.3897C147.74 53.3081 147.663 53.2265 147.592 53.1448C147.533 53.0748 147.486 52.9813 147.45 52.8644C147.392 52.8647 147.362 52.8355 147.362 52.777C147.373 52.7183 147.356 52.6891 147.309 52.6894C147.378 52.5718 147.407 52.5072 147.395 52.4955C147.395 52.4721 147.378 52.4546 147.342 52.4431C147.319 52.4315 147.295 52.4199 147.272 52.4083C147.248 52.385 147.242 52.3557 147.254 52.3205C147.3 52.2265 147.317 52.1209 147.305 52.0038C147.292 51.875 147.28 51.7461 147.268 51.6173C147.255 51.4885 147.26 51.3654 147.283 51.2481C147.318 51.1307 147.405 51.0365 147.545 50.9654C147.944 51.01 148.319 50.9963 148.67 50.924C149.033 50.84 149.372 50.7268 149.688 50.5844C150.003 50.4421 150.301 50.2881 150.582 50.1225C150.874 49.9568 151.16 49.8087 151.441 49.6783C151.475 49.5726 151.522 49.4845 151.58 49.4138C151.65 49.3431 151.72 49.2783 151.79 49.2193C151.86 49.1603 151.924 49.0955 151.982 49.0249C152.04 48.9542 152.081 48.8661 152.103 48.7605C152.115 48.6784 152.091 48.6317 152.032 48.6203C151.985 48.5971 151.962 48.5504 151.961 48.4801L151.768 48.4284C151.544 48.3007 151.292 48.1966 151.01 48.1162C150.728 48.024 150.488 47.9257 150.288 47.8213C150.159 47.8923 150.036 47.9106 149.919 47.8761C149.813 47.8415 149.672 47.8071 149.496 47.7729C149.098 47.7517 148.711 47.7128 148.336 47.6563C147.972 47.5997 147.62 47.4962 147.279 47.3457C147.255 47.2872 147.226 47.2346 147.19 47.188C147.155 47.1413 147.09 47.1299 146.997 47.1539C146.926 47.0605 146.855 46.973 146.784 46.8914C146.714 46.798 146.649 46.6988 146.589 46.5936C146.612 46.4529 146.629 46.3356 146.64 46.2418C146.651 46.1362 146.616 46.0368 146.533 45.9435C146.579 45.7909 146.614 45.6677 146.637 45.5738C146.66 45.4799 146.659 45.3569 146.635 45.2047ZM159.531 40.95C159.532 41.0554 159.515 41.1844 159.481 41.337C159.458 41.4894 159.435 41.6419 159.413 41.7944C159.39 41.9468 159.385 42.0875 159.398 42.2163C159.41 42.3335 159.463 42.4093 159.557 42.444C159.35 43.0662 159.206 43.5885 159.126 44.0108C159.058 44.4331 158.996 44.8377 158.94 45.2248C158.895 45.6 158.832 45.9988 158.753 46.4211C158.673 46.8434 158.529 47.3599 158.322 47.9704C158.195 48.3461 158.038 48.6106 157.852 48.764C157.665 48.9057 157.466 48.9771 157.255 48.9782C157.044 48.9794 156.827 48.922 156.604 48.8061C156.38 48.6901 156.175 48.5623 155.986 48.4227C155.95 48.2003 155.943 47.9308 155.964 47.6142C155.998 47.2859 156.037 46.9459 156.082 46.594C156.127 46.2422 156.172 45.908 156.217 45.5913C156.262 45.263 156.296 44.9874 156.318 44.7646C156.434 44.635 156.516 44.5291 156.562 44.4468C156.609 44.3646 156.637 44.2765 156.649 44.1827C156.672 44.0888 156.688 43.9715 156.699 43.8308C156.71 43.6902 156.739 43.4908 156.784 43.2327C156.807 43.1037 156.794 42.9924 156.747 42.8989C156.711 42.7936 156.705 42.6941 156.728 42.6002C156.751 42.5532 156.786 42.5178 156.833 42.4941C156.891 42.4704 156.926 42.4292 156.937 42.3705C156.984 42.2179 156.995 42.1007 156.971 42.0188C156.947 41.9252 156.964 41.8137 157.022 41.6845C157.08 41.5904 157.149 41.4436 157.23 41.2439C157.323 41.0324 157.357 40.8155 157.332 40.5929C157.437 40.5103 157.536 40.416 157.629 40.31C157.722 40.2041 157.816 40.1098 157.909 40.0272C158.014 39.9329 158.125 39.8561 158.242 39.7969C158.37 39.7376 158.522 39.7075 158.698 39.7065C158.793 39.8349 158.864 39.9575 158.911 40.0745C158.959 40.1914 159 40.3025 159.036 40.4078C159.084 40.513 159.143 40.6123 159.213 40.7056C159.284 40.799 159.39 40.8804 159.531 40.95ZM157.846 50.9613C157.87 51.055 157.888 51.1428 157.9 51.2247C157.913 51.3067 157.925 51.3945 157.937 51.4882C157.868 51.7347 157.793 51.9578 157.712 52.1574C157.677 52.2396 157.654 52.2925 157.643 52.316C157.631 52.3395 157.625 52.3571 157.625 52.3688C157.625 52.3806 157.631 52.3981 157.643 52.4215C157.655 52.4331 157.661 52.48 157.662 52.562L157.575 52.7734C157.517 52.8558 157.447 52.9206 157.365 52.9679C157.295 53.0152 157.219 53.0566 157.137 53.0922C157.102 53.1159 157.061 53.1337 157.014 53.1457C156.979 53.1693 156.95 53.1929 156.927 53.2164L156.875 53.4277L156.629 53.4642C156.442 53.5121 156.272 53.5365 156.12 53.5373L155.927 53.5384C155.785 53.4102 155.674 53.3112 155.591 53.2414C155.509 53.1715 155.415 53.1076 155.309 53.0496C155.179 52.8276 155.101 52.6347 155.077 52.4708C155.053 52.3186 155.023 52.2191 154.988 52.1724L154.74 51.9277L154.95 51.7683L154.737 51.4355C154.877 51.3293 154.982 51.2525 155.053 51.2053C155.123 51.158 155.181 51.1108 155.228 51.0637C155.286 51.0048 155.344 50.9341 155.402 50.8518C155.46 50.7694 155.553 50.6341 155.681 50.4459L155.838 50.2165L156.05 50.3384C156.109 50.3733 156.214 50.4078 156.367 50.4421C156.531 50.4647 156.672 50.4873 156.789 50.5101C156.977 50.5677 157.159 50.6136 157.335 50.6478C157.522 50.6702 157.669 50.7279 157.775 50.8211L157.846 50.9613Z" fill="#008FDB"/>
<path d="M19.8173 0.0324671L9.85415 14.2006L27.1057 15.7449L19.8173 0.0324671ZM23.4412 30.2961C24.7941 29.6484 24.7942 29.6486 24.7943 29.6487C24.7943 29.6487 24.7944 29.6489 24.7944 29.6489C24.7944 29.649 24.7944 29.6489 24.7943 29.6487C24.7941 29.6484 24.7937 29.6475 24.7931 29.6462C24.7919 29.6436 24.7897 29.6391 24.7867 29.6328C24.7807 29.6201 24.7713 29.6 24.7586 29.5727C24.7332 29.5181 24.6947 29.4347 24.6447 29.3241C24.5448 29.1028 24.3991 28.773 24.2199 28.3477C23.8615 27.4967 23.3704 26.2655 22.8459 24.7584C21.7943 21.7365 20.6218 17.6425 20.1032 13.299L17.1244 13.6547C17.6772 18.2845 18.9183 22.6001 20.0126 25.7444C20.561 27.3205 21.0759 28.6117 21.4552 29.5122C21.6449 29.9626 21.8009 30.3159 21.9106 30.5588C21.9655 30.6802 22.0087 30.7741 22.0388 30.8388C22.0539 30.8712 22.0657 30.8962 22.074 30.9138C22.0781 30.9226 22.0814 30.9295 22.0838 30.9345C22.085 30.937 22.0859 30.939 22.0867 30.9406C22.087 30.9413 22.0873 30.942 22.0876 30.9425C22.0877 30.9428 22.0879 30.9431 22.0879 30.9432C22.0881 30.9435 22.0882 30.9438 23.4412 30.2961Z" fill="#008FDB"/>
</svg>
