<svg width="247" height="44" viewBox="0 0 247 44" fill="none" xmlns="http://www.w3.org/2000/svg">
<path d="M78.041 26.2285C77.6309 26.041 77.3027 25.7656 77.0566 25.4023C76.8223 25.0391 76.5879 24.6348 76.3535 24.1895C76.3184 24.1191 76.2832 24.0488 76.248 23.9785C76.2129 23.9082 76.1777 23.8438 76.1426 23.7852L75.8965 23.3281L75.7559 23.0469L75.5449 23.2402L75.2285 23.5215L75.0527 23.6973C74.748 23.9785 74.4375 24.2598 74.1211 24.541C73.8164 24.8105 73.4883 25.0566 73.1367 25.2793C72.7969 25.4902 72.4336 25.666 72.0469 25.8066C71.6719 25.9355 71.2617 26.0059 70.8164 26.0176L70.4297 25.8242C70.207 25.707 70.0195 25.6016 69.8672 25.5078C69.7148 25.4141 69.5391 25.2676 69.3398 25.0684C69.2812 24.9629 69.2285 24.8633 69.1816 24.7695C69.1465 24.6758 69.1055 24.582 69.0586 24.4883C68.9297 24.2539 68.8242 24.043 68.7422 23.8555C68.6602 23.668 68.5781 23.457 68.4961 23.2227C68.5312 23.0586 68.584 22.7832 68.6543 22.3965C68.7246 21.998 68.8066 21.5645 68.9004 21.0957C69.0059 20.627 69.1113 20.1582 69.2168 19.6895C69.334 19.209 69.4512 18.793 69.5684 18.4414C69.6738 18.1367 69.791 17.8145 69.9199 17.4746C70.0605 17.1348 70.207 16.8242 70.3594 16.543C70.5234 16.25 70.6992 16.0039 70.8867 15.8047C71.0742 15.5938 71.2734 15.4707 71.4844 15.4355C71.543 15.5176 71.6074 15.5762 71.6777 15.6113C71.748 15.6465 71.8125 15.6758 71.8711 15.6992C72.0352 15.9336 72.1934 16.1328 72.3457 16.2969C72.5098 16.4609 72.6973 16.625 72.9082 16.7891C72.8496 17.082 72.7617 17.4102 72.6445 17.7734C72.5391 18.125 72.4219 18.4824 72.293 18.8457C72.1758 19.1973 72.0586 19.543 71.9414 19.8828C71.8242 20.2227 71.7305 20.5156 71.6602 20.7617C71.5898 20.9609 71.5312 21.1836 71.4844 21.4297C71.3789 21.8633 71.2793 22.4551 71.1855 23.2051C71.3262 23.1699 71.4785 23.0938 71.6426 22.9766C71.8066 22.8594 71.9648 22.7363 72.1172 22.6074C72.293 22.4668 72.4688 22.3086 72.6445 22.1328C72.8672 21.9102 73.0547 21.7051 73.207 21.5176C73.3594 21.3301 73.5 21.1367 73.6289 20.9375C73.7695 20.7383 73.9102 20.5215 74.0508 20.2871C74.1914 20.041 74.3613 19.7539 74.5605 19.4258C74.7363 19.1445 74.918 18.8457 75.1055 18.5293C75.3047 18.2012 75.498 17.8906 75.6855 17.5977C75.8848 17.293 76.0781 17.0176 76.2656 16.7715C76.4531 16.5254 76.623 16.332 76.7754 16.1914C76.8691 16.3086 76.9863 16.4199 77.127 16.5254C77.2793 16.6309 77.4375 16.7129 77.6016 16.7715C77.6719 16.877 77.7363 16.9766 77.7949 17.0703C77.8652 17.1523 77.9297 17.2285 77.9883 17.2988C78.0586 17.4043 78.123 17.5039 78.1816 17.5977C78.252 17.6914 78.3164 17.7852 78.375 17.8789C78.3633 17.9609 78.3457 18.0664 78.3223 18.1953C78.2988 18.3242 78.2695 18.4648 78.2344 18.6172C78.2109 18.7695 78.1816 18.9277 78.1465 19.0918C78.1113 19.2441 78.0762 19.3906 78.041 19.5312C77.9473 19.9766 77.877 20.3105 77.8301 20.5332C77.7832 20.7559 77.748 20.9316 77.7246 21.0605C77.7129 21.1895 77.7012 21.3008 77.6895 21.3945C77.6895 21.4766 77.6895 21.5938 77.6895 21.7461C77.6777 21.8633 77.6836 21.9805 77.707 22.0977C77.7188 22.2031 77.7422 22.3145 77.7773 22.4316C77.8125 22.5488 77.8594 22.6543 77.918 22.748L78.6211 22.2031C78.8203 22.0508 79.0078 21.8457 79.1836 21.5879C79.3711 21.3184 79.5469 21.0137 79.7109 20.6738C79.8867 20.3223 80.0566 19.9414 80.2207 19.5312C80.3848 19.1211 80.5488 18.7051 80.7129 18.2832C80.959 17.6621 81.2051 17.0586 81.4512 16.4727C81.709 15.8867 81.9551 15.4355 82.1895 15.1191C82.4473 15.2832 82.6699 15.4531 82.8574 15.6289C83.0566 15.793 83.2266 15.9746 83.3672 16.1738C83.5078 16.373 83.6191 16.6016 83.7012 16.8594C83.7949 17.1172 83.8594 17.4219 83.8945 17.7734C83.6836 18.1836 83.4785 18.6055 83.2793 19.0391C83.0918 19.4727 82.9102 19.9062 82.7344 20.3398C82.5 20.9023 82.2539 21.4648 81.9961 22.0273C81.75 22.5898 81.4746 23.1289 81.1699 23.6445C80.8652 24.1484 80.5254 24.6172 80.1504 25.0508C79.7754 25.4727 79.3418 25.8301 78.8496 26.123C78.7207 26.0879 78.6094 26.0703 78.5156 26.0703C78.3281 26.0703 78.1699 26.123 78.041 26.2285ZM91.998 24.2949C92.0215 24.5996 91.9863 24.8516 91.8926 25.0508C91.7988 25.25 91.6699 25.4199 91.5059 25.5605C91.3418 25.7012 91.1543 25.8125 90.9434 25.8945C90.7324 25.9766 90.5273 26.0527 90.3281 26.123C90.2344 26.0645 90.1406 26.0059 90.0469 25.9473C89.9648 25.877 89.8652 25.8242 89.748 25.7891C89.5957 25.5078 89.4492 25.2617 89.3086 25.0508C89.168 24.8281 89.1035 24.5762 89.1152 24.2949C89.1152 24.2832 89.1211 24.2188 89.1328 24.1016C89.1562 23.9844 89.1797 23.8555 89.2031 23.7148C89.2383 23.5742 89.2617 23.4453 89.2734 23.3281C89.2969 23.1992 89.3086 23.1289 89.3086 23.1172C89.0391 23.1406 88.7578 23.1992 88.4648 23.293C88.1719 23.3867 87.8848 23.498 87.6035 23.627C87.334 23.7559 87.0762 23.8848 86.8301 24.0137C86.5957 24.1426 86.4023 24.2539 86.25 24.3477C86.25 24.3828 86.2266 24.4707 86.1797 24.6113C86.1328 24.7402 86.0742 24.8809 86.0039 25.0332C85.9336 25.1738 85.8574 25.3027 85.7754 25.4199C85.6934 25.5371 85.6113 25.5957 85.5293 25.5957C85.541 25.6309 85.5586 25.666 85.582 25.7012C85.6055 25.7363 85.6055 25.7832 85.582 25.8418C85.418 25.8887 85.2715 25.9473 85.1426 26.0176C85.0137 26.0996 84.8789 26.1641 84.7383 26.2109C84.5977 26.2695 84.4453 26.2988 84.2812 26.2988C84.1172 26.2988 83.9238 26.2402 83.7012 26.123C83.7012 26.0527 83.6719 25.9941 83.6133 25.9473C83.5547 25.8887 83.4902 25.8418 83.4199 25.8066C83.3613 25.7598 83.3086 25.7246 83.2617 25.7012C83.2148 25.666 83.1914 25.6367 83.1914 25.6133C83.1328 25.625 83.1094 25.584 83.1211 25.4902C83.1328 25.3965 83.1797 25.373 83.2617 25.4199C83.1328 25.2559 83.0508 25.1152 83.0156 24.998C82.9922 24.8691 82.9277 24.7109 82.8223 24.5234C82.8457 24.5 82.8691 24.459 82.8926 24.4004C82.9043 24.3418 82.916 24.2891 82.9277 24.2422C82.9395 24.1953 82.957 24.1602 82.9805 24.1367C83.0039 24.1133 83.0332 24.1191 83.0684 24.1543C83.0449 24.0488 83.0449 23.9609 83.0684 23.8906C83.0918 23.8203 83.1152 23.7559 83.1387 23.6973C83.1621 23.6387 83.1797 23.5801 83.1914 23.5215C83.2031 23.4629 83.1855 23.3984 83.1387 23.3281C83.3262 23.0703 83.4492 22.7949 83.5078 22.502C83.5664 22.1973 83.6016 21.9219 83.6133 21.6758C83.6953 21.5938 83.7656 21.4766 83.8242 21.3242C83.8945 21.1719 83.9473 21.0195 83.9824 20.8672C84.0176 20.7031 84.0293 20.5508 84.0176 20.4102C84.0176 20.2578 84 20.1348 83.9648 20.041C83.9766 19.9824 84.041 19.9648 84.1582 19.9883C84.2285 19.6016 84.2754 19.168 84.2988 18.6875C84.334 18.1953 84.3867 17.7324 84.457 17.2988C84.5273 16.8535 84.6445 16.4668 84.8086 16.1387C84.9727 15.7988 85.2363 15.5762 85.5996 15.4707C85.6699 15.7168 85.7578 15.9336 85.8633 16.1211C85.9805 16.3086 86.1035 16.4902 86.2324 16.666C86.373 16.8301 86.5078 17 86.6367 17.1758C86.7773 17.3516 86.9062 17.5508 87.0234 17.7734C87.0117 17.9961 86.9883 18.2539 86.9531 18.5469C86.918 18.8398 86.8711 19.1387 86.8125 19.4434C86.7656 19.748 86.7129 20.041 86.6543 20.3223C86.6074 20.6035 86.5605 20.8438 86.5137 21.043C86.5254 21.1016 86.5547 21.1367 86.6016 21.1484C86.6602 21.1602 86.6719 21.2129 86.6367 21.3066C86.918 21.2363 87.2109 21.1719 87.5156 21.1133C87.8203 21.0547 88.125 20.9902 88.4297 20.9199C88.7344 20.8496 89.0273 20.7734 89.3086 20.6914C89.6016 20.5977 89.8711 20.4863 90.1172 20.3574C90.1758 19.9004 90.252 19.4434 90.3457 18.9863C90.4395 18.5293 90.4512 18.0605 90.3809 17.5801C90.4395 17.5332 90.4863 17.4746 90.5215 17.4043C90.5566 17.334 90.6152 17.2871 90.6973 17.2637C90.6387 17.041 90.6152 16.8066 90.627 16.5605C90.6387 16.3145 90.6797 16.0801 90.75 15.8574C90.832 15.6348 90.9434 15.4473 91.084 15.2949C91.2363 15.1309 91.418 15.0254 91.6289 14.9785C91.7578 15.166 91.8691 15.3711 91.9629 15.5938C92.0566 15.8047 92.1504 16.0215 92.2441 16.2441C92.3496 16.4551 92.4551 16.6602 92.5605 16.8594C92.6777 17.0469 92.8242 17.2109 93 17.3516C93.0352 17.6914 93.0586 18.043 93.0703 18.4062C93.0938 18.7695 93.1113 19.1387 93.123 19.5137C93.0293 19.959 92.9238 20.3926 92.8066 20.8145C92.7012 21.2246 92.625 21.6641 92.5781 22.1328C92.4961 22.2266 92.4316 22.332 92.3848 22.4492C92.3379 22.5664 92.291 22.6895 92.2441 22.8184C92.1973 22.9355 92.1445 23.0527 92.0859 23.1699C92.0273 23.2754 91.957 23.3691 91.875 23.4512C91.9219 23.5918 91.9277 23.7266 91.8926 23.8555C91.8691 23.9727 91.9043 24.1191 91.998 24.2949ZM99.0996 21.3945C99.0176 21.4648 98.9473 21.5527 98.8887 21.6582C98.8301 21.752 98.7715 21.8516 98.7129 21.957C98.6543 22.0859 98.5898 22.209 98.5195 22.3262C98.4492 22.4434 98.3613 22.5488 98.2559 22.6426C98.1973 22.8184 98.1387 22.959 98.0801 23.0645C98.0215 23.1582 97.9277 23.2695 97.7988 23.3984C97.6816 23.8672 97.4062 24.377 96.9727 24.9277C96.9609 25.0332 96.9258 25.1387 96.8672 25.2441C96.8203 25.3379 96.7676 25.4316 96.709 25.5254C96.6855 25.5605 96.6621 25.6016 96.6387 25.6484C96.6152 25.6836 96.5977 25.7129 96.5859 25.7363L96.5508 25.9121C96.4922 26.0059 96.4277 26.0879 96.3574 26.1582C96.2871 26.2285 96.2227 26.293 96.1641 26.3516C96.1406 26.3867 96.0996 26.4336 96.041 26.4922L95.7773 26.5977C94.9219 26.4805 94.4004 26.0234 94.2129 25.2266L94.2305 25.0508C94.2539 24.9922 94.2715 24.9336 94.2832 24.875C94.3066 24.8047 94.3301 24.7344 94.3535 24.6641C94.4004 24.5 94.4531 24.3359 94.5117 24.1719C94.582 24.0078 94.6816 23.8613 94.8105 23.7324C94.834 23.6504 94.8867 23.5215 94.9688 23.3457C95.0508 23.1582 95.1914 22.8828 95.3906 22.5195C95.5547 22.2383 95.6836 22.0156 95.7773 21.8516C95.8711 21.6875 95.9473 21.5586 96.0059 21.4648C95.8887 21.2773 95.748 21.1074 95.584 20.9551C95.4316 20.6621 95.2969 20.3809 95.1797 20.1113C95.0742 19.8418 94.9922 19.6016 94.9336 19.3906C94.9219 19.2383 94.9043 19.1094 94.8809 19.0039C94.8574 18.8984 94.834 18.7871 94.8105 18.6699C94.7754 18.541 94.7461 18.4121 94.7227 18.2832C94.6992 18.1543 94.6875 18.0195 94.6875 17.8789C94.6289 17.7969 94.5938 17.7148 94.582 17.6328L94.6172 17.457C94.6523 17.375 94.6582 17.2695 94.6348 17.1406C94.6113 17 94.582 16.8594 94.5469 16.7188C94.5234 16.6016 94.4941 16.4727 94.459 16.332C94.4355 16.1914 94.4297 16.0508 94.4414 15.9102C94.4531 15.7695 94.4883 15.6406 94.5469 15.5234C94.6172 15.3945 94.7285 15.2832 94.8809 15.1895L95.1797 15.1719C95.2852 15.2305 95.3848 15.2891 95.4785 15.3477C95.584 15.3945 95.6836 15.4473 95.7773 15.5059C95.9062 15.5645 96.0293 15.623 96.1465 15.6816C96.2637 15.7402 96.3867 15.8164 96.5156 15.9102L96.6387 16.1562L96.8672 16.3496V16.543C96.8789 16.5898 96.8848 16.6543 96.8848 16.7363C96.8848 16.8887 96.9082 16.9824 96.9551 17.0176L97.0254 17.2285C97.0254 17.3926 97.043 17.5508 97.0781 17.7031C97.1133 17.8438 97.1484 17.9785 97.1836 18.1074C97.2188 18.2363 97.2539 18.3711 97.2891 18.5117C97.3242 18.6523 97.3301 18.8047 97.3066 18.9688C97.377 18.9336 97.4355 18.8926 97.4824 18.8457C97.5059 18.8223 97.5293 18.8047 97.5527 18.793C97.5762 18.7812 97.5996 18.7637 97.623 18.7402L98.6602 17.334L98.625 17.1582L98.9941 16.8066C99.0879 16.7129 99.1758 16.625 99.2578 16.543C99.3516 16.4609 99.4277 16.373 99.4863 16.2793L99.6797 16.1387C100.055 15.5527 100.588 15.1895 101.279 15.0488L101.525 15.0137L101.596 15.2422C101.643 15.3711 101.736 15.4883 101.877 15.5938C102.029 15.6992 102.188 15.7988 102.352 15.8926L102.51 15.998C102.568 16.1152 102.598 16.2031 102.598 16.2617C102.598 16.3203 102.592 16.373 102.58 16.4199L102.65 16.5957C102.557 16.877 102.439 17.082 102.299 17.2109C102.17 17.3398 102.041 17.457 101.912 17.5625C101.807 17.6562 101.707 17.7441 101.613 17.8262C101.531 17.8965 101.467 17.9902 101.42 18.1074L101.297 18.248C101.051 18.3887 100.893 18.5762 100.822 18.8105L100.77 19.0215H100.559C100.547 19.0215 100.518 19.0449 100.471 19.0918C100.436 19.127 100.377 19.2266 100.295 19.3906C100.213 19.5078 100.154 19.584 100.119 19.6191C100.084 19.6543 100.055 19.6836 100.031 19.707C100.02 19.7539 100.002 19.8008 99.9785 19.8477C99.9668 19.8828 99.9492 19.9297 99.9258 19.9883C99.7734 20.1406 99.6797 20.2578 99.6445 20.3398C99.6094 20.4102 99.5684 20.4922 99.5215 20.5859C99.4746 20.6797 99.4277 20.7734 99.3809 20.8672C99.3457 20.9492 99.2812 21.0371 99.1875 21.1309L99.0996 21.3945ZM117.592 20.7266C117.58 20.8672 117.592 21.002 117.627 21.1309C117.662 21.2598 117.703 21.3887 117.75 21.5176C117.809 21.6348 117.861 21.7578 117.908 21.8867C117.955 22.0156 117.99 22.1445 118.014 22.2734C118.037 22.4375 118.037 22.6191 118.014 22.8184C117.99 23.0059 117.949 23.1934 117.891 23.3809C117.832 23.5566 117.756 23.7207 117.662 23.873C117.568 24.0137 117.457 24.1191 117.328 24.1895C117.164 24.4004 116.965 24.5645 116.73 24.6816C116.496 24.7988 116.279 24.9395 116.08 25.1035C115.951 25.1855 115.805 25.2441 115.641 25.2793C115.488 25.3145 115.33 25.3496 115.166 25.3848C115.037 25.4551 114.885 25.5312 114.709 25.6133C114.533 25.6836 114.352 25.7539 114.164 25.8242C113.977 25.8828 113.789 25.9297 113.602 25.9648C113.414 25.9883 113.25 25.9941 113.109 25.9824C112.758 26.1113 112.412 26.1934 112.072 26.2285C111.744 26.2754 111.357 26.252 110.912 26.1582C110.49 26.2168 110.098 26.1992 109.734 26.1055C109.383 26.0117 109.066 25.8652 108.785 25.666C108.516 25.4551 108.275 25.209 108.064 24.9277C107.865 24.6348 107.701 24.3301 107.572 24.0137C107.479 23.3457 107.502 22.7422 107.643 22.2031C107.783 21.6523 107.982 21.1484 108.24 20.6914C108.51 20.2227 108.814 19.7949 109.154 19.4082C109.494 19.0098 109.822 18.623 110.139 18.248C110.209 18.2715 110.262 18.2715 110.297 18.248C110.344 18.2129 110.385 18.1719 110.42 18.125C110.455 18.0664 110.49 18.0137 110.525 17.9668C110.572 17.9199 110.625 17.8906 110.684 17.8789C110.766 17.7031 110.883 17.5742 111.035 17.4922C111.199 17.3984 111.328 17.2695 111.422 17.1055C111.527 17.082 111.615 17.0469 111.686 17C111.756 16.9531 111.82 16.9004 111.879 16.8418C111.949 16.7832 112.02 16.7305 112.09 16.6836C112.16 16.625 112.242 16.584 112.336 16.5605V16.3672C112.547 16.2734 112.699 16.168 112.793 16.0508C112.898 15.9219 113.021 15.7695 113.162 15.5938C113.268 15.582 113.35 15.5762 113.408 15.5762C113.479 15.5762 113.578 15.5645 113.707 15.541C113.801 15.377 113.883 15.2539 113.953 15.1719C114.035 15.0898 114.152 15.002 114.305 14.9082C114.445 14.9785 114.598 15.0254 114.762 15.0488C114.938 15.0723 115.09 15.1484 115.219 15.2773C115.23 15.3945 115.266 15.4883 115.324 15.5586C115.383 15.6172 115.447 15.6758 115.518 15.7344C115.588 15.7812 115.652 15.834 115.711 15.8926C115.781 15.9512 115.828 16.0332 115.852 16.1387C115.898 16.1504 115.928 16.1445 115.939 16.1211C115.963 16.0977 115.998 16.0918 116.045 16.1035C116.08 16.2676 116.121 16.3789 116.168 16.4375C116.215 16.4844 116.262 16.584 116.309 16.7363C116.25 16.8535 116.203 16.9766 116.168 17.1055C116.145 17.2227 116.074 17.3105 115.957 17.3691C115.945 17.4512 115.969 17.498 116.027 17.5098C116.086 17.5098 116.121 17.5391 116.133 17.5977C116.145 17.7031 116.127 17.7793 116.08 17.8262C116.361 18.2832 116.613 18.7695 116.836 19.2852C117.059 19.7891 117.311 20.2695 117.592 20.7266ZM115.395 22.3965C115.441 22.2676 115.5 22.1621 115.57 22.0801C115.652 21.998 115.699 21.875 115.711 21.7109C115.652 21.6172 115.617 21.5469 115.605 21.5C115.594 21.4414 115.588 21.3535 115.588 21.2363C115.33 20.873 115.107 20.4863 114.92 20.0762C114.732 19.6543 114.521 19.2617 114.287 18.8984C114.264 18.9453 114.223 18.9922 114.164 19.0391C114.105 19.0859 114.041 19.0742 113.971 19.0039C113.947 19.0977 113.906 19.168 113.848 19.2148C113.789 19.25 113.725 19.2676 113.654 19.2676C113.584 19.2559 113.508 19.2383 113.426 19.2148C113.355 19.1797 113.291 19.1387 113.232 19.0918C112.893 19.3613 112.553 19.625 112.213 19.8828C111.873 20.1406 111.568 20.4395 111.299 20.7793C111.252 20.8027 111.223 20.8145 111.211 20.8145C111.199 20.8027 111.164 20.8086 111.105 20.832C111.012 21.0547 110.895 21.2598 110.754 21.4473C110.625 21.623 110.496 21.8047 110.367 21.9922C110.238 22.1797 110.127 22.3789 110.033 22.5898C109.939 22.8008 109.887 23.0469 109.875 23.3281C110.074 23.4922 110.309 23.5918 110.578 23.627C110.848 23.6621 111.123 23.668 111.404 23.6445C111.697 23.6211 111.979 23.5859 112.248 23.5391C112.529 23.4805 112.787 23.4512 113.021 23.4512C113.514 23.334 113.936 23.1816 114.287 22.9941C114.639 22.7949 115.008 22.5957 115.395 22.3965ZM127.963 23.1348C128.033 23.1699 128.074 23.2285 128.086 23.3105C128.098 23.3926 128.098 23.457 128.086 23.5039C127.875 23.7734 127.729 23.9609 127.646 24.0664C127.564 24.1719 127.506 24.2539 127.471 24.3125C127.436 24.3594 127.395 24.4004 127.348 24.4355C127.312 24.4707 127.225 24.5469 127.084 24.6641C126.557 24.9805 126.012 25.2617 125.449 25.5078C124.898 25.7539 124.318 25.9238 123.709 26.0176C123.615 26.1465 123.434 26.2344 123.164 26.2812C122.906 26.3398 122.666 26.3926 122.443 26.4395C122.396 26.416 122.367 26.3809 122.355 26.334C122.355 26.2988 122.332 26.2695 122.285 26.2461C122.273 26.3633 122.221 26.4219 122.127 26.4219C122.033 26.4336 121.916 26.4102 121.775 26.3516C121.646 26.3047 121.506 26.2344 121.354 26.1406C121.213 26.0586 121.09 25.9824 120.984 25.9121C120.926 26.0059 120.861 26.0996 120.791 26.1934C120.732 26.2871 120.656 26.3516 120.562 26.3867C120.434 26.3633 120.334 26.3457 120.264 26.334C120.205 26.3223 120.146 26.3457 120.088 26.4043C120.018 26.3691 119.959 26.3281 119.912 26.2812C119.877 26.2344 119.836 26.1875 119.789 26.1406C119.754 26.1055 119.707 26.0703 119.648 26.0352C119.602 26 119.531 25.9707 119.438 25.9473C119.461 25.9004 119.449 25.8301 119.402 25.7363C119.355 25.6309 119.285 25.5664 119.191 25.543C119.238 25.4609 119.215 25.3613 119.121 25.2441C119.039 25.1152 118.975 24.9746 118.928 24.8223C118.951 24.6934 118.969 24.5527 118.98 24.4004C118.992 24.248 119.062 24.1602 119.191 24.1367C119.18 24.0547 119.162 23.9844 119.139 23.9258C119.115 23.8672 119.092 23.8086 119.068 23.75C119.15 23.6797 119.209 23.5977 119.244 23.5039C119.279 23.3984 119.309 23.293 119.332 23.1875C119.355 23.082 119.385 22.9766 119.42 22.8711C119.455 22.7656 119.52 22.6777 119.613 22.6074C119.719 22.2559 119.801 21.998 119.859 21.834C119.918 21.6582 119.959 21.4883 119.982 21.3242C120.018 21.1602 120.053 20.9844 120.088 20.7969C120.135 20.6094 120.211 20.375 120.316 20.0938C120.305 19.918 120.322 19.7656 120.369 19.6367C120.416 19.4961 120.463 19.3613 120.51 19.2324C120.568 19.0918 120.615 18.9512 120.65 18.8105C120.686 18.6582 120.68 18.4824 120.633 18.2832C120.469 18.2949 120.352 18.3535 120.281 18.459C120.211 18.5527 120.164 18.6816 120.141 18.8457C120.047 18.9395 119.93 18.9863 119.789 18.9863C119.66 18.9746 119.543 18.9863 119.438 19.0215C119.027 18.8574 118.688 18.623 118.418 18.3184C118.148 18.0137 117.932 17.6562 117.768 17.2461C117.873 16.9766 118.031 16.7539 118.242 16.5781C118.453 16.3906 118.693 16.2383 118.963 16.1211C119.232 15.9922 119.52 15.8926 119.824 15.8223C120.129 15.7402 120.422 15.6641 120.703 15.5938C121.16 15.5117 121.617 15.418 122.074 15.3125C122.531 15.207 123.023 15.1719 123.551 15.207C123.621 15.1719 123.703 15.1543 123.797 15.1543C123.902 15.1426 124.008 15.1367 124.113 15.1367C124.219 15.1367 124.318 15.1367 124.412 15.1367C124.518 15.125 124.605 15.1016 124.676 15.0664C124.734 15.1367 124.816 15.1836 124.922 15.207C125.039 15.2188 125.162 15.2715 125.291 15.3652C125.432 15.2598 125.549 15.2363 125.643 15.2949C125.748 15.3535 125.842 15.418 125.924 15.4883C126.006 15.5586 126.082 15.623 126.152 15.6816C126.234 15.7402 126.316 15.7695 126.398 15.7695C126.48 15.875 126.58 15.9746 126.697 16.0684C126.826 16.1621 126.943 16.2617 127.049 16.3672C127.166 16.4609 127.26 16.5664 127.33 16.6836C127.412 16.8008 127.453 16.9355 127.453 17.0879C127.441 17.1465 127.459 17.1816 127.506 17.1934C127.553 17.2051 127.588 17.2285 127.611 17.2637C127.623 17.627 127.564 17.9434 127.436 18.2129C127.318 18.4707 127.166 18.7109 126.979 18.9336C126.803 19.1562 126.604 19.3672 126.381 19.5664C126.17 19.7656 125.977 19.9766 125.801 20.1992C125.918 20.3516 126.053 20.4863 126.205 20.6035C126.357 20.7207 126.51 20.8379 126.662 20.9551C126.826 21.0723 126.979 21.1953 127.119 21.3242C127.26 21.4531 127.377 21.6055 127.471 21.7812C127.494 21.8047 127.523 21.8281 127.559 21.8516C127.594 21.8633 127.629 21.8809 127.664 21.9043C127.699 22.0215 127.746 22.1445 127.805 22.2734C127.863 22.3906 127.91 22.5078 127.945 22.625C127.992 22.7305 128.021 22.8301 128.033 22.9238C128.045 23.0059 128.021 23.0762 127.963 23.1348ZM124.869 17.2637C124.271 17.2402 123.674 17.293 123.076 17.4219C122.49 17.5508 121.998 17.7324 121.6 17.9668C121.799 18.1309 121.998 18.2773 122.197 18.4062C122.408 18.5352 122.572 18.7109 122.689 18.9336C123.146 18.7461 123.551 18.5117 123.902 18.2305C124.254 17.9375 124.576 17.6152 124.869 17.2637ZM125.098 22.8711C125.133 22.7539 125.197 22.6602 125.291 22.5898C125.385 22.5195 125.479 22.4551 125.572 22.3965C125.666 22.3262 125.748 22.2559 125.818 22.1855C125.889 22.1035 125.918 21.9922 125.906 21.8516C125.531 21.6523 125.186 21.5352 124.869 21.5C124.564 21.4531 124.271 21.4531 123.99 21.5C123.721 21.5352 123.457 21.5938 123.199 21.6758C122.953 21.7578 122.701 21.8164 122.443 21.8516C122.314 22.1914 122.18 22.5605 122.039 22.959C121.898 23.3574 121.764 23.7441 121.635 24.1191C121.986 24.0723 122.309 24.002 122.602 23.9082C122.895 23.8027 123.176 23.6914 123.445 23.5742C123.727 23.457 123.996 23.3398 124.254 23.2227C124.523 23.0938 124.805 22.9766 125.098 22.8711ZM137.139 17.8438C137.115 18.1484 137.08 18.418 137.033 18.6523C136.986 18.8867 136.922 19.1328 136.84 19.3906C136.641 20.3398 136.406 21.2422 136.137 22.0977C135.879 22.9531 135.58 23.7207 135.24 24.4004C134.936 24.7402 134.637 25.0391 134.344 25.2969C134.062 25.5547 133.746 25.7363 133.395 25.8418C133.219 25.8652 133.061 25.8945 132.92 25.9297C132.791 25.9531 132.662 25.9824 132.533 26.0176C132.475 26.0293 132.41 26.041 132.34 26.0527C132.281 26.0645 132.223 26.082 132.164 26.1055C131.988 26.0703 131.818 26.041 131.654 26.0176C131.502 26.0059 131.361 26 131.232 26L131.004 25.9297C130.887 25.8945 130.793 25.8652 130.723 25.8418C130.664 25.8184 130.605 25.8008 130.547 25.7891C130.5 25.7656 130.441 25.748 130.371 25.7363C130.312 25.7246 130.213 25.7129 130.072 25.7012C129.896 25.7715 129.732 25.8066 129.58 25.8066C129.369 25.8066 129.141 25.7188 128.895 25.543C128.648 25.3672 128.443 24.9922 128.279 24.418C128.303 24.1953 128.338 24.002 128.385 23.8379C128.42 23.6621 128.461 23.5273 128.508 23.4336C128.789 23.2695 129.023 23.1875 129.211 23.1875C129.434 23.1875 129.645 23.2227 129.844 23.293C130.055 23.3633 130.26 23.4395 130.459 23.5215C130.553 23.5566 130.617 23.5859 130.652 23.6094C130.688 23.6328 130.717 23.6504 130.74 23.6621C130.764 23.6738 130.787 23.6797 130.811 23.6797C130.846 23.6797 130.91 23.6797 131.004 23.6797C131.062 23.6797 131.109 23.6797 131.145 23.6797C131.191 23.668 131.238 23.6562 131.285 23.6445L131.461 23.6621C131.531 23.6973 131.613 23.7148 131.707 23.7148C131.824 23.7148 131.971 23.6855 132.146 23.627C132.229 23.5918 132.293 23.5684 132.34 23.5566C132.398 23.5449 132.457 23.5332 132.516 23.5215L132.656 23.3809C132.762 23.3457 132.838 23.3047 132.885 23.2578C132.943 23.2109 132.99 23.1582 133.025 23.0996C133.072 23.041 133.113 22.9766 133.148 22.9062C133.184 22.8359 133.23 22.7598 133.289 22.6777C133.336 22.6191 133.377 22.5605 133.412 22.502C133.459 22.4434 133.506 22.3848 133.553 22.3262V22.1504C133.705 21.8105 133.84 21.459 133.957 21.0957C134.074 20.7207 134.18 20.3457 134.273 19.9707C134.367 19.5957 134.443 19.2324 134.502 18.8809C134.572 18.5293 134.631 18.2129 134.678 17.9316H134.502C134.209 17.9316 133.969 17.9375 133.781 17.9492C133.594 17.9492 133.424 17.9609 133.271 17.9844C133.119 17.9961 132.955 18.0195 132.779 18.0547C132.615 18.0898 132.404 18.1309 132.146 18.1777L131.883 18.2305C131.707 18.3242 131.531 18.4062 131.355 18.4766C131.18 18.5469 131.004 18.582 130.828 18.582C130.523 18.582 130.266 18.4648 130.055 18.2305C129.832 18.0781 129.703 17.8789 129.668 17.6328C129.609 17.5625 129.592 17.4805 129.615 17.3867C129.568 17.2461 129.545 17.123 129.545 17.0176C129.545 16.9004 129.545 16.7949 129.545 16.7012V16.4551H129.773C129.832 16.3965 129.873 16.3555 129.896 16.332C129.92 16.2969 129.938 16.2559 129.949 16.209L130.143 16.0508C130.342 16.0273 130.547 15.998 130.758 15.9629C130.98 15.916 131.209 15.8691 131.443 15.8223C131.666 15.7754 131.854 15.7402 132.006 15.7168C132.17 15.6934 132.322 15.6758 132.463 15.6641C132.615 15.6523 132.768 15.6465 132.92 15.6465C133.084 15.6348 133.271 15.6289 133.482 15.6289H133.887C133.922 15.582 133.957 15.5586 133.992 15.5586C134.039 15.5469 134.074 15.541 134.098 15.541C134.156 15.541 134.203 15.5469 134.238 15.5586C134.273 15.5703 134.303 15.582 134.326 15.5938C134.654 15.5352 134.959 15.5 135.24 15.4883C135.521 15.4648 135.773 15.4531 135.996 15.4531C136.113 15.4531 136.219 15.4531 136.312 15.4531C136.418 15.4531 136.518 15.459 136.611 15.4707H137.191H137.578C137.637 15.459 137.73 15.4531 137.859 15.4531C138.047 15.4531 138.164 15.459 138.211 15.4707C138.27 15.4707 138.369 15.4824 138.51 15.5059C138.674 15.5293 138.82 15.5527 138.949 15.5762C139.09 15.5879 139.23 15.5938 139.371 15.5938H139.635L139.688 15.7695L139.828 15.9453C139.852 16.0039 139.887 16.0566 139.934 16.1035C139.992 16.1504 140.051 16.2031 140.109 16.2617C140.227 16.3789 140.338 16.5137 140.443 16.666C140.561 16.8184 140.602 17.0469 140.566 17.3516L140.443 17.5449C140.385 17.5684 140.314 17.6211 140.232 17.7031L140.074 17.8438C139.945 17.8555 139.834 17.8672 139.74 17.8789C139.646 17.8789 139.553 17.8789 139.459 17.8789C139.283 17.8789 139.102 17.873 138.914 17.8613C138.738 17.8496 138.551 17.8379 138.352 17.8262C138.246 17.8262 138.164 17.8262 138.105 17.8262C138.047 17.8262 137.988 17.8262 137.93 17.8262C137.883 17.8262 137.83 17.8262 137.771 17.8262C137.713 17.8262 137.637 17.8262 137.543 17.8262C137.449 17.8262 137.379 17.8262 137.332 17.8262C137.285 17.8262 137.221 17.832 137.139 17.8438ZM148.055 16.1035C148.066 16.1855 148.066 16.25 148.055 16.2969C148.055 16.332 148.049 16.3672 148.037 16.4023C148.037 16.4375 148.037 16.4785 148.037 16.5254C148.037 16.5605 148.049 16.6191 148.072 16.7012C147.826 17.0996 147.539 17.375 147.211 17.5273C146.895 17.668 146.549 17.7734 146.174 17.8438C145.799 17.9023 145.412 17.9668 145.014 18.0371C144.627 18.1074 144.24 18.2598 143.854 18.4941C143.701 18.4355 143.561 18.4355 143.432 18.4941C143.314 18.5527 143.139 18.5703 142.904 18.5469C142.834 18.6172 142.746 18.6699 142.641 18.7051C142.535 18.7285 142.43 18.7578 142.324 18.793C142.371 18.8984 142.389 19.0098 142.377 19.127C142.377 19.2324 142.395 19.3203 142.43 19.3906C142.84 19.4258 143.291 19.4199 143.783 19.373C144.287 19.3262 144.779 19.2969 145.26 19.2852C145.271 19.3438 145.266 19.3848 145.242 19.4082C145.219 19.4199 145.213 19.4492 145.225 19.4961C145.307 19.5547 145.389 19.6309 145.471 19.7246C145.553 19.8066 145.635 19.8887 145.717 19.9707C145.799 20.0527 145.881 20.123 145.963 20.1816C146.057 20.2285 146.162 20.2461 146.279 20.2344C146.326 20.3281 146.355 20.4336 146.367 20.5508C146.391 20.6562 146.379 20.7676 146.332 20.8848C146.145 21.0137 145.957 21.1484 145.77 21.2891C145.582 21.418 145.383 21.5352 145.172 21.6406C144.973 21.7461 144.756 21.834 144.521 21.9043C144.299 21.9629 144.047 21.9863 143.766 21.9746C143.707 21.9746 143.66 21.9746 143.625 21.9746C143.602 21.9746 143.566 21.957 143.52 21.9219C143.426 21.9805 143.291 21.998 143.115 21.9746C142.951 21.9512 142.822 21.9688 142.729 22.0273C142.6 21.9688 142.441 21.9453 142.254 21.957C142.078 21.957 141.92 21.9336 141.779 21.8867C141.592 22.1328 141.422 22.3965 141.27 22.6777C141.117 22.959 140.982 23.2578 140.865 23.5742C141.264 23.6328 141.592 23.6562 141.85 23.6445C142.119 23.6328 142.371 23.6152 142.605 23.5918C142.84 23.5566 143.08 23.5273 143.326 23.5039C143.572 23.4688 143.883 23.457 144.258 23.4688C144.492 23.3398 144.768 23.2578 145.084 23.2227C145.412 23.1758 145.711 23.1055 145.98 23.0117C146.074 23.0469 146.156 23.1113 146.227 23.2051C146.297 23.2871 146.361 23.3691 146.42 23.4512C146.49 23.5215 146.561 23.5859 146.631 23.6445C146.701 23.7031 146.789 23.7266 146.895 23.7148C146.941 23.7617 146.971 23.8203 146.982 23.8906C147.006 23.9492 147.023 24.0078 147.035 24.0664C147.047 24.125 147.064 24.1777 147.088 24.2246C147.123 24.2598 147.176 24.2715 147.246 24.2598C147.07 24.6465 146.865 24.9453 146.631 25.1562C146.408 25.3555 146.15 25.5078 145.857 25.6133C145.564 25.7188 145.236 25.8008 144.873 25.8594C144.521 25.918 144.129 25.9883 143.695 26.0703C143.59 26.0938 143.502 26.0879 143.432 26.0527C143.361 26.0293 143.279 26.0176 143.186 26.0176C142.916 26.0762 142.594 26.1289 142.219 26.1758C141.844 26.2227 141.463 26.2402 141.076 26.2285C140.689 26.2168 140.32 26.1641 139.969 26.0703C139.617 25.9883 139.33 25.8359 139.107 25.6133C139.014 25.5312 138.949 25.4375 138.914 25.332C138.891 25.2148 138.814 25.127 138.686 25.0684C138.674 24.916 138.65 24.7461 138.615 24.5586C138.58 24.3711 138.545 24.1777 138.51 23.9785C138.475 23.7676 138.445 23.5625 138.422 23.3633C138.41 23.1641 138.422 22.9824 138.457 22.8184C138.492 22.6426 138.562 22.4844 138.668 22.3438C138.785 22.2031 138.826 22.0508 138.791 21.8867C138.85 21.875 138.885 21.8457 138.896 21.7988C138.908 21.7402 138.955 21.7168 139.037 21.7285C139.107 21.5176 139.184 21.3184 139.266 21.1309C139.348 20.9434 139.43 20.7617 139.512 20.5859C139.605 20.4102 139.693 20.2344 139.775 20.0586C139.869 19.8711 139.957 19.666 140.039 19.4434C139.875 19.291 139.752 19.127 139.67 18.9512C139.6 18.7637 139.547 18.582 139.512 18.4062C139.477 18.2188 139.447 18.0312 139.424 17.8438C139.4 17.6445 139.359 17.4453 139.301 17.2461C139.418 17.0703 139.559 16.9297 139.723 16.8242C139.898 16.707 140.086 16.6133 140.285 16.543C140.484 16.4727 140.701 16.4141 140.936 16.3672C141.17 16.3203 141.416 16.2676 141.674 16.209C142.143 16.0566 142.559 15.9395 142.922 15.8574C143.297 15.7754 143.66 15.7109 144.012 15.6641C144.375 15.6055 144.75 15.5527 145.137 15.5059C145.523 15.459 145.963 15.3887 146.455 15.2949C146.561 15.4004 146.66 15.4531 146.754 15.4531C146.801 15.3477 146.854 15.3184 146.912 15.3652C146.982 15.4004 147.012 15.3652 147 15.2598C147.117 15.459 147.264 15.6289 147.439 15.7695C147.627 15.8984 147.832 16.0098 148.055 16.1035ZM154.77 26.0352C154.582 26.0469 154.348 26.041 154.066 26.0176C153.797 25.9941 153.545 26.0352 153.311 26.1406C152.689 26.1172 152.057 26.041 151.412 25.9121C150.768 25.7832 150.176 25.625 149.637 25.4375C149.52 25.3086 149.402 25.1914 149.285 25.0859C149.168 24.9688 149.01 24.8867 148.811 24.8398C148.529 24.6172 148.301 24.3477 148.125 24.0312C147.949 23.7031 147.809 23.3574 147.703 22.9941C147.598 22.6309 147.527 22.2617 147.492 21.8867C147.457 21.5 147.445 21.1309 147.457 20.7793C147.633 20.252 147.879 19.8008 148.195 19.4258C148.523 19.0391 148.857 18.6582 149.197 18.2832C149.35 18.2129 149.461 18.1426 149.531 18.0723C149.613 17.9902 149.695 17.9199 149.777 17.8613C149.871 17.791 149.959 17.7266 150.041 17.668C150.135 17.5977 150.217 17.5156 150.287 17.4219C150.533 17.3633 150.744 17.2812 150.92 17.1758C151.107 17.0586 151.289 16.9414 151.465 16.8242C151.641 16.6953 151.822 16.5781 152.01 16.4727C152.197 16.3672 152.414 16.2852 152.66 16.2266C152.754 16.1211 152.865 16.0391 152.994 15.9805C153.123 15.9102 153.252 15.8457 153.381 15.7871C153.521 15.7168 153.65 15.6465 153.768 15.5762C153.896 15.5059 153.996 15.4121 154.066 15.2949C154.125 15.3887 154.207 15.4238 154.312 15.4004C154.418 15.3652 154.518 15.3301 154.611 15.2949C154.67 15.2832 154.717 15.2949 154.752 15.3301C154.799 15.3652 154.84 15.4004 154.875 15.4355C154.91 15.4707 154.939 15.4941 154.963 15.5059C154.998 15.5059 155.027 15.4766 155.051 15.418C155.109 15.418 155.127 15.4473 155.104 15.5059C155.08 15.5645 155.062 15.6055 155.051 15.6289C155.145 15.6172 155.221 15.6406 155.279 15.6992C155.35 15.7461 155.455 15.7754 155.596 15.7871C155.643 15.8457 155.654 15.8926 155.631 15.9277C155.607 15.9512 155.596 15.998 155.596 16.0684C155.947 16.1738 156.17 16.3438 156.264 16.5781C156.357 16.8008 156.363 17.0352 156.281 17.2812C156.199 17.5273 156.053 17.7559 155.842 17.9668C155.631 18.1777 155.402 18.3184 155.156 18.3887C154.594 18.541 154.061 18.7109 153.557 18.8984C153.064 19.0742 152.66 19.3379 152.344 19.6895C152.062 19.7715 151.811 19.8828 151.588 20.0234C151.377 20.1523 151.172 20.3047 150.973 20.4805C150.785 20.6445 150.604 20.8203 150.428 21.0078C150.264 21.1836 150.088 21.3594 149.9 21.5352C149.912 21.6992 149.883 21.8281 149.812 21.9219C149.754 22.0039 149.695 22.0918 149.637 22.1855C149.66 22.3613 149.701 22.5195 149.76 22.6602C149.818 22.7891 149.883 22.918 149.953 23.0469C150.727 23.2812 151.547 23.4277 152.414 23.4863C153.293 23.5449 154.172 23.5801 155.051 23.5918C155.133 23.709 155.227 23.8203 155.332 23.9258C155.449 24.0195 155.555 24.125 155.648 24.2422C155.742 24.3477 155.818 24.4707 155.877 24.6113C155.936 24.7402 155.947 24.9043 155.912 25.1035C155.748 25.2793 155.566 25.4434 155.367 25.5957C155.168 25.7363 154.969 25.8828 154.77 26.0352ZM166.705 17.5449C166.412 17.5449 166.096 17.5684 165.756 17.6152C165.416 17.6504 165.082 17.6914 164.754 17.7383C164.52 17.7734 164.291 17.8027 164.068 17.8262C163.857 17.8496 163.664 17.8672 163.488 17.8789C163.406 18.1367 163.324 18.3652 163.242 18.5645C163.16 18.7637 163.072 18.957 162.979 19.1445C162.885 19.3438 162.797 19.5488 162.715 19.7598C162.645 19.959 162.574 20.1758 162.504 20.4102C162.387 20.5977 162.287 20.7734 162.205 20.9375C162.135 21.0898 162.076 21.2656 162.029 21.4648C161.889 21.6406 161.783 21.8281 161.713 22.0273C161.643 22.2148 161.59 22.3789 161.555 22.5195L161.484 22.7305C161.414 22.8008 161.373 22.8594 161.361 22.9062C161.35 22.9414 161.32 22.9766 161.273 23.0117C161.262 23.1406 161.221 23.2695 161.15 23.3984C161.127 23.457 161.109 23.5156 161.098 23.5742C161.086 23.6211 161.08 23.6562 161.08 23.6797C161.08 23.7969 161.051 23.873 160.992 23.9082C161.004 23.9668 161.004 24.0312 160.992 24.1016C160.98 24.1602 160.969 24.2188 160.957 24.2773C160.922 24.418 160.91 24.5293 160.922 24.6113C160.957 24.6582 160.986 24.6992 161.01 24.7344C161.045 24.7695 161.068 24.8164 161.08 24.875C161.15 24.9219 161.203 24.9512 161.238 24.9629C161.285 24.998 161.355 25.0391 161.449 25.0859L161.607 25.2617C161.666 25.6016 161.613 25.8711 161.449 26.0703C161.273 26.293 160.975 26.4043 160.553 26.4043H160.342C160.283 26.3457 160.248 26.2988 160.236 26.2637C160.143 26.2285 160.066 26.1992 160.008 26.1758C159.949 26.1523 159.896 26.1055 159.85 26.0352C159.697 25.9648 159.574 25.9062 159.48 25.8594L159.322 25.7715C159.322 25.6426 159.322 25.5723 159.322 25.5605C159.24 25.4551 159.176 25.3379 159.129 25.209C159.094 25.0801 159.064 24.9512 159.041 24.8223C159.018 24.7168 158.988 24.6172 158.953 24.5234C158.93 24.4297 158.895 24.3477 158.848 24.2773C158.824 23.5977 158.889 23.0234 159.041 22.5547C159.193 22.0859 159.352 21.6348 159.516 21.2012C159.609 20.9668 159.703 20.7324 159.797 20.498C159.891 20.252 159.973 20 160.043 19.7422L160.201 19.5664C160.283 19.3789 160.348 19.2266 160.395 19.1094C160.453 18.9805 160.512 18.8516 160.57 18.7227C160.605 18.6406 160.635 18.5645 160.658 18.4941C160.693 18.4121 160.723 18.3418 160.746 18.2832C160.676 18.2832 160.611 18.2891 160.553 18.3008C160.494 18.3008 160.436 18.3066 160.377 18.3184C160.307 18.3301 160.242 18.3418 160.184 18.3535C160.125 18.3535 160.066 18.3535 160.008 18.3535C159.926 18.3535 159.867 18.3477 159.832 18.3359C159.703 18.3945 159.562 18.4238 159.41 18.4238H159.234C159.199 18.4238 159.164 18.4238 159.129 18.4238C159.105 18.4121 159.082 18.4062 159.059 18.4062C158.941 18.4062 158.848 18.4238 158.777 18.459C158.637 18.459 158.502 18.459 158.373 18.459H158.197C158.174 18.459 158.145 18.4648 158.109 18.4766C158.074 18.4766 158.045 18.4766 158.021 18.4766C157.939 18.4766 157.852 18.4707 157.758 18.459C157.664 18.4355 157.564 18.3945 157.459 18.3359C157.318 18.1484 157.225 18.0488 157.178 18.0371L157.02 17.8262C157.008 17.7559 156.99 17.6914 156.967 17.6328C156.943 17.5625 156.92 17.4863 156.896 17.4043C156.85 17.2871 156.803 17.1641 156.756 17.0352C156.721 16.8945 156.703 16.7305 156.703 16.543C156.715 16.4492 156.738 16.3789 156.773 16.332C156.809 16.2852 156.838 16.2441 156.861 16.209L156.914 15.9453L157.143 15.9629H157.635C158.01 15.9629 158.391 15.9512 158.777 15.9277C159.164 15.8926 159.562 15.8574 159.973 15.8223C160.207 15.7988 160.441 15.7754 160.676 15.752C160.922 15.7285 161.174 15.7051 161.432 15.6816C161.479 15.5762 161.525 15.4766 161.572 15.3828L161.748 15.2949C161.959 15.2832 162.105 15.3125 162.188 15.3828C162.281 15.4414 162.357 15.5 162.416 15.5586C162.674 15.5352 162.932 15.5117 163.189 15.4883C163.459 15.4531 163.729 15.4121 163.998 15.3652C164.396 15.3066 164.795 15.2539 165.193 15.207C165.604 15.1602 165.996 15.1367 166.371 15.1367C166.535 15.1367 166.693 15.1426 166.846 15.1543C166.998 15.166 167.139 15.1836 167.268 15.207L167.443 15.3301C167.479 15.4004 167.525 15.4648 167.584 15.5234C167.654 15.582 167.725 15.6406 167.795 15.6992C167.936 15.8281 168.076 15.9805 168.217 16.1562C168.357 16.332 168.41 16.5898 168.375 16.9297C168.281 17.0703 168.211 17.1523 168.164 17.1758L168.006 17.3867L167.83 17.3691C167.76 17.3691 167.695 17.3809 167.637 17.4043C167.578 17.416 167.52 17.4336 167.461 17.457C167.414 17.4805 167.367 17.5039 167.32 17.5273C167.273 17.5391 167.221 17.5508 167.162 17.5625C167.057 17.5625 166.969 17.5625 166.898 17.5625C166.84 17.5508 166.775 17.5449 166.705 17.5449ZM169.061 24.7695C169.119 25.1211 169.096 25.3965 168.99 25.5957C168.896 25.7949 168.756 25.9414 168.568 26.0352C168.393 26.1406 168.188 26.1992 167.953 26.2109C167.719 26.2227 167.496 26.2109 167.285 26.1758C167.168 26.0117 167.062 25.8066 166.969 25.5605C166.875 25.3145 166.787 25.0625 166.705 24.8047C166.623 24.5352 166.547 24.2715 166.477 24.0137C166.418 23.7559 166.365 23.5273 166.318 23.3281C166.377 23.1875 166.412 23.0293 166.424 22.8535C166.447 22.666 166.459 22.4785 166.459 22.291C166.471 22.1035 166.477 21.916 166.477 21.7285C166.488 21.5293 166.506 21.3418 166.529 21.166C166.611 20.6738 166.729 20.2051 166.881 19.7598C167.045 19.3145 167.174 18.8516 167.268 18.3711C167.291 18.2656 167.279 18.166 167.232 18.0723C167.197 17.9785 167.191 17.8906 167.215 17.8086C167.227 17.7617 167.262 17.7324 167.32 17.7207C167.379 17.6973 167.414 17.6562 167.426 17.5977C167.461 17.4688 167.467 17.3633 167.443 17.2812C167.432 17.1992 167.455 17.0996 167.514 16.9824C167.572 16.8887 167.643 16.7539 167.725 16.5781C167.818 16.3906 167.854 16.1973 167.83 15.998C167.936 15.9277 168.035 15.8457 168.129 15.752C168.223 15.6582 168.316 15.5762 168.41 15.5059C168.516 15.4238 168.627 15.3535 168.744 15.2949C168.873 15.2363 169.025 15.207 169.201 15.207C169.295 15.3242 169.354 15.4531 169.377 15.5938C169.412 15.7344 169.441 15.875 169.465 16.0156C169.5 16.1562 169.547 16.291 169.605 16.4199C169.664 16.5371 169.764 16.6309 169.904 16.7012C169.904 16.7949 169.904 16.9121 169.904 17.0527C169.904 17.1934 169.91 17.334 169.922 17.4746C169.934 17.6035 169.957 17.7266 169.992 17.8438C170.039 17.9492 170.109 18.0195 170.203 18.0547C169.992 18.6172 169.793 19.1738 169.605 19.7246C169.43 20.2754 169.283 20.832 169.166 21.3945C169.049 21.9453 168.973 22.502 168.938 23.0645C168.914 23.627 168.955 24.1953 169.061 24.7695ZM176.953 22.9062C176.941 23.0703 176.9 23.2285 176.83 23.3809C176.771 23.5215 176.695 23.6621 176.602 23.8027C176.508 23.9316 176.402 24.0605 176.285 24.1895C176.18 24.3066 176.074 24.4121 175.969 24.5059C176.004 24.6582 176.004 24.7754 175.969 24.8574C175.945 24.9277 175.939 25.0391 175.951 25.1914C175.775 25.6602 175.506 25.9707 175.143 26.123C174.791 26.2871 174.457 26.2578 174.141 26.0352C174.012 25.9414 173.9 25.8242 173.807 25.6836C173.725 25.5312 173.607 25.4375 173.455 25.4023C173.49 25.2031 173.473 25.0039 173.402 24.8047C173.332 24.6055 173.256 24.5 173.174 24.4883C173.139 24.2422 173.086 23.9785 173.016 23.6973C172.945 23.416 172.881 23.1348 172.822 22.8535C172.764 22.5605 172.711 22.2793 172.664 22.0098C172.629 21.7285 172.617 21.4707 172.629 21.2363C172.641 21.1191 172.617 21.0137 172.559 20.9199C172.512 20.8262 172.477 20.7148 172.453 20.5859C172.406 20.3164 172.389 20.0352 172.4 19.7422C172.424 19.4375 172.436 19.1504 172.436 18.8809C172.436 18.623 172.418 18.3477 172.383 18.0547C172.359 17.75 172.336 17.4629 172.312 17.1934C172.289 16.9121 172.277 16.6602 172.277 16.4375C172.277 16.2031 172.307 16.0215 172.365 15.8926C172.436 15.752 172.529 15.6406 172.646 15.5586C172.775 15.4648 172.893 15.3652 172.998 15.2598C173.256 15.2832 173.461 15.3887 173.613 15.5762C173.766 15.7637 173.824 15.9395 173.789 16.1035C174.035 16.2559 174.229 16.4551 174.369 16.7012C174.521 16.9355 174.639 17.2051 174.721 17.5098C174.814 17.8027 174.879 18.1191 174.914 18.459C174.949 18.7871 174.979 19.1152 175.002 19.4434C175.025 19.7598 175.049 20.0645 175.072 20.3574C175.096 20.6504 175.143 20.9023 175.213 21.1133C175.646 20.4922 176.01 19.9414 176.303 19.4609C176.596 18.9688 176.895 18.5 177.199 18.0547C177.504 17.6094 177.844 17.1582 178.219 16.7012C178.594 16.2441 179.08 15.7285 179.678 15.1543C179.795 15.166 179.889 15.1895 179.959 15.2246C180.041 15.2598 180.111 15.2891 180.17 15.3125C180.229 15.3359 180.299 15.3594 180.381 15.3828C180.463 15.3945 180.574 15.3887 180.715 15.3652C180.762 15.4824 180.797 15.5703 180.82 15.6289C180.844 15.6758 180.861 15.7285 180.873 15.7871C180.896 15.834 180.92 15.8984 180.943 15.9805C180.979 16.0625 181.031 16.1797 181.102 16.332C181.137 16.3672 181.148 16.4141 181.137 16.4727C181.125 16.5312 181.113 16.5898 181.102 16.6484C181.102 16.6953 181.102 16.7305 181.102 16.7539C181.102 16.7773 181.131 16.7773 181.189 16.7539C181.154 16.918 181.09 17.0703 180.996 17.2109C180.914 17.3398 180.879 17.498 180.891 17.6855C180.621 18.0371 180.322 18.4004 179.994 18.7754C179.678 19.1504 179.355 19.5371 179.027 19.9355C178.711 20.334 178.406 20.7559 178.113 21.2012C177.82 21.6348 177.568 22.0918 177.357 22.5723C177.299 22.5723 177.252 22.5898 177.217 22.625C177.193 22.6602 177.17 22.7012 177.146 22.748C177.123 22.7832 177.094 22.8184 177.059 22.8535C177.035 22.8887 177 22.9062 176.953 22.9062ZM190.453 13.8887C190.535 13.9824 190.605 14.082 190.664 14.1875C190.723 14.2812 190.811 14.3516 190.928 14.3984C190.869 14.6914 190.852 14.9727 190.875 15.2422C190.898 15.5 190.916 15.7812 190.928 16.0859C190.764 16.9766 190.4 17.6914 189.838 18.2305C189.275 18.7578 188.625 19.1211 187.887 19.3203C187.887 19.4375 187.852 19.5195 187.781 19.5664C187.547 19.6016 187.371 19.6602 187.254 19.7422C187.137 19.8242 187.025 19.9121 186.92 20.0059C186.826 20.0996 186.709 20.1934 186.568 20.2871C186.439 20.3691 186.234 20.4336 185.953 20.4805C185.895 20.6094 185.812 20.6914 185.707 20.7266C185.613 20.7617 185.514 20.791 185.408 20.8145C185.314 20.8262 185.221 20.8555 185.127 20.9023C185.033 20.9375 184.963 21.0312 184.916 21.1836L183.914 22.1152C183.633 22.0449 183.387 22.0156 183.176 22.0273C182.965 22.0273 182.789 22.0156 182.648 21.9922C182.508 21.9688 182.396 21.8984 182.314 21.7812C182.244 21.6641 182.197 21.4414 182.174 21.1133C182.186 20.9961 182.227 20.9199 182.297 20.8848C182.379 20.8379 182.432 20.7676 182.455 20.6738C182.455 20.416 182.49 20.2285 182.561 20.1113C182.643 19.9824 182.742 19.877 182.859 19.7949C182.977 19.7129 183.1 19.625 183.229 19.5312C183.357 19.4258 183.469 19.2676 183.562 19.0566C183.75 18.9746 183.955 18.8457 184.178 18.6699C184.412 18.4824 184.623 18.3008 184.811 18.125C185.104 17.9727 185.35 17.8379 185.549 17.7207C185.76 17.6035 185.953 17.4863 186.129 17.3691C186.305 17.252 186.48 17.123 186.656 16.9824C186.832 16.8418 187.043 16.666 187.289 16.4551C187.23 16.3027 187.119 16.2207 186.955 16.209C186.803 16.1855 186.627 16.1855 186.428 16.209C186.088 16.1035 185.754 16.0391 185.426 16.0156C185.109 15.9805 184.734 15.9512 184.301 15.9277C184.137 15.9395 184.014 15.957 183.932 15.9805C183.861 15.9922 183.75 15.9863 183.598 15.9629C183.527 16.0215 183.445 16.0684 183.352 16.1035C183.27 16.1387 183.176 16.1738 183.07 16.209C182.977 16.2324 182.877 16.2617 182.771 16.2969C182.678 16.3203 182.59 16.3555 182.508 16.4023C182.273 16.3438 182.086 16.2324 181.945 16.0684C181.805 15.9043 181.635 15.7754 181.436 15.6816C181.412 15.5996 181.43 15.5469 181.488 15.5234C181.547 15.5 181.564 15.4297 181.541 15.3125C181.424 15.2539 181.365 15.207 181.365 15.1719C181.377 15.1367 181.342 15.0898 181.26 15.0312C181.307 14.8438 181.371 14.6855 181.453 14.5566C181.547 14.416 181.646 14.2871 181.752 14.1699C181.857 14.041 181.963 13.918 182.068 13.8008C182.174 13.6836 182.268 13.5488 182.35 13.3965C182.537 13.3496 182.695 13.2793 182.824 13.1855C182.965 13.0801 183.1 12.9688 183.229 12.8516C183.861 12.7812 184.477 12.7637 185.074 12.7988C185.672 12.8223 186.264 12.8809 186.85 12.9746C187.447 13.0684 188.039 13.1973 188.625 13.3613C189.223 13.5254 189.832 13.7012 190.453 13.8887ZM183.703 23.9961C183.68 24.1719 183.656 24.3008 183.633 24.3828C183.621 24.4648 183.615 24.541 183.615 24.6113C183.615 24.6816 183.621 24.7695 183.633 24.875C183.656 24.9805 183.691 25.1445 183.738 25.3672L183.791 25.6484L183.545 25.7012C183.486 25.7129 183.387 25.7656 183.246 25.8594C183.117 25.9531 183 26.0293 182.895 26.0879C182.73 26.1816 182.572 26.2812 182.42 26.3867C182.279 26.5039 182.133 26.5625 181.98 26.5625C181.805 26.4688 181.682 26.3984 181.611 26.3516C181.541 26.3047 181.471 26.2578 181.4 26.2109C181.342 26.1055 181.289 26 181.242 25.8945C181.195 25.7891 181.143 25.6836 181.084 25.5781C181.049 25.4961 181.025 25.4434 181.014 25.4199C181.002 25.3965 180.99 25.3789 180.979 25.3672C180.979 25.3555 180.967 25.3496 180.943 25.3496C180.932 25.3379 180.896 25.3027 180.838 25.2441L180.732 25.0332C180.721 24.9395 180.727 24.8516 180.75 24.7695C180.785 24.6758 180.814 24.5879 180.838 24.5059C180.85 24.4707 180.861 24.4297 180.873 24.3828C180.896 24.3242 180.908 24.2832 180.908 24.2598L180.803 24.084L180.943 23.8906C181.014 23.7617 181.066 23.6738 181.102 23.627C181.137 23.5801 181.184 23.5273 181.242 23.4688L181.4 23.3457C181.717 23.334 181.975 23.3047 182.174 23.2578C182.373 23.293 182.502 23.334 182.561 23.3809C182.619 23.416 182.678 23.457 182.736 23.5039C182.865 23.5977 182.959 23.6445 183.018 23.6445H183.369L183.334 23.9082L183.703 23.9961Z" fill="white"/>
<path d="M18.0563 43.5667L0.650208 28.3891L22.4975 20.9037L18.0563 43.5667ZM9.66731 0.254193C10.0335 5.3167 11.3702 15.3942 14.157 26.0321L10.2875 27.0457C7.43444 16.1545 6.06036 5.83322 5.67773 0.54274L9.66731 0.254193Z" fill="white"/>
<path d="M228.944 43.5667L246.35 28.3891L224.503 20.9037L228.944 43.5667ZM237.333 0.254193C236.967 5.3167 235.63 15.3942 232.843 26.0321L236.712 27.0457C239.566 16.1545 240.94 5.83322 241.322 0.54274L237.333 0.254193Z" fill="white"/>
</svg>
