<svg width="64" height="64" viewBox="0 0 64 64" fill="none" xmlns="http://www.w3.org/2000/svg">
<path fill-rule="evenodd" clip-rule="evenodd" d="M32 64C49.6733 64 64 49.6726 64 32C64 14.3267 49.6733 0 32 0C14.3267 0 0 14.3267 0 32C0 49.6726 14.3267 64 32 64ZM54.276 29.6051C55.0561 29.7613 55.635 30.4463 55.635 31.2681C55.635 31.7937 55.3915 32.268 55.0098 32.5809C55.0085 32.5818 55.0074 32.5828 55.0063 32.5838C55.0051 32.5847 55.004 32.5857 55.0027 32.5867C54.968 32.6149 54.9327 32.6413 54.8961 32.6663C54.8845 32.6747 54.8729 32.683 54.8607 32.6908C54.8363 32.7068 54.8112 32.7216 54.7855 32.7364C54.7624 32.7499 54.7399 32.764 54.7161 32.7762C54.7155 32.7766 54.7148 32.7769 54.7141 32.7772C54.7134 32.7775 54.7126 32.7778 54.7116 32.7782C54.4765 32.9015 54.2085 32.9729 53.9239 32.9729H38.7663C38.8787 33.4375 39 33.9612 39.1316 34.5295L39.1634 34.6667L39.1635 34.6672C39.9944 38.2544 42.2016 47.7828 44.5455 47.7828L44.5912 47.7841L44.6169 47.7802L44.6618 47.7809C46.4932 47.7802 47.4281 45.1329 49.476 39.3324L49.501 39.2623C49.83 38.3306 50.2014 37.2794 50.6031 36.1677L50.7059 35.8837L50.7071 35.8843C50.8119 35.6067 51.0792 35.4095 51.3934 35.4095C51.7982 35.4095 52.1266 35.7378 52.1266 36.1427C52.1266 36.2165 52.1157 36.2872 52.0951 36.3541H52.0957L52.0103 36.6394C51.7963 37.3301 51.5695 38.2702 51.3073 39.3587L51.3064 39.3624C50.0849 44.422 48.2405 52.0617 43.5097 52.0617H43.475C40.4183 52.0373 38.589 47.1512 37.8074 45.0634L37.8069 45.0622C36.3457 41.1592 35.2398 37.0005 34.1738 32.9729H20.221L17.3243 42.2432L17.2826 42.2098C17.0172 42.6262 16.5526 42.8935 16.0398 42.8935C15.2315 42.8935 14.5703 42.2355 14.5664 41.4265L14.5684 41.3764L14.7438 40.3277C15.1441 37.9457 15.6235 35.4731 16.1703 32.9729H10.2779L10.2561 32.9504C9.18618 32.7961 8.36498 31.8528 8.36498 30.7528C8.36498 29.6739 9.12835 28.7563 10.1802 28.57C10.2766 28.5571 10.4713 28.5404 10.8697 28.5404C10.9545 28.5404 11.0496 28.541 11.1557 28.543C13.0236 28.5751 15.0047 28.6053 17.1778 28.6329C20.2538 16.1362 23.8156 9.79277 27.7667 9.77478C32.0071 9.77478 35.1518 19.4294 37.6694 28.8726L37.6797 28.9105C42.8524 29.014 48.3663 29.165 53.7259 29.5486L53.9502 29.5698C54.0363 29.5711 54.1205 29.5794 54.2034 29.5929L54.2349 29.5961C54.2409 29.597 54.2469 29.5987 54.253 29.6002C54.2559 29.6009 54.2589 29.6015 54.2618 29.6019L54.265 29.6027C54.2689 29.6037 54.2724 29.6046 54.276 29.6051ZM27.5971 14.0469C27.8214 14.0469 28.0232 14.1696 28.2005 14.4035C28.6458 15.0943 29.415 16.6435 30.553 20.1044C31.3318 22.4723 32.1812 25.4056 33.0802 28.8279C29.6701 28.7752 26.2201 28.736 22.8794 28.6981L21.1875 28.6788C23.0985 21.2077 25.4304 15.5376 27.1345 14.1992C27.2431 14.1298 27.4121 14.0469 27.5971 14.0469Z" fill="#007FD2"/>
</svg>
