<svg width="64" height="64" viewBox="0 0 64 64" fill="none" xmlns="http://www.w3.org/2000/svg">
<g clip-path="url(#clip0_891_382)">
<path d="M58.8162 0H47.1623C44.3435 0 42.0296 2.31394 42.0296 5.13274V20.1944H25.1588C22.4242 20.1944 20.1944 22.4242 20.1944 25.2009V42.0716H5.00653C2.2298 42.0716 0 44.3014 0 47.0781V58.8582C0 61.6349 2.2298 63.8647 5.00653 63.9489H58.8582C61.677 63.9489 63.991 61.6349 63.991 58.8161V5.13274C63.9489 2.31394 61.635 0 58.8162 0Z" fill="url(#paint0_linear_891_382)"/>
<path d="M58.8162 0H47.1623C44.3435 0 42.0296 2.31394 42.0296 5.13274V20.1944H25.1588C22.4242 20.1944 20.1944 22.4242 20.1944 25.2009V42.0716H5.00653C2.2298 42.0716 0 44.3014 0 47.0781V58.8582C0 61.6349 2.2298 63.8647 5.00653 63.9489H58.8582C61.677 63.9489 63.991 61.6349 63.991 58.8161V5.13274C63.9489 2.31394 61.635 0 58.8162 0Z" fill="url(#paint1_linear_891_382)"/>
<path d="M58.8117 0H47.2421C44.4233 0 42.1094 2.31394 42.1094 5.13274V63.9489H58.8117C61.6305 63.9489 63.9445 61.6349 63.9445 58.8161V5.13274C63.9445 2.31394 61.6305 0 58.8117 0Z" fill="#F57C00"/>
<path d="M20.1944 25.2439V42.0725H5.04859C2.27187 42.0725 0 44.3444 0 47.1211V58.9011C0 61.6778 2.27187 63.9497 5.04859 63.9497H42.0716V20.1953H25.2429C22.4662 20.1953 20.1944 22.4672 20.1944 25.2439Z" fill="#FFC107"/>
<path d="M42.0781 20.1953V63.9497H58.7806C61.5994 63.9497 63.9133 61.6358 63.9133 58.817V42.0725L42.0781 20.1953Z" fill="url(#paint2_linear_891_382)"/>
<path opacity="0.2" d="M25.2517 20.616H42.0803V20.1953H25.2517C22.475 20.1953 20.2031 22.4672 20.2031 25.2439V25.6646C20.2031 22.8879 22.475 20.616 25.2517 20.616Z" fill="white"/>
<path opacity="0.2" d="M5.04859 42.491H20.1944V42.0703H5.04859C2.27186 42.0703 0 44.3422 0 47.119V47.5397C0 44.7629 2.27186 42.491 5.04859 42.491Z" fill="white"/>
<path opacity="0.2" d="M58.8196 0H47.2499C44.4311 0 42.1172 2.31394 42.1172 5.13274V5.55346C42.1172 2.73466 44.4311 0.420716 47.2499 0.420716H58.8196C61.6383 0.420716 63.9523 2.73466 63.9523 5.55346V5.13274C63.9523 2.31394 61.6383 0 58.8196 0Z" fill="white"/>
<path opacity="0.2" d="M58.816 63.5274H5.04858C2.27186 63.5274 0 61.2555 0 58.4787V58.8994C0 61.6762 2.27186 63.9481 5.04858 63.9481H58.7739C61.5927 63.9481 63.9066 61.6341 63.9066 58.8153V58.3945C63.9487 61.2134 61.6347 63.5274 58.816 63.5274Z" fill="#BF360C"/>
<path d="M58.8162 0H47.2465C44.4277 0 42.1137 2.31394 42.1137 5.13274V20.1944H25.2851C22.5083 20.1944 20.2365 22.4662 20.2365 25.243V42.0716H5.0486C2.27187 42.0716 0 44.3435 0 47.1202V58.9003C0 61.677 2.27187 63.9489 5.0486 63.9489H58.8162C61.635 63.9489 63.9489 61.6349 63.9489 58.8161V5.13274C63.9489 2.31394 61.635 0 58.8162 0Z" fill="url(#paint3_linear_891_382)"/>
</g>
<defs>
<linearGradient id="paint0_linear_891_382" x1="0" y1="31.9744" x2="63.991" y2="31.9744" gradientUnits="userSpaceOnUse">
<stop stop-color="white" stop-opacity="0.1"/>
<stop offset="1" stop-color="white" stop-opacity="0"/>
</linearGradient>
<linearGradient id="paint1_linear_891_382" x1="0" y1="31.9744" x2="63.991" y2="31.9744" gradientUnits="userSpaceOnUse">
<stop stop-color="white" stop-opacity="0.1"/>
<stop offset="1" stop-color="white" stop-opacity="0"/>
</linearGradient>
<linearGradient id="paint2_linear_891_382" x1="31.2447" y1="31.2391" x2="62.4239" y2="62.4184" gradientUnits="userSpaceOnUse">
<stop stop-color="#BF360C" stop-opacity="0.2"/>
<stop offset="1" stop-color="#BF360C" stop-opacity="0.02"/>
</linearGradient>
<linearGradient id="paint3_linear_891_382" x1="21.4435" y1="21.4696" x2="62.8108" y2="62.8369" gradientUnits="userSpaceOnUse">
<stop stop-color="white" stop-opacity="0.1"/>
<stop offset="1" stop-color="white" stop-opacity="0"/>
</linearGradient>
<clipPath id="clip0_891_382">
<rect width="64" height="63.9488" fill="white"/>
</clipPath>
</defs>
</svg>
