<svg width="64" height="64" viewBox="0 0 64 64" fill="none" xmlns="http://www.w3.org/2000/svg">
<path d="M24.285 23.0469L8.85938 31.9998V45.9841C8.85938 48.1978 10.0347 50.2435 11.9428 51.3509L24.285 58.5143V23.0469Z" fill="#ABE9FE" stroke="black" stroke-width="3.93846"/>
<path d="M52.0491 51.3511C53.9572 50.2437 55.1325 48.198 55.1325 45.9843V32L33.5375 44.5336C32.5825 45.0879 31.4056 45.0879 30.4506 44.5336L24.2812 40.9529V58.5145L28.9072 61.1994C30.8172 62.3079 33.171 62.3079 35.0809 61.1994L52.0491 51.3511Z" fill="#FBA99D" stroke="black" stroke-width="3.93846"/>
<path d="M55.1366 31.9988V18.0145C55.1366 15.8008 53.9613 13.7552 52.0532 12.6477L39.7109 5.48438V40.9518L55.1366 31.9988Z" fill="#FEF284" stroke="black" stroke-width="3.93846"/>
<path d="M11.9428 12.6484C10.0347 13.7558 8.85938 15.8015 8.85938 18.0152V31.9995L30.4544 19.4659C31.4094 18.9116 32.5863 18.9116 33.5413 19.4659L39.7107 23.0466V5.48503L35.0847 2.80014C33.1747 1.69162 30.821 1.69162 28.911 2.80014L11.9428 12.6484Z" fill="#C3E29E" stroke="black" stroke-width="3.93846"/>
</svg>
