<svg width="64" height="64" viewBox="0 0 64 64" fill="none" xmlns="http://www.w3.org/2000/svg">
<path d="M13.9436 35.0212C13.4719 35.9647 12.1256 35.9647 11.6539 35.0212L10.5258 32.765C10.3456 32.4046 10.3456 31.9804 10.5258 31.6201L11.6539 29.3639C12.1256 28.4204 13.4719 28.4204 13.9436 29.3639L15.0718 31.6201C15.2519 31.9804 15.2519 32.4046 15.0718 32.765L13.9436 35.0212ZM13.9436 47.8175C13.4719 48.7609 12.1256 48.7609 11.6539 47.8175L10.5258 45.5611C10.3456 45.2008 10.3456 44.7766 10.5258 44.4163L11.6539 42.16C12.1256 41.2165 13.4719 41.2165 13.9436 42.16L15.0718 44.4163C15.2519 44.7766 15.2519 45.2008 15.0718 45.5611L13.9436 47.8175Z" fill="#1D4AFF"/>
<path d="M0 42.9608C0 41.8205 1.37874 41.2493 2.1851 42.0557L8.05183 47.9225C8.85819 48.7289 8.28709 50.1076 7.14674 50.1076H1.28C0.573075 50.1076 0 49.5345 0 48.8276V42.9608ZM0 36.7812C0 37.1207 0.134857 37.4463 0.374903 37.6863L12.4213 49.7327C12.6613 49.9727 12.9869 50.1076 13.3263 50.1076H19.9429C21.0833 50.1076 21.6544 48.7289 20.848 47.9225L2.1851 29.2596C1.37874 28.4532 0 29.0243 0 30.1647V36.7812ZM0 23.9851C0 24.3245 0.134857 24.6501 0.374903 24.8901L25.2174 49.7327C25.4574 49.9727 25.783 50.1076 26.1225 50.1076H32.7391C33.8794 50.1076 34.4506 48.7289 33.6442 47.9225L2.1851 16.4634C1.37875 15.6571 0 16.2282 0 17.3685V23.9851ZM12.7962 23.9851C12.7962 24.3245 12.9311 24.6501 13.1711 24.8901L36.2034 47.9225C37.0098 48.7289 38.3885 48.1577 38.3885 47.0174V40.4008C38.3885 40.0614 38.2536 39.7357 38.0136 39.4957L14.9812 16.4634C14.1748 15.6571 12.7962 16.2282 12.7962 17.3685V23.9851ZM27.7774 16.4634C26.971 15.6571 25.5923 16.2282 25.5923 17.3685V23.9851C25.5923 24.3245 25.7272 24.6501 25.9672 24.8901L36.2034 35.1263C37.0098 35.9327 38.3885 35.3616 38.3885 34.2212V27.6047C38.3885 27.2652 38.2536 26.9396 38.0136 26.6996L27.7774 16.4634Z" fill="#F9BD2B"/>
<path d="M54.4365 43.1211L42.3882 31.0728C41.5818 30.2664 40.2031 30.8375 40.2031 31.9779V48.8309C40.2031 49.5378 40.7762 50.1109 41.4831 50.1109H60.1463C60.8532 50.1109 61.4263 49.5378 61.4263 48.8309V47.2962C61.4263 46.5892 60.8508 46.0246 60.1497 45.9333C57.9985 45.6533 55.9862 44.6708 54.4365 43.1211ZM46.3452 46.0162C45.2151 46.0162 44.2978 45.0989 44.2978 43.9687C44.2978 42.8386 45.2151 41.9213 46.3452 41.9213C47.4754 41.9213 48.3927 42.8386 48.3927 43.9687C48.3927 45.0989 47.4754 46.0162 46.3452 46.0162Z" fill="black"/>
<path d="M0 48.8276C0 49.5345 0.573075 50.1076 1.28 50.1076H7.14674C8.28709 50.1076 8.85819 48.7289 8.05184 47.9225L2.1851 42.0557C1.37874 41.2493 0 41.8205 0 42.9608V48.8276ZM12.7962 27.0745L2.1851 16.4634C1.37874 15.657 0 16.2281 0 17.3685V23.985C0 24.3245 0.134857 24.6501 0.374903 24.8901L12.7962 37.3114V27.0745ZM2.1851 29.2596C1.37874 28.4532 0 29.0243 0 30.1646V36.7812C0 37.1207 0.134857 37.4463 0.374903 37.6863L12.7962 50.1076V39.8706L2.1851 29.2596Z" fill="#1D4AFF"/>
<path d="M25.593 27.6046C25.593 27.2652 25.4582 26.9396 25.2181 26.6996L14.9819 16.4634C14.1757 15.657 12.7969 16.2281 12.7969 17.3685V23.985C12.7969 24.3245 12.9318 24.6501 13.1718 24.8901L25.593 37.3114V27.6046ZM12.7969 50.1076H19.9436C21.084 50.1076 21.6551 48.7289 20.8487 47.9225L12.7969 39.8706V50.1076ZM12.7969 27.0745V36.7812C12.7969 37.1207 12.9318 37.4463 13.1718 37.6863L25.593 50.1076V40.4008C25.593 40.0613 25.4582 39.7357 25.2181 39.4957L12.7969 27.0745Z" fill="#F54E00"/>
</svg>
