<svg width="64" height="64" viewBox="0 0 64 64" fill="none" xmlns="http://www.w3.org/2000/svg">
<path d="M63.3348 29.2855L50.0552 6.28262C49.5355 5.48042 48.8315 4.81435 48.0015 4.34008C47.1718 3.86585 46.2405 3.59725 45.2855 3.55675H35.3845C35.2938 3.54358 35.2015 3.54358 35.1108 3.55675H18.7106C17.7555 3.59682 16.8242 3.86635 15.9953 4.34252C15.1664 4.81868 14.4644 5.48752 13.9487 6.29238L0.665144 29.2855C0.228024 30.1357 0 31.0778 0 32.0338C0 32.9898 0.228024 33.9321 0.665144 34.7821L13.9526 57.7968C14.4681 58.6018 15.1693 59.2715 15.9972 59.7495C16.8251 60.2275 17.7556 60.5001 18.7106 60.5442H45.2855C46.2412 60.5008 47.1725 60.2285 48.0012 59.7505C48.8298 59.2725 49.5315 58.6025 50.0475 57.7968L63.3348 34.7821C63.7718 33.9321 63.9998 32.9898 63.9998 32.0338C63.9998 31.0778 63.7718 30.1357 63.3348 29.2855ZM48.4022 7.24008L53.2522 15.6424L44.7558 30.1824L39.1948 20.6584C39.1108 20.5152 38.9912 20.3963 38.8472 20.3137C38.7032 20.2311 38.5402 20.1876 38.3742 20.1875H27.3357L35.7888 5.46192H45.2855C45.9042 5.50362 46.5052 5.68492 47.0435 5.99218C47.5822 6.29948 48.0438 6.72482 48.3942 7.23618L48.4022 7.24008ZM32.6038 31.1574L27.3084 22.0907H37.8308L43.1302 31.1555L32.6038 31.1574ZM30.8745 32.0778L25.6396 41.0448L20.3852 32.0348L25.6181 23.0677L30.8745 32.0778ZM32.5491 33.0743H43.0168L37.8172 41.9868H27.3084L32.5491 33.0743ZM15.6115 7.24008C15.9612 6.73145 16.4219 6.30885 16.9587 6.00418C17.4956 5.69955 18.0946 5.52082 18.7106 5.48145H33.5788L25.1355 20.1875H8.1354L15.6115 7.24008ZM2.32412 30.2429L7.02747 22.0907H23.9767L18.4468 31.5502C18.3611 31.6962 18.3159 31.8625 18.3159 32.0319C18.3159 32.2012 18.3611 32.3675 18.4468 32.5135L23.9767 41.9848H7.02747L2.31825 33.8405C2.04791 33.2803 1.90751 32.6664 1.90751 32.0446C1.90751 31.4227 2.04791 30.8088 2.31825 30.2488L2.32412 30.2429ZM18.7106 58.6311C18.0902 58.5872 17.488 58.4025 16.9494 58.0911C16.4108 57.7801 15.95 57.3508 15.6018 56.8355L8.12174 43.8898H25.071L33.5985 58.6311H18.7106ZM48.3925 56.8355C48.0445 57.3505 47.5838 57.7798 47.0455 58.0908C46.5075 58.4018 45.9055 58.5868 45.2855 58.6311H35.8105L27.281 43.8841H38.3605C38.5265 43.8838 38.6895 43.8405 38.8335 43.7578C38.9775 43.6751 39.0972 43.5565 39.1812 43.4131L44.6992 33.9711L53.1835 48.5445L48.3925 56.8355ZM61.6798 33.8208L54.2895 46.6315L45.8365 32.1032L54.3582 17.5378L61.6935 30.239C61.9638 30.7991 62.1042 31.4129 62.1042 32.0348C62.1042 32.6567 61.9638 33.2705 61.6935 33.8305" fill="#41308C"/>
</svg>
