<svg width="64" height="64" viewBox="0 0 64 64" fill="none" xmlns="http://www.w3.org/2000/svg">
<g clip-path="url(#clip0_1448_14067)">
<path d="M63.0625 14.029H0.9375V7.46288C0.9375 6.06813 2.06813 4.9375 3.46288 4.9375H60.5371C61.9319 4.9375 63.0625 6.06813 63.0625 7.46288V14.029Z" fill="#7EB457"/>
<path d="M60.5381 4.9375H56.75C58.1447 4.9375 59.2754 6.06812 59.2754 7.46287V14.0289H63.0635V7.46287C63.0635 6.06812 61.9329 4.9375 60.5381 4.9375Z" fill="#77AD50"/>
<path d="M60.5371 59.0335H3.46288C2.06813 59.0335 0.9375 57.9029 0.9375 56.5081V14H63.0625V56.5081C63.0625 57.9029 61.9319 59.0335 60.5371 59.0335Z" fill="#F4FBFF"/>
<path d="M59.2754 14.0273V56.5355C59.2754 57.9302 58.1447 59.0608 56.75 59.0608H60.5381C61.9329 59.0608 63.0635 57.9302 63.0635 56.5355V14.0273H59.2754Z" fill="#E4F6FF"/>
<path d="M55.234 7.96484C54.3971 7.96484 53.7188 8.64322 53.7188 9.48009C53.7188 10.317 54.3971 10.9953 55.234 10.9953C56.0709 10.9953 56.7492 10.317 56.7492 9.48009C56.7492 8.64322 56.0709 7.96484 55.234 7.96484Z" fill="black"/>
<path d="M50.1793 7.96875C49.3424 7.96875 48.6641 8.64712 48.6641 9.484C48.6641 10.3209 49.3424 10.9992 50.1793 10.9992C51.0162 10.9992 51.6945 10.3209 51.6945 9.484C51.6945 8.64712 51.0162 7.96875 50.1793 7.96875Z" fill="black"/>
<path d="M45.1324 10.9992C45.9693 10.9992 46.6477 10.3208 46.6477 9.484C46.6477 8.64715 45.9693 7.96875 45.1324 7.96875C44.2956 7.96875 43.6172 8.64715 43.6172 9.484C43.6172 10.3208 44.2956 10.9992 45.1324 10.9992Z" fill="black"/>
<path d="M60.5371 4H3.46287C1.5535 4 0 5.5535 0 7.46288V42.1075C0 42.6253 0.419625 43.045 0.9375 43.045C1.45537 43.045 1.875 42.6253 1.875 42.1075V14.9665H62.125V22.8638C62.125 23.3815 62.5446 23.8013 63.0625 23.8013C63.5804 23.8013 64 23.3815 64 22.8638V7.46288C64 5.5535 62.4465 4 60.5371 4ZM1.875 7.46288C1.875 6.58738 2.58725 5.875 3.46287 5.875H60.5371C61.4128 5.875 62.125 6.58738 62.125 7.46288V13.0915H1.875V7.46288Z" fill="black"/>
<path d="M63.0625 26.3008C62.5446 26.3008 62.125 26.7205 62.125 27.2383V56.537C62.125 57.4124 61.4129 58.1245 60.5375 58.1245H3.4625C2.58713 58.1245 1.875 57.4124 1.875 56.537V46.357C1.875 45.8393 1.45538 45.4195 0.9375 45.4195C0.419625 45.4195 0 45.8393 0 46.357V56.537C0 58.4463 1.55325 59.9995 3.4625 59.9995H60.5375C62.4468 59.9995 64 58.4463 64 56.537V27.2383C64 26.7205 63.5804 26.3008 63.0625 26.3008Z" fill="black"/>
<path d="M32.8372 24.375H28.423C26.8613 24.375 25.595 25.641 25.595 27.203V31.5303H22.328C20.7662 31.5303 19.5 32.7963 19.5 34.3583V39.0375C19.5 40.5993 20.7662 41.8655 22.328 41.8655H25.3762C25.7897 41.8655 26.125 41.5303 26.125 41.1168V38.7528C26.125 36.9593 27.5787 35.5055 29.3722 35.5055H34.473C35.1315 35.5055 35.6652 34.9718 35.6652 34.3133V27.2032C35.6652 25.641 34.3993 24.375 32.8372 24.375Z" fill="#5290DB"/>
<path d="M41.5795 31.2656H38.5312C38.1177 31.2656 37.7824 31.6009 37.7824 32.0144V34.3784C37.7824 36.1719 36.3287 37.6256 34.5352 37.6256H29.4344C28.7759 37.6256 28.2422 38.1594 28.2422 38.8179V45.9279C28.2422 47.4896 29.5084 48.7559 31.0702 48.7559H35.4844C37.0462 48.7559 38.3124 47.4899 38.3124 45.9279V41.6006H41.5795C43.1412 41.6006 44.4075 40.3346 44.4075 38.7726V34.0934C44.4075 32.5319 43.1412 31.2656 41.5795 31.2656Z" fill="#FC8C48"/>
<path d="M29.3019 29.1428C29.9605 29.1428 30.4944 28.6089 30.4944 27.9503C30.4944 27.2917 29.9605 26.7578 29.3019 26.7578C28.6433 26.7578 28.1094 27.2917 28.1094 27.9503C28.1094 28.6089 28.6433 29.1428 29.3019 29.1428Z" fill="#EDF4FC"/>
<path d="M34.6066 46.3694C35.2652 46.3694 35.7991 45.8355 35.7991 45.1769C35.7991 44.5183 35.2652 43.9844 34.6066 43.9844C33.948 43.9844 33.4141 44.5183 33.4141 45.1769C33.4141 45.8355 33.948 46.3694 34.6066 46.3694Z" fill="#EDF4FC"/>
<path d="M25.3765 42.4903H22.328C20.424 42.4903 18.875 40.9413 18.875 39.0373V34.358C18.875 32.454 20.424 30.905 22.328 30.905H24.9703V27.203C24.9703 25.299 26.5193 23.75 28.4233 23.75H32.8375C34.7415 23.75 36.2905 25.299 36.2905 27.203V34.313C36.2905 35.315 35.4753 36.1303 34.4735 36.1303H29.3728C27.9268 36.1303 26.7505 37.3068 26.7505 38.7525V41.1165C26.7503 41.8738 26.1338 42.4903 25.3765 42.4903ZM22.328 32.155C21.1132 32.155 20.125 33.1433 20.125 34.358V39.0373C20.125 40.252 21.1132 41.2403 22.328 41.2403H25.3763C25.4445 41.2403 25.5 41.1848 25.5 41.1165V38.7525C25.5 36.6173 27.237 34.8803 29.3723 34.8803H34.473C34.7855 34.8803 35.04 34.6258 35.04 34.313V27.203C35.04 25.9883 34.0518 25 32.837 25H28.4228C27.208 25 26.2198 25.9883 26.2198 27.203V31.5303C26.2198 31.8755 25.94 32.1553 25.5948 32.1553H22.328V32.155Z" fill="black"/>
<path d="M30.5044 32.1563H25.7344C25.3891 32.1563 25.1094 31.8765 25.1094 31.5313C25.1094 31.186 25.3891 30.9062 25.7344 30.9062H30.5044C30.8496 30.9062 31.1294 31.186 31.1294 31.5313C31.1294 31.8765 30.8496 32.1563 30.5044 32.1563Z" fill="black"/>
<path d="M35.4844 49.3809H31.0702C29.1662 49.3809 27.6172 47.8319 27.6172 45.9279V38.8179C27.6172 37.8159 28.4324 37.0006 29.4344 37.0006H34.5349C35.9809 37.0006 37.1572 35.8241 37.1572 34.3784V32.0144C37.1572 31.2569 37.7734 30.6406 38.5309 30.6406H41.5792C43.4829 30.6406 45.0322 32.1896 45.0322 34.0936V38.7729C45.0322 40.6769 43.4832 42.2259 41.5792 42.2259H38.9372V45.9281C38.9372 47.8319 37.3882 49.3809 35.4844 49.3809ZM29.4344 38.2509C29.1217 38.2509 28.8672 38.5054 28.8672 38.8181V45.9281C28.8672 47.1429 29.8554 48.1311 31.0702 48.1311H35.4844C36.6989 48.1311 37.6874 47.1429 37.6874 45.9281V41.6009C37.6874 41.2556 37.9672 40.9759 38.3124 40.9759H41.5794C42.7939 40.9759 43.7824 39.9876 43.7824 38.7729V34.0936C43.7824 32.8789 42.7942 31.8906 41.5794 31.8906H38.5312C38.4629 31.8906 38.4074 31.9461 38.4074 32.0144V34.3784C38.4074 36.5136 36.6704 38.2506 34.5352 38.2506H29.4344V38.2509Z" fill="black"/>
<path d="M38.1841 42.2266H33.4141C33.0688 42.2266 32.7891 41.9468 32.7891 41.6016C32.7891 41.2563 33.0688 40.9766 33.4141 40.9766H38.1841C38.5293 40.9766 38.8091 41.2563 38.8091 41.6016C38.8091 41.9468 38.5293 42.2266 38.1841 42.2266Z" fill="black"/>
<path d="M29.3019 29.772C28.2996 29.772 27.4844 28.9567 27.4844 27.9545C27.4844 26.9522 28.2996 26.1367 29.3019 26.1367C30.3041 26.1367 31.1194 26.9522 31.1194 27.9545C31.1194 28.9567 30.3041 29.772 29.3019 29.772ZM29.3019 27.387C28.9891 27.387 28.7344 27.6417 28.7344 27.9547C28.7344 28.2675 28.9891 28.5222 29.3019 28.5222C29.6146 28.5222 29.8694 28.2675 29.8694 27.9547C29.8694 27.6415 29.6146 27.387 29.3019 27.387Z" fill="black"/>
<path d="M34.6144 46.9944C33.6121 46.9944 32.7969 46.1791 32.7969 45.1769C32.7969 44.1746 33.6121 43.3594 34.6144 43.3594C35.6164 43.3594 36.4319 44.1746 36.4319 45.1769C36.4319 46.1791 35.6164 46.9944 34.6144 46.9944ZM34.6144 44.6094C34.3016 44.6094 34.0469 44.8641 34.0469 45.1769C34.0469 45.4896 34.3016 45.7444 34.6144 45.7444C34.9271 45.7444 35.1819 45.4896 35.1819 45.1769C35.1819 44.8641 34.9274 44.6094 34.6144 44.6094Z" fill="black"/>
</g>
<defs>
<clipPath id="clip0_1448_14067">
<rect width="64" height="64" fill="white"/>
</clipPath>
</defs>
</svg>
