<svg width="44" height="44" viewBox="0 0 44 44" fill="none" xmlns="http://www.w3.org/2000/svg">
<g clip-path="url(#clip0_1885_11819)">
<path d="M38.0077 5.72985H0.5625V1.97775C0.5625 1.18074 1.24397 0.534668 2.08464 0.534668H36.4856C37.3262 0.534668 38.0077 1.18074 38.0077 1.97775V5.72985Z" fill="#9DC6FB"/>
<path d="M36.4864 0.534668H34.2031C35.0438 0.534668 35.7253 1.18074 35.7253 1.97775V5.72978H38.0085V1.97775C38.0085 1.18074 37.327 0.534668 36.4864 0.534668V0.534668Z" fill="#80B4FB"/>
<path d="M36.4856 31.4485H2.08464C1.24397 31.4485 0.5625 30.8024 0.5625 30.0054V5.71484H38.0077V30.0054C38.0077 30.8024 37.3262 31.4485 36.4856 31.4485Z" fill="#F4FBFF"/>
<path d="M35.7253 5.73096V30.0215C35.7253 30.8185 35.0438 31.4646 34.2031 31.4646H36.4864C37.327 31.4646 38.0085 30.8185 38.0085 30.0215V5.73096H35.7253Z" fill="#E4F6FF"/>
<path d="M33.2922 2.2666C32.7878 2.2666 32.3789 2.65425 32.3789 3.13246C32.3789 3.61068 32.7878 3.99833 33.2922 3.99833C33.7966 3.99833 34.2055 3.61068 34.2055 3.13246C34.2055 2.65425 33.7966 2.2666 33.2922 2.2666Z" fill="black"/>
<path d="M30.2492 2.2666C29.7448 2.2666 29.3359 2.65425 29.3359 3.13246C29.3359 3.61068 29.7448 3.99833 30.2492 3.99833C30.7537 3.99833 31.1625 3.61068 31.1625 3.13246C31.1625 2.65425 30.7537 2.2666 30.2492 2.2666Z" fill="black"/>
<path d="M27.2063 3.99833C27.7107 3.99833 28.1196 3.61067 28.1196 3.13246C28.1196 2.65426 27.7107 2.2666 27.2063 2.2666C26.7019 2.2666 26.293 2.65426 26.293 3.13246C26.293 3.61067 26.7019 3.99833 27.2063 3.99833Z" fill="black"/>
<path d="M36.4881 0H2.08721C0.936356 0 0 0.88772 0 1.9788V21.7759C0 22.0717 0.252925 22.3116 0.565068 22.3116C0.877212 22.3116 1.13014 22.0717 1.13014 21.7759V6.26662H37.4452V10.7794C37.4452 11.0752 37.6981 11.3151 38.0103 11.3151C38.3224 11.3151 38.5753 11.0752 38.5753 10.7794V1.9788C38.5753 0.88772 37.639 0 36.4881 0ZM1.13014 1.9788C1.13014 1.47851 1.55944 1.07144 2.08721 1.07144H36.4881C37.0159 1.07144 37.4452 1.47851 37.4452 1.9788V5.19518H1.13014V1.9788Z" fill="black"/>
<path d="M38.0103 12.7432C37.6981 12.7432 37.4452 12.983 37.4452 13.2789V30.0211C37.4452 30.5214 37.016 30.9283 36.4884 30.9283H2.08699C1.55936 30.9283 1.13014 30.5214 1.13014 30.0211V24.204C1.13014 23.9081 0.877212 23.6682 0.565068 23.6682C0.252925 23.6682 0 23.9081 0 24.204V30.0211C0 31.1122 0.936205 31.9997 2.08699 31.9997H36.4884C37.6391 31.9997 38.5753 31.1122 38.5753 30.0211V13.2789C38.5753 12.983 38.3224 12.7432 38.0103 12.7432Z" fill="black"/>
<path d="M19.7889 11.6421H17.1282C16.1869 11.6421 15.4237 12.3655 15.4237 13.2581V15.7308H13.4545C12.5132 15.7308 11.75 16.4543 11.75 17.3468V20.0207C11.75 20.9132 12.5132 21.6367 13.4545 21.6367H15.2918C15.5411 21.6367 15.7432 21.4452 15.7432 21.2089V19.858C15.7432 18.8331 16.6194 18.0024 17.7004 18.0024H20.7748C21.1717 18.0024 21.4934 17.6974 21.4934 17.3211V13.2582C21.4934 12.3655 20.7304 11.6421 19.7889 11.6421V11.6421Z" fill="#5290DB"/>
<path d="M25.0623 15.5791H23.225C22.9758 15.5791 22.7737 15.7707 22.7737 16.007V17.3578C22.7737 18.3827 21.8975 19.2134 20.8165 19.2134H17.7421C17.3451 19.2134 17.0234 19.5184 17.0234 19.8947V23.9576C17.0234 24.85 17.7867 25.5736 18.728 25.5736H21.3886C22.33 25.5736 23.0932 24.8502 23.0932 23.9576V21.4849H25.0623C26.0037 21.4849 26.7669 20.7614 26.7669 19.8688V17.195C26.7669 16.3027 26.0037 15.5791 25.0623 15.5791Z" fill="#FC8C48"/>
<path d="M17.6563 14.3663C18.0532 14.3663 18.375 14.0612 18.375 13.6849C18.375 13.3085 18.0532 13.0034 17.6563 13.0034C17.2593 13.0034 16.9375 13.3085 16.9375 13.6849C16.9375 14.0612 17.2593 14.3663 17.6563 14.3663Z" fill="#EDF4FC"/>
<path d="M20.8594 24.2091C21.2564 24.2091 21.5782 23.904 21.5782 23.5276C21.5782 23.1513 21.2564 22.8462 20.8594 22.8462C20.4624 22.8462 20.1406 23.1513 20.1406 23.5276C20.1406 23.904 20.4624 24.2091 20.8594 24.2091Z" fill="#EDF4FC"/>
<path d="M15.2937 21.9935H13.4563C12.3086 21.9935 11.375 21.1083 11.375 20.0203V17.3464C11.375 16.2584 12.3086 15.3733 13.4563 15.3733H15.0488V13.2578C15.0488 12.1698 15.9825 11.2847 17.1301 11.2847H19.7908C20.9384 11.2847 21.872 12.1698 21.872 13.2578V17.3207C21.872 17.8933 21.3806 18.3591 20.7768 18.3591H17.7024C16.8308 18.3591 16.1219 19.0314 16.1219 19.8576V21.2085C16.1217 21.6412 15.7501 21.9935 15.2937 21.9935V21.9935ZM13.4563 16.0876C12.7241 16.0876 12.1284 16.6523 12.1284 17.3464V20.0203C12.1284 20.7144 12.7241 21.2792 13.4563 21.2792H15.2936C15.3347 21.2792 15.3682 21.2475 15.3682 21.2085V19.8576C15.3682 18.6374 16.4151 17.6449 17.7021 17.6449H20.7765C20.9649 17.6449 21.1183 17.4994 21.1183 17.3207V13.2578C21.1183 12.5637 20.5226 11.999 19.7905 11.999H17.1298C16.3976 11.999 15.802 12.5637 15.802 13.2578V15.7306C15.802 15.9278 15.6334 16.0877 15.4253 16.0877H13.4563V16.0876Z" fill="black"/>
<path d="M18.3807 16.0893H15.5056C15.2975 16.0893 15.1289 15.9294 15.1289 15.7321C15.1289 15.5349 15.2975 15.375 15.5056 15.375H18.3807C18.5888 15.375 18.7574 15.5349 18.7574 15.7321C18.7574 15.9294 18.5888 16.0893 18.3807 16.0893Z" fill="black"/>
<path d="M21.3903 25.9305H18.7297C17.5821 25.9305 16.6484 25.0453 16.6484 23.9573V19.8944C16.6484 19.3219 17.1398 18.856 17.7438 18.856H20.818C21.6896 18.856 22.3986 18.1837 22.3986 17.3576V16.0067C22.3986 15.5738 22.77 15.2217 23.2266 15.2217H25.0639C26.2114 15.2217 27.1451 16.1068 27.1451 17.1948V19.8687C27.1451 20.9567 26.2115 21.8419 25.0639 21.8419H23.4714V23.9575C23.4714 25.0453 22.5378 25.9305 21.3903 25.9305V25.9305ZM17.7438 19.5704C17.5553 19.5704 17.4019 19.7159 17.4019 19.8946V23.9575C17.4019 24.6516 17.9975 25.2163 18.7297 25.2163H21.3903C22.1224 25.2163 22.7182 24.6516 22.7182 23.9575V21.4847C22.7182 21.2874 22.8868 21.1276 23.0949 21.1276H25.064C25.7961 21.1276 26.3919 20.5629 26.3919 19.8687V17.1948C26.3919 16.5007 25.7962 15.936 25.064 15.936H23.2267C23.1856 15.936 23.1521 15.9677 23.1521 16.0067V17.3576C23.1521 18.5777 22.1052 19.5703 20.8182 19.5703H17.7438V19.5704Z" fill="black"/>
<path d="M23.0135 21.8417H20.1384C19.9303 21.8417 19.7617 21.6819 19.7617 21.4846C19.7617 21.2873 19.9303 21.1274 20.1384 21.1274H23.0135C23.2216 21.1274 23.3902 21.2873 23.3902 21.4846C23.3902 21.6819 23.2216 21.8417 23.0135 21.8417Z" fill="black"/>
<path d="M17.658 14.7238C17.0539 14.7238 16.5625 14.2579 16.5625 13.6852C16.5625 13.1125 17.0539 12.6465 17.658 12.6465C18.2621 12.6465 18.7535 13.1125 18.7535 13.6852C18.7535 14.2579 18.2621 14.7238 17.658 14.7238ZM17.658 13.3609C17.4695 13.3609 17.3159 13.5065 17.3159 13.6853C17.3159 13.8641 17.4695 14.0096 17.658 14.0096C17.8465 14.0096 18 13.8641 18 13.6853C18 13.5063 17.8465 13.3609 17.658 13.3609Z" fill="black"/>
<path d="M20.8572 24.5659C20.2531 24.5659 19.7617 24.1001 19.7617 23.5273C19.7617 22.9546 20.2531 22.4888 20.8572 22.4888C21.4611 22.4888 21.9527 22.9546 21.9527 23.5273C21.9527 24.1001 21.4611 24.5659 20.8572 24.5659V24.5659ZM20.8572 23.2031C20.6687 23.2031 20.5151 23.3486 20.5151 23.5273C20.5151 23.7061 20.6687 23.8516 20.8572 23.8516C21.0457 23.8516 21.1993 23.7061 21.1993 23.5273C21.1993 23.3486 21.0459 23.2031 20.8572 23.2031V23.2031Z" fill="black"/>
<path d="M43.5077 17.4169H6.0625V13.6648C6.0625 12.8678 6.74397 12.2217 7.58464 12.2217H41.9856C42.8262 12.2217 43.5077 12.8678 43.5077 13.6648V17.4169Z" fill="#9DC6FB"/>
<path d="M41.9864 12.2212H39.7031C40.5438 12.2212 41.2253 12.8673 41.2253 13.6643V17.4163H43.5085V13.6643C43.5085 12.8673 42.827 12.2212 41.9864 12.2212V12.2212Z" fill="#80B4FB"/>
<path d="M41.9856 43.1355H7.58464C6.74397 43.1355 6.0625 42.4894 6.0625 41.6924V17.4019H43.5077V41.6924C43.5077 42.4894 42.8262 43.1355 41.9856 43.1355Z" fill="#F4FBFF"/>
<path d="M41.2253 17.418V41.7085C41.2253 42.5055 40.5438 43.1516 39.7031 43.1516H41.9864C42.827 43.1516 43.5085 42.5055 43.5085 41.7085V17.418H41.2253Z" fill="#E4F6FF"/>
<path d="M38.7883 13.9536C38.2839 13.9536 37.875 14.3413 37.875 14.8195C37.875 15.2977 38.2839 15.6853 38.7883 15.6853C39.2927 15.6853 39.7016 15.2977 39.7016 14.8195C39.7016 14.3413 39.2927 13.9536 38.7883 13.9536Z" fill="black"/>
<path d="M35.7492 13.9536C35.2448 13.9536 34.8359 14.3413 34.8359 14.8195C34.8359 15.2977 35.2448 15.6853 35.7492 15.6853C36.2537 15.6853 36.6625 15.2977 36.6625 14.8195C36.6625 14.3413 36.2537 13.9536 35.7492 13.9536Z" fill="black"/>
<path d="M32.7024 15.6853C33.2068 15.6853 33.6157 15.2977 33.6157 14.8195C33.6157 14.3413 33.2068 13.9536 32.7024 13.9536C32.198 13.9536 31.7891 14.3413 31.7891 14.8195C31.7891 15.2977 32.198 15.6853 32.7024 15.6853Z" fill="black"/>
<path d="M41.9881 11.687H7.58721C6.43636 11.687 5.5 12.5747 5.5 13.6658V33.4629C5.5 33.7587 5.75292 33.9986 6.06507 33.9986C6.37721 33.9986 6.63014 33.7587 6.63014 33.4629V17.9536H42.9452V22.4664C42.9452 22.7622 43.1981 23.0021 43.5103 23.0021C43.8224 23.0021 44.0753 22.7622 44.0753 22.4664V13.6658C44.0753 12.5747 43.139 11.687 41.9881 11.687ZM6.63014 13.6658C6.63014 13.1655 7.05944 12.7584 7.58721 12.7584H41.9881C42.5159 12.7584 42.9452 13.1655 42.9452 13.6658V16.8822H6.63014V13.6658Z" fill="black"/>
<path d="M43.5103 24.4297C43.1981 24.4297 42.9452 24.6695 42.9452 24.9654V41.7077C42.9452 42.2079 42.516 42.6148 41.9884 42.6148H7.58699C7.05936 42.6148 6.63014 42.2079 6.63014 41.7077V35.8905C6.63014 35.5946 6.37721 35.3548 6.06507 35.3548C5.75292 35.3548 5.5 35.5946 5.5 35.8905V41.7077C5.5 42.7987 6.43621 43.6863 7.58699 43.6863H41.9884C43.1391 43.6863 44.0753 42.7987 44.0753 41.7077V24.9654C44.0753 24.6695 43.8224 24.4297 43.5103 24.4297Z" fill="black"/>
<path d="M25.2889 23.3291H22.6282C21.6869 23.3291 20.9237 24.0525 20.9237 24.9451V27.4178H18.9545C18.0132 27.4178 17.25 28.1413 17.25 29.0339V31.7077C17.25 32.6002 18.0132 33.3237 18.9545 33.3237H20.7918C21.0411 33.3237 21.2432 33.1322 21.2432 32.8959V31.545C21.2432 30.5202 22.1194 29.6894 23.2004 29.6894H26.2748C26.6717 29.6894 26.9934 29.3844 26.9934 29.0081V24.9453C26.9934 24.0525 26.2304 23.3291 25.2889 23.3291V23.3291Z" fill="#5290DB"/>
<path d="M30.5662 27.2661H28.7289C28.4797 27.2661 28.2776 27.4577 28.2776 27.694V29.0448C28.2776 30.0697 27.4014 30.9004 26.3204 30.9004H23.246C22.8491 30.9004 22.5273 31.2054 22.5273 31.5817V35.6446C22.5273 36.537 23.2906 37.2606 24.2319 37.2606H26.8925C27.8339 37.2606 28.5971 36.5372 28.5971 35.6446V33.1719H30.5662C31.5076 33.1719 32.2708 32.4484 32.2708 31.5559V28.882C32.2708 27.9897 31.5076 27.2661 30.5662 27.2661Z" fill="#FC8C48"/>
<path d="M23.1602 26.0533C23.5571 26.0533 23.8789 25.7482 23.8789 25.3719C23.8789 24.9955 23.5571 24.6904 23.1602 24.6904C22.7632 24.6904 22.4414 24.9955 22.4414 25.3719C22.4414 25.7482 22.7632 26.0533 23.1602 26.0533Z" fill="#EDF4FC"/>
<path d="M26.3594 35.8956C26.7564 35.8956 27.0782 35.5905 27.0782 35.2141C27.0782 34.8378 26.7564 34.5327 26.3594 34.5327C25.9624 34.5327 25.6406 34.8378 25.6406 35.2141C25.6406 35.5905 25.9624 35.8956 26.3594 35.8956Z" fill="#EDF4FC"/>
<path d="M20.7937 33.6805H18.9563C17.8086 33.6805 16.875 32.7953 16.875 31.7073V29.0334C16.875 27.9454 17.8086 27.0603 18.9563 27.0603H20.5488V24.9448C20.5488 23.8568 21.4825 22.9717 22.6301 22.9717H25.2908C26.4384 22.9717 27.372 23.8568 27.372 24.9448V29.0077C27.372 29.5803 26.8806 30.0462 26.2768 30.0462H23.2024C22.3308 30.0462 21.6219 30.7184 21.6219 31.5446V32.8955C21.6217 33.3282 21.2501 33.6805 20.7937 33.6805V33.6805ZM18.9563 27.7746C18.2241 27.7746 17.6284 28.3393 17.6284 29.0334V31.7073C17.6284 32.4015 18.2241 32.9662 18.9563 32.9662H20.7936C20.8347 32.9662 20.8682 32.9345 20.8682 32.8955V31.5446C20.8682 30.3244 21.9151 29.3319 23.2021 29.3319H26.2765C26.4649 29.3319 26.6183 29.1864 26.6183 29.0077V24.9448C26.6183 24.2507 26.0226 23.686 25.2905 23.686H22.6298C21.8976 23.686 21.302 24.2507 21.302 24.9448V27.4176C21.302 27.6149 21.1334 27.7747 20.9253 27.7747H18.9563V27.7746Z" fill="black"/>
<path d="M23.8807 27.7763H21.0056C20.7975 27.7763 20.6289 27.6164 20.6289 27.4192C20.6289 27.2219 20.7975 27.062 21.0056 27.062H23.8807C24.0888 27.062 24.2574 27.2219 24.2574 27.4192C24.2574 27.6164 24.0888 27.7763 23.8807 27.7763Z" fill="black"/>
<path d="M26.8942 37.6175H24.2336C23.086 37.6175 22.1523 36.7323 22.1523 35.6443V31.5814C22.1523 31.0089 22.6437 30.543 23.2477 30.543H26.3219C27.1935 30.543 27.9025 29.8707 27.9025 29.0446V27.6937C27.9025 27.2608 28.2739 26.9087 28.7305 26.9087H30.5678C31.7153 26.9087 32.6491 27.7938 32.6491 28.8818V31.5557C32.6491 32.6437 31.7154 33.5289 30.5678 33.5289H28.9754V35.6445C28.9754 36.7323 28.0417 37.6175 26.8942 37.6175V37.6175ZM23.2477 31.2574C23.0592 31.2574 22.9058 31.4029 22.9058 31.5816V35.6445C22.9058 36.3386 23.5014 36.9033 24.2336 36.9033H26.8942C27.6263 36.9033 28.2221 36.3386 28.2221 35.6445V33.1717C28.2221 32.9744 28.3907 32.8146 28.5988 32.8146H30.5679C31.3 32.8146 31.8958 32.2499 31.8958 31.5557V28.8818C31.8958 28.1877 31.3001 27.623 30.5679 27.623H28.7306C28.6895 27.623 28.6561 27.6547 28.6561 27.6937V29.0446C28.6561 30.2647 27.6091 31.2573 26.3221 31.2573H23.2477V31.2574Z" fill="black"/>
<path d="M28.5135 33.5283H25.6384C25.4303 33.5283 25.2617 33.3684 25.2617 33.1711C25.2617 32.9738 25.4303 32.814 25.6384 32.814H28.5135C28.7216 32.814 28.8902 32.9738 28.8902 33.1711C28.8902 33.3684 28.7216 33.5283 28.5135 33.5283Z" fill="black"/>
<path d="M23.1619 26.4103C22.5578 26.4103 22.0664 25.9444 22.0664 25.3717C22.0664 24.799 22.5578 24.333 23.1619 24.333C23.766 24.333 24.2574 24.799 24.2574 25.3717C24.2574 25.9444 23.766 26.4103 23.1619 26.4103ZM23.1619 25.0474C22.9734 25.0474 22.8198 25.193 22.8198 25.3719C22.8198 25.5506 22.9734 25.6962 23.1619 25.6962C23.3504 25.6962 23.5039 25.5506 23.5039 25.3719C23.5039 25.1929 23.3504 25.0474 23.1619 25.0474Z" fill="black"/>
<path d="M26.3572 36.2529C25.7531 36.2529 25.2617 35.7871 25.2617 35.2144C25.2617 34.6416 25.7531 34.1758 26.3572 34.1758C26.9611 34.1758 27.4527 34.6416 27.4527 35.2144C27.4527 35.7871 26.9611 36.2529 26.3572 36.2529V36.2529ZM26.3572 34.8901C26.1687 34.8901 26.0151 35.0356 26.0151 35.2144C26.0151 35.3931 26.1687 35.5386 26.3572 35.5386C26.5457 35.5386 26.6993 35.3931 26.6993 35.2144C26.6993 35.0356 26.5459 34.8901 26.3572 34.8901V34.8901Z" fill="black"/>
</g>
<defs>
<clipPath id="clip0_1885_11819">
<rect width="44" height="44" fill="white"/>
</clipPath>
</defs>
</svg>
