<svg width="44" height="44" viewBox="0 0 44 44" fill="none" xmlns="http://www.w3.org/2000/svg">
<path d="M22 40.5625C32.2518 40.5625 40.5625 32.2518 40.5625 22C40.5625 11.7482 32.2518 3.4375 22 3.4375C11.7482 3.4375 3.4375 11.7482 3.4375 22C3.4375 32.2518 11.7482 40.5625 22 40.5625Z" fill="#ABE9FE"/>
<path d="M40.5583 21.9985C40.5596 25.8777 39.3452 29.6599 37.0856 32.8132C34.8261 35.9665 31.6351 38.3323 27.9614 39.5782C24.2876 40.824 20.3158 40.8872 16.6042 39.7588C12.8927 38.6303 9.62816 36.3671 7.26953 33.2872C10.0173 35.3966 13.3007 36.6945 16.7481 37.0342C20.1954 37.3738 23.669 36.7416 26.7756 35.209C29.8822 33.6765 32.4977 31.3048 34.326 28.3626C36.1543 25.4203 37.1225 22.025 37.1208 18.561C37.1302 14.4766 35.7806 10.5052 33.2845 7.27222C35.5486 9.0014 37.3829 11.2299 38.6446 13.7842C39.9062 16.3385 40.5611 19.1496 40.5583 21.9985V21.9985Z" fill="#80DFFF"/>
<path d="M28.1875 15.125V27.5L28.1325 27.6306H15.8675L15.8125 27.5V15.125C15.8091 14.3999 16.0015 13.6873 16.3694 13.0625C16.7303 12.4353 17.2502 11.9144 17.8766 11.5523C18.5031 11.1902 19.214 10.9997 19.9375 11H24.0625C24.7861 10.9997 25.497 11.1902 26.1234 11.5523C26.7499 11.9144 27.2698 12.4353 27.6307 13.0625C27.9986 13.6873 28.191 14.3999 28.1875 15.125Z" fill="#57565C"/>
<path d="M28.1875 15.125V27.5L28.1325 27.6306H26.07L26.125 27.5V15.125C26.1285 14.3999 25.9361 13.6873 25.5681 13.0625C25.2072 12.4353 24.6873 11.9144 24.0609 11.5523C23.4344 11.1902 22.7236 10.9997 22 11H24.0625C24.7861 10.9997 25.4969 11.1902 26.1234 11.5523C26.7498 11.9144 27.2697 12.4353 27.6306 13.0625C27.9986 13.6873 28.191 14.3999 28.1875 15.125Z" fill="#3E3D42"/>
<path d="M30.9375 28.8752V33.0002H13.0625V28.8752L19.25 26.1252H24.75L30.9375 28.8752Z" fill="#FF7956"/>
<path d="M30.9355 28.8752V33.0002H28.1855V28.8752L23.9023 26.9709L24.748 26.1252L30.9355 28.8752Z" fill="#FF5023"/>
<path d="M26.125 15.8125V19.9375C26.125 21.0315 25.6904 22.0807 24.9168 22.8543C24.1432 23.6279 23.094 24.0625 22 24.0625C20.906 24.0625 19.8568 23.6279 19.0832 22.8543C18.3096 22.0807 17.875 21.0315 17.875 19.9375V15.8125L24.0625 14.4375L26.125 15.8125Z" fill="#FFDAAA"/>
<path d="M26.125 15.8123V19.9373C26.1255 20.4791 26.0192 21.0158 25.8121 21.5165C25.605 22.0172 25.3012 22.4721 24.918 22.8553C24.5349 23.2384 24.0799 23.5423 23.5792 23.7494C23.0785 23.9565 22.5419 24.0628 22 24.0623C21.6517 24.0623 21.3049 24.0161 20.9688 23.9248C21.1472 23.8843 21.322 23.8291 21.4912 23.7598C22.251 23.45 22.9012 22.921 23.3592 22.2402C23.8171 21.5594 24.0619 20.7577 24.0625 19.9373V15.8123L22.5156 14.781L24.0625 14.4373L26.125 15.8123Z" fill="#FFB655"/>
<path d="M23.5537 23.759L24.0625 26.8115L22 28.874L19.9375 26.8115L20.4462 23.759C21.4428 24.1624 22.5572 24.1624 23.5537 23.759V23.759Z" fill="#FFDAAA"/>
<path d="M24.0625 23.5066V24.8816C23.4363 25.2463 22.7246 25.4384 22 25.4384C21.2754 25.4384 20.5637 25.2463 19.9375 24.8816V23.5066C20.5637 23.8713 21.2754 24.0634 22 24.0634C22.7246 24.0634 23.4363 23.8713 24.0625 23.5066V23.5066Z" fill="#FFB655"/>
<path d="M41.2294 21.3125C41.071 16.6852 39.2417 12.2719 36.08 8.88938L37.07 7.89937L36.1006 6.93L35.1106 7.92C31.7281 4.75834 27.3148 2.92903 22.6875 2.77063V1.375H21.3125V2.77063C16.6852 2.92903 12.2719 4.75834 8.88938 7.92L7.89937 6.93L6.93 7.89937L7.92 8.88938C4.75834 12.2719 2.92903 16.6852 2.77063 21.3125H1.375V22.6875H2.77063C2.92903 27.3148 4.75834 31.7281 7.92 35.1106L6.93 36.1006L7.89937 37.07L8.88938 36.08C12.2719 39.2417 16.6852 41.071 21.3125 41.2294V42.625H22.6875V41.2294C27.3148 41.071 31.7281 39.2417 35.1106 36.08L36.1006 37.07L37.07 36.1006L36.08 35.1106C39.2417 31.7281 41.071 27.3148 41.2294 22.6875H42.625V21.3125H41.2294ZM39.8544 22.6875C39.6954 26.9482 38.0121 31.0102 35.1106 34.1344L34.155 33.1787L33.1787 34.155L34.1344 35.1106C31.0102 38.0121 26.9482 39.6954 22.6875 39.8544V38.5H21.3125V39.8544C17.0518 39.6954 12.9898 38.0121 9.86563 35.1106L10.8212 34.155L9.845 33.1787L8.88938 34.1344C5.98793 31.0102 4.30456 26.9482 4.14563 22.6875H5.5V21.3125H4.14563C4.30456 17.0518 5.98793 12.9898 8.88938 9.86563L9.845 10.8212L10.8212 9.845L9.86563 8.88938C12.9898 5.98793 17.0518 4.30456 21.3125 4.14563V5.5H22.6875V4.14563C26.9482 4.30456 31.0102 5.98793 34.1344 8.88938L33.1787 9.845L34.155 10.8212L35.1106 9.86563C38.0121 12.9898 39.6954 17.0518 39.8544 21.3125H38.5V22.6875H39.8544Z" fill="black"/>
<path d="M2.75 2.75H7.5625V1.375H2.0625C1.88016 1.375 1.7053 1.44743 1.57636 1.57636C1.44743 1.7053 1.375 1.88016 1.375 2.0625V7.5625H2.75V2.75Z" fill="black"/>
<path d="M41.9375 1.375H36.4375V2.75H41.25V7.5625H42.625V2.0625C42.625 1.88016 42.5526 1.7053 42.4236 1.57636C42.2947 1.44743 42.1198 1.375 41.9375 1.375V1.375Z" fill="black"/>
<path d="M2.75 36.4375H1.375V41.9375C1.375 42.1198 1.44743 42.2947 1.57636 42.4236C1.7053 42.5526 1.88016 42.625 2.0625 42.625H7.5625V41.25H2.75V36.4375Z" fill="black"/>
<path d="M41.25 41.2498H36.4375V42.6248H41.9375C42.1198 42.6248 42.2947 42.5523 42.4236 42.4234C42.5526 42.2945 42.625 42.1196 42.625 41.9373V36.4373H41.25V41.2498Z" fill="black"/>
<path d="M31.2194 28.2494L28.875 27.2044V15.125C28.8736 13.8491 28.3661 12.6259 27.4639 11.7237C26.5617 10.8215 25.3384 10.314 24.0625 10.3125H19.9375C18.6616 10.314 17.4384 10.8215 16.5362 11.7237C15.634 12.6259 15.1265 13.8491 15.125 15.125V27.2044L12.7806 28.2494C12.6593 28.3027 12.5563 28.3903 12.4842 28.5015C12.4121 28.6127 12.3742 28.7425 12.375 28.875V33C12.375 33.1823 12.4474 33.3572 12.5764 33.4861C12.7053 33.6151 12.8802 33.6875 13.0625 33.6875H30.9375C31.1199 33.6875 31.2947 33.6151 31.4237 33.4861C31.5526 33.3572 31.625 33.1823 31.625 33V28.875C31.6259 28.7425 31.5879 28.6127 31.5158 28.5015C31.4438 28.3903 31.3407 28.3027 31.2194 28.2494V28.2494ZM16.5 15.125C16.5 14.2133 16.8622 13.339 17.5068 12.6943C18.1515 12.0497 19.0258 11.6875 19.9375 11.6875H24.0625C24.9742 11.6875 25.8485 12.0497 26.4932 12.6943C27.1379 13.339 27.5 14.2133 27.5 15.125V26.5925L25.0319 25.4994C24.876 25.4277 24.6982 25.4203 24.5369 25.4788L24.3169 24.1519C25.072 23.7371 25.702 23.1272 26.1409 22.3859C26.5799 21.6446 26.8119 20.799 26.8125 19.9375V15.8125C26.8119 15.6993 26.7834 15.5879 26.7294 15.4884C26.6754 15.3888 26.5977 15.3042 26.5031 15.2419L24.4406 13.8669C24.2846 13.7644 24.0944 13.7273 23.9113 13.7638L17.7238 15.1388C17.5719 15.1749 17.4365 15.2609 17.3393 15.383C17.2421 15.5052 17.1887 15.6564 17.1875 15.8125V19.9375C17.1882 20.799 17.4201 21.6446 17.8591 22.3859C18.2981 23.1272 18.928 23.7371 19.6831 24.1519L19.4631 25.4788C19.3018 25.4203 19.124 25.4277 18.9681 25.4994L16.5 26.5925V15.125ZM22 23.375C21.0883 23.375 20.214 23.0128 19.5693 22.3682C18.9247 21.7235 18.5625 20.8492 18.5625 19.9375V16.3625L23.925 15.1731L25.4375 16.1838V19.9375C25.4375 20.8492 25.0754 21.7235 24.4307 22.3682C23.786 23.0128 22.9117 23.375 22 23.375V23.375ZM23.3269 26.5787L22 27.9056L20.6731 26.5787L20.9963 24.64C21.6574 24.7867 22.3426 24.7867 23.0038 24.64L23.3269 26.5787ZM30.25 32.3125H13.75V29.3219L19.0988 26.9431L21.5119 29.3631C21.6417 29.4919 21.8172 29.5642 22 29.5642C22.1829 29.5642 22.3583 29.4919 22.4881 29.3631L24.9013 26.9431L30.25 29.3219V32.3125Z" fill="black"/>
<path d="M22.6875 17.875H24.0625V19.25H22.6875V17.875Z" fill="black"/>
<path d="M19.9375 17.875H21.3125V19.25H19.9375V17.875Z" fill="black"/>
</svg>
