<svg width="64" height="64" viewBox="0 0 64 64" fill="none" xmlns="http://www.w3.org/2000/svg">
<path d="M57.5 4.44995C57.5 4.21789 57.4078 3.99533 57.2437 3.83123C57.0796 3.66714 56.8571 3.57495 56.625 3.57495C56.3929 3.57495 56.1704 3.66714 56.0063 3.83123C55.8422 3.99533 55.75 4.21789 55.75 4.44995V6.43345C55.75 6.66552 55.8422 6.88808 56.0063 7.05217C56.1704 7.21626 56.3929 7.30845 56.625 7.30845C56.8571 7.30845 57.0796 7.21626 57.2437 7.05217C57.4078 6.88808 57.5 6.66552 57.5 6.43345V4.44995Z" fill="white"/>
<path d="M58.5156 9.19995H60.4991C60.7312 9.19995 60.9537 9.10776 61.1178 8.94367C61.2819 8.77958 61.3741 8.55702 61.3741 8.32495C61.3741 8.09289 61.2819 7.87033 61.1178 7.70623C60.9537 7.54214 60.7312 7.44995 60.4991 7.44995H58.5156C58.2836 7.44995 58.061 7.54214 57.8969 7.70623C57.7328 7.87033 57.6406 8.09289 57.6406 8.32495C57.6406 8.55702 57.7328 8.77958 57.8969 8.94367C58.061 9.10776 58.2836 9.19995 58.5156 9.19995Z" fill="white"/>
<path d="M56.625 9.34131C56.3929 9.34131 56.1704 9.4335 56.0063 9.59759C55.8422 9.76168 55.75 9.98424 55.75 10.2163V12.1998C55.75 12.4319 55.8422 12.6544 56.0063 12.8185C56.1704 12.9826 56.3929 13.0748 56.625 13.0748C56.8571 13.0748 57.0796 12.9826 57.2437 12.8185C57.4078 12.6544 57.5 12.4319 57.5 12.1998V10.2163C57.5 9.98424 57.4078 9.76168 57.2437 9.59759C57.0796 9.4335 56.8571 9.34131 56.625 9.34131Z" fill="white"/>
<path d="M52.75 7.44995C52.5179 7.44995 52.2954 7.54214 52.1313 7.70623C51.9672 7.87033 51.875 8.09289 51.875 8.32495C51.875 8.55702 51.9672 8.77957 52.1313 8.94367C52.2954 9.10776 52.5179 9.19995 52.75 9.19995H54.7335C54.9656 9.19995 55.1881 9.10776 55.3522 8.94367C55.5163 8.77958 55.6085 8.55702 55.6085 8.32495C55.6085 8.09289 55.5163 7.87033 55.3522 7.70623C55.1881 7.54214 54.9656 7.44995 54.7335 7.44995H52.75Z" fill="white"/>
<path d="M24.4918 17.1085C23.469 17.1073 22.4884 16.7004 21.7653 15.977C21.0422 15.2536 20.6356 14.2728 20.6348 13.25C20.6348 13.0179 20.5427 12.7954 20.3786 12.6313C20.2145 12.4672 19.9919 12.375 19.7598 12.375C19.5278 12.375 19.3052 12.4672 19.1411 12.6313C18.977 12.7954 18.8848 13.0179 18.8848 13.25C18.8837 14.2727 18.4769 15.2532 17.7537 15.9763C17.0305 16.6995 16.0501 17.1063 15.0273 17.1075C14.7953 17.1075 14.5727 17.1997 14.4086 17.3638C14.2445 17.5279 14.1523 17.7504 14.1523 17.9825C14.1523 18.2146 14.2445 18.4371 14.4086 18.6012C14.5727 18.7653 14.7953 18.8575 15.0273 18.8575C16.0501 18.8587 17.0305 19.2655 17.7537 19.9887C18.4769 20.7118 18.8837 21.6923 18.8848 22.715C18.8848 22.9471 18.977 23.1696 19.1411 23.3337C19.3052 23.4978 19.5278 23.59 19.7598 23.59C19.9919 23.59 20.2145 23.4978 20.3786 23.3337C20.5427 23.1696 20.6348 22.9471 20.6348 22.715C20.6359 21.6923 21.0426 20.7119 21.7657 19.9887C22.4888 19.2655 23.4692 18.8587 24.4918 18.8575C24.7239 18.8575 24.9465 18.7653 25.1106 18.6012C25.2747 18.4371 25.3668 18.2146 25.3668 17.9825C25.3668 17.7504 25.2747 17.5279 25.1106 17.3638C24.9465 17.1997 24.7239 17.1075 24.4918 17.1075V17.1085ZM19.7598 19.7085C19.3168 19.0137 18.7272 18.4241 18.0323 17.981C18.7271 17.5378 19.3166 16.9482 19.7598 16.2535C20.2027 16.9483 20.7922 17.5379 21.4868 17.981C20.7918 18.4247 20.2024 19.0152 19.7598 19.711V19.7085Z" fill="white"/>
<path d="M32.0234 7.57495H32.0159C31.7831 7.57594 31.5602 7.66925 31.3961 7.83439C31.232 7.99953 31.1401 8.22302 31.1406 8.45582C31.1411 8.68862 31.234 8.91171 31.3987 9.07615C31.5635 9.24059 31.7868 9.33294 32.0196 9.33294C32.2524 9.33294 32.4757 9.24059 32.6405 9.07615C32.8053 8.91171 32.8981 8.68862 32.8986 8.45582C32.8991 8.22302 32.8072 7.99953 32.6432 7.83439C32.4791 7.66925 32.2562 7.57594 32.0234 7.57495Z" fill="white"/>
<path d="M51.3484 28.6748C51.5805 28.6748 51.803 28.5827 51.9671 28.4186C52.1312 28.2545 52.2234 28.0319 52.2234 27.7998C52.201 23.1995 50.6205 18.7424 47.7396 15.1557C44.8588 11.5689 40.8476 9.06414 36.3604 8.04984C36.2482 8.02509 36.1322 8.02268 36.0191 8.04275C35.9059 8.06282 35.7978 8.10498 35.701 8.16683C35.6041 8.22867 35.5204 8.30899 35.4546 8.40319C35.3888 8.49739 35.3422 8.60363 35.3174 8.71584C35.2927 8.82806 35.2903 8.94405 35.3103 9.05719C35.3304 9.17034 35.3726 9.27842 35.4344 9.37527C35.4963 9.47213 35.5766 9.55585 35.6708 9.62166C35.765 9.68747 35.8712 9.73409 35.9834 9.75884C40.0823 10.6855 43.7462 12.9736 46.3777 16.25C49.0091 19.5263 50.4529 23.5976 50.4734 27.7998C50.4736 28.0319 50.5658 28.2543 50.7298 28.4184C50.8939 28.5825 51.1164 28.6747 51.3484 28.6748Z" fill="white"/>
<path d="M4.0095 60.4264H59.9905C60.7552 60.4255 61.4884 60.1213 62.0291 59.5805C62.5699 59.0398 62.8741 58.3066 62.875 57.5419V55.2844C62.8739 54.5198 62.5697 53.7868 62.0289 53.2463C61.4882 52.7057 60.7551 52.4017 59.9905 52.4009H56.2265V49.0094C56.2256 48.2447 55.9214 47.5115 55.3806 46.9708C54.8399 46.43 54.1067 46.1258 53.342 46.1249H47.8275C51.5694 42.8955 54.234 38.5988 55.4635 33.8114C56.6931 29.024 56.4287 23.975 54.706 19.3421C52.9833 14.7093 49.8847 10.7143 45.826 7.89327C41.7673 5.07227 36.9428 3.5603 32 3.5603C27.0572 3.5603 22.2327 5.07227 18.174 7.89327C14.1153 10.7143 11.0167 14.7093 9.29397 19.3421C7.57126 23.975 7.30694 29.024 8.53647 33.8114C9.766 38.5988 12.4306 42.8955 16.1725 46.1249H10.658C9.89327 46.1258 9.16012 46.43 8.61937 46.9708C8.07863 47.5115 7.77443 48.2447 7.7735 49.0094V52.3999H4.0095C3.2449 52.4007 2.51183 52.7047 1.97108 53.2453C1.43033 53.7858 1.12606 54.5188 1.125 55.2834V57.5409C1.12566 58.3058 1.42974 59.0392 1.97052 59.5802C2.5113 60.1211 3.24459 60.4255 4.0095 60.4264ZM9.525 27.7999C9.5246 23.9438 10.5163 20.1525 12.4048 16.7905C14.2933 13.4286 17.015 10.609 20.3083 8.60306C23.6015 6.59709 27.3554 5.47217 31.2091 5.33648C35.0628 5.20078 38.8866 6.05888 42.3127 7.82826C45.7389 9.59763 48.6522 12.2188 50.7725 15.4396C52.8928 18.6604 54.1487 22.3726 54.4195 26.2191C54.6903 30.0657 53.9669 33.9172 52.3188 37.4033C50.6708 40.8895 48.1535 43.8929 45.009 46.1249H18.991C16.0655 44.0473 13.6798 41.2997 12.033 38.1118C10.3862 34.9238 9.52628 31.3881 9.525 27.7999ZM9.525 49.0094C9.5254 48.7086 9.64505 48.4203 9.85773 48.2076C10.0704 47.995 10.3587 47.8753 10.6595 47.8749H53.3435C53.6443 47.8753 53.9326 47.995 54.1453 48.2076C54.3579 48.4203 54.4776 48.7086 54.478 49.0094V52.3999H9.5235L9.525 49.0094ZM2.875 55.2844C2.87526 54.9836 2.99488 54.6952 3.20758 54.4825C3.42028 54.2698 3.70869 54.1502 4.0095 54.1499H59.9905C60.2911 54.1502 60.5794 54.2696 60.7921 54.4821C61.0047 54.6946 61.1245 54.9828 61.125 55.2834V57.5409C61.1246 57.8417 61.0049 58.13 60.7923 58.3427C60.5796 58.5553 60.2913 58.675 59.9905 58.6754H4.0095C3.70873 58.675 3.4204 58.5553 3.20773 58.3427C2.99505 58.13 2.8754 57.8417 2.875 57.5409V55.2844Z" fill="white"/>
</svg>
