<svg width="64" height="64" viewBox="0 0 64 64" fill="none" xmlns="http://www.w3.org/2000/svg">
<g clip-path="url(#clip0_1004_2538)">
<path fill-rule="evenodd" clip-rule="evenodd" d="M25.2558 10.0933C26.6376 10.0933 27.7576 11.2134 27.7576 12.5951C27.7576 13.9769 26.6376 15.0969 25.2558 15.0969C23.874 15.0969 22.754 13.9769 22.754 12.5951C22.754 11.2134 23.874 10.0933 25.2558 10.0933ZM26.3769 1.23438C23.2946 1.23438 20.7728 3.75621 20.7728 6.83845V7.30478C19.9508 6.92538 19.0357 6.71323 18.0708 6.71323C14.506 6.71323 11.6161 9.60308 11.6161 13.1679C11.6161 13.9152 11.7436 14.6325 11.977 15.3001C9.10444 16.6367 7.11286 19.5481 7.11286 22.9251C7.11286 25.4274 8.20666 27.6741 9.94179 29.2139C6.69656 30.7988 4.46094 34.1311 4.46094 37.9859C4.46094 42.0812 6.98415 45.5863 10.5604 47.0336C10.4654 47.5393 10.4153 48.0606 10.4153 48.5938C10.4153 52.7736 13.4661 56.2402 17.4623 56.8899C18.1319 60.2481 21.0955 62.7791 24.6506 62.7791C28.699 62.7791 31.9809 59.4972 31.9809 55.4488V6.83845C31.9808 3.75621 29.4591 1.23438 26.3769 1.23438ZM19.5642 19.1149C20.9459 19.1149 22.066 20.2349 22.066 21.6167C22.066 22.9984 20.9459 24.1185 19.5642 24.1185C18.1824 24.1185 17.0623 22.9984 17.0623 21.6167C17.0623 20.2351 18.1824 19.1149 19.5642 19.1149ZM20.0309 35.5305C20.0309 34.1488 21.1509 33.0287 22.5327 33.0287C23.9144 33.0287 25.0345 34.1488 25.0345 35.5305C25.0345 36.9123 23.9144 38.0324 22.5327 38.0324C21.1509 38.0324 20.0309 36.9123 20.0309 35.5305ZM21.9005 53.3502C21.9005 51.9685 23.0205 50.8484 24.4023 50.8484C25.7841 50.8484 26.9041 51.9685 26.9041 53.3502C26.9041 54.732 25.7841 55.852 24.4023 55.852C23.0205 55.852 21.9005 54.732 21.9005 53.3502Z" fill="#E7E9EF"/>
<path d="M25.6527 15.0696C27.0164 14.8485 27.9428 13.5637 27.7217 12.2C27.5006 10.8362 26.2159 9.90988 24.8521 10.131C23.4884 10.352 22.562 11.6368 22.7831 13.0005C23.0042 14.3643 24.2889 15.2906 25.6527 15.0696Z" fill="#00CCF2"/>
<path d="M21.3298 23.386C22.3067 22.4091 22.3067 20.8253 21.3298 19.8484C20.3529 18.8715 18.7691 18.8715 17.7922 19.8484C16.8153 20.8253 16.8153 22.4091 17.7922 23.386C18.7691 24.3628 20.3529 24.3628 21.3298 23.386Z" fill="#00CCF2"/>
<path d="M23.1164 37.9533C24.4608 37.6355 25.293 36.288 24.9752 34.9436C24.6574 33.5992 23.3099 32.7669 21.9655 33.0847C20.6211 33.4025 19.7889 34.75 20.1067 36.0944C20.4245 37.4388 21.7719 38.2711 23.1164 37.9533Z" fill="#00CCF2"/>
<path d="M24.9835 55.7658C26.328 55.448 27.1602 54.1005 26.8424 52.7561C26.5246 51.4117 25.1771 50.5794 23.8327 50.8972C22.4883 51.215 21.6561 52.5625 21.9739 53.9069C22.2917 55.2513 23.6391 56.0836 24.9835 55.7658Z" fill="#00CCF2"/>
<path fill-rule="evenodd" clip-rule="evenodd" d="M31.9844 6.83845V55.4488C31.9844 59.4972 35.2663 62.7791 39.3147 62.7791C42.8698 62.7791 45.8334 60.2481 46.503 56.89C50.4992 56.2402 53.55 52.7736 53.55 48.5938C53.55 48.0607 53.4997 47.5393 53.4049 47.0337C56.9811 45.5865 59.5044 42.0812 59.5044 37.986C59.5044 34.1312 57.2687 30.7989 54.0235 29.214C55.7586 27.6741 56.8524 25.4275 56.8524 22.9251C56.8524 19.5481 54.8607 16.6368 51.9883 15.3001C52.2218 14.6326 52.3492 13.9152 52.3492 13.1679C52.3492 9.60308 49.4593 6.71323 45.8945 6.71323C44.9297 6.71323 44.0145 6.92526 43.1925 7.30479V6.83845C43.1925 3.75621 40.6707 1.23438 37.5884 1.23438C34.5062 1.23438 31.9844 3.75621 31.9844 6.83845V6.83845Z" fill="#E38EBA"/>
<path d="M12.546 40.4064C13.8905 40.0886 14.7227 38.7411 14.4049 37.3967C14.0871 36.0523 12.7396 35.2201 11.3952 35.5379C10.0508 35.8557 9.21856 37.2031 9.53636 38.5475C9.85415 39.892 11.2016 40.7242 12.546 40.4064Z" fill="#00CCF2"/>
<path d="M60.7548 37.9844C60.7548 34.3046 58.9716 30.9633 56.0091 28.9266C59.6284 24.5035 58.3563 17.5563 53.4533 14.6659C54.5824 9.36247 49.6267 4.4499 44.3346 5.61837C43.2627 -0.336454 35.4468 -2.05445 31.984 2.89314C28.5187 -2.05695 20.7038 -0.332951 19.6335 5.61837C14.3407 4.4499 9.38569 9.36322 10.5148 14.6661C5.61082 17.5569 4.34052 24.5044 7.9589 28.9267C1.14733 33.492 1.84471 44.1432 9.20143 47.7841C8.98202 50.348 9.81688 52.9314 11.4942 54.879C12.7947 56.3938 14.5294 57.4659 16.4447 57.9527C18.5996 65.0254 28.2067 66.1759 31.9841 59.9048C35.7641 66.179 45.3706 65.0217 47.5237 57.9528C51.9899 56.894 55.229 52.3642 54.7669 47.7843C58.4346 45.9114 60.7548 42.1638 60.7548 37.9844V37.9844ZM18.0739 7.9627C18.8342 7.9627 19.567 8.12294 20.2515 8.43905C20.639 8.61793 21.0906 8.58703 21.45 8.35711C21.8092 8.1272 22.0266 7.72991 22.0266 7.30335V6.83688C22.2664 1.06044 30.4953 1.06494 30.733 6.83688V11.3427H28.7972C27.3474 7.42531 21.5859 8.36349 21.5061 12.5936C21.5863 16.8243 27.3481 17.7612 28.7972 13.8445H30.733V20.3643H23.1057C22.5384 18.688 20.6918 17.5666 18.8813 17.9253L17.0036 14.6731C16.7802 14.286 16.3671 14.0476 15.9203 14.0476H12.9445C12.3799 10.9155 14.8868 7.93206 18.0739 7.9627V7.9627ZM26.5098 12.5936C26.5098 13.2833 25.9486 13.8445 25.2588 13.8445C23.5994 13.7758 23.5999 11.4111 25.2588 11.3427C25.9486 11.3427 26.5098 11.9038 26.5098 12.5936ZM19.5672 20.3642C20.257 20.3642 20.8181 20.9254 20.8181 21.6151C20.7493 23.2746 18.3849 23.2741 18.3163 21.6151C18.3163 20.9254 18.8776 20.3642 19.5672 20.3642ZM24.6535 61.5266C21.7633 61.5266 19.2561 59.4731 18.692 56.6438C18.59 56.1321 18.181 55.7374 17.666 55.6536C14.0859 55.0813 11.5129 51.9091 11.676 48.2829H20.0362L21.5538 50.9115C20.9922 51.5676 20.6526 52.4193 20.6526 53.3486C20.8585 58.3268 27.9526 58.3258 28.1581 53.3486C28.1827 51.0318 25.9893 49.2147 23.7194 49.6588L21.8417 46.4065C21.6183 46.0195 21.2053 45.7811 20.7585 45.7811H10.8155C8.09525 44.5937 6.22814 42.119 5.80571 39.2352H8.43112C9.88092 43.1525 15.6424 42.2143 15.7222 37.9843C15.642 33.7536 9.88017 32.8166 8.43112 36.7334H5.80521C6.19374 34.0644 7.8158 31.7466 10.2443 30.4632H18.1668L19.6844 33.0918C17.4068 35.7598 19.7442 39.8495 23.2216 39.2188L25.0994 42.471C25.3228 42.8581 25.7358 43.0965 26.1826 43.0965H30.733V55.4472C30.733 58.7994 28.0057 61.5266 24.6535 61.5266V61.5266ZM24.4052 52.0978C25.0951 52.0978 25.6563 52.6589 25.6563 53.3487C25.5876 55.008 23.2229 55.0079 23.1544 53.3487C23.1544 52.6588 23.7155 52.0978 24.4052 52.0978ZM10.7187 37.9844C10.7187 37.2946 11.2798 36.7335 11.9696 36.7335C13.629 36.8022 13.6285 39.1669 11.9696 39.2353C11.2798 39.2353 10.7187 38.6741 10.7187 37.9844ZM22.5357 36.7799C21.846 36.7799 21.285 36.2187 21.285 35.529C21.3536 33.8694 23.7184 33.87 23.7868 35.529C23.7868 36.2187 23.2255 36.7799 22.5357 36.7799ZM52.9924 45.849C52.9731 45.8557 52.954 45.8629 52.9348 45.8706C51.2342 46.563 49.3181 46.6785 47.5452 46.2007C46.8774 46.0222 46.1918 46.4182 46.0132 47.0854C45.8343 47.7526 46.2305 48.4386 46.8977 48.6174C48.6521 49.0896 50.5355 49.1161 52.2979 48.6936C52.2502 52.1646 49.7592 55.0753 46.3348 55.6481C46.3232 55.6497 46.3116 55.6514 46.3 55.6532C45.3029 55.8167 44.2692 55.7653 43.2913 55.5035C42.6243 55.3249 41.9382 55.7208 41.7595 56.3881C41.5806 57.0555 41.9767 57.7414 42.6441 57.9201C43.3211 58.1015 44.0162 58.2085 44.7156 58.2395C41.7547 63.8251 33.3137 61.8245 33.2346 55.4471V37.6348C33.1686 35.9751 30.7984 35.9763 30.7328 37.6348V40.5947H26.9047L25.3869 37.9661C27.6648 35.2981 25.3271 31.2083 21.8496 31.8391L19.972 28.5868C19.7486 28.1998 19.3355 27.9614 18.8887 27.9614H10.442C7.03598 24.6203 8.00293 18.6655 12.2687 16.5494H15.198L16.7158 19.178C14.6438 21.5632 16.3781 25.3806 19.5672 25.3677C21.198 25.3677 22.5892 24.3221 23.1055 22.866H30.733V26.3765C30.799 28.0362 33.1692 28.0349 33.2348 26.3765V6.83688C33.4399 1.22943 41.3791 0.997766 41.9322 6.55656C40.81 7.22729 39.882 8.16835 39.2207 9.31356C38.8752 9.91187 39.0803 10.6769 39.6786 11.0223C40.2663 11.3647 41.0401 11.1682 41.3873 10.5645C41.9282 9.62754 42.7334 8.89313 43.7159 8.4403C43.7293 8.43417 43.7425 8.42767 43.7557 8.42104C47.8685 6.55493 52.284 10.5678 50.8223 14.8406C50.8165 14.8552 50.811 14.87 50.8058 14.885C50.3945 16.0603 49.574 17.0504 48.4957 17.673C47.8974 18.0185 47.6924 18.7834 48.0379 19.3819C48.3852 19.9857 49.1588 20.1821 49.7466 19.8398C50.9112 19.1675 51.8726 18.2055 52.5438 17.0589C56.0298 19.4282 56.64 24.6312 53.746 27.7289C53.3697 27.5821 52.985 27.4559 52.5957 27.3517C51.9281 27.1728 51.2426 27.569 51.0637 28.2362C50.8848 28.9034 51.2809 29.5894 51.9482 29.7682C52.4724 29.9087 52.9857 30.1005 53.4737 30.3385C53.4916 30.3471 53.5095 30.3554 53.5275 30.3631C60.0442 33.5343 59.7043 43.1351 52.9924 45.849V45.849Z" fill="black"/>
<path d="M44.5578 15.2995C45.0463 14.811 45.0463 14.0189 44.5578 13.5304C44.0692 13.0419 43.2771 13.0419 42.7886 13.5304C41.3501 15.0296 38.7616 15.0296 37.323 13.5304C36.8344 13.0419 36.0423 13.0419 35.5539 13.5304C35.0654 14.0189 35.0654 14.811 35.5539 15.2995C37.9237 17.7694 42.1881 17.7693 44.5578 15.2995V15.2995Z" fill="black"/>
<path d="M42.185 40.7035C40.7942 41.0762 39.6319 41.9681 38.912 43.215C38.1921 44.4619 38.0008 45.9146 38.3735 47.3052C38.5499 47.9779 39.2561 48.3692 39.9055 48.1897C40.5728 48.011 40.9689 47.325 40.79 46.6576C40.3572 45.1663 41.3245 43.4911 42.8323 43.1202C44.4186 42.6268 43.8037 40.3374 42.185 40.7035Z" fill="black"/>
<path d="M46.059 23.9953C45.5704 23.5068 44.7784 23.5068 44.2899 23.9953C41.82 26.3652 41.8201 30.6291 44.2899 32.9991C44.7785 33.4875 45.5704 33.4875 46.059 32.9991C46.5475 32.5106 46.5475 31.7185 46.059 31.2299C44.5596 29.7912 44.5597 27.203 46.059 25.7643C46.5475 25.2758 46.5475 24.4837 46.059 23.9953V23.9953Z" fill="black"/>
<path d="M31.9853 30.7539C31.2945 30.7539 30.7344 31.3143 30.7344 32.0052C30.8003 33.6645 33.1706 33.6639 33.2362 32.0052V32.0043C33.2362 31.3134 32.676 30.7539 31.9853 30.7539V30.7539Z" fill="black"/>
</g>
<defs>
<clipPath id="clip0_1004_2538">
<rect width="64" height="64" fill="white"/>
</clipPath>
</defs>
</svg>
