<svg width="152" height="90" viewBox="0 0 152 90" fill="none" xmlns="http://www.w3.org/2000/svg">
<path d="M105.062 21.029H42.9375V14.4629C42.9375 13.0681 44.0681 11.9375 45.4629 11.9375H102.537C103.932 11.9375 105.062 13.0681 105.062 14.4629V21.029Z" fill="#9DC6FB"/>
<path d="M102.538 11.9375H98.75C100.145 11.9375 101.275 13.0681 101.275 14.4629V21.0289H105.063V14.4629C105.063 13.0681 103.933 11.9375 102.538 11.9375Z" fill="#80B4FB"/>
<path d="M102.537 66.0335H45.4629C44.0681 66.0335 42.9375 64.9029 42.9375 63.5081V21H105.062V63.5081C105.062 64.9029 103.932 66.0335 102.537 66.0335Z" fill="#F4FBFF"/>
<path d="M101.275 21.0293V63.5374C101.275 64.9322 100.145 66.0628 98.75 66.0628H102.538C103.933 66.0628 105.063 64.9322 105.063 63.5374V21.0293H101.275Z" fill="#E4F6FF"/>
<path d="M97.234 14.9668C96.3971 14.9668 95.7188 15.6452 95.7188 16.482C95.7188 17.3189 96.3971 17.9973 97.234 17.9973C98.0709 17.9973 98.7493 17.3189 98.7493 16.482C98.7493 15.6452 98.0709 14.9668 97.234 14.9668Z" fill="black"/>
<path d="M92.1832 14.9688C91.3463 14.9688 90.668 15.6471 90.668 16.484C90.668 17.3209 91.3463 17.9992 92.1832 17.9992C93.0201 17.9992 93.6985 17.3209 93.6985 16.484C93.6985 15.6471 93.0201 14.9688 92.1832 14.9688Z" fill="black"/>
<path d="M87.1324 17.9992C87.9693 17.9992 88.6477 17.3208 88.6477 16.484C88.6477 15.6472 87.9693 14.9688 87.1324 14.9688C86.2956 14.9688 85.6172 15.6472 85.6172 16.484C85.6172 17.3208 86.2956 17.9992 87.1324 17.9992Z" fill="black"/>
<path d="M102.537 11H45.4629C43.5535 11 42 12.5535 42 14.4629V49.1075C42 49.6252 42.4196 50.045 42.9375 50.045C43.4554 50.045 43.875 49.6252 43.875 49.1075V21.9665H104.125V29.8638C104.125 30.3815 104.545 30.8013 105.062 30.8013C105.58 30.8013 106 30.3815 106 29.8638V14.4629C106 12.5535 104.446 11 102.537 11ZM43.875 14.4629C43.875 13.5874 44.5872 12.875 45.4629 12.875H102.537C103.413 12.875 104.125 13.5874 104.125 14.4629V20.0915H43.875V14.4629Z" fill="black"/>
<path d="M105.062 33.3008C104.545 33.3008 104.125 33.7205 104.125 34.2383V63.537C104.125 64.4124 103.413 65.1245 102.537 65.1245H45.4625C44.5871 65.1245 43.875 64.4124 43.875 63.537V53.357C43.875 52.8393 43.4554 52.4195 42.9375 52.4195C42.4196 52.4195 42 52.8393 42 53.357V63.537C42 65.4463 43.5533 66.9995 45.4625 66.9995H102.537C104.447 66.9995 106 65.4463 106 63.537V34.2383C106 33.7205 105.58 33.3008 105.062 33.3008Z" fill="black"/>
<path d="M74.8372 31.375H70.423C68.8613 31.375 67.595 32.641 67.595 34.203V38.5302H64.328C62.7662 38.5302 61.5 39.7962 61.5 41.3582V46.0375C61.5 47.5992 62.7662 48.8655 64.328 48.8655H67.3762C67.7897 48.8655 68.125 48.5302 68.125 48.1167V45.7528C68.125 43.9593 69.5787 42.5055 71.3722 42.5055H76.473C77.1315 42.5055 77.6652 41.9717 77.6652 41.3132V34.2032C77.6652 32.641 76.3993 31.375 74.8372 31.375Z" fill="#5290DB"/>
<path d="M83.5834 38.2656H80.5351C80.1216 38.2656 79.7864 38.6009 79.7864 39.0144V41.3784C79.7864 43.1719 78.3326 44.6256 76.5391 44.6256H71.4383C70.7798 44.6256 70.2461 45.1594 70.2461 45.8179V52.9279C70.2461 54.4896 71.5123 55.7559 73.0741 55.7559H77.4883C79.0501 55.7559 80.3163 54.4899 80.3163 52.9279V48.6006H83.5834C85.1451 48.6006 86.4114 47.3346 86.4114 45.7726V41.0934C86.4114 39.5319 85.1451 38.2656 83.5834 38.2656Z" fill="#FC8C48"/>
<path d="M71.3058 36.1448C71.9644 36.1448 72.4983 35.6109 72.4983 34.9523C72.4983 34.2937 71.9644 33.7598 71.3058 33.7598C70.6472 33.7598 70.1133 34.2937 70.1133 34.9523C70.1133 35.6109 70.6472 36.1448 71.3058 36.1448Z" fill="#EDF4FC"/>
<path d="M76.6066 53.3694C77.2652 53.3694 77.7991 52.8355 77.7991 52.1769C77.7991 51.5183 77.2652 50.9844 76.6066 50.9844C75.948 50.9844 75.4141 51.5183 75.4141 52.1769C75.4141 52.8355 75.948 53.3694 76.6066 53.3694Z" fill="#EDF4FC"/>
<path d="M67.3765 49.4902H64.328C62.424 49.4902 60.875 47.9412 60.875 46.0373V41.358C60.875 39.454 62.424 37.905 64.328 37.905H66.9702V34.203C66.9702 32.299 68.5192 30.75 70.4233 30.75H74.8375C76.7415 30.75 78.2905 32.299 78.2905 34.203V41.313C78.2905 42.315 77.4753 43.1302 76.4735 43.1302H71.3727C69.9267 43.1302 68.7505 44.3067 68.7505 45.7525V48.1165C68.7502 48.8738 68.1337 49.4902 67.3765 49.4902ZM64.328 39.155C63.1132 39.155 62.125 40.1432 62.125 41.358V46.0373C62.125 47.252 63.1132 48.2402 64.328 48.2402H67.3762C67.4445 48.2402 67.5 48.1848 67.5 48.1165V45.7525C67.5 43.6172 69.237 41.8802 71.3722 41.8802H76.473C76.7855 41.8802 77.04 41.6257 77.04 41.313V34.203C77.04 32.9882 76.0518 32 74.837 32H70.4228C69.208 32 68.2197 32.9882 68.2197 34.203V38.5302C68.2197 38.8755 67.94 39.1552 67.5947 39.1552H64.328V39.155Z" fill="black"/>
<path d="M72.4966 39.1543H67.7266C67.3813 39.1543 67.1016 38.8745 67.1016 38.5293C67.1016 38.184 67.3813 37.9043 67.7266 37.9043H72.4966C72.8418 37.9043 73.1216 38.184 73.1216 38.5293C73.1216 38.8745 72.8418 39.1543 72.4966 39.1543Z" fill="black"/>
<path d="M77.4883 56.3809H73.0741C71.1701 56.3809 69.6211 54.8319 69.6211 52.9279V45.8179C69.6211 44.8159 70.4363 44.0006 71.4383 44.0006H76.5388C77.9848 44.0006 79.1611 42.8241 79.1611 41.3784V39.0144C79.1611 38.2569 79.7773 37.6406 80.5348 37.6406H83.5831C85.4868 37.6406 87.0361 39.1896 87.0361 41.0936V45.7729C87.0361 47.6769 85.4871 49.2259 83.5831 49.2259H80.9411V52.9281C80.9411 54.8319 79.3921 56.3809 77.4883 56.3809ZM71.4383 45.2509C71.1256 45.2509 70.8711 45.5054 70.8711 45.8181V52.9281C70.8711 54.1429 71.8593 55.1311 73.0741 55.1311H77.4883C78.7028 55.1311 79.6913 54.1429 79.6913 52.9281V48.6009C79.6913 48.2556 79.9711 47.9759 80.3163 47.9759H83.5833C84.7978 47.9759 85.7863 46.9876 85.7863 45.7729V41.0936C85.7863 39.8789 84.7981 38.8906 83.5833 38.8906H80.5351C80.4668 38.8906 80.4113 38.9461 80.4113 39.0144V41.3784C80.4113 43.5136 78.6743 45.2506 76.5391 45.2506H71.4383V45.2509Z" fill="black"/>
<path d="M80.1841 49.2246H75.4141C75.0688 49.2246 74.7891 48.9449 74.7891 48.5996C74.7891 48.2544 75.0688 47.9746 75.4141 47.9746H80.1841C80.5293 47.9746 80.8091 48.2544 80.8091 48.5996C80.8091 48.9449 80.5293 49.2246 80.1841 49.2246Z" fill="black"/>
<path d="M71.3058 36.77C70.3035 36.77 69.4883 35.9548 69.4883 34.9525C69.4883 33.9503 70.3035 33.1348 71.3058 33.1348C72.308 33.1348 73.1233 33.9503 73.1233 34.9525C73.1233 35.9548 72.308 36.77 71.3058 36.77ZM71.3058 34.385C70.993 34.385 70.7383 34.6398 70.7383 34.9528C70.7383 35.2655 70.993 35.5203 71.3058 35.5203C71.6185 35.5203 71.8733 35.2655 71.8733 34.9528C71.8733 34.6395 71.6185 34.385 71.3058 34.385Z" fill="black"/>
<path d="M76.6066 53.9944C75.6043 53.9944 74.7891 53.1791 74.7891 52.1769C74.7891 51.1746 75.6043 50.3594 76.6066 50.3594C77.6086 50.3594 78.4241 51.1746 78.4241 52.1769C78.4241 53.1791 77.6086 53.9944 76.6066 53.9944ZM76.6066 51.6094C76.2938 51.6094 76.0391 51.8641 76.0391 52.1769C76.0391 52.4896 76.2938 52.7444 76.6066 52.7444C76.9193 52.7444 77.1741 52.4896 77.1741 52.1769C77.1741 51.8641 76.9196 51.6094 76.6066 51.6094Z" fill="black"/>
<path d="M114.062 38.029H51.9375V31.4629C51.9375 30.0681 53.0681 28.9375 54.4629 28.9375H111.537C112.932 28.9375 114.062 30.0681 114.062 31.4629V38.029Z" fill="#9DC6FB"/>
<path d="M111.538 28.9375H107.75C109.145 28.9375 110.275 30.0681 110.275 31.4629V38.0289H114.063V31.4629C114.063 30.0681 112.933 28.9375 111.538 28.9375Z" fill="#80B4FB"/>
<path d="M111.537 83.0335H54.4629C53.0681 83.0335 51.9375 81.9029 51.9375 80.5081V38H114.062V80.5081C114.062 81.9029 112.932 83.0335 111.537 83.0335Z" fill="#F4FBFF"/>
<path d="M110.275 38.0293V80.5374C110.275 81.9322 109.145 83.0628 107.75 83.0628H111.538C112.933 83.0628 114.063 81.9322 114.063 80.5374V38.0293H110.275Z" fill="#E4F6FF"/>
<path d="M106.234 31.9668C105.397 31.9668 104.719 32.6452 104.719 33.482C104.719 34.3189 105.397 34.9973 106.234 34.9973C107.071 34.9973 107.749 34.3189 107.749 33.482C107.749 32.6452 107.071 31.9668 106.234 31.9668Z" fill="black"/>
<path d="M101.183 31.9688C100.346 31.9688 99.668 32.6471 99.668 33.484C99.668 34.3209 100.346 34.9992 101.183 34.9992C102.02 34.9992 102.698 34.3209 102.698 33.484C102.698 32.6471 102.02 31.9688 101.183 31.9688Z" fill="black"/>
<path d="M96.1324 34.9992C96.9693 34.9992 97.6477 34.3208 97.6477 33.484C97.6477 32.6472 96.9693 31.9688 96.1324 31.9688C95.2956 31.9688 94.6172 32.6472 94.6172 33.484C94.6172 34.3208 95.2956 34.9992 96.1324 34.9992Z" fill="black"/>
<path d="M111.537 28H54.4629C52.5535 28 51 29.5535 51 31.4629V66.1075C51 66.6252 51.4196 67.045 51.9375 67.045C52.4554 67.045 52.875 66.6252 52.875 66.1075V38.9665H113.125V46.8638C113.125 47.3815 113.545 47.8013 114.062 47.8013C114.58 47.8013 115 47.3815 115 46.8638V31.4629C115 29.5535 113.446 28 111.537 28ZM52.875 31.4629C52.875 30.5874 53.5872 29.875 54.4629 29.875H111.537C112.413 29.875 113.125 30.5874 113.125 31.4629V37.0915H52.875V31.4629Z" fill="black"/>
<path d="M114.062 50.3008C113.545 50.3008 113.125 50.7205 113.125 51.2383V80.537C113.125 81.4124 112.413 82.1245 111.537 82.1245H54.4625C53.5871 82.1245 52.875 81.4124 52.875 80.537V70.357C52.875 69.8393 52.4554 69.4195 51.9375 69.4195C51.4196 69.4195 51 69.8393 51 70.357V80.537C51 82.4463 52.5533 83.9995 54.4625 83.9995H111.537C113.447 83.9995 115 82.4463 115 80.537V51.2383C115 50.7205 114.58 50.3008 114.062 50.3008Z" fill="black"/>
<path d="M83.8372 48.375H79.423C77.8613 48.375 76.595 49.641 76.595 51.203V55.5302H73.328C71.7662 55.5302 70.5 56.7962 70.5 58.3582V63.0375C70.5 64.5992 71.7662 65.8655 73.328 65.8655H76.3762C76.7897 65.8655 77.125 65.5302 77.125 65.1167V62.7528C77.125 60.9593 78.5787 59.5055 80.3722 59.5055H85.473C86.1315 59.5055 86.6652 58.9717 86.6652 58.3132V51.2032C86.6652 49.641 85.3993 48.375 83.8372 48.375Z" fill="#5290DB"/>
<path d="M92.5834 55.2656H89.5351C89.1216 55.2656 88.7864 55.6009 88.7864 56.0144V58.3784C88.7864 60.1719 87.3326 61.6256 85.5391 61.6256H80.4383C79.7798 61.6256 79.2461 62.1594 79.2461 62.8179V69.9279C79.2461 71.4896 80.5123 72.7559 82.0741 72.7559H86.4883C88.0501 72.7559 89.3163 71.4899 89.3163 69.9279V65.6006H92.5834C94.1451 65.6006 95.4114 64.3346 95.4114 62.7726V58.0934C95.4114 56.5319 94.1451 55.2656 92.5834 55.2656Z" fill="#FC8C48"/>
<path d="M80.3058 53.1448C80.9644 53.1448 81.4983 52.6109 81.4983 51.9523C81.4983 51.2937 80.9644 50.7598 80.3058 50.7598C79.6472 50.7598 79.1133 51.2937 79.1133 51.9523C79.1133 52.6109 79.6472 53.1448 80.3058 53.1448Z" fill="#EDF4FC"/>
<path d="M85.6066 70.3694C86.2652 70.3694 86.7991 69.8355 86.7991 69.1769C86.7991 68.5183 86.2652 67.9844 85.6066 67.9844C84.948 67.9844 84.4141 68.5183 84.4141 69.1769C84.4141 69.8355 84.948 70.3694 85.6066 70.3694Z" fill="#EDF4FC"/>
<path d="M76.3765 66.4902H73.328C71.424 66.4902 69.875 64.9412 69.875 63.0373V58.358C69.875 56.454 71.424 54.905 73.328 54.905H75.9702V51.203C75.9702 49.299 77.5192 47.75 79.4233 47.75H83.8375C85.7415 47.75 87.2905 49.299 87.2905 51.203V58.313C87.2905 59.315 86.4753 60.1302 85.4735 60.1302H80.3727C78.9267 60.1302 77.7505 61.3067 77.7505 62.7525V65.1165C77.7502 65.8738 77.1337 66.4902 76.3765 66.4902ZM73.328 56.155C72.1132 56.155 71.125 57.1432 71.125 58.358V63.0373C71.125 64.252 72.1132 65.2402 73.328 65.2402H76.3762C76.4445 65.2402 76.5 65.1848 76.5 65.1165V62.7525C76.5 60.6172 78.237 58.8802 80.3722 58.8802H85.473C85.7855 58.8802 86.04 58.6257 86.04 58.313V51.203C86.04 49.9882 85.0518 49 83.837 49H79.4228C78.208 49 77.2197 49.9882 77.2197 51.203V55.5302C77.2197 55.8755 76.94 56.1552 76.5947 56.1552H73.328V56.155Z" fill="black"/>
<path d="M81.4966 56.1543H76.7266C76.3813 56.1543 76.1016 55.8745 76.1016 55.5293C76.1016 55.184 76.3813 54.9043 76.7266 54.9043H81.4966C81.8418 54.9043 82.1216 55.184 82.1216 55.5293C82.1216 55.8745 81.8418 56.1543 81.4966 56.1543Z" fill="black"/>
<path d="M86.4883 73.3809H82.0741C80.1701 73.3809 78.6211 71.8319 78.6211 69.9279V62.8179C78.6211 61.8159 79.4363 61.0006 80.4383 61.0006H85.5388C86.9848 61.0006 88.1611 59.8241 88.1611 58.3784V56.0144C88.1611 55.2569 88.7773 54.6406 89.5348 54.6406H92.5831C94.4868 54.6406 96.0361 56.1896 96.0361 58.0936V62.7729C96.0361 64.6769 94.4871 66.2259 92.5831 66.2259H89.9411V69.9281C89.9411 71.8319 88.3921 73.3809 86.4883 73.3809ZM80.4383 62.2509C80.1256 62.2509 79.8711 62.5054 79.8711 62.8181V69.9281C79.8711 71.1429 80.8593 72.1311 82.0741 72.1311H86.4883C87.7028 72.1311 88.6913 71.1429 88.6913 69.9281V65.6009C88.6913 65.2556 88.9711 64.9759 89.3163 64.9759H92.5833C93.7978 64.9759 94.7863 63.9876 94.7863 62.7729V58.0936C94.7863 56.8789 93.7981 55.8906 92.5833 55.8906H89.5351C89.4668 55.8906 89.4113 55.9461 89.4113 56.0144V58.3784C89.4113 60.5136 87.6743 62.2506 85.5391 62.2506H80.4383V62.2509Z" fill="black"/>
<path d="M89.1841 66.2246H84.4141C84.0688 66.2246 83.7891 65.9449 83.7891 65.5996C83.7891 65.2544 84.0688 64.9746 84.4141 64.9746H89.1841C89.5293 64.9746 89.8091 65.2544 89.8091 65.5996C89.8091 65.9449 89.5293 66.2246 89.1841 66.2246Z" fill="black"/>
<path d="M80.3058 53.77C79.3035 53.77 78.4883 52.9548 78.4883 51.9525C78.4883 50.9503 79.3035 50.1348 80.3058 50.1348C81.308 50.1348 82.1233 50.9503 82.1233 51.9525C82.1233 52.9548 81.308 53.77 80.3058 53.77ZM80.3058 51.385C79.993 51.385 79.7383 51.6398 79.7383 51.9528C79.7383 52.2655 79.993 52.5203 80.3058 52.5203C80.6185 52.5203 80.8733 52.2655 80.8733 51.9528C80.8733 51.6395 80.6185 51.385 80.3058 51.385Z" fill="black"/>
<path d="M85.6066 70.9944C84.6043 70.9944 83.7891 70.1791 83.7891 69.1769C83.7891 68.1746 84.6043 67.3594 85.6066 67.3594C86.6086 67.3594 87.4241 68.1746 87.4241 69.1769C87.4241 70.1791 86.6086 70.9944 85.6066 70.9944ZM85.6066 68.6094C85.2938 68.6094 85.0391 68.8641 85.0391 69.1769C85.0391 69.4896 85.2938 69.7444 85.6066 69.7444C85.9193 69.7444 86.1741 69.4896 86.1741 69.1769C86.1741 68.8641 85.9196 68.6094 85.6066 68.6094Z" fill="black"/>
</svg>
