<svg width="45" height="45" viewBox="0 0 45 45" fill="none" xmlns="http://www.w3.org/2000/svg">
<path d="M8.07776 20.5632V14.6885H4.40607H0.734375V20.5632H4.40607H8.07776Z" fill="#ABE9FE"/>
<path d="M19.8278 14.6885H16.1561H12.4844V20.5632H19.8278V14.6885Z" fill="#ABE9FE"/>
<path d="M8.07776 33.0466V27.1719H4.40607H0.734375V33.0466H4.40607H8.07776Z" fill="#ABE9FE"/>
<path d="M25.7028 27.1719H22.0311H18.3594V33.0466H22.0311H25.7028V27.1719Z" fill="#ABE9FE"/>
<path d="M8.07776 37.4502H4.40607H0.734375V43.3249H8.07776V37.4502Z" fill="#ABE9FE"/>
<path d="M25.7028 40.3875V37.4502H22.0311H18.3594V43.3249H25.7028V40.3875Z" fill="#ABE9FE"/>
<path d="M35.9844 40.3875V43.3249H43.3278V37.4502H35.9844V40.3875Z" fill="#ABE9FE"/>
<path d="M31.5778 14.6885H27.9061H24.2344V20.5632H31.5778V14.6885Z" fill="#ABE9FE"/>
<path d="M35.9805 14.6885V20.5632H43.3239V14.6885H39.6522H35.9805Z" fill="#ABE9FE"/>
<path d="M16.1557 0.734375H5.875V5.87474H11.0154H16.1557V0.734375Z" fill="#ABE9FE"/>
<path d="M43.326 13.9524H40.3886V10.2807C40.3886 9.87465 40.0596 9.5464 39.6543 9.5464H11.7494V6.60905H16.1554C16.5608 6.60905 16.8898 6.2808 16.8898 5.87471V0.734338C16.8898 0.328249 16.5608 0 16.1554 0H5.87471C5.46935 0 5.14037 0.328249 5.14037 0.734338V5.87471C5.14037 6.2808 5.46935 6.60905 5.87471 6.60905H10.2807V9.5464H4.40603C4.00068 9.5464 3.67169 9.87465 3.67169 10.2807V13.9524H0.734338C0.328984 13.9524 0 14.2807 0 14.6868V20.5615C0 20.9676 0.328984 21.2958 0.734338 21.2958H3.67169V26.4362H0.734338C0.328984 26.4362 0 26.7644 0 27.1705V33.0452C0 33.4513 0.328984 33.7796 0.734338 33.7796H3.67169V36.7169H0.734338C0.328984 36.7169 0 37.0452 0 37.4513V43.326C0 43.7321 0.328984 44.0603 0.734338 44.0603H8.07772C8.48308 44.0603 8.81206 43.7321 8.81206 43.326V37.4513C8.81206 37.0452 8.48308 36.7169 8.07772 36.7169H5.14037V33.7796H8.07772C8.48308 33.7796 8.81206 33.4513 8.81206 33.0452V27.1705C8.81206 26.7644 8.48308 26.4362 8.07772 26.4362H5.14037V24.9675H21.2958V26.4362H18.3585C17.9531 26.4362 17.6241 26.7644 17.6241 27.1705V33.0452C17.6241 33.4513 17.9531 33.7796 18.3585 33.7796H21.2958V36.7169H18.3585C17.9531 36.7169 17.6241 37.0452 17.6241 37.4513V43.326C17.6241 43.7321 17.9531 44.0603 18.3585 44.0603H25.7018C26.1072 44.0603 26.4362 43.7321 26.4362 43.326V41.123H35.2482V43.326C35.2482 43.7321 35.5772 44.0603 35.9826 44.0603H43.326C43.7313 44.0603 44.0603 43.7321 44.0603 43.326V37.4513C44.0603 37.0452 43.7313 36.7169 43.326 36.7169H35.9826C35.5772 36.7169 35.2482 37.0452 35.2482 37.4513V39.6543H26.4362V37.4513C26.4362 37.0452 26.1072 36.7169 25.7018 36.7169H22.7645V33.7796H25.7018C26.1072 33.7796 26.4362 33.4513 26.4362 33.0452V27.1705C26.4362 26.7644 26.1072 26.4362 25.7018 26.4362H22.7645V24.2332C22.7645 23.8271 22.4355 23.4988 22.0302 23.4988H5.14037V21.2958H8.07772C8.48308 21.2958 8.81206 20.9676 8.81206 20.5615V14.6868C8.81206 14.2807 8.48308 13.9524 8.07772 13.9524H5.14037V11.0151H15.4211V13.9524H12.4838C12.0784 13.9524 11.7494 14.2807 11.7494 14.6868V20.5615C11.7494 20.9676 12.0784 21.2958 12.4838 21.2958H19.8271C20.2325 21.2958 20.5615 20.9676 20.5615 20.5615V14.6868C20.5615 14.2807 20.2325 13.9524 19.8271 13.9524H16.8898V11.0151H27.1705V13.9524H24.2332C23.8278 13.9524 23.4988 14.2807 23.4988 14.6868V20.5615C23.4988 20.9676 23.8278 21.2958 24.2332 21.2958H31.5766C31.9819 21.2958 32.3109 20.9676 32.3109 20.5615V14.6868C32.3109 14.2807 31.9819 13.9524 31.5766 13.9524H28.6392V11.0151H38.9199V13.9524H35.9826C35.5772 13.9524 35.2482 14.2807 35.2482 14.6868V20.5615C35.2482 20.9676 35.5772 21.2958 35.9826 21.2958H43.326C43.7313 21.2958 44.0603 20.9676 44.0603 20.5615V14.6868C44.0603 14.2807 43.7313 13.9524 43.326 13.9524ZM6.60905 1.46868H15.4211V5.14037H6.60905V1.46868ZM7.34338 42.5916H1.46868V38.1856H7.34338V42.5916ZM7.34338 32.3109H1.46868V27.9049H7.34338V32.3109ZM36.7169 38.1856H42.5916V42.5916H36.7169V38.1856ZM24.9675 42.5916H19.0928V38.1856H24.9675V42.5916ZM24.9675 32.3109H19.0928V27.9049H24.9675V32.3109ZM7.34338 19.8271H1.46868V15.4211H7.34338V19.8271ZM19.0928 19.8271H13.2181V15.4211H19.0928V19.8271ZM30.8422 19.8271H24.9675V15.4211H30.8422V19.8271ZM42.5916 19.8271H36.7169V15.4211H42.5916V19.8271Z" fill="black"/>
</svg>
