<svg width="64" height="64" viewBox="0 0 64 64" fill="none" xmlns="http://www.w3.org/2000/svg">
<g clip-path="url(#clip0_1226_337)">
<path d="M57.9805 29.84L5.86328 29.8398L31.9609 63.0656L57.9805 29.84Z" fill="#EAF6FF"/>
<path d="M31.9607 63.0652L27.7628 57.7203L20.4414 29.8398H23.2359L31.9607 63.0652Z" fill="#D8ECFE"/>
<path d="M14.625 14.8164L23.2329 29.8412L31.919 14.8164H14.625Z" fill="#EAF6FF"/>
<path d="M31.9219 14.8164L40.608 29.8412L49.2943 14.8164H31.9219Z" fill="#EAF6FF"/>
<path d="M57.9783 29.84L31.9587 63.0652L30.5117 61.2233L55.1257 29.8398L57.9783 29.84Z" fill="#D8ECFE"/>
<path d="M23.2344 29.8398L31.9597 63.0656L40.6066 29.8398H23.2344Z" fill="#B3DAFE"/>
<path d="M40.6083 29.8398L31.9613 63.0653L30.5781 57.7982L37.815 29.8398H40.6083Z" fill="#8AC9FE"/>
<path d="M5.86328 29.8412L14.6277 14.8164L23.2355 29.8412H5.86328Z" fill="#B3DAFE"/>
<path d="M40.6055 29.8412L49.2917 14.8164L57.9778 29.8412H40.6055Z" fill="#B3DAFE"/>
<path d="M57.9818 29.8413H55.1288L47.8984 17.2335L49.2957 14.8164L57.9818 29.8413Z" fill="#8AC9FE"/>
<path d="M23.2344 29.8412L31.9205 14.8164L40.6066 29.8412H23.2344Z" fill="#B3DAFE"/>
<path d="M40.6068 29.8413H37.8136L30.5234 17.2335L31.9207 14.8164L40.6068 29.8413Z" fill="#8AC9FE"/>
<path d="M49.2944 14.8164H46.5011L39.2109 27.424L40.6082 29.8413L49.2944 14.8164Z" fill="#D8ECFE"/>
<path d="M31.9193 14.8164H29.1261L21.8359 27.424L23.2332 29.8413L31.9193 14.8164Z" fill="#D8ECFE"/>
<path d="M23.2318 29.8413H20.4386L13.1484 17.2335L14.5457 14.8164L23.2318 29.8413Z" fill="#8AC9FE"/>
<path d="M54.3292 44.9914C53.5573 46.8471 51.3097 51.5349 47.5862 53.5732C47.3619 53.696 47.3619 54.0211 47.5862 54.1439C51.3097 56.1822 53.5573 60.87 54.3292 62.7257C54.4414 62.9956 54.8224 62.9956 54.9347 62.7257C55.7065 60.87 57.9542 56.1822 61.6777 54.1439C61.9019 54.0211 61.9019 53.696 61.6777 53.5732C57.9542 51.5349 55.7065 46.8471 54.9347 44.9914C54.8224 44.7216 54.4414 44.7216 54.3292 44.9914V44.9914Z" fill="#FEF0AE"/>
<path d="M61.6775 54.148C57.9553 56.1853 55.7062 60.874 54.9353 62.7282C54.8232 62.9997 54.4422 62.9997 54.33 62.7282C54.0585 62.0782 53.6065 61.0782 52.9727 59.9661C54.1458 57.9101 55.3602 55.4705 57.7774 54.1478C58.0015 54.0246 58.0015 53.6996 57.7774 53.5775C55.3603 52.2537 54.1445 49.8128 52.9727 47.7568C53.6065 46.646 54.0585 45.646 54.33 44.9947C54.4422 44.7257 54.8232 44.7257 54.9353 44.9947C55.7062 46.8502 57.9551 51.5377 61.6775 53.5775C61.9016 53.6996 61.9016 54.0247 61.6775 54.148V54.148Z" fill="#FEE97D"/>
<path d="M11.6234 49.8908C11.0566 51.2539 9.40544 54.6973 6.67044 56.1945C6.50569 56.2847 6.50569 56.5235 6.67044 56.6137C9.40556 58.1109 11.0566 61.5543 11.6234 62.9174C11.7058 63.1157 11.9857 63.1157 12.0682 62.9174C12.6351 61.5543 14.2862 58.1109 17.0212 56.6137C17.1859 56.5235 17.1859 56.2847 17.0212 56.1945C14.2861 54.6973 12.6351 51.2539 12.0682 49.8908C11.9858 49.6927 11.7059 49.6927 11.6234 49.8908Z" fill="#FEF0AE"/>
<path d="M17.0213 56.6129C14.2866 58.1111 12.6353 61.5544 12.0687 62.9168C11.9864 63.1161 11.7063 63.1161 11.6241 62.9168C11.3389 62.2319 10.7797 61.0189 9.94531 59.7936C10.7684 58.5831 11.8606 57.3577 13.2193 56.6131C13.3849 56.5234 13.3849 56.2843 13.2193 56.1946C11.8607 55.4511 10.7686 54.2257 9.94531 53.0152C10.7797 51.7886 11.3388 50.5756 11.6241 49.8907C11.7063 49.6927 11.9864 49.6927 12.0687 49.8907C12.6353 51.2543 14.2866 54.6977 17.0213 56.1946C17.1869 56.2842 17.1869 56.5232 17.0213 56.6129V56.6129Z" fill="#FEE97D"/>
<path d="M8.87734 1.08219C8.31047 2.44531 6.65947 5.88869 3.92434 7.38594C3.75959 7.47606 3.75959 7.71494 3.92434 7.80506C6.65947 9.30231 8.31047 12.7457 8.87734 14.1088C8.95972 14.3071 9.23959 14.3071 9.32209 14.1088C9.88897 12.7457 11.5401 9.30231 14.2751 7.80506C14.4398 7.71494 14.4398 7.47606 14.2751 7.38594C11.5401 5.88869 9.88909 2.44531 9.32209 1.08219C9.23972 0.884063 8.95984 0.884063 8.87734 1.08219V1.08219Z" fill="#FEF0AE"/>
<path d="M14.2766 7.80422C11.5418 9.30234 9.89044 12.7457 9.32381 14.1081C9.24156 14.3073 8.96144 14.3073 8.87919 14.1081C8.61769 13.4792 8.12456 12.4057 7.39969 11.2862C8.24281 9.98109 9.40094 8.61122 10.8729 7.80434C11.0386 7.71472 11.0386 7.47559 10.8729 7.38597C9.40094 6.58022 8.24281 5.21034 7.39844 3.90522C8.12444 2.78447 8.61756 1.71097 8.87919 1.08209C8.96144 0.884094 9.24156 0.884094 9.32381 1.08209C9.89044 2.44572 11.5417 5.88909 14.2764 7.38597C14.4422 7.47547 14.4422 7.71459 14.2766 7.80422V7.80422Z" fill="#FEE97D"/>
<path d="M3.47619 8.62488C4.29719 9.07425 6.38306 10.5434 8.01519 14.4679C8.19806 14.9077 8.62381 15.192 9.09981 15.192H9.09994C9.57594 15.192 10.0018 14.9079 10.1847 14.468C11.8167 10.5435 13.9027 9.07438 14.7241 8.62488C15.0996 8.41913 15.3328 8.025 15.3328 7.596C15.3328 7.16713 15.0994 6.773 14.7237 6.56712C13.9027 6.11775 11.8168 4.64863 10.1846 0.723875C10.0018 0.284125 9.57594 0 9.09994 0C8.62394 0.000125 8.19819 0.28425 8.01544 0.724C6.38306 4.64862 4.29719 6.11762 3.47594 6.56712C3.10044 6.77287 2.86719 7.167 2.86719 7.59587C2.86719 8.02475 3.10044 8.419 3.47619 8.62488V8.62488ZM9.10006 2.81888C9.86131 4.3025 11.1149 6.27713 12.8821 7.596C11.1148 8.915 9.86131 10.8894 9.10006 12.373C8.33869 10.8894 7.08506 8.91475 5.31806 7.59587C7.08519 6.27712 8.33881 4.30263 9.10006 2.81888Z" fill="black"/>
<path d="M50.7348 9.23197H51.9968V10.494C51.9968 11.0098 52.4149 11.428 52.9308 11.428C53.4467 11.428 53.8648 11.0098 53.8648 10.494V9.23197H55.1267C55.6425 9.23197 56.0607 8.81384 56.0607 8.29797C56.0607 7.78209 55.6425 7.36397 55.1267 7.36397H53.8648V6.10197C53.8648 5.58609 53.4467 5.16797 52.9308 5.16797C52.4149 5.16797 51.9968 5.58609 51.9968 6.10197V7.36397H50.7348C50.2189 7.36397 49.8008 7.78209 49.8008 8.29797C49.8008 8.81384 50.2189 9.23197 50.7348 9.23197Z" fill="black"/>
<path d="M62.1264 52.7543C60.9773 52.1253 58.0604 50.0748 55.7973 44.6331C55.6008 44.1607 55.1435 43.8555 54.6323 43.8555C54.1209 43.8555 53.6636 44.1607 53.4671 44.6332C51.204 50.0748 48.2871 52.1253 47.1381 52.7543C46.7349 52.975 46.4844 53.3983 46.4844 53.859C46.4844 54.3196 46.7349 54.743 47.138 54.9636C48.2871 55.5926 51.204 57.6431 53.4671 63.0848C53.6636 63.5572 54.1209 63.8625 54.6323 63.8625C55.1435 63.8625 55.6008 63.5572 55.7973 63.0847C56.1135 62.3245 56.6519 61.1526 57.4215 59.8866C57.6895 59.4458 57.5495 58.8712 57.1088 58.6033C56.6679 58.3355 56.0933 58.4751 55.8255 58.9161C55.3445 59.7071 54.9474 60.4638 54.632 61.12C53.6109 58.997 51.7131 55.7797 48.9035 53.859C51.713 51.9383 53.611 48.7207 54.6323 46.5976C55.6534 48.7206 57.5514 51.9382 60.3609 53.859C59.753 54.2743 59.1598 54.7687 58.5884 55.3366C58.2225 55.7003 58.2209 56.2917 58.5845 56.6576C58.9483 57.0235 59.5395 57.0251 59.9055 56.6615C60.6215 55.9496 61.3688 55.3783 62.1265 54.9635C62.5296 54.7428 62.78 54.3196 62.78 53.859C62.7799 53.3983 62.5295 52.975 62.1264 52.7543V52.7543Z" fill="black"/>
<path d="M17.47 55.3756C16.649 54.9262 14.5633 53.4572 12.9309 49.5325C12.748 49.0927 12.3222 48.8086 11.8462 48.8086C11.3702 48.8086 10.9443 49.0927 10.7614 49.5325V49.5326C9.12928 53.4572 7.04341 54.9262 6.22191 55.3758C5.84653 55.5816 5.61328 55.9757 5.61328 56.4046C5.61328 56.8333 5.84653 57.2275 6.22228 57.4335C7.04341 57.883 9.12941 59.3521 10.7614 63.2766C10.9443 63.7163 11.3702 64.0006 11.8462 64.0006C12.3222 64.0006 12.748 63.7163 12.9309 63.2765C14.5632 59.3518 16.649 57.8827 17.4703 57.4333C17.8458 57.2276 18.079 56.8335 18.079 56.4046C18.0792 55.9757 17.8458 55.5815 17.47 55.3756V55.3756ZM11.8462 61.1816C11.0849 59.6978 9.83153 57.7235 8.06416 56.4045C9.83128 55.0856 11.0849 53.1111 11.8462 51.6275C12.6075 53.1111 13.8612 55.0857 15.6282 56.4046C13.861 57.7235 12.6075 59.698 11.8462 61.1816Z" fill="black"/>
<path d="M7.48253 44.8096C7.48253 44.2937 7.06441 43.8756 6.54853 43.8756H5.28653V42.6137C5.28653 42.0978 4.86841 41.6797 4.35253 41.6797C3.83666 41.6797 3.41853 42.0978 3.41853 42.6137V43.8756H2.15666C1.64078 43.8756 1.22266 44.2937 1.22266 44.8096C1.22266 45.3254 1.64078 45.7436 2.15666 45.7436H3.41853V47.0056C3.41853 47.5214 3.83666 47.9396 4.35253 47.9396C4.86841 47.9396 5.28653 47.5214 5.28653 47.0056V45.7436H6.54853C7.06441 45.7436 7.48253 45.3254 7.48253 44.8096V44.8096Z" fill="black"/>
<path d="M58.8732 29.5815C58.8523 29.5081 58.8231 29.4377 58.7863 29.374C58.782 29.3665 50.1002 14.3493 50.1002 14.3493C49.9338 14.0622 49.6219 13.8828 49.2915 13.8828C49.2862 13.8828 31.9192 13.8828 31.9192 13.8828H14.6288C14.6275 13.8828 14.6264 13.8828 14.6252 13.8828C14.2968 13.8828 13.9838 14.0626 13.8184 14.3462C13.8173 14.3482 5.05399 29.3709 5.05399 29.371C4.86512 29.6951 4.89399 30.1186 5.12349 30.4144C5.12449 30.4158 5.12524 30.4171 5.12624 30.4185C5.12624 30.4185 31.2227 63.6429 31.2238 63.6444C31.5881 64.108 32.329 64.109 32.6937 63.6433C32.706 63.6276 58.7128 30.4181 58.7132 30.4176C58.8972 30.1836 58.9538 29.8656 58.8732 29.5815V29.5815ZM47.6727 15.7508L41.306 26.7634L40.6053 27.9754L33.538 15.7508H47.6727ZM38.9865 28.9075H24.8518L27.6502 24.0671L31.9192 16.6829L38.9865 28.9075ZM30.3003 15.7508L24.5503 25.6967L23.2367 27.969L16.2367 15.7508H30.3003ZM14.6178 16.6829L21.6214 28.9075H7.48675L14.6178 16.6829ZM31.9542 59.3747L26.4962 38.5909C26.3652 38.092 25.8545 37.7935 25.3557 37.9248C24.8568 38.0558 24.5586 38.5664 24.6896 39.0654L29.9111 58.949L7.78188 30.7755H9.29051H22.5126L23.5817 34.8469C23.7127 35.3456 24.2232 35.6441 24.7222 35.513C25.2211 35.382 25.5193 34.8714 25.3883 34.3724L24.4438 30.7756L39.3969 30.7758L31.9542 59.3747ZM33.9941 58.9529L41.3271 30.7758L56.0599 30.7759L33.9941 58.9529ZM42.2241 28.9075L48.5218 18.0143L49.2914 16.6829L56.3588 28.9075H42.2241Z" fill="black"/>
</g>
<defs>
<clipPath id="clip0_1226_337">
<rect width="64" height="64" fill="white"/>
</clipPath>
</defs>
</svg>
