<svg width="152" height="64" viewBox="0 0 152 64" fill="none" xmlns="http://www.w3.org/2000/svg">
<path d="M52.4258 40.1699V56.5102C52.4258 60.1285 65.218 63.0618 80.9982 63.0618C96.7783 63.0618 109.571 60.1285 109.571 56.5102V40.1699H52.4258Z" fill="#DFEAEF"/>
<path d="M52.4258 23.8281V40.1684C52.4258 43.7867 65.218 46.72 80.9982 46.72C96.7783 46.72 109.571 43.7867 109.571 40.1684V23.8281H52.4258Z" fill="#DFEAEF"/>
<path d="M52.4258 7.48828V23.8285C52.4258 27.4469 65.218 30.3802 80.9982 30.3802C96.7783 30.3802 109.571 27.4469 109.571 23.8285V7.48828H52.4258Z" fill="#DFEAEF"/>
<path d="M103.042 7.48828V23.8285C103.042 27.1937 91.977 29.9658 77.7344 30.3373C78.8059 30.3653 79.8946 30.38 80.9986 30.38C96.7787 30.38 109.571 27.4468 109.571 23.8284V7.48828H103.042Z" fill="#BFCFD6"/>
<path d="M103.042 23.8281V40.1684C103.042 43.5335 91.977 46.3056 77.7344 46.6771C78.8059 46.7051 79.8946 46.7199 80.9986 46.7199C96.7787 46.7199 109.571 43.7866 109.571 40.1682V23.8281H103.042Z" fill="#BFCFD6"/>
<path d="M103.042 40.2324V56.5727C103.042 59.9378 91.977 62.7099 77.7344 63.0814C78.8059 63.1094 79.8946 63.1242 80.9986 63.1242C96.7787 63.1242 109.571 60.1909 109.571 56.5725V40.2324H103.042Z" fill="#BFCFD6"/>
<path d="M80.9983 14.04C96.7784 14.04 109.571 11.1069 109.571 7.48875C109.571 3.87059 96.7784 0.9375 80.9983 0.9375C65.2181 0.9375 52.4258 3.87059 52.4258 7.48875C52.4258 11.1069 65.2181 14.04 80.9983 14.04Z" fill="#9EBECC"/>
<path d="M80.9986 0.9375C79.8946 0.9375 78.8058 0.952375 77.7344 0.98025C91.9769 1.35175 103.042 4.12387 103.042 7.489C103.042 10.8541 91.9769 13.6263 77.7344 13.9978C78.8059 14.0258 79.8946 14.0405 80.9986 14.0405C96.7787 14.0405 109.571 11.1073 109.571 7.48887C109.571 3.87075 96.7787 0.9375 80.9986 0.9375Z" fill="#86AEBC"/>
<path d="M98.3517 23.3694C99.8533 23.3694 101.071 22.1521 101.071 20.6505C101.071 19.1489 99.8533 17.9316 98.3517 17.9316C96.8501 17.9316 95.6328 19.1489 95.6328 20.6505C95.6328 22.1521 96.8501 23.3694 98.3517 23.3694Z" fill="#FC9F3D"/>
<path d="M98.3517 39.4944C99.8533 39.4944 101.071 38.2771 101.071 36.7755C101.071 35.2739 99.8533 34.0566 98.3517 34.0566C96.8501 34.0566 95.6328 35.2739 95.6328 36.7755C95.6328 38.2771 96.8501 39.4944 98.3517 39.4944Z" fill="#FC9F3D"/>
<path d="M98.3517 55.6448C99.8533 55.6448 101.071 54.4275 101.071 52.9259C101.071 51.4243 99.8533 50.207 98.3517 50.207C96.8501 50.207 95.6328 51.4243 95.6328 52.9259C95.6328 54.4275 96.8501 55.6448 98.3517 55.6448Z" fill="#FC9F3D"/>
<path d="M100.275 54.847C101.336 53.7852 101.336 52.0637 100.275 51.002L96.4297 54.847C97.4913 55.9088 99.2128 55.9088 100.275 54.847Z" fill="#ED852F"/>
<path d="M90.3104 21.0029C87.3264 21.2429 84.1934 21.3646 80.9983 21.3646C73.3807 21.3646 66.2745 20.6814 60.9886 19.4408C60.4853 19.3233 59.9795 19.6353 59.861 20.1396C59.7426 20.6441 60.0556 21.1489 60.5598 21.2673C65.9821 22.5399 73.2406 23.2406 80.9983 23.2406C84.2433 23.2406 87.4271 23.1169 90.4609 22.8728C90.9773 22.8313 91.3622 22.3789 91.3207 21.8625C91.2792 21.3464 90.8256 20.9606 90.3104 21.0029Z" fill="black"/>
<path d="M90.3104 37.0811C87.3264 37.3211 84.1934 37.4429 80.9983 37.4429C73.3807 37.4429 66.2745 36.7596 60.9886 35.519C60.4853 35.4011 59.9795 35.7135 59.861 36.2179C59.7426 36.7224 60.0556 37.2271 60.5598 37.3455C65.9821 38.6181 73.2406 39.3189 80.9983 39.3189C84.2433 39.3189 87.4271 39.1951 90.4609 38.951C90.9773 38.9095 91.3622 38.4571 91.3207 37.9408C91.2792 37.4245 90.8256 37.0391 90.3104 37.0811Z" fill="black"/>
<path d="M110.505 7.37887C110.307 2.893 98.172 1.13937 92.9294 0.591625C91.3118 0.422625 89.6164 0.2875 87.89 0.19025C85.6472 0.064 83.3285 0 80.9988 0C75.0377 0 69.313 0.4145 64.4438 1.19887C63.9323 1.28125 63.5844 1.76263 63.6669 2.27413C63.7493 2.7855 64.2313 3.13375 64.7422 3.051C69.5145 2.28238 75.1359 1.876 80.9989 1.876C83.2937 1.876 85.5767 1.939 87.7847 2.06337C89.4812 2.15887 91.1465 2.2915 92.7347 2.45738C97.5859 2.96425 101.687 3.76925 104.595 4.78538C108.439 6.12838 108.633 7.27362 108.633 7.4895C108.633 8.21988 107.024 9.825 100.993 11.2079C100.826 11.2461 100.658 11.2838 100.488 11.3209C95.2188 12.4715 88.3259 13.1031 80.9989 13.1031C73.6719 13.1031 66.779 12.4714 61.5097 11.3209C61.3397 11.2838 61.1714 11.2461 61.0048 11.2079C55.0285 9.83763 53.3952 8.24975 53.3659 7.51038C53.366 7.50338 53.3669 7.49662 53.3669 7.48975C53.3669 7.48312 53.366 7.47675 53.3659 7.47013C53.3813 7.02863 53.9158 6.46588 54.8399 5.92175C56.0059 5.23513 57.7157 4.6 59.9219 4.034C60.4237 3.90525 60.726 3.39412 60.5973 2.89225C60.4685 2.39062 59.9579 2.0885 59.4555 2.21688C54.1689 3.57313 51.4883 5.34737 51.4883 7.48987V23.8301V40.1702V56.5105C51.4883 58.8071 54.549 60.6734 60.5854 62.0575C66.0488 63.3101 73.2984 64 80.9988 64C88.6992 64 95.9489 63.3101 101.412 62.0574C107.448 60.6733 110.509 58.807 110.509 56.5104V40.1701V23.8299V7.538C110.51 7.52187 110.512 7.50588 110.512 7.48962C110.512 7.45213 110.509 7.41525 110.505 7.37887ZM108.633 56.5104C108.633 57.2407 107.024 58.8459 100.993 60.2287C95.6629 61.4509 88.5623 62.1239 80.9988 62.1239C73.4353 62.1239 66.3347 61.4509 61.0047 60.2287C54.9737 58.8457 53.3644 57.2407 53.3644 56.5104V43.0214C53.3849 43.0355 53.4075 43.0494 53.4284 43.0635C53.4793 43.0979 53.5314 43.132 53.5843 43.166C53.627 43.1935 53.6702 43.221 53.7142 43.2484C53.7693 43.2826 53.826 43.3165 53.8833 43.3504C53.9283 43.377 53.9729 43.4038 54.0192 43.4301C54.0795 43.4646 54.1419 43.4989 54.2044 43.5331C54.2507 43.5584 54.296 43.5838 54.3434 43.6089C54.4115 43.645 54.4822 43.6806 54.5527 43.7164C54.5974 43.739 54.6409 43.7619 54.6867 43.7844C54.774 43.8274 54.8644 43.8699 54.9553 43.9124C54.987 43.9271 55.0172 43.9422 55.0493 43.957C55.1727 44.0136 55.2994 44.0697 55.4292 44.1254C55.4697 44.1427 55.5123 44.1597 55.5535 44.1771C55.6452 44.2156 55.7369 44.254 55.8317 44.292C55.8855 44.3136 55.9414 44.3349 55.9963 44.3564C56.0813 44.3896 56.1663 44.4229 56.2537 44.4557C56.3142 44.4785 56.3763 44.501 56.4379 44.5235C56.5229 44.5546 56.6083 44.5858 56.6954 44.6166C56.7603 44.6395 56.8267 44.6623 56.8928 44.685C56.9802 44.715 57.0682 44.745 57.1578 44.7747C57.2259 44.7974 57.295 44.8199 57.3644 44.8424C57.4552 44.8717 57.5469 44.901 57.6398 44.93C57.7108 44.9523 57.7823 44.9744 57.8545 44.9964C57.9495 45.0254 58.046 45.0541 58.1432 45.0827C58.216 45.1042 58.2888 45.1256 58.3629 45.147C58.4637 45.176 58.5663 45.2046 58.6693 45.2332C58.7427 45.2536 58.8155 45.2741 58.89 45.2943C58.9994 45.3239 59.1112 45.3532 59.223 45.3825C59.2939 45.4011 59.364 45.4199 59.4359 45.4383C59.5615 45.4705 59.6899 45.5023 59.8184 45.534C59.8795 45.5491 59.9393 45.5644 60.001 45.5794C60.1928 45.6259 60.3873 45.6719 60.5854 45.7173C66.0489 46.9699 73.2984 47.6599 80.9988 47.6599C88.6992 47.6599 95.9488 46.9699 101.412 45.7173C101.61 45.6719 101.805 45.6258 101.997 45.5794C102.058 45.5644 102.118 45.5491 102.179 45.534C102.308 45.5023 102.436 45.4706 102.562 45.4384C102.634 45.4199 102.704 45.4011 102.775 45.3825C102.887 45.3532 102.998 45.3239 103.107 45.2943C103.182 45.274 103.255 45.2536 103.328 45.2332C103.431 45.2046 103.534 45.176 103.635 45.147C103.709 45.1257 103.781 45.1042 103.854 45.0827C103.951 45.0541 104.048 45.0254 104.143 44.9964C104.215 44.9744 104.287 44.9523 104.358 44.93C104.451 44.901 104.542 44.8717 104.633 44.8425C104.702 44.82 104.772 44.7975 104.84 44.7747C104.929 44.745 105.017 44.7151 105.105 44.6851C105.171 44.6624 105.237 44.6396 105.302 44.6167C105.389 44.586 105.474 44.5549 105.559 44.5236C105.621 44.501 105.683 44.4786 105.744 44.4559C105.831 44.423 105.916 44.3897 106.001 44.3565C106.056 44.335 106.112 44.3138 106.166 44.2921C106.26 44.2542 106.352 44.2159 106.443 44.1775C106.485 44.1601 106.527 44.1429 106.568 44.1254C106.698 44.0697 106.825 44.0136 106.948 43.9571C106.98 43.9424 107.01 43.9274 107.042 43.9125C107.133 43.87 107.223 43.8275 107.311 43.7845C107.356 43.762 107.4 43.7391 107.445 43.7165C107.515 43.6807 107.586 43.6451 107.654 43.609C107.701 43.5839 107.747 43.5585 107.793 43.5331C107.855 43.499 107.918 43.4647 107.978 43.4302C108.024 43.4037 108.069 43.377 108.114 43.3503C108.171 43.3164 108.228 43.2825 108.283 43.2484C108.327 43.221 108.37 43.1935 108.413 43.166C108.466 43.132 108.518 43.0977 108.569 43.0635C108.59 43.0494 108.612 43.0355 108.633 43.0214V56.5104H108.633ZM108.633 40.1701C108.633 40.2386 108.619 40.3148 108.588 40.3978C108.293 41.1996 106.459 42.6353 100.993 43.8886C95.6629 45.1108 88.5622 45.7839 80.9988 45.7839C73.4354 45.7839 66.3347 45.1108 61.0047 43.8886C55.539 42.6353 53.705 41.1996 53.4092 40.3978C53.3785 40.3149 53.3644 40.2386 53.3644 40.1701V26.681C53.3843 26.6946 53.406 26.708 53.4262 26.7216C53.4784 26.7569 53.5319 26.792 53.5863 26.827C53.628 26.8539 53.6699 26.8806 53.7129 26.9072C53.769 26.942 53.8268 26.9766 53.885 27.0111C53.9292 27.0373 53.973 27.0635 54.0184 27.0894C54.0794 27.1243 54.1424 27.1588 54.2055 27.1934C54.2513 27.2184 54.2963 27.2435 54.3432 27.2684C54.411 27.3044 54.4814 27.34 54.5518 27.3755C54.597 27.3984 54.641 27.4215 54.6872 27.4443C54.7732 27.4866 54.8622 27.5284 54.9515 27.5702C54.9845 27.5857 55.0162 27.6014 55.0497 27.6168C55.1728 27.6733 55.2993 27.7292 55.4287 27.7847C55.4714 27.8031 55.5165 27.8211 55.56 27.8394C55.6493 27.8767 55.7385 27.9142 55.8307 27.9513C55.8865 27.9736 55.9445 27.9958 56.0014 28.018C56.0843 28.0504 56.1672 28.0829 56.2524 28.1149C56.3145 28.1383 56.3785 28.1614 56.4419 28.1846C56.5252 28.2151 56.6085 28.2455 56.6939 28.2757C56.7603 28.2992 56.8282 28.3225 56.8958 28.3458C56.9817 28.3752 57.068 28.4046 57.1559 28.4339C57.2254 28.457 57.2959 28.4799 57.3667 28.5028C57.4563 28.5317 57.5468 28.5605 57.6384 28.5893C57.7103 28.6117 57.7827 28.6341 57.8558 28.6564C57.95 28.6851 58.0455 28.7136 58.1418 28.7419C58.2153 28.7635 58.2888 28.7852 58.3634 28.8066C58.4637 28.8354 58.5657 28.864 58.6682 28.8924C58.742 28.9129 58.8155 28.9335 58.8905 28.9539C58.999 28.9832 59.1098 29.0124 59.2207 29.0415C59.2925 29.0604 59.3635 29.0794 59.4364 29.098C59.5614 29.1301 59.6893 29.1616 59.8173 29.1933C59.8788 29.2084 59.9389 29.2239 60.001 29.2389C60.1928 29.2854 60.3873 29.3314 60.5854 29.3768C66.0489 30.6294 73.2985 31.3194 80.9988 31.3194C88.699 31.3194 95.9488 30.6294 101.412 29.3768C101.61 29.3314 101.805 29.2852 101.997 29.2389C102.059 29.2237 102.119 29.2084 102.181 29.1933C102.308 29.1618 102.436 29.1301 102.561 29.0981C102.634 29.0794 102.705 29.0604 102.777 29.0415C102.888 29.0125 102.998 28.9835 103.107 28.954C103.182 28.9336 103.255 28.913 103.329 28.8925C103.432 28.864 103.534 28.8355 103.634 28.8067C103.709 28.7852 103.782 28.7636 103.856 28.742C103.952 28.7136 104.047 28.6851 104.142 28.6565C104.215 28.6343 104.287 28.6117 104.359 28.5893C104.451 28.5606 104.541 28.5319 104.631 28.5029C104.701 28.48 104.772 28.457 104.842 28.4339C104.929 28.4047 105.016 28.3754 105.101 28.3459C105.169 28.3226 105.237 28.2994 105.303 28.2759C105.389 28.2458 105.472 28.2153 105.555 28.1847C105.619 28.1615 105.683 28.1385 105.745 28.115C105.83 28.083 105.913 28.0505 105.996 28.0181C106.053 27.9959 106.111 27.9737 106.167 27.9514C106.259 27.9145 106.348 27.8772 106.437 27.8399C106.48 27.8215 106.526 27.8034 106.569 27.7849C106.698 27.7294 106.825 27.6734 106.948 27.6169C106.981 27.6015 107.013 27.5859 107.046 27.5704C107.135 27.5286 107.224 27.4867 107.31 27.4444C107.356 27.4216 107.4 27.3986 107.446 27.3756C107.516 27.34 107.586 27.3044 107.654 27.2685C107.701 27.2436 107.746 27.2185 107.792 27.1934C107.855 27.1589 107.918 27.1244 107.979 27.0895C108.024 27.0635 108.068 27.0373 108.113 27.011C108.171 26.9765 108.229 26.942 108.285 26.9072C108.328 26.8806 108.369 26.8538 108.411 26.827C108.466 26.792 108.519 26.7569 108.571 26.7216C108.591 26.708 108.613 26.6946 108.633 26.681V40.1701H108.633ZM108.633 23.8299C108.633 24.5603 107.024 26.1654 100.993 27.5483C95.6629 28.7704 88.5622 29.4435 80.9988 29.4435C73.4354 29.4435 66.3347 28.7704 61.0047 27.5483C54.9737 26.1654 53.3644 24.5604 53.3644 23.8299V10.3407C53.3843 10.3544 53.406 10.3678 53.4262 10.3814C53.4784 10.4166 53.5319 10.4517 53.5863 10.4867C53.628 10.5136 53.6699 10.5404 53.7129 10.567C53.769 10.6018 53.8268 10.6364 53.885 10.6709C53.9292 10.697 53.973 10.7232 54.0184 10.7491C54.0794 10.784 54.1424 10.8185 54.2055 10.8531C54.2513 10.8781 54.2963 10.9033 54.3432 10.9281C54.411 10.9641 54.4814 10.9998 54.5518 11.0352C54.597 11.0581 54.641 11.0813 54.6872 11.104C54.7732 11.1464 54.8622 11.1881 54.9515 11.23C54.9845 11.2455 55.0162 11.2611 55.0497 11.2765C55.1728 11.333 55.2993 11.389 55.4287 11.4445C55.4714 11.4629 55.5165 11.4809 55.56 11.4991C55.6493 11.5365 55.7385 11.574 55.8307 11.611C55.8865 11.6334 55.9445 11.6555 56.0014 11.6777C56.0843 11.7101 56.1672 11.7426 56.2524 11.7746C56.3145 11.798 56.3785 11.8211 56.4419 11.8444C56.5252 11.8749 56.6085 11.9053 56.6939 11.9355C56.7603 11.959 56.8282 11.9823 56.8958 12.0055C56.9817 12.035 57.068 12.0644 57.1559 12.0936C57.2254 12.1167 57.2959 12.1396 57.3667 12.1625C57.4563 12.1915 57.5468 12.2202 57.6384 12.249C57.7103 12.2715 57.7827 12.2939 57.8558 12.3161C57.95 12.3449 58.0455 12.3734 58.1418 12.4016C58.2153 12.4232 58.2888 12.445 58.3634 12.4664C58.4637 12.4951 58.5657 12.5238 58.6682 12.5521C58.742 12.5726 58.8155 12.5932 58.8905 12.6136C58.999 12.643 59.1098 12.6721 59.2207 12.7013C59.2925 12.7201 59.3635 12.7391 59.4364 12.7577C59.5614 12.7897 59.6893 12.8214 59.8173 12.853C59.8788 12.8681 59.9389 12.8836 60.001 12.8986C60.1928 12.9451 60.3873 12.9911 60.5854 13.0365C66.0488 14.2891 73.2984 14.9791 80.9988 14.9791C88.6992 14.9791 95.9489 14.2891 101.412 13.0365C101.61 12.9911 101.805 12.945 101.997 12.8986C102.059 12.8835 102.119 12.8681 102.181 12.853C102.308 12.8215 102.436 12.7899 102.561 12.7579C102.634 12.7391 102.705 12.7201 102.777 12.7013C102.888 12.6722 102.998 12.6433 103.107 12.6138C103.182 12.5934 103.255 12.5728 103.329 12.5522C103.432 12.5238 103.534 12.4953 103.634 12.4665C103.709 12.445 103.782 12.4234 103.856 12.4017C103.952 12.3734 104.047 12.3449 104.142 12.3162C104.215 12.294 104.287 12.2715 104.359 12.249C104.451 12.2204 104.541 12.1916 104.631 12.1626C104.701 12.1398 104.772 12.1167 104.842 12.0936C104.929 12.0645 105.016 12.0351 105.101 12.0056C105.169 11.9824 105.237 11.9591 105.303 11.9356C105.389 11.9055 105.472 11.875 105.555 11.8445C105.619 11.8212 105.683 11.7983 105.745 11.7747C105.83 11.7428 105.913 11.7102 105.996 11.6779C106.053 11.6556 106.111 11.6335 106.167 11.6111C106.259 11.5743 106.348 11.537 106.437 11.4996C106.48 11.4812 106.526 11.4631 106.569 11.4446C106.698 11.3891 106.825 11.3331 106.948 11.2766C106.981 11.2612 107.013 11.2456 107.046 11.2301C107.135 11.1884 107.224 11.1465 107.31 11.1041C107.356 11.0814 107.4 11.0584 107.446 11.0354C107.516 10.9997 107.586 10.9641 107.654 10.9283C107.701 10.9034 107.746 10.8782 107.792 10.8531C107.855 10.8186 107.918 10.7841 107.979 10.7493C108.024 10.7233 108.068 10.697 108.113 10.6707C108.171 10.6362 108.229 10.6018 108.285 10.567C108.328 10.5404 108.369 10.5135 108.411 10.4867C108.466 10.4517 108.519 10.4166 108.571 10.3814C108.591 10.3678 108.613 10.3544 108.633 10.3407V23.8299H108.633Z" fill="black"/>
<path d="M95.7646 18.0634C94.3389 19.4892 94.3389 21.8091 95.7646 23.235C96.4775 23.9477 97.414 24.3044 98.3505 24.3044C99.287 24.3044 100.223 23.9479 100.936 23.235C102.362 21.8091 102.362 19.4892 100.936 18.0634C99.5104 16.6377 97.1905 16.6377 95.7646 18.0634ZM99.6096 21.9084C99.2734 22.2447 98.8261 22.43 98.3505 22.43C97.8749 22.43 97.4276 22.2447 97.0914 21.9084C96.755 21.5721 96.5697 21.1249 96.5697 20.6492C96.5697 20.1736 96.755 19.7264 97.0914 19.3901C97.4276 19.0537 97.8749 18.8685 98.3505 18.8685C98.8261 18.8685 99.2734 19.0537 99.6096 19.3901C99.946 19.7264 100.131 20.1736 100.131 20.6492C100.131 21.1249 99.946 21.5721 99.6096 21.9084Z" fill="black"/>
<path d="M95.7646 34.1903C94.3389 35.6162 94.3389 37.9361 95.7646 39.3619C96.4775 40.0747 97.414 40.4313 98.3505 40.4313C99.287 40.4313 100.223 40.0748 100.936 39.3619C102.362 37.9361 102.362 35.6162 100.936 34.1903C99.5104 32.7647 97.1905 32.7647 95.7646 34.1903ZM99.6096 38.0353C99.2734 38.3717 98.8261 38.5569 98.3505 38.5569C97.8749 38.5569 97.4276 38.3717 97.0914 38.0353C96.755 37.6991 96.5697 37.2518 96.5697 36.7762C96.5697 36.3006 96.755 35.8533 97.0914 35.5171C97.4276 35.1807 97.8749 34.9954 98.3505 34.9954C98.8261 34.9954 99.2734 35.1807 99.6096 35.5171C99.946 35.8533 100.131 36.3006 100.131 36.7762C100.131 37.2518 99.946 37.6991 99.6096 38.0353Z" fill="black"/>
<path d="M95.7646 50.3387C94.3389 51.7646 94.3389 54.0845 95.7646 55.5104C96.4775 56.2231 97.414 56.5798 98.3505 56.5798C99.287 56.5798 100.223 56.2233 100.936 55.5104C102.362 54.0845 102.362 51.7646 100.936 50.3387C99.5104 48.9131 97.1905 48.9131 95.7646 50.3387ZM99.6096 54.1838C99.2734 54.5201 98.8261 54.7054 98.3505 54.7054C97.8749 54.7054 97.4276 54.5201 97.0914 54.1838C96.755 53.8475 96.5697 53.4003 96.5697 52.9246C96.5697 52.449 96.755 52.0018 97.0914 51.6655C97.4276 51.3291 97.8749 51.1439 98.3505 51.1439C98.8261 51.1439 99.2734 51.3291 99.6096 51.6655C99.946 52.0018 100.131 52.449 100.131 52.9246C100.131 53.4001 99.946 53.8475 99.6096 54.1838Z" fill="black"/>
<path d="M90.309 53.4604C88.9971 53.5659 87.6416 53.6495 86.2801 53.7086C85.7626 53.7312 85.3612 54.169 85.3837 54.6866C85.4057 55.1903 85.8208 55.5839 86.3202 55.5839C86.334 55.5839 86.3478 55.5836 86.3617 55.583C87.7462 55.5227 89.1247 55.4377 90.4595 55.3302C90.9758 55.2887 91.3608 54.8363 91.3192 54.32C91.2777 53.8038 90.8241 53.417 90.309 53.4604Z" fill="black"/>
<path d="M81.2902 53.8215C81.2895 53.8215 81.2886 53.8215 81.2878 53.8215L80.9983 53.8218C73.3807 53.8218 66.2745 53.1385 60.9886 51.8979C60.4853 51.78 59.9795 52.0924 59.861 52.5968C59.7426 53.1013 60.0556 53.606 60.5598 53.7244C65.9821 54.997 73.2406 55.6978 80.9983 55.6978L81.2925 55.6975C81.8106 55.6962 82.2295 55.2752 82.2282 54.7572C82.2267 54.2399 81.8071 53.8215 81.2902 53.8215Z" fill="black"/>
</svg>
