<svg width="176" height="168" viewBox="0 0 176 168" fill="none" xmlns="http://www.w3.org/2000/svg">
<mask id="mask0_1885_12057" style="mask-type:alpha" maskUnits="userSpaceOnUse" x="0" y="40" width="128" height="128">
<circle cx="64" cy="104" r="64" fill="#FEF284"/>
</mask>
<g mask="url(#mask0_1885_12057)">
<circle cx="64" cy="104" r="64" fill="#FEF284"/>
<path d="M20.4219 164.883V189.649C20.4219 195.133 39.8101 199.579 63.7269 199.579C87.6436 199.579 107.032 195.133 107.032 189.649V164.883H20.4219Z" fill="#DFEAEF"/>
<path d="M20.4219 140.118V164.883C20.4219 170.367 39.8101 174.813 63.7269 174.813C87.6436 174.813 107.032 170.367 107.032 164.883V140.118H20.4219Z" fill="#DFEAEF"/>
<path d="M20.4219 115.352V140.118C20.4219 145.602 39.8101 150.047 63.7269 150.047C87.6436 150.047 107.032 145.602 107.032 140.118V115.352H20.4219Z" fill="#DFEAEF"/>
<path d="M97.1389 115.352V140.118C97.1389 145.218 80.3677 149.419 58.7812 149.982C60.4052 150.025 62.0554 150.047 63.7286 150.047C87.6454 150.047 107.034 145.601 107.034 140.117V115.352H97.1389Z" fill="#BFCFD6"/>
<path d="M97.1389 140.118V164.883C97.1389 169.984 80.3677 174.185 58.7812 174.748C60.4052 174.791 62.0554 174.813 63.7286 174.813C87.6454 174.813 107.034 170.367 107.034 164.883V140.118H97.1389Z" fill="#BFCFD6"/>
<path d="M97.1389 164.979V189.744C97.1389 194.844 80.3677 199.046 58.7812 199.609C60.4052 199.651 62.0554 199.674 63.7286 199.674C87.6454 199.674 107.034 195.228 107.034 189.744V164.979H97.1389Z" fill="#BFCFD6"/>
<path d="M63.7271 125.281C87.6439 125.281 107.032 120.835 107.032 115.352C107.032 109.868 87.6439 105.422 63.7271 105.422C39.8103 105.422 20.4219 109.868 20.4219 115.352C20.4219 120.835 39.8103 125.281 63.7271 125.281Z" fill="#9EBECC"/>
<path d="M63.7286 105.422C62.0554 105.422 60.4051 105.444 58.7812 105.486C80.3675 106.049 97.1389 110.251 97.1389 115.351C97.1389 120.452 80.3675 124.653 58.7812 125.216C60.4052 125.259 62.0554 125.281 63.7286 125.281C87.6454 125.281 107.034 120.835 107.034 115.351C107.034 109.867 87.6454 105.422 63.7286 105.422Z" fill="#86AEBC"/>
<path d="M90.027 139.418C92.3029 139.418 94.1478 137.574 94.1478 135.298C94.1478 133.022 92.3029 131.177 90.027 131.177C87.7512 131.177 85.9062 133.022 85.9062 135.298C85.9062 137.574 87.7512 139.418 90.027 139.418Z" fill="#FC9F3D"/>
<path d="M90.027 163.858C92.3029 163.858 94.1478 162.013 94.1478 159.737C94.1478 157.461 92.3029 155.616 90.027 155.616C87.7512 155.616 85.9062 157.461 85.9062 159.737C85.9062 162.013 87.7512 163.858 90.027 163.858Z" fill="#FC9F3D"/>
<path d="M77.8403 135.833C73.3177 136.197 68.5692 136.381 63.7266 136.381C52.1811 136.381 41.4107 135.346 33.3993 133.465C32.6366 133.287 31.8699 133.76 31.6903 134.524C31.5109 135.289 31.9852 136.054 32.7495 136.234C40.9676 138.162 51.9688 139.224 63.7266 139.224C68.6448 139.224 73.4702 139.037 78.0684 138.667C78.851 138.604 79.4343 137.918 79.3715 137.136C79.3086 136.353 78.621 135.769 77.8403 135.833Z" fill="black"/>
<path d="M77.8403 160.199C73.3177 160.563 68.5692 160.747 63.7266 160.747C52.1811 160.747 41.4107 159.712 33.3993 157.831C32.6366 157.653 31.8699 158.126 31.6903 158.891C31.5109 159.655 31.9852 160.42 32.7495 160.6C40.9676 162.529 51.9688 163.591 63.7266 163.591C68.6448 163.591 73.4702 163.403 78.0684 163.033C78.851 162.97 79.4343 162.284 79.3715 161.502C79.3086 160.719 78.621 160.135 77.8403 160.199Z" fill="black"/>
<path d="M108.447 115.184C108.147 108.385 89.7551 105.727 81.8092 104.897C79.3575 104.641 76.7879 104.436 74.1714 104.288C70.772 104.097 67.2579 104 63.7269 104C54.692 104 46.0156 104.628 38.6357 105.817C37.8604 105.942 37.3332 106.671 37.4582 107.447C37.5831 108.222 38.3136 108.75 39.0879 108.624C46.321 107.459 54.8409 106.843 63.727 106.843C67.205 106.843 70.6652 106.939 74.0117 107.127C76.583 107.272 79.107 107.473 81.514 107.724C88.8667 108.493 95.0829 109.713 99.4903 111.253C105.315 113.288 105.61 115.024 105.61 115.351C105.61 116.458 103.171 118.891 94.0306 120.987C93.7781 121.045 93.5231 121.102 93.2654 121.158C85.279 122.902 74.832 123.859 63.727 123.859C52.6221 123.859 42.175 122.902 34.1886 121.158C33.931 121.102 33.676 121.045 33.4234 120.987C24.3657 118.91 21.8901 116.504 21.8458 115.383C21.846 115.372 21.8473 115.362 21.8473 115.352C21.8473 115.342 21.846 115.332 21.8458 115.322C21.8691 114.653 22.6792 113.8 24.0798 112.975C25.847 111.934 28.4384 110.972 31.7822 110.114C32.5427 109.919 33.001 109.144 32.8058 108.384C32.6107 107.623 31.8368 107.165 31.0754 107.36C23.0628 109.416 19 112.105 19 115.352V140.118V164.883V189.649C19 193.13 23.6389 195.958 32.7878 198.056C41.0683 199.954 52.056 201 63.7269 201C75.3977 201 86.3856 199.954 94.6657 198.056C103.815 195.958 108.454 193.129 108.454 189.649V164.883V140.117V115.425C108.455 115.4 108.457 115.376 108.457 115.351C108.457 115.295 108.453 115.239 108.447 115.184ZM105.61 189.649C105.61 190.756 103.171 193.188 94.0304 195.284C85.9522 197.136 75.1903 198.156 63.7269 198.156C52.2634 198.156 41.5015 197.136 33.4233 195.284C24.2825 193.188 21.8435 190.756 21.8435 189.649V169.204C21.8746 169.226 21.9089 169.247 21.9405 169.268C22.0176 169.32 22.0966 169.372 22.1767 169.423C22.2415 169.465 22.3069 169.507 22.3736 169.548C22.4571 169.6 22.5432 169.652 22.6299 169.703C22.6981 169.743 22.7658 169.784 22.8359 169.824C22.9274 169.876 23.0219 169.928 23.1166 169.98C23.1867 170.018 23.2555 170.057 23.3273 170.095C23.4306 170.149 23.5376 170.203 23.6444 170.258C23.7123 170.292 23.7782 170.327 23.8475 170.361C23.98 170.426 24.1169 170.49 24.2547 170.555C24.3028 170.577 24.3485 170.6 24.3971 170.622C24.5841 170.708 24.7762 170.793 24.9729 170.878C25.0343 170.904 25.0989 170.93 25.1614 170.956C25.3003 171.014 25.4393 171.072 25.5829 171.13C25.6646 171.163 25.7493 171.195 25.8324 171.228C25.9613 171.278 26.0901 171.328 26.2225 171.378C26.3142 171.413 26.4084 171.447 26.5018 171.481C26.6306 171.528 26.76 171.575 26.892 171.622C26.9904 171.657 27.091 171.691 27.1912 171.726C27.3236 171.771 27.457 171.817 27.5928 171.862C27.6961 171.896 27.8009 171.93 27.906 171.964C28.0435 172.009 28.1826 172.053 28.3234 172.097C28.431 172.131 28.5393 172.164 28.6488 172.198C28.7928 172.242 28.9391 172.285 29.0863 172.329C29.1967 172.361 29.307 172.394 29.4194 172.426C29.5721 172.47 29.7276 172.513 29.8837 172.557C29.9949 172.588 30.1054 172.619 30.2183 172.649C30.384 172.694 30.5534 172.739 30.723 172.783C30.8304 172.811 30.9367 172.84 31.0456 172.867C31.236 172.916 31.4306 172.964 31.6253 173.012C31.718 173.035 31.8085 173.059 31.9021 173.081C32.1928 173.152 32.4875 173.221 32.7878 173.29C41.0684 175.189 52.056 176.234 63.7269 176.234C75.3977 176.234 86.3854 175.189 94.6659 173.29C94.9662 173.221 95.2609 173.152 95.5516 173.081C95.6453 173.059 95.7361 173.035 95.8287 173.012C96.0233 172.964 96.2177 172.916 96.4079 172.868C96.5172 172.839 96.6235 172.811 96.7313 172.783C96.9005 172.739 97.0697 172.694 97.2352 172.649C97.3482 172.618 97.4586 172.588 97.5698 172.557C97.7259 172.513 97.8815 172.47 98.0342 172.426C98.1463 172.394 98.2568 172.361 98.3672 172.329C98.5144 172.285 98.6607 172.242 98.8047 172.198C98.9142 172.164 99.0225 172.131 99.1303 172.097C99.2709 172.053 99.4098 172.009 99.5473 171.964C99.6527 171.93 99.7576 171.896 99.8611 171.862C99.9965 171.817 100.13 171.771 100.262 171.726C100.362 171.691 100.463 171.657 100.561 171.622C100.694 171.576 100.823 171.528 100.952 171.481C101.045 171.447 101.139 171.413 101.231 171.378C101.363 171.329 101.492 171.278 101.621 171.228C101.704 171.195 101.789 171.163 101.87 171.13C102.013 171.073 102.152 171.015 102.291 170.957C102.354 170.93 102.419 170.904 102.481 170.878C102.677 170.793 102.869 170.708 103.056 170.623C103.105 170.6 103.151 170.577 103.199 170.555C103.336 170.49 103.473 170.426 103.606 170.361C103.675 170.327 103.741 170.292 103.809 170.258C103.916 170.204 104.023 170.15 104.126 170.095C104.198 170.057 104.267 170.018 104.337 169.98C104.431 169.928 104.526 169.876 104.617 169.824C104.688 169.784 104.755 169.743 104.824 169.703C104.91 169.651 104.996 169.6 105.08 169.548C105.147 169.507 105.212 169.465 105.277 169.423C105.357 169.372 105.436 169.32 105.513 169.268C105.545 169.247 105.579 169.226 105.61 169.204V189.649H105.61ZM105.61 164.883C105.61 164.987 105.589 165.102 105.542 165.228C105.094 166.443 102.314 168.619 94.0304 170.519C85.9522 172.371 75.1901 173.391 63.7269 173.391C52.2636 173.391 41.5015 172.371 33.4233 170.519C25.1394 168.619 22.3598 166.443 21.9113 165.228C21.8649 165.102 21.8435 164.987 21.8435 164.883V144.438C21.8736 144.459 21.9066 144.479 21.9371 144.5C22.0163 144.553 22.0974 144.607 22.1798 144.66C22.2431 144.7 22.3065 144.741 22.3717 144.781C22.4568 144.834 22.5443 144.886 22.6326 144.939C22.6995 144.978 22.7659 145.018 22.8347 145.057C22.9272 145.11 23.0227 145.162 23.1183 145.215C23.1877 145.253 23.2559 145.291 23.3269 145.329C23.4298 145.383 23.5365 145.437 23.6431 145.491C23.7117 145.526 23.7784 145.561 23.8483 145.595C23.9786 145.659 24.1135 145.723 24.249 145.786C24.299 145.81 24.3469 145.833 24.3977 145.857C24.5843 145.942 24.776 146.027 24.9721 146.111C25.0369 146.139 25.1053 146.166 25.1712 146.194C25.3065 146.251 25.4418 146.308 25.5814 146.364C25.6661 146.398 25.754 146.431 25.8402 146.465C25.9658 146.514 26.0914 146.563 26.2206 146.612C26.3148 146.647 26.4118 146.682 26.5078 146.717C26.634 146.764 26.7604 146.81 26.8898 146.855C26.9904 146.891 27.0932 146.926 27.1957 146.962C27.3259 147.006 27.4568 147.051 27.59 147.095C27.6953 147.13 27.8022 147.165 27.9094 147.199C28.0452 147.243 28.1824 147.287 28.3213 147.331C28.4302 147.365 28.5399 147.399 28.6507 147.432C28.7936 147.476 28.9383 147.519 29.0842 147.562C29.1956 147.595 29.307 147.628 29.4201 147.66C29.5721 147.704 29.7266 147.747 29.882 147.79C29.994 147.821 30.1054 147.852 30.219 147.883C30.3835 147.928 30.5513 147.972 30.7194 148.016C30.8283 148.045 30.9359 148.073 31.0464 148.102C31.2358 148.15 31.4296 148.198 31.6236 148.246C31.7169 148.269 31.808 148.292 31.9021 148.315C32.1928 148.386 32.4875 148.455 32.7878 148.524C41.0684 150.423 52.0562 151.468 63.7269 151.468C75.3975 151.468 86.3854 150.423 94.6659 148.524C94.9662 148.455 95.2609 148.385 95.5516 148.315C95.6459 148.292 95.7372 148.269 95.8304 148.246C96.0243 148.198 96.2177 148.15 96.4069 148.102C96.5176 148.073 96.6256 148.045 96.7347 148.016C96.9024 147.972 97.07 147.928 97.2343 147.883C97.348 147.853 97.4594 147.821 97.5713 147.79C97.7265 147.747 97.8813 147.704 98.0332 147.66C98.1465 147.628 98.2579 147.595 98.3691 147.562C98.515 147.519 98.6599 147.476 98.8026 147.433C98.9134 147.399 99.0231 147.365 99.1322 147.331C99.2709 147.287 99.4081 147.244 99.5437 147.2C99.6511 147.165 99.7582 147.13 99.8637 147.095C99.9967 147.051 100.127 147.006 100.257 146.962C100.36 146.926 100.463 146.891 100.564 146.856C100.693 146.81 100.819 146.764 100.945 146.718C101.042 146.682 101.139 146.647 101.233 146.612C101.362 146.563 101.487 146.514 101.613 146.465C101.699 146.431 101.787 146.398 101.872 146.364C102.011 146.308 102.146 146.251 102.281 146.195C102.347 146.167 102.416 146.139 102.481 146.111C102.678 146.027 102.869 145.942 103.056 145.857C103.107 145.834 103.154 145.81 103.205 145.786C103.34 145.723 103.475 145.66 103.605 145.595C103.675 145.561 103.742 145.526 103.81 145.491C103.917 145.437 104.024 145.383 104.127 145.329C104.198 145.291 104.266 145.253 104.335 145.215C104.431 145.163 104.526 145.11 104.619 145.058C104.688 145.018 104.754 144.978 104.821 144.939C104.909 144.886 104.997 144.834 105.082 144.781C105.147 144.741 105.21 144.7 105.274 144.66C105.356 144.607 105.437 144.553 105.516 144.5C105.547 144.479 105.58 144.459 105.61 144.438V164.883H105.61ZM105.61 140.117C105.61 141.224 103.171 143.657 94.0304 145.753C85.9522 147.605 75.1901 148.625 63.7269 148.625C52.2636 148.625 41.5015 147.605 33.4233 145.753C24.2825 143.657 21.8435 141.224 21.8435 140.117V119.673C21.8736 119.693 21.9066 119.714 21.9371 119.734C22.0163 119.788 22.0974 119.841 22.1798 119.894C22.2431 119.935 22.3065 119.975 22.3717 120.016C22.4568 120.068 22.5443 120.121 22.6326 120.173C22.6995 120.213 22.7659 120.252 22.8347 120.292C22.9272 120.344 23.0227 120.397 23.1183 120.449C23.1877 120.487 23.2559 120.525 23.3269 120.563C23.4298 120.618 23.5365 120.671 23.6431 120.725C23.7117 120.76 23.7784 120.795 23.8483 120.83C23.9786 120.894 24.1135 120.957 24.249 121.02C24.299 121.044 24.3469 121.068 24.3977 121.091C24.5843 121.177 24.776 121.261 24.9721 121.346C25.0369 121.373 25.1053 121.401 25.1712 121.428C25.3065 121.485 25.4418 121.542 25.5814 121.598C25.6661 121.632 25.754 121.665 25.8402 121.699C25.9658 121.748 26.0914 121.797 26.2206 121.846C26.3148 121.881 26.4118 121.916 26.5078 121.952C26.634 121.998 26.7604 122.044 26.8898 122.09C26.9904 122.125 27.0932 122.161 27.1957 122.196C27.3259 122.241 27.4568 122.285 27.59 122.329C27.6953 122.364 27.8022 122.399 27.9094 122.434C28.0452 122.478 28.1824 122.521 28.3213 122.565C28.4302 122.599 28.5399 122.633 28.6507 122.667C28.7936 122.71 28.9383 122.753 29.0842 122.796C29.1956 122.829 29.307 122.862 29.4201 122.894C29.5721 122.938 29.7266 122.981 29.882 123.024C29.994 123.055 30.1054 123.087 30.219 123.118C30.3835 123.162 30.5513 123.206 30.7194 123.25C30.8283 123.279 30.9359 123.308 31.0464 123.336C31.2358 123.384 31.4296 123.432 31.6236 123.48C31.7169 123.503 31.808 123.527 31.9021 123.549C32.1928 123.62 32.4875 123.69 32.7878 123.758C41.0683 125.657 52.056 126.703 63.7269 126.703C75.3977 126.703 86.3856 125.657 94.6659 123.758C94.9662 123.69 95.2609 123.62 95.5516 123.549C95.6459 123.527 95.7372 123.503 95.8304 123.48C96.0243 123.433 96.2177 123.385 96.4069 123.336C96.5176 123.308 96.6256 123.279 96.7347 123.25C96.9024 123.206 97.07 123.162 97.2343 123.118C97.348 123.087 97.4594 123.056 97.5713 123.025C97.7265 122.981 97.8813 122.938 98.0332 122.895C98.1465 122.862 98.2579 122.829 98.3691 122.796C98.515 122.753 98.6599 122.71 98.8026 122.667C98.9134 122.633 99.0231 122.599 99.1322 122.565C99.2709 122.522 99.4081 122.478 99.5437 122.434C99.6511 122.399 99.7582 122.364 99.8637 122.329C99.9967 122.285 100.127 122.241 100.257 122.196C100.36 122.161 100.463 122.126 100.564 122.09C100.693 122.044 100.819 121.998 100.945 121.952C101.042 121.917 101.139 121.882 101.233 121.846C101.362 121.798 101.487 121.748 101.613 121.699C101.699 121.666 101.787 121.632 101.872 121.598C102.011 121.542 102.146 121.486 102.281 121.429C102.347 121.401 102.416 121.374 102.481 121.346C102.678 121.262 102.869 121.177 103.056 121.091C103.107 121.068 103.154 121.044 103.205 121.021C103.34 120.957 103.475 120.894 103.605 120.83C103.675 120.795 103.742 120.76 103.81 120.725C103.917 120.671 104.024 120.618 104.127 120.563C104.198 120.525 104.266 120.487 104.335 120.449C104.431 120.397 104.526 120.345 104.619 120.292C104.688 120.252 104.754 120.213 104.821 120.173C104.909 120.121 104.997 120.068 105.082 120.016C105.147 119.975 105.21 119.935 105.274 119.894C105.356 119.841 105.437 119.788 105.516 119.734C105.547 119.714 105.58 119.693 105.61 119.673V140.117H105.61Z" fill="black"/>
<path d="M86.109 131.378C83.9481 133.539 83.9481 137.055 86.109 139.216C87.1894 140.296 88.6088 140.837 90.0282 140.837C91.4476 140.837 92.8667 140.297 93.9474 139.216C96.1083 137.055 96.1083 133.539 93.9474 131.378C91.7861 129.217 88.27 129.217 86.109 131.378ZM91.9365 137.206C91.4269 137.715 90.749 137.996 90.0282 137.996C89.3073 137.996 88.6294 137.715 88.1198 137.206C87.61 136.696 87.3292 136.018 87.3292 135.297C87.3292 134.576 87.61 133.898 88.1198 133.389C88.6294 132.879 89.3073 132.598 90.0282 132.598C90.749 132.598 91.4269 132.879 91.9365 133.389C92.4464 133.898 92.7271 134.576 92.7271 135.297C92.7271 136.018 92.4464 136.696 91.9365 137.206Z" fill="black"/>
<path d="M86.109 155.818C83.9481 157.979 83.9481 161.495 86.109 163.656C87.1894 164.736 88.6088 165.277 90.0282 165.277C91.4476 165.277 92.8667 164.736 93.9474 163.656C96.1083 161.495 96.1083 157.979 93.9474 155.818C91.7861 153.657 88.27 153.657 86.109 155.818ZM91.9365 161.645C91.4269 162.155 90.749 162.436 90.0282 162.436C89.3073 162.436 88.6294 162.155 88.1198 161.645C87.61 161.136 87.3292 160.458 87.3292 159.737C87.3292 159.016 87.61 158.338 88.1198 157.829C88.6294 157.319 89.3073 157.038 90.0282 157.038C90.749 157.038 91.4269 157.319 91.9365 157.829C92.4464 158.338 92.7271 159.016 92.7271 159.737C92.7271 160.458 92.4464 161.136 91.9365 161.645Z" fill="black"/>
<path d="M59.1513 96.1734C58.1898 95.175 56.946 94.4376 55.523 94.0966L50.3801 92.8642L50.378 92.8676L50.3801 92.8642V89.7246H44.0999V92.8744L38.9704 94.0997C35.6163 94.901 33.25 97.8989 33.25 101.347V109.75H44.6202L59.1513 96.1734Z" fill="#9DC6FB"/>
<path d="M50.515 89.7246V92.949L47.2557 100.756L44 92.9601V89.7246H50.515Z" fill="#FFB487"/>
<path d="M54.2427 78.9076V83.2563C54.2427 87.1223 51.1086 90.2563 47.2424 90.2563C43.3763 90.2563 40.2422 87.1223 40.2422 83.2563V78.9076H54.2427Z" fill="#FFCDAC"/>
<path d="M54.2427 80.2833V78.5981C54.2427 74.7321 51.1086 71.5981 47.2424 71.5981C43.3763 71.5981 40.2422 74.7321 40.2422 78.5981V80.2833H45.0676C48.0893 80.2833 51.0544 79.4629 53.6464 77.9098" fill="#878791"/>
<path d="M68.8516 96.1734C69.8131 95.175 71.0568 94.4376 72.4798 94.0966L77.6227 92.8642L77.6248 92.8676L77.6227 92.8642V89.7246H83.9029V92.8744L89.0324 94.0997C92.3866 94.901 94.7528 97.8989 94.7528 101.347V109.75H83.3826L68.8516 96.1734Z" fill="#C3E29E"/>
<path d="M59.6161 96.0504L52.4528 97.7669C47.7843 98.8857 44.4922 103.06 44.4922 107.86V114.75H83.4759V107.866C83.4759 103.063 80.1802 98.8873 75.5082 97.7712L68.3636 96.0644L59.6161 96.0504Z" fill="#FF826E"/>
<path d="M83.9994 89.7246V92.9601L80.7436 100.756L77.4844 92.949V89.7246H83.9994Z" fill="#FFB487"/>
<path d="M64.0029 106.092L68.6667 95.5037C68.3206 94.9225 68.1233 94.246 68.1233 93.5297V92.512H59.8776V93.5298C59.8776 94.2448 59.6811 94.9203 59.3359 95.501L64.0029 106.092Z" fill="#FFB487"/>
<path d="M73.75 75.9406V82.6679C73.75 88.0527 69.3848 92.4181 64 92.4181C58.6153 92.4181 54.25 88.0528 54.25 82.6679V75.9406H73.75Z" fill="#FFCDAC"/>
<path d="M64.0001 66.4296C58.6153 66.4296 54.25 70.7948 54.25 76.1796V78.5267H59.0171C62.186 78.5267 65.1924 77.1236 67.2276 74.6947L73.75 78.5267V76.1796C73.7502 70.7948 69.385 66.4296 64.0001 66.4296Z" fill="#F5B955"/>
<path d="M73.7578 78.9076V83.2563C73.7578 87.1223 76.8919 90.2563 80.7581 90.2563C84.6242 90.2563 87.7583 87.1223 87.7583 83.2563V78.9076H73.7578Z" fill="#FFCDAC"/>
<path d="M73.7578 80.2833V78.5981C73.7578 74.7321 76.8919 71.5981 80.7581 71.5981C84.6242 71.5981 87.7583 74.7321 87.7583 78.5981V80.2833H82.9329C79.9112 80.2833 76.9461 79.4629 74.3541 77.9098" fill="#878791"/>
<path d="M63.9688 113.5C63.6399 113.5 63.3174 113.634 63.085 113.866C62.8525 114.099 62.7188 114.421 62.7188 114.75C62.7188 115.079 62.8524 115.401 63.085 115.634C63.3174 115.866 63.6399 116 63.9688 116C64.2975 116 64.62 115.866 64.8524 115.634C65.0849 115.401 65.2187 115.079 65.2187 114.75C65.2187 114.421 65.085 114.099 64.8524 113.866C64.62 113.634 64.2975 113.5 63.9688 113.5Z" fill="black"/>
<path d="M89.32 92.8838L85.1502 91.8877V90.2337C87.4647 88.7708 89.0062 86.1909 89.0062 83.2564V78.5981C89.0062 74.0489 85.3053 70.3481 80.756 70.3481C78.302 70.3481 76.0961 71.4263 74.5835 73.1324C73.2588 68.5446 69.0216 65.1796 64.013 65.1796H64.0129C58.9961 65.1796 54.7533 68.5552 53.4359 73.1543C51.9229 71.4356 49.7089 70.3481 47.2444 70.3481C42.6951 70.3481 38.9941 74.0491 38.9941 78.5981V83.2564C38.9941 86.1911 40.5356 88.7709 42.8501 90.2337V91.8877L38.6804 92.8838C34.747 93.8233 32 97.3037 32 101.347V109.75C32 110.44 32.5598 111 33.25 111H43.2454V114.75C43.2454 115.44 43.8051 116 44.4954 116H58.2084C58.8986 116 59.4584 115.44 59.4584 114.75C59.4584 114.06 58.8986 113.5 58.2084 113.5H52.628V107.998C52.628 107.308 52.0683 106.748 51.378 106.748C50.6877 106.748 50.128 107.308 50.128 107.998V113.5H45.7452V107.86C45.7452 103.621 48.6245 99.9703 52.7471 98.9824L58.895 97.5092L62.8507 106.509C63.0502 106.963 63.4991 107.256 63.9949 107.256H63.995C64.4907 107.256 64.9398 106.963 65.1393 106.509L69.091 97.5224L75.221 98.9868C79.3474 99.9724 82.2291 103.624 82.2291 107.866V109.261C82.1653 109.411 82.1297 109.576 82.1297 109.75C82.1297 109.923 82.1653 110.089 82.2291 110.239V113.5H77.872V107.998C77.872 107.308 77.3123 106.748 76.622 106.748C75.9318 106.748 75.372 107.308 75.372 107.998V113.5H69.2501C68.5599 113.5 68.0001 114.06 68.0001 114.75C68.0001 115.44 68.5599 116 69.2501 116H83.4791C84.1694 116 84.7291 115.44 84.7291 114.75V111H94.75C95.4403 111 96 110.44 96 109.75V101.347C96 97.3037 93.253 93.8233 89.32 92.8838ZM82.653 92.9418L80.7445 97.5117L78.8618 93.0019C78.8668 92.9566 78.8704 92.9109 78.8704 92.8652C78.8704 92.8536 78.8703 92.8418 78.8699 92.8302V91.2864C79.4761 91.4288 80.1069 91.5064 80.7559 91.5064C81.4077 91.5064 82.0415 91.4281 82.6501 91.2844V92.8742C82.6501 92.8969 82.6517 92.9193 82.653 92.9418ZM58.3691 93.9459C57.5844 93.4592 56.7234 93.0988 55.8144 92.8811L51.6301 91.8784V90.2391C52.6707 89.5832 53.5546 88.7017 54.2135 87.6632C55.1559 89.5043 56.6023 91.0461 58.3691 92.1066V93.9459ZM55.5125 82.6681V79.7768H59.0298C62.2203 79.7768 65.2441 78.5158 67.4781 76.2842L72.5057 79.2378V82.9614C72.3503 87.5128 68.6016 91.1682 64.0129 91.1682C59.3256 91.1681 55.5125 87.3549 55.5125 82.6681ZM69.6167 92.1301C71.3945 91.0732 72.851 89.5303 73.8006 87.6852C74.4581 88.7141 75.3368 89.5877 76.3699 90.2391V91.8784L72.1856 92.8811C71.2711 93.1002 70.4053 93.4638 69.6166 93.9551V92.1301H69.6167ZM80.7559 89.0064C77.5853 89.0064 75.0056 86.4269 75.0056 83.2564V83.0524C75.01 82.9248 75.0131 79.6914 75.0131 79.6914C77.4705 80.8999 80.1796 81.5333 82.9309 81.5333H86.5062V83.2566C86.5061 86.4271 83.9265 89.0064 80.7559 89.0064ZM80.7559 72.8481C83.9265 72.8481 86.5061 75.4276 86.5061 78.5981V78.9076V79.0332H82.9308C80.23 79.0332 77.5761 78.3241 75.2373 76.9799C75.938 74.5947 78.1468 72.8481 80.7559 72.8481ZM55.5125 76.1797C55.5125 71.4927 59.3257 67.6797 64.0129 67.6797C68.6999 67.6797 72.5131 71.4928 72.5131 76.1797V76.3427L67.8737 73.6171C67.3474 73.3077 66.6746 73.4241 66.2825 73.8919C64.48 76.0429 61.8365 77.2767 59.0299 77.2767H55.5125V76.1797ZM41.4939 78.5981C41.4939 75.4274 44.0735 72.8481 47.2441 72.8481C49.8533 72.8481 52.062 74.5947 52.7626 76.9801C50.4237 78.3241 47.77 79.0333 45.0691 79.0333H41.4939V78.9077V78.5981ZM41.4939 81.5332H45.0693C47.8232 81.5332 50.5351 80.8987 52.9944 79.6878V83.2564C52.9944 86.4271 50.4148 89.0064 47.2441 89.0064C44.0735 89.0064 41.4939 86.4269 41.4939 83.2564V81.5332ZM47.2441 91.5064C47.8931 91.5064 48.5239 91.4287 49.1301 91.2864V92.7952C49.1287 92.8187 49.1281 92.8422 49.1281 92.8657C49.1281 92.9051 49.1319 92.9442 49.1356 92.9833L47.2444 97.5117L45.346 92.9643C45.3481 92.9344 45.3499 92.9046 45.3499 92.8743V91.2846C45.9585 91.4281 46.5923 91.5064 47.2441 91.5064ZM43.2454 107.86V108.5H39.5V102.946C39.5 102.256 38.9402 101.696 38.25 101.696C37.5598 101.696 37 102.256 37 102.946V108.5H34.5V101.347C34.5 98.4654 36.4578 95.9851 39.2609 95.3154L43.2231 94.3688L45.8091 100.563C44.1917 102.572 43.2454 105.119 43.2454 107.86ZM52.1646 96.5513C51.4265 96.7282 50.7211 96.9743 50.0514 97.2778L51.2689 94.3626L55.2318 95.3122C55.5391 95.3858 55.8386 95.4832 56.1285 95.6014L52.1646 96.5513ZM63.9953 102.9L60.8691 95.7877V93.2097C61.8656 93.5074 62.9207 93.6681 64.0127 93.6681C65.0902 93.6681 66.1319 93.5116 67.1166 93.2214V95.8016L63.9953 102.9ZM71.8486 95.6109C72.1456 95.4884 72.4528 95.3878 72.7682 95.3122L76.7215 94.3649L77.944 97.2932C77.2656 96.9842 76.5505 96.7343 75.8018 96.5554L71.8486 95.6109ZM93.5 108.5H91V102.946C91 102.256 90.4403 101.696 89.75 101.696C89.0597 101.696 88.5 102.256 88.5 102.946V108.5H84.7291V107.866C84.7291 105.129 83.7859 102.586 82.1731 100.578L84.7673 94.3666L88.7391 95.3154C91.5422 95.9851 93.5 98.4654 93.5 101.347V108.5Z" fill="black"/>
<path d="M59.8047 80.9062C59.4759 80.9062 59.1534 81.04 58.9209 81.2725C58.6884 81.505 58.5547 81.8275 58.5547 82.1562C58.5547 82.485 58.6883 82.8075 58.9209 83.04C59.1536 83.2725 59.4759 83.4062 59.8047 83.4062C60.1347 83.4062 60.4559 83.2725 60.6883 83.04C60.9221 82.8075 61.0547 82.485 61.0547 82.1562C61.0547 81.8275 60.9221 81.505 60.6883 81.2725C60.4559 81.04 60.1334 80.9062 59.8047 80.9062Z" fill="black"/>
<path d="M68.1641 83.4062C68.4928 83.4062 68.8153 83.2725 69.0477 83.04C69.2814 82.8075 69.4141 82.485 69.4141 82.1562C69.4141 81.8275 69.2814 81.505 69.0477 81.2725C68.8153 81.04 68.4928 80.9062 68.1641 80.9062C67.8353 80.9062 67.5128 81.04 67.2803 81.2725C67.0478 81.505 66.9141 81.8275 66.9141 82.1562C66.9141 82.485 67.0477 82.8075 67.2803 83.04C67.5129 83.2725 67.8353 83.4062 68.1641 83.4062Z" fill="black"/>
<path d="M66.4065 85.4802C65.9183 84.9921 65.127 84.9921 64.6387 85.4802C64.269 85.8499 63.6677 85.8499 63.298 85.4802C62.8098 84.9921 62.0185 84.9921 61.5302 85.4802C61.042 85.9684 61.042 86.7599 61.5302 87.2481C62.2024 87.9202 63.0853 88.2564 63.9683 88.2564C64.8513 88.2564 65.7342 87.9204 66.4064 87.2481C66.8947 86.7599 66.8947 85.9684 66.4065 85.4802Z" fill="black"/>
<path d="M82.8281 61.25H83.6855C84.3758 61.25 84.9355 60.6904 84.9355 60C84.9355 59.3096 84.3758 58.75 83.6855 58.75H82.8281C82.1379 58.75 81.5781 59.3096 81.5781 60C81.5781 60.6904 82.1379 61.25 82.8281 61.25Z" fill="black"/>
<path d="M88.8906 61.25H89.748C90.4383 61.25 90.998 60.6904 90.998 60C90.998 59.3096 90.4383 58.75 89.748 58.75H88.8906C88.2004 58.75 87.6406 59.3096 87.6406 60C87.6406 60.6904 88.2003 61.25 88.8906 61.25Z" fill="black"/>
<path d="M86.2891 64.7113C86.9793 64.7113 87.5391 64.1516 87.5391 63.4613V62.6039C87.5391 61.9135 86.9793 61.3539 86.2891 61.3539C85.5988 61.3539 85.0391 61.9135 85.0391 62.6039V63.4613C85.0391 64.1516 85.5987 64.7113 86.2891 64.7113Z" fill="black"/>
<path d="M86.2891 58.6461C86.9793 58.6461 87.5391 58.0864 87.5391 57.3961V56.5387C87.5391 55.8483 86.9793 55.2887 86.2891 55.2887C85.5988 55.2887 85.0391 55.8483 85.0391 56.5387V57.3961C85.0391 58.0864 85.5987 58.6461 86.2891 58.6461Z" fill="black"/>
<path d="M38.1797 61.25H39.0369C39.7272 61.25 40.2869 60.6904 40.2869 60C40.2869 59.3096 39.7272 58.75 39.0369 58.75H38.1797C37.4894 58.75 36.9297 59.3096 36.9297 60C36.9297 60.6904 37.4894 61.25 38.1797 61.25Z" fill="black"/>
<path d="M44.2461 61.25H45.1033C45.7936 61.25 46.3533 60.6904 46.3533 60C46.3533 59.3096 45.7936 58.75 45.1033 58.75H44.2461C43.5558 58.75 42.9961 59.3096 42.9961 60C42.9961 60.6904 43.5557 61.25 44.2461 61.25Z" fill="black"/>
<path d="M41.6406 64.7113C42.3309 64.7113 42.8906 64.1516 42.8906 63.4613V62.6039C42.8906 61.9135 42.3309 61.3539 41.6406 61.3539C40.9504 61.3539 40.3906 61.9135 40.3906 62.6039V63.4613C40.3906 64.1516 40.9503 64.7113 41.6406 64.7113Z" fill="black"/>
<path d="M41.6406 58.6461C42.3309 58.6461 42.8906 58.0864 42.8906 57.3961V56.5387C42.8906 55.8483 42.3309 55.2887 41.6406 55.2887C40.9504 55.2887 40.3906 55.8483 40.3906 56.5387V57.3961C40.3906 58.0864 40.9503 58.6461 41.6406 58.6461Z" fill="black"/>
<path d="M64 62.5496C64.6902 62.5496 65.25 61.99 65.25 61.2996V58.0109C65.25 57.3205 64.6902 56.7609 64 56.7609C63.3098 56.7609 62.75 57.3205 62.75 58.0109V61.2996C62.75 61.99 63.3098 62.5496 64 62.5496Z" fill="black"/>
<path d="M64 54.5C64.3288 54.5 64.6513 54.3663 64.8836 54.1337C65.1163 53.9013 65.25 53.5788 65.25 53.25C65.25 52.9212 65.1163 52.5987 64.8836 52.3663C64.6513 52.1338 64.3288 52 64 52C63.6712 52 63.3487 52.1338 63.1162 52.3663C62.8836 52.5987 62.75 52.9212 62.75 53.25C62.75 53.5788 62.8836 53.9013 63.1162 54.1337C63.3489 54.3663 63.6712 54.5 64 54.5Z" fill="black"/>
<path d="M57.8517 58.7827C58.0958 59.0268 58.4157 59.1488 58.7356 59.1488C59.0555 59.1488 59.3753 59.0268 59.6195 58.7827C60.1076 58.2946 60.1076 57.5031 59.6195 57.0148L57.7902 55.1856C57.302 54.6974 56.5107 54.6974 56.0223 55.1856C55.5342 55.6737 55.5342 56.4652 56.0223 56.9534L57.8517 58.7827Z" fill="black"/>
<path d="M69.2032 59.1413C69.5232 59.1413 69.843 59.0193 70.0871 58.7752L71.9775 56.8848C72.4656 56.3967 72.4656 55.6052 71.9775 55.1169C71.4892 54.6288 70.698 54.6288 70.2096 55.1169L68.3192 57.0073C67.8311 57.4954 67.8311 58.2869 68.3192 58.7752C68.5635 59.0193 68.8832 59.1413 69.2032 59.1413Z" fill="black"/>
</g>
<path d="M174.238 14.2058H81.3984V4.90308C81.3984 2.92704 83.088 1.3252 85.1723 1.3252H170.464C172.548 1.3252 174.238 2.92704 174.238 4.90308V14.2058Z" fill="#9DC6FB"/>
<path d="M170.466 1.32495H164.805C166.889 1.32495 168.579 2.92679 168.579 4.90284V14.2054H174.24V4.90284C174.24 2.92679 172.55 1.32495 170.466 1.32495Z" fill="#80B4FB"/>
<path d="M170.464 77.9713H85.1723C83.088 77.9713 81.3984 76.3694 81.3984 74.3934V14.1689H174.238V74.3934C174.238 76.3694 172.548 77.9713 170.464 77.9713Z" fill="#F4FBFF"/>
<path d="M168.579 14.2092V74.4337C168.579 76.4097 166.889 78.0116 164.805 78.0116H170.466C172.55 78.0116 174.24 76.4097 174.24 74.4337V14.2092H168.579Z" fill="#E4F6FF"/>
<path d="M162.534 5.61963C161.283 5.61963 160.27 6.58073 160.27 7.76639C160.27 8.95206 161.283 9.91316 162.534 9.91316C163.785 9.91316 164.798 8.95206 164.798 7.76639C164.798 6.58073 163.785 5.61963 162.534 5.61963Z" fill="black"/>
<path d="M154.999 5.61963C153.748 5.61963 152.734 6.58073 152.734 7.76639C152.734 8.95206 153.748 9.91316 154.999 9.91316C156.249 9.91316 157.263 8.95206 157.263 7.76639C157.263 6.58073 156.249 5.61963 154.999 5.61963Z" fill="black"/>
<path d="M147.444 9.91316C148.695 9.91316 149.708 8.95202 149.708 7.76639C149.708 6.58077 148.695 5.61963 147.444 5.61963C146.193 5.61963 145.18 6.58077 145.18 7.76639C145.18 8.95202 146.193 9.91316 147.444 9.91316Z" fill="black"/>
<path d="M170.466 0H85.1749C82.3215 0 80 2.20096 80 4.90611V53.9897C80 54.7233 80.6271 55.318 81.401 55.318C82.1749 55.318 82.802 54.7233 82.802 53.9897V15.5371H172.839V26.7257C172.839 27.4592 173.466 28.0539 174.24 28.0539C175.014 28.0539 175.641 27.4592 175.641 26.7257V4.90611C175.641 2.20096 173.32 0 170.466 0ZM82.802 4.90611C82.802 3.66573 83.8664 2.65645 85.1749 2.65645H170.466C171.775 2.65645 172.839 3.66573 172.839 4.90611V12.8806H82.802V4.90611Z" fill="black"/>
<path d="M174.24 31.5942C173.466 31.5942 172.839 32.1889 172.839 32.9225V74.4322C172.839 75.6724 171.775 76.6813 170.467 76.6813H85.1743C83.8662 76.6813 82.802 75.6724 82.802 74.4322V60.0094C82.802 59.2759 82.1749 58.6812 81.401 58.6812C80.6271 58.6812 80 59.2759 80 60.0094V74.4322C80 77.1372 82.3212 79.3378 85.1743 79.3378H170.467C173.32 79.3378 175.641 77.1372 175.641 74.4322V32.9225C175.641 32.1889 175.014 31.5942 174.24 31.5942Z" fill="black"/>
<path d="M129.064 28.8647H122.467C120.133 28.8647 118.241 30.6584 118.241 32.8714V39.0021H113.359C111.025 39.0021 109.133 40.7958 109.133 43.0088V49.6382C109.133 51.8509 111.025 53.6448 113.359 53.6448H117.914C118.532 53.6448 119.033 53.1699 119.033 52.584V49.2348C119.033 46.6938 121.206 44.6342 123.886 44.6342H131.508C132.492 44.6342 133.29 43.878 133.29 42.945V32.8717C133.29 30.6584 131.398 28.8647 129.064 28.8647Z" fill="#5290DB"/>
<path d="M142.142 38.6257H137.587C136.969 38.6257 136.468 39.1007 136.468 39.6865V43.0358C136.468 45.5768 134.295 47.6364 131.615 47.6364H123.993C123.009 47.6364 122.211 48.3926 122.211 49.3256V59.3988C122.211 61.6115 124.103 63.4055 126.437 63.4055H133.034C135.368 63.4055 137.26 61.6118 137.26 59.3988V53.2681H142.142C144.476 53.2681 146.368 51.4745 146.368 49.2615V42.632C146.368 40.4197 144.476 38.6257 142.142 38.6257Z" fill="#FC8C48"/>
<path d="M123.782 35.619C124.766 35.619 125.564 34.8626 125.564 33.9295C125.564 32.9964 124.766 32.24 123.782 32.24C122.798 32.24 122 32.9964 122 33.9295C122 34.8626 122.798 35.619 123.782 35.619Z" fill="#EDF4FC"/>
<path d="M131.72 60.0224C132.704 60.0224 133.502 59.266 133.502 58.3329C133.502 57.3999 132.704 56.6434 131.72 56.6434C130.735 56.6434 129.938 57.3999 129.938 58.3329C129.938 59.266 130.735 60.0224 131.72 60.0224Z" fill="#EDF4FC"/>
<path d="M117.919 54.5297H113.363C110.518 54.5297 108.203 52.3351 108.203 49.6376V43.0082C108.203 40.3106 110.518 38.116 113.363 38.116H117.312V32.8711C117.312 30.1736 119.627 27.979 122.472 27.979H129.069C131.914 27.979 134.229 30.1736 134.229 32.8711V42.9444C134.229 44.364 133.01 45.519 131.513 45.519H123.891C121.73 45.519 119.972 47.1859 119.972 49.2342V52.5834C119.972 53.6563 119.051 54.5297 117.919 54.5297ZM113.363 39.887C111.548 39.887 110.071 41.2871 110.071 43.0082V49.6376C110.071 51.3586 111.548 52.7588 113.363 52.7588H117.919C118.021 52.7588 118.103 52.6801 118.103 52.5834V49.2342C118.103 46.209 120.699 43.7481 123.89 43.7481H131.513C131.98 43.7481 132.36 43.3875 132.36 42.9444V32.8711C132.36 31.1501 130.883 29.75 129.068 29.75H122.471C120.656 29.75 119.179 31.1501 119.179 32.8711V39.0019C119.179 39.491 118.761 39.8874 118.245 39.8874H113.363V39.887Z" fill="black"/>
<path d="M125.574 39.8908H118.446C117.93 39.8908 117.512 39.4945 117.512 39.0054C117.512 38.5162 117.93 38.1199 118.446 38.1199H125.574C126.09 38.1199 126.508 38.5162 126.508 39.0054C126.508 39.4945 126.09 39.8908 125.574 39.8908Z" fill="black"/>
<path d="M133.038 64.2907H126.441C123.596 64.2907 121.281 62.0961 121.281 59.3986V49.3253C121.281 47.9057 122.5 46.7507 123.997 46.7507H131.619C133.78 46.7507 135.538 45.0838 135.538 43.0355V39.6863C135.538 38.6131 136.459 37.74 137.591 37.74H142.146C144.991 37.74 147.306 39.9346 147.306 42.6321V49.2616C147.306 51.9591 144.991 54.1537 142.146 54.1537H138.198V59.3989C138.198 62.0961 135.883 64.2907 133.038 64.2907ZM123.997 48.522C123.53 48.522 123.149 48.8826 123.149 49.3257V59.3989C123.149 61.12 124.626 62.5201 126.441 62.5201H133.038C134.853 62.5201 136.33 61.12 136.33 59.3989V53.2682C136.33 52.7791 136.748 52.3827 137.264 52.3827H142.146C143.961 52.3827 145.439 50.9826 145.439 49.2616V42.6321C145.439 40.9111 143.962 39.511 142.146 39.511H137.591C137.489 39.511 137.406 39.5896 137.406 39.6863V43.0355C137.406 46.0607 134.81 48.5216 131.619 48.5216H123.997V48.522Z" fill="black"/>
<path d="M137.054 54.1528H129.926C129.41 54.1528 128.992 53.7565 128.992 53.2673C128.992 52.7782 129.41 52.3818 129.926 52.3818H137.054C137.57 52.3818 137.988 52.7782 137.988 53.2673C137.988 53.7565 137.57 54.1528 137.054 54.1528Z" fill="black"/>
<path d="M123.786 36.5053C122.289 36.5053 121.07 35.3503 121.07 33.9303C121.07 32.5104 122.289 31.355 123.786 31.355C125.284 31.355 126.502 32.5104 126.502 33.9303C126.502 35.3503 125.284 36.5053 123.786 36.5053ZM123.786 33.1263C123.319 33.1263 122.938 33.4872 122.938 33.9307C122.938 34.3738 123.319 34.7347 123.786 34.7347C124.254 34.7347 124.634 34.3738 124.634 33.9307C124.634 33.4869 124.254 33.1263 123.786 33.1263Z" fill="black"/>
<path d="M131.708 60.9075C130.21 60.9075 128.992 59.7525 128.992 58.3326C128.992 56.9126 130.21 55.7576 131.708 55.7576C133.206 55.7576 134.424 56.9126 134.424 58.3326C134.424 59.7525 133.206 60.9075 131.708 60.9075ZM131.708 57.5285C131.241 57.5285 130.86 57.8895 130.86 58.3326C130.86 58.7756 131.241 59.1366 131.708 59.1366C132.176 59.1366 132.556 58.7756 132.556 58.3326C132.556 57.8895 132.176 57.5285 131.708 57.5285Z" fill="black"/>
</svg>
