<svg width="60" height="60" viewBox="0 0 60 60" fill="none" xmlns="http://www.w3.org/2000/svg">
<path d="M1 25H59V59H7C5.4087 59 3.88258 58.3679 2.75736 57.2426C1.63214 56.1174 1 54.5913 1 53V25Z" fill="#57B7EB"/>
<path d="M21 25H1V53C1 54.5913 1.63214 56.1174 2.75736 57.2426C3.88258 58.3679 5.4087 59 7 59H59V51H47C40.1044 51 33.4912 48.2607 28.6152 43.3848C23.7393 38.5088 21 31.8956 21 25Z" fill="#4891D3"/>
<path d="M7 15C5.4087 15 3.88258 15.6321 2.75736 16.7574C1.63214 17.8826 1 19.4087 1 21V53C1 51.4087 1.63214 49.8826 2.75736 48.7574C3.88258 47.6321 5.4087 47 7 47C8.5913 47 10.1174 47.6321 11.2426 48.7574C12.3679 49.8826 13 51.4087 13 53V21C13 19.4087 12.3679 17.8826 11.2426 16.7574C10.1174 15.6321 8.5913 15 7 15Z" fill="#AAE1F9"/>
<path d="M36 13.0011C36.0008 11.6479 35.6584 10.3167 35.0048 9.13186C34.3512 7.94704 33.4078 6.94737 32.2627 6.22636C31.1176 5.50535 29.8084 5.08656 28.4575 5.00919C27.1065 4.93181 25.758 5.19836 24.5382 5.78391C23.3183 6.36946 22.2668 7.25487 21.4822 8.35732C20.6976 9.45976 20.2054 10.7432 20.0518 12.0876C19.8981 13.432 20.0879 14.7934 20.6036 16.0445C21.1192 17.2955 21.9437 18.3954 23 19.2411V21.0011H33V19.2411C33.9364 18.4929 34.6923 17.5434 35.2116 16.4632C35.7309 15.383 36.0004 14.1997 36 13.0011Z" fill="#F9E109"/>
<path d="M33 21H23C21.8954 21 21 21.8954 21 23C21 24.1046 21.8954 25 23 25H33C34.1046 25 35 24.1046 35 23C35 21.8954 34.1046 21 33 21Z" fill="#D0D8DA"/>
<path d="M23 25H33V26C33 27.3261 32.4732 28.5978 31.5355 29.5355C30.5979 30.4732 29.3261 31 28 31C26.6739 31 25.4021 30.4732 24.4645 29.5355C23.5268 28.5978 23 27.3261 23 26V25Z" fill="#93999A"/>
<path d="M25.003 9.99925C25.0024 8.28191 25.4961 6.60068 26.425 5.15625C24.9339 5.45722 23.5595 6.1771 22.4629 7.23146C21.3664 8.28583 20.5932 9.63097 20.234 11.1092C19.8748 12.5874 19.9445 14.1373 20.435 15.5773C20.9254 17.0173 21.8162 18.2876 23.003 19.2393V20.9993H33.003V19.2393C33.11 19.1532 33.203 19.0553 33.309 18.9643C31.0499 18.7907 28.9396 17.771 27.3997 16.109C25.8598 14.4469 25.0039 12.265 25.003 9.99925Z" fill="#FCBC04"/>
<path d="M23 21C22.4696 21 21.9609 21.2107 21.5858 21.5858C21.2107 21.9609 21 22.4696 21 23C21 23.5304 21.2107 24.0391 21.5858 24.4142C21.9609 24.7893 22.4696 25 23 25H33C33.5304 25 34.0391 24.7893 34.4142 24.4142C34.7893 24.0391 35 23.5304 35 23H25C24.4696 23 23.9609 22.7893 23.5858 22.4142C23.2107 22.0391 23 21.5304 23 21Z" fill="#93999A"/>
<path d="M31 27H32.9C32.9669 26.6709 33.0004 26.3358 33 26V25H23V26C23.0013 27.0089 23.3083 27.9937 23.8807 28.8246C24.453 29.6555 25.2638 30.2933 26.206 30.654C26.4968 29.6052 27.1227 28.6803 27.9883 28.0205C28.8539 27.3608 29.9116 27.0024 31 27Z" fill="#656B76"/>
<path d="M41.0033 43C41.0032 42.6331 40.9697 42.2669 40.9033 41.906L42.9353 40.732L40.9353 37.268L38.9033 38.442C38.3429 37.9634 37.6987 37.5928 37.0033 37.349V35H33.0033V37.349C32.3079 37.5928 31.6637 37.9634 31.1033 38.442L29.0703 37.268L27.0703 40.732L29.1033 41.906C28.9646 42.6287 28.9646 43.3713 29.1033 44.094L27.0713 45.268L29.0713 48.732L31.1033 47.558C31.6637 48.0366 32.3079 48.4072 33.0033 48.651V51H37.0033V48.651C37.6987 48.4072 38.3429 48.0366 38.9033 47.558L40.9363 48.732L42.9363 45.268L40.9033 44.094C40.9697 43.7331 41.0032 43.3669 41.0033 43ZM35.0033 45C34.6078 45 34.2211 44.8827 33.8922 44.6629C33.5633 44.4432 33.3069 44.1308 33.1556 43.7654C33.0042 43.3999 32.9646 42.9978 33.0417 42.6098C33.1189 42.2219 33.3094 41.8655 33.5891 41.5858C33.8688 41.3061 34.2252 41.1156 34.6131 41.0384C35.0011 40.9613 35.4032 41.0009 35.7687 41.1522C36.1341 41.3036 36.4465 41.56 36.6663 41.8889C36.886 42.2178 37.0033 42.6044 37.0033 43C37.0033 43.5304 36.7926 44.0391 36.4175 44.4142C36.0425 44.7893 35.5338 45 35.0033 45Z" fill="#F9E109"/>
<path d="M21 54C22.1046 54 23 53.1046 23 52C23 50.8954 22.1046 50 21 50C19.8954 50 19 50.8954 19 52C19 53.1046 19.8954 54 21 54Z" fill="#FCBC04"/>
<path d="M55 36H47V11H55V36Z" fill="#A1D51C"/>
<path d="M51 46L55 36H47L51 46Z" fill="#FCBC04"/>
<path d="M55 7H47V5C47 3.93913 47.4214 2.92172 48.1716 2.17157C48.9217 1.42143 49.9391 1 51 1C52.0609 1 53.0783 1.42143 53.8284 2.17157C54.5786 2.92172 55 3.93913 55 5V7Z" fill="#AAE1F9"/>
<path d="M55 11H47V7H55V11Z" fill="#D0D8DA"/>
<path d="M48.6016 40H53.4016L51.0016 46L48.6016 40Z" fill="#93999A"/>
<path d="M50.536 24.523C50.5403 28.38 50.9441 32.2262 51.741 36H47V11H50.536V24.523Z" fill="#7AB92D"/>
<path d="M52.726 40H48.6L51 46L47 36H51.741C52.023 37.344 52.346 38.679 52.726 40Z" fill="#E59730"/>
<path d="M51 1C51.3638 1.00518 51.7252 1.06036 52.074 1.164C51.5968 1.53449 51.2103 2.00881 50.9438 2.55098C50.6773 3.09314 50.5379 3.68889 50.536 4.293V7H47V5C47 3.93913 47.4214 2.92172 48.1716 2.17157C48.9217 1.42143 49.9391 1 51 1Z" fill="#57B7EB"/>
<path d="M47 7H50.535V11H47V7Z" fill="#93999A"/>
<path d="M52.7276 40C52.8196 40.32 52.9216 40.637 53.0196 40.956L51.0016 46L48.6016 40H52.7276Z" fill="#656B76"/>
<path d="M8.00009 31.1941V15.0901C7.13944 14.9388 6.25605 14.9784 5.41238 15.2061C4.5687 15.4337 3.78533 15.8439 3.11763 16.4077C2.44993 16.9714 1.91419 17.6749 1.54829 18.4685C1.18238 19.262 0.995243 20.1263 1.00009 21.0001V53.0001C1.00009 51.4088 1.63223 49.8827 2.75745 48.7575C3.88267 47.6323 5.40879 47.0001 7.00009 47.0001C8.59139 47.0001 10.1175 47.6323 11.2427 48.7575C12.368 49.8827 13.0001 51.4088 13.0001 53.0001V46.7241C9.75002 42.1979 8.0013 36.7663 8.00009 31.1941Z" fill="#57B7EB"/>
<path d="M42.0023 45.9976C40.038 45.9997 38.117 45.4203 36.4813 44.3326C36.3004 44.534 36.0803 44.6963 35.8346 44.8098C35.5888 44.9233 35.3225 44.9855 35.0519 44.9927C34.7813 44.9999 34.5121 44.9519 34.2606 44.8516C34.0092 44.7513 33.7808 44.6009 33.5895 44.4094C33.3981 44.218 33.2477 43.9896 33.1475 43.7381C33.0473 43.4866 32.9994 43.2174 33.0067 42.9468C33.014 42.6762 33.0763 42.4099 33.1899 42.1642C33.3035 41.9185 33.4659 41.6985 33.6673 41.5176C32.9095 40.3735 32.3971 39.0847 32.1623 37.7326C31.7865 37.9302 31.4329 38.1672 31.1073 38.4396L29.0743 37.2656L27.0743 40.7296L29.1023 41.9036C28.9636 42.6264 28.9636 43.3689 29.1023 44.0916L27.0703 45.2656L29.0703 48.7296L31.1023 47.5556C31.6627 48.0342 32.3069 48.4048 33.0023 48.6486V50.9976H37.0023V48.6486C37.6977 48.4048 38.3419 48.0342 38.9023 47.5556L40.9353 48.7296L42.5083 45.9976H42.0023Z" fill="#FCBC04"/>
<path d="M21.9997 52.9997C21.6654 53.0011 21.3361 52.9183 21.0421 52.7589C20.7482 52.5996 20.4991 52.3688 20.3178 52.0879C20.1365 51.807 20.0288 51.4849 20.0047 51.1514C19.9806 50.818 20.0407 50.4838 20.1797 50.1797C19.8831 50.3115 19.6231 50.5136 19.4221 50.7684C19.221 51.0232 19.085 51.3231 19.0258 51.6422C18.9665 51.9613 18.9859 52.2901 19.0821 52.6C19.1783 52.91 19.3485 53.1919 19.578 53.4214C19.8075 53.6509 20.0894 53.8211 20.3994 53.9174C20.7093 54.0136 21.0381 54.0329 21.3572 53.9736C21.6763 53.9144 21.9762 53.7784 22.231 53.5773C22.4858 53.3763 22.6879 53.1163 22.8197 52.8197C22.5623 52.9373 22.2827 52.9987 21.9997 52.9997Z" fill="#E59730"/>
<path d="M31.0983 47.5576C31.6587 48.0362 32.3029 48.4068 32.9983 48.6506V50.9996H36.9983V48.9996C34.0573 47.7701 31.3673 46.0105 29.0623 43.8086C29.0763 43.9026 29.0853 43.9976 29.1023 44.0896L27.0703 45.2636L29.0703 48.7276L31.0983 47.5576Z" fill="#E59730"/>
<path d="M38 26H43C43.2652 26 43.5196 25.8946 43.7071 25.7071C43.8946 25.5196 44 25.2652 44 25C44 24.7348 43.8946 24.4804 43.7071 24.2929C43.5196 24.1054 43.2652 24 43 24H38C37.7348 24 37.4804 24.1054 37.2929 24.2929C37.1054 24.4804 37 24.7348 37 25C37 25.2652 37.1054 25.5196 37.2929 25.7071C37.4804 25.8946 37.7348 26 38 26Z" fill="#323232"/>
<path d="M59 24C58.7348 24 58.4804 24.1054 58.2929 24.2929C58.1054 24.4804 58 24.7348 58 25V58H7C6.01109 58 5.04439 57.7068 4.22215 57.1573C3.3999 56.6079 2.75904 55.827 2.3806 54.9134C2.00216 53.9998 1.90315 52.9945 2.09607 52.0245C2.289 51.0546 2.7652 50.1637 3.46447 49.4645C4.16373 48.7652 5.05464 48.289 6.02455 48.0961C6.99445 47.9031 7.99979 48.0022 8.91342 48.3806C9.82705 48.759 10.6079 49.3999 11.1573 50.2221C11.7068 51.0444 12 52.0111 12 53C12 53.2652 12.1054 53.5196 12.2929 53.7071C12.4804 53.8946 12.7348 54 13 54C13.2652 54 13.5196 53.8946 13.7071 53.7071C13.8946 53.5196 14 53.2652 14 53V26H17C17.2652 26 17.5196 25.8946 17.7071 25.7071C17.8946 25.5196 18 25.2652 18 25C18 24.7348 17.8946 24.4804 17.7071 24.2929C17.5196 24.1054 17.2652 24 17 24H14V21C14 19.1435 13.2625 17.363 11.9497 16.0503C10.637 14.7375 8.85652 14 7 14C5.14348 14 3.36301 14.7375 2.05025 16.0503C0.737498 17.363 0 19.1435 0 21V53C0.00211736 54.8559 0.740295 56.6351 2.05259 57.9474C3.36489 59.2597 5.14413 59.9979 7 60H59C59.2652 60 59.5196 59.8946 59.7071 59.7071C59.8946 59.5196 60 59.2652 60 59V25C60 24.7348 59.8946 24.4804 59.7071 24.2929C59.5196 24.1054 59.2652 24 59 24ZM2 21C2 19.6739 2.52678 18.4021 3.46447 17.4645C4.40215 16.5268 5.67392 16 7 16C8.32608 16 9.59785 16.5268 10.5355 17.4645C11.4732 18.4021 12 19.6739 12 21V48.1C11.3489 47.4337 10.5711 46.9043 9.7125 46.5428C8.85386 46.1813 7.93163 45.9951 7 45.9951C6.06837 45.9951 5.14615 46.1813 4.2875 46.5428C3.42886 46.9043 2.65113 47.4337 2 48.1V21Z" fill="#323232"/>
<path d="M46.071 36.372L47.671 40.372L50.071 46.372C50.1451 46.5579 50.2732 46.7173 50.4388 46.8296C50.6044 46.9419 50.7999 47.0019 51 47.0019C51.2001 47.0019 51.3956 46.9419 51.5612 46.8296C51.7268 46.7173 51.8549 46.5579 51.929 46.372L54.329 40.372L55.929 36.372C55.9691 36.2651 55.9905 36.1521 55.992 36.038C55.992 36.025 56 36.014 56 36V19C56 18.7348 55.8946 18.4804 55.7071 18.2929C55.5196 18.1054 55.2652 18 55 18C54.7348 18 54.4804 18.1054 54.2929 18.2929C54.1054 18.4804 54 18.7348 54 19V35H52V12H54V15C54 15.2652 54.1054 15.5196 54.2929 15.7071C54.4804 15.8946 54.7348 16 55 16C55.2652 16 55.5196 15.8946 55.7071 15.7071C55.8946 15.5196 56 15.2652 56 15V5C56 3.67392 55.4732 2.40215 54.5355 1.46447C53.5979 0.526784 52.3261 0 51 0C49.6739 0 48.4021 0.526784 47.4645 1.46447C46.5268 2.40215 46 3.67392 46 5V36C46 36.014 46.007 36.025 46.008 36.039C46.0096 36.1528 46.031 36.2655 46.071 36.372ZM50.077 41H51.923L51 43.308L50.077 41ZM52.723 39H49.277L48.477 37H53.523L52.723 39ZM50 35H48V12H50V35ZM48 10V8H54V10H48ZM48 5C48 4.20435 48.3161 3.44129 48.8787 2.87868C49.4413 2.31607 50.2044 2 51 2C51.7956 2 52.5587 2.31607 53.1213 2.87868C53.6839 3.44129 54 4.20435 54 5V6H48V5Z" fill="#323232"/>
<path d="M21.9985 19.6993V20.1803C21.414 20.3839 20.9073 20.7644 20.5487 21.269C20.1902 21.7736 19.9976 22.3772 19.9976 22.9963C19.9976 23.6153 20.1902 24.2189 20.5487 24.7235C20.9073 25.2281 21.414 25.6086 21.9985 25.8123V25.9993C22.0004 27.264 22.4014 28.4959 23.1444 29.5194C23.8874 30.5429 24.9345 31.3057 26.1365 31.6993C25.0684 32.7727 23.727 33.5335 22.2575 33.8993L20.7325 34.2813C19.562 34.5705 18.538 35.2786 17.8542 36.2716C17.1703 37.2647 16.874 38.4739 17.0213 39.6706C17.1686 40.8673 17.7492 41.9686 18.6534 42.7662C19.5577 43.5638 20.7228 44.0025 21.9285 43.9992H23.9985C24.2637 43.9992 24.5181 43.8939 24.7056 43.7064C24.8931 43.5188 24.9985 43.2645 24.9985 42.9992C24.9985 42.734 24.8931 42.4797 24.7056 42.2921C24.5181 42.1046 24.2637 41.9992 23.9985 41.9992H21.9285C21.2136 41.9986 20.5236 41.7366 19.9883 41.2627C19.4531 40.7888 19.1095 40.1355 19.0222 39.426C18.935 38.7164 19.1101 37.9994 19.5146 37.4099C19.9191 36.8204 20.525 36.3991 21.2185 36.2253L22.7435 35.8443C25.0604 35.2631 27.1033 33.8947 28.5225 31.9732C30.0164 31.8411 31.4068 31.1548 32.4202 30.0493C33.4336 28.9437 33.9966 27.499 33.9985 25.9993V25.8153C34.583 25.6116 35.0897 25.2311 35.4483 24.7265C35.8068 24.2219 35.9994 23.6183 35.9994 22.9993C35.9994 22.3802 35.8068 21.7766 35.4483 21.272C35.0897 20.7674 34.583 20.3869 33.9985 20.1833V19.6993C35.5509 18.3146 36.574 16.4336 36.8927 14.378C37.2113 12.3224 36.8058 10.2199 35.7455 8.43025C35.6106 8.20177 35.3905 8.03621 35.1336 7.97001C34.8767 7.90381 34.604 7.94239 34.3755 8.07725C34.147 8.21211 33.9815 8.43222 33.9153 8.68914C33.8491 8.94607 33.8876 9.21877 34.0225 9.44725C34.8815 10.8951 35.1876 12.6048 34.8843 14.2607C34.581 15.9166 33.6888 17.4068 32.3725 18.4563C32.2557 18.55 32.1615 18.6687 32.0968 18.8037C32.0321 18.9387 31.9985 19.0865 31.9985 19.2362V19.9992H31.1155L31.9925 12.1092C32.011 11.9425 31.9872 11.7737 31.9234 11.6186C31.8596 11.4634 31.7577 11.3268 31.6273 11.2213C31.4968 11.1158 31.3419 11.0449 31.1768 11.015C31.0117 10.9851 30.8417 10.9972 30.6825 11.0502L27.9985 11.9453L25.3145 11.0502C25.1553 10.9972 24.9853 10.9851 24.8202 11.015C24.6551 11.0449 24.5002 11.1158 24.3697 11.2213C24.2392 11.3268 24.1374 11.4634 24.0736 11.6186C24.0098 11.7737 23.986 11.9425 24.0045 12.1092L24.8815 19.9992H23.9985V19.2392C23.9985 19.0895 23.9649 18.9417 23.9002 18.8067C23.8355 18.6717 23.7413 18.553 23.6245 18.4592C22.2393 17.3554 21.3246 15.767 21.0651 14.0149C20.8057 12.2627 21.2207 10.4774 22.2265 9.01947C23.2323 7.56151 24.7539 6.53953 26.4839 6.15991C28.214 5.7803 30.0237 6.07133 31.5475 6.97425C31.776 7.10911 32.0487 7.14769 32.3056 7.08149C32.5625 7.01529 32.7826 6.84973 32.9175 6.62125C33.0524 6.39277 33.0909 6.12007 33.0247 5.86314C32.9585 5.60622 32.793 5.38611 32.5645 5.25125C30.642 4.11943 28.3675 3.74251 26.1827 4.19368C23.9978 4.64484 22.0587 5.8919 20.7418 7.69266C19.4248 9.49341 18.8242 11.7193 19.0564 13.9381C19.2887 16.1569 20.3372 18.2102 21.9985 19.6993ZM27.9985 29.9993C26.9376 29.9993 25.9202 29.5778 25.1701 28.8277C24.4199 28.0775 23.9985 27.0601 23.9985 25.9993H31.9985C31.9985 27.0601 31.5771 28.0775 30.8269 28.8277C30.0768 29.5778 29.0594 29.9993 27.9985 29.9993ZM26.1655 13.4422L27.6825 13.9482C27.8876 14.0166 28.1094 14.0166 28.3145 13.9482L29.8315 13.4422L29.1035 19.9992H26.8985L26.1655 13.4422ZM25.9985 21.9993H32.9985C33.2637 21.9993 33.5181 22.1046 33.7056 22.2921C33.8931 22.4797 33.9985 22.734 33.9985 22.9993C33.9985 23.2645 33.8931 23.5188 33.7056 23.7064C33.5181 23.8939 33.2637 23.9993 32.9985 23.9993H22.9985C22.7333 23.9993 22.4789 23.8939 22.2914 23.7064C22.1039 23.5188 21.9985 23.2645 21.9985 22.9993C21.9985 22.734 22.1039 22.4797 22.2914 22.2921C22.4789 22.1046 22.7333 21.9993 22.9985 21.9993H25.9985Z" fill="#323232"/>
<path d="M16 14C16.5523 14 17 13.5523 17 13C17 12.4477 16.5523 12 16 12C15.4477 12 15 12.4477 15 13C15 13.5523 15.4477 14 16 14Z" fill="#323232"/>
<path d="M40 14C40.5523 14 41 13.5523 41 13C41 12.4477 40.5523 12 40 12C39.4477 12 39 12.4477 39 13C39 13.5523 39.4477 14 40 14Z" fill="#323232"/>
<path d="M28 2C28.5523 2 29 1.55228 29 1C29 0.447715 28.5523 0 28 0C27.4477 0 27 0.447715 27 1C27 1.55228 27.4477 2 28 2Z" fill="#323232"/>
<path d="M17.1093 7.86601C17.2806 7.96491 17.4774 8.01079 17.6748 7.99786C17.8721 7.98493 18.0612 7.91377 18.2181 7.79337C18.375 7.67297 18.4927 7.50874 18.5563 7.32146C18.6199 7.13417 18.6265 6.93224 18.5753 6.74119C18.5241 6.55015 18.4174 6.37857 18.2687 6.24817C18.12 6.11776 17.936 6.03437 17.7399 6.00856C17.5438 5.98274 17.3445 6.01565 17.1671 6.10313C16.9897 6.19061 16.8422 6.32872 16.7433 6.50001C16.6107 6.72969 16.5748 7.00263 16.6434 7.25881C16.7121 7.51498 16.8797 7.7334 17.1093 7.86601Z" fill="#323232"/>
<path d="M37.8906 19.866C38.0619 19.9649 38.2586 20.0108 38.456 19.9979C38.6534 19.9849 38.8424 19.9138 38.9994 19.7934C39.1563 19.673 39.274 19.5087 39.3375 19.3215C39.4011 19.1342 39.4077 18.9322 39.3565 18.7412C39.3054 18.5501 39.1987 18.3786 39.05 18.2482C38.9013 18.1178 38.7172 18.0344 38.5211 18.0086C38.3251 17.9827 38.1257 18.0157 37.9483 18.1031C37.7709 18.1906 37.6235 18.3287 37.5246 18.5C37.392 18.7297 37.3561 19.0026 37.4247 19.2588C37.4933 19.515 37.6609 19.7334 37.8906 19.866Z" fill="#323232"/>
<path d="M34.2651 3.57124C34.7985 3.42821 35.115 2.87983 34.972 2.34638C34.829 1.81294 34.2806 1.49644 33.7471 1.63947C33.2137 1.78249 32.8972 2.33088 33.0402 2.86432C33.1832 3.39777 33.7316 3.71426 34.2651 3.57124Z" fill="#323232"/>
<path d="M38.8906 7.86603C39.0619 7.76714 39.2 7.61968 39.2875 7.44229C39.375 7.26491 39.4079 7.06556 39.3821 6.86947C39.3563 6.67338 39.2729 6.48935 39.1425 6.34065C39.0121 6.19195 38.8405 6.08526 38.6494 6.03407C38.4584 5.98288 38.2565 5.9895 38.0692 6.05308C37.8819 6.11665 37.7177 6.23434 37.5973 6.39126C37.4769 6.54817 37.4057 6.73727 37.3928 6.93463C37.3798 7.13199 37.4257 7.32875 37.5246 7.50003C37.6572 7.7297 37.8756 7.89729 38.1318 7.96593C38.388 8.03457 38.6609 7.99863 38.8906 7.86603Z" fill="#323232"/>
<path d="M18.4754 18.5C18.3765 18.3287 18.229 18.1906 18.0517 18.1031C17.8743 18.0157 17.6749 17.9827 17.4788 18.0086C17.2828 18.0344 17.0987 18.1178 16.95 18.2482C16.8013 18.3786 16.6946 18.5501 16.6434 18.7412C16.5923 18.9322 16.5989 19.1342 16.6625 19.3215C16.726 19.5087 16.8437 19.673 17.0006 19.7934C17.1575 19.9138 17.3466 19.9849 17.544 19.9979C17.7414 20.0108 17.9381 19.9649 18.1094 19.866C18.3391 19.7334 18.5067 19.515 18.5753 19.2588C18.6439 19.0026 18.608 18.7297 18.4754 18.5Z" fill="#323232"/>
<path d="M22.5 3.47541C22.6713 3.37652 22.8094 3.22905 22.8969 3.05167C22.9843 2.87428 23.0173 2.67494 22.9914 2.47885C22.9656 2.28276 22.8822 2.09872 22.7518 1.95002C22.6214 1.80132 22.4498 1.69463 22.2588 1.64345C22.0678 1.59226 21.8658 1.59887 21.6785 1.66245C21.4913 1.72603 21.327 1.84372 21.2066 2.00063C21.0862 2.15755 21.0151 2.34664 21.0021 2.544C20.9892 2.74136 21.0351 2.93812 21.134 3.10941C21.2666 3.33908 21.485 3.50667 21.7412 3.5753C21.9974 3.64394 22.2703 3.60801 22.5 3.47541Z" fill="#323232"/>
<path d="M32.9962 52H36.9962C37.2615 52 37.5158 51.8946 37.7034 51.7071C37.8909 51.5196 37.9962 51.2652 37.9962 51V49.319C38.3357 49.1589 38.6614 48.9713 38.9702 48.758L40.4242 49.598C40.6539 49.7306 40.9269 49.7665 41.183 49.6979C41.4392 49.6293 41.6576 49.4617 41.7902 49.232L43.7902 45.768C43.9228 45.5383 43.9588 45.2654 43.8901 45.0092C43.8215 44.753 43.6539 44.5346 43.4242 44.402L41.9722 43.563C41.9882 43.374 41.9962 43.187 41.9962 43C41.9962 42.813 41.9882 42.626 41.9722 42.437L43.4242 41.598C43.6539 41.4654 43.8215 41.247 43.8901 40.9908C43.9588 40.7346 43.9228 40.4617 43.7902 40.232L41.7902 36.768C41.6576 36.5383 41.4392 36.3707 41.183 36.3021C40.9269 36.2335 40.6539 36.2694 40.4242 36.402L38.9702 37.242C38.6614 37.0287 38.3357 36.8411 37.9962 36.681V35C37.9962 34.7348 37.8909 34.4804 37.7034 34.2929C37.5158 34.1054 37.2615 34 36.9962 34H32.9962C32.731 34 32.4767 34.1054 32.2891 34.2929C32.1016 34.4804 31.9962 34.7348 31.9962 35V36.681C31.6568 36.8411 31.331 37.0287 31.0222 37.242L29.5682 36.402C29.3386 36.2694 29.0656 36.2335 28.8094 36.3021C28.5533 36.3707 28.3349 36.5383 28.2022 36.768L26.2022 40.232C26.0696 40.4617 26.0337 40.7346 26.1023 40.9908C26.171 41.247 26.3386 41.4654 26.5682 41.598L28.0202 42.437C28.0042 42.626 27.9962 42.813 27.9962 43C27.9962 43.187 28.0042 43.374 28.0202 43.563L26.5682 44.402C26.4536 44.4672 26.353 44.5544 26.2722 44.6586C26.1914 44.7629 26.132 44.882 26.0974 45.0093C26.0629 45.1366 26.0538 45.2694 26.0708 45.4002C26.0878 45.531 26.1305 45.6571 26.1965 45.7713C26.2624 45.8855 26.3503 45.9856 26.4551 46.0657C26.5598 46.1458 26.6794 46.2044 26.8069 46.2381C26.9344 46.2718 27.0673 46.28 27.198 46.2621C27.3286 46.2442 27.4545 46.2007 27.5682 46.134L29.5962 44.96C29.7752 44.8568 29.9177 44.7008 30.0044 44.5133C30.0911 44.3258 30.1176 44.1161 30.0802 43.913C29.9629 43.31 29.9629 42.69 30.0802 42.087C30.1176 41.8839 30.0911 41.6742 30.0044 41.4867C29.9177 41.2992 29.7752 41.1432 29.5962 41.04L28.4302 40.366L29.4302 38.634L30.5962 39.308C30.7754 39.4114 30.9821 39.4568 31.1881 39.4378C31.3941 39.4188 31.5891 39.3364 31.7462 39.202C32.2125 38.8039 32.7481 38.4951 33.3262 38.291C33.5217 38.2227 33.6911 38.0954 33.8111 37.9266C33.9312 37.7579 33.9958 37.5561 33.9962 37.349V36H35.9962V37.349C35.9964 37.5556 36.0605 37.757 36.1797 37.9257C36.299 38.0944 36.4675 38.222 36.6622 38.291C37.2404 38.4951 37.776 38.8039 38.2422 39.202C38.3994 39.3364 38.5944 39.4188 38.8004 39.4378C39.0064 39.4568 39.2131 39.4114 39.3922 39.308L40.5582 38.634L41.5582 40.366L40.3962 41.04C40.2173 41.1432 40.0747 41.2992 39.9881 41.4867C39.9014 41.6742 39.8749 41.8839 39.9122 42.087C40.0296 42.69 40.0296 43.31 39.9122 43.913C39.8749 44.1161 39.9014 44.3258 39.9881 44.5133C40.0747 44.7008 40.2173 44.8568 40.3962 44.96L41.5622 45.634L40.5622 47.366L39.3962 46.692C39.2171 46.5886 39.0104 46.5432 38.8044 46.5622C38.5984 46.5812 38.4034 46.6636 38.2462 46.798C37.78 47.1961 37.2444 47.5049 36.6662 47.709C36.4715 47.778 36.303 47.9056 36.1837 48.0743C36.0645 48.243 36.0004 48.4444 36.0002 48.651V50H33.9962V48.651C33.9961 48.4444 33.932 48.243 33.8128 48.0743C33.6935 47.9056 33.525 47.778 33.3302 47.709C32.7521 47.5049 32.2165 47.1961 31.7502 46.798C31.5931 46.6636 31.3981 46.5812 31.1921 46.5622C30.9861 46.5432 30.7794 46.5886 30.6002 46.692L28.5682 47.866C28.4536 47.9312 28.353 48.0184 28.2722 48.1226C28.1914 48.2269 28.132 48.346 28.0974 48.4733C28.0629 48.6006 28.0538 48.7334 28.0708 48.8642C28.0878 48.995 28.1305 49.1211 28.1965 49.2353C28.2624 49.3495 28.3503 49.4496 28.4551 49.5297C28.5598 49.6098 28.6794 49.6684 28.8069 49.7021C28.9344 49.7358 29.0673 49.744 29.198 49.7261C29.3286 49.7082 29.4545 49.6647 29.5682 49.598L31.0222 48.758C31.331 48.9713 31.6568 49.1589 31.9962 49.319V51C31.9962 51.2652 32.1016 51.5196 32.2891 51.7071C32.4767 51.8946 32.731 52 32.9962 52Z" fill="#323232"/>
<path d="M38 43C38 42.4067 37.8241 41.8266 37.4944 41.3333C37.1648 40.8399 36.6962 40.4554 36.1481 40.2284C35.5999 40.0013 34.9967 39.9419 34.4147 40.0576C33.8328 40.1734 33.2982 40.4591 32.8787 40.8787C32.4591 41.2982 32.1734 41.8328 32.0576 42.4147C31.9419 42.9967 32.0013 43.5999 32.2284 44.148C32.4554 44.6962 32.8399 45.1648 33.3333 45.4944C33.8266 45.8241 34.4067 46 35 46C35.7957 46 36.5587 45.6839 37.1213 45.1213C37.6839 44.5587 38 43.7957 38 43ZM34 43C34 42.8022 34.0587 42.6089 34.1685 42.4444C34.2784 42.28 34.4346 42.1518 34.6173 42.0761C34.8 42.0004 35.0011 41.9806 35.1951 42.0192C35.3891 42.0578 35.5673 42.153 35.7071 42.2929C35.847 42.4327 35.9422 42.6109 35.9808 42.8049C36.0194 42.9989 35.9996 43.2 35.9239 43.3827C35.8482 43.5654 35.72 43.7216 35.5556 43.8315C35.3911 43.9414 35.1978 44 35 44C34.7348 44 34.4804 43.8946 34.2929 43.7071C34.1054 43.5196 34 43.2652 34 43Z" fill="#323232"/>
<path d="M36 56H48C49.0609 56 50.0783 55.5786 50.8284 54.8284C51.5786 54.0783 52 53.0609 52 52V50C52 49.7348 51.8946 49.4804 51.7071 49.2929C51.5196 49.1054 51.2652 49 51 49C50.7348 49 50.4804 49.1054 50.2929 49.2929C50.1054 49.4804 50 49.7348 50 50V52C50 52.5304 49.7893 53.0391 49.4142 53.4142C49.0391 53.7893 48.5304 54 48 54H36C35.7348 54 35.4804 54.1054 35.2929 54.2929C35.1054 54.4804 35 54.7348 35 55C35 55.2652 35.1054 55.5196 35.2929 55.7071C35.4804 55.8946 35.7348 56 36 56Z" fill="#323232"/>
<path d="M18 52C18 52.5933 18.1759 53.1734 18.5056 53.6667C18.8352 54.1601 19.3038 54.5446 19.8519 54.7716C20.4001 54.9987 21.0033 55.0581 21.5853 54.9424C22.1672 54.8266 22.7018 54.5409 23.1213 54.1213C23.5409 53.7018 23.8266 53.1672 23.9424 52.5853C24.0581 52.0033 23.9987 51.4001 23.7716 50.852C23.5446 50.3038 23.1601 49.8352 22.6667 49.5056C22.1734 49.1759 21.5933 49 21 49C20.2043 49 19.4413 49.3161 18.8787 49.8787C18.3161 50.4413 18 51.2044 18 52ZM22 52C22 52.1978 21.9413 52.3911 21.8315 52.5556C21.7216 52.72 21.5654 52.8482 21.3827 52.9239C21.2 52.9996 20.9989 53.0194 20.8049 52.9808C20.6109 52.9422 20.4327 52.847 20.2929 52.7071C20.153 52.5673 20.0578 52.3891 20.0192 52.1951C19.9806 52.0011 20.0004 51.8 20.0761 51.6173C20.1518 51.4346 20.28 51.2784 20.4444 51.1685C20.6089 51.0586 20.8022 51 21 51C21.2652 51 21.5196 51.1054 21.7071 51.2929C21.8946 51.4804 22 51.7348 22 52Z" fill="#323232"/>
</svg>
