<svg width="33" height="33" viewBox="0 0 33 33" fill="none" xmlns="http://www.w3.org/2000/svg">
<g clip-path="url(#clip0_1692_711)">
<path d="M29.6807 10.3585C29.111 10.1352 28.3942 9.85769 28.245 9.5909C28.127 9.02865 28.1407 8.44678 28.2849 7.8907C28.4463 6.81615 28.6119 5.7031 27.9086 5.00284C27.2054 4.30257 26.0754 4.46132 24.9933 4.63171C24.447 4.77419 23.8753 4.78991 23.3219 4.67772C22.9472 4.25298 22.6749 3.74795 22.5259 3.2015C22.1257 2.18096 21.7117 1.12523 20.7469 0.862345C19.782 0.599465 18.8976 1.29303 18.0493 1.97547C17.6393 2.37841 17.1417 2.68125 16.5955 2.8605C16.2844 2.86035 15.6885 2.38335 15.2129 2.00091C14.3824 1.34195 13.4458 0.593359 12.4541 0.859098C11.4623 1.12484 11.0255 2.24144 10.6398 3.22627C10.4155 3.79765 10.139 4.51274 9.87255 4.66332C9.30965 4.77837 8.72797 4.7649 8.17103 4.62375C7.08931 4.45699 5.97843 4.29953 5.28016 4.99941C4.58189 5.69929 4.73733 6.83294 4.90276 7.92354C5.045 8.46977 5.06119 9.0412 4.95009 9.59462C4.52697 9.96475 4.02545 10.234 3.4832 10.3823C2.46133 10.7828 1.40421 11.1972 1.14272 12.1617C0.881223 13.1262 1.57451 14.0093 2.25732 14.859C2.66156 15.2698 2.96487 15.7689 3.14343 16.3168C3.14329 16.628 2.66666 17.2253 2.28384 17.6994C1.62345 18.5245 0.875214 19.4625 1.14095 20.4542C1.40669 21.446 2.52366 21.8842 3.50951 22.2682C4.07921 22.4914 4.79598 22.7689 4.94524 23.0357C5.06322 23.598 5.04953 24.1799 4.90531 24.7359C4.74386 25.8105 4.57834 26.9235 5.28159 27.6238C5.98484 28.3241 7.11477 28.1653 8.19688 27.9949C8.74325 27.8525 9.31494 27.8367 9.86831 27.9489C10.243 28.3737 10.5153 28.8787 10.6643 29.4251C11.0645 30.4457 11.4785 31.5014 12.4434 31.7643C13.4082 32.0272 14.2813 31.3237 15.1325 30.6462C15.5481 30.245 16.0493 29.9433 16.5984 29.7637C16.9096 29.7639 17.5055 30.2409 17.9811 30.6233C18.8075 31.2834 19.7441 32.0319 20.7359 31.7662C21.7276 31.5005 22.1644 30.3839 22.5501 29.399C22.7744 28.8277 23.0509 28.1126 23.3174 27.962C23.8801 27.8448 24.4622 27.8583 25.0189 28.0016C26.0934 28.163 27.2058 28.3259 27.9057 27.627C28.6057 26.9281 28.4486 25.7934 28.2846 24.7082C28.1423 24.162 28.1261 23.5905 28.2372 23.0371C28.6607 22.6648 29.1634 22.3937 29.7071 22.2443C30.7289 21.8438 31.7861 21.4294 32.0476 20.4649C32.309 19.5004 31.6056 18.6274 30.9295 17.7758C30.5255 17.3623 30.2233 16.8603 30.047 16.3098C30.0471 15.9987 30.5238 15.4014 30.9066 14.9272C31.5666 14.1008 32.3162 13.1625 32.0508 12.172C31.7855 11.1816 30.6665 10.7425 29.6807 10.3585Z" fill="#FBA99D"/>
<path d="M13.4648 20.498C13.2533 20.5546 13.0275 20.5084 12.8553 20.3732L9.02498 17.3667L9.92518 20.7262C10.0246 21.0973 9.80437 21.4788 9.43329 21.5782C9.0622 21.6777 8.68073 21.4574 8.5813 21.0863L7.14098 15.711C7.04155 15.3399 7.26179 14.9584 7.63288 14.859C7.84434 14.8024 8.07021 14.8486 8.24241 14.9838L12.0727 17.9903L11.1725 14.6308C11.0731 14.2597 11.2933 13.8782 11.6644 13.7788C12.0355 13.6793 12.4169 13.8996 12.5164 14.2707L13.9567 19.646C14.034 19.9351 13.9176 20.2413 13.6678 20.4061C13.6056 20.4476 13.5371 20.4786 13.4648 20.498Z" fill="#FAFAFA"/>
<path d="M18.8397 19.0573L16.152 19.7774C15.7809 19.8769 15.3995 19.6566 15.3 19.2856L13.8597 13.9102C13.7603 13.5391 13.9805 13.1577 14.3516 13.0582L17.0393 12.3381C17.4104 12.2386 17.7919 12.4589 17.8913 12.83C17.9907 13.2011 17.7705 13.5825 17.3994 13.6819L15.3837 14.2221L16.4639 18.2536L18.4797 17.7135C18.8507 17.614 19.2322 17.8343 19.3316 18.2054C19.4311 18.5764 19.2108 18.9578 18.8397 19.0573Z" fill="#FAFAFA"/>
<path d="M18.1182 16.3694L15.4305 17.0896C15.0594 17.189 14.6779 16.9688 14.5785 16.5977C14.4791 16.2266 14.6993 15.8452 15.0704 15.7457L17.7581 15.0256C18.1292 14.9261 18.5106 15.1464 18.6101 15.5175C18.7095 15.8886 18.4893 16.27 18.1182 16.3694Z" fill="#FAFAFA"/>
<path d="M25.5586 17.2564C25.2691 17.3344 24.9623 17.2181 24.7972 16.9679L23.5238 15.0376L23.3861 17.3459C23.378 17.6589 23.1527 17.9238 22.845 17.9821C22.5436 18.0507 22.233 17.9122 22.0827 17.6419L19.2986 12.6267C19.1122 12.2904 19.2338 11.8667 19.57 11.6804C19.9063 11.494 20.33 11.6155 20.5163 11.9518L22.1402 14.8784L22.2606 12.8714C22.326 12.4765 22.6991 12.2092 23.0941 12.2746C23.2674 12.3033 23.4245 12.3939 23.536 12.5297L24.6438 14.2076L24.5868 10.8611C24.5801 10.4767 24.8861 10.1596 25.2706 10.1529C25.655 10.1462 25.9721 10.4523 25.9788 10.8367L26.0753 16.5721C26.0803 16.8813 25.8806 17.1566 25.5852 17.2479L25.5586 17.2564Z" fill="#FAFAFA"/>
</g>
<defs>
<clipPath id="clip0_1692_711">
<rect width="32" height="32" fill="white" transform="translate(0.59375 0.3125)"/>
</clipPath>
</defs>
</svg>
