<svg width="64" height="64" viewBox="0 0 64 64" fill="none" xmlns="http://www.w3.org/2000/svg">
<path d="M4.1652 29.0093C4.28232 29.0748 4.32694 29.221 4.26619 29.3406L1.50918 34.772C0.706748 36.3523 0.757743 38.2313 1.64392 39.7661L10.1854 54.5593L14.205 42.0483L17.033 36.4946C17.0973 36.3681 17.254 36.3206 17.3778 36.3899L19.941 37.8245C20.3628 38.0606 20.8523 37.6486 20.6917 37.1927L16.0998 24.1606C15.8748 23.522 15.2004 23.1598 14.5437 23.325L1.65179 26.5677C1.19158 26.6835 1.10971 27.3024 1.52405 27.5339L4.1652 29.0093Z" fill="#B3E59F"/>
<path d="M14.2069 42.0508L25.5547 42.6417C26.6602 42.6991 27.5005 43.6573 27.413 44.7607L26.5541 55.5905C26.4698 56.6522 25.5557 57.4537 24.4921 57.3986L13.9243 56.8479C12.3706 56.7673 10.9634 55.9056 10.1855 54.5583C9.40843 53.2126 9.36493 51.5651 10.0697 50.1801L14.2069 42.0508Z" fill="#95D6A4"/>
<path d="M49.0606 10.0031C48.9453 10.0719 48.7963 10.0374 48.7231 9.92489L45.3975 4.8217C44.4301 3.3367 42.7771 2.44141 41.0049 2.44141H23.9219L32.7479 12.1777L36.1438 17.4035C36.2212 17.5225 36.1841 17.682 36.0621 17.7545L33.538 19.2567C33.1227 19.5039 33.2347 20.1338 33.7098 20.2226L47.293 22.7624C47.9585 22.8869 48.6094 22.4839 48.7947 21.8326L52.4322 9.04746C52.562 8.591 52.0669 8.21053 51.6594 8.45364L49.0606 10.0031Z" fill="#B3E59F"/>
<path d="M32.7481 12.1777L26.5624 21.7089C25.9599 22.6375 24.7099 22.8862 23.798 22.2586L14.8479 16.0999C13.9706 15.4962 13.7333 14.3036 14.3129 13.4102L20.0738 4.53423C20.9205 3.22909 22.3704 2.44141 23.9262 2.44141C25.4803 2.44141 26.929 3.22746 27.776 4.53035L32.7481 12.1777Z" fill="#95D6A4"/>
<path d="M42.288 58.0331C42.2931 57.899 42.4032 57.7928 42.5373 57.7926L48.6289 57.7831C50.4014 57.7806 52.0525 56.8821 53.0178 55.3958L62.3219 41.0699L49.3486 43.1687L43.1159 43.1704C42.974 43.1704 42.8605 43.0524 42.866 42.9106L42.9807 39.9758C42.9995 39.4927 42.4102 39.2436 42.077 39.5938L32.5489 49.6014C32.0821 50.0918 32.0655 50.8571 32.5108 51.3671L41.2532 61.3809C41.5653 61.7385 42.154 61.5304 42.1721 61.0561L42.288 58.0331Z" fill="#B3E59F"/>
<path d="M49.3509 43.1682L44.7257 32.7897C44.2748 31.7788 44.7472 30.5951 45.7702 30.172L55.8104 26.0208C56.7945 25.6138 57.9239 26.0644 58.3576 27.0371L62.6648 36.7023C63.2983 38.1232 63.1693 39.7682 62.3219 41.0728C61.4755 42.3761 60.0272 43.1629 58.4731 43.1637L49.3509 43.1682Z" fill="#95D6A4"/>
<path d="M25.6003 41.704L22.6619 41.5509C22.1437 41.525 21.7038 41.9212 21.6768 42.4383C21.65 42.9554 22.0473 43.3963 22.5643 43.4233L25.503 43.5764C25.9326 43.6083 26.4936 43.9747 26.4754 44.6851L25.6164 55.5149C25.572 56.0745 25.0947 56.4886 24.5377 56.4608L13.9696 55.9103C12.7284 55.8458 11.6162 55.1649 10.9945 54.0889L10.9936 54.0874C10.3732 53.0123 10.3389 51.7101 10.902 50.6038L14.7632 43.0172L18.1931 43.196C18.709 43.2237 19.1509 42.8255 19.1781 42.3084C19.2049 41.7915 18.8076 41.3505 18.2905 41.3235L15.6944 41.1883L17.5428 37.5582L19.4823 38.6437C20.018 38.9433 20.6676 38.8817 21.1374 38.4864C21.6072 38.091 21.7788 37.4615 21.5747 36.8824L16.9829 23.8503C16.5947 22.7481 15.4469 22.1322 14.3138 22.4169L1.42196 25.6595C0.837256 25.8067 0.408417 26.2879 0.329424 26.8856C0.250431 27.4833 0.539531 28.0594 1.06574 28.3533L3.13031 29.5065L0.67227 34.3486C-0.277274 36.2183 -0.217904 38.4191 0.831131 40.2359L9.37015 55.0247C9.37027 55.025 9.3704 55.0252 9.37052 55.0255C9.37065 55.0257 9.37077 55.026 9.37102 55.0262L9.37265 55.029C9.37315 55.0298 9.37377 55.0305 9.37415 55.0313C10.3153 56.6567 11.9964 57.685 13.8724 57.7826C14.2176 57.7963 24.2457 58.3312 24.5966 58.3373C26.1097 58.3373 27.3644 57.1901 27.4855 55.663L28.3445 44.8332C28.4855 43.3851 27.2854 41.7695 25.6003 41.704ZM2.344 35.1973L5.20975 29.5517C5.43749 29.1029 5.27037 28.5544 4.83104 28.309L2.88858 27.2239L14.7712 24.235C14.9599 24.1876 15.15 24.2899 15.2146 24.473L19.4428 36.4729L17.6078 35.4458C17.3853 35.3214 17.1216 35.293 16.8776 35.3668C16.6336 35.4409 16.4303 35.6111 16.3146 35.8384C14.4451 39.6217 8.92044 50.4966 8.92044 50.4966L2.45474 39.2984C1.72393 38.0329 1.68256 36.4998 2.344 35.1973Z" fill="black"/>
<path d="M63.1084 41.5776C64.1297 40.001 64.283 38.0362 63.5179 36.3205L62.4361 33.8929C62.2252 33.42 61.6706 33.2075 61.1983 33.4182C60.7255 33.6291 60.513 34.1832 60.7236 34.656L61.8055 37.0838C62.3115 38.2183 62.2098 39.5176 61.5342 40.5596L61.5312 40.5642C60.8546 41.6041 59.7104 42.2253 58.4697 42.2258L49.9564 42.23L45.579 32.4076C45.4124 32.0101 45.4842 31.3444 46.1256 31.0379L56.1656 26.8867C56.6846 26.6719 57.27 26.9059 57.4985 27.4182L58.9205 30.6092C59.1314 31.0822 59.6853 31.2946 60.1583 31.0839C60.6311 30.8731 60.8436 30.319 60.633 29.8461L59.2109 26.6549C58.5655 25.2082 56.9136 24.5486 55.4492 25.1541L45.4092 29.3054C44.0298 29.8523 43.171 31.634 43.8666 33.1709L47.9041 42.2307L43.8302 42.2318L43.9168 40.0114C43.9408 39.398 43.5911 38.8471 43.0255 38.6079C42.46 38.3689 41.8209 38.5017 41.3975 38.9462L31.8695 48.9539C31.0639 49.8002 31.0358 51.1022 31.8043 51.9824L40.5466 61.9961C40.8306 62.3215 41.231 62.4977 41.6442 62.4977C41.808 62.4977 41.9737 62.47 42.1351 62.413C42.7034 62.2121 43.0855 61.6929 43.1084 61.0907L43.1989 58.7278L48.6296 58.7194C50.7267 58.7165 52.6608 57.6646 53.8034 55.9053L63.1036 41.5851C63.1041 41.5844 63.1048 41.5836 63.1051 41.5829C63.1055 41.5821 63.106 41.5814 63.1065 41.5805L63.1073 41.5793C63.1076 41.579 63.108 41.5784 63.1084 41.5776ZM52.2308 54.8845C51.4349 56.11 50.0876 56.843 48.6266 56.845L42.2949 56.8548C41.7917 56.8556 41.3789 57.2535 41.3598 57.7564L41.2747 59.9798L33.2165 50.7497C33.0889 50.6036 33.0936 50.3875 33.2272 50.247L42.0006 41.0319L41.9186 43.1331C41.9086 43.388 42.003 43.6358 42.1797 43.8196C42.3564 44.0034 42.6003 44.1072 42.8553 44.1072L59.2736 44.0403L52.2308 54.8845Z" fill="black"/>
<path d="M14.3139 16.8721L23.264 23.0308C24.4125 23.8811 26.4716 23.6416 27.346 22.2191L32.7459 13.8988L34.9658 17.3146L33.0563 18.4512C32.5286 18.7652 32.2571 19.3586 32.3647 19.9632C32.4721 20.5678 32.9316 21.0312 33.5351 21.1441C33.806 21.1777 38.2202 22.0523 38.5288 22.0615C38.9712 22.0615 39.3649 21.7469 39.4491 21.2963C39.5444 20.7874 39.2089 20.2977 38.7001 20.2026L34.9558 19.5024L36.7626 18.427C36.9817 18.2966 37.1383 18.0825 37.1962 17.8341C37.2541 17.5858 37.2082 17.3245 37.0692 17.1107C36.0673 15.569 33.0329 10.8996 32.0986 9.46297C31.8163 9.02864 31.2353 8.90577 30.8017 9.188C30.3676 9.47022 30.2445 10.0508 30.5268 10.4849L31.6277 12.1782L25.7733 21.1988C25.5307 21.5548 24.9334 21.8574 24.3269 21.4864L15.3767 15.3277C14.9144 15.0095 14.7912 14.3914 15.0967 13.9207L20.8577 5.04448C21.5344 4.00144 22.6806 3.37887 23.9237 3.37887C25.1655 3.37887 26.3109 4.00044 26.9877 5.04135L28.152 6.83232C28.4342 7.26654 29.0146 7.38928 29.4489 7.1073C29.8829 6.82508 30.0061 6.2445 29.7238 5.81041L28.0712 3.37875H41.0026C42.464 3.37875 43.8125 4.10943 44.6099 5.33345L48.0667 10.638C48.3414 11.0596 48.9001 11.1888 49.3323 10.9313L51.2435 9.7917L47.8908 21.5761C47.8378 21.7628 47.6545 21.8767 47.4628 21.8409L43.0509 21.016C42.5427 20.9211 42.0525 21.2562 41.9573 21.7652C41.862 22.274 42.1975 22.7637 42.7065 22.8588C43.555 22.9929 46.9455 23.7054 47.5394 23.723C48.5277 23.723 49.4136 23.0746 49.694 22.0891L53.3314 9.30399C53.4963 8.72416 53.2941 8.11222 52.8161 7.74487C52.3381 7.37753 51.6946 7.33991 51.1769 7.6485L49.1457 8.85965L46.1807 4.30992C45.036 2.55282 43.1002 1.50391 41.0025 1.50391H23.9196C23.9173 1.50391 23.9151 1.50428 23.9128 1.50428C22.0361 1.50791 20.3066 2.44908 19.285 4.02382L13.524 12.9001C12.6617 14.2292 13.0088 15.9739 14.3139 16.8721Z" fill="black"/>
</svg>
