<svg width="64" height="64" viewBox="0 0 64 64" fill="none" xmlns="http://www.w3.org/2000/svg">
<path d="M11.7292 29.8693V21.3359H6.39583H1.0625V29.8693H6.39583H11.7292Z" fill="#EFC062"/>
<path d="M28.7917 21.3359H23.4583H18.125V29.8693H28.7917V21.3359Z" fill="#EFC062"/>
<path d="M11.7292 48.0021V39.4688H6.39583H1.0625V48.0021H6.39583H11.7292Z" fill="#EA7E73"/>
<path d="M37.3307 39.4688H31.9974H26.6641V48.0021H31.9974H37.3307V39.4688Z" fill="#EA7E73"/>
<path d="M11.7292 54.3984H6.39583H1.0625V62.9318H11.7292V54.3984Z" fill="#F7EEDA"/>
<path d="M37.3385 58.6651V54.3984H32.0052H26.6719V62.9318H37.3385V58.6651Z" fill="#61DBDB"/>
<path d="M52.2734 58.6651V62.9318H62.9401V54.3984H52.2734V58.6651Z" fill="#61DBDB"/>
<path d="M45.8698 21.3359H40.5365H35.2031V29.8693H45.8698V21.3359Z" fill="#EFC062"/>
<path d="M52.2656 21.3359V29.8693H62.9323V21.3359H57.599H52.2656Z" fill="#EFC062"/>
<path d="M23.4646 1.06641H8.53125V8.53307H15.9979H23.4646V1.06641Z" fill="#F7EEDA"/>
<path d="M62.9333 20.2667H58.6667V14.9333C58.6667 14.3435 58.1888 13.8667 57.6 13.8667H17.0667V9.6H23.4667C24.0555 9.6 24.5333 9.1232 24.5333 8.53333V1.06667C24.5333 0.4768 24.0555 0 23.4667 0H8.53333C7.94453 0 7.46667 0.4768 7.46667 1.06667V8.53333C7.46667 9.1232 7.94453 9.6 8.53333 9.6H14.9333V13.8667H6.4C5.8112 13.8667 5.33333 14.3435 5.33333 14.9333V20.2667H1.06667C0.477867 20.2667 0 20.7435 0 21.3333V29.8667C0 30.4565 0.477867 30.9333 1.06667 30.9333H5.33333V38.4H1.06667C0.477867 38.4 0 38.8768 0 39.4667V48C0 48.5899 0.477867 49.0667 1.06667 49.0667H5.33333V53.3333H1.06667C0.477867 53.3333 0 53.8101 0 54.4V62.9333C0 63.5232 0.477867 64 1.06667 64H11.7333C12.3221 64 12.8 63.5232 12.8 62.9333V54.4C12.8 53.8101 12.3221 53.3333 11.7333 53.3333H7.46667V49.0667H11.7333C12.3221 49.0667 12.8 48.5899 12.8 48V39.4667C12.8 38.8768 12.3221 38.4 11.7333 38.4H7.46667V36.2667H30.9333V38.4H26.6667C26.0779 38.4 25.6 38.8768 25.6 39.4667V48C25.6 48.5899 26.0779 49.0667 26.6667 49.0667H30.9333V53.3333H26.6667C26.0779 53.3333 25.6 53.8101 25.6 54.4V62.9333C25.6 63.5232 26.0779 64 26.6667 64H37.3333C37.9221 64 38.4 63.5232 38.4 62.9333V59.7333H51.2V62.9333C51.2 63.5232 51.6779 64 52.2667 64H62.9333C63.5221 64 64 63.5232 64 62.9333V54.4C64 53.8101 63.5221 53.3333 62.9333 53.3333H52.2667C51.6779 53.3333 51.2 53.8101 51.2 54.4V57.6H38.4V54.4C38.4 53.8101 37.9221 53.3333 37.3333 53.3333H33.0667V49.0667H37.3333C37.9221 49.0667 38.4 48.5899 38.4 48V39.4667C38.4 38.8768 37.9221 38.4 37.3333 38.4H33.0667V35.2C33.0667 34.6101 32.5888 34.1333 32 34.1333H7.46667V30.9333H11.7333C12.3221 30.9333 12.8 30.4565 12.8 29.8667V21.3333C12.8 20.7435 12.3221 20.2667 11.7333 20.2667H7.46667V16H22.4V20.2667H18.1333C17.5445 20.2667 17.0667 20.7435 17.0667 21.3333V29.8667C17.0667 30.4565 17.5445 30.9333 18.1333 30.9333H28.8C29.3888 30.9333 29.8667 30.4565 29.8667 29.8667V21.3333C29.8667 20.7435 29.3888 20.2667 28.8 20.2667H24.5333V16H39.4667V20.2667H35.2C34.6112 20.2667 34.1333 20.7435 34.1333 21.3333V29.8667C34.1333 30.4565 34.6112 30.9333 35.2 30.9333H45.8667C46.4555 30.9333 46.9333 30.4565 46.9333 29.8667V21.3333C46.9333 20.7435 46.4555 20.2667 45.8667 20.2667H41.6V16H56.5333V20.2667H52.2667C51.6779 20.2667 51.2 20.7435 51.2 21.3333V29.8667C51.2 30.4565 51.6779 30.9333 52.2667 30.9333H62.9333C63.5221 30.9333 64 30.4565 64 29.8667V21.3333C64 20.7435 63.5221 20.2667 62.9333 20.2667ZM9.6 2.13333H22.4V7.46667H9.6V2.13333ZM10.6667 61.8667H2.13333V55.4667H10.6667V61.8667ZM10.6667 46.9333H2.13333V40.5333H10.6667V46.9333ZM53.3333 55.4667H61.8667V61.8667H53.3333V55.4667ZM36.2667 61.8667H27.7333V55.4667H36.2667V61.8667ZM36.2667 46.9333H27.7333V40.5333H36.2667V46.9333ZM10.6667 28.8H2.13333V22.4H10.6667V28.8ZM27.7333 28.8H19.2V22.4H27.7333V28.8ZM44.8 28.8H36.2667V22.4H44.8V28.8ZM61.8667 28.8H53.3333V22.4H61.8667V28.8Z" fill="#122333"/>
</svg>
