<svg width="64" height="64" viewBox="0 0 64 64" fill="none" xmlns="http://www.w3.org/2000/svg">
<g clip-path="url(#clip0_1226_404)">
<path d="M41.8977 33.5064L20.031 55.3731L17.759 53.1118C16.255 51.6078 17.0123 49.3464 14.751 48.5891C13.096 47.8235 11.5815 46.7851 10.271 45.5171C9.85748 45.15 9.61299 44.6291 9.59484 44.0764C9.57668 43.5237 9.78646 42.9879 10.175 42.5944L10.2283 42.5518C10.6845 42.0967 11.3305 41.8867 11.967 41.9864C13.8017 42.2744 17.759 42.5518 20.031 40.2904C21.2731 39.0866 22.1999 37.5957 22.7297 35.9491C22.7927 35.7489 22.8251 35.5403 22.8257 35.3304C22.8244 34.5804 22.4269 33.8868 21.7803 33.5064C20.2249 32.5688 19.2739 30.8853 19.2737 29.0691V28.3224C19.2734 27.6912 19.5527 27.0922 20.0365 26.6866C20.5203 26.2811 21.1588 26.1106 21.7803 26.2211C24.6283 26.7331 28.4577 28.0024 33.599 26.7118C36.5323 25.9864 41.8977 22.9464 41.8977 22.9464C41.8977 22.9464 45.6737 20.6851 47.935 22.9464C50.1964 25.2078 41.8977 33.5064 41.8977 33.5064Z" fill="#91562D"/>
<path d="M47.9376 22.9435C46.7493 21.9119 45.0843 21.6303 43.6229 22.2139C44.0403 22.3785 44.4197 22.6268 44.7376 22.9435C46.9989 25.2048 38.7003 33.5034 38.7003 33.5034L18.4336 53.7701L20.0336 55.3701L41.9003 33.5034C41.9003 33.5034 50.1989 25.2048 47.9376 22.9435Z" fill="#6D4122"/>
<path d="M45.6739 35.7666L25.3112 56.1293C24.0578 57.3772 22.0314 57.3772 20.7779 56.1293L20.0312 55.372L41.8979 33.5053C41.8979 33.5053 50.1966 25.2066 47.9352 22.9453C53.9726 28.9826 45.6739 35.7666 45.6739 35.7666Z" fill="#6D4122"/>
<path d="M22.8253 35.3298C22.8247 35.5397 22.7923 35.7483 22.7293 35.9485C22.1994 37.595 21.2727 39.086 20.0306 40.2898C17.7586 42.5511 13.8013 42.2738 11.9666 41.9858C11.33 41.886 10.6841 42.0961 10.2279 42.5511C10.2173 42.5511 2.67593 36.5245 2.67593 36.5245L2.55859 36.4071L15.4973 23.7031H15.5079L19.2733 28.5565V29.0685C19.2735 30.8846 20.2245 32.5682 21.7799 33.5058C22.4264 33.8861 22.8239 34.5797 22.8253 35.3298Z" fill="#FFE0B2"/>
<path d="M9.65625 42.0977C10.004 42.375 10.2269 42.5521 10.229 42.5521C10.3967 42.39 10.5917 42.2589 10.805 42.1649C10.3954 42.1542 10.0072 42.1361 9.65625 42.0977Z" fill="#DFC49C"/>
<path d="M21.7826 33.5058C20.2272 32.5682 19.2761 30.8846 19.2759 29.0685V28.5565L15.5106 23.7031H15.4999L13.6866 25.4802L16.0759 28.5565V29.0685C16.0761 30.8846 17.0272 32.5682 18.5826 33.5058C19.2291 33.8861 19.6266 34.5797 19.6279 35.3298C19.6274 35.5397 19.595 35.7483 19.5319 35.9485C19.0021 37.595 18.0753 39.086 16.8333 40.2898C15.6935 41.3288 14.2405 41.9592 12.7031 42.0818C14.7159 42.3037 18.029 42.2855 20.0333 40.2898C21.2753 39.086 22.2021 37.595 22.7319 35.9485C22.795 35.7483 22.8273 35.5397 22.8279 35.3298C22.8266 34.5797 22.4291 33.8861 21.7826 33.5058Z" fill="#DFC49C"/>
<path d="M1.06641 37.868L15.5325 23.6696C16.3493 22.8524 16.3493 21.5278 15.5325 20.7106L1.06641 2.66797V37.868Z" fill="#02A9F4"/>
<path d="M15.5304 23.6706L15.4984 23.692V23.7026L2.55974 36.4066L1.06641 37.868V34.732L12.3304 23.6706C12.7245 23.28 12.9462 22.7482 12.9462 22.1933C12.9462 21.6384 12.7245 21.1066 12.3304 20.716L1.06641 6.6573V2.66797L15.5304 20.716C15.9245 21.1066 16.1462 21.6384 16.1462 22.1933C16.1462 22.7482 15.9245 23.28 15.5304 23.6706Z" fill="#0377BC"/>
<path d="M60.7997 57.0664H3.19974C2.02153 57.0664 1.06641 58.0215 1.06641 59.1997C1.06641 60.3779 2.02153 61.3331 3.19974 61.3331H60.7997C61.9779 61.3331 62.9331 60.3779 62.9331 59.1997C62.9331 58.0215 61.9779 57.0664 60.7997 57.0664Z" fill="#607D8B"/>
<path d="M60.8016 57.0664H57.6016C58.7798 57.0664 59.7349 58.0215 59.7349 59.1997C59.7349 60.3779 58.7798 61.3331 57.6016 61.3331H60.8016C61.9798 61.3331 62.9349 60.3779 62.9349 59.1997C62.9349 58.0215 61.9798 57.0664 60.8016 57.0664Z" fill="#37474F"/>
<path d="M54.5277 32.8322L39.2072 48.8258C38.7576 49.2944 38.546 49.9422 38.6322 50.5857C38.7183 51.2293 39.0929 51.7986 39.6498 52.1325L41.4632 53.2226C42.2036 53.6669 43.1388 53.621 43.8322 53.1063L62.0733 39.5735C62.614 39.1722 62.9335 38.5392 62.9352 37.8658C62.9369 37.1924 62.6205 36.5578 62.0818 36.1538L57.349 32.6039C56.4863 31.9553 55.275 32.0533 54.5277 32.8322Z" fill="#7F8E94"/>
<path d="M62.0813 36.1529L57.3485 32.603C56.4853 31.955 55.2739 32.0539 54.5272 32.8334L54.4973 32.8644L58.8813 36.1529C59.42 36.5569 59.7364 37.1916 59.7347 37.8649C59.733 38.5383 59.4135 39.1713 58.8728 39.5726L40.9219 52.8953L41.468 53.2228C42.2082 53.6666 43.1429 53.6207 43.836 53.1065L62.0728 39.5748C62.6144 39.1735 62.9344 38.54 62.9361 37.866C62.9378 37.192 62.6209 36.5568 62.0813 36.1529Z" fill="#545C60"/>
<path d="M61.3964 57.1529L56.3084 43.8516L51.8711 47.1476L55.6578 57.0676L61.3964 57.1529Z" fill="#607D8B"/>
<path d="M58.178 57.1049L61.3961 57.1529L56.3081 43.8516L53.8164 45.7022L58.178 57.1049Z" fill="#37474F"/>
<path d="M62.7083 40.4275C63.5188 39.8253 63.9975 38.8759 63.9998 37.8661C64.0021 36.8564 63.5277 35.9048 62.72 35.2989L57.9861 31.748C56.6912 30.7771 54.8753 30.9259 53.7557 32.0947L38.4352 48.0893C37.7621 48.7921 37.4453 49.7629 37.5744 50.7273C37.7035 51.6918 38.2645 52.5452 39.0987 53.0461L40.912 54.1373C42.0215 54.8072 43.4262 54.7385 44.4651 53.9635L51.3696 48.8435L54.1088 56.0008H26.944L46.3467 36.5875C46.5355 36.4339 50.9611 32.7624 51.1904 28.1608C51.2739 25.899 50.3593 23.7148 48.6891 22.1875C45.8677 19.3651 41.5339 21.9155 41.3749 22.0136C41.3216 22.0435 36.0971 24.9896 33.3451 25.6776C30.0769 26.4198 26.6763 26.3465 23.4432 25.4643C22.9269 25.3576 22.4384 25.2509 21.9765 25.1667C21.0441 24.996 20.0841 25.2489 19.3568 25.8568C19.1903 25.9984 19.0384 26.1563 18.9035 26.3283L16.8309 23.6616C17.4865 22.4634 17.284 20.9777 16.3317 19.9987L1.89867 2.00079C1.61545 1.64778 1.1403 1.51192 0.713285 1.66186C0.286267 1.8118 0.000352619 2.21488 0 2.66746V37.8675C3.424e-05 38.297 0.257759 38.6847 0.653867 38.8509C0.784468 38.9062 0.92487 38.9344 1.06667 38.9341C1.34589 38.9341 1.61397 38.8246 1.81333 38.6291L2.61653 37.8397C5.93387 40.4904 7.7664 41.9517 8.8192 42.7357C8.23764 43.9611 8.54282 45.4238 9.56587 46.3144C10.9682 47.6946 12.6098 48.8082 14.4107 49.6008C15.1765 49.8557 15.3461 50.3101 15.6555 51.3075C15.8812 52.2624 16.3475 53.1437 17.0101 53.8675L19.1435 56.0008H3.2C1.43269 56.0008 0 57.4335 0 59.2008C0 60.9681 1.43269 62.4008 3.2 62.4008H60.8C62.2824 62.4057 63.5729 61.3889 63.9149 59.9465C64.257 58.5041 63.5604 57.0161 62.2336 56.3549L57.5936 44.2237L62.7083 40.4275ZM43.2 52.2493C42.8535 52.5066 42.3862 52.5297 42.016 52.308L40.2027 51.2168C39.9245 51.0499 39.7374 50.7655 39.6942 50.444C39.651 50.1225 39.7565 49.7989 39.9808 49.5645L55.296 33.5709C55.6691 33.1805 56.2752 33.1306 56.7072 33.4547L61.44 37.0045C61.7086 37.206 61.8667 37.5221 61.8667 37.8579C61.8667 38.1936 61.7086 38.5098 61.44 38.7112L43.2 52.2493ZM44.9173 35.0109L24.5536 55.3757C24.1535 55.7763 23.6105 56.0014 23.0443 56.0014C22.4781 56.0014 21.9351 55.7763 21.5349 55.3757L42.6549 34.2557C44.4128 32.4989 47.5403 29.1176 48.8107 26.2077C49.0077 26.7991 49.0927 27.422 49.0613 28.0445C48.8832 31.7021 45.0347 34.9085 44.9173 35.0109ZM2.13333 5.70319L14.6997 21.3832C14.7253 21.4141 14.7509 21.4429 14.7776 21.4707C15.1773 21.8671 15.1807 22.5123 14.7851 22.9128L2.13333 35.3256V5.70319ZM15.3973 25.2957L18.2059 28.9075V29.0675C18.2124 31.2566 19.3602 33.2839 21.2341 34.4157C21.6553 34.6639 21.8519 35.1682 21.7099 35.636C21.2278 37.1156 20.391 38.4548 19.2725 39.5368C17.3216 41.4888 13.6192 41.1645 12.1259 40.9341C11.4979 40.8433 10.8573 40.9495 10.2923 41.2381C9.11893 40.3037 6.3808 38.1192 4.1472 36.3315L15.3973 25.2957ZM17.6939 50.6824C17.4476 49.2523 16.4514 48.0651 15.0859 47.5741C13.5661 46.8573 12.1775 45.8903 10.9781 44.7133C10.7819 44.5428 10.6659 44.298 10.6581 44.0381C10.653 43.7577 10.7698 43.4888 10.9781 43.3011C11.157 43.1252 11.3982 43.0274 11.6491 43.0291C11.6994 43.0287 11.7498 43.0326 11.7995 43.0408C14.0608 43.3896 18.2304 43.5901 20.7776 41.0429C22.1427 39.7172 23.1629 38.0777 23.7493 36.2675C24.1817 34.861 23.5961 33.3412 22.3317 32.5885C21.0982 31.8439 20.3428 30.5094 20.3392 29.0685V28.3219C20.3383 28.0037 20.4795 27.7017 20.7243 27.4984C20.9653 27.2968 21.2836 27.2131 21.5925 27.2701C22.0363 27.3501 22.5056 27.4504 23.0005 27.5549C26.5507 28.5043 30.2791 28.5717 33.8613 27.7512C36.8949 26.9939 42.2005 24.0008 42.4469 23.8621C42.4768 23.844 45.5403 22.0584 47.1797 23.7C47.8624 24.3816 45.3227 28.5715 41.1456 32.7507L20.0267 53.8675L18.5184 52.3592C18.1081 51.8765 17.8247 51.2991 17.6939 50.6792V50.6824ZM60.8 60.2675H3.2C2.6109 60.2675 2.13333 59.7899 2.13333 59.2008C2.13333 58.6117 2.6109 58.1341 3.2 58.1341H60.8C61.3891 58.1341 61.8667 58.6117 61.8667 59.2008C61.8667 59.7899 61.3891 60.2675 60.8 60.2675ZM59.8144 56.0008H56.3936L53.1552 47.5176L55.8155 45.5443L59.8144 56.0008Z" fill="black"/>
</g>
<defs>
<clipPath id="clip0_1226_404">
<rect width="64" height="64" fill="white"/>
</clipPath>
</defs>
</svg>
