<svg width="24" height="24" viewBox="0 0 24 24" fill="none" xmlns="http://www.w3.org/2000/svg">
<g clip-path="url(#clip0_1547_723)">
<path d="M23.7648 9.89505C23.701 9.84466 23.0929 9.38444 21.8096 9.38444C21.4704 9.38444 21.1344 9.41467 20.7985 9.47177C20.5499 7.77194 19.1456 6.94216 19.0818 6.90522L18.7392 6.70703L18.5141 7.03291C18.2319 7.47297 18.0236 7.95672 17.9027 8.464C17.6743 9.43483 17.812 10.3452 18.3058 11.1246C17.7112 11.4572 16.7538 11.5378 16.5623 11.5445H0.74996C0.336756 11.5445 0.000849794 11.8804 0.000849794 12.2903C-0.0159315 13.6743 0.215866 15.0517 0.692866 16.3517C1.23708 17.7794 2.04666 18.8309 3.10154 19.4759C4.28401 20.1981 6.20223 20.6113 8.37906 20.6113C9.36334 20.6147 10.3443 20.524 11.3084 20.3459C12.6521 20.1007 13.9455 19.6304 15.1314 18.9552C16.1089 18.3875 16.9924 17.6652 17.7416 16.8186C18.9946 15.401 19.7404 13.8221 20.2947 12.4179C20.3686 12.4179 20.4425 12.4179 20.5164 12.4179C21.887 12.4179 22.7302 11.8703 23.1971 11.4101C23.5062 11.1178 23.7481 10.7584 23.9026 10.362L24 10.0731L23.7648 9.89505Z" fill="#2496ED"/>
<path d="M2.21603 11.0817H4.33577C4.43655 11.0817 4.52055 10.9977 4.52055 10.8969V9.009C4.52055 8.90822 4.43992 8.82422 4.33577 8.82422H2.21603C2.11525 8.82422 2.03125 8.90822 2.03125 9.009V10.8969C2.03125 10.9977 2.11525 11.0817 2.21603 11.0817Z" fill="#2496ED"/>
<path d="M5.13009 11.0817H7.24983C7.35061 11.0817 7.43461 10.9977 7.43461 10.8969V9.009C7.43461 8.90822 7.35398 8.82422 7.24983 8.82422H5.13009C5.02594 8.82422 4.94531 8.90822 4.94531 9.009V10.8969C4.94531 10.9977 5.02931 11.0817 5.13009 11.0817Z" fill="#2496ED"/>
<path d="M8.09884 11.0817H10.2186C10.3194 11.0817 10.4034 10.9977 10.4034 10.8969V9.009C10.4034 8.90822 10.3227 8.82422 10.2186 8.82422H8.09884C7.99806 8.82422 7.91406 8.90822 7.91406 9.009V10.8969C7.91406 10.9977 7.99469 11.0817 8.09884 11.0817Z" fill="#2496ED"/>
<path d="M11.0285 11.0817H13.1483C13.249 11.0817 13.333 10.9977 13.333 10.8969V9.009C13.333 8.90484 13.249 8.82422 13.1483 8.82422H11.0285C10.9278 8.82422 10.8438 8.90822 10.8438 9.009V10.8969C10.8438 10.9977 10.9244 11.0817 11.0285 11.0817Z" fill="#2496ED"/>
<path d="M5.13009 8.36687H7.24983C7.35061 8.36687 7.43461 8.28288 7.43461 8.18209V6.29416C7.43461 6.19338 7.35061 6.10938 7.24983 6.10938H5.13009C5.02931 6.10938 4.94531 6.19338 4.94531 6.29416V8.18209C4.94531 8.28292 5.02931 8.36687 5.13009 8.36687Z" fill="#2496ED"/>
<path d="M8.09884 8.36687H10.2186C10.3194 8.36687 10.4034 8.28288 10.4034 8.18209V6.29416C10.4034 6.19338 10.3194 6.10938 10.2186 6.10938H8.09884C7.99806 6.10938 7.91406 6.19338 7.91406 6.29416V8.18209C7.91406 8.28292 7.99469 8.36687 8.09884 8.36687Z" fill="#2496ED"/>
<path d="M11.0285 8.36687H13.1483C13.2524 8.36687 13.333 8.28288 13.333 8.18209V6.29416C13.333 6.19338 13.249 6.10938 13.1483 6.10938H11.0285C10.9278 6.10938 10.8438 6.19338 10.8438 6.29416V8.18209C10.8438 8.28292 10.9244 8.36687 11.0285 8.36687Z" fill="#2496ED"/>
<path d="M11.0285 5.64812H13.1483C13.249 5.64812 13.333 5.56412 13.333 5.46334V3.57541C13.333 3.47463 13.249 3.39062 13.1483 3.39062H11.0285C10.9278 3.39062 10.8438 3.47463 10.8438 3.57541V5.46334C10.8438 5.5675 10.9244 5.64812 11.0285 5.64812Z" fill="#2496ED"/>
<path d="M13.9817 11.0817H16.1014C16.2022 11.0817 16.2862 10.9977 16.2862 10.8969V9.009C16.2862 8.90484 16.2022 8.82422 16.1014 8.82422H13.9817C13.8809 8.82422 13.7969 8.90822 13.7969 9.009V10.8969C13.7969 10.9977 13.8809 11.0817 13.9817 11.0817Z" fill="#2496ED"/>
</g>
<defs>
<clipPath id="clip0_1547_723">
<rect width="24" height="24" fill="white"/>
</clipPath>
</defs>
</svg>
