<svg width="44" height="44" viewBox="0 0 44 44" fill="none" xmlns="http://www.w3.org/2000/svg">
<path d="M8.0638 20.5351V14.6685H4.39714H0.730469V20.5351H4.39714H8.0638Z" fill="#ABE9FE"/>
<path d="M19.7943 14.6685H16.1276H12.4609V20.5351H19.7943V14.6685Z" fill="#ABE9FE"/>
<path d="M8.0638 33.0014V27.1348H4.39714H0.730469V33.0014H4.39714H8.0638Z" fill="#ABE9FE"/>
<path d="M25.6654 27.1348H21.9987H18.332V33.0014H21.9987H25.6654V27.1348Z" fill="#ABE9FE"/>
<path d="M8.0638 37.3989H4.39714H0.730469V43.2656H8.0638V37.3989Z" fill="#ABE9FE"/>
<path d="M25.6693 40.3323V37.3989H22.0026H18.3359V43.2656H25.6693V40.3323Z" fill="#ABE9FE"/>
<path d="M35.9375 40.3323V43.2656H43.2708V37.3989H35.9375V40.3323Z" fill="#ABE9FE"/>
<path d="M31.5365 14.6685H27.8698H24.2031V20.5351H31.5365V14.6685Z" fill="#ABE9FE"/>
<path d="M35.9336 14.6685V20.5351H43.2669V14.6685H39.6003H35.9336Z" fill="#ABE9FE"/>
<path d="M16.1339 0.733398H5.86719V5.86673H11.0005H16.1339V0.733398Z" fill="#ABE9FE"/>
<path d="M43.2667 13.9333H40.3333V10.2667C40.3333 9.86113 40.0048 9.53333 39.6 9.53333H11.7333V6.6H16.1333C16.5381 6.6 16.8667 6.2722 16.8667 5.86667V0.733333C16.8667 0.3278 16.5381 0 16.1333 0H5.86667C5.46187 0 5.13333 0.3278 5.13333 0.733333V5.86667C5.13333 6.2722 5.46187 6.6 5.86667 6.6H10.2667V9.53333H4.4C3.9952 9.53333 3.66667 9.86113 3.66667 10.2667V13.9333H0.733333C0.328533 13.9333 0 14.2611 0 14.6667V20.5333C0 20.9389 0.328533 21.2667 0.733333 21.2667H3.66667V26.4H0.733333C0.328533 26.4 0 26.7278 0 27.1333V33C0 33.4055 0.328533 33.7333 0.733333 33.7333H3.66667V36.6667H0.733333C0.328533 36.6667 0 36.9945 0 37.4V43.2667C0 43.6722 0.328533 44 0.733333 44H8.06667C8.47147 44 8.8 43.6722 8.8 43.2667V37.4C8.8 36.9945 8.47147 36.6667 8.06667 36.6667H5.13333V33.7333H8.06667C8.47147 33.7333 8.8 33.4055 8.8 33V27.1333C8.8 26.7278 8.47147 26.4 8.06667 26.4H5.13333V24.9333H21.2667V26.4H18.3333C17.9285 26.4 17.6 26.7278 17.6 27.1333V33C17.6 33.4055 17.9285 33.7333 18.3333 33.7333H21.2667V36.6667H18.3333C17.9285 36.6667 17.6 36.9945 17.6 37.4V43.2667C17.6 43.6722 17.9285 44 18.3333 44H25.6667C26.0715 44 26.4 43.6722 26.4 43.2667V41.0667H35.2V43.2667C35.2 43.6722 35.5285 44 35.9333 44H43.2667C43.6715 44 44 43.6722 44 43.2667V37.4C44 36.9945 43.6715 36.6667 43.2667 36.6667H35.9333C35.5285 36.6667 35.2 36.9945 35.2 37.4V39.6H26.4V37.4C26.4 36.9945 26.0715 36.6667 25.6667 36.6667H22.7333V33.7333H25.6667C26.0715 33.7333 26.4 33.4055 26.4 33V27.1333C26.4 26.7278 26.0715 26.4 25.6667 26.4H22.7333V24.2C22.7333 23.7945 22.4048 23.4667 22 23.4667H5.13333V21.2667H8.06667C8.47147 21.2667 8.8 20.9389 8.8 20.5333V14.6667C8.8 14.2611 8.47147 13.9333 8.06667 13.9333H5.13333V11H15.4V13.9333H12.4667C12.0619 13.9333 11.7333 14.2611 11.7333 14.6667V20.5333C11.7333 20.9389 12.0619 21.2667 12.4667 21.2667H19.8C20.2048 21.2667 20.5333 20.9389 20.5333 20.5333V14.6667C20.5333 14.2611 20.2048 13.9333 19.8 13.9333H16.8667V11H27.1333V13.9333H24.2C23.7952 13.9333 23.4667 14.2611 23.4667 14.6667V20.5333C23.4667 20.9389 23.7952 21.2667 24.2 21.2667H31.5333C31.9381 21.2667 32.2667 20.9389 32.2667 20.5333V14.6667C32.2667 14.2611 31.9381 13.9333 31.5333 13.9333H28.6V11H38.8667V13.9333H35.9333C35.5285 13.9333 35.2 14.2611 35.2 14.6667V20.5333C35.2 20.9389 35.5285 21.2667 35.9333 21.2667H43.2667C43.6715 21.2667 44 20.9389 44 20.5333V14.6667C44 14.2611 43.6715 13.9333 43.2667 13.9333ZM6.6 1.46667H15.4V5.13333H6.6V1.46667ZM7.33333 42.5333H1.46667V38.1333H7.33333V42.5333ZM7.33333 32.2667H1.46667V27.8667H7.33333V32.2667ZM36.6667 38.1333H42.5333V42.5333H36.6667V38.1333ZM24.9333 42.5333H19.0667V38.1333H24.9333V42.5333ZM24.9333 32.2667H19.0667V27.8667H24.9333V32.2667ZM7.33333 19.8H1.46667V15.4H7.33333V19.8ZM19.0667 19.8H13.2V15.4H19.0667V19.8ZM30.8 19.8H24.9333V15.4H30.8V19.8ZM42.5333 19.8H36.6667V15.4H42.5333V19.8Z" fill="black"/>
</svg>
