<svg width="49" height="64" viewBox="0 0 49 64" fill="none" xmlns="http://www.w3.org/2000/svg">
<path d="M17 23.3359L2 32.0026V46.6941C2 48.1227 2.76191 49.4428 3.99889 50.1575L17 57.6693V40.6693V23.3359Z" stroke="white" stroke-width="4"/>
<path d="M45.0011 50.1549C46.2381 49.4402 47 48.1201 47 46.6915V32L32 40.6667L25.5006 44.4219C24.8815 44.7796 24.1185 44.7796 23.4994 44.4219L17 40.6667V57.6667L22.4989 60.8438C23.7371 61.5592 25.2629 61.5592 26.5011 60.8438L39.2115 53.5L45.0011 50.1549Z" stroke="white" stroke-width="4"/>
<path d="M47 32.0026V17.3112C47 15.8825 46.2381 14.5624 45.0011 13.8477L32 6.33594V23.3359V40.6693L47 32.0026Z" stroke="white" stroke-width="4"/>
<path d="M3.99889 13.8451C2.76191 14.5598 2 15.8799 2 17.3085V32L17 23.3333L23.4994 19.5781C24.1185 19.2204 24.8815 19.2204 25.5006 19.5781L32 23.3333V6.33333L26.5011 3.1562C25.2629 2.44081 23.7371 2.44081 22.4989 3.1562L9.78846 10.5L3.99889 13.8451Z" stroke="white" stroke-width="4"/>
</svg>
