<svg width="66" height="74" viewBox="0 0 66 74" fill="none" xmlns="http://www.w3.org/2000/svg">
<g clip-path="url(#clip0_1886_18470)">
<path d="M21.7079 30.4268C11.5644 30.4268 3.61719 34.0033 3.61719 38.5676C3.61719 43.1319 11.5644 46.7084 21.7079 46.7084C31.8513 46.7084 39.7986 43.1319 39.7986 38.5676C39.7986 34.0033 31.8513 30.4268 21.7079 30.4268ZM21.7079 44.8994C12.1126 44.8994 5.42623 41.5616 5.42623 38.5676C5.42623 35.5735 12.1126 32.2358 21.7079 32.2358C31.3032 32.2358 37.9895 35.5735 37.9895 38.5676C37.9895 41.5616 31.3032 44.8994 21.7079 44.8994Z" fill="white"/>
<path d="M38.8942 46.7085C38.3949 46.7085 37.9896 47.1138 37.9896 47.6131C37.9896 50.6071 31.3033 53.9448 21.708 53.9448C12.1126 53.9448 5.42632 50.6071 5.42632 47.6131C5.42632 47.1138 5.02106 46.7085 4.52175 46.7085C4.02245 46.7085 3.61719 47.1138 3.61719 47.6131C3.61719 52.1773 11.5644 55.7539 21.7079 55.7539C31.8513 55.7539 39.7986 52.1773 39.7986 47.6131C39.7987 47.1138 39.3935 46.7085 38.8942 46.7085Z" fill="white"/>
<path d="M38.8942 55.754C38.3949 55.754 37.9896 56.1593 37.9896 56.6586C37.9896 59.6525 31.3033 62.9903 21.708 62.9903C12.1126 62.9903 5.42632 59.6525 5.42632 56.6585C5.42632 56.1592 5.02106 55.7539 4.52175 55.7539C4.02245 55.7539 3.61719 56.1592 3.61719 56.6585C3.61719 61.2228 11.5644 64.7993 21.7079 64.7993C31.8513 64.7993 39.7986 61.2228 39.7986 56.6585C39.7987 56.1592 39.3935 55.754 38.8942 55.754Z" fill="white"/>
<path d="M38.8941 37.6633C38.3948 37.6633 37.9895 38.0686 37.9895 38.5679V65.704C37.9895 68.698 31.3032 72.0357 21.7079 72.0357C12.1126 72.0357 5.42623 68.698 5.42623 65.704V38.5679C5.42623 38.0686 5.02097 37.6633 4.52167 37.6633C4.02236 37.6633 3.61719 38.0686 3.61719 38.5679V65.704C3.61719 70.2683 11.5644 73.8448 21.7079 73.8448C31.8513 73.8448 39.7986 70.2683 39.7986 65.704V38.5679C39.7986 38.0686 39.3934 37.6633 38.8941 37.6633Z" fill="white"/>
</g>
<path d="M57.5 0C55.2373 0 53.6464 0.984625 53.4891 1.04513L49.7311 6.68194L51.4867 8.4375L48.0243 11.8999L48.902 15.4111L46.4101 12.0886L48.3282 8.25244L46.3851 6.30938L47.8584 1.88969C47.5342 1.72175 45.6676 6.25849e-05 42.5 6.25849e-05C37.3581 8.48741e-08 34 4.15206 34 9.41806C34 16.2995 39.5787 19.7524 49.5769 28.3391L50.1788 28.8536L50.7879 28.3481C60.428 20.3466 66 15.8445 66 9.41806C66 4.1515 62.6412 0 57.5 0ZM50.1971 26.4017C40.7183 18.3086 35.875 15.1979 35.875 9.41806C35.875 4.97681 38.5993 1.875 42.5 1.875C43.5973 1.875 44.664 2.14806 45.6219 2.66975L44.2399 6.81569L46.0468 8.62263L44.2149 12.2865L52.973 23.964L50.1007 12.4751L54.1383 8.43756L52.1439 6.44313L54.7715 2.50175C55.6626 2.08569 56.5794 1.875 57.5 1.875C61.4007 1.875 64.125 4.97681 64.125 9.418C64.125 14.7264 59.4708 18.7019 50.1971 26.4017Z" fill="white"/>
<defs>
<clipPath id="clip0_1886_18470">
<rect width="43.4177" height="43.4177" fill="white" transform="translate(0 30.4268)"/>
</clipPath>
</defs>
</svg>
