<svg width="150" height="64" viewBox="0 0 150 64" fill="none" xmlns="http://www.w3.org/2000/svg">
<path d="M75 59C89.9117 59 102 46.9117 102 32C102 17.0883 89.9117 5 75 5C60.0883 5 48 17.0883 48 32C48 46.9117 60.0883 59 75 59Z" fill="#46F8FF"/>
<path d="M101.998 32.0001C102 37.6427 100.234 43.144 96.947 47.7306C93.6604 52.3172 89.019 55.7584 83.6753 57.5706C78.3317 59.3827 72.5544 59.4745 67.1559 57.8332C61.7573 56.1919 57.0089 52.8999 53.5781 48.4201C57.5749 51.4882 62.3508 53.3761 67.3651 53.8702C72.3794 54.3642 77.4319 53.4446 81.9506 51.2154C86.4693 48.9863 90.2736 45.5366 92.933 41.257C95.5924 36.9773 97.0006 32.0387 96.9981 27.0001C97.0118 21.0592 95.0487 15.2825 91.4181 10.5801C94.7113 13.0953 97.3794 16.3368 99.2145 20.0521C101.05 23.7674 102.002 27.8563 101.998 32.0001Z" fill="#00D7DF"/>
<path d="M84.0001 22V40L83.9201 40.19H66.0801L66.0001 40V22C65.995 20.9453 66.2749 19.9088 66.8101 19C67.335 18.0878 68.0912 17.3301 69.0024 16.8034C69.9136 16.2767 70.9476 15.9996 72.0001 16H78.0001C79.0525 15.9996 80.0865 16.2767 80.9977 16.8034C81.9089 17.3301 82.6651 18.0878 83.1901 19C83.7253 19.9088 84.0051 20.9453 84.0001 22Z" fill="#57565C"/>
<path d="M84 22V40L83.92 40.19H80.92L81 40V22C81.005 20.9453 80.7252 19.9088 80.19 19C79.6651 18.0878 78.9089 17.3301 77.9977 16.8034C77.0865 16.2767 76.0525 15.9996 75 16H78C79.0525 15.9996 80.0865 16.2767 80.9977 16.8034C81.9089 17.3301 82.6651 18.0878 83.19 19C83.7252 19.9088 84.005 20.9453 84 22Z" fill="#3E3D42"/>
<path d="M88 42V48H62V42L71 38H79L88 42Z" fill="#FF7956"/>
<path d="M87.9995 42V48H83.9995V42L77.7695 39.23L78.9995 38L87.9995 42Z" fill="#FF5023"/>
<path d="M81 23V29C81 30.5913 80.3679 32.1174 79.2426 33.2426C78.1174 34.3679 76.5913 35 75 35C73.4087 35 71.8826 34.3679 70.7574 33.2426C69.6321 32.1174 69 30.5913 69 29V23L78 21L81 23Z" fill="#FFDAAA"/>
<path d="M81 23V29C81.0008 29.7882 80.8461 30.5687 80.5449 31.297C80.2436 32.0253 79.8017 32.6871 79.2444 33.2444C78.6871 33.8017 78.0253 34.2436 77.297 34.5449C76.5687 34.8461 75.7882 35.0008 75 35C74.4933 35.0001 73.9889 34.9329 73.5 34.8C73.7595 34.7412 74.0138 34.6609 74.26 34.56C75.365 34.1094 76.3109 33.3399 76.9769 32.3497C77.643 31.3595 77.9992 30.1934 78 29V23L75.75 21.5L78 21L81 23Z" fill="#FFB655"/>
<path d="M77.26 34.5586L78 38.9986L75 41.9986L72 38.9986L72.74 34.5586C74.1896 35.1453 75.8104 35.1453 77.26 34.5586Z" fill="#FFDAAA"/>
<path d="M78 34.1914V36.1914C77.0892 36.7219 76.054 37.0013 75 37.0013C73.946 37.0013 72.9108 36.7219 72 36.1914V34.1914C72.9108 34.7219 73.946 35.0013 75 35.0013C76.054 35.0013 77.0892 34.7219 78 34.1914Z" fill="#FFB655"/>
<path d="M102.97 31C102.74 24.2693 100.079 17.85 95.48 12.93L96.92 11.49L95.51 10.08L94.07 11.52C89.15 6.92122 82.7307 4.2604 76 4.03V2H74V4.03C67.2693 4.2604 60.85 6.92122 55.93 11.52L54.49 10.08L53.08 11.49L54.52 12.93C49.9212 17.85 47.2604 24.2693 47.03 31H45V33H47.03C47.2604 39.7307 49.9212 46.15 54.52 51.07L53.08 52.51L54.49 53.92L55.93 52.48C60.85 57.0788 67.2693 59.7396 74 59.97V62H76V59.97C82.7307 59.7396 89.15 57.0788 94.07 52.48L95.51 53.92L96.92 52.51L95.48 51.07C100.079 46.15 102.74 39.7307 102.97 33H105V31H102.97ZM100.97 33C100.739 39.1974 98.2903 45.1058 94.07 49.65L92.68 48.26L91.26 49.68L92.65 51.07C88.1058 55.2903 82.1974 57.7388 76 57.97V56H74V57.97C67.8026 57.7388 61.8942 55.2903 57.35 51.07L58.74 49.68L57.32 48.26L55.93 49.65C51.7097 45.1058 49.2612 39.1974 49.03 33H51V31H49.03C49.2612 24.8026 51.7097 18.8942 55.93 14.35L57.32 15.74L58.74 14.32L57.35 12.93C61.8942 8.70971 67.8026 6.26118 74 6.03V8H76V6.03C82.1974 6.26118 88.1058 8.70971 92.65 12.93L91.26 14.32L92.68 15.74L94.07 14.35C98.2903 18.8942 100.739 24.8026 100.97 31H99V33H100.97Z" fill="black"/>
<path d="M47 4H54V2H46C45.7348 2 45.4804 2.10536 45.2929 2.29289C45.1054 2.48043 45 2.73478 45 3V11H47V4Z" fill="black"/>
<path d="M104 2H96V4H103V11H105V3C105 2.73478 104.895 2.48043 104.707 2.29289C104.52 2.10536 104.265 2 104 2Z" fill="black"/>
<path d="M47 53H45V61C45 61.2652 45.1054 61.5196 45.2929 61.7071C45.4804 61.8946 45.7348 62 46 62H54V60H47V53Z" fill="black"/>
<path d="M103 60H96V62H104C104.265 62 104.52 61.8946 104.707 61.7071C104.895 61.5196 105 61.2652 105 61V53H103V60Z" fill="black"/>
<path d="M88.41 41.09L85 39.57V22C84.9979 20.1441 84.2597 18.3649 82.9474 17.0526C81.6351 15.7403 79.8559 15.0021 78 15H72C70.1442 15.0021 68.3649 15.7403 67.0526 17.0526C65.7403 18.3649 65.0021 20.1441 65 22V39.57L61.59 41.09C61.4136 41.1675 61.2637 41.295 61.1588 41.4567C61.054 41.6184 60.9988 41.8073 61 42V48C61 48.2652 61.1054 48.5196 61.2929 48.7071C61.4804 48.8946 61.7348 49 62 49H88C88.2653 49 88.5196 48.8946 88.7071 48.7071C88.8947 48.5196 89 48.2652 89 48V42C89.0013 41.8073 88.9461 41.6184 88.8412 41.4567C88.7364 41.295 88.5865 41.1675 88.41 41.09ZM67 22C67 20.6739 67.5268 19.4021 68.4645 18.4645C69.4022 17.5268 70.6739 17 72 17H78C79.3261 17 80.5979 17.5268 81.5356 18.4645C82.4732 19.4021 83 20.6739 83 22V38.68L79.41 37.09C79.1833 36.9857 78.9246 36.9749 78.69 37.06L78.37 35.13C79.4684 34.5267 80.3847 33.6396 81.0232 32.5613C81.6617 31.4831 81.9991 30.2531 82 29V23C81.9992 22.8353 81.9577 22.6733 81.8792 22.5285C81.8006 22.3838 81.6876 22.2606 81.55 22.17L78.55 20.17C78.323 20.0209 78.0464 19.967 77.78 20.02L68.78 22.02C68.5591 22.0726 68.3622 22.1977 68.2208 22.3753C68.0794 22.553 68.0017 22.7729 68 23V29C68.001 30.2531 68.3383 31.4831 68.9769 32.5613C69.6154 33.6396 70.5317 34.5267 71.63 35.13L71.31 37.06C71.0754 36.9749 70.8167 36.9857 70.59 37.09L67 38.68V22ZM75 34C73.6739 34 72.4022 33.4732 71.4645 32.5355C70.5268 31.5979 70 30.3261 70 29V23.8L77.8 22.07L80 23.54V29C80 30.3261 79.4732 31.5979 78.5356 32.5355C77.5979 33.4732 76.3261 34 75 34ZM76.93 38.66L75 40.59L73.07 38.66L73.54 35.84C74.5017 36.0533 75.4984 36.0533 76.46 35.84L76.93 38.66ZM87 47H63V42.65L70.78 39.19L74.29 42.71C74.4788 42.8974 74.734 43.0025 75 43.0025C75.266 43.0025 75.5212 42.8974 75.71 42.71L79.22 39.19L87 42.65V47Z" fill="black"/>
<path d="M76 26H78V28H76V26Z" fill="black"/>
<path d="M72 26H74V28H72V26Z" fill="black"/>
</svg>
