<svg width="176" height="176" viewBox="0 0 176 176" fill="none" xmlns="http://www.w3.org/2000/svg">
<mask id="mask0_1885_12417" style="mask-type:alpha" maskUnits="userSpaceOnUse" x="0" y="48" width="128" height="128">
<circle cx="64" cy="112" r="64" fill="#FEF284"/>
</mask>
<g mask="url(#mask0_1885_12417)">
<circle cx="64" cy="112" r="64" fill="#FEF284"/>
<path d="M153.238 106.206H60.3984V96.903C60.3984 94.9269 62.088 93.3251 64.1723 93.3251H149.464C151.548 93.3251 153.238 94.9269 153.238 96.903V106.206Z" fill="#9DC6FB"/>
<path d="M149.464 169.971H64.1723C62.088 169.971 60.3984 168.37 60.3984 166.394V106.169H153.238V166.394C153.238 168.37 151.548 169.971 149.464 169.971Z" fill="#F4FBFF"/>
<path d="M126.444 101.913C127.695 101.913 128.708 100.952 128.708 99.7664C128.708 98.5808 127.695 97.6196 126.444 97.6196C125.193 97.6196 124.18 98.5808 124.18 99.7664C124.18 100.952 125.193 101.913 126.444 101.913Z" fill="black"/>
<path d="M149.466 92H64.1749C61.3215 92 59 94.201 59 96.9061V145.99C59 146.723 59.6271 147.318 60.401 147.318C61.1749 147.318 61.802 146.723 61.802 145.99V107.537H151.839V118.726C151.839 119.459 152.466 120.054 153.24 120.054C154.014 120.054 154.641 119.459 154.641 118.726V96.9061C154.641 94.201 152.32 92 149.466 92ZM61.802 96.9061C61.802 95.6657 62.8664 94.6565 64.1749 94.6565H149.466C150.775 94.6565 151.839 95.6657 151.839 96.9061V104.881H61.802V96.9061Z" fill="black"/>
<path d="M153.24 123.594C152.466 123.594 151.839 124.189 151.839 124.922V166.432C151.839 167.672 150.775 168.681 149.467 168.681H64.1743C62.8662 168.681 61.802 167.672 61.802 166.432V152.009C61.802 151.276 61.1749 150.681 60.401 150.681C59.6271 150.681 59 151.276 59 152.009V166.432C59 169.137 61.3212 171.338 64.1743 171.338H149.467C152.32 171.338 154.641 169.137 154.641 166.432V124.922C154.641 124.189 154.014 123.594 153.24 123.594Z" fill="black"/>
<path d="M108.064 120.865H101.467C99.1334 120.865 97.2412 122.658 97.2412 124.871V131.002H92.359C90.0251 131.002 88.1328 132.796 88.1328 135.009V141.638C88.1328 143.851 90.0251 145.645 92.359 145.645H96.9143C97.5322 145.645 98.0332 145.17 98.0332 144.584V141.235C98.0332 138.694 100.206 136.634 102.886 136.634H110.508C111.492 136.634 112.29 135.878 112.29 134.945V124.872C112.29 122.658 110.398 120.865 108.064 120.865Z" fill="#5290DB"/>
<path d="M121.142 130.626H116.587C115.969 130.626 115.468 131.101 115.468 131.687V135.036C115.468 137.577 113.295 139.636 110.615 139.636H102.993C102.009 139.636 101.211 140.393 101.211 141.326V151.399C101.211 153.611 103.103 155.405 105.437 155.405H112.034C114.368 155.405 116.26 153.612 116.26 151.399V145.268H121.142C123.476 145.268 125.368 143.474 125.368 141.261V134.632C125.368 132.42 123.476 130.626 121.142 130.626Z" fill="#FC8C48"/>
<path d="M102.782 127.619C103.766 127.619 104.564 126.863 104.564 125.929C104.564 124.996 103.766 124.24 102.782 124.24C101.798 124.24 101 124.996 101 125.929C101 126.863 101.798 127.619 102.782 127.619Z" fill="#EDF4FC"/>
<path d="M110.72 152.022C111.704 152.022 112.502 151.266 112.502 150.333C112.502 149.4 111.704 148.643 110.72 148.643C109.735 148.643 108.938 149.4 108.938 150.333C108.938 151.266 109.735 152.022 110.72 152.022Z" fill="#EDF4FC"/>
<path d="M96.9189 146.53H92.3633C89.5179 146.53 87.2031 144.335 87.2031 141.638V135.008C87.2031 132.311 89.5179 130.116 92.3633 130.116H96.3118V124.871C96.3118 122.174 98.6267 119.979 101.472 119.979H108.069C110.914 119.979 113.229 122.174 113.229 124.871V134.944C113.229 136.364 112.01 137.519 110.513 137.519H102.891C100.73 137.519 98.9722 139.186 98.9722 141.234V144.583C98.9719 145.656 98.0506 146.53 96.9189 146.53ZM92.3633 131.887C90.548 131.887 89.0711 133.287 89.0711 135.008V141.638C89.0711 143.359 90.548 144.759 92.3633 144.759H96.9186C97.0206 144.759 97.1035 144.68 97.1035 144.583V141.234C97.1035 138.209 99.6993 135.748 102.89 135.748H110.513C110.98 135.748 111.36 135.387 111.36 134.944V124.871C111.36 123.15 109.883 121.75 108.068 121.75H101.471C99.6559 121.75 98.1791 123.15 98.1791 124.871V131.002C98.1791 131.491 97.761 131.887 97.2451 131.887H92.3633V131.887Z" fill="black"/>
<path d="M104.574 131.891H97.4457C96.9298 131.891 96.5117 131.494 96.5117 131.005C96.5117 130.516 96.9298 130.12 97.4457 130.12H104.574C105.09 130.12 105.508 130.516 105.508 131.005C105.508 131.494 105.09 131.891 104.574 131.891Z" fill="black"/>
<path d="M112.038 156.291H105.441C102.596 156.291 100.281 154.096 100.281 151.399V141.325C100.281 139.906 101.5 138.751 102.997 138.751H110.619C112.78 138.751 114.538 137.084 114.538 135.036V131.686C114.538 130.613 115.459 129.74 116.591 129.74H121.146C123.991 129.74 126.306 131.935 126.306 134.632V141.262C126.306 143.959 123.991 146.154 121.146 146.154H117.198V151.399C117.198 154.096 114.883 156.291 112.038 156.291ZM102.997 140.522C102.53 140.522 102.149 140.883 102.149 141.326V151.399C102.149 153.12 103.626 154.52 105.441 154.52H112.038C113.853 154.52 115.33 153.12 115.33 151.399V145.268C115.33 144.779 115.748 144.383 116.264 144.383H121.146C122.961 144.383 124.439 142.983 124.439 141.262V134.632C124.439 132.911 122.962 131.511 121.146 131.511H116.591C116.489 131.511 116.406 131.59 116.406 131.686V135.036C116.406 138.061 113.81 140.522 110.619 140.522H102.997V140.522Z" fill="black"/>
<path d="M116.054 146.153H108.926C108.41 146.153 107.992 145.756 107.992 145.267C107.992 144.778 108.41 144.382 108.926 144.382H116.054C116.57 144.382 116.988 144.778 116.988 145.267C116.988 145.756 116.57 146.153 116.054 146.153Z" fill="black"/>
<path d="M102.786 128.505C101.289 128.505 100.07 127.35 100.07 125.93C100.07 124.51 101.289 123.355 102.786 123.355C104.284 123.355 105.502 124.51 105.502 125.93C105.502 127.35 104.284 128.505 102.786 128.505ZM102.786 125.126C102.319 125.126 101.938 125.487 101.938 125.931C101.938 126.374 102.319 126.735 102.786 126.735C103.254 126.735 103.634 126.374 103.634 125.931C103.634 125.487 103.254 125.126 102.786 125.126Z" fill="black"/>
<path d="M110.708 152.908C109.21 152.908 107.992 151.753 107.992 150.333C107.992 148.913 109.21 147.758 110.708 147.758C112.206 147.758 113.424 148.913 113.424 150.333C113.424 151.753 112.206 152.908 110.708 152.908ZM110.708 149.529C110.241 149.529 109.86 149.889 109.86 150.333C109.86 150.776 110.241 151.137 110.708 151.137C111.176 151.137 111.556 150.776 111.556 150.333C111.556 149.889 111.176 149.529 110.708 149.529Z" fill="black"/>
<path d="M75.1874 152.663C75.9587 141.863 66.0149 133.538 55.5762 136.072C53.4601 126.537 44.9547 119.406 34.7826 119.406C22.7275 119.406 13.0063 129.424 13.5012 141.588C13.4947 141.588 13.4883 141.588 13.4817 141.588C2.94668 141.588 -5.59375 150.128 -5.59375 160.663C-5.59375 170.95 2.54996 179.334 12.7421 179.723V179.738H74.021C81.5125 179.738 87.5854 173.666 87.5854 166.174C87.5854 159.076 82.1323 153.255 75.1874 152.663Z" fill="#D8ECFE"/>
<path d="M75.1835 152.663C75.9548 141.863 66.0111 133.538 55.5724 136.072C53.4561 126.537 44.9509 119.406 34.7788 119.406C31.4127 119.406 28.2291 120.188 25.3984 121.579C26.1082 121.507 26.828 121.47 27.5564 121.47C37.7285 121.47 46.2338 128.601 48.35 138.136C58.7886 135.602 68.7322 143.927 67.9611 154.727C74.906 155.319 80.3592 161.14 80.3592 168.238C80.3592 173.088 77.8118 177.341 73.984 179.739H74.017C81.5084 179.739 87.5814 173.666 87.5814 166.175C87.5816 159.076 82.1284 153.255 75.1835 152.663Z" fill="#C4E2FF"/>
<path d="M74.0209 181.145C9.09619 181.145 12.6786 181.159 12.4709 181.119C1.60679 180.59 -7 171.626 -7 160.663C-7 149.84 1.43806 140.95 12.0819 140.229C12.1863 135.249 13.9443 130.395 17.059 126.511C17.5449 125.905 18.4299 125.808 19.0356 126.294C19.6414 126.78 19.7387 127.665 19.2527 128.271C16.3979 131.83 14.889 136.128 14.889 140.7C14.889 141.53 15.0248 142.031 14.5152 142.562C14.2501 142.838 13.8838 142.994 13.5009 142.994C13.494 142.994 13.482 142.994 13.4722 142.994C3.7336 142.999 -4.18775 150.923 -4.18775 160.663C-4.18775 170.2 3.27221 177.955 12.7954 178.318C13.3738 178.34 7.92592 178.332 74.0207 178.332C77.1961 178.332 80.2002 177.116 82.4799 174.907C83.0377 174.367 83.9277 174.381 84.4682 174.938C85.0085 175.496 84.9947 176.386 84.4369 176.927C81.6297 179.647 77.9307 181.145 74.0209 181.145ZM86.4711 171.748C85.7334 171.506 85.3318 170.711 85.5742 169.974C88.0362 162.481 82.7419 154.718 75.0678 154.064C74.3016 153.999 73.7297 153.33 73.7847 152.563C74.3925 144.056 67.66 137.02 59.3702 137.02C58.2161 137.02 57.051 137.161 55.9078 137.438C55.1443 137.624 54.3741 137.146 54.2035 136.377C52.202 127.358 44.0343 120.812 34.7825 120.812C30.8366 120.812 27.0232 121.965 23.7548 124.146C23.1089 124.577 22.2358 124.402 21.8047 123.756C21.3737 123.111 21.5479 122.237 22.194 121.806C25.926 119.316 30.2792 118 34.7827 118C39.9801 118 45.06 119.801 49.0869 123.072C52.6958 126.003 55.332 129.997 56.6086 134.43C57.5265 134.282 58.4508 134.208 59.3704 134.208C68.8735 134.208 76.6082 141.931 76.6355 151.435C85.5614 153.008 91.0984 162.172 88.246 170.851C88.0036 171.589 87.2094 171.991 86.4711 171.748Z" fill="black"/>
</g>
<path d="M81.5469 12.3872V71.2259H143.482C143.482 66.9524 146.951 63.484 151.224 63.484C155.498 63.484 158.966 66.9524 158.966 71.2259H165.16V12.3872H81.5469Z" fill="#E6E9ED"/>
<path d="M87.7422 52.6453H93.9357V65.0324H87.7422V52.6453Z" fill="#FCD770"/>
<path d="M100.125 55.7419H106.319V65.0323H100.125V55.7419Z" fill="#FCD770"/>
<path d="M112.516 43.3547H118.709V65.0322H112.516V43.3547Z" fill="#FCD770"/>
<path d="M131.092 49.5483V59.6438C130.132 61.3161 129.358 63.1277 128.831 65.0322H124.898V49.5483H131.092Z" fill="#FCD770"/>
<path d="M151.225 57.2903C143.529 57.2903 137.289 63.5303 137.289 71.2258C137.289 73.7651 137.97 76.1496 139.163 78.1935C141.563 82.3587 146.068 85.1613 151.225 85.1613C156.381 85.1613 160.886 82.3587 163.286 78.1935C164.479 76.1496 165.16 73.7651 165.16 71.2258C165.16 63.5303 158.92 57.2903 151.225 57.2903ZM151.225 78.9677C146.951 78.9677 143.483 75.4993 143.483 71.2258C143.483 66.9522 146.951 63.4838 151.225 63.4838C155.498 63.4838 158.966 66.9522 158.966 71.2258C158.966 75.4993 155.498 78.9677 151.225 78.9677Z" fill="#CCD1D9"/>
<path d="M163.289 78.1936L171.34 82.8388C167.315 89.7755 159.82 94.4517 151.227 94.4517C142.633 94.4517 135.139 89.7755 131.113 82.8388L139.165 78.1936C141.565 82.3588 146.071 85.1613 151.227 85.1613C156.383 85.1613 160.889 82.3588 163.289 78.1936Z" fill="#FEF284"/>
<path d="M174.452 71.2259C174.452 75.453 173.322 79.4324 171.34 82.8388L163.288 78.1937C164.481 76.1498 165.162 73.7653 165.162 71.2259C165.162 63.5304 158.922 57.2904 151.227 57.2904V48.0001C156.46 48.0001 161.291 49.7343 165.162 52.6453C170.798 56.8879 174.452 63.6388 174.452 71.2259Z" fill="#FF826E"/>
<path d="M151.226 48.0001V57.2904C143.53 57.2904 137.29 63.5304 137.29 71.2259C137.29 73.7653 137.972 76.1498 139.164 78.1937L131.112 82.8388C129.13 79.4324 128 75.453 128 71.2259C128 69.0892 128.294 66.9988 128.836 65.0324C129.363 63.1279 130.137 61.3163 131.097 59.644C135.107 52.6763 142.632 48.0001 151.226 48.0001Z" fill="#C3E29E"/>
<path d="M123.987 33.4298C124.56 33.9872 124.901 34.7614 124.901 35.613C124.901 37.3162 123.507 38.7098 121.804 38.7098C120.101 38.7098 118.707 37.3162 118.707 35.613C118.707 33.9098 120.101 32.5162 121.804 32.5162C122.655 32.5162 123.43 32.8569 123.987 33.4298Z" fill="#FF826E"/>
<path d="M137.925 23.8608C137.367 24.4337 136.593 24.7744 135.741 24.7744C134.89 24.7744 134.115 24.4337 133.558 23.8608C132.985 23.3034 132.645 22.5292 132.645 21.6776C132.645 19.9744 134.038 18.5808 135.741 18.5808C137.445 18.5808 138.838 19.9744 138.838 21.6776C138.838 22.5292 138.497 23.3034 137.925 23.8608Z" fill="#FF826E"/>
<path d="M147.214 28.7845C147.786 29.3419 148.127 30.1161 148.127 30.9677C148.127 32.671 146.734 34.0645 145.03 34.0645C143.327 34.0645 141.934 32.671 141.934 30.9677C141.934 30.1161 142.274 29.3419 142.847 28.7845C143.405 28.2116 144.179 27.871 145.03 27.871C145.882 27.871 146.656 28.2116 147.214 28.7845Z" fill="#FF826E"/>
<path d="M165.161 1.54846C170.287 1.54846 174.452 5.71362 174.452 10.8388C174.452 15.9639 170.287 20.1291 165.161 20.1291C162.591 20.1291 160.269 19.0917 158.596 17.4039C157.265 16.0723 156.336 14.3381 156.01 12.3872C155.918 11.8917 155.871 11.3652 155.871 10.8388C155.871 5.71362 160.036 1.54846 165.161 1.54846Z" fill="#FF826E"/>
<path d="M166.71 51.9174V21.5535C171.954 20.7979 176 16.2875 176 10.8387C176 4.86348 171.138 0 165.161 0C159.185 0 154.323 4.86348 154.323 10.8387H80V72.7742H126.531C127.336 85.7125 138.089 96 151.226 96C164.886 96 176 84.8857 176 71.2258C176 63.4235 172.366 56.4619 166.71 51.9174ZM165.161 3.09677C169.43 3.09677 172.903 6.56981 172.903 10.8387C172.903 15.1076 169.43 18.5806 165.161 18.5806C160.892 18.5806 157.419 15.1076 157.419 10.8387C157.419 6.56981 160.892 3.09677 165.161 3.09677ZM83.0968 13.9355H154.779C155.149 15.1711 155.738 16.3092 156.493 17.3187L147.023 26.7886C146.417 26.4975 145.748 26.3226 145.032 26.3226C144.317 26.3226 143.648 26.4975 143.043 26.7886L139.923 23.6686C140.212 23.0617 140.387 22.3928 140.387 21.6774C140.387 19.1164 138.303 17.0323 135.742 17.0323C133.181 17.0323 131.097 19.1164 131.097 21.6774C131.097 22.3928 131.272 23.0617 131.563 23.6671L123.798 31.4323C123.191 31.1427 122.522 30.9677 121.806 30.9677C119.245 30.9677 117.161 33.0519 117.161 35.6129C117.161 38.1739 119.245 40.2581 121.806 40.2581C124.367 40.2581 126.452 38.1739 126.452 35.6129C126.452 34.8975 126.277 34.2286 125.986 33.6232L133.751 25.8581C134.358 26.1476 135.027 26.3226 135.742 26.3226C136.457 26.3226 137.126 26.1476 137.732 25.8565L140.852 28.9765C140.562 29.5835 140.387 30.2524 140.387 30.9677C140.387 33.5288 142.471 35.6129 145.032 35.6129C147.593 35.6129 149.677 33.5288 149.677 30.9677C149.677 30.2524 149.502 29.5835 149.211 28.9781L158.683 19.5081C160.1 20.5703 161.781 21.2903 163.613 21.5551V49.8054C159.963 47.6857 155.741 46.4516 151.226 46.4516C143.825 46.4516 137.188 49.7311 132.645 54.895V48H123.355V66.5806H126.904C126.712 67.5917 126.596 68.6276 126.531 69.6774H83.0968V13.9355ZM145.032 29.4194C145.885 29.4194 146.581 30.113 146.581 30.9677C146.581 31.8225 145.885 32.5161 145.032 32.5161C144.179 32.5161 143.484 31.8225 143.484 30.9677C143.484 30.113 144.179 29.4194 145.032 29.4194ZM134.194 21.6774C134.194 20.8227 134.889 20.129 135.742 20.129C136.595 20.129 137.29 20.8227 137.29 21.6774C137.29 22.5321 136.595 23.2258 135.742 23.2258C134.889 23.2258 134.194 22.5321 134.194 21.6774ZM123.355 35.6129C123.355 36.4676 122.66 37.1613 121.806 37.1613C120.953 37.1613 120.258 36.4676 120.258 35.6129C120.258 34.7582 120.953 34.0645 121.806 34.0645C122.66 34.0645 123.355 34.7582 123.355 35.6129ZM151.226 83.6129C144.396 83.6129 138.839 78.0557 138.839 71.2258C138.839 64.3959 144.396 58.8387 151.226 58.8387C158.056 58.8387 163.613 64.3959 163.613 71.2258C163.613 78.0557 158.056 83.6129 151.226 83.6129ZM129.548 59.2583C128.807 60.5961 128.194 62.0098 127.707 63.4839H126.452V51.0968H129.548V59.2583ZM149.677 49.6273V55.8209C141.864 56.6013 135.742 63.2114 135.742 71.2258C135.742 73.4911 136.244 75.6387 137.122 77.5804L131.75 80.6818C130.354 77.8204 129.548 74.6183 129.548 71.2258C129.548 59.7956 138.447 50.4263 149.677 49.6273ZM151.226 92.9032C143.772 92.9032 137.185 89.1205 133.283 83.3729L138.676 80.2591C141.491 84.1579 146.06 86.7097 151.226 86.7097C156.391 86.7097 160.961 84.1579 163.775 80.2591L169.169 83.3729C165.267 89.1205 158.68 92.9032 151.226 92.9032ZM170.701 80.6818L165.33 77.5804C166.208 75.6387 166.71 73.4911 166.71 71.2258C166.71 63.2114 160.587 56.5997 152.774 55.8209V49.6273C164.005 50.4263 172.903 59.7956 172.903 71.2258C172.903 74.6183 172.098 77.8204 170.701 80.6818Z" fill="black"/>
<path d="M151.228 61.9355C146.104 61.9355 141.938 66.1023 141.938 71.2259C141.938 76.3495 146.104 80.5162 151.228 80.5162C156.351 80.5162 160.518 76.3495 160.518 71.2259C160.518 66.1023 156.351 61.9355 151.228 61.9355ZM151.228 77.4194C147.812 77.4194 145.034 74.6416 145.034 71.2259C145.034 67.8101 147.812 65.0323 151.228 65.0323C154.644 65.0323 157.421 67.8101 157.421 71.2259C157.421 74.6416 154.644 77.4194 151.228 77.4194Z" fill="black"/>
<path d="M86.1953 17.0322H89.2921V20.129H86.1953V17.0322Z" fill="black"/>
<path d="M92.3867 17.0322H114.064V20.129H92.3867V17.0322Z" fill="black"/>
<path d="M86.1953 23.2258H89.2921V26.3226H86.1953V23.2258Z" fill="black"/>
<path d="M92.3867 23.2258H114.064V26.3226H92.3867V23.2258Z" fill="black"/>
<path d="M86.1953 29.4193H89.2921V32.5161H86.1953V29.4193Z" fill="black"/>
<path d="M92.3867 29.4193H114.064V32.5161H92.3867V29.4193Z" fill="black"/>
<path d="M86.1953 35.6129H89.2921V38.7097H86.1953V35.6129Z" fill="black"/>
<path d="M92.3867 35.6129H114.064V38.7097H92.3867V35.6129Z" fill="black"/>
<path d="M86.1953 66.5807H95.4856V51.0968H86.1953V66.5807ZM89.2921 54.1936H92.3889V63.4839H89.2921V54.1936Z" fill="black"/>
<path d="M98.5781 66.5806H107.868V54.1935H98.5781V66.5806ZM101.675 57.2903H104.772V63.4838H101.675V57.2903Z" fill="black"/>
<path d="M110.969 66.5806H120.259V41.8064H110.969V66.5806ZM114.066 44.9032H117.162V63.4838H114.066V44.9032Z" fill="black"/>
</svg>
