<svg width="45" height="45" viewBox="0 0 45 45" fill="none" xmlns="http://www.w3.org/2000/svg">
<g clip-path="url(#clip0_1885_11819)">
<path d="M38.0629 5.73746H0.566406V1.98022C0.566406 1.18212 1.24881 0.535156 2.09064 0.535156H36.5387C37.3805 0.535156 38.0629 1.18212 38.0629 1.98022V5.73746Z" fill="#9DC6FB"/>
<path d="M36.5364 0.535156H34.25C35.0918 0.535156 35.7742 1.18212 35.7742 1.98022V5.73738H38.0606V1.98022C38.0606 1.18212 37.3782 0.535156 36.5364 0.535156Z" fill="#80B4FB"/>
<path d="M36.5387 31.4915H2.09064C1.24881 31.4915 0.566406 30.8446 0.566406 30.0465V5.72266H38.0629V30.0465C38.0629 30.8446 37.3805 31.4915 36.5387 31.4915Z" fill="#F4FBFF"/>
<path d="M35.7742 5.73877V30.0626C35.7742 30.8607 35.0918 31.5076 34.25 31.5076H36.5364C37.3782 31.5076 38.0606 30.8607 38.0606 30.0626V5.73877H35.7742Z" fill="#E4F6FF"/>
<path d="M33.3364 2.26953C32.8313 2.26953 32.4219 2.65771 32.4219 3.13658C32.4219 3.61545 32.8313 4.00363 33.3364 4.00363C33.8415 4.00363 34.251 3.61545 34.251 3.13658C34.251 2.65771 33.8415 2.26953 33.3364 2.26953Z" fill="black"/>
<path d="M30.2935 2.26953C29.7883 2.26953 29.3789 2.65771 29.3789 3.13658C29.3789 3.61545 29.7883 4.00363 30.2935 4.00363C30.7986 4.00363 31.208 3.61545 31.208 3.13658C31.208 2.65771 30.7986 2.26953 30.2935 2.26953Z" fill="black"/>
<path d="M27.2427 4.00363C27.7478 4.00363 28.1572 3.61544 28.1572 3.13658C28.1572 2.65772 27.7478 2.26953 27.2427 2.26953C26.7376 2.26953 26.3281 2.65772 26.3281 3.13658C26.3281 3.61544 26.7376 4.00363 27.2427 4.00363Z" fill="black"/>
<path d="M36.5381 0H2.09007C0.937639 0 0 0.888937 0 1.98151V21.8057C0 22.102 0.253271 22.3422 0.565843 22.3422C0.878415 22.3422 1.13169 22.102 1.13169 21.8057V6.2752H37.4965V10.7941C37.4965 11.0904 37.7498 11.3306 38.0624 11.3306C38.3749 11.3306 38.6282 11.0904 38.6282 10.7941V1.98151C38.6282 0.888937 37.6906 0 36.5381 0ZM1.13169 1.98151C1.13169 1.48054 1.56158 1.0729 2.09007 1.0729H36.5381C37.0666 1.0729 37.4965 1.48054 37.4965 1.98151V5.2023H1.13169V1.98151Z" fill="black"/>
<path d="M38.0624 12.7603C37.7498 12.7603 37.4965 13.0004 37.4965 13.2967V30.0619C37.4965 30.5628 37.0667 30.9703 36.5384 30.9703H2.08985C1.5615 30.9703 1.13169 30.5628 1.13169 30.0619V24.2368C1.13169 23.9405 0.878415 23.7003 0.565843 23.7003C0.253271 23.7003 0 23.9405 0 24.2368V30.0619C0 31.1544 0.937489 32.0432 2.08985 32.0432H36.5384C37.6907 32.0432 38.6282 31.1544 38.6282 30.0619V13.2967C38.6282 13.0004 38.3749 12.7603 38.0624 12.7603Z" fill="black"/>
<path d="M19.8194 11.6582H17.1551C16.2125 11.6582 15.4483 12.3826 15.4483 13.2764V15.7525H13.4764C12.5338 15.7525 11.7695 16.477 11.7695 17.3708V20.0483C11.7695 20.942 12.5338 21.6665 13.4764 21.6665H15.3162C15.5658 21.6665 15.7682 21.4747 15.7682 21.2381V19.8854C15.7682 18.8591 16.6456 18.0273 17.7281 18.0273H20.8067C21.2042 18.0273 21.5263 17.7218 21.5263 17.345V13.2766C21.5263 12.3826 20.7622 11.6582 19.8194 11.6582Z" fill="#5290DB"/>
<path d="M25.0968 15.6006H23.257C23.0074 15.6006 22.805 15.7924 22.805 16.029V17.3817C22.805 18.408 21.9276 19.2399 20.8451 19.2399H17.7665C17.369 19.2399 17.0469 19.5453 17.0469 19.9221V23.9906C17.0469 24.8842 17.8111 25.6088 18.7538 25.6088H21.4181C22.3607 25.6088 23.1249 24.8844 23.1249 23.9906V21.5144H25.0968C26.0394 21.5144 26.8037 20.79 26.8037 19.8962V17.2187C26.8037 16.3252 26.0394 15.6006 25.0968 15.6006Z" fill="#FC8C48"/>
<path d="M17.6807 14.3862C18.0782 14.3862 18.4004 14.0807 18.4004 13.7039C18.4004 13.327 18.0782 13.0215 17.6807 13.0215C17.2832 13.0215 16.9609 13.327 16.9609 13.7039C16.9609 14.0807 17.2832 14.3862 17.6807 14.3862Z" fill="#EDF4FC"/>
<path d="M20.8877 24.2422C21.2852 24.2422 21.6075 23.9367 21.6075 23.5598C21.6075 23.1829 21.2852 22.8774 20.8877 22.8774C20.4902 22.8774 20.168 23.1829 20.168 23.5598C20.168 23.9367 20.4902 24.2422 20.8877 24.2422Z" fill="#EDF4FC"/>
<path d="M15.3147 22.0238H13.4747C12.3255 22.0238 11.3906 21.1374 11.3906 20.0479V17.3704C11.3906 16.2809 12.3255 15.3945 13.4747 15.3945H15.0695V13.2762C15.0695 12.1867 16.0044 11.3003 17.1536 11.3003H19.8179C20.9671 11.3003 21.902 12.1867 21.902 13.2762V17.3446C21.902 17.918 21.41 18.3845 20.8053 18.3845H17.7267C16.854 18.3845 16.144 19.0577 16.144 19.885V21.2377C16.1439 21.671 15.7718 22.0238 15.3147 22.0238ZM13.4747 16.1098C12.7416 16.1098 12.1451 16.6753 12.1451 17.3704V20.0479C12.1451 20.743 12.7416 21.3085 13.4747 21.3085H15.3146C15.3557 21.3085 15.3892 21.2767 15.3892 21.2377V19.885C15.3892 18.6631 16.4376 17.6692 17.7264 17.6692H20.805C20.9937 17.6692 21.1473 17.5236 21.1473 17.3446V13.2762C21.1473 12.5811 20.5508 12.0156 19.8176 12.0156H17.1533C16.4201 12.0156 15.8237 12.5811 15.8237 13.2762V15.7523C15.8237 15.9498 15.6548 16.1099 15.4464 16.1099H13.4747V16.1098Z" fill="black"/>
<path d="M18.4047 16.1118H15.5257C15.3173 16.1118 15.1484 15.9517 15.1484 15.7541C15.1484 15.5566 15.3173 15.3965 15.5257 15.3965H18.4047C18.6131 15.3965 18.7819 15.5566 18.7819 15.7541C18.7819 15.9517 18.6131 16.1118 18.4047 16.1118Z" fill="black"/>
<path d="M21.4203 25.9661H18.756C17.6068 25.9661 16.6719 25.0798 16.6719 23.9903V19.9218C16.6719 19.3485 17.1639 18.882 17.7687 18.882H20.8472C21.7199 18.882 22.4299 18.2088 22.4299 17.3815V16.0288C22.4299 15.5953 22.8018 15.2427 23.259 15.2427H25.0989C26.2479 15.2427 27.183 16.129 27.183 17.2185V19.8961C27.183 20.9856 26.248 21.8719 25.0989 21.8719H23.5042V23.9904C23.5042 25.0798 22.5693 25.9661 21.4203 25.9661ZM17.7687 19.5974C17.5799 19.5974 17.4263 19.743 17.4263 19.922V23.9904C17.4263 24.6855 18.0228 25.251 18.756 25.251H21.4203C22.1533 25.251 22.7499 24.6855 22.7499 23.9904V21.5143C22.7499 21.3167 22.9188 21.1567 23.1272 21.1567H25.099C25.832 21.1567 26.4287 20.5912 26.4287 19.8961V17.2185C26.4287 16.5234 25.8322 15.9579 25.099 15.9579H23.2592C23.218 15.9579 23.1845 15.9897 23.1845 16.0288V17.3815C23.1845 18.6033 22.1361 19.5972 20.8473 19.5972H17.7687V19.5974Z" fill="black"/>
<path d="M23.0453 21.8715H20.1663C19.9579 21.8715 19.7891 21.7114 19.7891 21.5139C19.7891 21.3163 19.9579 21.1562 20.1663 21.1562H23.0453C23.2537 21.1562 23.4225 21.3163 23.4225 21.5139C23.4225 21.7114 23.2537 21.8715 23.0453 21.8715Z" fill="black"/>
<path d="M17.6829 14.7442C17.078 14.7442 16.5859 14.2777 16.5859 13.7042C16.5859 13.1307 17.078 12.6641 17.6829 12.6641C18.2878 12.6641 18.7799 13.1307 18.7799 13.7042C18.7799 14.2777 18.2878 14.7442 17.6829 14.7442ZM17.6829 13.3795C17.4942 13.3795 17.3404 13.5252 17.3404 13.7044C17.3404 13.8833 17.4942 14.0291 17.6829 14.0291C17.8717 14.0291 18.0254 13.8833 18.0254 13.7044C18.0254 13.5251 17.8717 13.3795 17.6829 13.3795Z" fill="black"/>
<path d="M20.886 24.6C20.2811 24.6 19.7891 24.1335 19.7891 23.56C19.7891 22.9865 20.2811 22.52 20.886 22.52C21.4908 22.52 21.983 22.9865 21.983 23.56C21.983 24.1335 21.4908 24.6 20.886 24.6ZM20.886 23.2353C20.6973 23.2353 20.5435 23.3811 20.5435 23.56C20.5435 23.739 20.6973 23.8848 20.886 23.8848C21.0748 23.8848 21.2286 23.739 21.2286 23.56C21.2286 23.3811 21.075 23.2353 20.886 23.2353Z" fill="black"/>
<path d="M43.5668 17.4406H6.07031V13.6833C6.07031 12.8852 6.75272 12.2383 7.59454 12.2383H42.0426C42.8844 12.2383 43.5668 12.8852 43.5668 13.6833V17.4406Z" fill="#9DC6FB"/>
<path d="M42.0442 12.2383H39.7578C40.5996 12.2383 41.282 12.8852 41.282 13.6833V17.4405H43.5684V13.6833C43.5684 12.8852 42.886 12.2383 42.0442 12.2383Z" fill="#80B4FB"/>
<path d="M42.0426 43.1947H7.59454C6.75272 43.1947 6.07031 42.5477 6.07031 41.7496V17.4258H43.5668V41.7496C43.5668 42.5477 42.8844 43.1947 42.0426 43.1947Z" fill="#F4FBFF"/>
<path d="M41.282 17.4419V41.7657C41.282 42.5638 40.5996 43.2108 39.7578 43.2108H42.0442C42.886 43.2108 43.5684 42.5638 43.5684 41.7657V17.4419H41.282Z" fill="#E4F6FF"/>
<path d="M38.8442 13.9727C38.3391 13.9727 37.9297 14.3608 37.9297 14.8397C37.9297 15.3186 38.3391 15.7068 38.8442 15.7068C39.3494 15.7068 39.7588 15.3186 39.7588 14.8397C39.7588 14.3608 39.3494 13.9727 38.8442 13.9727Z" fill="black"/>
<path d="M35.8013 13.9727C35.2962 13.9727 34.8867 14.3608 34.8867 14.8397C34.8867 15.3186 35.2962 15.7068 35.8013 15.7068C36.3064 15.7068 36.7158 15.3186 36.7158 14.8397C36.7158 14.3608 36.3064 13.9727 35.8013 13.9727Z" fill="black"/>
<path d="M32.7505 15.7068C33.2556 15.7068 33.665 15.3186 33.665 14.8397C33.665 14.3608 33.2556 13.9727 32.7505 13.9727C32.2454 13.9727 31.8359 14.3608 31.8359 14.8397C31.8359 15.3186 32.2454 15.7068 32.7505 15.7068Z" fill="black"/>
<path d="M42.0459 11.7031H7.59789C6.44545 11.7031 5.50781 12.5921 5.50781 13.6846V33.5088C5.50781 33.8051 5.76108 34.0453 6.07366 34.0453C6.38623 34.0453 6.6395 33.8051 6.6395 33.5088V17.9783H43.0043V22.4973C43.0043 22.7935 43.2576 23.0337 43.5702 23.0337C43.8827 23.0337 44.136 22.7935 44.136 22.4973V13.6846C44.136 12.5921 43.1984 11.7031 42.0459 11.7031ZM6.6395 13.6846C6.6395 13.1837 7.06939 12.776 7.59789 12.776H42.0459C42.5744 12.776 43.0043 13.1837 43.0043 13.6846V16.9054H6.6395V13.6846Z" fill="black"/>
<path d="M43.5702 24.4634C43.2576 24.4634 43.0043 24.7036 43.0043 24.9998V41.765C43.0043 42.2659 42.5745 42.6734 42.0462 42.6734H7.59766C7.06931 42.6734 6.6395 42.2659 6.6395 41.765V35.9399C6.6395 35.6436 6.38623 35.4034 6.07366 35.4034C5.76108 35.4034 5.50781 35.6436 5.50781 35.9399V41.765C5.50781 42.8575 6.4453 43.7463 7.59766 43.7463H42.0462C43.1985 43.7463 44.136 42.8575 44.136 41.765V24.9998C44.136 24.7036 43.8827 24.4634 43.5702 24.4634Z" fill="black"/>
<path d="M25.3233 23.3613H22.6591C21.7164 23.3613 20.9522 24.0858 20.9522 24.9796V27.4557H18.9803C18.0377 27.4557 17.2734 28.1801 17.2734 29.0739V31.7514C17.2734 32.6451 18.0377 33.3697 18.9803 33.3697H20.8201C21.0697 33.3697 21.2721 33.1778 21.2721 32.9412V31.5885C21.2721 30.5622 22.1495 29.7304 23.232 29.7304H26.3106C26.7081 29.7304 27.0302 29.425 27.0302 29.0482V24.9797C27.0302 24.0858 26.2661 23.3613 25.3233 23.3613Z" fill="#5290DB"/>
<path d="M30.6085 27.3037H28.7687C28.5191 27.3037 28.3168 27.4955 28.3168 27.7322V29.0849C28.3168 30.1111 27.4393 30.943 26.3568 30.943H23.2782C22.8807 30.943 22.5586 31.2484 22.5586 31.6252V35.6937C22.5586 36.5873 23.3229 37.3119 24.2655 37.3119H26.9298C27.8724 37.3119 28.6367 36.5875 28.6367 35.6937V33.2176H30.6085C31.5511 33.2176 32.3154 32.4931 32.3154 31.5993V28.9218C32.3154 28.0283 31.5511 27.3037 30.6085 27.3037Z" fill="#FC8C48"/>
<path d="M23.1885 26.0893C23.586 26.0893 23.9083 25.7838 23.9083 25.407C23.9083 25.0301 23.586 24.7246 23.1885 24.7246C22.791 24.7246 22.4688 25.0301 22.4688 25.407C22.4688 25.7838 22.791 26.0893 23.1885 26.0893Z" fill="#EDF4FC"/>
<path d="M26.3994 35.9453C26.7969 35.9453 27.1192 35.6398 27.1192 35.2629C27.1192 34.8861 26.7969 34.5806 26.3994 34.5806C26.0019 34.5806 25.6797 34.8861 25.6797 35.2629C25.6797 35.6398 26.0019 35.9453 26.3994 35.9453Z" fill="#EDF4FC"/>
<path d="M20.8225 33.7269H18.9825C17.8334 33.7269 16.8984 32.8405 16.8984 31.751V29.0735C16.8984 27.984 17.8334 27.0976 18.9825 27.0976H20.5773V24.9793C20.5773 23.8898 21.5122 23.0034 22.6614 23.0034H25.3257C26.4749 23.0034 27.4098 23.8898 27.4098 24.9793V29.0477C27.4098 29.6211 26.9178 30.0876 26.3132 30.0876H23.2345C22.3618 30.0876 21.6518 30.7608 21.6518 31.5881V32.9408C21.6517 33.3741 21.2796 33.7269 20.8225 33.7269ZM18.9825 27.8129C18.2494 27.8129 17.6529 28.3784 17.6529 29.0735V31.751C17.6529 32.4461 18.2494 33.0116 18.9825 33.0116H20.8224C20.8636 33.0116 20.8971 32.9799 20.8971 32.9408V31.5881C20.8971 30.3663 21.9455 29.3723 23.2342 29.3723H26.3129C26.5015 29.3723 26.6551 29.2267 26.6551 29.0477V24.9793C26.6551 24.2842 26.0586 23.7187 25.3254 23.7187H22.6611C21.928 23.7187 21.3315 24.2842 21.3315 24.9793V27.4554C21.3315 27.653 21.1626 27.813 20.9542 27.813H18.9825V27.8129Z" fill="black"/>
<path d="M23.9125 27.8144H21.0335C20.8251 27.8144 20.6562 27.6543 20.6562 27.4568C20.6562 27.2592 20.8251 27.0991 21.0335 27.0991H23.9125C24.1209 27.0991 24.2897 27.2592 24.2897 27.4568C24.2897 27.6543 24.1209 27.8144 23.9125 27.8144Z" fill="black"/>
<path d="M26.9281 37.6693H24.2638C23.1146 37.6693 22.1797 36.7829 22.1797 35.6934V31.625C22.1797 31.0516 22.6717 30.5851 23.2765 30.5851H26.355C27.2278 30.5851 27.9377 29.9119 27.9377 29.0846V27.7319C27.9377 27.2984 28.3097 26.9458 28.7669 26.9458H30.6067C31.7557 26.9458 32.6908 27.8322 32.6908 28.9217V31.5992C32.6908 32.6887 31.7559 33.5751 30.6067 33.5751H29.0121V35.6935C29.0121 36.7829 28.0771 37.6693 26.9281 37.6693ZM23.2765 31.3005C23.0878 31.3005 22.9341 31.4461 22.9341 31.6251V35.6935C22.9341 36.3886 23.5306 36.9541 24.2638 36.9541H26.9281C27.6611 36.9541 28.2577 36.3886 28.2577 35.6935V33.2174C28.2577 33.0199 28.4266 32.8598 28.635 32.8598H30.6068C31.3399 32.8598 31.9365 32.2943 31.9365 31.5992V28.9217C31.9365 28.2266 31.34 27.6611 30.6068 27.6611H28.767C28.7258 27.6611 28.6923 27.6928 28.6923 27.7319V29.0846C28.6923 30.3064 27.6439 31.3004 26.3552 31.3004H23.2765V31.3005Z" fill="black"/>
<path d="M28.5531 33.5746H25.6741C25.4657 33.5746 25.2969 33.4146 25.2969 33.217C25.2969 33.0195 25.4657 32.8594 25.6741 32.8594H28.5531C28.7615 32.8594 28.9303 33.0195 28.9303 33.217C28.9303 33.4146 28.7615 33.5746 28.5531 33.5746Z" fill="black"/>
<path d="M23.1907 26.4468C22.5858 26.4468 22.0938 25.9803 22.0938 25.4068C22.0938 24.8333 22.5858 24.3667 23.1907 24.3667C23.7957 24.3667 24.2877 24.8333 24.2877 25.4068C24.2877 25.9803 23.7957 26.4468 23.1907 26.4468ZM23.1907 25.0821C23.002 25.0821 22.8482 25.2279 22.8482 25.407C22.8482 25.5859 23.002 25.7317 23.1907 25.7317C23.3795 25.7317 23.5333 25.5859 23.5333 25.407C23.5333 25.2277 23.3795 25.0821 23.1907 25.0821Z" fill="black"/>
<path d="M26.3939 36.3027C25.7889 36.3027 25.2969 35.8362 25.2969 35.2627C25.2969 34.6892 25.7889 34.2227 26.3939 34.2227C26.9986 34.2227 27.4908 34.6892 27.4908 35.2627C27.4908 35.8362 26.9986 36.3027 26.3939 36.3027ZM26.3939 34.9379C26.2051 34.9379 26.0513 35.0837 26.0513 35.2627C26.0513 35.4416 26.2051 35.5874 26.3939 35.5874C26.5826 35.5874 26.7364 35.4416 26.7364 35.2627C26.7364 35.0837 26.5828 34.9379 26.3939 34.9379Z" fill="black"/>
</g>
<defs>
<clipPath id="clip0_1885_11819">
<rect width="44.0603" height="44.0603" fill="white"/>
</clipPath>
</defs>
</svg>
