<svg width="152" height="90" viewBox="0 0 152 90" fill="none" xmlns="http://www.w3.org/2000/svg">
<path d="M45.9375 53.1719V69.5121C45.9375 73.1305 58.7298 76.0638 74.5099 76.0638C90.29 76.0638 103.082 73.1305 103.082 69.5121V53.1719H45.9375Z" fill="#DFEAEF"/>
<path d="M45.9375 36.8281V53.1684C45.9375 56.7867 58.7298 59.72 74.5099 59.72C90.29 59.72 103.082 56.7867 103.082 53.1684V36.8281H45.9375Z" fill="#DFEAEF"/>
<path d="M45.9375 20.4883V36.8285C45.9375 40.4469 58.7298 43.3802 74.5099 43.3802C90.29 43.3802 103.082 40.4469 103.082 36.8285V20.4883H45.9375Z" fill="#DFEAEF"/>
<path d="M96.5542 20.4883V36.8285C96.5542 40.1937 85.4887 42.9658 71.2461 43.3373C72.3176 43.3653 73.4063 43.38 74.5103 43.38C90.2905 43.38 103.083 40.4468 103.083 36.8284V20.4883H96.5542Z" fill="#BFCFD6"/>
<path d="M96.5542 36.8281V53.1684C96.5542 56.5335 85.4887 59.3056 71.2461 59.6771C72.3176 59.7051 73.4063 59.7199 74.5103 59.7199C90.2905 59.7199 103.083 56.7866 103.083 53.1682V36.8281H96.5542Z" fill="#BFCFD6"/>
<path d="M96.5542 53.2344V69.5746C96.5542 72.9398 85.4887 75.7119 71.2461 76.0834C72.3176 76.1114 73.4063 76.1261 74.5103 76.1261C90.2905 76.1261 103.083 73.1929 103.083 69.5745V53.2344H96.5542Z" fill="#BFCFD6"/>
<path d="M74.51 27.04C90.2902 27.04 103.083 24.1069 103.083 20.4887C103.083 16.8706 90.2902 13.9375 74.51 13.9375C58.7298 13.9375 45.9375 16.8706 45.9375 20.4887C45.9375 24.1069 58.7298 27.04 74.51 27.04Z" fill="#9EBECC"/>
<path d="M74.5103 13.9375C73.4063 13.9375 72.3175 13.9524 71.2461 13.9803C85.4886 14.3517 96.5542 17.1239 96.5542 20.489C96.5542 23.8541 85.4886 26.6263 71.2461 26.9978C72.3176 27.0258 73.4063 27.0405 74.5103 27.0405C90.2905 27.0405 103.083 24.1073 103.083 20.4889C103.083 16.8707 90.2905 13.9375 74.5103 13.9375Z" fill="#86AEBC"/>
<path d="M91.8634 36.3674C93.365 36.3674 94.5823 35.1502 94.5823 33.6486C94.5823 32.147 93.365 30.9297 91.8634 30.9297C90.3618 30.9297 89.1445 32.147 89.1445 33.6486C89.1445 35.1502 90.3618 36.3674 91.8634 36.3674Z" fill="#FC9F3D"/>
<path d="M91.8634 52.4924C93.365 52.4924 94.5823 51.2752 94.5823 49.7736C94.5823 48.272 93.365 47.0547 91.8634 47.0547C90.3618 47.0547 89.1445 48.272 89.1445 49.7736C89.1445 51.2752 90.3618 52.4924 91.8634 52.4924Z" fill="#FC9F3D"/>
<path d="M91.8634 68.6409C93.365 68.6409 94.5823 67.4236 94.5823 65.922C94.5823 64.4204 93.365 63.2031 91.8634 63.2031C90.3618 63.2031 89.1445 64.4204 89.1445 65.922C89.1445 67.4236 90.3618 68.6409 91.8634 68.6409Z" fill="#FC9F3D"/>
<path d="M93.7864 67.845C94.8481 66.7833 94.8481 65.0617 93.7864 64L89.9414 67.845C91.003 68.9069 92.7245 68.9069 93.7864 67.845Z" fill="#ED852F"/>
<path d="M83.8222 34.0009C80.8382 34.2409 77.7052 34.3627 74.51 34.3627C66.8924 34.3627 59.7862 33.6794 54.5003 32.4388C53.9971 32.3213 53.4912 32.6333 53.3727 33.1377C53.2543 33.6422 53.5673 34.1469 54.0716 34.2653C59.4938 35.5379 66.7523 36.2387 74.51 36.2387C77.755 36.2387 80.9388 36.1149 83.9727 35.8708C84.489 35.8293 84.8739 35.3769 84.8324 34.8606C84.7909 34.3444 84.3373 33.9587 83.8222 34.0009Z" fill="black"/>
<path d="M83.8222 50.0792C80.8382 50.3192 77.7052 50.4409 74.51 50.4409C66.8924 50.4409 59.7862 49.7577 54.5003 48.5171C53.9971 48.3992 53.4912 48.7116 53.3727 49.2159C53.2543 49.7204 53.5673 50.2252 54.0716 50.3436C59.4938 51.6162 66.7523 52.3169 74.51 52.3169C77.755 52.3169 80.9388 52.1932 83.9727 51.9491C84.489 51.9076 84.8739 51.4552 84.8324 50.9388C84.7909 50.4226 84.3373 50.0372 83.8222 50.0792Z" fill="black"/>
<path d="M104.016 20.3789C103.819 15.893 91.6838 14.1394 86.4411 13.5916C84.8235 13.4226 83.1281 13.2875 81.4018 13.1902C79.1589 13.064 76.8403 13 74.5105 13C68.5494 13 62.8248 13.4145 57.9555 14.1989C57.444 14.2812 57.0961 14.7626 57.1786 15.2741C57.261 15.7855 57.743 16.1338 58.2539 16.051C63.0263 15.2824 68.6476 14.876 74.5106 14.876C76.8054 14.876 79.0884 14.939 81.2964 15.0634C82.9929 15.1589 84.6583 15.2915 86.2464 15.4574C91.0976 15.9643 95.199 16.7693 98.107 17.7854C101.95 19.1284 102.145 20.2736 102.145 20.4895C102.145 21.2199 100.536 22.825 94.5048 24.2079C94.3381 24.2461 94.1699 24.2838 93.9999 24.3209C88.7305 25.4715 81.8376 26.1031 74.5106 26.1031C67.1836 26.1031 60.2908 25.4714 55.0214 24.3209C54.8514 24.2838 54.6831 24.2461 54.5165 24.2079C48.5403 22.8376 46.9069 21.2498 46.8776 20.5104C46.8777 20.5034 46.8786 20.4966 46.8786 20.4897C46.8786 20.4831 46.8777 20.4768 46.8776 20.4701C46.893 20.0286 47.4275 19.4659 48.3516 18.9218C49.5176 18.2351 51.2274 17.6 53.4336 17.034C53.9354 16.9052 54.2378 16.3941 54.109 15.8923C53.9803 15.3906 53.4696 15.0885 52.9673 15.2169C47.6806 16.5731 45 18.3474 45 20.4899V36.8301V53.1702V69.5105C45 71.8071 48.0608 73.6734 54.0971 75.0575C59.5605 76.3101 66.8101 77 74.5105 77C82.2109 77 89.4606 76.3101 94.9238 75.0574C100.96 73.6733 104.021 71.807 104.021 69.5104V53.1701V36.8299V20.538C104.022 20.5219 104.023 20.5059 104.023 20.4896C104.023 20.4521 104.021 20.4152 104.016 20.3789ZM102.145 69.5104C102.145 70.2407 100.536 71.8459 94.5046 73.2287C89.1746 74.4509 82.074 75.1239 74.5105 75.1239C66.947 75.1239 59.8464 74.4509 54.5164 73.2287C48.4854 71.8457 46.8761 70.2407 46.8761 69.5104V56.0214C46.8966 56.0355 46.9193 56.0494 46.9401 56.0635C46.991 56.0979 47.0431 56.132 47.096 56.166C47.1388 56.1935 47.1819 56.221 47.2259 56.2484C47.281 56.2826 47.3378 56.3165 47.395 56.3504C47.44 56.377 47.4846 56.4038 47.5309 56.4301C47.5913 56.4646 47.6536 56.4989 47.7161 56.5331C47.7624 56.5584 47.8078 56.5838 47.8551 56.6089C47.9233 56.645 47.9939 56.6806 48.0644 56.7164C48.1091 56.739 48.1526 56.7619 48.1984 56.7844C48.2858 56.8274 48.3761 56.8699 48.467 56.9124C48.4988 56.9271 48.5289 56.9422 48.561 56.957C48.6844 57.0136 48.8111 57.0697 48.9409 57.1254C48.9814 57.1427 49.024 57.1597 49.0653 57.1771C49.1569 57.2156 49.2486 57.254 49.3434 57.292C49.3973 57.3136 49.4531 57.3349 49.508 57.3564C49.593 57.3896 49.678 57.4229 49.7654 57.4557C49.8259 57.4785 49.888 57.501 49.9496 57.5235C50.0346 57.5546 50.12 57.5858 50.2071 57.6166C50.272 57.6395 50.3384 57.6623 50.4045 57.685C50.4919 57.715 50.5799 57.745 50.6695 57.7747C50.7376 57.7974 50.8068 57.8199 50.8761 57.8424C50.9669 57.8717 51.0586 57.901 51.1515 57.93C51.2225 57.9523 51.294 57.9744 51.3663 57.9964C51.4613 58.0254 51.5578 58.0541 51.6549 58.0827C51.7278 58.1042 51.8005 58.1256 51.8746 58.147C51.9754 58.176 52.078 58.2046 52.181 58.2332C52.2544 58.2536 52.3273 58.2741 52.4018 58.2943C52.5111 58.3239 52.6229 58.3532 52.7348 58.3825C52.8056 58.4011 52.8758 58.4199 52.9476 58.4383C53.0733 58.4705 53.2016 58.5023 53.3301 58.534C53.3913 58.5491 53.451 58.5644 53.5128 58.5794C53.7045 58.6259 53.899 58.6719 54.0971 58.7173C59.5606 59.9699 66.8101 60.6599 74.5105 60.6599C82.2109 60.6599 89.4605 59.9699 94.9239 58.7173C95.122 58.6719 95.3165 58.6258 95.5083 58.5794C95.5701 58.5644 95.63 58.5491 95.6911 58.534C95.8195 58.5023 95.9478 58.4706 96.0733 58.4384C96.1454 58.4199 96.2155 58.4011 96.2866 58.3825C96.3983 58.3532 96.5099 58.3239 96.6191 58.2943C96.6936 58.274 96.7665 58.2536 96.8399 58.2332C96.9429 58.2046 97.0455 58.176 97.1463 58.147C97.2203 58.1257 97.2931 58.1042 97.366 58.0827C97.4631 58.0541 97.5596 58.0254 97.6546 57.9964C97.7269 57.9744 97.7984 57.9523 97.8695 57.93C97.9623 57.901 98.0539 57.8717 98.1446 57.8425C98.2141 57.82 98.2834 57.7975 98.3516 57.7747C98.441 57.745 98.529 57.7151 98.6163 57.6851C98.6824 57.6624 98.7488 57.6396 98.8136 57.6167C98.9009 57.586 98.9861 57.5549 99.0711 57.5236C99.1328 57.501 99.1949 57.4786 99.2554 57.4559C99.3428 57.423 99.4278 57.3897 99.5128 57.3565C99.5676 57.335 99.6235 57.3138 99.6774 57.2921C99.7718 57.2542 99.8634 57.2159 99.9548 57.1775C99.9963 57.1601 100.039 57.1429 100.08 57.1254C100.21 57.0697 100.336 57.0136 100.46 56.9571C100.492 56.9424 100.522 56.9274 100.554 56.9125C100.645 56.87 100.735 56.8275 100.822 56.7845C100.868 56.762 100.912 56.7391 100.956 56.7165C101.027 56.6807 101.098 56.6451 101.166 56.609C101.213 56.5839 101.259 56.5585 101.305 56.5331C101.367 56.499 101.43 56.4647 101.49 56.4302C101.536 56.4037 101.581 56.377 101.626 56.3503C101.683 56.3164 101.74 56.2825 101.795 56.2484C101.839 56.221 101.882 56.1935 101.925 56.166C101.978 56.132 102.03 56.0977 102.081 56.0635C102.102 56.0494 102.124 56.0355 102.145 56.0214V69.5104H102.145ZM102.145 53.1701C102.145 53.2386 102.131 53.3148 102.1 53.3978C101.804 54.1996 99.9703 55.6353 94.5046 56.8886C89.1746 58.1108 82.0739 58.7839 74.5105 58.7839C66.9471 58.7839 59.8464 58.1108 54.5164 56.8886C49.0508 55.6353 47.2168 54.1996 46.9209 53.3978C46.8903 53.3149 46.8761 53.2386 46.8761 53.1701V39.681C46.896 39.6946 46.9178 39.708 46.9379 39.7216C46.9901 39.7569 47.0436 39.792 47.098 39.827C47.1398 39.8539 47.1816 39.8806 47.2246 39.9072C47.2808 39.942 47.3385 39.9766 47.3968 40.0111C47.4409 40.0373 47.4848 40.0635 47.5301 40.0894C47.5911 40.1243 47.6541 40.1588 47.7173 40.1934C47.763 40.2184 47.808 40.2435 47.8549 40.2684C47.9228 40.3044 47.9931 40.34 48.0635 40.3755C48.1088 40.3984 48.1528 40.4215 48.1989 40.4443C48.2849 40.4866 48.3739 40.5284 48.4633 40.5702C48.4963 40.5857 48.5279 40.6014 48.5614 40.6168C48.6845 40.6733 48.811 40.7292 48.9404 40.7847C48.9831 40.8031 49.0283 40.8211 49.0718 40.8394C49.161 40.8767 49.2503 40.9142 49.3424 40.9513C49.3983 40.9736 49.4563 40.9958 49.5131 41.018C49.596 41.0504 49.6789 41.0829 49.7641 41.1149C49.8263 41.1383 49.8903 41.1614 49.9536 41.1846C50.0369 41.2151 50.1203 41.2455 50.2056 41.2757C50.272 41.2992 50.3399 41.3225 50.4075 41.3458C50.4934 41.3752 50.5798 41.4046 50.6676 41.4339C50.7371 41.457 50.8076 41.4799 50.8784 41.5028C50.968 41.5317 51.0585 41.5605 51.1501 41.5893C51.222 41.6117 51.2944 41.6341 51.3675 41.6564C51.4618 41.6851 51.5573 41.7136 51.6535 41.7419C51.727 41.7635 51.8005 41.7852 51.8751 41.8066C51.9754 41.8354 52.0774 41.864 52.1799 41.8924C52.2538 41.9129 52.3273 41.9335 52.4023 41.9539C52.5108 41.9832 52.6215 42.0124 52.7324 42.0415C52.8043 42.0604 52.8753 42.0794 52.9481 42.098C53.0731 42.1301 53.201 42.1616 53.329 42.1933C53.3905 42.2084 53.4506 42.2239 53.5128 42.2389C53.7045 42.2854 53.899 42.3314 54.0971 42.3768C59.5606 43.6294 66.8103 44.3194 74.5105 44.3194C82.2108 44.3194 89.4605 43.6294 94.9239 42.3768C95.122 42.3314 95.3165 42.2852 95.5083 42.2389C95.5705 42.2237 95.6308 42.2084 95.6923 42.1933C95.8201 42.1618 95.9478 42.1301 96.0726 42.0981C96.1456 42.0794 96.2169 42.0604 96.2889 42.0415C96.3995 42.0125 96.5101 41.9835 96.6185 41.954C96.6935 41.9336 96.767 41.913 96.8409 41.8925C96.9433 41.864 97.0454 41.8355 97.1456 41.8067C97.2204 41.7852 97.2939 41.7636 97.3673 41.742C97.4635 41.7136 97.5591 41.6851 97.6533 41.6565C97.7264 41.6343 97.7988 41.6117 97.8708 41.5893C97.9623 41.5606 98.0528 41.5319 98.1423 41.5029C98.2131 41.48 98.2838 41.457 98.3534 41.4339C98.4411 41.4047 98.5274 41.3754 98.6131 41.3459C98.6809 41.3226 98.7486 41.2994 98.8151 41.2759C98.9005 41.2458 98.9839 41.2153 99.0671 41.1847C99.1305 41.1615 99.1945 41.1385 99.2566 41.115C99.3419 41.083 99.4246 41.0505 99.5076 41.0181C99.5645 40.9959 99.6225 40.9737 99.6784 40.9514C99.7703 40.9145 99.8593 40.8772 99.9483 40.8399C99.9921 40.8215 100.037 40.8034 100.081 40.7849C100.21 40.7294 100.336 40.6734 100.46 40.6169C100.493 40.6015 100.525 40.5859 100.558 40.5704C100.647 40.5286 100.736 40.4867 100.822 40.4444C100.868 40.4216 100.912 40.3986 100.957 40.3756C101.028 40.34 101.098 40.3044 101.166 40.2685C101.213 40.2436 101.258 40.2185 101.304 40.1934C101.367 40.1589 101.43 40.1244 101.491 40.0895C101.536 40.0635 101.58 40.0373 101.624 40.011C101.683 39.9765 101.74 39.942 101.796 39.9072C101.839 39.8806 101.881 39.8538 101.923 39.827C101.977 39.792 102.031 39.7569 102.083 39.7216C102.103 39.708 102.125 39.6946 102.145 39.681V53.1701H102.145ZM102.145 36.8299C102.145 37.5603 100.536 39.1654 94.5046 40.5483C89.1746 41.7704 82.0739 42.4435 74.5105 42.4435C66.9471 42.4435 59.8464 41.7704 54.5164 40.5483C48.4854 39.1654 46.8761 37.5604 46.8761 36.8299V23.3407C46.896 23.3544 46.9178 23.3678 46.9379 23.3814C46.9901 23.4166 47.0436 23.4517 47.098 23.4867C47.1398 23.5136 47.1816 23.5404 47.2246 23.567C47.2808 23.6018 47.3385 23.6364 47.3968 23.6709C47.4409 23.697 47.4848 23.7232 47.5301 23.7491C47.5911 23.784 47.6541 23.8185 47.7173 23.8531C47.763 23.8781 47.808 23.9033 47.8549 23.9281C47.9228 23.9641 47.9931 23.9998 48.0635 24.0352C48.1088 24.0581 48.1528 24.0813 48.1989 24.104C48.2849 24.1464 48.3739 24.1881 48.4633 24.23C48.4963 24.2455 48.5279 24.2611 48.5614 24.2765C48.6845 24.333 48.811 24.389 48.9404 24.4445C48.9831 24.4629 49.0283 24.4809 49.0718 24.4991C49.161 24.5365 49.2503 24.574 49.3424 24.611C49.3983 24.6334 49.4563 24.6555 49.5131 24.6777C49.596 24.7101 49.6789 24.7426 49.7641 24.7746C49.8263 24.798 49.8903 24.8211 49.9536 24.8444C50.0369 24.8749 50.1203 24.9053 50.2056 24.9355C50.272 24.959 50.3399 24.9823 50.4075 25.0055C50.4934 25.035 50.5798 25.0644 50.6676 25.0936C50.7371 25.1167 50.8076 25.1396 50.8784 25.1625C50.968 25.1915 51.0585 25.2202 51.1501 25.249C51.222 25.2715 51.2944 25.2939 51.3675 25.3161C51.4618 25.3449 51.5573 25.3734 51.6535 25.4016C51.727 25.4232 51.8005 25.445 51.8751 25.4664C51.9754 25.4951 52.0774 25.5238 52.1799 25.5521C52.2538 25.5726 52.3273 25.5932 52.4023 25.6136C52.5108 25.643 52.6215 25.6721 52.7324 25.7013C52.8043 25.7201 52.8753 25.7391 52.9481 25.7577C53.0731 25.7897 53.201 25.8214 53.329 25.853C53.3905 25.8681 53.4506 25.8836 53.5128 25.8986C53.7045 25.9451 53.899 25.9911 54.0971 26.0365C59.5605 27.2891 66.8101 27.9791 74.5105 27.9791C82.2109 27.9791 89.4606 27.2891 94.9239 26.0365C95.122 25.9911 95.3165 25.945 95.5083 25.8986C95.5705 25.8835 95.6308 25.8681 95.6923 25.853C95.8201 25.8215 95.9478 25.7899 96.0726 25.7579C96.1456 25.7391 96.2169 25.7201 96.2889 25.7013C96.3995 25.6722 96.5101 25.6433 96.6185 25.6138C96.6935 25.5934 96.767 25.5728 96.8409 25.5522C96.9433 25.5238 97.0454 25.4953 97.1456 25.4665C97.2204 25.445 97.2939 25.4234 97.3673 25.4017C97.4635 25.3734 97.5591 25.3449 97.6533 25.3162C97.7264 25.294 97.7988 25.2715 97.8708 25.249C97.9623 25.2204 98.0528 25.1916 98.1423 25.1626C98.2131 25.1398 98.2838 25.1167 98.3534 25.0936C98.4411 25.0645 98.5274 25.0351 98.6131 25.0056C98.6809 24.9824 98.7486 24.9591 98.8151 24.9356C98.9005 24.9055 98.9839 24.875 99.0671 24.8445C99.1305 24.8212 99.1945 24.7983 99.2566 24.7747C99.3419 24.7428 99.4246 24.7102 99.5076 24.6779C99.5645 24.6556 99.6225 24.6335 99.6784 24.6111C99.7703 24.5743 99.8593 24.537 99.9483 24.4996C99.9921 24.4812 100.037 24.4631 100.081 24.4446C100.21 24.3891 100.336 24.3331 100.46 24.2766C100.493 24.2612 100.525 24.2456 100.558 24.2301C100.647 24.1884 100.736 24.1465 100.822 24.1041C100.868 24.0814 100.912 24.0584 100.957 24.0354C101.028 23.9997 101.098 23.9641 101.166 23.9283C101.213 23.9034 101.258 23.8782 101.304 23.8531C101.367 23.8186 101.43 23.7841 101.491 23.7493C101.536 23.7233 101.58 23.697 101.624 23.6707C101.683 23.6362 101.74 23.6018 101.796 23.567C101.839 23.5404 101.881 23.5135 101.923 23.4867C101.977 23.4517 102.031 23.4166 102.083 23.3814C102.103 23.3678 102.125 23.3544 102.145 23.3407V36.8299H102.145Z" fill="black"/>
<path d="M89.2763 31.0614C87.8506 32.4873 87.8506 34.8072 89.2763 36.233C89.9892 36.9458 90.9257 37.3024 91.8622 37.3024C92.7987 37.3024 93.7351 36.9459 94.4481 36.233C95.8738 34.8072 95.8738 32.4873 94.4481 31.0614C93.0221 29.6358 90.7022 29.6358 89.2763 31.0614ZM93.1213 34.9064C92.7851 35.2428 92.3378 35.428 91.8622 35.428C91.3866 35.428 90.9393 35.2428 90.6031 34.9064C90.2667 34.5702 90.0815 34.1229 90.0815 33.6473C90.0815 33.1717 90.2667 32.7244 90.6031 32.3882C90.9393 32.0518 91.3866 31.8665 91.8622 31.8665C92.3378 31.8665 92.7851 32.0518 93.1213 32.3882C93.4577 32.7244 93.643 33.1717 93.643 33.6473C93.643 34.1229 93.4577 34.5702 93.1213 34.9064Z" fill="black"/>
<path d="M89.2763 47.1903C87.8506 48.6162 87.8506 50.9361 89.2763 52.3619C89.9892 53.0747 90.9257 53.4313 91.8622 53.4313C92.7987 53.4313 93.7351 53.0748 94.4481 52.3619C95.8738 50.9361 95.8738 48.6162 94.4481 47.1903C93.0221 45.7647 90.7022 45.7647 89.2763 47.1903ZM93.1213 51.0353C92.7851 51.3717 92.3378 51.5569 91.8622 51.5569C91.3866 51.5569 90.9393 51.3717 90.6031 51.0353C90.2667 50.6991 90.0815 50.2518 90.0815 49.7762C90.0815 49.3006 90.2667 48.8533 90.6031 48.5171C90.9393 48.1807 91.3866 47.9954 91.8622 47.9954C92.3378 47.9954 92.7851 48.1807 93.1213 48.5171C93.4577 48.8533 93.643 49.3006 93.643 49.7762C93.643 50.2518 93.4577 50.6991 93.1213 51.0353Z" fill="black"/>
<path d="M89.2763 63.3387C87.8506 64.7646 87.8506 67.0845 89.2763 68.5104C89.9892 69.2231 90.9257 69.5798 91.8622 69.5798C92.7987 69.5798 93.7351 69.2233 94.4481 68.5104C95.8738 67.0845 95.8738 64.7646 94.4481 63.3387C93.0221 61.9131 90.7022 61.9131 89.2763 63.3387ZM93.1213 67.1838C92.7851 67.5201 92.3378 67.7054 91.8622 67.7054C91.3866 67.7054 90.9393 67.5201 90.6031 67.1838C90.2667 66.8475 90.0815 66.4003 90.0815 65.9246C90.0815 65.449 90.2667 65.0018 90.6031 64.6655C90.9393 64.3291 91.3866 64.1439 91.8622 64.1439C92.3378 64.1439 92.7851 64.3291 93.1213 64.6655C93.4577 65.0018 93.643 65.449 93.643 65.9246C93.6431 66.4001 93.4577 66.8475 93.1213 67.1838Z" fill="black"/>
<path d="M83.8207 66.4604C82.5088 66.5659 81.1533 66.6495 79.7918 66.7086C79.2743 66.7312 78.8729 67.169 78.8954 67.6866C78.9174 68.1903 79.3326 68.5839 79.8319 68.5839C79.8457 68.5839 79.8596 68.5836 79.8734 68.583C81.2579 68.5227 82.6364 68.4377 83.9712 68.3302C84.4876 68.2887 84.8726 67.8363 84.8309 67.32C84.7894 66.8038 84.3358 66.417 83.8207 66.4604Z" fill="black"/>
<path d="M74.8019 66.8235C74.8012 66.8235 74.8003 66.8235 74.7996 66.8235L74.5101 66.8237C66.8924 66.8237 59.7862 66.1405 54.5003 64.8999C53.9971 64.782 53.4912 65.0944 53.3727 65.5987C53.2543 66.1032 53.5673 66.608 54.0716 66.7264C59.4938 67.999 66.7523 68.6997 74.5101 68.6997L74.8042 68.6995C75.3223 68.6981 75.7412 68.2771 75.7399 67.7591C75.7384 67.2419 75.3188 66.8235 74.8019 66.8235Z" fill="black"/>
<path d="M93.0117 20L96.6579 29.8538L106.512 33.5L96.6579 37.1462L93.0117 47L89.3655 37.1462L79.5117 33.5L89.3655 29.8538L93.0117 20Z" fill="#FEF284"/>
</svg>
