<svg width="152" height="90" viewBox="0 0 152 90" fill="none" xmlns="http://www.w3.org/2000/svg">
<path d="M100.487 28.4579C100.487 20.4385 93.9858 13.9375 85.9663 13.9375H85.1523C88.6603 13.9375 91.5041 16.7812 91.5041 20.2892V21.2428C91.5041 22.1693 92.2551 22.9202 93.1816 22.9202H94.135C97.643 22.9202 100.487 25.764 100.487 29.272L100.487 28.4579Z" fill="#E2DFE2"/>
<path d="M68.7071 20.8125H54.0476C52.6471 20.8125 51.5117 21.9479 51.5117 23.3484V32.7404C51.5117 31.34 52.647 30.2048 54.0473 30.2048H68.7071C70.1076 30.2048 71.243 29.0694 71.243 27.6689V23.3484C71.243 21.9479 70.1076 20.8125 68.7071 20.8125Z" fill="#A2F4C1"/>
<path d="M94.136 22.9201H93.1826C92.2561 22.9201 91.5051 22.169 91.5051 21.2426V20.2891C91.5051 16.7811 88.6614 13.9375 85.1535 13.9375H57.49C56.5635 13.9375 55.8125 14.6885 55.8125 15.615V20.8124H68.7056C70.1061 20.8124 71.2415 21.9477 71.2415 23.3482V27.6687C71.2415 29.0692 70.1061 30.2046 68.7056 30.2046H55.8125V74.3849C55.8125 75.3114 56.5636 76.0624 57.49 76.0624H98.8103C99.7368 76.0624 100.488 75.3114 100.488 74.3849V29.2719C100.488 25.7639 97.644 22.9201 94.136 22.9201Z" fill="#F9F6F9"/>
<path d="M94.1871 22.9219C95.003 23.9902 95.4878 25.3252 95.4878 26.7734V61.0779C95.4878 67.9737 89.8976 73.5639 83.0018 73.5639H55.8125V74.3864C55.8125 75.3129 56.5636 76.0639 57.49 76.0639H98.8103C99.7368 76.0639 100.488 75.3127 100.488 74.3864V29.2734C100.488 25.7825 97.6716 22.9492 94.1871 22.9219Z" fill="#EFECEF"/>
<path d="M55.814 35.2744H54.0473C52.647 35.2744 51.5117 34.1391 51.5117 32.7388C51.5117 31.3384 52.647 30.2031 54.0473 30.2031H55.814V35.2744Z" fill="#86F1A7"/>
<path d="M95.4868 42.5555V37.6367C95.4868 36.9463 94.9272 36.3867 94.2368 36.3867H66.9805V42.5555H95.4868Z" fill="#80E29D"/>
<path d="M66.9812 36.3867H62.0625C61.3721 36.3867 60.8125 36.9463 60.8125 37.6367V42.5555H66.9812V36.3867Z" fill="#78D090"/>
<path d="M60.8125 42.5547V69.8111C60.8125 70.5014 61.3721 71.0611 62.0625 71.0611H66.9813V42.5547H60.8125Z" fill="#80E29D"/>
<path d="M66.9805 42.5547V71.0611H94.2368C94.9272 71.0611 95.4868 70.5014 95.4868 69.8111V42.5547H66.9805Z" fill="#A2F4C1"/>
<path d="M94.2395 71.0633C94.9299 71.0633 95.4895 70.5037 95.4895 69.8133V61.082C95.488 65.1629 93.5287 68.786 90.5 71.0633H94.2395Z" fill="#86F1A7"/>
<path d="M85.9687 13H57.4915C56.0496 13 54.8765 14.1731 54.8765 15.615V19.875H54.0476C52.1325 19.875 50.5742 21.4331 50.5742 23.3484V32.7404C50.5742 34.6554 52.1322 36.2135 54.0473 36.2135H54.8765V74.385C54.8765 75.827 56.0496 77 57.4915 77H98.8117C100.254 77 101.427 75.8269 101.427 74.385V63.6097C101.427 63.092 101.007 62.6722 100.489 62.6722C99.9715 62.6722 99.5517 63.092 99.5517 63.6097V74.385C99.5517 74.7931 99.2197 75.125 98.8117 75.125H57.4916C57.0835 75.125 56.7516 74.793 56.7516 74.385V31.1424H60.8141C61.3318 31.1424 61.7516 30.7226 61.7516 30.2049C61.7516 29.6871 61.3318 29.2674 60.8141 29.2674H54.0473C53.4715 29.2674 52.9278 29.4083 52.4492 29.6574V23.3484C52.4492 22.467 53.1663 21.75 54.0476 21.75H68.707C69.5883 21.75 70.3055 22.467 70.3055 23.3484V27.6689C70.3055 28.5503 69.5885 29.2673 68.707 29.2673H65.1888C64.6711 29.2673 64.2513 29.687 64.2513 30.2048C64.2513 30.7225 64.6711 31.1423 65.1888 31.1423H68.707C70.6222 31.1423 72.1805 29.5841 72.1805 27.6689V23.3484C72.1805 21.4331 70.6223 19.875 68.7071 19.875H56.7515V15.615C56.7515 15.2069 57.0835 14.875 57.4915 14.875H85.1547C88.1401 14.875 90.569 17.3038 90.569 20.2891V21.2426C90.569 22.6846 91.7421 23.8576 93.184 23.8576H94.1373C97.1227 23.8576 99.5516 26.2865 99.5516 29.2719V59.2346C99.5516 59.7524 99.9713 60.1721 100.489 60.1721C101.007 60.1721 101.427 59.7524 101.427 59.2346V28.458C101.427 19.9344 94.4924 13 85.9687 13V13ZM54.0473 31.1424H54.8765V34.3385H54.0473C53.1662 34.3385 52.4492 33.6216 52.4492 32.7404C52.4492 31.8591 53.1662 31.1424 54.0473 31.1424ZM94.1375 21.9827H93.1841C92.7761 21.9827 92.4441 21.6508 92.4441 21.2428V20.2892C92.4441 18.5965 91.8643 17.037 90.8927 15.7984C94.4283 17.1782 97.2486 19.9986 98.6285 23.5343C97.3897 22.5625 95.8301 21.9827 94.1375 21.9827Z" fill="black"/>
<path d="M62.0625 35.4492C60.8564 35.4492 59.875 36.4306 59.875 37.6367V69.8118C59.875 71.018 60.8564 71.9993 62.0625 71.9993H94.2378C95.4439 71.9993 96.4253 71.018 96.4253 69.8118V37.6367C96.4253 36.4306 95.4439 35.4492 94.2378 35.4492H62.0625ZM82.4273 43.493H85.0481V47.3192H77.421V43.493H78.0523C78.57 43.493 78.9898 43.0732 78.9898 42.5555C78.9898 42.0377 78.57 41.618 78.0523 41.618H77.421V37.3242H85.0481V41.618H82.4273C81.9095 41.618 81.4898 42.0377 81.4898 42.5555C81.4898 43.0732 81.9095 43.493 82.4273 43.493ZM77.4209 64.4231V60.5968H85.048V64.4231H77.4209ZM85.0481 66.2981V70.1243H77.421V66.2981H85.0481ZM66.0438 54.8955V58.7217H61.75V54.8955H66.0438ZM61.75 53.0205V49.1942H66.0438V53.0205H61.75ZM67.9188 54.8955H75.5459V58.7217H67.9188V54.8955ZM77.4209 54.8955H85.048V58.7217H77.4209V54.8955ZM86.9231 54.8955H94.5503V58.7217H86.9231V54.8955ZM86.9231 53.0205V49.1942H94.5503V53.0205H86.9231ZM85.0481 53.0205H77.421V49.1942H85.0481V53.0205ZM75.5459 53.0205H67.9188V49.1942H75.5459V53.0205ZM67.9188 47.3192V43.493H75.5459V47.3192H67.9188ZM67.9188 41.618V37.3242H75.5459V41.618H67.9188ZM66.0438 47.3192H61.75V43.493H66.0438V47.3192ZM61.75 60.5968H66.0438V64.4231H61.75V60.5968ZM67.9188 60.5968H75.5459V64.4231H67.9188V60.5968ZM86.9231 60.5968H94.5503V64.4231H86.9231V60.5968ZM94.5503 47.3192H86.9231V43.493H94.5503V47.3192ZM61.75 37.6367C61.75 37.4645 61.8902 37.3242 62.0625 37.3242H66.0438V41.618H61.75V37.6367ZM61.75 69.8118V66.2981H66.0438V70.1243H62.0625C61.8902 70.1243 61.75 69.9841 61.75 69.8118ZM67.9188 66.2981H75.5459V70.1243H67.9188V66.2981ZM94.2378 70.1243H86.9231V66.2981H94.5503V69.8118C94.5503 69.9841 94.41 70.1243 94.2378 70.1243ZM94.5503 37.6367V41.618H86.9231V37.3242H94.2378C94.41 37.3242 94.5503 37.4643 94.5503 37.6367Z" fill="black"/>
<path d="M56 72L100 32" stroke="#DE4132" stroke-width="6" stroke-linecap="round"/>
</svg>
