<svg width="128" height="128" viewBox="0 0 128 128" fill="none" xmlns="http://www.w3.org/2000/svg">
<path d="M6.85156 80.3398V113.02C6.85156 120.257 32.4361 126.124 63.9963 126.124C95.5566 126.124 121.141 120.257 121.141 113.02V80.3398H6.85156Z" fill="#DFEAEF"/>
<path d="M6.85156 47.6602V80.3407C6.85156 87.5774 32.4361 93.4439 63.9963 93.4439C95.5566 93.4439 121.141 87.5774 121.141 80.3407V47.6602H6.85156Z" fill="#DFEAEF"/>
<path d="M6.85156 14.9805V47.661C6.85156 54.8977 32.4361 60.7642 63.9963 60.7642C95.5566 60.7642 121.141 54.8977 121.141 47.661V14.9805H6.85156Z" fill="#DFEAEF"/>
<path d="M108.085 14.9805V47.661C108.085 54.3912 85.954 59.9355 57.4688 60.6785C59.6117 60.7345 61.7892 60.764 63.9972 60.764C95.5575 60.764 121.142 54.8975 121.142 47.6607V14.9805H108.085Z" fill="#BFCFD6"/>
<path d="M108.085 47.6602V80.3407C108.085 87.0709 85.954 92.6152 57.4688 93.3582C59.6117 93.4142 61.7892 93.4437 63.9972 93.4437C95.5575 93.4437 121.142 87.5772 121.142 80.3404V47.6602H108.085Z" fill="#BFCFD6"/>
<path d="M108.085 80.4688V113.149C108.085 119.88 85.954 125.424 57.4688 126.167C59.6117 126.223 61.7892 126.252 63.9972 126.252C95.5575 126.252 121.142 120.386 121.142 113.149V80.4688H108.085Z" fill="#BFCFD6"/>
<path d="M63.9966 28.08C95.5569 28.08 121.142 22.2138 121.142 14.9775C121.142 7.74119 95.5569 1.875 63.9966 1.875C32.4363 1.875 6.85156 7.74119 6.85156 14.9775C6.85156 22.2138 32.4363 28.08 63.9966 28.08Z" fill="#9EBECC"/>
<path d="M63.9972 1.875C61.7892 1.875 59.6115 1.90475 57.4688 1.9605C85.9538 2.7035 108.085 8.24775 108.085 14.978C108.085 21.7083 85.9538 27.2525 57.4688 27.9955C59.6117 28.0515 61.7892 28.081 63.9972 28.081C95.5575 28.081 121.142 22.2145 121.142 14.9778C121.142 7.7415 95.5575 1.875 63.9972 1.875Z" fill="#86AEBC"/>
<path d="M123.009 14.7577C122.614 5.786 98.3441 2.27875 87.8588 1.18325C84.6236 0.84525 81.2328 0.575 77.7801 0.3805C73.2943 0.128 68.6571 0 63.9976 0C52.0753 0 40.6261 0.829 30.8876 2.39775C29.8646 2.5625 29.1688 3.52525 29.3338 4.54825C29.4986 5.571 30.4626 6.2675 31.4843 6.102C41.0291 4.56475 52.2718 3.752 63.9978 3.752C68.5873 3.752 73.1533 3.878 77.5693 4.12675C80.9623 4.31775 84.2931 4.583 87.4693 4.91475C97.1718 5.9285 105.375 7.5385 111.191 9.57075C118.877 12.2568 119.267 14.5473 119.267 14.979C119.267 16.4398 116.048 19.65 103.986 22.4158C103.653 22.4923 103.316 22.5675 102.976 22.6418C92.4376 24.943 78.6518 26.2062 63.9978 26.2062C49.3438 26.2062 35.5581 24.9428 25.0193 22.6418C24.6793 22.5675 24.3428 22.4923 24.0096 22.4158C12.0571 19.6753 8.79031 16.4995 8.73181 15.0208C8.73206 15.0068 8.73381 14.9932 8.73381 14.9795C8.73381 14.9662 8.73206 14.9535 8.73181 14.9403C8.76256 14.0573 9.83156 12.9318 11.6798 11.8435C14.0118 10.4703 17.4313 9.2 21.8438 8.068C22.8473 7.8105 23.4521 6.78825 23.1946 5.7845C22.9371 4.78125 21.9158 4.177 20.9111 4.43375C10.3378 7.14625 4.97656 10.6947 4.97656 14.9797V47.6603V80.3405V113.021C4.97656 117.614 11.0981 121.347 23.1708 124.115C34.0976 126.62 48.5968 128 63.9976 128C79.3983 128 93.8978 126.62 104.824 124.115C116.897 121.347 123.018 117.614 123.018 113.021V80.3402V47.6598V15.076C123.02 15.0438 123.023 15.0117 123.023 14.9792C123.023 14.9042 123.018 14.8305 123.009 14.7577ZM119.266 113.021C119.266 114.482 116.048 117.692 103.986 120.457C93.3258 122.902 79.1246 124.248 63.9976 124.248C48.8706 124.248 34.6693 122.902 24.0093 120.457C11.9473 117.691 8.72881 114.482 8.72881 113.021V86.0427C8.76981 86.071 8.81506 86.0987 8.85681 86.127C8.95856 86.1957 9.06281 86.264 9.16856 86.332C9.25406 86.387 9.34031 86.442 9.42831 86.4967C9.53856 86.5652 9.65206 86.633 9.76656 86.7008C9.85656 86.754 9.94581 86.8075 10.0383 86.8603C10.1591 86.9293 10.2838 86.9978 10.4088 87.0663C10.5013 87.1168 10.5921 87.1675 10.6868 87.2178C10.8231 87.29 10.9643 87.3612 11.1053 87.4327C11.1948 87.478 11.2818 87.5237 11.3733 87.5687C11.5481 87.6547 11.7288 87.7398 11.9106 87.8248C11.9741 87.8543 12.0343 87.8845 12.0986 87.914C12.3453 88.0273 12.5988 88.1395 12.8583 88.2507C12.9393 88.2855 13.0246 88.3195 13.1071 88.3542C13.2903 88.4312 13.4738 88.508 13.6633 88.584C13.7711 88.6272 13.8828 88.6698 13.9926 88.7128C14.1626 88.7793 14.3326 88.8457 14.5073 88.9115C14.6283 88.957 14.7526 89.002 14.8758 89.047C15.0458 89.1092 15.2166 89.1715 15.3908 89.2333C15.5206 89.279 15.6533 89.3245 15.7856 89.37C15.9603 89.43 16.1363 89.49 16.3156 89.5495C16.4518 89.5947 16.5901 89.6398 16.7288 89.6848C16.9103 89.7435 17.0938 89.802 17.2796 89.86C17.4216 89.9045 17.5646 89.9488 17.7091 89.9928C17.8991 90.0508 18.0921 90.1082 18.2863 90.1655C18.4321 90.2085 18.5776 90.2512 18.7258 90.294C18.9273 90.352 19.1326 90.4092 19.3386 90.4665C19.4853 90.5072 19.6311 90.5483 19.7801 90.5885C19.9988 90.6478 20.2223 90.7065 20.4461 90.765C20.5878 90.8022 20.7281 90.8398 20.8718 90.8765C21.1231 90.941 21.3798 91.0045 21.6368 91.068C21.7591 91.0983 21.8786 91.1288 22.0021 91.1588C22.3856 91.2518 22.7746 91.3438 23.1708 91.4345C34.0978 93.9398 48.5968 95.3197 63.9976 95.3197C79.3983 95.3197 93.8976 93.9398 104.824 91.4345C105.221 91.3438 105.61 91.2515 105.993 91.1588C106.117 91.1288 106.237 91.0983 106.359 91.068C106.616 91.0045 106.872 90.9412 107.123 90.8767C107.267 90.8397 107.408 90.8022 107.55 90.765C107.773 90.7065 107.996 90.6478 108.215 90.5885C108.364 90.548 108.51 90.5072 108.656 90.4665C108.862 90.4092 109.068 90.352 109.269 90.294C109.417 90.2515 109.563 90.2085 109.709 90.1655C109.903 90.1082 110.096 90.0508 110.286 89.9928C110.43 89.9488 110.573 89.9045 110.716 89.86C110.901 89.802 111.084 89.7435 111.266 89.685C111.405 89.64 111.543 89.595 111.68 89.5495C111.859 89.49 112.035 89.4302 112.209 89.3702C112.341 89.3247 112.474 89.2792 112.604 89.2335C112.778 89.172 112.949 89.1097 113.119 89.0472C113.242 89.002 113.366 88.9573 113.487 88.9118C113.662 88.846 113.832 88.7795 114.002 88.713C114.112 88.67 114.224 88.6275 114.331 88.5843C114.52 88.5085 114.703 88.4318 114.886 88.355C114.969 88.3203 115.055 88.2857 115.137 88.2507C115.396 88.1395 115.649 88.0273 115.896 87.9143C115.96 87.8848 116.021 87.8547 116.084 87.825C116.266 87.74 116.447 87.655 116.621 87.569C116.713 87.524 116.8 87.4782 116.889 87.433C117.03 87.3615 117.172 87.2903 117.308 87.218C117.403 87.1678 117.494 87.117 117.586 87.0663C117.711 86.998 117.836 86.9295 117.956 86.8605C118.049 86.8075 118.138 86.754 118.229 86.7005C118.343 86.6328 118.456 86.565 118.566 86.4967C118.655 86.442 118.741 86.387 118.826 86.332C118.932 86.264 119.036 86.1955 119.138 86.127C119.18 86.0987 119.225 86.071 119.266 86.0427V113.021H119.266V113.021ZM119.266 80.3402C119.266 80.4772 119.238 80.6295 119.177 80.7955C118.585 82.3993 114.917 85.2705 103.986 87.7773C93.3258 90.2215 79.1243 91.5677 63.9976 91.5677C48.8708 91.5677 34.6693 90.2215 24.0093 87.7773C13.0781 85.2705 9.41006 82.3993 8.81831 80.7955C8.75706 80.6298 8.72881 80.4772 8.72881 80.3402V53.362C8.76856 53.3892 8.81206 53.416 8.85231 53.4432C8.95681 53.5137 9.06381 53.584 9.17256 53.654C9.25606 53.7077 9.33981 53.7612 9.42581 53.8145C9.53806 53.884 9.65356 53.9533 9.77006 54.0223C9.85831 54.0745 9.94606 54.127 10.0368 54.1787C10.1588 54.2485 10.2848 54.3175 10.4111 54.3867C10.5026 54.4367 10.5926 54.487 10.6863 54.5368C10.8221 54.6088 10.9628 54.68 11.1036 54.751C11.1941 54.7967 11.2821 54.843 11.3743 54.8885C11.5463 54.9733 11.7243 55.0567 11.9031 55.1405C11.9691 55.1715 12.0323 55.2028 12.0993 55.2335C12.3456 55.3465 12.5986 55.4585 12.8573 55.5695C12.9428 55.6062 13.0331 55.6422 13.1201 55.6787C13.2986 55.7535 13.4771 55.8285 13.6613 55.9025C13.7731 55.9473 13.8891 55.9915 14.0028 56.036C14.1686 56.1007 14.3343 56.1658 14.5048 56.2298C14.6291 56.2765 14.7571 56.3228 14.8838 56.3693C15.0503 56.4303 15.2171 56.491 15.3878 56.5515C15.5206 56.5985 15.6563 56.645 15.7916 56.6915C15.9633 56.7505 16.1361 56.8092 16.3118 56.8677C16.4508 56.914 16.5918 56.9598 16.7333 57.0055C16.9126 57.0635 17.0936 57.121 17.2768 57.1785C17.4206 57.2235 17.5653 57.2683 17.7116 57.3128C17.9001 57.3703 18.0911 57.4272 18.2836 57.4837C18.4306 57.527 18.5776 57.5705 18.7268 57.6133C18.9273 57.6708 19.1313 57.728 19.3363 57.7848C19.4841 57.8258 19.6311 57.867 19.7811 57.9077C19.9981 57.9665 20.2196 58.0248 20.4413 58.083C20.5851 58.1208 20.7271 58.1587 20.8728 58.196C21.1228 58.2602 21.3786 58.3233 21.6346 58.3865C21.7576 58.4168 21.8778 58.4477 22.0021 58.4777C22.3856 58.5707 22.7746 58.6628 23.1708 58.7535C34.0978 61.2588 48.5971 62.6387 63.9976 62.6387C79.3981 62.6387 93.8976 61.2588 104.824 58.7535C105.221 58.6628 105.61 58.5705 105.993 58.4777C106.118 58.4475 106.238 58.4168 106.361 58.3865C106.617 58.3235 106.872 58.2603 107.122 58.1963C107.268 58.1588 107.41 58.1208 107.554 58.083C107.776 58.025 107.997 57.967 108.214 57.908C108.364 57.8673 108.511 57.826 108.658 57.785C108.863 57.728 109.067 57.671 109.268 57.6135C109.417 57.5705 109.564 57.5273 109.711 57.484C109.904 57.4273 110.095 57.3702 110.283 57.313C110.429 57.2685 110.574 57.2235 110.718 57.1785C110.901 57.1213 111.082 57.0637 111.261 57.0057C111.403 56.96 111.544 56.914 111.683 56.8677C111.859 56.8095 112.031 56.7507 112.203 56.6917C112.338 56.6452 112.474 56.5988 112.607 56.5518C112.778 56.4915 112.944 56.4305 113.111 56.3695C113.238 56.323 113.366 56.277 113.49 56.23C113.66 56.166 113.826 56.101 113.992 56.0363C114.106 55.9918 114.222 55.9475 114.333 55.9027C114.517 55.829 114.695 55.7545 114.873 55.6797C114.961 55.643 115.051 55.6068 115.138 55.5698C115.397 55.4588 115.649 55.3467 115.896 55.2337C115.963 55.203 116.026 55.1718 116.092 55.1408C116.271 55.0573 116.449 54.9735 116.621 54.8887C116.713 54.8432 116.801 54.7973 116.891 54.7513C117.032 54.68 117.173 54.6087 117.309 54.537C117.402 54.4872 117.493 54.437 117.584 54.3867C117.71 54.3177 117.836 54.2488 117.958 54.179C118.049 54.127 118.137 54.0745 118.225 54.022C118.342 53.953 118.457 53.884 118.569 53.8145C118.655 53.7612 118.739 53.7075 118.822 53.654C118.931 53.584 119.038 53.5137 119.143 53.4432C119.183 53.416 119.226 53.3892 119.266 53.362V80.3402H119.266V80.3402ZM119.266 47.6598C119.266 49.1205 116.048 52.3308 103.986 55.0965C93.3258 57.5408 79.1243 58.887 63.9976 58.887C48.8708 58.887 34.6693 57.5408 24.0093 55.0965C11.9473 52.3308 8.72881 49.1208 8.72881 47.6598V20.6815C8.76856 20.7087 8.81206 20.7355 8.85231 20.7628C8.95681 20.8333 9.06381 20.9035 9.17256 20.9735C9.25606 21.0272 9.33981 21.0808 9.42581 21.134C9.53806 21.2035 9.65356 21.2727 9.77006 21.3417C9.85831 21.394 9.94606 21.4465 10.0368 21.4982C10.1588 21.568 10.2848 21.637 10.4111 21.7062C10.5026 21.7562 10.5926 21.8065 10.6863 21.8563C10.8221 21.9283 10.9628 21.9995 11.1036 22.0705C11.1941 22.1162 11.2821 22.1625 11.3743 22.208C11.5463 22.2928 11.7243 22.3762 11.9031 22.46C11.9691 22.491 12.0323 22.5222 12.0993 22.553C12.3456 22.666 12.5986 22.778 12.8573 22.889C12.9428 22.9257 13.0331 22.9617 13.1201 22.9982C13.2986 23.073 13.4771 23.148 13.6613 23.222C13.7731 23.2668 13.8891 23.311 14.0028 23.3555C14.1686 23.4202 14.3343 23.4852 14.5048 23.5492C14.6291 23.596 14.7571 23.6422 14.8838 23.6887C15.0503 23.7497 15.2171 23.8105 15.3878 23.871C15.5206 23.918 15.6563 23.9645 15.7916 24.011C15.9633 24.07 16.1361 24.1288 16.3118 24.1873C16.4508 24.2335 16.5918 24.2793 16.7333 24.325C16.9126 24.383 17.0936 24.4405 17.2768 24.498C17.4206 24.543 17.5653 24.5877 17.7116 24.6322C17.9001 24.6897 18.0911 24.7467 18.2836 24.8032C18.4306 24.8465 18.5776 24.89 18.7268 24.9328C18.9273 24.9903 19.1313 25.0475 19.3363 25.1042C19.4841 25.1452 19.6311 25.1865 19.7811 25.2272C19.9981 25.286 20.2196 25.3443 20.4413 25.4025C20.5851 25.4403 20.7271 25.4782 20.8728 25.5155C21.1228 25.5795 21.3786 25.6427 21.6346 25.706C21.7576 25.7362 21.8778 25.7673 22.0021 25.7973C22.3856 25.8903 22.7746 25.9822 23.1708 26.073C34.0976 28.5782 48.5968 29.9583 63.9976 29.9583C79.3983 29.9583 93.8978 28.5782 104.824 26.073C105.221 25.9822 105.61 25.89 105.993 25.7973C106.118 25.767 106.238 25.7362 106.361 25.706C106.617 25.643 106.872 25.5798 107.122 25.5158C107.268 25.4783 107.41 25.4403 107.554 25.4025C107.776 25.3445 107.997 25.2865 108.214 25.2275C108.364 25.1868 108.511 25.1455 108.658 25.1045C108.863 25.0475 109.067 24.9905 109.268 24.933C109.417 24.89 109.564 24.8467 109.711 24.8035C109.904 24.7467 110.095 24.6897 110.283 24.6325C110.429 24.588 110.574 24.543 110.718 24.498C110.901 24.4407 111.082 24.3833 111.261 24.3253C111.403 24.2795 111.544 24.2335 111.683 24.1873C111.859 24.129 112.031 24.0702 112.203 24.0112C112.338 23.9647 112.474 23.9183 112.607 23.8713C112.778 23.811 112.944 23.75 113.111 23.689C113.238 23.6425 113.366 23.5965 113.49 23.5495C113.66 23.4855 113.826 23.4205 113.992 23.3557C114.106 23.3112 114.222 23.267 114.333 23.2222C114.517 23.1485 114.695 23.074 114.873 22.9993C114.961 22.9625 115.051 22.9262 115.138 22.8892C115.397 22.7782 115.649 22.6662 115.896 22.5532C115.963 22.5225 116.026 22.4913 116.092 22.4603C116.271 22.3768 116.449 22.293 116.621 22.2083C116.713 22.1628 116.801 22.1167 116.891 22.0707C117.032 21.9995 117.173 21.9283 117.309 21.8565C117.402 21.8068 117.493 21.7565 117.584 21.7062C117.71 21.6372 117.836 21.5683 117.958 21.4985C118.049 21.4465 118.137 21.394 118.225 21.3415C118.342 21.2725 118.457 21.2035 118.569 21.134C118.655 21.0808 118.739 21.027 118.822 20.9735C118.931 20.9035 119.038 20.8333 119.143 20.7628C119.183 20.7355 119.226 20.7087 119.266 20.6815V47.6598H119.266V47.6598Z" fill="black"/>
<path d="M77.5578 47.25C77.1591 47.25 76.7628 47.2637 76.3703 47.29L64.0078 104.743C64.7191 104.329 95.0541 86.5175 95.0578 64.7525C95.0578 55.0875 87.2228 47.25 77.5578 47.25Z" fill="#E0230D"/>
<path d="M76.375 47.29C84.02 47.9 90.0625 55.4862 90.0625 64.7525C90.0588 86.495 64.6588 104.293 64.0125 104.743C64.0038 104.748 64 104.75 64 104.75C64 104.75 32.9375 86.775 32.9375 64.75C32.9375 55.085 40.7725 47.25 50.4375 47.25C55.9075 47.25 60.7912 49.76 64 53.6912C66.975 50.0462 71.3888 47.6237 76.375 47.29Z" fill="#FF5D7D"/>
<path d="M64 104.75C62.9983 106.481 62.9977 106.481 62.997 106.48L62.9951 106.479L62.989 106.476L62.9685 106.464L62.8945 106.42C62.8307 106.383 62.7383 106.328 62.6193 106.256C62.3812 106.113 62.0364 105.902 61.6 105.627C60.7276 105.078 59.4878 104.273 58.003 103.238C55.0372 101.171 51.075 98.1771 47.1042 94.4716C39.2694 87.1601 30.9375 76.6513 30.9375 64.75C30.9375 53.9804 39.6679 45.25 50.4375 45.25C55.7089 45.25 60.4924 47.3437 63.9999 50.74C67.2103 47.6312 71.4894 45.6138 76.2361 45.2948L76.2368 45.2948C76.6712 45.2657 77.1121 45.25 77.5578 45.25C88.3278 45.25 97.0578 53.9833 97.0578 64.7525V64.7528C97.0558 76.4043 89.0687 86.7177 81.3957 93.9962C73.8438 101.16 66.1535 105.798 65.117 106.411L65.082 106.435L65.0557 106.45L64.0747 107.104L62.9983 106.481L64 104.75ZM64 104.75L64.0667 104.85C64.0449 104.817 64.0227 104.784 64 104.75Z" stroke="black" stroke-width="4"/>
</svg>
