<svg width="152" height="101" viewBox="0 0 152 101" fill="none" xmlns="http://www.w3.org/2000/svg">
<path d="M124.933 61L126.806 66.3271L131.867 68.2983L126.806 70.2695L124.933 75.5966L123.061 70.2695L118 68.2983L123.061 66.3271L124.933 61Z" fill="#FFB531"/>
<path d="M100.117 38.5979L99.2571 33.5708C99.1645 33.0293 98.6506 32.6659 98.1096 32.7585L92.6094 33.6992L93.8045 40.6866L99.3047 39.7459C99.8457 39.6533 100.21 39.1393 100.117 38.5979Z" fill="#F288E8"/>
<path d="M102.008 49.6296L101.148 44.602C101.055 44.0611 100.541 43.6972 100 43.7897L94.5 44.7305L95.6951 51.7179L101.195 50.7771C101.736 50.6846 102.1 50.1706 102.008 49.6296Z" fill="#F288E8"/>
<path d="M103.89 60.6604L103.031 55.6333C102.938 55.0918 102.424 54.7284 101.883 54.821L96.3828 55.7617L97.5779 62.7491L103.078 61.8084C103.619 61.7158 103.983 61.2018 103.89 60.6604Z" fill="#F288E8"/>
<path d="M98.1028 32.7596L96.645 33.009L97.3525 37.1457C97.4457 37.6905 97.0795 38.2079 96.5346 38.3011L93.4857 38.8226L93.8045 40.6866L99.298 39.747C99.8428 39.6538 100.209 39.1364 100.116 38.5916L99.2582 33.5775C99.165 33.0322 98.6477 32.6664 98.1028 32.7596Z" fill="#D866D3"/>
<path d="M99.9935 43.7909L98.5356 44.0402L99.2433 48.1774C99.3364 48.7222 98.9702 49.2396 98.4254 49.3328L95.3764 49.8543L95.6951 51.7179L101.189 50.7783C101.733 50.6851 102.1 50.1677 102.006 49.6229L101.149 44.6088C101.056 44.064 100.538 43.6977 99.9935 43.7909Z" fill="#D866D3"/>
<path d="M101.876 54.8221L100.418 55.0715L101.126 59.2082C101.219 59.7535 100.853 60.2704 100.308 60.3636L97.2591 60.8851L97.5779 62.7491L103.071 61.8095C103.616 61.7163 103.982 61.1989 103.889 60.6541L103.032 55.64C102.938 55.0947 102.421 54.7289 101.876 54.8221Z" fill="#D866D3"/>
<path d="M86.3571 67.8027L80.2849 32.3007C80.1923 31.7593 80.5561 31.2452 81.0976 31.1526L92.2953 29.2374C92.8368 29.1448 93.3508 29.5086 93.4434 30.0501L99.5157 65.5526C99.6082 66.0936 99.2443 66.6076 98.7029 66.7002L87.5051 68.6154C86.9637 68.7081 86.4497 68.3442 86.3571 67.8027Z" fill="#F288E8"/>
<path d="M56.4684 35.367L51.4408 36.2269C50.8999 36.3195 50.536 36.8335 50.6285 37.3744L51.5693 42.8746L58.5567 41.6795L57.6159 36.1793C57.5234 35.6384 57.0094 35.2745 56.4684 35.367Z" fill="#F96058"/>
<path d="M67.5075 33.4803L62.4804 34.3401C61.9389 34.4327 61.5751 34.9468 61.6676 35.4877L62.6083 40.9879L69.5962 39.7927L68.6555 34.2925C68.563 33.7516 68.0489 33.3877 67.5075 33.4803Z" fill="#F96058"/>
<path d="M56.4635 35.3679L53.75 35.832C54.2948 35.7388 54.8122 36.1051 54.9054 36.6499L55.845 42.1434L58.5585 41.6793L57.6189 36.1858C57.5257 35.641 57.0083 35.2747 56.4635 35.3679Z" fill="#E94141"/>
<path d="M67.4943 33.4813L64.7812 33.9453C65.3261 33.8521 65.8435 34.2184 65.9367 34.7632L66.8762 40.2567L69.5898 39.7926L68.6502 34.2991C68.557 33.7543 68.0396 33.388 67.4943 33.4813Z" fill="#E94141"/>
<path d="M75.0389 50.9415L50.1763 55.194C49.6349 55.2866 49.1208 54.9227 49.0282 54.3813L47.113 43.1835C47.0204 42.6421 47.3843 42.128 47.9257 42.0354L72.7883 37.783C73.3293 37.6905 73.8433 38.0543 73.9359 38.5958L75.8511 49.7935C75.9437 50.335 75.5799 50.849 75.0389 50.9415Z" fill="#F96058"/>
<path d="M92.2886 29.2385L89.8812 29.6503L95.7684 64.0709C95.8616 64.6157 95.4953 65.1331 94.9505 65.2263L86.1732 66.7275L86.356 67.7965C86.4492 68.3413 86.9666 68.7076 87.5114 68.6144L98.6961 66.7014C99.2414 66.6081 99.6077 66.0907 99.5145 65.5459L93.4445 30.0564C93.3513 29.5115 92.8339 29.1453 92.2886 29.2385Z" fill="#D866D3"/>
<path d="M72.7816 37.7842L70.3737 38.196L72.1039 48.3123C72.1971 48.8571 71.8308 49.3745 71.286 49.4677L48.8443 53.3061L49.0272 54.375C49.1203 54.9198 49.6377 55.2861 50.1826 55.1929L75.0322 50.9427C75.577 50.8495 75.9432 50.3321 75.8501 49.7873L73.937 38.6025C73.8438 38.0572 73.3264 37.691 72.7816 37.7842Z" fill="#E94141"/>
<path d="M92.7702 75.5838L45.8004 83.6174C45.259 83.71 44.745 83.3461 44.6524 82.8052L40.9724 61.289C40.8798 60.7475 41.2436 60.2335 41.7851 60.1409L88.7549 52.1073C89.2963 52.0147 89.8098 52.3786 89.9025 52.9201L93.5825 74.4363C93.6751 74.9772 93.3117 75.4912 92.7702 75.5838Z" fill="#FFA511"/>
<path d="M53.2959 64.9392C53.6259 66.8687 52.3292 68.7005 50.3997 69.0305C48.4698 69.3606 46.6385 68.0638 46.3085 66.1343C45.9785 64.2048 47.2747 62.3732 49.2046 62.0431C51.1341 61.7131 52.9659 63.0097 53.2959 64.9392Z" fill="#FFDC13"/>
<path d="M55.0615 75.2634C55.3915 77.1929 54.0949 79.0247 52.1654 79.3547C50.2354 79.6848 48.4041 78.388 48.0741 76.4585C47.7441 74.529 49.0403 72.6974 50.9703 72.3673C52.8998 72.0373 54.7315 73.3339 55.0615 75.2634Z" fill="#FFDC13"/>
<path d="M64.3115 63.0564C64.6415 64.9859 63.3449 66.8176 61.4154 67.1477C59.4859 67.4777 57.6541 66.181 57.3241 64.2515C56.9941 62.322 58.2908 60.4903 60.2203 60.1603C62.1498 59.8302 63.9815 61.1269 64.3115 63.0564Z" fill="#FFDC13"/>
<path d="M66.0693 73.3767C66.3993 75.3062 65.1027 77.138 63.1732 77.468C61.2437 77.798 59.4119 76.5013 59.0819 74.5718C58.7519 72.6423 60.0486 70.8106 61.9781 70.4806C63.9076 70.1506 65.7393 71.4472 66.0693 73.3767Z" fill="#FFDC13"/>
<path d="M75.3584 61.1658C75.6884 63.0953 74.3917 64.927 72.4622 65.257C70.5327 65.5871 68.701 64.2904 68.371 62.3609C68.041 60.4314 69.3376 58.5997 71.2671 58.2696C73.1966 57.9396 75.0284 59.2363 75.3584 61.1658Z" fill="#FFDC13"/>
<path d="M77.124 71.49C77.454 73.4195 76.1574 75.2512 74.2279 75.5813C72.2984 75.9113 70.4666 74.6146 70.1366 72.6851C69.8066 70.7556 71.1033 68.9239 73.0328 68.5939C74.9623 68.2638 76.794 69.5605 77.124 71.49Z" fill="#FFDC13"/>
<path d="M86.374 59.283C86.704 61.2125 85.4074 63.0442 83.4779 63.3742C81.5484 63.7042 79.7166 62.4076 79.3866 60.4781C79.0566 58.5486 80.3533 56.7168 82.2828 56.3868C84.2123 56.0568 86.044 57.3535 86.374 59.283Z" fill="#FFDC13"/>
<path d="M88.1318 69.6033C88.4618 71.5328 87.1652 73.3645 85.2357 73.6945C83.3062 74.0246 81.4744 72.7279 81.1444 70.7984C80.8144 68.8689 82.1111 67.0372 84.0406 66.7071C85.9701 66.3771 87.8018 67.6738 88.1318 69.6033Z" fill="#FFDC13"/>
<path d="M88.7481 52.1085L86.3008 52.527L89.7089 72.4535C89.8021 72.9983 89.4359 73.5157 88.891 73.6089L44.3816 81.2217L44.6513 82.7984C44.7445 83.3432 45.2619 83.7095 45.8067 83.6163L92.7635 75.5849C93.3083 75.4917 93.6746 74.9743 93.5814 74.4295L89.9035 52.9264C89.8103 52.3815 89.2929 52.0153 88.7481 52.1085Z" fill="#F48500"/>
<path d="M104.697 89.7754L79.8155 94.031C79.2745 94.1236 78.7605 93.7597 78.668 93.2187L74.9879 71.7026C74.8954 71.1616 75.2593 70.6476 75.8002 70.5551L100.682 66.2994C101.223 66.2069 101.737 66.5707 101.829 67.1117L105.509 88.6279C105.602 89.1693 105.238 89.6829 104.697 89.7754Z" fill="#0064DB"/>
<path d="M100.675 66.3006L98.2275 66.7191L101.636 86.6451C101.729 87.1899 101.362 87.7073 100.818 87.8005L78.3972 91.6353L78.6668 93.212C78.7601 93.7573 79.2775 94.1236 79.8223 94.0304L104.69 89.777C105.235 89.6838 105.601 89.1664 105.508 88.6211L101.83 67.1185C101.737 66.5731 101.22 66.2074 100.675 66.3006Z" fill="#0050C4"/>
<path d="M87.3506 75.3494C87.6806 77.2789 86.3839 79.1106 84.4544 79.4406C82.5249 79.7706 80.6932 78.474 80.3632 76.5445C80.0332 74.615 81.3298 72.7832 83.2593 72.4532C85.1888 72.1232 87.0206 73.4199 87.3506 75.3494Z" fill="#0B9CFF"/>
<path d="M89.1162 85.6697C89.4462 87.5992 88.1496 89.4309 86.2201 89.7609C84.2906 90.091 82.4588 88.7943 82.1288 86.8648C81.7988 84.9353 83.0954 83.1036 85.0249 82.7735C86.9545 82.4435 88.7862 83.7402 89.1162 85.6697Z" fill="#0B9CFF"/>
<path d="M98.3662 73.4666C98.6962 75.3961 97.3996 77.2278 95.4701 77.5578C93.5406 77.8878 91.7088 76.5912 91.3788 74.6617C91.0488 72.7322 92.3454 70.9004 94.2749 70.5704C96.2045 70.2404 98.0362 71.5371 98.3662 73.4666Z" fill="#0B9CFF"/>
<path d="M100.132 83.7908C100.462 85.7203 99.1652 87.552 97.2357 87.882C95.3062 88.2121 93.4744 86.9154 93.1444 84.9859C92.8144 83.0564 94.1111 81.2247 96.0406 80.8946C97.9701 80.5646 99.8018 81.8613 100.132 83.7908Z" fill="#0B9CFF"/>
<path d="M99.4572 40.6738C100.511 40.4936 101.222 39.4892 101.042 38.4352L100.184 33.4211C100.004 32.367 98.9997 31.6561 97.9457 31.8364L94.7961 32.3751L94.3731 29.9017C94.1928 28.8477 93.1889 28.1366 92.1344 28.317L80.9497 30.23C79.8956 30.4103 79.1847 31.4146 79.3649 32.4686L82.1167 48.5573C82.2041 49.0684 82.6893 49.4114 83.2 49.3241C83.7111 49.2367 84.0542 48.752 83.9668 48.2408L81.215 32.1522C81.2093 32.1185 81.2324 32.0858 81.2661 32.0801L92.4508 30.1671C92.485 30.1612 92.5177 30.1844 92.5235 30.218L98.5934 65.7071L93.2005 66.6295L90.8298 52.7687C90.6496 51.7147 89.6452 51.0037 88.5912 51.184L41.6344 59.2154C40.5804 59.3957 39.8694 60.4 40.0497 61.4541L43.7275 82.9572C43.9078 84.0113 44.9122 84.7222 45.9662 84.542L75.3707 79.5127L77.7414 93.3729C77.9216 94.4269 78.926 95.1379 79.98 94.9576L104.848 90.7043C105.902 90.524 106.613 89.5197 106.433 88.4656L102.755 66.9629C102.574 65.9084 101.57 65.1979 100.516 65.3782L100.443 65.3907L100.081 63.2755L103.231 62.7368C104.285 62.5565 104.996 61.5521 104.816 60.4981L103.958 55.484C103.778 54.4295 102.773 53.719 101.719 53.8993L98.5697 54.438L98.1944 52.2438L101.344 51.7051C102.398 51.5248 103.109 50.5204 102.929 49.4664L102.071 44.4523C101.891 43.3983 100.886 42.6873 99.8324 42.8676L96.6829 43.4063L96.3076 41.2125L99.4572 40.6738ZM45.6497 82.6919C45.6156 82.6977 45.5834 82.6745 45.5776 82.6408L41.8998 61.1376C41.894 61.1039 41.9171 61.0712 41.9508 61.0655L88.9076 53.0341C88.9418 53.0283 88.974 53.0515 88.9798 53.0852L91.3505 66.9459L88.2139 67.4824C87.2141 66.1727 85.5568 65.5016 83.8953 65.7858C82.2334 66.07 80.8933 67.2538 80.3857 68.8213L77.201 69.366C76.2012 68.0563 74.5438 67.3852 72.8819 67.6695C70.4456 68.0862 68.8027 70.4076 69.2194 72.8439C69.6362 75.2807 71.9572 76.9237 74.3935 76.507C74.5446 76.4811 74.6935 76.4482 74.8396 76.4074L75.0543 77.6626L45.6497 82.6919ZM85.8426 67.888L82.7575 68.4156C83.1363 68.015 83.641 67.7335 84.2118 67.6359C84.7821 67.5383 85.3517 67.6361 85.8426 67.888ZM74.52 74.5385C74.377 74.5892 74.2296 74.6308 74.0775 74.6568C72.6611 74.8991 71.3113 73.944 71.069 72.5276C70.8268 71.1111 71.7824 69.7617 73.1988 69.5195C73.8375 69.4102 74.4748 69.545 75.0017 69.868C74.3229 70.264 73.9235 71.0511 74.0636 71.8702L74.52 74.5385ZM100.905 67.2794L104.583 88.7821C104.588 88.8162 104.565 88.8484 104.531 88.8542L79.6636 93.1076C79.6294 93.1134 79.5973 93.0907 79.5914 93.0565L76.4875 74.9089C76.4869 74.9055 76.4864 74.9021 76.4858 74.8988L75.9137 71.5538C75.9078 71.5196 75.9306 71.4875 75.9647 71.4817L76.9249 71.3174L76.9389 71.315L87.9162 69.4375C87.9186 69.4371 87.9216 69.4371 87.924 69.4367C87.9264 69.4363 87.9287 69.4354 87.9311 69.435L100.833 67.2283C100.866 67.2225 100.899 67.2452 100.905 67.2794ZM98.2621 33.6864C98.2958 33.6807 98.3284 33.7033 98.3343 33.7375L99.1918 38.7511C99.1976 38.7853 99.1744 38.8175 99.1407 38.8233L95.9911 39.362L95.1125 34.2251L98.2621 33.6864ZM102.036 55.7489C102.069 55.7431 102.102 55.7663 102.108 55.8004L102.965 60.8145C102.971 60.8482 102.948 60.8809 102.914 60.8867L99.7648 61.4254L98.886 56.2876L102.036 55.7489ZM100.149 44.7177C100.183 44.7119 100.215 44.7346 100.221 44.7687L101.079 49.7828C101.084 49.8165 101.061 49.8492 101.028 49.855L97.878 50.3937L96.9993 45.2564L100.149 44.7177Z" fill="black"/>
<path d="M50.3365 56.1174L75.1861 51.8672C76.2401 51.6869 76.9511 50.6826 76.7708 49.6285L74.8578 38.4438C74.6774 37.3893 73.6732 36.6788 72.6191 36.8591L70.1116 37.288L69.5729 34.1384C69.3926 33.0844 68.3888 32.3733 67.3343 32.5537L62.3201 33.4113C61.2661 33.5915 60.5551 34.5959 60.7354 35.6499C60.8228 36.1606 61.308 36.5041 61.8187 36.4168C62.3298 36.3293 62.6729 35.8441 62.5855 35.3335C62.5798 35.2998 62.6029 35.2671 62.6366 35.2614L67.6507 34.4038C67.6849 34.3979 67.7171 34.4211 67.7228 34.4548L68.2615 37.6044L59.0804 39.1747L58.5417 36.0251C58.3614 34.9711 57.3571 34.2601 56.303 34.4404L51.2889 35.298C50.2349 35.4783 49.5239 36.4827 49.7042 37.5367L50.2429 40.6863L47.7695 41.1093C46.7155 41.2896 46.0045 42.2934 46.1848 43.348L48.0978 54.5327C48.2781 55.5867 49.2825 56.2977 50.3365 56.1174ZM51.5543 37.2202C51.5485 37.1866 51.5717 37.1539 51.6054 37.1481L56.6195 36.2905C56.6536 36.2847 56.6858 36.3079 56.6916 36.3416L57.2303 39.4911L52.093 40.3698L51.5543 37.2202ZM48.0349 43.0315C48.0291 42.9974 48.0522 42.9647 48.0859 42.9589L72.9355 38.7087C72.9697 38.7028 73.0019 38.7261 73.0077 38.7602L74.9207 49.945C74.9265 49.9787 74.9038 50.0113 74.8697 50.0171L50.0201 54.2673C49.9864 54.2731 49.9537 54.25 49.9479 54.2163L48.0349 43.0315Z" fill="black"/>
<path d="M49.0516 61.1192C46.6148 61.536 44.9719 63.8574 45.3886 66.2937C45.8054 68.7305 48.1264 70.374 50.5632 69.9572C52.9995 69.5405 54.6424 67.2191 54.2256 64.7823C53.8089 62.346 51.4879 60.7025 49.0516 61.1192ZM50.2467 68.1071C48.8303 68.3494 47.4805 67.3938 47.2382 65.9774C46.996 64.5614 47.9515 63.2116 49.368 62.9693C50.784 62.7271 52.1338 63.6827 52.376 65.0986C52.6182 66.5151 51.6627 67.8649 50.2467 68.1071Z" fill="black"/>
<path d="M50.8172 71.4395C48.3804 71.8563 46.7375 74.1778 47.1542 76.6141C47.571 79.0508 49.8919 80.6938 52.3287 80.277C54.765 79.8603 56.408 77.5394 55.9912 75.1026C55.5745 72.6663 53.2535 71.0228 50.8172 71.4395ZM52.0123 78.4269C50.5958 78.6692 49.2461 77.7141 49.0038 76.2977C48.7615 74.8813 49.7172 73.5319 51.1336 73.2896C52.5496 73.0474 53.8993 74.0025 54.1416 75.4189C54.3839 76.8354 53.4283 78.1848 52.0123 78.4269Z" fill="black"/>
<path d="M60.0663 59.2332C58.6744 59.4712 57.501 60.3263 56.8468 61.579C56.6069 62.0387 56.7847 62.6057 57.2443 62.8456C57.7033 63.0851 58.2704 62.9079 58.5104 62.4482C58.891 61.7193 59.5732 61.2217 60.3822 61.0833C61.7987 60.8411 63.1485 61.7966 63.3907 63.2126C63.6331 64.6295 62.6774 65.9789 61.261 66.2211C60.4539 66.3592 59.6458 66.1179 59.0449 65.5589C58.6654 65.2057 58.0717 65.2275 57.7185 65.6069C57.3658 65.9863 57.3871 66.58 57.7666 66.9332C58.7998 67.8939 60.1888 68.3082 61.5773 68.0707C64.0141 67.654 65.6576 65.3329 65.2408 62.8961C64.8241 60.4598 62.5026 58.8165 60.0663 59.2332Z" fill="black"/>
<path d="M61.825 69.5567C59.3882 69.9735 57.7453 72.2949 58.162 74.7312C58.5788 77.168 60.8998 78.811 63.3365 78.3942C65.7728 77.9775 67.4163 75.6565 66.9995 73.2197C66.5828 70.7834 64.2613 69.14 61.825 69.5567ZM63.0201 76.5441C61.6037 76.7864 60.2539 75.8313 60.0116 74.4149C59.7694 72.9984 60.725 71.6491 62.1414 71.4068C63.5579 71.1646 64.9072 72.1197 65.1494 73.5361C65.3917 74.9526 64.4365 76.3019 63.0201 76.5441Z" fill="black"/>
<path d="M72.6257 66.1799C75.062 65.7632 76.7054 63.4416 76.2886 61.0049C75.8719 58.5686 73.5504 56.9252 71.1141 57.3419C68.6773 57.7587 67.0344 60.0801 67.4511 62.5164C67.8679 64.9532 70.1889 66.5966 72.6257 66.1799ZM71.4305 59.192C72.8469 58.9497 74.1963 59.9053 74.4385 61.3213C74.6808 62.7382 73.7257 64.0875 72.3092 64.3298C70.8928 64.572 69.543 63.6165 69.3007 62.2C69.0585 60.7841 70.014 59.4342 71.4305 59.192Z" fill="black"/>
<path d="M83.6335 64.3009C86.0698 63.8842 87.7132 61.5627 87.2964 59.126C86.8797 56.6896 84.5582 55.0463 82.1219 55.463C79.6851 55.8798 78.0422 58.2012 78.4589 60.6375C78.8757 63.0743 81.1967 64.7177 83.6335 64.3009ZM82.4383 57.3131C83.8543 57.0709 85.2041 58.0264 85.4463 59.4424C85.6886 60.8593 84.733 62.2087 83.3171 62.4509C81.9006 62.6931 80.5512 61.7375 80.309 60.3211C80.0668 58.9051 81.0219 57.5553 82.4383 57.3131Z" fill="black"/>
<path d="M83.0984 71.5255C80.6621 71.9422 79.0187 74.2632 79.4355 76.7C79.8522 79.1363 82.1737 80.7797 84.61 80.363C87.0468 79.9462 88.6896 77.6248 88.2729 75.1884C87.8562 72.7517 85.5352 71.1087 83.0984 71.5255ZM84.2935 78.5129C82.8771 78.7551 81.5277 77.7995 81.2855 76.3836C81.0433 74.9671 81.9989 73.6177 83.4149 73.3756C84.8313 73.1333 86.1806 74.0884 86.4229 75.5049C86.665 76.9208 85.71 78.2706 84.2935 78.5129Z" fill="black"/>
<path d="M84.8719 81.8536C82.4356 82.2703 80.7922 84.5918 81.2089 87.0281C81.6257 89.4649 83.9471 91.1078 86.3834 90.6911C88.8202 90.2743 90.4632 87.9534 90.0464 85.5166C89.6297 83.0803 87.3087 81.4368 84.8719 81.8536ZM86.067 88.841C84.6505 89.0833 83.3012 88.1281 83.059 86.7117C82.8167 85.2952 83.7723 83.9459 85.1883 83.7037C86.6047 83.4614 87.954 84.4166 88.1963 85.833C88.4386 87.2495 87.4834 88.5987 86.067 88.841Z" fill="black"/>
<path d="M90.4511 74.8211C90.8678 77.2574 93.1893 78.9008 95.6256 78.4841C98.0624 78.0673 99.7058 75.7458 99.2891 73.3095C98.8723 70.8727 96.5508 69.2298 94.1141 69.6466C91.6778 70.0633 90.0343 72.3843 90.4511 74.8211ZM94.4305 71.4967C95.8469 71.2544 97.1967 72.2095 97.439 73.6259C97.6812 75.0423 96.7256 76.3917 95.3092 76.634C93.8927 76.8762 92.5434 75.9206 92.3012 74.5047C92.0589 73.0882 93.014 71.7389 94.4305 71.4967Z" fill="black"/>
<path d="M95.8797 79.9669C93.4434 80.3836 91.8 82.7051 92.2167 85.1414C92.6335 87.5782 94.9549 89.2211 97.3912 88.8044C99.828 88.3876 101.471 86.0666 101.055 83.6298C100.638 81.1935 98.3165 79.5501 95.8797 79.9669ZM97.0748 86.9543C95.6583 87.1965 94.3091 86.2414 94.0668 84.825C93.8245 83.4085 94.7802 82.0592 96.1961 81.817C97.6126 81.5747 98.9623 82.5298 99.2046 83.9462C99.4469 85.3627 98.4912 86.712 97.0748 86.9543Z" fill="black"/>
<path d="M21.9755 0L27.1007 13.8504L40.9511 18.9755L27.1007 24.1007L21.9755 37.9511L16.8504 24.1007L3 18.9755L16.8504 13.8504L21.9755 0Z" fill="#FFB531"/>
</svg>
