<svg width="45" height="45" viewBox="0 0 45 45" fill="none" xmlns="http://www.w3.org/2000/svg">
<path d="M22.0333 40.6183C32.2991 40.6183 40.6212 32.2962 40.6212 22.0303C40.6212 11.7645 32.2991 3.44238 22.0333 3.44238C11.7674 3.44238 3.44531 11.7645 3.44531 22.0303C3.44531 32.2962 11.7674 40.6183 22.0333 40.6183Z" fill="#ABE9FE"/>
<path d="M40.6156 22.0287C40.617 25.9132 39.4008 29.7006 37.1382 32.8582C34.8756 36.0158 31.6803 38.3849 28.0014 39.6325C24.3226 40.88 20.3454 40.9432 16.6287 39.8133C12.9121 38.6833 9.64311 36.417 7.28125 33.3329C10.0328 35.4451 13.3207 36.7448 16.7728 37.0849C20.2249 37.4251 23.7032 36.792 26.8141 35.2573C29.9249 33.7227 32.544 31.3478 34.3748 28.4015C36.2056 25.4552 37.1751 22.0552 37.1734 18.5864C37.1828 14.4965 35.8314 10.5196 33.3319 7.28223C35.5991 9.01378 37.4359 11.2454 38.6993 13.8032C39.9627 16.3609 40.6185 19.1759 40.6156 22.0287Z" fill="#80DFFF"/>
<path d="M28.2279 15.1458V27.5377L28.1729 27.6686H15.8911L15.836 27.5377V15.1458C15.8325 14.4197 16.0252 13.7061 16.3936 13.0805C16.755 12.4524 17.2756 11.9308 17.9029 11.5682C18.5302 11.2056 19.2421 11.0148 19.9666 11.0151H24.0973C24.8219 11.0148 25.5337 11.2056 26.161 11.5682C26.7883 11.9308 27.3089 12.4524 27.6703 13.0805C28.0388 13.7061 28.2314 14.4197 28.2279 15.1458Z" fill="#57565C"/>
<path d="M28.2272 15.1458V27.5377L28.1721 27.6686H26.1068L26.1619 27.5377V15.1458C26.1654 14.4197 25.9727 13.7061 25.6043 13.0805C25.2429 12.4524 24.7223 11.9308 24.095 11.5682C23.4677 11.2056 22.7558 11.0148 22.0312 11.0151H24.0966C24.8211 11.0148 25.533 11.2056 26.1603 11.5682C26.7876 11.9308 27.3082 12.4524 27.6696 13.0805C28.038 13.7061 28.2307 14.4197 28.2272 15.1458Z" fill="#3E3D42"/>
<path d="M30.9815 28.9149V33.0456H13.082V28.9149L19.278 26.1611H24.7855L30.9815 28.9149Z" fill="#FF7956"/>
<path d="M30.9803 28.9149V33.0456H28.2265V28.9149L23.9375 27.0079L24.7843 26.1611L30.9803 28.9149Z" fill="#FF5023"/>
<path d="M26.1637 15.8342V19.9648C26.1637 21.0603 25.7285 22.111 24.9538 22.8856C24.1792 23.6603 23.1285 24.0955 22.033 24.0955C20.9375 24.0955 19.8868 23.6603 19.1122 22.8856C18.3375 22.111 17.9023 21.0603 17.9023 19.9648V15.8342L24.0983 14.4573L26.1637 15.8342Z" fill="#FFDAAA"/>
<path d="M26.1633 15.8339V19.9646C26.1639 20.5072 26.0574 21.0445 25.85 21.5459C25.6426 22.0473 25.3384 22.5029 24.9547 22.8866C24.571 23.2703 24.1154 23.5745 23.614 23.7819C23.1126 23.9893 22.5753 24.0958 22.0327 24.0952C21.6839 24.0953 21.3366 24.049 21 23.9575C21.1787 23.9171 21.3537 23.8618 21.5232 23.7923C22.284 23.4821 22.9351 22.9524 23.3937 22.2707C23.8522 21.589 24.0974 20.7861 24.098 19.9646V15.8339L22.549 14.8013L24.098 14.457L26.1633 15.8339Z" fill="#FFB655"/>
<path d="M23.59 23.7917L24.0994 26.8484L22.0341 28.9138L19.9688 26.8484L20.4782 23.7917C21.4761 24.1956 22.592 24.1956 23.59 23.7917Z" fill="#FFDAAA"/>
<path d="M24.0994 23.5388V24.9157C23.4724 25.2809 22.7597 25.4733 22.0341 25.4733C21.3084 25.4733 20.5958 25.2809 19.9688 24.9157V23.5388C20.5958 23.904 21.3084 24.0964 22.0341 24.0964C22.7597 24.0964 23.4724 23.904 24.0994 23.5388Z" fill="#FFB655"/>
<path d="M41.2879 21.3418C41.1293 16.7081 39.2975 12.2887 36.1315 8.90163L37.1228 7.91027L36.1521 6.93957L35.1608 7.93092C31.7736 4.76493 27.3543 2.93311 22.7206 2.77449V1.37695H21.3437V2.77449C16.7101 2.93311 12.2907 4.76493 8.90358 7.93092L7.91222 6.93957L6.94152 7.91027L7.93288 8.90163C4.76688 12.2887 2.93506 16.7081 2.77644 21.3418H1.37891V22.7187H2.77644C2.93506 27.3523 4.76688 31.7717 7.93288 35.1588L6.94152 36.1502L7.91222 37.1209L8.90358 36.1295C12.2907 39.2955 16.7101 41.1273 21.3437 41.2859V42.6835H22.7206V41.2859C27.3543 41.1273 31.7736 39.2955 35.1608 36.1295L36.1521 37.1209L37.1228 36.1502L36.1315 35.1588C39.2975 31.7717 41.1293 27.3523 41.2879 22.7187H42.6854V21.3418H41.2879ZM39.911 22.7187C39.7519 26.9852 38.0662 31.0528 35.1608 34.1812L34.2038 33.2243L33.2262 34.2019L34.1832 35.1588C31.0547 38.0642 26.9871 39.7499 22.7206 39.9091V38.5528H21.3437V39.9091C17.0772 39.7499 13.0096 38.0642 9.88117 35.1588L10.8381 34.2019L9.86051 33.2243L8.90358 34.1812C5.99815 31.0528 4.31249 26.9852 4.15333 22.7187H5.50956V21.3418H4.15333C4.31249 17.0752 5.99815 13.0077 8.90358 9.87922L9.86051 10.8361L10.8381 9.85856L9.88117 8.90163C13.0096 5.9962 17.0772 4.31053 21.3437 4.15138V5.50761H22.7206V4.15138C26.9871 4.31053 31.0547 5.9962 34.1832 8.90163L33.2262 9.85856L34.2038 10.8361L35.1608 9.87922C38.0662 13.0077 39.7519 17.0752 39.911 21.3418H38.5548V22.7187H39.911Z" fill="black"/>
<path d="M2.75579 2.75384H7.57489V1.37695H2.06735C1.88476 1.37695 1.70965 1.44949 1.58055 1.57859C1.45144 1.7077 1.37891 1.88281 1.37891 2.0654V7.57293H2.75579V2.75384Z" fill="black"/>
<path d="M41.9997 1.37695H36.4922V2.75384H41.3113V7.57293H42.6882V2.0654C42.6882 1.88281 42.6156 1.7077 42.4865 1.57859C42.3574 1.44949 42.1823 1.37695 41.9997 1.37695Z" fill="black"/>
<path d="M2.75579 36.4875H1.37891V41.9951C1.37891 42.1777 1.45144 42.3528 1.58055 42.4819C1.70965 42.611 1.88476 42.6835 2.06735 42.6835H7.57489V41.3066H2.75579V36.4875Z" fill="black"/>
<path d="M41.3113 41.3064H36.4922V42.6833H41.9997C42.1823 42.6833 42.3574 42.6108 42.4865 42.4816C42.6156 42.3525 42.6882 42.1774 42.6882 41.9948V36.4873H41.3113V41.3064Z" fill="black"/>
<path d="M31.2648 28.2881L28.9172 27.2417V15.1458C28.9157 13.8681 28.4075 12.6432 27.5041 11.7398C26.6006 10.8363 25.3757 10.3281 24.0981 10.3267H19.9674C18.6898 10.3281 17.4648 10.8363 16.5614 11.7398C15.658 12.6432 15.1498 13.8681 15.1483 15.1458V27.2417L12.8007 28.2881C12.6793 28.3415 12.5761 28.4292 12.5039 28.5406C12.4317 28.6519 12.3937 28.7819 12.3945 28.9146V33.0453C12.3945 33.2278 12.4671 33.4029 12.5962 33.5321C12.7253 33.6612 12.9004 33.7337 13.083 33.7337H30.9825C31.1651 33.7337 31.3402 33.6612 31.4693 33.5321C31.5984 33.4029 31.6709 33.2278 31.6709 33.0453V28.9146C31.6718 28.7819 31.6338 28.6519 31.5616 28.5406C31.4894 28.4292 31.3862 28.3415 31.2648 28.2881ZM16.5252 15.1458C16.5252 14.2328 16.8879 13.3573 17.5334 12.7117C18.1789 12.0662 19.0545 11.7035 19.9674 11.7035H24.0981C25.011 11.7035 25.8865 12.0662 26.5321 12.7117C27.1776 13.3573 27.5403 14.2328 27.5403 15.1458V26.629L25.0688 25.5343C24.9127 25.4626 24.7346 25.4551 24.5731 25.5137L24.3528 24.185C25.109 23.7697 25.7398 23.159 26.1793 22.4166C26.6189 21.6743 26.8512 20.8276 26.8518 19.9649V15.8342C26.8513 15.7208 26.8227 15.6093 26.7686 15.5096C26.7146 15.4099 26.6367 15.3252 26.542 15.2628L24.4767 13.8859C24.3204 13.7833 24.13 13.7462 23.9466 13.7826L17.7506 15.1595C17.5986 15.1957 17.463 15.2818 17.3657 15.4042C17.2683 15.5265 17.2148 15.6779 17.2136 15.8342V19.9649C17.2143 20.8276 17.4466 21.6743 17.8861 22.4166C18.3257 23.159 18.9565 23.7697 19.7127 24.185L19.4924 25.5137C19.3309 25.4551 19.1528 25.4626 18.9967 25.5343L16.5252 26.629V15.1458ZM22.0327 23.4071C21.1198 23.4071 20.2443 23.0444 19.5987 22.3989C18.9532 21.7533 18.5905 20.8778 18.5905 19.9649V16.385L23.9604 15.1939L25.475 16.206V19.9649C25.475 20.8778 25.1123 21.7533 24.4668 22.3989C23.8212 23.0444 22.9457 23.4071 22.0327 23.4071ZM23.3614 26.6152L22.0327 27.9439L20.704 26.6152L21.0276 24.6738C21.6897 24.8207 22.3758 24.8207 23.0379 24.6738L23.3614 26.6152ZM30.2941 32.3568H13.7714V29.3621L19.1275 26.9801L21.5439 29.4034C21.6739 29.5324 21.8496 29.6048 22.0327 29.6048C22.2159 29.6048 22.3916 29.5324 22.5215 29.4034L24.938 26.9801L30.2941 29.3621V32.3568Z" fill="black"/>
<path d="M22.7188 17.8997H24.0956V19.2765H22.7188V17.8997Z" fill="black"/>
<path d="M19.9688 17.8997H21.3456V19.2765H19.9688V17.8997Z" fill="black"/>
</svg>
