<svg width="152" height="64" viewBox="0 0 152 64" fill="none" xmlns="http://www.w3.org/2000/svg">
<path d="M89.3824 21.6176H53.7042C51.2917 21.6176 49.3359 19.6619 49.3359 17.2494V17.2432C49.3359 14.8308 51.2917 12.875 53.7042 12.875H89.3824V21.6176Z" fill="#FFE20D"/>
<path d="M76.8792 40.3762L50.4708 22.083C47.7943 20.229 47.1253 16.5552 48.9763 13.8755L48.9772 13.8742C50.8298 11.1921 54.5049 10.522 57.1839 12.3777L83.5924 30.671C86.2689 32.525 86.9379 36.1987 85.0869 38.8785L85.0861 38.8796C83.2333 41.5617 79.5582 42.232 76.8792 40.3762Z" fill="#FFBE00"/>
<path d="M80.2896 63.0625H55.8672L58.0977 54.9102H78.0591L80.2896 63.0625Z" fill="#8CAABD"/>
<path d="M78.0586 54.9102H73.0586L75.2891 63.0625H80.2891L78.0586 54.9102Z" fill="#809CAD"/>
<path d="M60.8281 43.3887H75.3324V54.9095H60.8281V43.3887Z" fill="#FFBE00"/>
<path d="M82.8293 41.8947L64.913 48.744C61.429 50.0758 57.5258 48.3285 56.1966 44.842L56.195 44.8377C54.867 41.3541 56.6116 37.4528 60.0928 36.1221L78.009 29.2728C81.493 27.941 85.3963 29.6883 86.7254 33.1748L86.727 33.1791C88.055 36.6627 86.3104 40.564 82.8293 41.8947Z" fill="#FFE20D"/>
<path d="M86.7291 33.1791L86.7274 33.1748C85.3983 29.6883 81.4951 27.941 78.0111 29.2728L77.9183 29.3083C79.6108 29.9835 81.0269 31.3371 81.7274 33.1748L81.7291 33.1791C83.0571 36.6627 81.3124 40.564 77.8313 41.8947L60.0078 48.7085C61.5263 49.3142 63.2674 49.3738 64.9151 48.744L82.8313 41.8947C86.3124 40.5638 88.0571 36.6626 86.7291 33.1791Z" fill="#F7D900"/>
<path d="M80.1068 39.12C82.0469 39.12 83.6198 37.5449 83.6198 35.602C83.6198 33.659 82.0469 32.084 80.1068 32.084C78.1666 32.084 76.5938 33.659 76.5938 35.602C76.5938 37.5449 78.1666 39.12 80.1068 39.12Z" fill="#8CAABD"/>
<path d="M53.9069 20.0929C55.3873 20.0929 56.5873 18.8911 56.5873 17.4087C56.5873 15.9263 55.3873 14.7246 53.9069 14.7246C52.4266 14.7246 51.2266 15.9263 51.2266 17.4087C51.2266 18.8911 52.4266 20.0929 53.9069 20.0929Z" fill="#8CAABD"/>
<path d="M85.6398 19.5256C86.896 21.5874 89.5835 22.242 91.6424 20.9876L93.878 19.6256L94.6465 19.1574L102.677 21.9433C103.471 22.2195 104.316 22.108 104.992 21.6964C105.408 21.4428 105.76 21.0751 105.996 20.6144L109.754 13.2899C110.442 11.9496 109.913 10.304 108.572 9.61426C107.232 8.92451 105.588 9.45188 104.9 10.792L102.224 16.0091L95.3413 13.6153L96.3697 6.40163L102.161 6.41538C103.643 6.41888 104.911 5.26788 104.962 3.78613C105.016 2.23638 103.777 0.960757 102.239 0.957132L94.007 0.937507C92.6483 0.934382 91.4957 1.93213 91.3039 3.27788L90.1052 11.6861L87.093 13.5213C85.0342 14.7756 84.3835 17.4639 85.6398 19.5256Z" fill="#8CAABD"/>
<path d="M98.4882 0.957003C100.026 0.960628 101.265 2.23625 101.211 3.786C101.163 5.196 100.012 6.3055 98.6235 6.40688L102.159 6.41525C103.642 6.41875 104.91 5.26788 104.961 3.786C105.014 2.23625 103.776 0.960628 102.238 0.957003L94.0057 0.937503C93.9406 0.937378 93.8766 0.941503 93.8125 0.945878L98.4882 0.957003Z" fill="#809CAD"/>
<path d="M92.2583 18.3281L90.1292 19.6252L87.8936 20.9872C87.7647 21.0657 87.6334 21.1369 87.5 21.2005C88.7847 21.8095 90.34 21.7814 91.6436 20.9872L94.6478 19.157L92.2583 18.3281Z" fill="#809CAD"/>
<path d="M108.574 9.61543C107.515 9.07068 106.268 9.28556 105.451 10.0601C106.311 10.8733 106.573 12.1858 106.006 13.2911L102.248 20.6156C102.059 20.9841 101.795 21.2916 101.484 21.5302L102.678 21.9444C103.473 22.2207 104.317 22.1092 104.993 21.6976C105.409 21.4439 105.761 21.0763 105.998 20.6156L109.756 13.2911C110.443 11.9508 109.914 10.3052 108.574 9.61543Z" fill="#809CAD"/>
<path d="M84.5651 35.6039C84.5651 33.1472 82.5686 31.1484 80.1146 31.1484C77.6606 31.1484 75.6641 33.1471 75.6641 35.6039C75.6641 38.0608 77.6606 40.0594 80.1146 40.0594C82.5687 40.0594 84.5651 38.0607 84.5651 35.6039ZM77.5392 35.6039C77.5392 34.1811 78.6946 33.0234 80.1147 33.0234C81.5348 33.0234 82.6902 34.1811 82.6902 35.6039C82.6902 37.0268 81.5348 38.1844 80.1147 38.1844C78.6946 38.1844 77.5392 37.0268 77.5392 35.6039Z" fill="#060606"/>
<path d="M53.9185 13.7891C51.9237 13.7891 50.3008 15.4137 50.3008 17.4107C50.3008 19.4078 51.9237 21.0324 53.9185 21.0324C55.9134 21.0324 57.5364 19.4078 57.5364 17.4107C57.5364 15.4137 55.9134 13.7891 53.9185 13.7891ZM53.9185 19.1573C52.9575 19.1573 52.1758 18.3737 52.1758 17.4106C52.1758 16.4476 52.9575 15.6639 53.9185 15.6639C54.8795 15.6639 55.6614 16.4476 55.6614 17.4106C55.6614 18.3737 54.8795 19.1573 53.9185 19.1573Z" fill="#060606"/>
<path d="M109.013 8.78063C107.23 7.86313 104.987 8.59313 104.078 10.364L101.773 14.8559L96.3901 12.9835L97.1945 7.34113L102.17 7.35288C106.892 7.35288 107.031 0.03125 102.253 0.019625L94.0208 0C94.018 0 94.0152 0 94.0123 0C92.2007 0 90.6431 1.351 90.3868 3.14963L90.2392 4.21912C90.0735 5.41987 91.9308 5.67625 92.0966 4.4755L92.2436 3.41013C92.3685 2.53425 93.1283 1.87513 94.0122 1.87513H94.0163L102.249 1.89462C104.571 1.90037 104.493 5.47788 102.175 5.47788L96.3836 5.46425C96.3828 5.46425 96.3821 5.46425 96.3813 5.46425C95.915 5.46425 95.5192 5.80737 95.4533 6.26937L94.425 13.483C94.3617 13.927 94.6216 14.3535 95.0451 14.5009L101.927 16.8948C102.369 17.0481 102.856 16.8533 103.07 16.4373L105.746 11.2201C106.802 9.16263 109.985 10.8099 108.932 12.862L105.174 20.1866C104.775 20.9642 103.834 21.3494 102.996 21.0579L94.9655 18.272C94.701 18.1804 94.4093 18.2115 94.1705 18.3571L91.1663 20.1874C87.5031 22.4187 83.7158 16.6838 87.5925 14.3223L90.6046 12.487C90.8433 12.3415 91.0047 12.0971 91.0447 11.8205L91.391 9.42612C91.5645 8.2265 89.7087 7.95788 89.5352 9.15788L89.2522 11.1155L87.9022 11.938H58.2056C55.0977 9.689 50.4208 9.91588 48.2132 13.35C46.0775 16.449 46.8552 20.7116 49.9495 22.8547L64.9705 33.2599C62.9358 34.0378 60.7 34.6483 58.7881 35.7059C57.7275 36.2926 58.6352 37.934 59.6957 37.3465C59.9397 37.2116 60.1901 37.0946 60.4401 36.9992L78.3563 30.1499C79.8071 29.5951 81.387 29.6391 82.8047 30.274C84.2226 30.9086 85.3083 32.058 85.8635 33.5144C87.0052 36.5092 85.4995 39.8764 82.5071 41.0202L64.5907 47.8696C61.6268 49.0025 58.2091 47.4596 57.0835 44.5051C56.6076 43.257 56.5767 41.872 56.9966 40.6053C57.378 39.4546 55.5981 38.8647 55.2168 40.0154C54.6616 41.6908 54.7023 43.5225 55.3287 45.1655C56.0716 47.2455 57.8407 48.9165 59.8991 49.6661V53.9726H58.1082C57.6857 53.9726 57.3155 54.2552 57.204 54.6628L55.1622 62.125H52.2526C51.7348 62.125 51.3151 62.5446 51.3151 63.0625C51.3151 63.5804 51.7348 64 52.2526 64H83.9252C84.443 64 84.8627 63.5804 84.8627 63.0625C84.8627 62.5446 84.443 62.125 83.9252 62.125H81.0156L78.974 54.6628C78.8625 54.2552 78.4922 53.9726 78.0697 53.9726H76.2786V45.4089L83.1768 42.7718C87.1341 41.2589 89.1253 36.8065 87.6142 32.8423C86.6028 30.1894 84.1271 28.2663 81.3066 27.9396L73.5336 22.5553H89.1756C91.2852 22.642 93.0551 21.232 94.7687 20.188L102.381 22.8289C104.074 23.4174 106.025 22.635 106.842 21.0424L110.6 13.7177C111.522 11.9202 110.81 9.7055 109.013 8.78063ZM79.0716 62.125H57.1061L58.8236 55.8476H77.3541L79.0716 62.125ZM74.4035 53.9726H61.7742V50.0944C62.9547 50.21 64.1523 50.0446 65.2603 49.6211L74.4035 46.1258V53.9726ZM77.6868 28.3985L67.0922 32.4489L51.0171 21.3135C48.7697 19.7568 48.2058 16.6596 49.7601 14.4096C51.3101 12.2139 54.4235 11.5984 56.6625 13.1496L78.3571 28.1775C78.1318 28.241 77.9081 28.3139 77.6868 28.3985ZM60.9123 13.8126H85.3362C83.679 15.7581 83.6857 18.7324 85.3313 20.6803H70.8267L60.9123 13.8126Z" fill="#060606"/>
<path d="M89.2728 18.2422C90.4793 18.2422 90.4813 16.3672 89.2728 16.3672C88.0663 16.3672 88.0643 18.2422 89.2728 18.2422Z" fill="#060606"/>
</svg>
