<svg width="176" height="176" viewBox="0 0 176 176" fill="none" xmlns="http://www.w3.org/2000/svg">
<mask id="mask0_1885_12256" style="mask-type:alpha" maskUnits="userSpaceOnUse" x="0" y="48" width="128" height="128">
<circle cx="64" cy="112" r="64" fill="#FEF284"/>
</mask>
<g mask="url(#mask0_1885_12256)">
<circle cx="64" cy="112" r="64" fill="#FEF284"/>
<path d="M83.2378 86.2057H-9.60156V76.903C-9.60156 74.9269 -7.91196 73.3251 -5.82765 73.3251H79.4639C81.5482 73.3251 83.2378 74.9269 83.2378 76.903V86.2057Z" fill="#9DC6FB"/>
<path d="M79.4656 73.325H73.8047C75.889 73.325 77.5786 74.9268 77.5786 76.9028V86.2054H83.2395V76.9028C83.2395 74.9268 81.5499 73.325 79.4656 73.325Z" fill="#80B4FB"/>
<path d="M79.4639 149.971H-5.82765C-7.91196 149.971 -9.60156 148.37 -9.60156 146.394V86.1691H83.2378V146.394C83.2378 148.37 81.5482 149.971 79.4639 149.971Z" fill="#F4FBFF"/>
<path d="M77.5786 86.2092V146.434C77.5786 148.41 75.889 150.012 73.8047 150.012H79.4656C81.5499 150.012 83.2395 148.41 83.2395 146.434V86.2092H77.5786Z" fill="#E4F6FF"/>
<path d="M71.5339 77.6196C70.2833 77.6196 69.2695 78.5807 69.2695 79.7664C69.2695 80.9521 70.2833 81.9132 71.5339 81.9132C72.7845 81.9132 73.7983 80.9521 73.7983 79.7664C73.7983 78.5807 72.7845 77.6196 71.5339 77.6196Z" fill="black"/>
<path d="M64.0027 77.6198C62.752 77.6198 61.7383 78.5809 61.7383 79.7665C61.7383 80.9522 62.752 81.9133 64.0027 81.9133C65.2533 81.9133 66.267 80.9522 66.267 79.7665C66.267 78.5809 65.2533 77.6198 64.0027 77.6198Z" fill="black"/>
<path d="M56.4441 81.9132C57.6947 81.9132 58.7085 80.952 58.7085 79.7664C58.7085 78.5808 57.6947 77.6196 56.4441 77.6196C55.1935 77.6196 54.1797 78.5808 54.1797 79.7664C54.1797 80.952 55.1935 81.9132 56.4441 81.9132Z" fill="black"/>
<path d="M79.4664 72H-5.82509C-8.67846 72 -11 74.201 -11 76.9061V125.99C-11 126.723 -10.3729 127.318 -9.599 127.318C-8.82509 127.318 -8.19801 126.723 -8.19801 125.99V87.5371H81.8393V98.7257C81.8393 99.4592 82.4664 100.054 83.2403 100.054C84.0143 100.054 84.6413 99.4592 84.6413 98.7257V76.9061C84.6413 74.201 82.3198 72 79.4664 72ZM-8.19801 76.9061C-8.19801 75.6657 -7.13362 74.6565 -5.82509 74.6565H79.4664C80.775 74.6565 81.8393 75.6657 81.8393 76.9061V84.8806H-8.19801V76.9061Z" fill="black"/>
<path d="M83.2403 103.594C82.4664 103.594 81.8393 104.189 81.8393 104.922V146.432C81.8393 147.672 80.7751 148.681 79.467 148.681H-5.82565C-7.13381 148.681 -8.19801 147.672 -8.19801 146.432V132.009C-8.19801 131.276 -8.82509 130.681 -9.599 130.681C-10.3729 130.681 -11 131.276 -11 132.009V146.432C-11 149.137 -8.67883 151.338 -5.82565 151.338H79.467C82.3202 151.338 84.6413 149.137 84.6413 146.432V104.922C84.6413 104.189 84.0143 103.594 83.2403 103.594Z" fill="black"/>
<path d="M38.0639 100.865H31.4673C29.1334 100.865 27.2412 102.658 27.2412 104.871V111.002H22.359C20.0251 111.002 18.1328 112.796 18.1328 115.009V121.638C18.1328 123.851 20.0251 125.645 22.359 125.645H26.9143C27.5322 125.645 28.0332 125.17 28.0332 124.584V121.235C28.0332 118.694 30.2057 116.634 32.8859 116.634H40.5084C41.4925 116.634 42.2901 115.878 42.2901 114.945V104.872C42.2901 102.658 40.3982 100.865 38.0639 100.865Z" fill="#5290DB"/>
<path d="M51.1421 110.626H46.5868C45.9689 110.626 45.4679 111.101 45.4679 111.687V115.036C45.4679 117.577 43.2954 119.636 40.6152 119.636H32.9926C32.0086 119.636 31.2109 120.393 31.2109 121.326V131.399C31.2109 133.611 33.1032 135.405 35.4371 135.405H42.0337C44.3676 135.405 46.2599 133.612 46.2599 131.399V125.268H51.1421C53.476 125.268 55.3682 123.474 55.3682 121.261V114.632C55.3682 112.42 53.476 110.626 51.1421 110.626Z" fill="#FC8C48"/>
<path d="M32.7821 107.619C33.7663 107.619 34.5641 106.863 34.5641 105.929C34.5641 104.996 33.7663 104.24 32.7821 104.24C31.7979 104.24 31 104.996 31 105.929C31 106.863 31.7979 107.619 32.7821 107.619Z" fill="#EDF4FC"/>
<path d="M40.7196 132.022C41.7038 132.022 42.5016 131.266 42.5016 130.333C42.5016 129.4 41.7038 128.643 40.7196 128.643C39.7354 128.643 38.9375 129.4 38.9375 130.333C38.9375 131.266 39.7354 132.022 40.7196 132.022Z" fill="#EDF4FC"/>
<path d="M26.9189 126.53H22.3633C19.5179 126.53 17.2031 124.335 17.2031 121.638V115.008C17.2031 112.311 19.5179 110.116 22.3633 110.116H26.3118V104.871C26.3118 102.174 28.6267 99.979 31.472 99.979H38.0686C40.914 99.979 43.2288 102.174 43.2288 104.871V114.944C43.2288 116.364 42.0105 117.519 40.5135 117.519H32.8909C30.73 117.519 28.9722 119.186 28.9722 121.234V124.583C28.9719 125.656 28.0506 126.53 26.9189 126.53ZM22.3633 111.887C20.548 111.887 19.0711 113.287 19.0711 115.008V121.638C19.0711 123.359 20.548 124.759 22.3633 124.759H26.9186C27.0206 124.759 27.1035 124.68 27.1035 124.583V121.234C27.1035 118.209 29.6993 115.748 32.8902 115.748H40.5127C40.9797 115.748 41.36 115.387 41.36 114.944V104.871C41.36 103.15 39.8832 101.75 38.0679 101.75H31.4712C29.6559 101.75 28.1791 103.15 28.1791 104.871V111.002C28.1791 111.491 27.761 111.887 27.2451 111.887H22.3633V111.887Z" fill="black"/>
<path d="M34.574 111.891H27.4457C26.9298 111.891 26.5117 111.494 26.5117 111.005C26.5117 110.516 26.9298 110.12 27.4457 110.12H34.574C35.0899 110.12 35.508 110.516 35.508 111.005C35.508 111.494 35.0899 111.891 34.574 111.891Z" fill="black"/>
<path d="M42.038 136.291H35.4414C32.5961 136.291 30.2812 134.096 30.2812 131.399V121.325C30.2812 119.906 31.4996 118.751 32.9969 118.751H40.6191C42.78 118.751 44.5378 117.084 44.5378 115.036V111.686C44.5378 110.613 45.4587 109.74 46.5907 109.74H51.146C53.991 109.74 56.3062 111.935 56.3062 114.632V121.262C56.3062 123.959 53.9913 126.154 51.146 126.154H47.1978V131.399C47.1978 134.096 44.883 136.291 42.038 136.291ZM32.9969 120.522C32.5296 120.522 32.1492 120.883 32.1492 121.326V131.399C32.1492 133.12 33.6261 134.52 35.4414 134.52H42.038C43.853 134.52 45.3302 133.12 45.3302 131.399V125.268C45.3302 124.779 45.7482 124.383 46.2642 124.383H51.1464C52.9613 124.383 54.4385 122.983 54.4385 121.262V114.632C54.4385 112.911 52.9617 111.511 51.1464 111.511H46.5911C46.4891 111.511 46.4062 111.59 46.4062 111.686V115.036C46.4062 118.061 43.8104 120.522 40.6195 120.522H32.9969V120.522Z" fill="black"/>
<path d="M46.0545 126.153H38.9262C38.4102 126.153 37.9922 125.756 37.9922 125.267C37.9922 124.778 38.4102 124.382 38.9262 124.382H46.0545C46.5704 124.382 46.9885 124.778 46.9885 125.267C46.9885 125.756 46.5704 126.153 46.0545 126.153Z" fill="black"/>
<path d="M32.7864 108.505C31.2886 108.505 30.0703 107.35 30.0703 105.93C30.0703 104.51 31.2886 103.355 32.7864 103.355C34.2841 103.355 35.5024 104.51 35.5024 105.93C35.5024 107.35 34.2841 108.505 32.7864 108.505ZM32.7864 105.126C32.319 105.126 31.9383 105.487 31.9383 105.931C31.9383 106.374 32.319 106.735 32.7864 106.735C33.2538 106.735 33.6344 106.374 33.6344 105.931C33.6344 105.487 33.2538 105.126 32.7864 105.126Z" fill="black"/>
<path d="M40.7083 132.908C39.2105 132.908 37.9922 131.753 37.9922 130.333C37.9922 128.913 39.2105 127.758 40.7083 127.758C42.2056 127.758 43.4243 128.913 43.4243 130.333C43.4243 131.753 42.2056 132.908 40.7083 132.908ZM40.7083 129.529C40.2409 129.529 39.8602 129.889 39.8602 130.333C39.8602 130.776 40.2409 131.137 40.7083 131.137C41.1756 131.137 41.5563 130.776 41.5563 130.333C41.5563 129.889 41.176 129.529 40.7083 129.529Z" fill="black"/>
<path d="M103.238 106.206H10.3984V96.903C10.3984 94.9269 12.088 93.3251 14.1723 93.3251H99.4639C101.548 93.3251 103.238 94.9269 103.238 96.903V106.206Z" fill="#9DC6FB"/>
<path d="M99.4656 93.325H93.8047C95.889 93.325 97.5786 94.9268 97.5786 96.9028V106.205H103.24V96.9028C103.24 94.9268 101.55 93.325 99.4656 93.325Z" fill="#80B4FB"/>
<path d="M99.4639 169.971H14.1723C12.088 169.971 10.3984 168.37 10.3984 166.394V106.169H103.238V166.394C103.238 168.37 101.548 169.971 99.4639 169.971Z" fill="#F4FBFF"/>
<path d="M97.5786 106.209V166.434C97.5786 168.41 95.889 170.012 93.8047 170.012H99.4656C101.55 170.012 103.24 168.41 103.24 166.434V106.209H97.5786Z" fill="#E4F6FF"/>
<path d="M91.5339 97.6196C90.2833 97.6196 89.2695 98.5807 89.2695 99.7664C89.2695 100.952 90.2833 101.913 91.5339 101.913C92.7845 101.913 93.7983 100.952 93.7983 99.7664C93.7983 98.5807 92.7845 97.6196 91.5339 97.6196Z" fill="black"/>
<path d="M84.0027 97.6198C82.752 97.6198 81.7383 98.5809 81.7383 99.7665C81.7383 100.952 82.752 101.913 84.0027 101.913C85.2533 101.913 86.267 100.952 86.267 99.7665C86.267 98.5809 85.2533 97.6198 84.0027 97.6198Z" fill="black"/>
<path d="M76.4441 101.913C77.6947 101.913 78.7085 100.952 78.7085 99.7664C78.7085 98.5808 77.6947 97.6196 76.4441 97.6196C75.1935 97.6196 74.1797 98.5808 74.1797 99.7664C74.1797 100.952 75.1935 101.913 76.4441 101.913Z" fill="black"/>
<path d="M99.4664 92H14.1749C11.3215 92 9 94.201 9 96.9061V145.99C9 146.723 9.62709 147.318 10.401 147.318C11.1749 147.318 11.802 146.723 11.802 145.99V107.537H101.839V118.726C101.839 119.459 102.466 120.054 103.24 120.054C104.014 120.054 104.641 119.459 104.641 118.726V96.9061C104.641 94.201 102.32 92 99.4664 92ZM11.802 96.9061C11.802 95.6657 12.8664 94.6565 14.1749 94.6565H99.4664C100.775 94.6565 101.839 95.6657 101.839 96.9061V104.881H11.802V96.9061Z" fill="black"/>
<path d="M103.24 123.594C102.466 123.594 101.839 124.189 101.839 124.922V166.432C101.839 167.672 100.775 168.681 99.467 168.681H14.1743C12.8662 168.681 11.802 167.672 11.802 166.432V152.009C11.802 151.276 11.1749 150.681 10.401 150.681C9.62709 150.681 9 151.276 9 152.009V166.432C9 169.137 11.3212 171.338 14.1743 171.338H99.467C102.32 171.338 104.641 169.137 104.641 166.432V124.922C104.641 124.189 104.014 123.594 103.24 123.594Z" fill="black"/>
<path d="M58.0639 120.865H51.4673C49.1334 120.865 47.2412 122.658 47.2412 124.871V131.002H42.359C40.0251 131.002 38.1328 132.796 38.1328 135.009V141.638C38.1328 143.851 40.0251 145.645 42.359 145.645H46.9143C47.5322 145.645 48.0332 145.17 48.0332 144.584V141.235C48.0332 138.694 50.2057 136.634 52.8859 136.634H60.5084C61.4925 136.634 62.2901 135.878 62.2901 134.945V124.872C62.2901 122.658 60.3982 120.865 58.0639 120.865Z" fill="#5290DB"/>
<path d="M71.1421 130.626H66.5868C65.9689 130.626 65.4679 131.101 65.4679 131.687V135.036C65.4679 137.577 63.2954 139.636 60.6152 139.636H52.9926C52.0086 139.636 51.2109 140.393 51.2109 141.326V151.399C51.2109 153.611 53.1032 155.405 55.4371 155.405H62.0337C64.3676 155.405 66.2599 153.612 66.2599 151.399V145.268H71.1421C73.476 145.268 75.3682 143.474 75.3682 141.261V134.632C75.3682 132.42 73.476 130.626 71.1421 130.626Z" fill="#FC8C48"/>
<path d="M52.7821 127.619C53.7663 127.619 54.5641 126.863 54.5641 125.929C54.5641 124.996 53.7663 124.24 52.7821 124.24C51.7979 124.24 51 124.996 51 125.929C51 126.863 51.7979 127.619 52.7821 127.619Z" fill="#EDF4FC"/>
<path d="M60.7196 152.022C61.7038 152.022 62.5016 151.266 62.5016 150.333C62.5016 149.4 61.7038 148.643 60.7196 148.643C59.7354 148.643 58.9375 149.4 58.9375 150.333C58.9375 151.266 59.7354 152.022 60.7196 152.022Z" fill="#EDF4FC"/>
<path d="M46.9189 146.53H42.3633C39.5179 146.53 37.2031 144.335 37.2031 141.638V135.008C37.2031 132.311 39.5179 130.116 42.3633 130.116H46.3118V124.871C46.3118 122.174 48.6267 119.979 51.472 119.979H58.0686C60.914 119.979 63.2288 122.174 63.2288 124.871V134.944C63.2288 136.364 62.0105 137.519 60.5135 137.519H52.8909C50.73 137.519 48.9722 139.186 48.9722 141.234V144.583C48.9719 145.656 48.0506 146.53 46.9189 146.53ZM42.3633 131.887C40.548 131.887 39.0711 133.287 39.0711 135.008V141.638C39.0711 143.359 40.548 144.759 42.3633 144.759H46.9186C47.0206 144.759 47.1035 144.68 47.1035 144.583V141.234C47.1035 138.209 49.6993 135.748 52.8902 135.748H60.5127C60.9797 135.748 61.36 135.387 61.36 134.944V124.871C61.36 123.15 59.8832 121.75 58.0679 121.75H51.4712C49.6559 121.75 48.1791 123.15 48.1791 124.871V131.002C48.1791 131.491 47.761 131.887 47.2451 131.887H42.3633V131.887Z" fill="black"/>
<path d="M54.574 131.891H47.4457C46.9298 131.891 46.5117 131.494 46.5117 131.005C46.5117 130.516 46.9298 130.12 47.4457 130.12H54.574C55.0899 130.12 55.508 130.516 55.508 131.005C55.508 131.494 55.0899 131.891 54.574 131.891Z" fill="black"/>
<path d="M62.038 156.291H55.4414C52.5961 156.291 50.2812 154.096 50.2812 151.399V141.325C50.2812 139.906 51.4996 138.751 52.9969 138.751H60.6191C62.78 138.751 64.5378 137.084 64.5378 135.036V131.686C64.5378 130.613 65.4587 129.74 66.5907 129.74H71.146C73.991 129.74 76.3062 131.935 76.3062 134.632V141.262C76.3062 143.959 73.9913 146.154 71.146 146.154H67.1978V151.399C67.1978 154.096 64.883 156.291 62.038 156.291ZM52.9969 140.522C52.5296 140.522 52.1492 140.883 52.1492 141.326V151.399C52.1492 153.12 53.6261 154.52 55.4414 154.52H62.038C63.853 154.52 65.3302 153.12 65.3302 151.399V145.268C65.3302 144.779 65.7482 144.383 66.2642 144.383H71.1464C72.9613 144.383 74.4385 142.983 74.4385 141.262V134.632C74.4385 132.911 72.9617 131.511 71.1464 131.511H66.5911C66.4891 131.511 66.4062 131.59 66.4062 131.686V135.036C66.4062 138.061 63.8104 140.522 60.6195 140.522H52.9969V140.522Z" fill="black"/>
<path d="M66.0545 146.153H58.9262C58.4102 146.153 57.9922 145.756 57.9922 145.267C57.9922 144.778 58.4102 144.382 58.9262 144.382H66.0545C66.5704 144.382 66.9885 144.778 66.9885 145.267C66.9885 145.756 66.5704 146.153 66.0545 146.153Z" fill="black"/>
<path d="M52.7864 128.505C51.2886 128.505 50.0703 127.35 50.0703 125.93C50.0703 124.51 51.2886 123.355 52.7864 123.355C54.2841 123.355 55.5024 124.51 55.5024 125.93C55.5024 127.35 54.2841 128.505 52.7864 128.505ZM52.7864 125.126C52.319 125.126 51.9383 125.487 51.9383 125.931C51.9383 126.374 52.319 126.735 52.7864 126.735C53.2538 126.735 53.6344 126.374 53.6344 125.931C53.6344 125.487 53.2538 125.126 52.7864 125.126Z" fill="black"/>
<path d="M60.7083 152.908C59.2105 152.908 57.9922 151.753 57.9922 150.333C57.9922 148.913 59.2105 147.758 60.7083 147.758C62.2056 147.758 63.4243 148.913 63.4243 150.333C63.4243 151.753 62.2056 152.908 60.7083 152.908ZM60.7083 149.529C60.2409 149.529 59.8602 149.889 59.8602 150.333C59.8602 150.776 60.2409 151.137 60.7083 151.137C61.1756 151.137 61.5563 150.776 61.5563 150.333C61.5563 149.889 61.176 149.529 60.7083 149.529Z" fill="black"/>
<path d="M113.238 126.206H20.3984V116.903C20.3984 114.927 22.088 113.325 24.1723 113.325H109.464C111.548 113.325 113.238 114.927 113.238 116.903V126.206Z" fill="#9DC6FB"/>
<path d="M109.466 113.325H103.805C105.889 113.325 107.579 114.927 107.579 116.903V126.205H113.24V116.903C113.24 114.927 111.55 113.325 109.466 113.325Z" fill="#80B4FB"/>
<path d="M109.464 189.971H24.1723C22.088 189.971 20.3984 188.37 20.3984 186.394V126.169H113.238V186.394C113.238 188.37 111.548 189.971 109.464 189.971Z" fill="#F4FBFF"/>
<path d="M107.579 126.209V186.434C107.579 188.41 105.889 190.012 103.805 190.012H109.466C111.55 190.012 113.24 188.41 113.24 186.434V126.209H107.579Z" fill="#E4F6FF"/>
<path d="M101.534 117.62C100.283 117.62 99.2695 118.581 99.2695 119.766C99.2695 120.952 100.283 121.913 101.534 121.913C102.785 121.913 103.798 120.952 103.798 119.766C103.798 118.581 102.785 117.62 101.534 117.62Z" fill="black"/>
<path d="M94.0027 117.62C92.752 117.62 91.7383 118.581 91.7383 119.767C91.7383 120.952 92.752 121.913 94.0027 121.913C95.2533 121.913 96.267 120.952 96.267 119.767C96.267 118.581 95.2533 117.62 94.0027 117.62Z" fill="black"/>
<path d="M86.4441 121.913C87.6947 121.913 88.7085 120.952 88.7085 119.766C88.7085 118.581 87.6947 117.62 86.4441 117.62C85.1935 117.62 84.1797 118.581 84.1797 119.766C84.1797 120.952 85.1935 121.913 86.4441 121.913Z" fill="black"/>
<path d="M109.466 112H24.1749C21.3215 112 19 114.201 19 116.906V165.99C19 166.723 19.6271 167.318 20.401 167.318C21.1749 167.318 21.802 166.723 21.802 165.99V127.537H111.839V138.726C111.839 139.459 112.466 140.054 113.24 140.054C114.014 140.054 114.641 139.459 114.641 138.726V116.906C114.641 114.201 112.32 112 109.466 112ZM21.802 116.906C21.802 115.666 22.8664 114.656 24.1749 114.656H109.466C110.775 114.656 111.839 115.666 111.839 116.906V124.881H21.802V116.906Z" fill="black"/>
<path d="M113.24 143.594C112.466 143.594 111.839 144.189 111.839 144.922V186.432C111.839 187.672 110.775 188.681 109.467 188.681H24.1743C22.8662 188.681 21.802 187.672 21.802 186.432V172.009C21.802 171.276 21.1749 170.681 20.401 170.681C19.6271 170.681 19 171.276 19 172.009V186.432C19 189.137 21.3212 191.338 24.1743 191.338H109.467C112.32 191.338 114.641 189.137 114.641 186.432V144.922C114.641 144.189 114.014 143.594 113.24 143.594Z" fill="black"/>
<path d="M68.0639 140.865H61.4673C59.1334 140.865 57.2412 142.658 57.2412 144.871V151.002H52.359C50.0251 151.002 48.1328 152.796 48.1328 155.009V161.638C48.1328 163.851 50.0251 165.645 52.359 165.645H56.9143C57.5322 165.645 58.0332 165.17 58.0332 164.584V161.235C58.0332 158.694 60.2057 156.634 62.8859 156.634H70.5084C71.4925 156.634 72.2901 155.878 72.2901 154.945V144.872C72.2901 142.658 70.3982 140.865 68.0639 140.865Z" fill="#5290DB"/>
<path d="M81.1421 150.626H76.5868C75.9689 150.626 75.4679 151.101 75.4679 151.687V155.036C75.4679 157.577 73.2954 159.636 70.6152 159.636H62.9926C62.0086 159.636 61.2109 160.393 61.2109 161.326V171.399C61.2109 173.611 63.1032 175.405 65.4371 175.405H72.0337C74.3676 175.405 76.2599 173.612 76.2599 171.399V165.268H81.1421C83.476 165.268 85.3682 163.474 85.3682 161.261V154.632C85.3682 152.42 83.476 150.626 81.1421 150.626Z" fill="#FC8C48"/>
<path d="M62.7821 147.619C63.7663 147.619 64.5641 146.863 64.5641 145.929C64.5641 144.996 63.7663 144.24 62.7821 144.24C61.7979 144.24 61 144.996 61 145.929C61 146.863 61.7979 147.619 62.7821 147.619Z" fill="#EDF4FC"/>
<path d="M70.7196 172.022C71.7038 172.022 72.5016 171.266 72.5016 170.333C72.5016 169.4 71.7038 168.643 70.7196 168.643C69.7354 168.643 68.9375 169.4 68.9375 170.333C68.9375 171.266 69.7354 172.022 70.7196 172.022Z" fill="#EDF4FC"/>
<path d="M56.9189 166.53H52.3633C49.5179 166.53 47.2031 164.335 47.2031 161.638V155.008C47.2031 152.311 49.5179 150.116 52.3633 150.116H56.3118V144.871C56.3118 142.174 58.6267 139.979 61.472 139.979H68.0686C70.914 139.979 73.2288 142.174 73.2288 144.871V154.944C73.2288 156.364 72.0105 157.519 70.5135 157.519H62.8909C60.73 157.519 58.9722 159.186 58.9722 161.234V164.583C58.9719 165.656 58.0506 166.53 56.9189 166.53ZM52.3633 151.887C50.548 151.887 49.0711 153.287 49.0711 155.008V161.638C49.0711 163.359 50.548 164.759 52.3633 164.759H56.9186C57.0206 164.759 57.1035 164.68 57.1035 164.583V161.234C57.1035 158.209 59.6993 155.748 62.8902 155.748H70.5127C70.9797 155.748 71.36 155.387 71.36 154.944V144.871C71.36 143.15 69.8832 141.75 68.0679 141.75H61.4712C59.6559 141.75 58.1791 143.15 58.1791 144.871V151.002C58.1791 151.491 57.761 151.887 57.2451 151.887H52.3633V151.887Z" fill="black"/>
<path d="M64.574 151.891H57.4457C56.9298 151.891 56.5117 151.494 56.5117 151.005C56.5117 150.516 56.9298 150.12 57.4457 150.12H64.574C65.0899 150.12 65.508 150.516 65.508 151.005C65.508 151.494 65.0899 151.891 64.574 151.891Z" fill="black"/>
<path d="M72.038 176.291H65.4414C62.5961 176.291 60.2812 174.096 60.2812 171.399V161.325C60.2812 159.906 61.4996 158.751 62.9969 158.751H70.6191C72.78 158.751 74.5378 157.084 74.5378 155.036V151.686C74.5378 150.613 75.4587 149.74 76.5907 149.74H81.146C83.991 149.74 86.3062 151.935 86.3062 154.632V161.262C86.3062 163.959 83.9913 166.154 81.146 166.154H77.1978V171.399C77.1978 174.096 74.883 176.291 72.038 176.291ZM62.9969 160.522C62.5296 160.522 62.1492 160.883 62.1492 161.326V171.399C62.1492 173.12 63.6261 174.52 65.4414 174.52H72.038C73.853 174.52 75.3302 173.12 75.3302 171.399V165.268C75.3302 164.779 75.7482 164.383 76.2642 164.383H81.1464C82.9613 164.383 84.4385 162.983 84.4385 161.262V154.632C84.4385 152.911 82.9617 151.511 81.1464 151.511H76.5911C76.4891 151.511 76.4062 151.59 76.4062 151.686V155.036C76.4062 158.061 73.8104 160.522 70.6195 160.522H62.9969V160.522Z" fill="black"/>
<path d="M76.0545 166.153H68.9262C68.4102 166.153 67.9922 165.756 67.9922 165.267C67.9922 164.778 68.4102 164.382 68.9262 164.382H76.0545C76.5704 164.382 76.9885 164.778 76.9885 165.267C76.9885 165.756 76.5704 166.153 76.0545 166.153Z" fill="black"/>
<path d="M62.7864 148.505C61.2886 148.505 60.0703 147.35 60.0703 145.93C60.0703 144.51 61.2886 143.355 62.7864 143.355C64.2841 143.355 65.5024 144.51 65.5024 145.93C65.5024 147.35 64.2841 148.505 62.7864 148.505ZM62.7864 145.126C62.319 145.126 61.9383 145.487 61.9383 145.931C61.9383 146.374 62.319 146.735 62.7864 146.735C63.2538 146.735 63.6344 146.374 63.6344 145.931C63.6344 145.487 63.2538 145.126 62.7864 145.126Z" fill="black"/>
<path d="M70.7083 172.908C69.2105 172.908 67.9922 171.753 67.9922 170.333C67.9922 168.913 69.2105 167.758 70.7083 167.758C72.2056 167.758 73.4243 168.913 73.4243 170.333C73.4243 171.753 72.2056 172.908 70.7083 172.908ZM70.7083 169.529C70.2409 169.529 69.8602 169.889 69.8602 170.333C69.8602 170.776 70.2409 171.137 70.7083 171.137C71.1756 171.137 71.5563 170.776 71.5563 170.333C71.5563 169.889 71.176 169.529 70.7083 169.529Z" fill="black"/>
</g>
<g clip-path="url(#clip0_1885_12256)">
<path d="M86.2498 43.5128C86.4254 43.611 86.4924 43.8304 86.4012 44.0098L82.2657 52.1569C81.0621 54.5273 81.1386 57.3459 82.4678 59.648L95.2801 81.8379L101.309 63.0713L105.551 54.7408C105.648 54.5511 105.883 54.4799 106.069 54.5837L109.913 56.7357C110.546 57.0898 111.28 56.4719 111.039 55.7879L104.152 36.2397C103.814 35.2819 102.803 34.7386 101.817 34.9864L82.4796 39.8505C81.7893 40.0241 81.6665 40.9525 82.288 41.2997L86.2498 43.5128Z" fill="#C3E29E"/>
<path d="M101.31 63.0713L118.332 63.9577C119.99 64.0438 121.251 65.481 121.12 67.1361L119.831 83.3809C119.705 84.9733 118.334 86.1757 116.738 86.093L100.886 85.2669C98.5558 85.146 96.4451 83.8535 95.2782 81.8326C94.1126 79.814 94.0474 77.3428 95.1046 75.2652L101.31 63.0713Z" fill="#77AD50"/>
<path d="M153.591 15.0025C153.418 15.1056 153.195 15.0539 153.085 14.8851L148.096 7.23035C146.645 5.00286 144.166 3.65991 141.507 3.65991H115.883L129.122 18.2643L134.216 26.103C134.332 26.2815 134.276 26.5208 134.093 26.6295L130.307 28.8829C129.684 29.2537 129.852 30.1984 130.565 30.3317L150.939 34.1414C151.938 34.3281 152.914 33.7237 153.192 32.7467L158.648 13.569C158.843 12.8843 158.1 12.3136 157.489 12.6783L153.591 15.0025Z" fill="#C3E29E"/>
<path d="M129.12 18.264L119.842 32.5607C118.938 33.9538 117.063 34.3267 115.695 33.3853L102.27 24.1472C100.954 23.2417 100.598 21.4529 101.467 20.1128L110.109 6.79878C111.379 4.84107 113.554 3.65955 115.887 3.65955C118.219 3.65955 120.391 4.83863 121.662 6.79296L129.12 18.264Z" fill="#77AD50"/>
<path d="M143.436 87.0475C143.444 86.8464 143.609 86.6872 143.81 86.6868L152.947 86.6726C155.606 86.6688 158.083 85.321 159.531 83.0916L173.487 61.6028L154.027 64.751L144.678 64.7534C144.465 64.7534 144.295 64.5765 144.303 64.3639L144.475 59.9616C144.503 59.2369 143.619 58.8633 143.119 59.3886L128.827 74.4001C128.127 75.1356 128.102 76.2835 128.77 77.0486L141.884 92.0693C142.352 92.6057 143.235 92.2935 143.262 91.582L143.436 87.0475Z" fill="#C3E29E"/>
<path d="M154.026 64.7512L147.089 49.1834C146.412 47.6671 147.121 45.8916 148.655 45.257L163.716 39.0301C165.192 38.4196 166.886 39.0955 167.536 40.5545L173.997 55.0524C174.948 57.1837 174.754 59.6512 173.483 61.6082C172.213 63.5631 170.041 64.7433 167.71 64.7444L154.026 64.7512Z" fill="#77AD50"/>
<path d="M118.4 62.5534L113.993 62.3238C113.216 62.2849 112.556 62.8793 112.515 63.6549C112.475 64.4305 113.071 65.0919 113.846 65.1324L118.255 65.3621C118.899 65.4099 119.74 65.9594 119.713 67.0251L118.425 83.2698C118.358 84.1092 117.642 84.7303 116.807 84.6887L100.954 83.8628C99.0925 83.7661 97.4243 82.7449 96.4918 81.1308L96.4904 81.1286C95.5598 79.5158 95.5084 77.5626 96.353 75.9032L102.145 64.5233L107.29 64.7914C108.063 64.833 108.726 64.2357 108.767 63.4601C108.807 62.6847 108.211 62.0232 107.436 61.9827L103.542 61.7799L106.314 56.3348L109.223 57.9631C110.027 58.4125 111.001 58.32 111.706 57.727C112.411 57.134 112.668 56.1897 112.362 55.321L105.474 35.7728C104.892 34.1196 103.17 33.1957 101.471 33.6228L82.1329 38.4867C81.2559 38.7075 80.6126 39.4293 80.4941 40.3259C80.3756 41.2224 80.8093 42.0866 81.5986 42.5273L84.6955 44.2572L81.0084 51.5204C79.5841 54.3249 79.6731 57.6262 81.2467 60.3512L94.0552 82.5345C94.0554 82.5349 94.0556 82.5353 94.0558 82.5356C94.056 82.536 94.0562 82.5364 94.0565 82.5368L94.059 82.5409C94.0597 82.5422 94.0607 82.5431 94.0612 82.5444C95.473 84.9825 97.9946 86.5249 100.809 86.6713C101.326 86.692 116.369 87.4942 116.895 87.5034C119.165 87.5034 121.047 85.7827 121.228 83.492L122.517 67.2473C122.728 65.0751 120.928 62.6517 118.4 62.5534ZM83.516 52.7934L87.8146 44.3249C88.1562 43.6519 87.9056 42.829 87.2466 42.461L84.3329 40.8332L102.157 36.3499C102.44 36.2789 102.725 36.4322 102.822 36.7069L109.164 54.7068L106.412 53.1661C106.078 52.9796 105.682 52.937 105.316 53.0476C104.95 53.1588 104.645 53.4141 104.472 53.755C101.668 59.4299 93.3807 75.7423 93.3807 75.7423L83.6821 58.9451C82.5859 57.0468 82.5238 54.7472 83.516 52.7934Z" fill="black"/>
<path d="M174.665 62.3654C176.196 60.0004 176.427 57.0532 175.279 54.4796L173.656 50.8383C173.34 50.1289 172.508 49.8101 171.799 50.1262C171.09 50.4425 170.771 51.2736 171.087 51.9829L172.71 55.6246C173.469 57.3264 173.317 59.2753 172.303 60.8383L172.299 60.8452C171.284 62.4051 169.568 63.3369 167.706 63.3377L154.937 63.3438L148.371 48.6102C148.121 48.014 148.228 47.0155 149.19 46.5558L164.25 40.3289C165.029 40.0068 165.907 40.3578 166.25 41.1263L168.383 45.9127C168.699 46.6222 169.53 46.9409 170.239 46.6248C170.949 46.3085 171.267 45.4774 170.951 44.7681L168.818 39.9813C167.85 37.8112 165.372 36.8218 163.176 37.73L148.116 43.9571C146.047 44.7773 144.758 47.4499 145.802 49.7552L151.858 63.345L145.747 63.3467L145.877 60.016C145.913 59.0958 145.389 58.2696 144.54 57.9107C143.692 57.5523 142.733 57.7514 142.098 58.4183L127.806 73.4297C126.598 74.6992 126.556 76.6522 127.708 77.9725L140.822 92.9931C141.248 93.4811 141.849 93.7455 142.468 93.7455C142.714 93.7455 142.963 93.7038 143.205 93.6184C144.057 93.3171 144.63 92.5383 144.665 91.635L144.8 88.0906L152.946 88.078C156.092 88.0737 158.993 86.4959 160.707 83.8568L174.657 62.3766C174.658 62.3755 174.659 62.3744 174.66 62.3732C174.66 62.3721 174.661 62.371 174.662 62.3697L174.663 62.3678C174.663 62.3674 174.664 62.3665 174.665 62.3654ZM158.348 82.3256C157.154 84.1639 155.133 85.2633 152.942 85.2663L143.444 85.2811C142.69 85.2823 142.07 85.8792 142.042 86.6335L141.914 89.9686L129.827 76.1235C129.635 75.9043 129.642 75.5802 129.843 75.3694L143.003 61.5468L142.88 64.6986C142.865 65.0809 143.006 65.4527 143.272 65.7283C143.537 66.0041 143.902 66.1597 144.285 66.1597L168.912 66.0594L158.348 82.3256Z" fill="black"/>
<path d="M101.473 25.3056L114.898 34.5436C116.621 35.8191 119.709 35.4599 121.021 33.3261L129.121 20.8457L132.451 25.9693L129.586 27.6742C128.795 28.1452 128.388 29.0354 128.549 29.9422C128.71 30.8491 129.399 31.5443 130.305 31.7136C130.711 31.764 137.332 33.0758 137.795 33.0897C138.459 33.0897 139.049 32.6178 139.176 31.9419C139.318 31.1785 138.815 30.4439 138.052 30.3013L132.436 29.251L135.146 27.6379C135.475 27.4423 135.709 27.1212 135.796 26.7486C135.883 26.3761 135.814 25.9843 135.606 25.6635C134.103 23.3509 129.551 16.3468 128.15 14.1919C127.726 13.5404 126.855 13.3561 126.205 13.7794C125.553 14.2028 125.369 15.0736 125.792 15.7248L127.443 18.2648L118.662 31.7957C118.298 32.3297 117.402 32.7835 116.492 32.2271L103.067 22.989C102.373 22.5117 102.189 21.5846 102.647 20.8785L111.289 7.56415C112.304 5.9996 114.023 5.06574 115.888 5.06574C117.75 5.06574 119.468 5.9981 120.483 7.55946L122.23 10.2459C122.653 10.8972 123.524 11.0814 124.175 10.6584C124.826 10.235 125.011 9.36419 124.588 8.71305L122.109 5.06555H141.506C143.698 5.06555 145.721 6.16159 146.917 7.99762L152.102 15.9544C152.514 16.5868 153.352 16.7807 154 16.3945L156.867 14.685L151.838 32.3615C151.759 32.6416 151.484 32.8124 151.196 32.7588L144.578 31.5214C143.816 31.3791 143.081 31.8818 142.938 32.6452C142.795 33.4084 143.298 34.143 144.062 34.2857C145.334 34.4868 150.42 35.5555 151.311 35.5819C152.794 35.5819 154.122 34.6093 154.543 33.1311L159.999 13.9534C160.246 13.0837 159.943 12.1658 159.226 11.6147C158.509 11.0637 157.544 11.0073 156.767 11.4702L153.72 13.2869L149.273 6.46231C147.556 3.82666 144.652 2.2533 141.506 2.2533H115.881C115.878 2.2533 115.875 2.25386 115.871 2.25386C113.056 2.2593 110.462 3.67105 108.929 6.03316L100.288 19.3475C98.9945 21.3412 99.5151 23.9583 101.473 25.3056Z" fill="black"/>
</g>
<defs>
<clipPath id="clip0_1885_12256">
<rect width="96" height="96" fill="white" transform="translate(80)"/>
</clipPath>
</defs>
</svg>
