<svg width="149" height="90" viewBox="0 0 149 90" fill="none" xmlns="http://www.w3.org/2000/svg">
<path d="M88.8664 63.1331H47.2664C46.4177 63.1331 45.6038 62.7959 45.0037 62.1958C44.4035 61.5957 44.0664 60.7818 44.0664 59.9331V17.2664C44.0664 16.4177 44.4035 15.6038 45.0037 15.0037C45.6038 14.4035 46.4177 14.0664 47.2664 14.0664H87.7997C88.6484 14.0664 89.4624 14.4035 90.0625 15.0037C90.6626 15.6038 90.9997 16.4177 90.9997 17.2664V38.5997L88.8664 40.7331V63.1331Z" fill="#5DA0FF"/>
<path d="M49.3987 58.8682C49.1158 58.8682 48.8445 58.7559 48.6445 58.5558C48.4444 58.3558 48.332 58.0845 48.332 57.8016V23.6682C48.332 23.3853 48.4444 23.114 48.6445 22.914C48.8445 22.7139 49.1158 22.6016 49.3987 22.6016H85.6654C85.9483 22.6016 86.2196 22.7139 86.4196 22.914C86.6197 23.114 86.732 23.3853 86.732 23.6682V58.8682H49.3987Z" fill="white"/>
<path d="M91.001 54.5984V42.8651C91.001 42.0164 91.3382 41.2025 91.9383 40.6024C92.5384 40.0022 93.3523 39.6651 94.201 39.6651C95.0497 39.6651 95.8637 40.0022 96.4638 40.6024C97.0639 41.2025 97.401 42.0164 97.401 42.8651V46.0651C97.401 46.6309 97.6258 47.1735 98.0259 47.5736C98.426 47.9737 98.9686 48.1984 99.5344 48.1984C100.1 48.1984 100.643 47.9737 101.043 47.5736C101.443 47.1735 101.668 46.6309 101.668 46.0651V42.8651C101.668 40.8848 100.881 38.9856 99.4808 37.5854C98.0805 36.1851 96.1813 35.3984 94.201 35.3984C92.2208 35.3984 90.3216 36.1851 88.9213 37.5854C87.521 38.9856 86.7344 40.8848 86.7344 42.8651V54.5984H91.001Z" fill="#C4DDF0"/>
<path d="M101.665 52.4688H86.7315C84.3751 52.4688 82.4648 54.379 82.4648 56.7354V71.6688C82.4648 74.0252 84.3751 75.9354 86.7315 75.9354H101.665C104.021 75.9354 105.932 74.0252 105.932 71.6688V56.7354C105.932 54.379 104.021 52.4688 101.665 52.4688Z" fill="#F27A5A"/>
<path d="M96.4763 64.963L97.1419 68.2547C97.1735 68.4097 97.1703 68.5698 97.1324 68.7234C97.0946 68.877 97.023 69.0202 96.9229 69.1427C96.8229 69.2652 96.6968 69.364 96.5539 69.4318C96.411 69.4996 96.2548 69.5347 96.0966 69.5347H92.3035C92.1453 69.5347 91.9891 69.4996 91.8462 69.4318C91.7032 69.364 91.5772 69.2652 91.4771 69.1427C91.377 69.0202 91.3055 68.877 91.2676 68.7234C91.2297 68.5698 91.2265 68.4097 91.2582 68.2547L91.9259 64.948C91.9592 64.8002 91.959 64.6469 91.9252 64.4992C91.8914 64.3515 91.8249 64.2133 91.7307 64.0947C91.3446 63.6262 91.0996 63.0576 91.0246 62.4551C90.9495 61.8527 91.0473 61.2413 91.3067 60.6924C91.566 60.1435 91.9762 59.6797 92.4892 59.3551C93.0023 59.0305 93.5971 58.8586 94.2042 58.8594C94.8113 58.8602 95.4056 59.0336 95.9178 59.3595C96.43 59.6854 96.839 60.1503 97.0969 60.6999C97.3548 61.2495 97.451 61.8611 97.3744 62.4634C97.2978 63.0656 97.0514 63.6336 96.664 64.1011C96.5705 64.2217 96.5051 64.3616 96.4726 64.5108C96.4401 64.6599 96.4414 64.8144 96.4763 64.963Z" fill="#C85A4A"/>
<path d="M101.667 51.4H92.0667V42.8667C92.0667 42.3009 92.2914 41.7583 92.6915 41.3582C93.0916 40.9581 93.6342 40.7333 94.2 40.7333C94.7658 40.7333 95.3084 40.9581 95.7085 41.3582C96.1086 41.7583 96.3333 42.3009 96.3333 42.8667V46.0667C96.3333 46.9154 96.6705 47.7293 97.2706 48.3294C97.8707 48.9295 98.6846 49.2667 99.5333 49.2667C100.382 49.2667 101.196 48.9295 101.796 48.3294C102.396 47.7293 102.733 46.9154 102.733 46.0667V42.8667C102.738 41.563 102.444 40.2756 101.872 39.104C101.3 37.9325 100.466 36.9082 99.4347 36.1104C98.4036 35.3127 97.2028 34.7628 95.9251 34.5033C94.6475 34.2437 93.3273 34.2816 92.0667 34.6139V17.2667C92.0667 16.1351 91.6171 15.0498 90.817 14.2497C90.0168 13.4495 88.9316 13 87.8 13H47.2667C46.1351 13 45.0498 13.4495 44.2497 14.2497C43.4495 15.0498 43 16.1351 43 17.2667V59.9333C43 61.0649 43.4495 62.1502 44.2497 62.9503C45.0498 63.7505 46.1351 64.2 47.2667 64.2H77.1333C77.4162 64.2 77.6875 64.0876 77.8876 63.8876C78.0876 63.6875 78.2 63.4162 78.2 63.1333C78.2 62.8504 78.0876 62.5791 77.8876 62.3791C77.6875 62.1791 77.4162 62.0667 77.1333 62.0667H47.2667C46.7009 62.0667 46.1582 61.8419 45.7582 61.4418C45.3581 61.0418 45.1333 60.4991 45.1333 59.9333V17.2667C45.1333 16.7009 45.3581 16.1582 45.7582 15.7582C46.1582 15.3581 46.7009 15.1333 47.2667 15.1333H87.8C88.3658 15.1333 88.9084 15.3581 89.3085 15.7582C89.7086 16.1582 89.9333 16.7009 89.9333 17.2667V35.4875C89.1325 35.9534 88.4121 36.5455 87.8 37.2411V23.6667C87.8 23.1009 87.5752 22.5583 87.1752 22.1582C86.7751 21.7581 86.2325 21.5333 85.6667 21.5333H49.4C48.8342 21.5333 48.2916 21.7581 47.8915 22.1582C47.4914 22.5583 47.2667 23.1009 47.2667 23.6667V57.8C47.2667 58.3658 47.4914 58.9084 47.8915 59.3085C48.2916 59.7086 48.8342 59.9333 49.4 59.9333H81.4V71.6667C81.4017 73.0806 81.9641 74.4362 82.964 75.436C83.9638 76.4359 85.3194 76.9983 86.7333 77H101.667C103.081 76.9983 104.436 76.4359 105.436 75.436C106.436 74.4362 106.998 73.0806 107 71.6667V56.7333C106.998 55.3194 106.436 53.9638 105.436 52.964C104.436 51.9641 103.081 51.4017 101.667 51.4ZM94.2 36.4667C95.8969 36.4684 97.5238 37.1432 98.7236 38.3431C99.9235 39.5429 100.598 41.1698 100.6 42.8667V46.0667C100.6 46.3496 100.488 46.6209 100.288 46.8209C100.088 47.021 99.8162 47.1333 99.5333 47.1333C99.2504 47.1333 98.9791 47.021 98.7791 46.8209C98.579 46.6209 98.4667 46.3496 98.4667 46.0667V42.8667C98.4667 41.7351 98.0171 40.6498 97.217 39.8497C96.4168 39.0495 95.3316 38.6 94.2 38.6C93.0684 38.6 91.9832 39.0495 91.183 39.8497C90.3829 40.6498 89.9333 41.7351 89.9333 42.8667V51.4H87.8V42.8667C87.8017 41.1698 88.4765 39.5429 89.6764 38.3431C90.8763 37.1432 92.5031 36.4684 94.2 36.4667ZM49.4 57.8V23.6667H85.6667V51.5067C84.4628 51.7542 83.3812 52.4093 82.604 53.3613C81.8268 54.3134 81.4016 55.5043 81.4 56.7333V57.8H49.4ZM104.867 71.6667C104.867 72.5154 104.53 73.3293 103.929 73.9294C103.329 74.5295 102.515 74.8667 101.667 74.8667H86.7333C85.8846 74.8667 85.0707 74.5295 84.4706 73.9294C83.8705 73.3293 83.5333 72.5154 83.5333 71.6667V56.7333C83.5333 55.8846 83.8705 55.0707 84.4706 54.4706C85.0707 53.8705 85.8846 53.5333 86.7333 53.5333H101.667C102.515 53.5333 103.329 53.8705 103.929 54.4706C104.53 55.0707 104.867 55.8846 104.867 56.7333V71.6667Z" fill="#373737"/>
<path d="M96.9725 58.8183C96.4062 58.3349 95.7233 58.0081 94.9915 57.8705C94.2598 57.7328 93.5048 57.789 92.8015 58.0335C92.0982 58.278 91.4711 58.7022 90.9826 59.2641C90.4941 59.826 90.1611 60.506 90.0168 61.2364C89.8935 61.8484 89.9074 62.48 90.0575 63.0859C90.2077 63.6918 90.4903 64.2569 90.8851 64.7404L90.2173 68.0471C90.155 68.3564 90.1621 68.6756 90.238 68.9818C90.3139 69.288 90.4568 69.5736 90.6563 69.8179C90.8559 70.0622 91.1071 70.2593 91.392 70.3948C91.6769 70.5304 91.9883 70.601 92.3037 70.6018H96.0947C96.4111 70.602 96.7237 70.5318 97.0097 70.3963C97.2957 70.2608 97.5479 70.0633 97.7482 69.8183C97.9484 69.5732 98.0916 69.2866 98.1674 68.9794C98.2432 68.6721 98.2497 68.3519 98.1864 68.0418L97.5219 64.75L97.4803 64.7874C98.1974 63.9243 98.5457 62.8134 98.4497 61.6954C98.3537 60.5774 97.8211 59.5422 96.9672 58.814L96.9725 58.8183ZM95.4355 65.1767L96.0947 68.4684H92.3037L92.9715 65.1618C93.0365 64.8574 93.0319 64.5422 92.958 64.2399C92.8841 63.9375 92.7429 63.6558 92.5448 63.4156C92.3439 63.1706 92.2002 62.8838 92.124 62.5763C92.0478 62.2687 92.041 61.948 92.1043 61.6375C92.1932 61.2187 92.4049 60.8359 92.7122 60.5378C93.0196 60.2397 93.4088 60.0399 93.8301 59.9639C93.9522 59.9448 94.0756 59.9351 94.1992 59.9351C94.7075 59.9318 95.1999 60.1121 95.5859 60.4428C95.8206 60.6436 96.0089 60.8929 96.1378 61.1736C96.2667 61.4543 96.3332 61.7596 96.3325 62.0684C96.334 62.5619 96.1623 63.0402 95.8472 63.4199C95.6494 63.6621 95.5091 63.9461 95.4368 64.2504C95.3646 64.5547 95.3623 64.8714 95.4301 65.1767H95.4355Z" fill="#373737"/>
<path d="M50.4654 19.399C50.7483 19.399 51.0196 19.2866 51.2196 19.0865C51.4196 18.8865 51.532 18.6152 51.532 18.3323C51.532 18.0494 51.4196 17.7781 51.2196 17.578C51.0196 17.378 50.7483 17.2656 50.4654 17.2656H49.3987C49.1158 17.2656 48.8445 17.378 48.6445 17.578C48.4444 17.7781 48.332 18.0494 48.332 18.3323C48.332 18.6152 48.4444 18.8865 48.6445 19.0865C48.8445 19.2866 49.1158 19.399 49.3987 19.399H50.4654Z" fill="#373737"/>
<path d="M55.8013 19.399C56.0842 19.399 56.3555 19.2866 56.5555 19.0865C56.7556 18.8865 56.868 18.6152 56.868 18.3323C56.868 18.0494 56.7556 17.7781 56.5555 17.578C56.3555 17.378 56.0842 17.2656 55.8013 17.2656H54.7346C54.4517 17.2656 54.1804 17.378 53.9804 17.578C53.7803 17.7781 53.668 18.0494 53.668 18.3323C53.668 18.6152 53.7803 18.8865 53.9804 19.0865C54.1804 19.2866 54.4517 19.399 54.7346 19.399H55.8013Z" fill="#373737"/>
<path d="M61.1333 19.399C61.4162 19.399 61.6875 19.2866 61.8876 19.0865C62.0876 18.8865 62.2 18.6152 62.2 18.3323C62.2 18.0494 62.0876 17.7781 61.8876 17.578C61.6875 17.378 61.4162 17.2656 61.1333 17.2656H60.0667C59.7838 17.2656 59.5125 17.378 59.3124 17.578C59.1124 17.7781 59 18.0494 59 18.3323C59 18.6152 59.1124 18.8865 59.3124 19.0865C59.5125 19.2866 59.7838 19.399 60.0667 19.399H61.1333Z" fill="#373737"/>
<path d="M85.6659 19.399C85.9488 19.399 86.2201 19.2866 86.4201 19.0865C86.6202 18.8865 86.7326 18.6152 86.7326 18.3323C86.7326 18.0494 86.6202 17.7781 86.4201 17.578C86.2201 17.378 85.9488 17.2656 85.6659 17.2656H79.2659C78.983 17.2656 78.7117 17.378 78.5116 17.578C78.3116 17.7781 78.1992 18.0494 78.1992 18.3323C78.1992 18.6152 78.3116 18.8865 78.5116 19.0865C78.7117 19.2866 78.983 19.399 79.2659 19.399H85.6659Z" fill="#373737"/>
<path d="M60.8479 33.6044C60.6549 33.3977 60.3877 33.2761 60.1051 33.2663C59.8225 33.2565 59.5475 33.3593 59.3407 33.5522L53.2767 39.198C53.0639 39.3929 52.894 39.6299 52.7778 39.894C52.6616 40.158 52.6016 40.4434 52.6016 40.7319C52.6016 41.0204 52.6616 41.3058 52.7778 41.5698C52.894 41.8339 53.0639 42.0709 53.2767 42.2658L59.3407 47.9116C59.5487 48.0971 59.8211 48.1937 60.0995 48.1809C60.3779 48.1681 60.6403 48.0468 60.8304 47.843C61.0205 47.6393 61.1233 47.3692 61.1168 47.0905C61.1103 46.8119 60.995 46.5469 60.7956 46.3522L54.7348 40.7575L60.7999 35.1116C61.006 34.9181 61.1269 34.6506 61.1359 34.368C61.1449 34.0853 61.0413 33.8107 60.8479 33.6044Z" fill="#373737"/>
<path d="M82.4655 40.7314C82.4657 40.4428 82.4058 40.1574 82.2895 39.8933C82.1733 39.6292 82.0032 39.3922 81.7903 39.1975L75.7263 33.5517C75.5182 33.3662 75.2458 33.2696 74.9674 33.2824C74.689 33.2952 74.4267 33.4165 74.2366 33.6203C74.0464 33.8241 73.9436 34.0942 73.9501 34.3728C73.9566 34.6514 74.0719 34.9164 74.2713 35.1111L80.3321 40.7058L74.2671 46.3517C74.161 46.4462 74.0749 46.561 74.0138 46.6894C73.9527 46.8177 73.9178 46.9569 73.9113 47.0989C73.9047 47.2408 73.9266 47.3827 73.9757 47.516C74.0247 47.6494 74.0999 47.7717 74.1969 47.8756C74.2938 47.9795 74.4106 48.063 74.5402 48.1211C74.6699 48.1793 74.8099 48.211 74.952 48.2143C75.094 48.2176 75.2353 48.1925 75.3676 48.1404C75.4998 48.0884 75.6203 48.0104 75.722 47.9111L81.786 42.2653C81.9998 42.071 82.1706 41.8342 82.2876 41.57C82.4046 41.3059 82.4652 41.0203 82.4655 40.7314Z" fill="#373737"/>
<path d="M71.2095 33.3782C71.0842 33.3155 70.9477 33.2782 70.8079 33.2683C70.6681 33.2584 70.5277 33.2761 70.3948 33.3205C70.2618 33.3649 70.139 33.435 70.0331 33.5269C69.9273 33.6188 69.8406 33.7307 69.7781 33.8561L63.3781 46.6561C63.3155 46.7815 63.2781 46.9179 63.2683 47.0577C63.2584 47.1975 63.2762 47.3379 63.3205 47.4708C63.3649 47.6037 63.435 47.7266 63.5269 47.8324C63.6188 47.9382 63.7306 48.0249 63.8559 48.0876C63.9813 48.1502 64.1178 48.1875 64.2576 48.1974C64.3974 48.2072 64.5377 48.1895 64.6706 48.1451C64.8036 48.1007 64.9264 48.0306 65.0323 47.9387C65.1381 47.8469 65.2248 47.7351 65.2874 47.6097L71.6874 34.8097C71.7501 34.6843 71.7874 34.5479 71.7973 34.4081C71.8072 34.2682 71.7895 34.1279 71.7451 33.9949C71.7007 33.862 71.6306 33.7391 71.5387 33.6333C71.4468 33.5275 71.335 33.4408 71.2095 33.3782Z" fill="#373737"/>
</svg>
