<svg width="295" height="127" viewBox="0 0 295 127" fill="none" xmlns="http://www.w3.org/2000/svg">
<path fill-rule="evenodd" clip-rule="evenodd" d="M128.365 61.7662C132.909 61.9552 136.439 65.7923 136.25 70.3359L130.765 70.1056C130.828 68.5908 129.651 67.312 128.137 67.249L111.682 66.5643C110.725 66.5245 109.86 66.98 109.339 67.7038C109.036 68.1248 108.849 68.6356 108.825 69.1927L103.34 68.9666C103.529 64.423 107.366 60.8925 111.91 61.0815L128.365 61.7662Z" fill="#C4C4C4"/>
<path d="M136.25 70.3359C136.439 65.7921 132.909 61.9552 128.365 61.7662L111.91 61.0815C107.366 60.8925 103.529 64.4228 103.34 68.9666M130.765 70.1056C130.828 68.591 129.651 67.312 128.137 67.249L111.682 66.5643C110.167 66.5013 108.888 67.6781 108.825 69.1927" stroke="black" stroke-width="2.05864"/>
<g clip-path="url(#clip0_1011_224)">
<path d="M113.101 44.7422L39.3344 55.8889L38.1562 48.0924C37.906 46.4362 39.0456 44.8909 40.7017 44.6406L108.471 34.4001C110.127 34.1499 111.673 35.2895 111.923 36.9456L113.101 44.7422Z" fill="#4DB7E5"/>
<path d="M108.475 34.3984L103.977 35.0781C105.633 34.8279 107.178 35.9675 107.428 37.6236L108.606 45.42L113.104 44.7404L111.926 36.9439C111.676 35.2878 110.131 34.1482 108.475 34.3984Z" fill="#48ADD9"/>
<path fill-rule="evenodd" clip-rule="evenodd" d="M50.4147 108.867L118.184 98.6264C119.84 98.3762 120.98 96.8308 120.73 95.1747L113.103 44.7009L39.3359 55.8477L46.9629 106.321C47.2132 107.978 48.7585 109.117 50.4147 108.867ZM105.915 75.8749C108.947 75.9148 111.437 73.4895 111.477 70.4579C111.516 67.4263 109.091 64.9363 106.06 64.8964C103.028 64.8566 100.538 67.2818 100.498 70.3134C100.458 73.3451 102.883 75.835 105.915 75.8749Z" fill="#F4FBFF"/>
<path d="M108.608 45.418L116.235 95.8918C116.485 97.5479 115.346 99.0932 113.689 99.3435L118.187 98.6638C119.844 98.4136 120.983 96.8682 120.733 95.2121L113.106 44.7383L108.608 45.418Z" fill="#E4F6FF"/>
<path d="M102.729 38.943C101.735 39.0931 101.051 40.0203 101.202 41.014C101.352 42.0077 102.279 42.6915 103.273 42.5414C104.266 42.3912 104.95 41.464 104.8 40.4703C104.65 39.4766 103.723 38.7928 102.729 38.943Z" fill="black"/>
<path d="M96.7289 39.8531C95.7352 40.0033 95.0514 40.9305 95.2016 41.9242C95.3517 42.9179 96.2789 43.6017 97.2726 43.4515C98.2663 43.3014 98.9501 42.3741 98.7999 41.3805C98.6498 40.3868 97.7226 39.703 96.7289 39.8531Z" fill="black"/>
<path d="M91.2648 44.3578C92.2585 44.2076 92.9423 43.2804 92.7921 42.2867C92.642 41.293 91.7147 40.6092 90.7211 40.7594C89.7274 40.9095 89.0436 41.8368 89.1937 42.8304C89.3439 43.8241 90.2711 44.5079 91.2648 44.3578Z" fill="black"/>
<path d="M108.303 33.2827L40.5337 43.5232C38.2665 43.8658 36.7006 45.9891 37.0432 48.2563L43.2593 89.3931C43.3522 90.0078 43.9258 90.431 44.5407 90.338C45.1556 90.2451 45.5785 89.6714 45.4857 89.0566L40.6159 56.8296L112.156 46.0193L113.573 55.3965C113.666 56.0112 114.24 56.4343 114.855 56.3414C115.47 56.2485 115.892 55.6748 115.8 55.06L113.036 36.7732C112.694 34.506 110.57 32.9401 108.303 33.2827ZM39.2696 47.9199C39.1125 46.8803 39.8304 45.9067 40.8701 45.7496L108.64 35.5091C109.679 35.3519 110.653 36.07 110.81 37.1096L111.82 43.793L40.2795 54.6033L39.2696 47.9199Z" fill="black"/>
<path d="M115.302 59.31C114.687 59.403 114.264 59.9767 114.357 60.5914L119.614 95.3805C119.771 96.4199 119.053 97.3933 118.014 97.5504L50.2432 107.791C49.2038 107.948 48.2304 107.23 48.0734 106.191L46.2468 94.1032C46.1539 93.4884 45.5803 93.0653 44.9654 93.1582C44.3505 93.2512 43.9276 93.8249 44.0205 94.4396L45.847 106.527C46.1896 108.794 48.3126 110.36 50.5796 110.017L118.35 99.7767C120.617 99.4341 122.183 97.3111 121.84 95.0441L116.583 60.255C116.49 59.6402 115.917 59.2171 115.302 59.31Z" fill="black"/>
<path d="M79.0709 62.4429L73.8295 63.2349C71.9751 63.5151 70.6987 65.2456 70.9789 67.1003L71.7554 72.2384L67.8761 72.8246C66.0217 73.1048 64.7454 74.8353 65.0256 76.69L65.8652 82.2461C66.1454 84.1005 67.8761 85.3768 69.7305 85.0966L73.35 84.5497C73.841 84.4755 74.1789 84.0172 74.1047 83.5263L73.6806 80.7193C73.3588 78.5897 74.8241 76.6027 76.9537 76.2809L83.0103 75.3657C83.7922 75.2475 84.3302 74.518 84.212 73.7361L82.9363 65.2937C82.656 63.4387 80.9256 62.1626 79.0709 62.4429Z" fill="#5290DB"/>
<path d="M90.6803 69.0601L87.0608 69.607C86.5698 69.6812 86.2319 70.1394 86.3061 70.6304L86.7303 73.4374C87.0521 75.567 85.5867 77.554 83.4572 77.8758L77.4006 78.791C76.6187 78.9092 76.0807 79.6387 76.1988 80.4206L77.4745 88.863C77.7547 90.7174 79.4855 91.9937 81.3399 91.7135L86.5813 90.9215C88.4357 90.6413 89.7121 88.9108 89.4319 87.0561L88.6554 81.918L92.5347 81.3318C94.3891 81.0516 95.6654 79.3211 95.3852 77.4664L94.5456 71.9103C94.2654 70.0562 92.5347 68.7799 90.6803 69.0601Z" fill="#FC8C48"/>
<path d="M75.7345 68.743C76.5165 68.6248 77.0547 67.8951 76.9365 67.113C76.8183 66.331 76.0886 65.7929 75.3066 65.911C74.5246 66.0292 73.9864 66.7589 74.1046 67.541C74.2228 68.323 74.9525 68.8611 75.7345 68.743Z" fill="#EDF4FC"/>
<path d="M85.1095 88.243C85.8915 88.1248 86.4297 87.395 86.3115 86.613C86.1934 85.831 85.4636 85.2929 84.6816 85.411C83.8996 85.5292 83.3614 86.2589 83.4796 87.041C83.5978 87.823 84.3275 88.3611 85.1095 88.243Z" fill="#EDF4FC"/>
<path d="M73.4495 85.2964L69.8297 85.8434C67.5689 86.185 65.4517 84.6237 65.1101 82.3629L64.2705 76.8068C63.9289 74.546 65.4902 72.4288 67.751 72.0872L70.8884 71.6131L70.2242 67.2174C69.8826 64.9566 71.4439 62.8394 73.7047 62.4977L78.9461 61.7057C81.2069 61.3641 83.3241 62.9254 83.6658 65.1862L84.9415 73.6286C85.1213 74.8184 84.2995 75.9327 83.11 76.1124L77.0534 77.0276C75.3365 77.287 74.1509 78.8951 74.4103 80.6117L74.8345 83.4187C74.97 84.3179 74.3486 85.1606 73.4495 85.2964ZM67.9753 73.5714C66.5329 73.7894 65.5368 75.1401 65.7548 76.5825L66.5943 82.1386C66.8123 83.581 68.163 84.5771 69.6054 84.3592L73.2249 83.8122C73.3059 83.8 73.3619 83.7241 73.3496 83.6431L72.9255 80.8361C72.5424 78.3007 74.2932 75.9266 76.8286 75.5434L82.8852 74.6282C83.2562 74.5722 83.5128 74.2243 83.4566 73.853L82.1809 65.4106C81.963 63.9682 80.6122 62.9721 79.1698 63.1901L73.9284 63.9821C72.486 64.2 71.4899 65.5508 71.7078 66.9932L72.4842 72.1313C72.5462 72.5413 72.2642 72.9236 71.8543 72.9856L67.9754 73.5717L67.9753 73.5714Z" fill="black"/>
<path d="M77.6849 72.1061L72.0211 72.9619C71.6111 73.0239 71.2288 72.7419 71.1668 72.332C71.1049 71.922 71.3869 71.5396 71.7968 71.4777L77.4607 70.6218C77.8706 70.5599 78.253 70.8419 78.3149 71.2518C78.3769 71.6618 78.0949 72.0441 77.6849 72.1061Z" fill="black"/>
<path d="M86.704 91.6647L81.4625 92.4567C79.2017 92.7983 77.0845 91.237 76.7429 88.9762L75.4672 80.5338C75.2874 79.3441 76.1092 78.2298 77.2989 78.05L83.3552 77.1348C85.0722 76.8754 86.2578 75.2674 85.9984 73.5507L85.5742 70.7437C85.4383 69.8442 86.0594 69.0019 86.9589 68.866L90.5784 68.3191C92.8389 67.9775 94.9564 69.5388 95.298 71.7996L96.1376 77.3557C96.4792 79.6165 94.9178 81.7337 92.657 82.0753L89.52 82.5494L90.1842 86.9454C90.5258 89.2059 88.9645 91.3231 86.704 91.6647ZM77.5233 79.5345C77.1519 79.5906 76.8954 79.9385 76.9515 80.3098L78.2272 88.7522C78.4451 90.1946 79.7959 91.1907 81.2383 90.9727L86.4797 90.1807C87.9218 89.9628 88.9182 88.612 88.7003 87.1696L87.9239 82.0315C87.8619 81.6215 88.1439 81.2392 88.5538 81.1772L92.4331 80.591C93.8751 80.3731 94.8716 79.0223 94.6536 77.5799L93.814 72.0238C93.5961 70.5815 92.2453 69.5853 90.8029 69.8033L87.1835 70.3502C87.1024 70.3625 87.0465 70.4383 87.0587 70.5194L87.4829 73.3264C87.866 75.8617 86.1152 78.2359 83.5798 78.619L77.5232 79.5342L77.5233 79.5345Z" fill="black"/>
<path d="M88.6224 82.6842L82.9586 83.5401C82.5486 83.602 82.1663 83.32 82.1043 82.9101C82.0424 82.5001 82.3244 82.1178 82.7343 82.0558L88.3982 81.2C88.8081 81.138 89.1905 81.42 89.2524 81.83C89.3144 82.2399 89.0324 82.6223 88.6224 82.6842Z" fill="black"/>
<path d="M75.8338 69.4826C74.6437 69.6624 73.5294 68.8406 73.3496 67.6506C73.1698 66.4605 73.9915 65.3459 75.1815 65.1661C76.3716 64.9863 77.4859 65.8083 77.6658 66.9984C77.8456 68.1884 77.0238 69.3027 75.8338 69.4826ZM75.4058 66.6506C75.0345 66.7067 74.7777 67.0549 74.8339 67.4266C74.89 67.7979 75.2382 68.0547 75.6095 67.9986C75.9809 67.9425 76.2377 67.5943 76.1816 67.2229C76.1254 66.851 75.7772 66.5945 75.4058 66.6506Z" fill="black"/>
<path d="M85.2322 88.9862C84.0421 89.166 82.9278 88.3442 82.748 87.1542C82.5682 85.9641 83.3899 84.8498 84.58 84.67C85.7697 84.4902 86.8843 85.3119 87.0641 86.502C87.244 87.692 86.4219 88.8064 85.2322 88.9862ZM84.8042 86.1542C84.4329 86.2103 84.1761 86.5585 84.2322 86.9299C84.2883 87.3013 84.6365 87.558 85.0079 87.5019C85.3792 87.4458 85.636 87.0976 85.5799 86.7262C85.5238 86.3549 85.1759 86.0981 84.8042 86.1542Z" fill="black"/>
<circle cx="105.972" cy="70.3857" r="6.51902" transform="rotate(0.753899 105.972 70.3857)" stroke="black" stroke-width="2.05864"/>
</g>
<path fill-rule="evenodd" clip-rule="evenodd" d="M204.633 74.6522C209.174 74.4085 213.053 77.8925 213.297 82.4336L207.815 82.7257C207.734 81.2117 206.44 80.0507 204.927 80.1319L188.482 81.0145C187.525 81.0659 186.708 81.6015 186.258 82.3715C185.996 82.8194 185.858 83.3458 185.888 83.9025L180.406 84.1989C180.162 79.6578 183.646 75.7786 188.187 75.5349L204.633 74.6522Z" fill="#C4C4C4"/>
<path d="M213.297 82.4336C213.053 77.8923 209.174 74.4085 204.633 74.6522L188.187 75.5349C183.646 75.7786 180.162 79.6576 180.406 84.1989M207.815 82.7257C207.734 81.2119 206.441 80.0506 204.927 80.1319L188.482 81.0145C186.968 81.0958 185.806 82.3888 185.888 83.9025" stroke="black" stroke-width="2.05864"/>
<g clip-path="url(#clip1_1011_224)">
<path d="M199.783 58.0243L126.109 46.2776L127.351 38.4909C127.614 36.8369 129.169 35.7099 130.823 35.9736L198.507 46.7653C200.161 47.029 201.288 48.5836 201.024 50.2376L199.783 58.0243Z" fill="#7EB457"/>
<path d="M198.516 46.767L194.023 46.0508C195.677 46.3145 196.804 47.8691 196.541 49.5231L195.299 57.3097L199.792 58.0259L201.033 50.2394C201.297 48.5853 200.17 47.0308 198.516 46.767Z" fill="#77AD50"/>
<path fill-rule="evenodd" clip-rule="evenodd" d="M188.289 110.912L120.605 100.121C118.951 99.8569 117.824 98.3024 118.088 96.6483L126.125 46.2383L199.799 57.985L191.761 108.395C191.497 110.049 189.943 111.176 188.289 110.912ZM189.328 82.1601C189.202 85.1894 186.644 87.5429 183.614 87.4169C180.585 87.2908 178.232 84.733 178.358 81.7037C178.484 78.6744 181.042 76.3209 184.071 76.447C187.1 76.573 189.454 79.1309 189.328 82.1601ZM133.904 77.1122C136.933 77.2382 139.491 74.8847 139.617 71.8554C139.743 68.8262 137.389 66.2683 134.36 66.1423C131.331 66.0162 128.773 68.3698 128.647 71.399C128.521 74.4283 130.874 76.9861 133.904 77.1122Z" fill="#F4FBFF"/>
<path d="M195.3 57.3056L187.262 107.716C186.998 109.37 185.444 110.497 183.79 110.233L188.282 110.949C189.936 111.213 191.491 110.086 191.754 108.432L199.792 58.0219L195.3 57.3056Z" fill="#E4F6FF"/>
<path d="M191.656 49.3568C190.664 49.1986 189.731 49.8748 189.573 50.8672C189.415 51.8597 190.091 52.7924 191.083 52.9507C192.076 53.1089 193.008 52.4327 193.167 51.4402C193.325 50.4478 192.649 49.5151 191.656 49.3568Z" fill="black"/>
<path d="M185.664 48.4037C184.672 48.2455 183.739 48.9217 183.581 49.9141C183.422 50.9066 184.099 51.8393 185.091 51.9975C186.084 52.1558 187.016 51.4796 187.175 50.4871C187.333 49.4947 186.657 48.5619 185.664 48.4037Z" fill="black"/>
<path d="M179.099 51.0405C180.091 51.1987 181.024 50.5225 181.182 49.5301C181.341 48.5377 180.664 47.6049 179.672 47.4467C178.68 47.2884 177.747 47.9647 177.588 48.9571C177.43 49.9495 178.107 50.8823 179.099 51.0405Z" fill="black"/>
<path d="M198.689 45.6535L131.005 34.8618C128.741 34.5008 126.605 36.0493 126.244 38.3136L119.693 79.3984C119.595 80.0124 120.013 80.5895 120.628 80.6875C121.242 80.7854 121.819 80.3669 121.917 79.753L127.048 47.5666L198.498 58.9588L197.005 68.3241C196.907 68.9381 197.326 69.5152 197.94 69.6131C198.554 69.7111 199.131 69.2926 199.229 68.6786L202.141 50.4148C202.502 48.1505 200.953 46.0145 198.689 45.6535ZM128.467 38.6682C128.633 37.6299 129.612 36.9198 130.651 37.0853L198.334 47.877C199.373 48.0426 200.083 49.0221 199.917 50.0603L198.853 56.7353L127.403 45.3431L128.467 38.6682Z" fill="black"/>
<path d="M197.465 72.5763C196.851 72.4784 196.274 72.8968 196.176 73.5108L190.636 108.256C190.471 109.294 189.491 110.004 188.453 109.838L120.769 99.0466C119.73 98.8811 119.021 97.9019 119.186 96.8638L121.111 84.7914C121.209 84.1774 120.791 83.6003 120.176 83.5024C119.562 83.4045 118.985 83.8229 118.887 84.4369L116.963 96.5093C116.602 98.7734 118.15 100.909 120.414 101.27L188.099 112.062C190.363 112.423 192.499 110.875 192.86 108.61L198.4 73.8653C198.497 73.2513 198.079 72.6742 197.465 72.5763Z" fill="black"/>
<path d="M161.988 64.5726L156.754 63.738C154.902 63.4427 153.161 64.7046 152.865 66.5569L152.047 71.6886L148.173 71.0709C146.321 70.7756 144.58 72.0375 144.284 73.8898L143.399 79.4389C143.104 81.291 144.366 83.032 146.218 83.3273L149.833 83.9037C150.324 83.9819 150.785 83.6477 150.863 83.1574L151.31 80.3539C151.649 78.227 153.648 76.7779 155.775 77.117L161.824 78.0815C162.605 78.206 163.338 77.6739 163.463 76.893L164.807 68.4613C165.103 66.6087 163.841 64.868 161.988 64.5726Z" fill="#5290DB"/>
<path d="M171.051 74.3968L167.436 73.8205C166.946 73.7423 166.485 74.0765 166.407 74.5668L165.96 77.3703C165.62 79.4972 163.622 80.9463 161.495 80.6072L155.446 79.6427C154.665 79.5182 153.931 80.0502 153.806 80.8312L152.462 89.2629C152.167 91.1149 153.429 92.856 155.281 93.1513L160.516 93.9859C162.368 94.2812 164.109 93.0193 164.404 91.1669L165.222 86.0353L169.097 86.653C170.949 86.9483 172.69 85.6864 172.985 83.834L173.87 78.285C174.165 76.4332 172.903 74.6921 171.051 74.3968Z" fill="#FC8C48"/>
<path d="M156.893 69.5616C157.674 69.6862 158.408 69.154 158.533 68.3729C158.657 67.5919 158.125 66.8578 157.344 66.7333C156.563 66.6088 155.829 67.141 155.704 67.922C155.58 68.703 156.112 69.4371 156.893 69.5616Z" fill="#EDF4FC"/>
<path d="M159.932 90.9952C160.713 91.1198 161.447 90.5876 161.572 89.8065C161.696 89.0255 161.164 88.2914 160.383 88.1669C159.602 88.0424 158.868 88.5746 158.743 89.3556C158.619 90.1366 159.151 90.8707 159.932 90.9952Z" fill="#EDF4FC"/>
<path d="M149.706 84.6485L146.091 84.0721C143.833 83.7121 142.289 81.5823 142.649 79.3243L143.533 73.7753C143.893 71.5173 146.023 69.9733 148.281 70.3333L151.414 70.8329L152.114 66.4427C152.474 64.1848 154.604 62.6407 156.862 63.0007L162.097 63.8354C164.355 64.1954 165.899 66.3252 165.539 68.5831L164.195 77.0148C164.005 78.2031 162.884 79.0158 161.696 78.8263L155.647 77.8619C153.933 77.5885 152.315 78.7613 152.042 80.4758L151.595 83.2792C151.451 84.1772 150.604 84.7917 149.706 84.6485ZM148.045 71.8156C146.604 71.5859 145.245 72.571 145.016 74.0116L144.131 79.5607C143.901 81.0013 144.886 82.3601 146.327 82.5898L149.942 83.1661C150.023 83.179 150.099 83.1237 150.112 83.0428L150.559 80.2393C150.963 77.7072 153.351 75.9757 155.883 76.3794L161.932 77.3439C162.303 77.403 162.653 77.1493 162.712 76.7784L164.056 68.3467C164.286 66.9061 163.301 65.5473 161.86 65.3176L156.625 64.483C155.185 64.2533 153.826 65.2384 153.596 66.679L152.778 71.8106C152.713 72.22 152.328 72.4989 151.919 72.4336L148.045 71.8159L148.045 71.8156Z" fill="black"/>
<path d="M157.747 73.3618L152.091 72.4599C151.681 72.3946 151.402 72.01 151.468 71.6006C151.533 71.1911 151.918 70.9123 152.327 70.9776L157.984 71.8795C158.393 71.9447 158.672 72.3294 158.607 72.7388C158.542 73.1483 158.157 73.4271 157.747 73.3618Z" fill="black"/>
<path d="M160.396 94.731L155.161 93.8964C152.903 93.5363 151.359 91.4065 151.719 89.1486L153.063 80.7169C153.253 79.5286 154.374 78.716 155.562 78.9054L161.611 79.8698C163.325 80.1432 164.943 78.9704 165.216 77.2559L165.663 74.4525C165.806 73.5542 166.654 72.9399 167.552 73.0831L171.167 73.6595C173.424 74.0194 174.969 76.1493 174.609 78.4073L173.724 83.9564C173.364 86.2143 171.234 87.7584 168.976 87.3983L165.843 86.8988L165.143 91.2893C164.783 93.5469 162.653 95.091 160.396 94.731ZM155.325 80.3881C154.955 80.3289 154.605 80.5826 154.546 80.9535L153.201 89.3852C152.971 90.8258 153.957 92.1846 155.397 92.4143L160.632 93.2489C162.072 93.4786 163.431 92.4935 163.661 91.053L164.479 85.9213C164.545 85.5119 164.929 85.233 165.339 85.2983L169.213 85.916C170.653 86.1457 172.012 85.1606 172.242 83.7201L173.127 78.171C173.356 76.7304 172.371 75.3716 170.931 75.1419L167.316 74.5655C167.235 74.5526 167.159 74.6079 167.146 74.6889L166.699 77.4923C166.295 80.0245 163.907 81.756 161.374 81.3522L155.326 80.3878L155.325 80.3881Z" fill="black"/>
<path d="M164.951 86.7525L159.294 85.8505C158.884 85.7853 158.606 85.4006 158.671 84.9912C158.736 84.5818 159.121 84.3029 159.53 84.3682L165.187 85.2701C165.596 85.3354 165.875 85.72 165.81 86.1295C165.745 86.5389 165.36 86.8177 164.951 86.7525Z" fill="black"/>
<path d="M156.78 70.3109C155.592 70.1214 154.779 69.0005 154.969 67.8119C155.158 66.6233 156.279 65.8104 157.468 65.9999C158.656 66.1894 159.469 67.3107 159.28 68.4992C159.09 69.6878 157.969 70.5004 156.78 70.3109ZM157.231 67.4826C156.861 67.4234 156.51 67.6774 156.451 68.0486C156.392 68.4194 156.646 68.7697 157.017 68.8289C157.388 68.888 157.738 68.6341 157.797 68.2632C157.856 67.8917 157.602 67.5417 157.231 67.4826Z" fill="black"/>
<path d="M159.804 91.7325C158.615 91.543 157.803 90.422 157.992 89.2335C158.182 88.0449 159.303 87.2323 160.491 87.4218C161.68 87.6112 162.493 88.7322 162.303 89.9208C162.113 91.1094 160.992 91.922 159.804 91.7325ZM160.255 88.9041C159.884 88.845 159.534 89.0989 159.475 89.4698C159.416 89.8407 159.669 90.191 160.04 90.2501C160.411 90.3093 160.762 90.0553 160.821 89.6844C160.88 89.3136 160.626 88.9633 160.255 88.9041Z" fill="black"/>
<circle cx="183.843" cy="81.9358" r="6.51902" transform="rotate(2.38258 183.843 81.9358)" stroke="black" stroke-width="2.05864"/>
<circle cx="134.14" cy="71.6233" r="6.51902" transform="rotate(2.38258 134.14 71.6233)" stroke="black" stroke-width="2.05864"/>
</g>
<g clip-path="url(#clip2_1011_224)">
<path d="M265.29 41.6162L192.933 59.7881L191.012 52.1405C190.604 50.5161 191.59 48.8685 193.215 48.4605L259.689 31.766C261.314 31.3581 262.961 32.3442 263.369 33.9687L265.29 41.6162Z" fill="#9DC6FB"/>
<path d="M259.693 31.767L255.281 32.875C256.906 32.467 258.553 33.4532 258.961 35.0776L260.882 42.7251L265.294 41.617L263.373 33.9696C262.965 32.3451 261.318 31.359 259.693 31.767Z" fill="#80B4FB"/>
<path fill-rule="evenodd" clip-rule="evenodd" d="M209.02 111.466L275.495 94.7714C277.119 94.3634 278.105 92.7158 277.697 91.0914L265.263 41.582L192.906 59.7539L205.34 109.263C205.748 110.888 207.396 111.874 209.02 111.466ZM211.66 86.8522C214.679 86.5744 216.901 83.9017 216.624 80.8826C216.346 77.8635 213.673 75.6412 210.654 75.9189C207.635 76.1967 205.413 78.8694 205.69 81.8885C205.968 84.9076 208.641 87.1299 211.66 86.8522Z" fill="#F4FBFF"/>
<path d="M260.879 42.7262L273.313 92.2355C273.721 93.86 272.734 95.5075 271.11 95.9155L275.522 94.8075C277.147 94.3995 278.133 92.7519 277.725 91.1275L265.291 41.6181L260.879 42.7262Z" fill="#E4F6FF"/>
<path d="M254.398 36.8498C253.423 37.0945 252.831 38.0831 253.076 39.0578C253.321 40.0325 254.309 40.6242 255.284 40.3794C256.259 40.1346 256.85 39.1461 256.606 38.1713C256.361 37.1966 255.372 36.605 254.398 36.8498Z" fill="black"/>
<path d="M248.515 38.3263C247.54 38.5711 246.948 39.5596 247.193 40.5343C247.438 41.5091 248.427 42.1007 249.401 41.8559C250.376 41.6112 250.968 40.6226 250.723 39.6479C250.478 38.6732 249.49 38.0815 248.515 38.3263Z" fill="black"/>
<path d="M243.518 43.3325C244.493 43.0877 245.085 42.0992 244.84 41.1245C244.595 40.1498 243.607 39.5581 242.632 39.8029C241.657 40.0477 241.066 41.0362 241.31 42.0109C241.555 42.9856 242.544 43.5773 243.518 43.3325Z" fill="black"/>
<path d="M259.414 30.6754L192.939 47.3699C190.716 47.9284 189.361 50.1922 189.919 52.416L200.053 92.7667C200.204 93.3698 200.816 93.7359 201.419 93.5844C202.022 93.4329 202.388 92.8213 202.237 92.2183L194.298 60.6071L264.471 42.9837L266.781 52.1816C266.933 52.7846 267.544 53.1508 268.147 52.9993C268.75 52.8478 269.116 52.2362 268.965 51.6332L264.46 33.6957C263.902 31.4719 261.638 30.1169 259.414 30.6754ZM192.103 51.8676C191.847 50.8479 192.468 49.8098 193.488 49.5537L259.962 32.8592C260.982 32.6031 262.02 33.2245 262.276 34.2442L263.923 40.7998L193.749 58.4233L192.103 51.8676Z" fill="black"/>
<path d="M268.879 55.9094C268.276 56.0608 267.91 56.6725 268.061 57.2755L276.631 91.3998C276.887 92.4194 276.266 93.4571 275.247 93.7132L208.771 110.408C207.752 110.664 206.714 110.043 206.458 109.023L203.48 97.1666C203.329 96.5636 202.717 96.1974 202.114 96.3489C201.511 96.5004 201.145 97.112 201.296 97.715L204.274 109.572C204.832 111.795 207.096 113.15 209.32 112.592L275.795 95.897C278.019 95.3385 279.373 93.0751 278.815 90.8514L270.245 56.7271C270.093 56.124 269.482 55.7579 268.879 55.9094Z" fill="black"/>
<path d="M233.112 62.5011L227.971 63.7923C226.152 64.2491 225.047 66.094 225.504 67.9133L226.77 72.9533L222.965 73.9089C221.146 74.3657 220.041 76.2106 220.498 78.0299L221.867 83.4798C222.324 85.2988 224.169 86.4032 225.988 85.9464L229.538 85.0547C230.02 84.9338 230.312 84.4453 230.191 83.9637L229.5 81.2103C228.975 79.1214 230.243 77.003 232.332 76.4784L238.273 74.9864C239.04 74.7938 239.505 74.016 239.313 73.249L237.233 64.968C236.776 63.1484 234.931 62.0442 233.112 62.5011Z" fill="#5290DB"/>
<path d="M245.315 67.966L241.765 68.8576C241.283 68.9786 240.991 69.4671 241.112 69.9487L241.803 72.702C242.328 74.7909 241.06 76.9094 238.971 77.434L233.03 78.926C232.263 79.1186 231.798 79.8964 231.99 80.6633L234.07 88.9444C234.527 90.7633 236.372 91.8678 238.191 91.4109L243.332 90.1197C245.151 89.6629 246.256 87.818 245.799 85.9988L244.533 80.9588L248.338 80.0032C250.157 79.5464 251.262 77.7015 250.805 75.8822L249.436 70.4323C248.979 68.6136 247.134 67.5092 245.315 67.966Z" fill="#FC8C48"/>
<path d="M230.383 69.0931C231.15 68.9004 231.616 68.1224 231.423 67.3553C231.231 66.5883 230.453 66.1226 229.686 66.3153C228.919 66.5079 228.453 67.2859 228.646 68.053C228.838 68.82 229.616 69.2857 230.383 69.0931Z" fill="#EDF4FC"/>
<path d="M241.618 87.6048C242.385 87.4121 242.851 86.6341 242.658 85.8671C242.465 85.1 241.687 84.6343 240.92 84.827C240.153 85.0196 239.687 85.7976 239.88 86.5647C240.073 87.3318 240.851 87.7974 241.618 87.6048Z" fill="#EDF4FC"/>
<path d="M229.726 85.7806L226.175 86.6723C223.958 87.2292 221.7 85.8782 221.143 83.6606L219.775 78.2106C219.218 75.993 220.569 73.7358 222.786 73.1789L225.864 72.406L224.781 68.0943C224.224 65.8767 225.575 63.6195 227.793 63.0626L232.934 61.7714C235.152 61.2144 237.409 62.5655 237.966 64.7831L240.045 73.0641C240.339 74.2311 239.628 75.4191 238.461 75.7121L232.52 77.2041C230.836 77.6271 229.81 79.3414 230.233 81.0253L230.924 83.7787C231.145 84.6607 230.608 85.5591 229.726 85.7806ZM223.152 74.6348C221.737 74.9901 220.875 76.4302 221.231 77.845L222.599 83.2949C222.955 84.7098 224.395 85.5717 225.81 85.2164L229.36 84.3248C229.439 84.3048 229.488 84.2239 229.468 84.1444L228.776 81.3911C228.152 78.9041 229.667 76.373 232.154 75.7484L238.095 74.2564C238.459 74.165 238.681 73.7941 238.589 73.4299L236.509 65.1488C236.154 63.734 234.714 62.8721 233.299 63.2274L228.158 64.5186C226.743 64.8739 225.881 66.314 226.236 67.7288L227.502 72.7688C227.603 73.1709 227.359 73.5785 226.957 73.6795L223.152 74.6351L223.152 74.6348Z" fill="black"/>
<path d="M232.657 72.2489L227.101 73.6442C226.699 73.7451 226.292 73.5012 226.191 73.099C226.09 72.6969 226.334 72.2893 226.736 72.1883L232.291 70.793C232.693 70.692 233.101 70.936 233.202 71.3382C233.303 71.7403 233.059 72.1479 232.657 72.2489Z" fill="black"/>
<path d="M243.52 90.8498L238.378 92.141C236.161 92.698 233.904 91.3469 233.347 89.1293L231.267 80.8483C230.974 79.6813 231.685 78.4933 232.852 78.2002L238.792 76.7083C240.477 76.2853 241.502 74.571 241.08 72.8871L240.388 70.1337C240.167 69.2515 240.704 68.3535 241.586 68.1319L245.137 67.2403C247.354 66.6834 249.611 68.0344 250.168 70.252L251.537 75.7019C252.094 77.9195 250.743 80.1767 248.525 80.7336L245.448 81.5064L246.531 85.8185C247.088 88.0358 245.737 90.293 243.52 90.8498ZM233.218 79.6563C232.853 79.7478 232.631 80.1187 232.723 80.4829L234.803 88.764C235.158 90.1788 236.598 91.0408 238.013 90.6854L243.154 89.3943C244.569 89.039 245.431 87.5988 245.076 86.184L243.81 81.1441C243.709 80.7419 243.953 80.3343 244.355 80.2333L248.16 79.2777C249.575 78.9224 250.437 77.4823 250.081 76.0675L248.713 70.6175C248.357 69.2027 246.917 68.3407 245.503 68.6961L241.952 69.5877C241.873 69.6077 241.824 69.6885 241.844 69.768L242.536 72.5214C243.16 75.0083 241.645 77.5395 239.158 78.1641L233.218 79.6561L233.218 79.6563Z" fill="black"/>
<path d="M244.563 81.7255L239.008 83.1207C238.606 83.2217 238.198 82.9777 238.097 82.5756C237.996 82.1735 238.24 81.7658 238.642 81.6648L244.198 80.2696C244.6 80.1686 245.007 80.4126 245.108 80.8147C245.209 81.2168 244.965 81.6245 244.563 81.7255Z" fill="black"/>
<path d="M230.579 69.8235C229.411 70.1166 228.223 69.4056 227.93 68.2382C227.637 67.0709 228.348 65.8826 229.515 65.5895C230.683 65.2963 231.871 66.0077 232.164 67.175C232.457 68.3423 231.746 69.5303 230.579 69.8235ZM229.881 67.0456C229.517 67.1371 229.295 67.5083 229.386 67.8729C229.478 68.2372 229.849 68.4593 230.213 68.3679C230.577 68.2764 230.8 67.9052 230.708 67.5409C230.616 67.1761 230.245 66.9542 229.881 67.0456Z" fill="black"/>
<path d="M241.789 88.3349C240.622 88.628 239.434 87.917 239.141 86.7497C238.848 85.5823 239.559 84.3943 240.726 84.1012C241.893 83.8081 243.082 84.5191 243.375 85.6864C243.668 86.8537 242.957 88.0418 241.789 88.3349ZM241.092 85.5571C240.728 85.6485 240.505 86.0198 240.597 86.384C240.688 86.7483 241.06 86.9705 241.424 86.879C241.788 86.7875 242.01 86.4163 241.919 86.052C241.827 85.6878 241.456 85.4655 241.092 85.5571Z" fill="black"/>
<circle cx="211.251" cy="82.0731" r="6.51902" transform="rotate(-5.25645 211.251 82.0731)" stroke="black" stroke-width="2.05864"/>
</g>
<path fill-rule="evenodd" clip-rule="evenodd" d="M111.221 77.5346C106.677 77.3455 103.147 73.5085 103.336 68.9648L108.821 69.1952C108.758 70.71 109.935 71.9888 111.449 72.0518L127.904 72.7364C128.861 72.7763 129.726 72.3207 130.247 71.5969C130.55 71.176 130.737 70.6651 130.761 70.1081L136.246 70.3341C136.057 74.8778 132.22 78.4083 127.676 78.2192L111.221 77.5346Z" fill="#C4C4C4"/>
<path d="M103.336 68.9648C103.147 73.5087 106.677 77.3455 111.221 77.5346L127.676 78.2192C132.22 78.4083 136.057 74.878 136.246 70.3341M108.821 69.1952C108.758 70.7098 109.935 71.9888 111.449 72.0518L127.904 72.7364C129.419 72.7995 130.698 71.6227 130.761 70.1081" stroke="black" stroke-width="2.05864"/>
<path fill-rule="evenodd" clip-rule="evenodd" d="M189.078 91.9767C184.537 92.2204 180.658 88.7364 180.414 84.1953L185.896 83.9032C185.977 85.4172 187.271 86.5782 188.784 86.497L205.229 85.6144C206.186 85.563 207.003 85.0274 207.453 84.2574C207.715 83.8095 207.853 83.2831 207.823 82.7264L213.305 82.43C213.549 86.9711 210.065 90.8503 205.524 91.094L189.078 91.9767Z" fill="#C4C4C4"/>
<path d="M180.414 84.1953C180.658 88.7366 184.537 92.2204 189.078 91.9767L205.524 91.094C210.065 90.8503 213.549 86.9713 213.305 82.43M185.896 83.9032C185.977 85.417 187.27 86.5783 188.784 86.497L205.229 85.6144C206.743 85.5331 207.904 84.2401 207.823 82.7264" stroke="black" stroke-width="2.05864"/>
<path d="M38.9755 0L44.1007 13.8504L57.9511 18.9755L44.1007 24.1007L38.9755 37.9511L33.8504 24.1007L20 18.9755L33.8504 13.8504L38.9755 0Z" fill="#FFB531"/>
<path d="M6.93337 31L8.80601 36.3271L13.8667 38.2983L8.80601 40.2695L6.93337 45.5966L5.06073 40.2695L0 38.2983L5.06073 36.3271L6.93337 31Z" fill="#FFB531"/>
<path d="M287.933 52L289.806 57.3271L294.867 59.2983L289.806 61.2695L287.933 66.5966L286.061 61.2695L281 59.2983L286.061 57.3271L287.933 52Z" fill="#FFB531"/>
<defs>
<clipPath id="clip0_1011_224">
<rect width="76.8558" height="76.8558" fill="white" transform="translate(36 36.7617) rotate(-6.96416)"/>
</clipPath>
<clipPath id="clip1_1011_224">
<rect width="76.8558" height="76.8558" fill="white" transform="translate(127.664 29.457) rotate(9.05912)"/>
</clipPath>
<clipPath id="clip2_1011_224">
<rect width="76.8558" height="76.8558" fill="white" transform="translate(187.734 43.7188) rotate(-14.0978)"/>
</clipPath>
</defs>
</svg>
