<svg width="61" height="64" viewBox="0 0 61 64" fill="none" xmlns="http://www.w3.org/2000/svg">
<path d="M58.4911 45.594H55.9836C55.0565 45.594 54.3016 46.3404 54.2856 47.2636H47.8065C47.5881 46.6706 47.0496 46.2318 46.4006 46.16V41.9356C46.4006 41.4179 45.981 40.9981 45.4631 40.9981C44.9452 40.9981 44.5256 41.4179 44.5256 41.9356V46.149H38.7827V27.5093H44.5256V37.5607C44.5256 38.0785 44.9452 38.4982 45.4631 38.4982C45.981 38.4982 46.4006 38.0785 46.4006 37.5607V27.4983C47.2496 27.4045 47.9125 26.6833 47.9125 25.8098V17.8024C47.9125 16.9288 47.2497 16.2076 46.4006 16.1138V5.89563C47.2496 5.80175 47.9125 5.08062 47.9125 4.207V1.6995C47.9125 0.762375 47.15 0 46.2129 0H37.0954C36.1582 0 35.3958 0.762375 35.3958 1.6995V4.207C35.3958 5.08062 36.0586 5.80188 36.9077 5.89563V16.1136C36.0586 16.2074 35.3958 16.9286 35.3958 17.8023V25.8096C35.3958 26.6833 36.0586 27.4044 36.9077 27.4983V46.16C36.2586 46.2318 35.7201 46.6706 35.5018 47.2638H29.3266C28.703 47.2638 28.1955 46.7563 28.1955 46.1326V44.7096C29.0595 44.6304 29.7388 43.9024 29.7388 43.018V35.0105C29.7388 34.1261 29.0595 33.3983 28.1955 33.3189V25.5239C28.1955 19.6765 23.4383 14.9192 17.5909 14.9192H12.1701C11.5465 14.9192 11.039 14.4119 11.039 13.7881V5.8905C11.8715 5.78125 12.5168 5.06887 12.5168 4.20712V1.69963C12.5168 0.7625 11.7543 0.000125 10.8171 0.000125H1.69962C0.7625 0.000125 0 0.7625 0 1.69963V4.20712C0 5.099 0.691 5.83113 1.5655 5.89988V7.775C1.5655 8.29275 1.98513 8.7125 2.503 8.7125C3.02088 8.7125 3.4405 8.29275 3.4405 7.775V5.90662H9.16387V13.7882C9.16387 15.4459 10.5124 16.7944 12.17 16.7944H17.5907C22.4042 16.7944 26.3204 20.7105 26.3204 25.524V33.311H20.597V25.524C20.597 23.8664 19.2484 22.5179 17.5907 22.5179H12.17C7.3565 22.5179 3.4405 18.6017 3.4405 13.7884V11.775C3.4405 11.2572 3.02088 10.8375 2.503 10.8375C1.98513 10.8375 1.5655 11.2572 1.5655 11.775V13.7882C1.5655 19.6356 6.32275 24.3928 12.17 24.3928H17.5907C18.2145 24.3928 18.722 24.9003 18.722 25.5239V33.3236C17.8786 33.4228 17.222 34.1409 17.222 35.0104V36.3022H13.4558C13.347 36.0863 13.194 35.8968 13.0072 35.7465L14.2276 32.855C14.6556 31.8409 14.5479 30.6876 13.9394 29.7704C13.3309 28.853 12.3104 28.3054 11.2095 28.3054H8.89C7.78913 28.3054 6.76862 28.853 6.16012 29.7704C5.55162 30.6876 5.444 31.8409 5.87188 32.855L7.09237 35.7465C6.70975 36.0545 6.46387 36.5259 6.46387 37.0541V40.9739C6.46387 41.5021 6.70975 41.9736 7.09237 42.2815L5.87188 45.173C5.44388 46.1871 5.55162 47.3404 6.16012 48.2576C6.76862 49.175 7.78913 49.7226 8.89 49.7226H11.2098C12.3106 49.7226 13.3311 49.175 13.9396 48.2576C14.5481 47.3404 14.6557 46.1871 14.2279 45.173L13.0075 42.2815C13.1943 42.1313 13.3472 41.9416 13.456 41.7257H17.2222V43.0176C17.2222 43.8873 17.8789 44.6053 18.7222 44.7044V46.1321C18.7222 51.9795 23.4795 56.7366 29.3267 56.7366H35.6446C35.9124 57.1758 36.3722 57.4851 36.9076 57.5443V63.0626C36.9076 63.5804 37.3272 64.0001 37.8451 64.0001H45.463C45.9809 64.0001 46.4005 63.5804 46.4005 63.0626V57.5446C46.9359 57.4855 47.3956 57.1763 47.6634 56.7371H54.3161C54.4686 57.5187 55.158 58.1108 55.9836 58.1108H58.4911C59.4282 58.1108 60.1908 57.3484 60.1908 56.4113V47.2936C60.1906 46.3565 59.4282 45.594 58.4911 45.594ZM10.6419 4.03162H1.87513V1.87513H10.6419V4.03162ZM12.377 47.2216C12.1129 47.6198 11.6874 47.8481 11.2096 47.8481H8.89C8.41225 47.8481 7.98675 47.6198 7.72262 47.2216C7.45862 46.8235 7.41362 46.3428 7.5995 45.9025L8.971 42.653H11.1289L12.5004 45.9025C12.686 46.3428 12.6411 46.8235 12.377 47.2216ZM8.339 40.7781V37.2505H8.34912H11.7507H11.7609V40.7781H11.7507H8.34912H8.339ZM12.5002 32.126L11.1287 35.3755H8.97087L7.59937 32.126C7.41362 31.6859 7.4585 31.205 7.7225 30.8069C7.98662 30.4088 8.41213 30.1804 8.88988 30.1804H11.2096C11.6874 30.1804 12.1129 30.4088 12.377 30.8069C12.6411 31.2051 12.686 31.6859 12.5002 32.126ZM17.2221 39.8511H13.6359V38.1775H17.2221V39.8511ZM19.0971 35.186H27.8638V42.8425H19.0971V35.186ZM35.3956 54.8621H29.3266C24.5131 54.8621 20.5971 50.946 20.5971 46.1326V44.7176H26.3205V46.1326C26.3205 47.7902 27.669 49.1388 29.3266 49.1388H35.3956V54.8621ZM37.2706 1.87513H46.0374V4.03162H37.2706V1.87513ZM44.5255 5.90662V16.1028H38.7826V5.90662H44.5255ZM37.2706 17.9778H46.0374V25.6343H37.2706V17.9778ZM44.5255 62.1251H38.7826V57.5556H44.5255V62.1251ZM46.0374 55.6806H37.2706V48.0241H46.0374V55.6806ZM54.284 54.8621H47.9123V49.1388H54.284V54.8621ZM58.3156 56.2358H56.159V47.4691H58.3156V56.2358Z" fill="white"/>
</svg>
