<svg width="152" height="64" viewBox="0 0 152 64" fill="none" xmlns="http://www.w3.org/2000/svg">
<path d="M55.7331 29.8673V21.334H50.3997H45.0664V29.8673H50.3997H55.7331Z" fill="#EFC062"/>
<path d="M72.7995 21.334H67.4661H62.1328V29.8673H72.7995V21.334Z" fill="#EFC062"/>
<path d="M55.7331 48.0001V39.4668H50.3997H45.0664V48.0001H50.3997H55.7331Z" fill="#EA7E73"/>
<path d="M81.3346 39.4668H76.0013H70.668V48.0001H76.0013H81.3346V39.4668Z" fill="#EA7E73"/>
<path d="M55.7331 54.4004H50.3997H45.0664V62.9337H55.7331V54.4004Z" fill="#F7EEDA"/>
<path d="M81.3346 58.6671V54.4004H76.0013H70.668V62.9337H81.3346V58.6671Z" fill="#61DBDB"/>
<path d="M96.2695 58.6671V62.9337H106.936V54.4004H96.2695V58.6671Z" fill="#61DBDB"/>
<path d="M89.8659 21.334H84.5325H79.1992V29.8673H89.8659V21.334Z" fill="#EFC062"/>
<path d="M96.2656 21.334V29.8673H106.932V21.334H101.599H96.2656Z" fill="#EFC062"/>
<path d="M67.4646 1.06641H52.5312V8.53307H59.9979H67.4646V1.06641Z" fill="#F7EEDA"/>
<path d="M106.933 20.2667H102.667V14.9333C102.667 14.3435 102.189 13.8667 101.6 13.8667H61.0667V9.6H67.4667C68.0555 9.6 68.5333 9.1232 68.5333 8.53333V1.06667C68.5333 0.4768 68.0555 0 67.4667 0H52.5333C51.9445 0 51.4667 0.4768 51.4667 1.06667V8.53333C51.4667 9.1232 51.9445 9.6 52.5333 9.6H58.9333V13.8667H50.4C49.8112 13.8667 49.3333 14.3435 49.3333 14.9333V20.2667H45.0667C44.4779 20.2667 44 20.7435 44 21.3333V29.8667C44 30.4565 44.4779 30.9333 45.0667 30.9333H49.3333V38.4H45.0667C44.4779 38.4 44 38.8768 44 39.4667V48C44 48.5899 44.4779 49.0667 45.0667 49.0667H49.3333V53.3333H45.0667C44.4779 53.3333 44 53.8101 44 54.4V62.9333C44 63.5232 44.4779 64 45.0667 64H55.7333C56.3221 64 56.8 63.5232 56.8 62.9333V54.4C56.8 53.8101 56.3221 53.3333 55.7333 53.3333H51.4667V49.0667H55.7333C56.3221 49.0667 56.8 48.5899 56.8 48V39.4667C56.8 38.8768 56.3221 38.4 55.7333 38.4H51.4667V36.2667H74.9333V38.4H70.6667C70.0779 38.4 69.6 38.8768 69.6 39.4667V48C69.6 48.5899 70.0779 49.0667 70.6667 49.0667H74.9333V53.3333H70.6667C70.0779 53.3333 69.6 53.8101 69.6 54.4V62.9333C69.6 63.5232 70.0779 64 70.6667 64H81.3333C81.9221 64 82.4 63.5232 82.4 62.9333V59.7333H95.2V62.9333C95.2 63.5232 95.6779 64 96.2667 64H106.933C107.522 64 108 63.5232 108 62.9333V54.4C108 53.8101 107.522 53.3333 106.933 53.3333H96.2667C95.6779 53.3333 95.2 53.8101 95.2 54.4V57.6H82.4V54.4C82.4 53.8101 81.9221 53.3333 81.3333 53.3333H77.0667V49.0667H81.3333C81.9221 49.0667 82.4 48.5899 82.4 48V39.4667C82.4 38.8768 81.9221 38.4 81.3333 38.4H77.0667V35.2C77.0667 34.6101 76.5888 34.1333 76 34.1333H51.4667V30.9333H55.7333C56.3221 30.9333 56.8 30.4565 56.8 29.8667V21.3333C56.8 20.7435 56.3221 20.2667 55.7333 20.2667H51.4667V16H66.4V20.2667H62.1333C61.5445 20.2667 61.0667 20.7435 61.0667 21.3333V29.8667C61.0667 30.4565 61.5445 30.9333 62.1333 30.9333H72.8C73.3888 30.9333 73.8667 30.4565 73.8667 29.8667V21.3333C73.8667 20.7435 73.3888 20.2667 72.8 20.2667H68.5333V16H83.4667V20.2667H79.2C78.6112 20.2667 78.1333 20.7435 78.1333 21.3333V29.8667C78.1333 30.4565 78.6112 30.9333 79.2 30.9333H89.8667C90.4555 30.9333 90.9333 30.4565 90.9333 29.8667V21.3333C90.9333 20.7435 90.4555 20.2667 89.8667 20.2667H85.6V16H100.533V20.2667H96.2667C95.6779 20.2667 95.2 20.7435 95.2 21.3333V29.8667C95.2 30.4565 95.6779 30.9333 96.2667 30.9333H106.933C107.522 30.9333 108 30.4565 108 29.8667V21.3333C108 20.7435 107.522 20.2667 106.933 20.2667ZM53.6 2.13333H66.4V7.46667H53.6V2.13333ZM54.6667 61.8667H46.1333V55.4667H54.6667V61.8667ZM54.6667 46.9333H46.1333V40.5333H54.6667V46.9333ZM97.3333 55.4667H105.867V61.8667H97.3333V55.4667ZM80.2667 61.8667H71.7333V55.4667H80.2667V61.8667ZM80.2667 46.9333H71.7333V40.5333H80.2667V46.9333ZM54.6667 28.8H46.1333V22.4H54.6667V28.8ZM71.7333 28.8H63.2V22.4H71.7333V28.8ZM88.8 28.8H80.2667V22.4H88.8V28.8ZM105.867 28.8H97.3333V22.4H105.867V28.8Z" fill="#122333"/>
</svg>
