<svg width="152" height="96" viewBox="0 0 152 96" fill="none" xmlns="http://www.w3.org/2000/svg">
<path d="M29.9755 4.37891L35.1007 18.2293L48.9511 23.3544L35.1007 28.4796L29.9755 42.33L24.8504 28.4796L11 23.3544L24.8504 18.2293L29.9755 4.37891Z" fill="#FFB531"/>
<path d="M59.5349 0L61.4076 5.32709L66.4683 7.29829L61.4076 9.26948L59.5349 14.5966L57.6623 9.26948L52.6016 7.29829L57.6623 5.32709L59.5349 0Z" fill="#FFB531"/>
<path d="M47.783 63.9904C49.3536 65.561 49.3536 68.1073 47.783 69.6776C46.2125 71.2481 43.6662 71.2481 42.0957 69.6776C40.5252 68.1071 40.5252 65.5609 42.0957 63.9904C43.6661 62.4199 46.2125 62.4199 47.783 63.9904Z" fill="#FEB756"/>
<path d="M39.2504 78H49.25V87.9996H39.2504V78Z" fill="#A0E892"/>
<path d="M48.6392 46.7788C50.7869 48.9265 50.7869 52.4088 48.6392 54.5567C46.4914 56.7044 43.0092 56.7044 40.8613 54.5567C38.7136 52.4089 38.7136 48.9267 40.8613 46.7788C43.0089 44.631 46.4913 44.631 48.6392 46.7788Z" fill="#F25353"/>
<path d="M56.0018 40.5V87.5006C56.0018 91.5039 66.019 94.7491 78.3759 94.7491C90.7328 94.7491 100.75 91.5039 100.75 87.5008V40.5H56.0018Z" fill="#41C0F0"/>
<path d="M78.3759 63.5844C90.7329 63.5844 100.75 60.3392 100.75 56.3359V71.9141C100.75 75.9173 90.7328 79.1626 78.3759 79.1626C66.019 79.1626 56.0018 75.9173 56.0018 71.9141V56.3361C56.0018 60.3392 66.019 63.5844 78.3759 63.5844Z" fill="#D0E6EF"/>
<path d="M78.3759 47.747C66.019 47.747 56.0018 44.5017 56.0018 40.4985C56.0018 36.4953 66.019 33.25 78.3759 33.25C90.7328 33.25 100.75 36.4953 100.75 40.4985C100.75 44.5017 90.7328 47.747 78.3759 47.747Z" fill="#D0E6EF"/>
<path d="M54.5019 68.0824H51.1449L45.8237 73.4035C45.5796 73.6475 45.2598 73.7696 44.9399 73.7696C44.62 73.7696 44.3 73.6475 44.056 73.4035L38.3688 67.7162C37.8806 67.2281 37.8806 66.4366 38.3688 65.9485L44.056 60.2612C44.5441 59.7732 45.3356 59.7732 45.8237 60.2612L51.1449 65.5824H54.5018V51.9169H51.3831C51.136 53.2437 50.4974 54.4648 49.5225 55.4399C48.2066 56.7558 46.4782 57.4135 44.7497 57.4135C43.0212 57.4135 41.2928 56.7555 39.977 55.4399C38.7021 54.1649 38.0001 52.4699 38.0001 50.6669C38.0001 48.8639 38.7023 47.169 39.977 45.894C41.2518 44.619 42.9469 43.9171 44.7497 43.9171C46.5526 43.9171 48.2477 44.6192 49.5225 45.894C50.4975 46.869 51.136 48.09 51.3831 49.4169H54.5018V40.4982C54.5018 37.9385 57.0801 35.7546 61.9582 34.1832C66.3284 32.7754 72.1145 32 78.2509 32C84.3873 32 90.1735 32.7754 94.5435 34.1832C99.4216 35.7547 102 37.9385 102 40.4982V87.499C102 90.0587 99.4216 92.2426 94.5435 93.814C90.1734 95.2221 84.3873 95.9974 78.2509 95.9974C72.1145 95.9974 66.3284 95.222 61.9582 93.8141C57.0802 92.2426 54.5018 90.0589 54.5018 87.4991V84.2477H50.5019V87.9976C50.5019 88.6879 49.9423 89.2476 49.2519 89.2476H39.2523C38.5619 89.2476 38.0023 88.6879 38.0023 87.9976V77.998C38.0023 77.3077 38.5619 76.748 39.2523 76.748H49.2519C49.9423 76.748 50.5019 77.3077 50.5019 77.998V81.7479H54.5018V68.0824H54.5019ZM44.9398 62.9129L41.0201 66.8324L44.9398 70.7519L48.8594 66.8324L44.9398 62.9129ZM47.7549 47.6619C46.9521 46.8591 45.885 46.417 44.7497 46.417C43.6145 46.417 42.5474 46.8591 41.7446 47.6619C40.942 48.4646 40.4999 49.5316 40.4999 50.6669C40.4999 51.8021 40.942 52.8692 41.7446 53.672C43.4016 55.329 46.0979 55.329 47.7547 53.672C48.5575 52.8692 48.9995 51.8021 48.9995 50.6669C48.9995 49.5317 48.5575 48.4646 47.7549 47.6619ZM48.0021 79.248H40.5024V86.7477H48.0021V79.248ZM93.777 36.5628C89.6479 35.2325 84.134 34.5 78.251 34.5C72.368 34.5 66.8541 35.2326 62.725 36.5628C58.5007 37.9237 57.0019 39.5335 57.0019 40.4984C57.0019 41.4635 58.5009 43.0732 62.725 44.4341C66.854 45.7644 72.368 46.497 78.251 46.497C84.134 46.497 89.648 45.7644 93.777 44.4342C98.0011 43.0732 99.5001 41.4634 99.5001 40.4982C99.5001 39.5335 98.0011 37.9236 93.777 36.5628ZM99.5001 44.4914C98.2785 45.3641 96.6202 46.1444 94.5436 46.8135C90.1735 48.2214 84.3874 48.9967 78.251 48.9967C72.1146 48.9967 66.3285 48.2214 61.9584 46.8135C59.8817 46.1444 58.2234 45.364 57.0019 44.4914V49.4169H62.3141C63.0045 49.4169 63.5641 49.9766 63.5641 50.6669C63.5641 51.3571 63.0045 51.9169 62.3141 51.9169H57.0019V56.1654C57.0019 57.1304 58.5009 58.7401 62.725 60.101C66.8541 61.4312 72.3679 62.1637 78.251 62.1637C84.1341 62.1637 89.6479 61.4311 93.777 60.101C98.0013 58.7401 99.5001 57.1304 99.5001 56.1654V44.4914V44.4914ZM99.5001 60.1582C98.2785 61.031 96.6202 61.8112 94.5436 62.4802C90.1735 63.8882 84.3874 64.6635 78.251 64.6635C72.1146 64.6635 66.3285 63.8881 61.9584 62.4802C59.8817 61.8112 58.2234 61.0309 57.0019 60.1582V65.5824H62.8141C63.5045 65.5824 64.0641 66.1421 64.0641 66.8324C64.0641 67.5226 63.5045 68.0824 62.8141 68.0824H57.0019V71.8322C57.0019 72.7974 58.5009 74.4071 62.725 75.768C66.854 77.0982 72.368 77.8307 78.251 77.8307C84.134 77.8307 89.648 77.0981 93.777 75.768C98.0013 74.4071 99.5001 72.7974 99.5001 71.8322V60.1582V60.1582ZM57.0018 87.4992C57.0018 88.4642 58.5008 90.074 62.7249 91.4349C66.8539 92.7651 72.3679 93.4976 78.2509 93.4976C84.1339 93.4976 89.6479 92.765 93.7769 91.4349C98.0011 90.0739 99.5 88.4641 99.5 87.4992V75.8252C98.2784 76.698 96.6201 77.4782 94.5435 78.1474C90.1734 79.5554 84.3873 80.3306 78.2509 80.3306C72.1145 80.3306 66.3284 79.5552 61.9582 78.1474C59.8816 77.4782 58.2233 76.6979 57.0018 75.8252V81.748H62.1265C62.8169 81.748 63.3765 82.3077 63.3765 82.998C63.3765 83.6882 62.8169 84.248 62.1265 84.248H57.0018V87.4992V87.4992Z" fill="black"/>
<path d="M63.9999 41.7497C63.3095 41.7497 62.7499 41.19 62.7499 40.4997C62.7499 40.4898 62.75 40.4722 62.7503 40.4623C62.7667 39.7722 63.3413 39.2285 64.0297 39.2425C64.7145 39.2588 65.2578 39.8231 65.2499 40.5061C65.2463 41.1936 64.6882 41.7497 63.9999 41.7497Z" fill="black"/>
<path d="M80.3751 38.8749C76.1837 38.8749 72.2239 39.1541 69.2246 39.6613C69.1541 39.6731 69.084 39.679 69.0147 39.679C68.4159 39.679 67.8869 39.2473 67.7837 38.6371C67.6686 37.9565 68.1271 37.3114 68.8079 37.1963C71.9404 36.6666 76.0484 36.375 80.375 36.375C81.0654 36.375 81.625 36.9348 81.625 37.625C81.625 38.3153 81.0655 38.8749 80.3751 38.8749Z" fill="black"/>
</svg>
