<svg width="64" height="64" viewBox="0 0 64 64" fill="none" xmlns="http://www.w3.org/2000/svg">
<g clip-path="url(#clip0_1885_12021)">
<path d="M10.5312 45.6843C11.9166 45.6843 13.2311 44.8968 13.8565 43.5583C14.1438 42.9435 14.4289 42.3267 14.7129 41.7091L15.1689 41.839C15.2548 41.8635 15.3411 41.8751 15.4263 41.8751C15.8345 41.8751 16.2101 41.6064 16.3274 41.1942C16.4693 40.6962 16.1805 40.1776 15.6826 40.0357L15.5004 39.9839C15.7696 39.3899 16.0373 38.7947 16.3034 38.1983L16.674 38.3038C16.7599 38.3283 16.8463 38.34 16.9314 38.34C17.3397 38.34 17.7153 38.0712 17.8325 37.6591C17.9744 37.1611 17.6857 36.6425 17.1878 36.5006L17.0705 36.4672C17.3327 35.871 17.5937 35.274 17.8527 34.6757L18.179 34.7687C18.2649 34.7932 18.3513 34.8048 18.4364 34.8048C18.8447 34.8048 19.2203 34.5361 19.3375 34.1239C19.4794 33.6259 19.1907 33.1073 18.6928 32.9654L18.5992 32.9388C18.8544 32.3404 19.1074 31.7409 19.3593 31.1411L19.684 31.2336C19.7699 31.2581 19.8563 31.2697 19.9414 31.2697C20.3497 31.2697 20.7253 31.0009 20.8425 30.5888C20.9844 30.0908 20.6957 29.5722 20.1978 29.4303L20.0852 29.3982C20.3334 28.7975 20.5799 28.1964 20.8248 27.5947L21.1892 27.6984C21.275 27.7229 21.3614 27.7345 21.4466 27.7345C21.8548 27.7345 22.2304 27.4658 22.3477 27.0537C22.4896 26.5557 22.2008 26.037 21.7029 25.8951L21.5308 25.8461C22.2866 23.9585 23.0246 22.0668 23.7438 20.1734C25.2237 20.7522 26.7077 21.3157 28.1945 21.861C28.5572 21.9942 28.9313 22.0584 29.3005 22.0584C30.3172 22.0584 31.2962 21.5721 31.8961 20.7062C33.5929 18.2572 34.7511 15.5366 35.3383 12.6196C35.6211 11.2132 34.9089 9.78718 33.6061 9.15192C26.7761 5.82415 19.6983 2.81126 12.5692 0.197246C11.2082 -0.302882 9.68648 0.171871 8.86923 1.35163C7.54484 3.26139 6.54521 5.3429 5.89783 7.53829C5.75133 8.03492 6.03521 8.5563 6.53184 8.70267C7.02859 8.84867 7.54984 8.56517 7.69609 8.06854C8.28685 6.06553 9.19985 4.16502 10.4101 2.41963C10.7411 1.94176 11.363 1.75151 11.923 1.95726C12.9896 2.34838 14.0549 2.74964 15.1186 3.15839C13.4558 6.19266 12.0945 9.3903 11.0605 12.6911C10.0282 12.2077 9.00048 11.7178 7.9791 11.2201C7.80122 11.1337 7.64909 11.0123 7.52697 10.8594C7.20372 10.4551 6.61396 10.3889 6.20934 10.7122C5.80483 11.0353 5.73883 11.6253 6.06209 12.0298C6.35559 12.3971 6.73521 12.7003 7.15859 12.9061C8.58197 13.5998 10.0169 14.279 11.4606 14.9447C10.3491 17.2941 9.26085 19.664 8.1986 22.0489L7.83185 21.9444C7.33447 21.8025 6.81521 22.0911 6.67334 22.5891C6.53146 23.0871 6.82021 23.6058 7.31809 23.7476L7.43297 23.7804C7.17122 24.3769 6.91097 24.9741 6.65246 25.5723L6.32684 25.4795C5.82958 25.3376 5.31021 25.6263 5.16833 26.1243C5.02645 26.6223 5.31521 27.1409 5.81308 27.2828L5.90696 27.3095C5.65208 27.9083 5.39846 28.5074 5.14708 29.1073L4.82183 29.0147C4.32433 28.8728 3.8052 29.1614 3.66332 29.6594C3.52145 30.1574 3.8102 30.6761 4.30807 30.8179L4.4227 30.8506C4.17482 31.4514 3.92907 32.0528 3.68482 32.6546L3.31694 32.5498C2.81957 32.4079 2.30019 32.6966 2.15844 33.1946C2.01656 33.6926 2.30531 34.2112 2.80319 34.3531L2.98044 34.4036C2.73944 35.0066 2.50031 35.61 2.26319 36.2135L1.81181 36.0848C1.31456 35.943 0.795179 36.2316 0.653304 36.7296C0.511428 37.2276 0.800179 37.7462 1.29806 37.8881L1.57893 37.9681C1.53868 38.0721 1.49793 38.1761 1.45781 38.2801C0.740929 40.1401 1.61643 42.2087 3.45082 42.9896L9.07973 45.386C9.55523 45.5883 10.0475 45.6843 10.5312 45.6843ZM33.4994 12.2497C32.9629 14.9146 31.9046 17.4005 30.3541 19.6384C30.023 20.1164 29.4008 20.307 28.84 20.1007C27.7735 19.7096 26.7085 19.3085 25.6452 18.8997C27.3077 15.8662 28.669 12.6686 29.7035 9.36693C30.7352 9.85005 31.7626 10.3397 32.7839 10.8373C33.3199 11.0987 33.614 11.6796 33.4994 12.2497ZM16.8805 3.84414C20.6203 5.31828 24.3324 6.89841 27.988 8.57242C26.9578 11.9174 25.5801 15.154 23.8833 18.2144C20.1419 16.7396 16.4299 15.1595 12.776 13.4861C13.8058 10.1418 15.1835 6.90541 16.8805 3.84414ZM13.167 15.723C16.0815 17.0375 19.0304 18.2929 21.9998 19.483C21.2585 21.4346 20.4973 23.3844 19.717 25.3298L10.0201 22.5678C11.0457 20.2702 12.0956 17.9871 13.167 15.723ZM9.25348 24.2989L19.0103 27.0779C18.7652 27.6795 18.5184 28.2808 18.2698 28.8812L8.47172 26.0904C8.7306 25.4925 8.9911 24.8953 9.25348 24.2989ZM7.72509 27.8274L17.5429 30.6238C17.2906 31.2237 17.0366 31.8228 16.781 32.4211L6.96409 29.6249C7.21597 29.025 7.46984 28.426 7.72509 27.8274ZM6.23771 31.3676L16.033 34.1576C15.7736 34.7556 15.5123 35.3526 15.2496 35.9487L5.49871 33.1713C5.74346 32.5697 5.98946 31.9683 6.23771 31.3676ZM4.79358 34.92L14.4814 37.6793C14.2148 38.2755 13.9469 38.8706 13.6771 39.4645L4.07545 36.7296C4.31295 36.1262 4.55233 35.523 4.79358 34.92ZM3.20782 38.9545C3.26832 38.7976 3.32969 38.6409 3.39044 38.4841L12.8885 41.1894C12.646 41.7154 12.4026 42.2406 12.1577 42.7645C11.7437 43.6504 10.7149 44.0439 9.81473 43.6609L4.18582 41.2645C3.28582 40.8815 2.85632 39.8667 3.20782 38.9545Z" fill="white"/>
<path d="M49.8579 58.1521C49.8445 57.9686 49.7774 57.7931 49.6652 57.6474L47.4877 54.8249C47.1715 54.415 46.5829 54.3388 46.1727 54.6553C45.7628 54.9715 45.6866 55.5603 46.003 55.9702L48.0083 58.5693L48.2374 61.7172L45.2503 60.6966L31.0681 42.3153C31.4694 41.9516 31.9149 41.5745 32.4063 41.1955C32.8966 40.8172 33.3733 40.4826 33.8261 40.1872L43.7843 53.0953C43.969 53.3348 44.2465 53.4602 44.5271 53.4602C44.7271 53.4602 44.9286 53.3964 45.0991 53.2649C45.509 52.9487 45.5851 52.3599 45.2688 51.9499L35.4521 39.2251C36.6515 38.5869 37.4451 38.3204 37.4541 38.3174C39.173 37.7726 40.134 35.9291 39.5965 34.208C39.0567 32.4795 37.211 31.5128 35.4828 32.0524C35.3472 32.0948 32.1178 33.1227 28.3944 35.9954C24.6693 38.8694 22.8573 41.7312 22.7821 41.8513C21.82 43.3887 22.2858 45.421 23.8208 46.3817C24.3542 46.7155 24.9604 46.8805 25.5648 46.8805C26.2758 46.8805 26.984 46.6521 27.5683 46.2012C27.8754 45.9642 28.1364 45.6761 28.3379 45.3541C28.3457 45.3422 28.8048 44.6419 29.7253 43.6445L43.9383 62.0653C44.0505 62.211 44.2033 62.3203 44.3774 62.3798L48.9724 63.9498C49.0713 63.9837 49.1737 64.0002 49.2754 64.0002C49.4799 64.0002 49.6818 63.9333 49.8482 63.805C50.0973 63.6127 50.2334 63.3085 50.2106 62.9946L49.8579 58.1521ZM26.7547 44.3496C26.6653 44.4924 26.5537 44.6159 26.4229 44.7167C26.4228 44.7167 26.4227 44.7169 26.4227 44.7169C25.9598 45.074 25.3137 45.1041 24.8154 44.7922C24.1569 44.3801 23.9578 43.507 24.3715 42.8457C24.4396 42.737 26.0777 40.1508 29.5397 37.4798C33.0003 34.8098 35.9191 33.8803 36.0418 33.842C36.1811 33.7985 36.3222 33.7778 36.4611 33.7778C37.0612 33.7778 37.6187 34.1645 37.8069 34.7669C38.0376 35.5053 37.6252 36.2962 36.8817 36.5319C36.776 36.5662 34.2588 37.3982 31.2613 39.7108C30.4503 40.3366 29.7527 40.9575 29.1642 41.5325C29.1614 41.5351 29.1588 41.5377 29.1561 41.5403C27.5523 43.1083 26.7673 44.3297 26.7547 44.3496Z" fill="white"/>
<path d="M42.7757 31.0393C42.8739 31.3382 43.1157 31.5677 43.419 31.6507C43.5005 31.673 43.5835 31.6838 43.6662 31.6838C43.8907 31.6838 44.1109 31.6031 44.2839 31.4515L46.9306 29.1327C47.0689 29.0114 47.1686 28.8521 47.2172 28.6746L51.5793 12.706C52.2736 13.0471 52.6581 13.3091 52.6617 13.3115C53.1231 13.6387 53.6554 13.796 54.1832 13.7959C55.0069 13.7959 55.8195 13.4127 56.3331 12.6946C56.7431 12.1216 56.9055 11.4232 56.7901 10.728C56.6749 10.0328 56.2957 9.4242 55.723 9.01432C55.6376 8.95332 53.5969 7.50907 50.264 6.59869C46.9308 5.68818 44.4394 5.89431 44.3354 5.90343C43.6338 5.96518 42.9975 6.29631 42.544 6.83569C42.0894 7.37619 41.8732 8.06069 41.935 8.76282C42.0314 9.8582 42.8073 10.7883 43.8653 11.0775H43.8654C44.1662 11.1596 44.4775 11.1871 44.7778 11.1608C44.7869 11.1601 45.2528 11.1298 46.0241 11.1888L41.662 27.1568C41.6135 27.3343 41.6184 27.5221 41.6759 27.6969L42.7757 31.0393ZM44.6263 9.29233C44.5357 9.30033 44.4454 9.29245 44.3594 9.26895C44.0545 9.18558 43.8308 8.9162 43.8028 8.5987C43.785 8.39657 43.8475 8.19907 43.979 8.04282C44.111 7.88594 44.2959 7.78957 44.5 7.77169C44.5222 7.76944 46.7578 7.58507 49.7698 8.40782C52.7821 9.2307 54.6134 10.5262 54.6317 10.5395C54.7975 10.6581 54.9071 10.8341 54.9405 11.0351C54.9739 11.2361 54.927 11.4381 54.8082 11.604C54.5646 11.9447 54.0882 12.0248 53.7417 11.779C53.6743 11.7318 52.0608 10.6155 49.368 9.87996C47.4512 9.35633 45.8868 9.27845 45.1261 9.27845C44.8114 9.27833 44.634 9.29158 44.6263 9.29233ZM47.8953 11.4548C48.2063 11.5188 48.5333 11.5955 48.8737 11.6886C49.2133 11.7813 49.5331 11.8812 49.8327 11.984L45.4828 27.9083L44.1139 29.1076L43.5452 27.3791L47.8953 11.4548Z" fill="white"/>
<path d="M28.8577 53.4987L27.9894 53.3303L27.9836 52.9462C27.9758 52.4333 27.5577 52.023 27.0464 52.023C27.0417 52.023 27.0368 52.023 27.0319 52.0231C26.5173 52.0308 26.1062 52.4521 26.1092 52.9657L24.9488 52.7407L24.9429 52.3566C24.9352 51.8437 24.517 51.4333 24.0058 51.4333C24.001 51.4333 23.9962 51.4333 23.9913 51.4334C23.4767 51.4412 23.0655 51.8624 23.0685 52.3761L21.9083 52.1511L21.9024 51.7669C21.8946 51.2492 21.4748 50.8353 20.9508 50.8438C20.4361 50.8516 20.025 51.2728 20.028 51.7864L17.609 51.3174L17.9691 49.4602C18.0164 49.2161 17.9649 48.9632 17.8257 48.7571C17.6866 48.5509 17.4714 48.4086 17.2272 48.3613L14.397 47.8125C13.195 47.5793 11.9736 47.8284 10.9583 48.5138C9.9432 49.1992 9.25582 50.2388 9.02269 51.4411L8.83081 52.4311C8.78344 52.6752 8.83494 52.9281 8.97407 53.1342C9.11319 53.3402 9.32844 53.4827 9.57257 53.53L11.2702 53.8591C11.4271 53.8895 11.5628 53.9792 11.6523 54.1118C11.7418 54.2445 11.7745 54.4037 11.7438 54.5607C11.6811 54.8847 11.3671 55.0973 11.0423 55.0345L9.34469 54.7053C9.10044 54.658 8.84756 54.7096 8.64156 54.8487C8.43556 54.9878 8.29319 55.2032 8.24581 55.4473L8.05393 56.4374C7.82081 57.6396 8.06993 58.8609 8.75519 59.876C9.44057 60.8911 10.4802 61.5785 11.6825 61.8116L14.5127 62.3604C14.573 62.3721 14.6331 62.3778 14.6922 62.3778C15.1322 62.3778 15.5247 62.0665 15.6116 61.6185L15.9717 59.761L20.1613 60.5734L20.1671 60.9575C20.1749 61.4704 20.593 61.8808 21.1043 61.8808C21.109 61.8808 21.1139 61.8808 21.1188 61.8806C21.6334 61.8729 22.0445 61.4516 22.0415 60.938L23.2019 61.163L23.2078 61.5471C23.2155 62.06 23.6337 62.4704 24.1449 62.4704C24.1497 62.4704 24.1545 62.4704 24.1594 62.4703C24.674 62.4625 25.0852 62.0413 25.0822 61.5276L26.2424 61.7526L26.2483 62.1368C26.256 62.6496 26.6742 63.06 27.1854 63.06C27.1902 63.06 27.195 63.06 27.1999 63.0599C27.7177 63.052 28.1309 62.6259 28.1231 62.1083L28.1216 62.0079C28.8242 61.9783 29.5073 61.7578 30.1051 61.3543C30.9566 60.7794 31.5332 59.9074 31.7287 58.8989L31.9017 58.007C32.0972 56.9984 31.8883 55.974 31.3134 55.1226C30.7383 54.2708 29.8662 53.6942 28.8577 53.4987ZM12.0392 59.9709C11.3286 59.833 10.7141 59.4267 10.3089 58.8267C9.90382 58.2267 9.75669 57.5049 9.89457 56.7942L9.90795 56.7246L10.6852 56.8752C12.0241 57.1352 13.3248 56.2568 13.5845 54.9178C13.7102 54.2692 13.5758 53.6105 13.2061 53.0628C12.8363 52.5152 12.2756 52.1443 11.627 52.0186L10.8497 51.8678L10.8632 51.7981C11.001 51.0874 11.4073 50.4729 12.0072 50.0678C12.6075 49.6627 13.3291 49.5156 14.0397 49.6533L15.9495 50.0236L13.9488 60.3411L12.0392 59.9709ZM16.3285 57.9202L17.1171 53.8535L17.252 53.1582L20.0566 53.7021L20.1321 58.6579L16.3285 57.9202ZM22.0128 59.0225L21.9373 54.0667L23.0971 54.2916L23.1726 59.2474L22.0128 59.0225ZM25.0534 59.6121L24.9779 54.6563L26.1378 54.8812L26.2133 59.837L25.0534 59.6121ZM30.0607 57.6497L29.8877 58.5416C29.7874 59.0585 29.4921 59.5054 29.0557 59.8C28.7647 59.9965 28.4342 60.1074 28.0928 60.1311L28.0184 55.2457L28.5007 55.3392C29.0177 55.4395 29.4646 55.735 29.7592 56.1713C30.0538 56.6079 30.1609 57.1329 30.0607 57.6497Z" fill="white"/>
<path d="M61.0095 25.9446L60.1263 25.4576C59.673 25.2076 59.1028 25.3725 58.8527 25.8257L58.0176 27.3399C57.9404 27.4799 57.8132 27.5814 57.6596 27.6259C57.5061 27.6702 57.3443 27.6522 57.2043 27.575C57.0643 27.4977 56.9627 27.3707 56.9184 27.217C56.8741 27.0634 56.8921 26.9017 56.9692 26.7617L57.8043 25.2475C58.0543 24.7941 57.8896 24.2238 57.4362 23.9738L56.5532 23.4868C54.3394 22.2659 51.5449 23.0736 50.3237 25.2876L48.9314 27.812C48.6814 28.2654 48.8461 28.8356 49.2995 29.0856L50.9563 29.9994L48.8953 33.7364L48.528 33.6239C48.0328 33.4721 47.5086 33.7506 47.357 34.2456C47.2061 34.7378 47.4806 35.2584 47.9703 35.4135L47.3995 36.4485L47.0323 36.336C46.5368 36.1842 46.0129 36.4628 45.8613 36.9578C45.7104 37.4499 45.9849 37.9705 46.4745 38.1257L45.9038 39.1607L45.5366 39.0482C45.0411 38.8962 44.5174 39.1749 44.3656 39.6699C44.2139 40.1649 44.4924 40.6893 44.9875 40.8409L45.0816 40.8698C44.8937 41.5477 44.8954 42.2659 45.0956 42.9587C45.3809 43.9457 46.0334 44.7625 46.933 45.2586L47.7285 45.6973C48.3053 46.0155 48.9395 46.1773 49.5804 46.1773C49.939 46.1773 50.2999 46.1267 50.654 46.0243C51.641 45.739 52.4578 45.0865 52.9538 44.1868L53.3809 43.4123L53.7482 43.5248C53.8397 43.553 53.9323 43.5662 54.0232 43.5662C54.4243 43.5662 54.7956 43.3066 54.9192 42.9031C55.0701 42.4109 54.7956 41.8903 54.3059 41.7352L54.8767 40.7002L55.2439 40.8127C55.3354 40.8408 55.4281 40.8541 55.5189 40.8541C55.9201 40.8541 56.2913 40.5944 56.4149 40.1909C56.5658 39.6988 56.2913 39.1782 55.8017 39.023L56.3724 37.988L56.7396 38.1005C56.8311 38.1287 56.9237 38.1419 57.0146 38.1419C57.4157 38.1419 57.7869 37.8823 57.9106 37.4788C58.0614 36.9867 57.7869 36.466 57.2974 36.3109L58.4876 34.1531L60.1441 35.0668C60.2876 35.1459 60.443 35.1835 60.596 35.1835C60.9265 35.1835 61.2468 35.0084 61.4177 34.6986L62.8101 32.1743C64.0311 29.9602 63.2234 27.1656 61.0095 25.9446ZM52.598 30.905L56.8457 33.2476L55.4659 35.7494L50.7269 34.2976L52.598 30.905ZM51.3119 43.2812C51.0577 43.7422 50.639 44.0767 50.1331 44.223C49.6276 44.3691 49.0949 44.3096 48.6339 44.0553L47.8384 43.6166C47.3774 43.3623 47.043 42.9437 46.8968 42.4378C46.7993 42.1006 46.7953 41.7518 46.8775 41.4198L51.5492 42.8509L51.3119 43.2812ZM52.4744 41.1736L47.7354 39.7218L48.306 38.6873L53.045 40.1391L52.4744 41.1736ZM53.9702 38.4614L49.2311 37.0097L49.8016 35.9752L54.5407 37.4269L53.9702 38.4614ZM61.1683 31.2686L60.2287 32.972L51.0259 27.8964L51.9654 26.193C52.6872 24.8842 54.339 24.407 55.6476 25.1286L55.7097 25.1628L55.3273 25.8561C55.0082 26.4346 54.9336 27.1029 55.1171 27.7376C55.3006 28.3725 55.7202 28.8977 56.2987 29.2167C56.8771 29.5357 57.5452 29.6104 58.1802 29.427C58.8149 29.2435 59.3402 28.8237 59.6593 28.2452L60.0417 27.552L60.104 27.5862C61.4126 28.3082 61.89 29.96 61.1683 31.2686Z" fill="white"/>
</g>
<defs>
<clipPath id="clip0_1885_12021">
<rect width="64" height="64" fill="white"/>
</clipPath>
</defs>
</svg>
