<svg width="64" height="64" viewBox="0 0 64 64" fill="none" xmlns="http://www.w3.org/2000/svg">
<path d="M33.8015 31.7334L19.0865 27.4598C15.8923 26.5322 14.0551 23.1908 14.9827 19.9968L19.2563 5.28178C20.184 2.08765 23.5253 0.250404 26.7193 1.17803L41.4343 5.45165C44.6285 6.37928 46.4657 9.72066 45.5381 12.9147L41.2645 27.6297C40.3368 30.8238 36.9956 32.661 33.8015 31.7334Z" fill="#F26666"/>
<path d="M41.4328 5.45166L36.0713 3.89453C38.7693 5.11428 40.2308 8.16241 39.3811 11.0885L35.0894 25.8655C34.2326 28.8162 31.3244 30.6119 28.3672 30.1558L33.7999 31.7335C36.9941 32.6612 40.3353 30.8239 41.2629 27.6298L45.5366 12.9148C46.4642 9.72066 44.6268 6.37928 41.4328 5.45166Z" fill="#DD5B5B"/>
<path d="M26.3237 60.5361L11.1973 62.983C7.91394 63.5141 4.82169 61.283 4.29056 57.9996L1.84381 42.8731C1.31269 39.5897 3.54381 36.4975 6.82719 35.9663L21.9536 33.5196C25.2369 32.9885 28.3292 35.2196 28.8603 38.503L31.3071 53.6293C31.8382 56.9128 29.6071 60.0051 26.3237 60.5361Z" fill="#73E7E6"/>
<path d="M31.3059 53.6293L28.8592 38.503C28.328 35.2196 25.2358 32.9885 21.9524 33.5196L16.3008 34.4337C19.3239 34.3246 22.0259 36.4798 22.5214 39.5433L24.9943 54.831C25.4368 57.5663 23.9813 60.169 21.5979 61.3002L26.3225 60.536C29.6059 60.005 31.837 56.9127 31.3059 53.6293Z" fill="#65D1CB"/>
<path d="M56.2127 61.4108H40.8896C37.5636 61.4108 34.8672 58.7146 34.8672 55.3885V40.0653C34.8672 36.7393 37.5634 34.043 40.8896 34.043H56.2127C59.5387 34.043 62.2351 36.7392 62.2351 40.0653V55.3883C62.2349 58.7145 59.5387 61.4108 56.2127 61.4108Z" fill="#FF9F40"/>
<path d="M56.2116 34.043H51.3047C53.9898 34.6803 55.9878 37.0922 55.9878 39.9722V55.4815C55.9878 58.3615 53.9898 60.7733 51.3047 61.4107H56.2116C59.5376 61.4107 62.2339 58.7145 62.2339 55.3883V40.0653C62.2338 36.7392 59.5376 34.043 56.2116 34.043Z" fill="#F49138"/>
<path d="M31.6384 23.1944C32.1718 23.3836 33.0125 23.2874 33.1803 22.8149C33.1965 22.7691 33.1975 22.718 33.2039 22.6516L33.6646 12.0206C33.6898 11.5147 33.2015 11.1012 32.6224 10.8956C32.0584 10.6955 31.4188 10.7087 31.1194 11.1172L24.7753 19.6604C24.7384 19.7159 24.7015 19.7715 24.6906 19.802C24.5175 20.2896 25.1149 20.8792 25.6484 21.0686C25.9838 21.1876 26.2806 21.1729 26.4596 20.9104L27.7583 19.0887L31.2486 20.3275L31.1084 22.5602C31.0818 22.8767 31.303 23.0754 31.6384 23.1944ZM28.7215 17.68L31.7081 13.4715L31.3735 18.6212L28.7215 17.68Z" fill="black"/>
<path d="M19.4882 44.7107C18.9048 42.4895 17.2478 42.3561 15.621 42.7835L12.602 43.5763C12.1483 43.6955 11.7678 44.0295 11.8788 44.452L14.5493 54.6196C14.6356 54.9481 15.0578 55.1548 15.6053 55.0111L18.9216 54.1401C20.6892 53.6758 21.8201 52.4425 21.1791 50.0021L21.0928 49.6736C20.682 48.1093 19.8647 47.6718 18.812 47.5471C19.5465 46.9696 19.8252 45.9935 19.4882 44.7107ZM14.8951 47.7231L14.1966 45.0638L15.9328 44.6078C16.7306 44.3983 17.3313 44.7757 17.5451 45.5891C17.7546 46.3868 17.4917 47.0412 16.647 47.2631L14.8951 47.7231ZM19.0346 50.114L19.1003 50.3642C19.4126 51.5531 18.9851 52.2171 18.0308 52.4677L16.2633 52.932L15.3143 49.3186L17.082 48.8543C18.036 48.6037 18.7141 48.8938 19.0346 50.114Z" fill="black"/>
<path d="M49.0976 43.5C50.6341 43.5 50.7473 44.5999 50.7796 45.1012C50.7958 45.5864 51.2325 45.7643 51.8309 45.7643C52.5425 45.7643 52.8821 45.5701 52.8821 44.7291C52.8821 42.853 51.281 41.6562 49.0329 41.6562C46.9951 41.6562 45.2969 42.659 45.2969 45.36V49.8722C45.2969 52.5732 46.9789 53.5759 49.0168 53.5759C51.281 53.5759 52.8821 52.3306 52.8821 50.3736C52.8821 49.5489 52.5425 49.3385 51.8146 49.3385C51.2647 49.3385 50.8119 49.5002 50.7795 50.0016C50.731 50.6809 50.6016 51.7321 49.1299 51.7321C48.014 51.7321 47.3994 51.1336 47.3994 49.8721V45.3599C47.3995 44.0985 48.0141 43.5 49.0976 43.5Z" fill="black"/>
<path d="M42.1653 27.8898L46.439 13.1748C47.5091 9.48979 45.3818 5.62104 41.6967 4.55079L26.9817 0.277167C23.2965 -0.793833 19.428 1.33417 18.3577 5.01929L16.9705 9.79579C16.8261 10.2927 17.112 10.8124 17.6088 10.9568C18.1056 11.1013 18.6256 10.8154 18.7698 10.3184L20.1572 5.54192C20.5361 4.23754 21.4002 3.15867 22.5905 2.50417C23.7807 1.84967 25.1546 1.69767 26.4592 2.07654L41.1741 6.35004C43.867 7.13229 45.4215 9.95929 44.6395 12.6522L40.3658 27.3672C39.5837 30.0599 36.7565 31.6145 34.0637 30.8325L19.3487 26.5589C18.0442 26.18 16.9653 25.3158 16.3108 24.1255C15.6563 22.9353 15.5045 21.5613 15.8833 20.2569L17.5351 14.5698C17.6793 14.0729 17.3935 13.5532 16.8967 13.4088C16.4002 13.2645 15.8801 13.5503 15.7357 14.0472L14.0841 19.7343C13.5656 21.5194 13.7733 23.3995 14.6691 25.0284C15.5647 26.6573 17.0412 27.8398 18.8262 28.3583L33.5412 32.6319C34.187 32.8195 34.8382 32.9088 35.4792 32.9088C38.4961 32.9087 41.2826 30.929 42.1653 27.8898Z" fill="black"/>
<path d="M29.7843 38.3535C29.4876 36.5184 28.4938 34.9089 26.9863 33.8213C25.4788 32.7335 23.6378 32.2979 21.8031 32.5949L6.6767 35.0416C2.88857 35.6544 0.305322 39.2346 0.918072 43.0226L1.73357 48.0646C1.8162 48.5754 2.2977 48.9236 2.80807 48.8399C3.31882 48.7573 3.66595 48.2763 3.58332 47.7655L2.76782 42.7235C2.32007 39.9554 4.20782 37.339 6.97607 36.8913L22.1024 34.4445C23.4431 34.2279 24.7884 34.5459 25.8902 35.3408C26.9918 36.1355 27.7178 37.3118 27.9347 38.6526L30.3814 53.779C30.8292 56.5471 28.9414 59.1636 26.1732 59.6114L11.0468 62.0581C9.70582 62.2745 8.3607 61.9568 7.25907 61.1619C6.15757 60.3671 5.43145 59.1909 5.21457 57.85L4.28195 52.084C4.19932 51.5733 3.71795 51.2251 3.20745 51.3088C2.6967 51.3914 2.34957 51.8724 2.4322 52.3831L3.36482 58.1491C3.66157 59.9843 4.65532 61.5938 6.1627 62.6814C7.36132 63.5461 8.77045 63.9988 10.2199 63.9988C10.5936 63.9988 10.9699 63.9686 11.3461 63.9078L26.4724 61.461C30.2606 60.8483 32.8438 57.2679 32.2311 53.4799L29.7843 38.3535Z" fill="black"/>
<path d="M56.2121 33.1055H40.8889C37.0516 33.1055 33.9297 36.2273 33.9297 40.0646V45.1778C33.9297 45.6953 34.3492 46.1147 34.8666 46.1147C35.3839 46.1147 35.8034 45.6953 35.8034 45.1778V40.0646C35.8034 37.2606 38.0848 34.9792 40.8889 34.9792H56.2121C59.0162 34.9792 61.2976 37.2606 61.2976 40.0646V55.3876C61.2976 58.1917 59.0162 60.4731 56.2121 60.4731H40.8889C38.0848 60.4731 35.8034 58.1917 35.8034 55.3876V49.55C35.8034 49.0325 35.3839 48.6131 34.8666 48.6131C34.3492 48.6131 33.9297 49.0325 33.9297 49.55V55.3876C33.9297 59.2248 37.0516 62.3468 40.8889 62.3468H56.2121C60.0494 62.3468 63.1713 59.2248 63.1713 55.3876V40.0646C63.1713 36.2273 60.0494 33.1055 56.2121 33.1055Z" fill="black"/>
</svg>
