<svg width="176" height="176" viewBox="0 0 176 176" fill="none" xmlns="http://www.w3.org/2000/svg">
<mask id="mask0_1885_12164" style="mask-type:alpha" maskUnits="userSpaceOnUse" x="0" y="48" width="128" height="128">
<circle cx="64" cy="112" r="64" fill="#FEF284"/>
</mask>
<g mask="url(#mask0_1885_12164)">
<circle cx="64" cy="112" r="64" fill="#FEF284"/>
<path d="M36.7799 127.271V114.337H28.6966H20.6133V127.271H28.6966H36.7799Z" fill="#9DC6FB"/>
<path d="M62.6432 114.337H54.5599H46.4766V127.271H62.6432V114.337Z" fill="#9DC6FB"/>
<path d="M36.7799 154.753V141.82H28.6966H20.6133V154.753H28.6966H36.7799Z" fill="#9DC6FB"/>
<path d="M75.5807 141.82H67.4974H59.4141V154.753H67.4974H75.5807V141.82Z" fill="#9DC6FB"/>
<path d="M36.7799 164.448H28.6966H20.6133V177.381H36.7799V164.448Z" fill="#9DC6FB"/>
<path d="M75.5885 170.914V164.448H67.5052H59.4219V177.381H75.5885V170.914Z" fill="#9DC6FB"/>
<path d="M98.2266 170.914V177.381H114.393V164.448H98.2266V170.914Z" fill="#ABE9FE"/>
<path d="M88.5182 114.337H80.4349H72.3516V127.271H88.5182V114.337Z" fill="#9DC6FB"/>
<path d="M98.2109 114.337V127.271H114.378V114.337H106.294H98.2109Z" fill="#9DC6FB"/>
<path d="M54.563 83.6162H31.9297V94.9329H43.2464H54.563V83.6162Z" fill="#9DC6FB"/>
<path d="M114.383 112.717H107.917V104.633C107.917 103.739 107.192 103.017 106.3 103.017H44.8667V96.55H54.5667C55.4591 96.55 56.1833 95.8273 56.1833 94.9333V83.6167C56.1833 82.7227 55.4591 82 54.5667 82H31.9333C31.0409 82 30.3167 82.7227 30.3167 83.6167V94.9333C30.3167 95.8273 31.0409 96.55 31.9333 96.55H41.6333V103.017H28.7C27.8076 103.017 27.0833 103.739 27.0833 104.633V112.717H20.6167C19.7243 112.717 19 113.439 19 114.333V127.267C19 128.161 19.7243 128.883 20.6167 128.883H27.0833V140.2H20.6167C19.7243 140.2 19 140.923 19 141.817V154.75C19 155.644 19.7243 156.367 20.6167 156.367H27.0833V162.833H20.6167C19.7243 162.833 19 163.556 19 164.45V177.383C19 178.277 19.7243 179 20.6167 179H36.7833C37.6757 179 38.4 178.277 38.4 177.383V164.45C38.4 163.556 37.6757 162.833 36.7833 162.833H30.3167V156.367H36.7833C37.6757 156.367 38.4 155.644 38.4 154.75V141.817C38.4 140.923 37.6757 140.2 36.7833 140.2H30.3167V136.967H65.8833V140.2H59.4167C58.5243 140.2 57.8 140.923 57.8 141.817V154.75C57.8 155.644 58.5243 156.367 59.4167 156.367H65.8833V162.833H59.4167C58.5243 162.833 57.8 163.556 57.8 164.45V177.383C57.8 178.277 58.5243 179 59.4167 179H75.5833C76.4757 179 77.2 178.277 77.2 177.383V172.533H96.6V177.383C96.6 178.277 97.3243 179 98.2167 179H114.383C115.276 179 116 178.277 116 177.383V164.45C116 163.556 115.276 162.833 114.383 162.833H98.2167C97.3243 162.833 96.6 163.556 96.6 164.45V169.3H77.2V164.45C77.2 163.556 76.4757 162.833 75.5833 162.833H69.1167V156.367H75.5833C76.4757 156.367 77.2 155.644 77.2 154.75V141.817C77.2 140.923 76.4757 140.2 75.5833 140.2H69.1167V135.35C69.1167 134.456 68.3924 133.733 67.5 133.733H30.3167V128.883H36.7833C37.6757 128.883 38.4 128.161 38.4 127.267V114.333C38.4 113.439 37.6757 112.717 36.7833 112.717H30.3167V106.25H52.95V112.717H46.4833C45.5909 112.717 44.8667 113.439 44.8667 114.333V127.267C44.8667 128.161 45.5909 128.883 46.4833 128.883H62.65C63.5424 128.883 64.2667 128.161 64.2667 127.267V114.333C64.2667 113.439 63.5424 112.717 62.65 112.717H56.1833V106.25H78.8167V112.717H72.35C71.4576 112.717 70.7333 113.439 70.7333 114.333V127.267C70.7333 128.161 71.4576 128.883 72.35 128.883H88.5167C89.4091 128.883 90.1333 128.161 90.1333 127.267V114.333C90.1333 113.439 89.4091 112.717 88.5167 112.717H82.05V106.25H104.683V112.717H98.2167C97.3243 112.717 96.6 113.439 96.6 114.333V127.267C96.6 128.161 97.3243 128.883 98.2167 128.883H114.383C115.276 128.883 116 128.161 116 127.267V114.333C116 113.439 115.276 112.717 114.383 112.717ZM33.55 85.2333H52.95V93.3167H33.55V85.2333ZM35.1667 175.767H22.2333V166.067H35.1667V175.767ZM35.1667 153.133H22.2333V143.433H35.1667V153.133ZM99.8333 166.067H112.767V175.767H99.8333V166.067ZM73.9667 175.767H61.0333V166.067H73.9667V175.767ZM73.9667 153.133H61.0333V143.433H73.9667V153.133ZM35.1667 125.65H22.2333V115.95H35.1667V125.65ZM61.0333 125.65H48.1V115.95H61.0333V125.65ZM86.9 125.65H73.9667V115.95H86.9V125.65ZM112.767 125.65H99.8333V115.95H112.767V125.65Z" fill="black"/>
</g>
<path d="M85.1406 60.2554V84.7657C85.1406 90.1933 104.329 94.5932 127.999 94.5932C151.669 94.5932 170.858 90.1933 170.858 84.7657V60.2554H85.1406Z" fill="#DFEAEF"/>
<path d="M85.1406 35.7454V60.2557C85.1406 65.6833 104.329 70.0832 127.999 70.0832C151.669 70.0832 170.858 65.6833 170.858 60.2557V35.7454H85.1406Z" fill="#DFEAEF"/>
<path d="M85.1406 11.2349V35.7452C85.1406 41.1728 104.329 45.5727 127.999 45.5727C151.669 45.5727 170.858 41.1728 170.858 35.7452V11.2349H85.1406Z" fill="#DFEAEF"/>
<path d="M161.064 11.2349V35.7452C161.064 40.7929 144.465 44.9511 123.102 45.5084C124.709 45.5504 126.342 45.5725 127.998 45.5725C151.668 45.5725 170.856 41.1726 170.856 35.7451V11.2349H161.064Z" fill="#BFCFD6"/>
<path d="M161.064 35.7454V60.2557C161.064 65.3034 144.465 69.4616 123.102 70.0189C124.709 70.0609 126.342 70.083 127.998 70.083C151.668 70.083 170.856 65.6831 170.856 60.2555V35.7454H161.064Z" fill="#BFCFD6"/>
<path d="M161.064 60.3501V84.8605C161.064 89.9082 144.465 94.0663 123.102 94.6236C124.709 94.6656 126.342 94.6877 127.998 94.6877C151.668 94.6877 170.856 90.2878 170.856 84.8603V60.3501H161.064Z" fill="#BFCFD6"/>
<path d="M127.999 21.0615C151.67 21.0615 170.858 16.6618 170.858 11.2346C170.858 5.80736 151.67 1.40771 127.999 1.40771C104.329 1.40771 85.1406 5.80736 85.1406 11.2346C85.1406 16.6618 104.329 21.0615 127.999 21.0615Z" fill="#9EBECC"/>
<path d="M127.998 1.40698C126.342 1.40698 124.709 1.42929 123.102 1.47111C144.465 2.02836 161.064 6.18654 161.064 11.2342C161.064 16.2819 144.465 20.4401 123.102 20.9974C124.709 21.0394 126.342 21.0615 127.998 21.0615C151.668 21.0615 170.856 16.6616 170.856 11.234C170.856 5.80686 151.668 1.40698 127.998 1.40698Z" fill="#86AEBC"/>
<path d="M154.028 35.0534C156.28 35.0534 158.106 33.2274 158.106 30.975C158.106 28.7226 156.28 26.8967 154.028 26.8967C151.775 26.8967 149.949 28.7226 149.949 30.975C149.949 33.2274 151.775 35.0534 154.028 35.0534Z" fill="#FC9F3D"/>
<path d="M154.028 59.2409C156.28 59.2409 158.106 57.4149 158.106 55.1625C158.106 52.9102 156.28 51.0842 154.028 51.0842C151.775 51.0842 149.949 52.9102 149.949 55.1625C149.949 57.4149 151.775 59.2409 154.028 59.2409Z" fill="#FC9F3D"/>
<path d="M154.028 83.4657C156.28 83.4657 158.106 81.6398 158.106 79.3874C158.106 77.135 156.28 75.3091 154.028 75.3091C151.775 75.3091 149.949 77.135 149.949 79.3874C149.949 81.6398 151.775 83.4657 154.028 83.4657Z" fill="#FC9F3D"/>
<path d="M156.912 82.2709C158.505 80.6783 158.505 78.096 156.912 76.5034L151.145 82.2709C152.737 83.8637 155.319 83.8637 156.912 82.2709Z" fill="#ED852F"/>
<path d="M141.966 31.5046C137.49 31.8646 132.79 32.0472 127.998 32.0472C116.571 32.0472 105.912 31.0223 97.9829 29.1614C97.228 28.9851 96.4692 29.4531 96.2914 30.2097C96.1139 30.9665 96.5834 31.7236 97.3398 31.9011C105.473 33.8101 116.361 34.8612 127.998 34.8612C132.865 34.8612 137.641 34.6756 142.191 34.3094C142.966 34.2471 143.543 33.5686 143.481 32.794C143.419 32.0198 142.738 31.4412 141.966 31.5046Z" fill="black"/>
<path d="M141.966 55.6198C137.49 55.9798 132.79 56.1624 127.998 56.1624C116.571 56.1624 105.912 55.1375 97.9829 53.2766C97.228 53.0998 96.4692 53.5683 96.2914 54.3249C96.1139 55.0816 96.5834 55.8388 97.3398 56.0163C105.473 57.9253 116.361 58.9764 127.998 58.9764C132.865 58.9764 137.641 58.7908 142.191 58.4246C142.966 58.3623 143.543 57.6838 143.481 56.9092C143.419 56.1348 142.738 55.5568 141.966 55.6198Z" fill="black"/>
<path d="M172.259 11.0683C171.962 4.3395 153.76 1.70906 145.896 0.887437C143.47 0.633937 140.927 0.43125 138.337 0.285375C134.973 0.096 131.495 0 128 0C119.058 0 110.472 0.62175 103.168 1.79831C102.4 1.92187 101.879 2.64394 102.002 3.41119C102.126 4.17825 102.849 4.70062 103.615 4.5765C110.774 3.42356 119.206 2.814 128 2.814C131.442 2.814 134.867 2.9085 138.179 3.09506C140.724 3.23831 143.222 3.43725 145.604 3.68606C152.881 4.44637 159.033 5.65388 163.395 7.17806C169.16 9.19256 169.452 10.9104 169.452 11.2343C169.452 12.3298 167.038 14.7375 157.992 16.8118C157.742 16.8692 157.489 16.9256 157.234 16.9813C149.33 18.7073 138.991 19.6547 128 19.6547C117.01 19.6547 106.671 18.7071 98.7664 16.9813C98.5114 16.9256 98.2591 16.8692 98.0091 16.8118C89.0448 14.7564 86.5947 12.3746 86.5508 11.2656C86.551 11.2551 86.5523 11.2449 86.5523 11.2346C86.5523 11.2247 86.551 11.2151 86.5508 11.2052C86.5739 10.5429 87.3756 9.69881 88.7618 8.88263C90.5108 7.85269 93.0754 6.9 96.3848 6.051C97.1374 5.85787 97.591 5.09119 97.3979 4.33838C97.2048 3.58594 96.4388 3.13275 95.6852 3.32531C87.7553 5.35969 83.7344 8.02106 83.7344 11.2348V35.7452V60.2554V84.7658C83.7344 88.2107 88.3255 91.0101 97.3801 93.0863C105.575 94.9652 116.45 96 128 96C139.551 96 150.425 94.9652 158.62 93.0861C167.675 91.0099 172.266 88.2105 172.266 84.7656V60.2552V35.7448V11.307C172.267 11.2828 172.269 11.2588 172.269 11.2344C172.269 11.1782 172.266 11.1229 172.259 11.0683ZM169.452 84.7656C169.452 85.8611 167.038 88.2688 157.991 90.3431C149.996 92.1763 139.345 93.1858 128 93.1858C116.655 93.1858 106.004 92.1763 98.0089 90.3431C88.9624 88.2686 86.5486 85.8611 86.5486 84.7656V64.5321C86.5793 64.5532 86.6132 64.5741 86.6446 64.5952C86.7209 64.6468 86.7991 64.698 86.8784 64.749C86.9425 64.7903 87.0072 64.8315 87.0732 64.8726C87.1559 64.9239 87.241 64.9748 87.3269 65.0256C87.3944 65.0655 87.4613 65.1056 87.5307 65.1452C87.6212 65.1969 87.7148 65.2483 87.8086 65.2997C87.8779 65.3376 87.946 65.3756 88.0171 65.4133C88.1193 65.4675 88.2252 65.5209 88.3309 65.5746C88.3981 65.6085 88.4633 65.6428 88.5319 65.6766C88.663 65.7411 88.7986 65.8048 88.9349 65.8686C88.9825 65.8907 89.0277 65.9134 89.0759 65.9355C89.2609 66.0204 89.4511 66.1046 89.6457 66.1881C89.7064 66.2141 89.7704 66.2396 89.8323 66.2657C89.9697 66.3234 90.1073 66.381 90.2494 66.438C90.3303 66.4704 90.4141 66.5023 90.4964 66.5346C90.6239 66.5844 90.7514 66.6343 90.8824 66.6836C90.9732 66.7178 91.0664 66.7515 91.1588 66.7852C91.2863 66.8319 91.4144 66.8786 91.5451 66.9249C91.6424 66.9593 91.7419 66.9934 91.8411 67.0275C91.9722 67.0725 92.1042 67.1175 92.2386 67.1621C92.3408 67.1961 92.4445 67.2298 92.5486 67.2636C92.6847 67.3076 92.8223 67.3515 92.9616 67.395C93.0681 67.4284 93.1754 67.4616 93.2838 67.4946C93.4263 67.5381 93.571 67.5812 93.7167 67.6241C93.826 67.6564 93.9351 67.6884 94.0463 67.7205C94.1974 67.764 94.3514 67.8069 94.5059 67.8499C94.6159 67.8804 94.7253 67.9112 94.837 67.9414C95.0011 67.9858 95.1687 68.0299 95.3365 68.0737C95.4428 68.1017 95.548 68.1298 95.6558 68.1574C95.8443 68.2057 96.0368 68.2534 96.2296 68.301C96.3212 68.3237 96.4109 68.3466 96.5035 68.3691C96.7911 68.4388 97.0829 68.5078 97.3801 68.5759C105.575 70.4548 116.45 71.4898 128 71.4898C139.551 71.4898 150.425 70.4548 158.62 68.5759C158.917 68.5078 159.209 68.4386 159.497 68.3691C159.59 68.3466 159.679 68.3237 159.771 68.301C159.964 68.2534 160.156 68.2059 160.344 68.1576C160.452 68.1298 160.558 68.1017 160.664 68.0737C160.832 68.0299 160.999 67.9858 161.163 67.9414C161.275 67.911 161.384 67.8804 161.494 67.8499C161.649 67.8069 161.803 67.764 161.954 67.7205C162.065 67.6886 162.174 67.6564 162.283 67.6241C162.429 67.5812 162.574 67.5381 162.716 67.4946C162.825 67.4616 162.932 67.4284 163.039 67.395C163.178 67.3515 163.315 67.3076 163.451 67.2637C163.556 67.23 163.659 67.1963 163.762 67.1621C163.896 67.1175 164.028 67.0727 164.159 67.0277C164.258 66.9936 164.357 66.9594 164.455 66.9251C164.586 66.879 164.714 66.8323 164.841 66.7854C164.934 66.7515 165.027 66.7179 165.117 66.6838C165.248 66.6345 165.376 66.5846 165.503 66.5347C165.586 66.5025 165.67 66.4706 165.75 66.4382C165.892 66.3814 166.029 66.3238 166.167 66.2663C166.229 66.2402 166.293 66.2143 166.354 66.1881C166.549 66.1046 166.739 66.0204 166.924 65.9357C166.972 65.9136 167.018 65.8911 167.065 65.8687C167.201 65.805 167.337 65.7412 167.468 65.6768C167.537 65.643 167.602 65.6087 167.669 65.5748C167.775 65.5211 167.881 65.4677 167.983 65.4135C168.054 65.3758 168.122 65.3378 168.191 65.2997C168.285 65.2485 168.379 65.1971 168.469 65.1454C168.539 65.1056 168.606 65.0655 168.673 65.0254C168.759 64.9746 168.844 64.9238 168.927 64.8726C168.993 64.8315 169.057 64.7903 169.122 64.749C169.201 64.698 169.279 64.6466 169.355 64.5952C169.387 64.5741 169.421 64.5532 169.451 64.5321V84.7656H169.452ZM169.452 60.2552C169.452 60.3579 169.43 60.4721 169.385 60.5966C168.941 61.7994 166.19 63.9529 157.991 65.8329C149.996 67.6661 139.345 68.6758 128 68.6758C116.655 68.6758 106.004 67.6661 98.0089 65.8329C89.8105 63.9529 87.0595 61.7994 86.6157 60.5966C86.5697 60.4723 86.5486 60.3579 86.5486 60.2552V40.0215C86.5784 40.0419 86.611 40.062 86.6412 40.0824C86.7196 40.1353 86.7998 40.188 86.8814 40.2405C86.944 40.2808 87.0068 40.3209 87.0713 40.3609C87.1555 40.413 87.2421 40.4649 87.3295 40.5167C87.3957 40.5559 87.4615 40.5952 87.5296 40.6341C87.6211 40.6864 87.7156 40.7381 87.8103 40.7901C87.8789 40.8276 87.9464 40.8652 88.0167 40.9026C88.1185 40.9566 88.2241 41.01 88.3296 41.0632C88.3975 41.0976 88.4635 41.1323 88.5327 41.1664C88.6617 41.2299 88.7952 41.2926 88.9292 41.3554C88.9787 41.3786 89.0262 41.4021 89.0764 41.4251C89.2611 41.5099 89.4509 41.5939 89.6449 41.6771C89.7091 41.7047 89.7767 41.7317 89.842 41.7591C89.9759 41.8151 90.1097 41.8714 90.2479 41.9269C90.3317 41.9604 90.4188 41.9936 90.5041 42.027C90.6284 42.0756 90.7527 42.1243 90.8806 42.1723C90.9737 42.2074 91.0697 42.2421 91.1648 42.2769C91.2897 42.3227 91.4147 42.3682 91.5428 42.4136C91.6424 42.4489 91.7442 42.4837 91.8456 42.5186C91.9744 42.5629 92.104 42.6069 92.2358 42.6508C92.3401 42.6855 92.4458 42.7198 92.5519 42.7541C92.6864 42.7976 92.8221 42.8408 92.9596 42.8839C93.0674 42.9176 93.1759 42.9512 93.2856 42.9846C93.427 43.0277 93.5703 43.0704 93.7146 43.1128C93.8249 43.1452 93.9351 43.1779 94.0471 43.2099C94.1974 43.2531 94.3504 43.296 94.5042 43.3386C94.615 43.3693 94.7253 43.4002 94.8378 43.4308C95.0005 43.4749 95.1666 43.5186 95.3329 43.5622C95.4408 43.5906 95.5472 43.6191 95.6566 43.647C95.8441 43.6952 96.0359 43.7424 96.2279 43.7899C96.3201 43.8126 96.4103 43.8358 96.5035 43.8583C96.7911 43.9281 97.0829 43.9971 97.3801 44.0651C105.575 45.9441 116.45 46.9791 128 46.9791C139.55 46.9791 150.425 45.9441 158.62 44.0651C158.917 43.9971 159.209 43.9279 159.497 43.8583C159.59 43.8356 159.68 43.8126 159.773 43.7899C159.965 43.7426 160.156 43.6952 160.343 43.6472C160.453 43.6191 160.56 43.5906 160.668 43.5622C160.834 43.5187 161 43.4753 161.162 43.431C161.275 43.4004 161.385 43.3695 161.496 43.3387C161.649 43.296 161.802 43.2533 161.953 43.2101C162.065 43.1779 162.175 43.1454 162.285 43.113C162.43 43.0704 162.573 43.0277 162.714 42.9847C162.824 42.9514 162.933 42.9176 163.04 42.8839C163.178 42.8409 163.313 42.7978 163.448 42.7543C163.554 42.72 163.66 42.6855 163.764 42.6508C163.896 42.6071 164.025 42.5631 164.154 42.5188C164.256 42.4839 164.357 42.4491 164.457 42.4138C164.585 42.3686 164.71 42.3229 164.835 42.2771C164.93 42.2422 165.026 42.2077 165.119 42.1725C165.247 42.1245 165.371 42.0758 165.496 42.0272C165.581 41.9938 165.668 41.9606 165.752 41.9271C165.89 41.8717 166.023 41.8159 166.157 41.7598C166.223 41.7323 166.29 41.7051 166.355 41.6773C166.549 41.5941 166.739 41.5101 166.924 41.4253C166.974 41.4022 167.021 41.3788 167.071 41.3556C167.205 41.2929 167.338 41.2301 167.467 41.1666C167.537 41.1324 167.603 41.0979 167.67 41.0634C167.776 41.01 167.882 40.9566 167.983 40.9027C168.054 40.8654 168.121 40.8278 168.19 40.7901C168.285 40.7383 168.379 40.6866 168.47 40.6343C168.539 40.5952 168.605 40.5559 168.671 40.5165C168.758 40.4647 168.845 40.413 168.929 40.3609C168.993 40.3209 169.056 40.2806 169.119 40.2405C169.2 40.188 169.281 40.1353 169.359 40.0824C169.389 40.062 169.422 40.0419 169.451 40.0215V60.2552H169.452ZM169.452 35.7448C169.452 36.8404 167.038 39.2481 157.991 41.3224C149.996 43.1556 139.345 44.1653 128 44.1653C116.655 44.1653 106.004 43.1556 98.0089 41.3224C88.9624 39.2481 86.5486 36.8406 86.5486 35.7448V15.5111C86.5784 15.5316 86.611 15.5516 86.6412 15.5721C86.7196 15.6249 86.7998 15.6776 86.8814 15.7301C86.944 15.7704 87.0068 15.8106 87.0713 15.8505C87.1555 15.9026 87.2421 15.9546 87.3295 16.0063C87.3957 16.0455 87.4615 16.0849 87.5296 16.1237C87.6211 16.176 87.7156 16.2277 87.8103 16.2797C87.8789 16.3172 87.9464 16.3549 88.0167 16.3922C88.1185 16.4462 88.2241 16.4996 88.3296 16.5529C88.3975 16.5872 88.4635 16.6219 88.5327 16.656C88.6617 16.7196 88.7952 16.7822 88.9292 16.845C88.9787 16.8682 89.0262 16.8917 89.0764 16.9147C89.2611 16.9995 89.4509 17.0835 89.6449 17.1667C89.7091 17.1943 89.7767 17.2213 89.842 17.2487C89.9759 17.3047 90.1097 17.361 90.2479 17.4165C90.3317 17.4501 90.4188 17.4832 90.5041 17.5166C90.6284 17.5652 90.7527 17.6139 90.8806 17.6619C90.9737 17.697 91.0697 17.7317 91.1648 17.7666C91.2897 17.8123 91.4147 17.8579 91.5428 17.9032C91.6424 17.9385 91.7442 17.9734 91.8456 18.0082C91.9744 18.0525 92.104 18.0966 92.2358 18.1404C92.3401 18.1751 92.4458 18.2094 92.5519 18.2438C92.6864 18.2873 92.8221 18.3304 92.9596 18.3735C93.0674 18.4072 93.1759 18.4408 93.2856 18.4742C93.427 18.5173 93.5703 18.5601 93.7146 18.6024C93.8249 18.6349 93.9351 18.6675 94.0471 18.6996C94.1974 18.7427 94.3504 18.7856 94.5042 18.8282C94.615 18.8589 94.7253 18.8899 94.8378 18.9204C95.0005 18.9645 95.1666 19.0082 95.3329 19.0519C95.4408 19.0802 95.5472 19.1087 95.6566 19.1366C95.8441 19.1846 96.0359 19.2321 96.2279 19.2795C96.3201 19.3022 96.4103 19.3254 96.5035 19.3479C96.7911 19.4177 97.0829 19.4867 97.3801 19.5548C105.575 21.4337 116.45 22.4687 128 22.4687C139.551 22.4687 150.425 21.4337 158.62 19.5548C158.917 19.4867 159.209 19.4175 159.497 19.3479C159.59 19.3253 159.68 19.3022 159.773 19.2795C159.965 19.2323 160.156 19.1848 160.343 19.1368C160.453 19.1087 160.56 19.0802 160.668 19.0519C160.834 19.0084 161 18.9649 161.162 18.9206C161.275 18.8901 161.385 18.8591 161.496 18.8284C161.649 18.7856 161.802 18.7429 161.953 18.6998C162.065 18.6675 162.175 18.6351 162.285 18.6026C162.43 18.5601 162.573 18.5173 162.714 18.4744C162.824 18.441 162.933 18.4072 163.04 18.3735C163.178 18.3306 163.313 18.2874 163.448 18.2439C163.554 18.2096 163.66 18.1751 163.764 18.1404C163.896 18.0968 164.025 18.0527 164.154 18.0084C164.256 17.9736 164.357 17.9387 164.457 17.9034C164.585 17.8582 164.71 17.8125 164.835 17.7668C164.93 17.7319 165.026 17.6974 165.119 17.6621C165.247 17.6141 165.371 17.5654 165.496 17.5168C165.581 17.4834 165.668 17.4503 165.752 17.4167C165.89 17.3614 166.023 17.3055 166.157 17.2494C166.223 17.2219 166.29 17.1947 166.355 17.1669C166.549 17.0837 166.739 16.9997 166.924 16.9149C166.974 16.8919 167.021 16.8684 167.071 16.8452C167.205 16.7826 167.338 16.7197 167.467 16.6562C167.537 16.6221 167.603 16.5876 167.67 16.5531C167.776 16.4996 167.882 16.4462 167.983 16.3924C168.054 16.3551 168.121 16.3174 168.19 16.2797C168.285 16.2279 168.379 16.1762 168.47 16.1239C168.539 16.0849 168.605 16.0455 168.671 16.0061C168.758 15.9544 168.845 15.9026 168.929 15.8505C168.993 15.8106 169.056 15.7702 169.119 15.7301C169.2 15.6776 169.281 15.6249 169.359 15.5721C169.389 15.5516 169.422 15.5316 169.451 15.5111V35.7448H169.452Z" fill="black"/>
<path d="M150.151 27.0958C148.012 29.2346 148.012 32.7144 150.151 34.8532C151.22 35.9223 152.625 36.4573 154.03 36.4573C155.434 36.4573 156.839 35.9225 157.908 34.8532C160.047 32.7144 160.047 29.2346 157.908 27.0958C155.769 24.9573 152.29 24.9573 150.151 27.0958ZM155.918 32.8633C155.414 33.3678 154.743 33.6457 154.03 33.6457C153.316 33.6457 152.645 33.3678 152.141 32.8633C151.636 32.3589 151.359 31.688 151.359 30.9746C151.359 30.2611 151.636 29.5903 152.141 29.0859C152.645 28.5813 153.316 28.3035 154.03 28.3035C154.743 28.3035 155.414 28.5813 155.918 29.0859C156.423 29.5903 156.701 30.2611 156.701 30.9746C156.701 31.688 156.423 32.3589 155.918 32.8633Z" fill="black"/>
<path d="M150.151 51.2835C148.012 53.4223 148.012 56.9021 150.151 59.0409C151.22 60.1101 152.625 60.645 154.03 60.645C155.434 60.645 156.839 60.1103 157.908 59.0409C160.047 56.9021 160.047 53.4223 157.908 51.2835C155.769 49.1451 152.29 49.1451 150.151 51.2835ZM155.918 57.051C155.414 57.5556 154.743 57.8335 154.03 57.8335C153.316 57.8335 152.645 57.5556 152.141 57.051C151.636 56.5466 151.359 55.8758 151.359 55.1623C151.359 54.4489 151.636 53.778 152.141 53.2736C152.645 52.7691 153.316 52.4912 154.03 52.4912C154.743 52.4912 155.414 52.7691 155.918 53.2736C156.423 53.778 156.701 54.4489 156.701 55.1623C156.701 55.8758 156.423 56.5466 155.918 57.051Z" fill="black"/>
<path d="M150.151 75.5086C148.012 77.6474 148.012 81.1272 150.151 83.2661C151.22 84.3352 152.625 84.8701 154.03 84.8701C155.434 84.8701 156.839 84.3354 157.908 83.2661C160.047 81.1272 160.047 77.6474 157.908 75.5086C155.769 73.3702 152.29 73.3702 150.151 75.5086ZM155.918 81.2761C155.414 81.7807 154.743 82.0586 154.03 82.0586C153.316 82.0586 152.645 81.7807 152.141 81.2761C151.636 80.7717 151.359 80.1009 151.359 79.3874C151.359 78.674 151.636 78.0031 152.141 77.4987C152.645 76.9942 153.316 76.7163 154.03 76.7163C154.743 76.7163 155.414 76.9942 155.918 77.4987C156.423 78.0031 156.701 78.674 156.701 79.3874C156.701 80.1007 156.423 80.7717 155.918 81.2761Z" fill="black"/>
<path d="M141.967 80.1895C140 80.3478 137.966 80.4732 135.924 80.5619C135.148 80.5959 134.546 81.2525 134.579 82.0289C134.612 82.7845 135.235 83.3748 135.984 83.3748C136.005 83.3748 136.026 83.3744 136.046 83.3735C138.123 83.2831 140.191 83.1556 142.193 82.9944C142.968 82.9321 143.545 82.2535 143.483 81.479C143.42 80.7048 142.74 80.1245 141.967 80.1895Z" fill="black"/>
<path d="M128.435 80.7318C128.434 80.7318 128.433 80.7318 128.432 80.7318L127.997 80.7322C116.571 80.7322 105.912 79.7073 97.9829 77.8464C97.228 77.6696 96.4692 78.1381 96.2914 78.8947C96.1139 79.6515 96.5834 80.4086 97.3398 80.5861C105.473 82.4951 116.361 83.5462 127.997 83.5462L128.439 83.5458C129.216 83.5438 129.844 82.9123 129.842 82.1353C129.84 81.3594 129.211 80.7318 128.435 80.7318Z" fill="black"/>
<circle cx="81.5" cy="49.5" r="21" fill="#77AD50" stroke="black" stroke-width="3"/>
<path d="M71.5 46.5L80 55L92 43" stroke="white" stroke-width="4"/>
</svg>
